G04 #@! TF.GenerationSoftware,KiCad,Pcbnew,5.1.10*
G04 #@! TF.CreationDate,2021-10-22T11:28:22+13:00*
G04 #@! TF.ProjectId,chroma_luma_invert,6368726f-6d61-45f6-9c75-6d615f696e76,rev?*
G04 #@! TF.SameCoordinates,Original*
G04 #@! TF.FileFunction,Legend,Bot*
G04 #@! TF.FilePolarity,Positive*
%FSLAX46Y46*%
G04 Gerber Fmt 4.6, Leading zero omitted, Abs format (unit mm)*
G04 Created by KiCad (PCBNEW 5.1.10) date 2021-10-22 11:28:22*
%MOMM*%
%LPD*%
G01*
G04 APERTURE LIST*
%ADD10C,0.600000*%
%ADD11C,0.150000*%
G04 APERTURE END LIST*
D10*
X126170000Y-58438095D02*
X122360476Y-58438095D01*
X121884285Y-53438095D02*
X120931904Y-52723809D01*
X119979523Y-53438095D01*
X114979523Y-52961904D02*
X111646190Y-57961904D01*
X111646190Y-52961904D02*
X114979523Y-57961904D01*
X110217619Y-52961904D02*
X106884285Y-57961904D01*
X106884285Y-52961904D02*
X110217619Y-57961904D01*
D11*
X124795714Y-59898571D02*
X124795714Y-60898571D01*
X125438571Y-59898571D02*
X125438571Y-60684285D01*
X125367142Y-60827142D01*
X125224285Y-60898571D01*
X125010000Y-60898571D01*
X124867142Y-60827142D01*
X124795714Y-60755714D01*
X124081428Y-59898571D02*
X124081428Y-60898571D01*
X124081428Y-60041428D02*
X124010000Y-59970000D01*
X123867142Y-59898571D01*
X123652857Y-59898571D01*
X123510000Y-59970000D01*
X123438571Y-60112857D01*
X123438571Y-60898571D01*
X122081428Y-60898571D02*
X122081428Y-59398571D01*
X122081428Y-60827142D02*
X122224285Y-60898571D01*
X122510000Y-60898571D01*
X122652857Y-60827142D01*
X122724285Y-60755714D01*
X122795714Y-60612857D01*
X122795714Y-60184285D01*
X122724285Y-60041428D01*
X122652857Y-59970000D01*
X122510000Y-59898571D01*
X122224285Y-59898571D01*
X122081428Y-59970000D01*
X120795714Y-60827142D02*
X120938571Y-60898571D01*
X121224285Y-60898571D01*
X121367142Y-60827142D01*
X121438571Y-60684285D01*
X121438571Y-60112857D01*
X121367142Y-59970000D01*
X121224285Y-59898571D01*
X120938571Y-59898571D01*
X120795714Y-59970000D01*
X120724285Y-60112857D01*
X120724285Y-60255714D01*
X121438571Y-60398571D01*
X120081428Y-60898571D02*
X120081428Y-59898571D01*
X120081428Y-60184285D02*
X120010000Y-60041428D01*
X119938571Y-59970000D01*
X119795714Y-59898571D01*
X119652857Y-59898571D01*
X119224285Y-60827142D02*
X119081428Y-60898571D01*
X118795714Y-60898571D01*
X118652857Y-60827142D01*
X118581428Y-60684285D01*
X118581428Y-60612857D01*
X118652857Y-60470000D01*
X118795714Y-60398571D01*
X119010000Y-60398571D01*
X119152857Y-60327142D01*
X119224285Y-60184285D01*
X119224285Y-60112857D01*
X119152857Y-59970000D01*
X119010000Y-59898571D01*
X118795714Y-59898571D01*
X118652857Y-59970000D01*
X117295714Y-60827142D02*
X117438571Y-60898571D01*
X117724285Y-60898571D01*
X117867142Y-60827142D01*
X117938571Y-60755714D01*
X118010000Y-60612857D01*
X118010000Y-60184285D01*
X117938571Y-60041428D01*
X117867142Y-59970000D01*
X117724285Y-59898571D01*
X117438571Y-59898571D01*
X117295714Y-59970000D01*
X116438571Y-60898571D02*
X116581428Y-60827142D01*
X116652857Y-60755714D01*
X116724285Y-60612857D01*
X116724285Y-60184285D01*
X116652857Y-60041428D01*
X116581428Y-59970000D01*
X116438571Y-59898571D01*
X116224285Y-59898571D01*
X116081428Y-59970000D01*
X116010000Y-60041428D01*
X115938571Y-60184285D01*
X115938571Y-60612857D01*
X116010000Y-60755714D01*
X116081428Y-60827142D01*
X116224285Y-60898571D01*
X116438571Y-60898571D01*
X115295714Y-60898571D02*
X115295714Y-59898571D01*
X115295714Y-60184285D02*
X115224285Y-60041428D01*
X115152857Y-59970000D01*
X115010000Y-59898571D01*
X114867142Y-59898571D01*
X113795714Y-60827142D02*
X113938571Y-60898571D01*
X114224285Y-60898571D01*
X114367142Y-60827142D01*
X114438571Y-60684285D01*
X114438571Y-60112857D01*
X114367142Y-59970000D01*
X114224285Y-59898571D01*
X113938571Y-59898571D01*
X113795714Y-59970000D01*
X113724285Y-60112857D01*
X113724285Y-60255714D01*
X114438571Y-60398571D01*
X113152857Y-60827142D02*
X113010000Y-60898571D01*
X112724285Y-60898571D01*
X112581428Y-60827142D01*
X112510000Y-60684285D01*
X112510000Y-60612857D01*
X112581428Y-60470000D01*
X112724285Y-60398571D01*
X112938571Y-60398571D01*
X113081428Y-60327142D01*
X113152857Y-60184285D01*
X113152857Y-60112857D01*
X113081428Y-59970000D01*
X112938571Y-59898571D01*
X112724285Y-59898571D01*
X112581428Y-59970000D01*
X111867142Y-60755714D02*
X111795714Y-60827142D01*
X111867142Y-60898571D01*
X111938571Y-60827142D01*
X111867142Y-60755714D01*
X111867142Y-60898571D01*
X111224285Y-60827142D02*
X111081428Y-60898571D01*
X110795714Y-60898571D01*
X110652857Y-60827142D01*
X110581428Y-60684285D01*
X110581428Y-60612857D01*
X110652857Y-60470000D01*
X110795714Y-60398571D01*
X111010000Y-60398571D01*
X111152857Y-60327142D01*
X111224285Y-60184285D01*
X111224285Y-60112857D01*
X111152857Y-59970000D01*
X111010000Y-59898571D01*
X110795714Y-59898571D01*
X110652857Y-59970000D01*
X109938571Y-60898571D02*
X109938571Y-59398571D01*
X109295714Y-60898571D02*
X109295714Y-60112857D01*
X109367142Y-59970000D01*
X109510000Y-59898571D01*
X109724285Y-59898571D01*
X109867142Y-59970000D01*
X109938571Y-60041428D01*
X108367142Y-60898571D02*
X108510000Y-60827142D01*
X108581428Y-60755714D01*
X108652857Y-60612857D01*
X108652857Y-60184285D01*
X108581428Y-60041428D01*
X108510000Y-59970000D01*
X108367142Y-59898571D01*
X108152857Y-59898571D01*
X108010000Y-59970000D01*
X107938571Y-60041428D01*
X107867142Y-60184285D01*
X107867142Y-60612857D01*
X107938571Y-60755714D01*
X108010000Y-60827142D01*
X108152857Y-60898571D01*
X108367142Y-60898571D01*
X107224285Y-59898571D02*
X107224285Y-61398571D01*
X107224285Y-59970000D02*
X107081428Y-59898571D01*
X106795714Y-59898571D01*
X106652857Y-59970000D01*
X106581428Y-60041428D01*
X106510000Y-60184285D01*
X106510000Y-60612857D01*
X106581428Y-60755714D01*
X106652857Y-60827142D01*
X106795714Y-60898571D01*
X107081428Y-60898571D01*
X107224285Y-60827142D01*
M02*
