M48
; DRILL file {KiCad 5.1.10} date Fri Oct 22 11:28:37 2021
; FORMAT={-:-/ absolute / inch / decimal}
; #@! TF.CreationDate,2021-10-22T11:28:37+13:00
; #@! TF.GenerationSoftware,Kicad,Pcbnew,5.1.10
; #@! TF.FileFunction,Plated,1,2,PTH
FMAT,2
INCH
T1C0.0157
T2C0.0315
T3C0.0354
T4C0.0394
T5C0.0433
T6C0.0669
T7C0.0787
%
G90
G05
T1
X4.4984Y-5.0091
X5.0904Y-1.7923
X5.7559Y-2.2594
X5.7799Y-2.7417
X5.8961Y-2.2972
X6.472Y-3.1189
X6.5327Y-3.348
X6.6539Y-4.3996
X6.8902Y-4.1169
X7.2472Y-2.6315
X7.6189Y-3.7303
X7.722Y-3.1012
X7.7583Y-3.5508
X7.784Y-2.9426
X7.8102Y-3.4811
X7.887Y-3.4587
T2
X4.2778Y-4.063
X4.2844Y-3.9154
X4.3504Y-4.5305
X4.3504Y-4.6305
X4.3504Y-4.7305
X4.3504Y-4.8305
X4.4813Y-3.9154
X4.5778Y-4.063
X4.6504Y-4.5305
X4.6504Y-4.6305
X4.6504Y-4.7305
X4.6504Y-4.8305
X4.7352Y-4.0699
X4.7366Y-4.2114
X4.7579Y-3.0502
X4.7579Y-3.3502
X4.7795Y-1.9537
X4.7805Y-1.625
X4.7825Y-1.4695
X4.9193Y-4.4902
X4.9193Y-4.5902
X4.9193Y-4.6902
X4.9193Y-4.7902
X4.9193Y-4.8902
X4.9193Y-4.9902
X4.9193Y-5.0902
X4.9193Y-5.1902
X4.9321Y-4.0699
X4.9335Y-4.2114
X4.9764Y-1.9537
X5.0283Y-4.3516
X5.0583Y-2.4161
X5.0622Y-2.5728
X5.0661Y-2.7343
X5.0805Y-1.625
X5.0825Y-1.4695
X5.2193Y-4.4902
X5.2193Y-4.5902
X5.2193Y-4.6902
X5.2193Y-4.7902
X5.2193Y-4.8902
X5.2193Y-4.9902
X5.2193Y-5.0902
X5.2193Y-5.1902
X5.2252Y-4.3516
X5.2293Y-1.7864
X5.2307Y-1.9461
X5.3583Y-2.4161
X5.3622Y-2.5728
X5.3661Y-2.7343
X5.3701Y-4.4943
X5.3701Y-4.7943
X5.3711Y-4.9195
X5.3711Y-5.2195
X5.5122Y-2.7173
X5.5122Y-2.9142
X5.5128Y-3.0465
X5.5128Y-3.3465
X5.526Y-4.4965
X5.526Y-4.6933
X5.5293Y-1.7864
X5.5299Y-4.9201
X5.5299Y-5.1169
X5.5307Y-1.9461
X5.6417Y-1.5315
X5.7402Y-1.5315
X5.8856Y-5.1024
X5.8896Y-4.6073
X5.9557Y-2.4911
X5.9557Y-2.5911
X5.9557Y-2.6911
X5.9557Y-2.7911
X5.9557Y-2.8911
X5.9557Y-2.9911
X5.9557Y-3.0911
X5.9856Y-5.0024
X5.9896Y-4.5073
X6.065Y-3.8272
X6.0652Y-3.9744
X6.0856Y-5.1024
X6.0896Y-4.6073
X6.2557Y-2.4911
X6.2557Y-2.5911
X6.2557Y-2.6911
X6.2557Y-2.7911
X6.2557Y-2.8911
X6.2557Y-2.9911
X6.2557Y-3.0911
X6.365Y-3.8272
X6.3652Y-3.9744
X6.378Y-1.8415
X6.3789Y-1.685
X6.4232Y-4.4734
X6.4232Y-4.5734
X6.4232Y-4.6734
X6.4232Y-4.7734
X6.4232Y-4.8734
X6.4232Y-4.9734
X6.4232Y-5.0734
X6.4232Y-5.1734
X6.4919Y-3.6063
X6.4949Y-3.9085
X6.5409Y-4.3378
X6.5919Y-3.5063
X6.5949Y-3.8085
X6.678Y-1.8415
X6.6789Y-1.685
X6.687Y-3.0583
X6.687Y-3.3583
X6.6919Y-3.6063
X6.6949Y-3.9085
X6.7232Y-4.4734
X6.7232Y-4.5734
X6.7232Y-4.6734
X6.7232Y-4.7734
X6.7232Y-4.8734
X6.7232Y-4.9734
X6.7232Y-5.0734
X6.7232Y-5.1734
X6.7378Y-4.3378
X6.8307Y-2.7528
X6.8339Y-2.5803
X6.835Y-2.4161
X6.837Y-2.2461
X6.8868Y-4.4587
X6.8868Y-4.7587
X6.8878Y-4.8986
X6.8878Y-5.1986
X7.0344Y-4.4616
X7.0344Y-4.6585
X7.0463Y-4.8986
X7.0463Y-5.0955
X7.0776Y-1.8
X7.1307Y-2.7528
X7.1339Y-2.5803
X7.135Y-2.4161
X7.137Y-2.2461
X7.363Y-4.6289
X7.363Y-5.1083
X7.3776Y-1.8
X7.4236Y-3.4882
X7.4236Y-3.7882
X7.4242Y-3.0679
X7.4242Y-3.3679
X7.463Y-4.5289
X7.463Y-5.0083
X7.563Y-4.6289
X7.563Y-5.1083
X7.6067Y-2.2898
X7.6067Y-2.3898
X7.6067Y-2.4898
X7.6067Y-2.5898
X7.6067Y-2.6898
X7.6067Y-2.7898
X7.6067Y-2.8898
X7.6067Y-2.9898
X7.7291Y-2.1469
X7.9067Y-2.2898
X7.9067Y-2.3898
X7.9067Y-2.4898
X7.9067Y-2.5898
X7.9067Y-2.6898
X7.9067Y-2.7898
X7.9067Y-2.8898
X7.9067Y-2.9898
X7.926Y-2.1469
T3
X5.0089Y-3.5768
X5.127Y-3.5768
X5.2451Y-3.5768
X6.9469Y-3.5994
X7.065Y-3.5994
X7.1831Y-3.5994
T4
X5.0354Y-3.3425
X5.1339Y-3.3425
X5.2323Y-3.3425
X6.8181Y-1.4728
X6.8181Y-1.5728
X6.9181Y-1.4728
X6.9181Y-1.5728
X6.9596Y-3.3494
X7.0181Y-1.4728
X7.0181Y-1.5728
X7.0581Y-3.3494
X7.1181Y-1.4728
X7.1181Y-1.5728
X7.1565Y-3.3494
X7.2181Y-1.4728
X7.2181Y-1.5728
X7.3181Y-1.4728
X7.3181Y-1.5728
X7.4181Y-1.4728
X7.4181Y-1.5728
X7.5181Y-1.4728
X7.5181Y-1.5728
X7.9732Y-3.4051
X7.9732Y-3.5051
X7.9732Y-3.6051
X7.9732Y-3.7051
X7.9732Y-3.8051
X7.9732Y-3.9051
X7.9732Y-4.0051
X7.9732Y-4.1051
X7.9732Y-4.2051
X7.9732Y-4.3051
X7.9732Y-4.4051
X7.9732Y-4.5051
T5
X4.7904Y-1.7923
X5.0904Y-1.7923
X6.4252Y-1.5266
X6.5252Y-1.5266
X6.6252Y-1.5266
T6
X4.4183Y-1.7608
X7.7815Y-1.7667
T7
X4.2156Y-1.8238
X4.6211Y-1.8238
X7.5787Y-1.8297
X7.9843Y-1.8297
T4
G00X4.8947Y-3.5965
M15
G01X4.8947Y-3.5531
M16
G05
G00X5.3593Y-3.5965
M15
G01X5.3593Y-3.5531
M16
G05
G00X5.9185Y-1.6051
M15
G01X5.9185Y-1.6839
M16
G05
G00X6.1429Y-1.5264
M15
G01X6.0642Y-1.5264
M16
G05
G00X6.1429Y-1.7626
M15
G01X6.0642Y-1.7626
M16
G05
G00X6.8327Y-3.6191
M15
G01X6.8327Y-3.5758
M16
G05
G00X7.2972Y-3.6191
M15
G01X7.2972Y-3.5758
M16
G05
T0
M30
