G04 #@! TF.GenerationSoftware,KiCad,Pcbnew,5.1.10*
G04 #@! TF.CreationDate,2021-10-22T11:28:22+13:00*
G04 #@! TF.ProjectId,chroma_luma_invert,6368726f-6d61-45f6-9c75-6d615f696e76,rev?*
G04 #@! TF.SameCoordinates,Original*
G04 #@! TF.FileFunction,Soldermask,Bot*
G04 #@! TF.FilePolarity,Negative*
%FSLAX46Y46*%
G04 Gerber Fmt 4.6, Leading zero omitted, Abs format (unit mm)*
G04 Created by KiCad (PCBNEW 5.1.10) date 2021-10-22 11:28:22*
%MOMM*%
%LPD*%
G01*
G04 APERTURE LIST*
%ADD10C,3.600000*%
%ADD11C,2.000000*%
%ADD12O,2.600000X2.600000*%
%ADD13C,3.400000*%
%ADD14C,2.950000*%
%ADD15O,2.100000X2.100000*%
%ADD16O,2.000000X2.000000*%
%ADD17C,1.840000*%
%ADD18C,2.200000*%
%ADD19C,4.400000*%
%ADD20C,2.100000*%
%ADD21O,2.200000X3.400000*%
%ADD22O,2.800000X2.000000*%
%ADD23O,2.305000X2.400000*%
G04 APERTURE END LIST*
D10*
X201475000Y-38450000D03*
X201500000Y-131525000D03*
X108450000Y-131525000D03*
X108400000Y-38475000D03*
D11*
X126400000Y-49625000D03*
X121400000Y-49625000D03*
G36*
G01*
X146800000Y-38100000D02*
X146800000Y-39700000D01*
G75*
G02*
X146600000Y-39900000I-200000J0D01*
G01*
X145000000Y-39900000D01*
G75*
G02*
X144800000Y-39700000I0J200000D01*
G01*
X144800000Y-38100000D01*
G75*
G02*
X145000000Y-37900000I200000J0D01*
G01*
X146600000Y-37900000D01*
G75*
G02*
X146800000Y-38100000I0J-200000D01*
G01*
G37*
X143300000Y-38900000D03*
X196320000Y-54530000D03*
X201320000Y-54530000D03*
X171140000Y-110180000D03*
X166140000Y-110180000D03*
X127720000Y-110530000D03*
X132720000Y-110530000D03*
X120310000Y-106970000D03*
X125310000Y-106970000D03*
X140010000Y-74020000D03*
X140010000Y-69020000D03*
X108825000Y-99450000D03*
X113825000Y-99450000D03*
X125275000Y-103375000D03*
X120275000Y-103375000D03*
X140360000Y-119210000D03*
X140360000Y-114210000D03*
X178675000Y-113325000D03*
X178675000Y-118325000D03*
X140460000Y-124970000D03*
X140460000Y-129970000D03*
X178975000Y-129425000D03*
X178975000Y-124425000D03*
G36*
G01*
X120375000Y-46625000D02*
X120375000Y-44425000D01*
G75*
G02*
X120575000Y-44225000I200000J0D01*
G01*
X122775000Y-44225000D01*
G75*
G02*
X122975000Y-44425000I0J-200000D01*
G01*
X122975000Y-46625000D01*
G75*
G02*
X122775000Y-46825000I-200000J0D01*
G01*
X120575000Y-46825000D01*
G75*
G02*
X120375000Y-46625000I0J200000D01*
G01*
G37*
D12*
X129295000Y-45525000D03*
G36*
G01*
X153280000Y-42820000D02*
X156780000Y-42820000D01*
G75*
G02*
X156980000Y-43020000I0J-200000D01*
G01*
X156980000Y-46520000D01*
G75*
G02*
X156780000Y-46720000I-200000J0D01*
G01*
X153280000Y-46720000D01*
G75*
G02*
X153080000Y-46520000I0J200000D01*
G01*
X153080000Y-43020000D01*
G75*
G02*
X153280000Y-42820000I200000J0D01*
G01*
G37*
G36*
G01*
X153930000Y-37070000D02*
X156130000Y-37070000D01*
G75*
G02*
X156980000Y-37920000I0J-850000D01*
G01*
X156980000Y-39620000D01*
G75*
G02*
X156130000Y-40470000I-850000J0D01*
G01*
X153930000Y-40470000D01*
G75*
G02*
X153080000Y-39620000I0J850000D01*
G01*
X153080000Y-37920000D01*
G75*
G02*
X153930000Y-37070000I850000J0D01*
G01*
G37*
G36*
G01*
X149355000Y-39820000D02*
X151305000Y-39820000D01*
G75*
G02*
X152280000Y-40795000I0J-975000D01*
G01*
X152280000Y-42745000D01*
G75*
G02*
X151305000Y-43720000I-975000J0D01*
G01*
X149355000Y-43720000D01*
G75*
G02*
X148380000Y-42745000I0J975000D01*
G01*
X148380000Y-40795000D01*
G75*
G02*
X149355000Y-39820000I975000J0D01*
G01*
G37*
D13*
X107075000Y-46325000D03*
X117375000Y-46325000D03*
D14*
X112225000Y-44725000D03*
G36*
G01*
X201470000Y-87340000D02*
X201470000Y-85640000D01*
G75*
G02*
X201670000Y-85440000I200000J0D01*
G01*
X203370000Y-85440000D01*
G75*
G02*
X203570000Y-85640000I0J-200000D01*
G01*
X203570000Y-87340000D01*
G75*
G02*
X203370000Y-87540000I-200000J0D01*
G01*
X201670000Y-87540000D01*
G75*
G02*
X201470000Y-87340000I0J200000D01*
G01*
G37*
D15*
X202520000Y-89030000D03*
X202520000Y-91570000D03*
X202520000Y-94110000D03*
X202520000Y-96650000D03*
X202520000Y-99190000D03*
X202520000Y-101730000D03*
X202520000Y-104270000D03*
X202520000Y-106810000D03*
X202520000Y-109350000D03*
X202520000Y-111890000D03*
X202520000Y-114430000D03*
D14*
X197650000Y-44875000D03*
D13*
X202800000Y-46475000D03*
X192500000Y-46475000D03*
D16*
X129095000Y-37325000D03*
D11*
X121475000Y-37325000D03*
D16*
X169645000Y-42800000D03*
D11*
X162025000Y-42800000D03*
X162000000Y-46775000D03*
D16*
X169620000Y-46775000D03*
D11*
X121425000Y-41275000D03*
D16*
X129045000Y-41275000D03*
X132860000Y-49430000D03*
D11*
X140480000Y-49430000D03*
X132825000Y-45375000D03*
D16*
X140445000Y-45375000D03*
D11*
X173660000Y-57050000D03*
D16*
X181280000Y-57050000D03*
X179770000Y-45720000D03*
D11*
X187390000Y-45720000D03*
D16*
X108655000Y-103200000D03*
D11*
X116275000Y-103200000D03*
X188560000Y-88600000D03*
D16*
X188560000Y-96220000D03*
X136400000Y-114155000D03*
D11*
X136400000Y-121775000D03*
D16*
X174925000Y-120870000D03*
D11*
X174925000Y-113250000D03*
X136425000Y-132575000D03*
D16*
X136425000Y-124955000D03*
X174950000Y-132045000D03*
D11*
X174950000Y-124425000D03*
X161675000Y-100950000D03*
D16*
X154055000Y-100950000D03*
D11*
X154050000Y-97210000D03*
D16*
X161670000Y-97210000D03*
X188575000Y-85545000D03*
D11*
X188575000Y-77925000D03*
X169850000Y-85300000D03*
D16*
X169850000Y-77680000D03*
D11*
X173500000Y-69920000D03*
D16*
X181120000Y-69920000D03*
D11*
X140025000Y-85000000D03*
D16*
X140025000Y-77380000D03*
X120850000Y-85095000D03*
D11*
X120850000Y-77475000D03*
D16*
X128580000Y-65350000D03*
D11*
X136200000Y-65350000D03*
X181200000Y-65540000D03*
D16*
X173580000Y-65540000D03*
D11*
X128480000Y-61370000D03*
D16*
X136100000Y-61370000D03*
X181230000Y-61370000D03*
D11*
X173610000Y-61370000D03*
D16*
X128680000Y-69450000D03*
D11*
X136300000Y-69450000D03*
D17*
X154675000Y-117025000D03*
X152135000Y-114485000D03*
X149595000Y-117025000D03*
X192100000Y-117575000D03*
X189560000Y-115035000D03*
X187020000Y-117575000D03*
X149495000Y-129600000D03*
X152035000Y-127060000D03*
X154575000Y-129600000D03*
X192100000Y-129750000D03*
X189560000Y-127210000D03*
X187020000Y-129750000D03*
X164970000Y-99275000D03*
X167510000Y-96735000D03*
X170050000Y-99275000D03*
D18*
X176775000Y-85075000D03*
X179275000Y-85075000D03*
X181775000Y-85075000D03*
D19*
X174525000Y-77575000D03*
X184025000Y-77575000D03*
X135150000Y-77400000D03*
X125650000Y-77400000D03*
D18*
X132900000Y-84900000D03*
X130400000Y-84900000D03*
X127900000Y-84900000D03*
D17*
X164895000Y-91600000D03*
X167435000Y-89060000D03*
X169975000Y-91600000D03*
D20*
X182450000Y-91425000D03*
X179450000Y-91425000D03*
X176450000Y-91425000D03*
D21*
X173550000Y-91375000D03*
X185350000Y-91375000D03*
X136125000Y-90800000D03*
X124325000Y-90800000D03*
D20*
X127225000Y-90850000D03*
X130225000Y-90850000D03*
X133225000Y-90850000D03*
D22*
X158895000Y-63275000D03*
X151275000Y-78515000D03*
X158895000Y-65815000D03*
X151275000Y-75975000D03*
X158895000Y-68355000D03*
X151275000Y-73435000D03*
X158895000Y-70895000D03*
X151275000Y-70895000D03*
X158895000Y-73435000D03*
X151275000Y-68355000D03*
X158895000Y-75975000D03*
X151275000Y-65815000D03*
X158895000Y-78515000D03*
G36*
G01*
X149875000Y-64075000D02*
X149875000Y-62475000D01*
G75*
G02*
X150075000Y-62275000I200000J0D01*
G01*
X152475000Y-62275000D01*
G75*
G02*
X152675000Y-62475000I0J-200000D01*
G01*
X152675000Y-64075000D01*
G75*
G02*
X152475000Y-64275000I-200000J0D01*
G01*
X150075000Y-64275000D01*
G75*
G02*
X149875000Y-64075000I0J200000D01*
G01*
G37*
G36*
G01*
X162047500Y-39775000D02*
X162047500Y-37775000D01*
G75*
G02*
X162247500Y-37575000I200000J0D01*
G01*
X164152500Y-37575000D01*
G75*
G02*
X164352500Y-37775000I0J-200000D01*
G01*
X164352500Y-39775000D01*
G75*
G02*
X164152500Y-39975000I-200000J0D01*
G01*
X162247500Y-39975000D01*
G75*
G02*
X162047500Y-39775000I0J200000D01*
G01*
G37*
D23*
X165740000Y-38775000D03*
X168280000Y-38775000D03*
D22*
X200830000Y-58160000D03*
X193210000Y-75940000D03*
X200830000Y-60700000D03*
X193210000Y-73400000D03*
X200830000Y-63240000D03*
X193210000Y-70860000D03*
X200830000Y-65780000D03*
X193210000Y-68320000D03*
X200830000Y-68320000D03*
X193210000Y-65780000D03*
X200830000Y-70860000D03*
X193210000Y-63240000D03*
X200830000Y-73400000D03*
X193210000Y-60700000D03*
X200830000Y-75940000D03*
G36*
G01*
X191810000Y-58960000D02*
X191810000Y-57360000D01*
G75*
G02*
X192010000Y-57160000I200000J0D01*
G01*
X194410000Y-57160000D01*
G75*
G02*
X194610000Y-57360000I0J-200000D01*
G01*
X194610000Y-58960000D01*
G75*
G02*
X194410000Y-59160000I-200000J0D01*
G01*
X192010000Y-59160000D01*
G75*
G02*
X191810000Y-58960000I0J200000D01*
G01*
G37*
G36*
G01*
X123550000Y-114850000D02*
X123550000Y-113250000D01*
G75*
G02*
X123750000Y-113050000I200000J0D01*
G01*
X126150000Y-113050000D01*
G75*
G02*
X126350000Y-113250000I0J-200000D01*
G01*
X126350000Y-114850000D01*
G75*
G02*
X126150000Y-115050000I-200000J0D01*
G01*
X123750000Y-115050000D01*
G75*
G02*
X123550000Y-114850000I0J200000D01*
G01*
G37*
X132570000Y-131830000D03*
X124950000Y-116590000D03*
X132570000Y-129290000D03*
X124950000Y-119130000D03*
X132570000Y-126750000D03*
X124950000Y-121670000D03*
X132570000Y-124210000D03*
X124950000Y-124210000D03*
X132570000Y-121670000D03*
X124950000Y-126750000D03*
X132570000Y-119130000D03*
X124950000Y-129290000D03*
X132570000Y-116590000D03*
X124950000Y-131830000D03*
X132570000Y-114050000D03*
G36*
G01*
X161750000Y-114425000D02*
X161750000Y-112825000D01*
G75*
G02*
X161950000Y-112625000I200000J0D01*
G01*
X164350000Y-112625000D01*
G75*
G02*
X164550000Y-112825000I0J-200000D01*
G01*
X164550000Y-114425000D01*
G75*
G02*
X164350000Y-114625000I-200000J0D01*
G01*
X161950000Y-114625000D01*
G75*
G02*
X161750000Y-114425000I0J200000D01*
G01*
G37*
X170770000Y-131405000D03*
X163150000Y-116165000D03*
X170770000Y-128865000D03*
X163150000Y-118705000D03*
X170770000Y-126325000D03*
X163150000Y-121245000D03*
X170770000Y-123785000D03*
X163150000Y-123785000D03*
X170770000Y-121245000D03*
X163150000Y-126325000D03*
X170770000Y-118705000D03*
X163150000Y-128865000D03*
X170770000Y-116165000D03*
X163150000Y-131405000D03*
X170770000Y-113625000D03*
G36*
G01*
X109100000Y-115875000D02*
X109100000Y-114275000D01*
G75*
G02*
X109300000Y-114075000I200000J0D01*
G01*
X111700000Y-114075000D01*
G75*
G02*
X111900000Y-114275000I0J-200000D01*
G01*
X111900000Y-115875000D01*
G75*
G02*
X111700000Y-116075000I-200000J0D01*
G01*
X109300000Y-116075000D01*
G75*
G02*
X109100000Y-115875000I0J200000D01*
G01*
G37*
X118120000Y-122695000D03*
X110500000Y-117615000D03*
X118120000Y-120155000D03*
X110500000Y-120155000D03*
X118120000Y-117615000D03*
X110500000Y-122695000D03*
X118120000Y-115075000D03*
G36*
G01*
X190110000Y-36360000D02*
X191810000Y-36360000D01*
G75*
G02*
X192010000Y-36560000I0J-200000D01*
G01*
X192010000Y-38260000D01*
G75*
G02*
X191810000Y-38460000I-200000J0D01*
G01*
X190110000Y-38460000D01*
G75*
G02*
X189910000Y-38260000I0J200000D01*
G01*
X189910000Y-36560000D01*
G75*
G02*
X190110000Y-36360000I200000J0D01*
G01*
G37*
D15*
X190960000Y-39950000D03*
X188420000Y-37410000D03*
X188420000Y-39950000D03*
X185880000Y-37410000D03*
X185880000Y-39950000D03*
X183340000Y-37410000D03*
X183340000Y-39950000D03*
X180800000Y-37410000D03*
X180800000Y-39950000D03*
X178260000Y-37410000D03*
X178260000Y-39950000D03*
X175720000Y-37410000D03*
X175720000Y-39950000D03*
X173180000Y-37410000D03*
X173180000Y-39950000D03*
M02*
