G04 #@! TF.GenerationSoftware,KiCad,Pcbnew,(5.1.4-0-10_14)*
G04 #@! TF.CreationDate,2021-06-29T14:40:44+12:00*
G04 #@! TF.ProjectId,two_point_one_colorizer,74776f5f-706f-4696-9e74-5f6f6e655f63,rev?*
G04 #@! TF.SameCoordinates,Original*
G04 #@! TF.FileFunction,Legend,Top*
G04 #@! TF.FilePolarity,Positive*
%FSLAX46Y46*%
G04 Gerber Fmt 4.6, Leading zero omitted, Abs format (unit mm)*
G04 Created by KiCad (PCBNEW (5.1.4-0-10_14)) date 2021-06-29 14:40:44*
%MOMM*%
%LPD*%
G04 APERTURE LIST*
%ADD10C,0.200000*%
%ADD11C,0.350000*%
%ADD12C,0.450000*%
%ADD13C,0.120000*%
%ADD14C,0.127000*%
%ADD15C,0.400000*%
%ADD16C,0.150000*%
%ADD17C,0.050000*%
G04 APERTURE END LIST*
D10*
X109985714Y-92623809D02*
X110985714Y-92623809D01*
X110033333Y-92623809D02*
X109985714Y-92528571D01*
X109985714Y-92338095D01*
X110033333Y-92242857D01*
X110080952Y-92195238D01*
X110176190Y-92147619D01*
X110461904Y-92147619D01*
X110557142Y-92195238D01*
X110604761Y-92242857D01*
X110652380Y-92338095D01*
X110652380Y-92528571D01*
X110604761Y-92623809D01*
X110652380Y-91290476D02*
X110128571Y-91290476D01*
X110033333Y-91338095D01*
X109985714Y-91433333D01*
X109985714Y-91623809D01*
X110033333Y-91719047D01*
X110604761Y-91290476D02*
X110652380Y-91385714D01*
X110652380Y-91623809D01*
X110604761Y-91719047D01*
X110509523Y-91766666D01*
X110414285Y-91766666D01*
X110319047Y-91719047D01*
X110271428Y-91623809D01*
X110271428Y-91385714D01*
X110223809Y-91290476D01*
X110652380Y-90671428D02*
X110604761Y-90766666D01*
X110509523Y-90814285D01*
X109652380Y-90814285D01*
X109604761Y-89576190D02*
X110890476Y-90433333D01*
X109985714Y-89242857D02*
X110652380Y-89242857D01*
X110080952Y-89242857D02*
X110033333Y-89195238D01*
X109985714Y-89100000D01*
X109985714Y-88957142D01*
X110033333Y-88861904D01*
X110128571Y-88814285D01*
X110652380Y-88814285D01*
X109985714Y-88480952D02*
X109985714Y-88100000D01*
X109652380Y-88338095D02*
X110509523Y-88338095D01*
X110604761Y-88290476D01*
X110652380Y-88195238D01*
X110652380Y-88100000D01*
X110604761Y-87814285D02*
X110652380Y-87719047D01*
X110652380Y-87528571D01*
X110604761Y-87433333D01*
X110509523Y-87385714D01*
X110461904Y-87385714D01*
X110366666Y-87433333D01*
X110319047Y-87528571D01*
X110319047Y-87671428D01*
X110271428Y-87766666D01*
X110176190Y-87814285D01*
X110128571Y-87814285D01*
X110033333Y-87766666D01*
X109985714Y-87671428D01*
X109985714Y-87528571D01*
X110033333Y-87433333D01*
X110604761Y-86528571D02*
X110652380Y-86623809D01*
X110652380Y-86814285D01*
X110604761Y-86909523D01*
X110557142Y-86957142D01*
X110461904Y-87004761D01*
X110176190Y-87004761D01*
X110080952Y-86957142D01*
X110033333Y-86909523D01*
X109985714Y-86814285D01*
X109985714Y-86623809D01*
X110033333Y-86528571D01*
D11*
X177600000Y-119100000D02*
X162500000Y-119100000D01*
X147700000Y-119200000D02*
X132600000Y-119200000D01*
X172600000Y-82000000D02*
X160800000Y-82000000D01*
X149100000Y-82000000D02*
X138100000Y-82000000D01*
D10*
X196642857Y-118455714D02*
X196642857Y-117998571D01*
X196242857Y-118284285D02*
X197271428Y-118284285D01*
X197385714Y-118227142D01*
X197442857Y-118112857D01*
X197442857Y-117998571D01*
X196642857Y-117712857D02*
X197442857Y-117484285D01*
X196871428Y-117255714D01*
X197442857Y-117027142D01*
X196642857Y-116798571D01*
X197442857Y-116170000D02*
X197385714Y-116284285D01*
X197328571Y-116341428D01*
X197214285Y-116398571D01*
X196871428Y-116398571D01*
X196757142Y-116341428D01*
X196700000Y-116284285D01*
X196642857Y-116170000D01*
X196642857Y-115998571D01*
X196700000Y-115884285D01*
X196757142Y-115827142D01*
X196871428Y-115770000D01*
X197214285Y-115770000D01*
X197328571Y-115827142D01*
X197385714Y-115884285D01*
X197442857Y-115998571D01*
X197442857Y-116170000D01*
X197557142Y-115541428D02*
X197557142Y-114627142D01*
X196642857Y-114341428D02*
X197842857Y-114341428D01*
X196700000Y-114341428D02*
X196642857Y-114227142D01*
X196642857Y-113998571D01*
X196700000Y-113884285D01*
X196757142Y-113827142D01*
X196871428Y-113770000D01*
X197214285Y-113770000D01*
X197328571Y-113827142D01*
X197385714Y-113884285D01*
X197442857Y-113998571D01*
X197442857Y-114227142D01*
X197385714Y-114341428D01*
X197442857Y-113084285D02*
X197385714Y-113198571D01*
X197328571Y-113255714D01*
X197214285Y-113312857D01*
X196871428Y-113312857D01*
X196757142Y-113255714D01*
X196700000Y-113198571D01*
X196642857Y-113084285D01*
X196642857Y-112912857D01*
X196700000Y-112798571D01*
X196757142Y-112741428D01*
X196871428Y-112684285D01*
X197214285Y-112684285D01*
X197328571Y-112741428D01*
X197385714Y-112798571D01*
X197442857Y-112912857D01*
X197442857Y-113084285D01*
X197442857Y-112170000D02*
X196642857Y-112170000D01*
X196242857Y-112170000D02*
X196300000Y-112227142D01*
X196357142Y-112170000D01*
X196300000Y-112112857D01*
X196242857Y-112170000D01*
X196357142Y-112170000D01*
X196642857Y-111598571D02*
X197442857Y-111598571D01*
X196757142Y-111598571D02*
X196700000Y-111541428D01*
X196642857Y-111427142D01*
X196642857Y-111255714D01*
X196700000Y-111141428D01*
X196814285Y-111084285D01*
X197442857Y-111084285D01*
X196642857Y-110684285D02*
X196642857Y-110227142D01*
X196242857Y-110512857D02*
X197271428Y-110512857D01*
X197385714Y-110455714D01*
X197442857Y-110341428D01*
X197442857Y-110227142D01*
X197557142Y-110112857D02*
X197557142Y-109198571D01*
X197442857Y-108741428D02*
X197385714Y-108855714D01*
X197328571Y-108912857D01*
X197214285Y-108970000D01*
X196871428Y-108970000D01*
X196757142Y-108912857D01*
X196700000Y-108855714D01*
X196642857Y-108741428D01*
X196642857Y-108570000D01*
X196700000Y-108455714D01*
X196757142Y-108398571D01*
X196871428Y-108341428D01*
X197214285Y-108341428D01*
X197328571Y-108398571D01*
X197385714Y-108455714D01*
X197442857Y-108570000D01*
X197442857Y-108741428D01*
X196642857Y-107827142D02*
X197442857Y-107827142D01*
X196757142Y-107827142D02*
X196700000Y-107770000D01*
X196642857Y-107655714D01*
X196642857Y-107484285D01*
X196700000Y-107370000D01*
X196814285Y-107312857D01*
X197442857Y-107312857D01*
X197385714Y-106284285D02*
X197442857Y-106398571D01*
X197442857Y-106627142D01*
X197385714Y-106741428D01*
X197271428Y-106798571D01*
X196814285Y-106798571D01*
X196700000Y-106741428D01*
X196642857Y-106627142D01*
X196642857Y-106398571D01*
X196700000Y-106284285D01*
X196814285Y-106227142D01*
X196928571Y-106227142D01*
X197042857Y-106798571D01*
X197557142Y-105998571D02*
X197557142Y-105084285D01*
X197385714Y-104284285D02*
X197442857Y-104398571D01*
X197442857Y-104627142D01*
X197385714Y-104741428D01*
X197328571Y-104798571D01*
X197214285Y-104855714D01*
X196871428Y-104855714D01*
X196757142Y-104798571D01*
X196700000Y-104741428D01*
X196642857Y-104627142D01*
X196642857Y-104398571D01*
X196700000Y-104284285D01*
X197442857Y-103598571D02*
X197385714Y-103712857D01*
X197328571Y-103770000D01*
X197214285Y-103827142D01*
X196871428Y-103827142D01*
X196757142Y-103770000D01*
X196700000Y-103712857D01*
X196642857Y-103598571D01*
X196642857Y-103427142D01*
X196700000Y-103312857D01*
X196757142Y-103255714D01*
X196871428Y-103198571D01*
X197214285Y-103198571D01*
X197328571Y-103255714D01*
X197385714Y-103312857D01*
X197442857Y-103427142D01*
X197442857Y-103598571D01*
X197442857Y-102512857D02*
X197385714Y-102627142D01*
X197271428Y-102684285D01*
X196242857Y-102684285D01*
X197442857Y-101884285D02*
X197385714Y-101998571D01*
X197328571Y-102055714D01*
X197214285Y-102112857D01*
X196871428Y-102112857D01*
X196757142Y-102055714D01*
X196700000Y-101998571D01*
X196642857Y-101884285D01*
X196642857Y-101712857D01*
X196700000Y-101598571D01*
X196757142Y-101541428D01*
X196871428Y-101484285D01*
X197214285Y-101484285D01*
X197328571Y-101541428D01*
X197385714Y-101598571D01*
X197442857Y-101712857D01*
X197442857Y-101884285D01*
X197442857Y-100970000D02*
X196642857Y-100970000D01*
X196871428Y-100970000D02*
X196757142Y-100912857D01*
X196700000Y-100855714D01*
X196642857Y-100741428D01*
X196642857Y-100627142D01*
X197442857Y-100227142D02*
X196642857Y-100227142D01*
X196242857Y-100227142D02*
X196300000Y-100284285D01*
X196357142Y-100227142D01*
X196300000Y-100170000D01*
X196242857Y-100227142D01*
X196357142Y-100227142D01*
X196642857Y-99770000D02*
X196642857Y-99141428D01*
X197442857Y-99770000D01*
X197442857Y-99141428D01*
X197385714Y-98227142D02*
X197442857Y-98341428D01*
X197442857Y-98570000D01*
X197385714Y-98684285D01*
X197271428Y-98741428D01*
X196814285Y-98741428D01*
X196700000Y-98684285D01*
X196642857Y-98570000D01*
X196642857Y-98341428D01*
X196700000Y-98227142D01*
X196814285Y-98170000D01*
X196928571Y-98170000D01*
X197042857Y-98741428D01*
X197442857Y-97655714D02*
X196642857Y-97655714D01*
X196871428Y-97655714D02*
X196757142Y-97598571D01*
X196700000Y-97541428D01*
X196642857Y-97427142D01*
X196642857Y-97312857D01*
X198642857Y-118398571D02*
X199442857Y-118112857D01*
X198642857Y-117827142D01*
X198242857Y-117141428D02*
X198242857Y-117027142D01*
X198300000Y-116912857D01*
X198357142Y-116855714D01*
X198471428Y-116798571D01*
X198700000Y-116741428D01*
X198985714Y-116741428D01*
X199214285Y-116798571D01*
X199328571Y-116855714D01*
X199385714Y-116912857D01*
X199442857Y-117027142D01*
X199442857Y-117141428D01*
X199385714Y-117255714D01*
X199328571Y-117312857D01*
X199214285Y-117370000D01*
X198985714Y-117427142D01*
X198700000Y-117427142D01*
X198471428Y-117370000D01*
X198357142Y-117312857D01*
X198300000Y-117255714D01*
X198242857Y-117141428D01*
X199557142Y-116512857D02*
X199557142Y-115598571D01*
X198357142Y-115370000D02*
X198300000Y-115312857D01*
X198242857Y-115198571D01*
X198242857Y-114912857D01*
X198300000Y-114798571D01*
X198357142Y-114741428D01*
X198471428Y-114684285D01*
X198585714Y-114684285D01*
X198757142Y-114741428D01*
X199442857Y-115427142D01*
X199442857Y-114684285D01*
X201442857Y-118284285D02*
X200242857Y-118284285D01*
X200700000Y-118284285D02*
X200642857Y-118170000D01*
X200642857Y-117941428D01*
X200700000Y-117827142D01*
X200757142Y-117770000D01*
X200871428Y-117712857D01*
X201214285Y-117712857D01*
X201328571Y-117770000D01*
X201385714Y-117827142D01*
X201442857Y-117941428D01*
X201442857Y-118170000D01*
X201385714Y-118284285D01*
X201442857Y-116684285D02*
X200814285Y-116684285D01*
X200700000Y-116741428D01*
X200642857Y-116855714D01*
X200642857Y-117084285D01*
X200700000Y-117198571D01*
X201385714Y-116684285D02*
X201442857Y-116798571D01*
X201442857Y-117084285D01*
X201385714Y-117198571D01*
X201271428Y-117255714D01*
X201157142Y-117255714D01*
X201042857Y-117198571D01*
X200985714Y-117084285D01*
X200985714Y-116798571D01*
X200928571Y-116684285D01*
X201385714Y-116170000D02*
X201442857Y-116055714D01*
X201442857Y-115827142D01*
X201385714Y-115712857D01*
X201271428Y-115655714D01*
X201214285Y-115655714D01*
X201100000Y-115712857D01*
X201042857Y-115827142D01*
X201042857Y-115998571D01*
X200985714Y-116112857D01*
X200871428Y-116170000D01*
X200814285Y-116170000D01*
X200700000Y-116112857D01*
X200642857Y-115998571D01*
X200642857Y-115827142D01*
X200700000Y-115712857D01*
X201385714Y-114684285D02*
X201442857Y-114798571D01*
X201442857Y-115027142D01*
X201385714Y-115141428D01*
X201271428Y-115198571D01*
X200814285Y-115198571D01*
X200700000Y-115141428D01*
X200642857Y-115027142D01*
X200642857Y-114798571D01*
X200700000Y-114684285D01*
X200814285Y-114627142D01*
X200928571Y-114627142D01*
X201042857Y-115198571D01*
X201442857Y-113598571D02*
X200242857Y-113598571D01*
X201385714Y-113598571D02*
X201442857Y-113712857D01*
X201442857Y-113941428D01*
X201385714Y-114055714D01*
X201328571Y-114112857D01*
X201214285Y-114170000D01*
X200871428Y-114170000D01*
X200757142Y-114112857D01*
X200700000Y-114055714D01*
X200642857Y-113941428D01*
X200642857Y-113712857D01*
X200700000Y-113598571D01*
X201442857Y-111941428D02*
X201385714Y-112055714D01*
X201328571Y-112112857D01*
X201214285Y-112170000D01*
X200871428Y-112170000D01*
X200757142Y-112112857D01*
X200700000Y-112055714D01*
X200642857Y-111941428D01*
X200642857Y-111770000D01*
X200700000Y-111655714D01*
X200757142Y-111598571D01*
X200871428Y-111541428D01*
X201214285Y-111541428D01*
X201328571Y-111598571D01*
X201385714Y-111655714D01*
X201442857Y-111770000D01*
X201442857Y-111941428D01*
X200642857Y-111027142D02*
X201442857Y-111027142D01*
X200757142Y-111027142D02*
X200700000Y-110970000D01*
X200642857Y-110855714D01*
X200642857Y-110684285D01*
X200700000Y-110570000D01*
X200814285Y-110512857D01*
X201442857Y-110512857D01*
X201442857Y-109027142D02*
X200642857Y-109027142D01*
X200871428Y-109027142D02*
X200757142Y-108970000D01*
X200700000Y-108912857D01*
X200642857Y-108798571D01*
X200642857Y-108684285D01*
X201442857Y-108112857D02*
X201385714Y-108227142D01*
X201328571Y-108284285D01*
X201214285Y-108341428D01*
X200871428Y-108341428D01*
X200757142Y-108284285D01*
X200700000Y-108227142D01*
X200642857Y-108112857D01*
X200642857Y-107941428D01*
X200700000Y-107827142D01*
X200757142Y-107770000D01*
X200871428Y-107712857D01*
X201214285Y-107712857D01*
X201328571Y-107770000D01*
X201385714Y-107827142D01*
X201442857Y-107941428D01*
X201442857Y-108112857D01*
X201442857Y-107198571D02*
X200242857Y-107198571D01*
X200700000Y-107198571D02*
X200642857Y-107084285D01*
X200642857Y-106855714D01*
X200700000Y-106741428D01*
X200757142Y-106684285D01*
X200871428Y-106627142D01*
X201214285Y-106627142D01*
X201328571Y-106684285D01*
X201385714Y-106741428D01*
X201442857Y-106855714D01*
X201442857Y-107084285D01*
X201385714Y-107198571D01*
X201385714Y-105255714D02*
X201442857Y-105141428D01*
X201442857Y-104912857D01*
X201385714Y-104798571D01*
X201271428Y-104741428D01*
X201214285Y-104741428D01*
X201100000Y-104798571D01*
X201042857Y-104912857D01*
X201042857Y-105084285D01*
X200985714Y-105198571D01*
X200871428Y-105255714D01*
X200814285Y-105255714D01*
X200700000Y-105198571D01*
X200642857Y-105084285D01*
X200642857Y-104912857D01*
X200700000Y-104798571D01*
X201385714Y-103712857D02*
X201442857Y-103827142D01*
X201442857Y-104055714D01*
X201385714Y-104170000D01*
X201328571Y-104227142D01*
X201214285Y-104284285D01*
X200871428Y-104284285D01*
X200757142Y-104227142D01*
X200700000Y-104170000D01*
X200642857Y-104055714D01*
X200642857Y-103827142D01*
X200700000Y-103712857D01*
X201442857Y-103198571D02*
X200242857Y-103198571D01*
X201442857Y-102684285D02*
X200814285Y-102684285D01*
X200700000Y-102741428D01*
X200642857Y-102855714D01*
X200642857Y-103027142D01*
X200700000Y-103141428D01*
X200757142Y-103198571D01*
X201442857Y-101598571D02*
X200814285Y-101598571D01*
X200700000Y-101655714D01*
X200642857Y-101770000D01*
X200642857Y-101998571D01*
X200700000Y-102112857D01*
X201385714Y-101598571D02*
X201442857Y-101712857D01*
X201442857Y-101998571D01*
X201385714Y-102112857D01*
X201271428Y-102170000D01*
X201157142Y-102170000D01*
X201042857Y-102112857D01*
X200985714Y-101998571D01*
X200985714Y-101712857D01*
X200928571Y-101598571D01*
X200642857Y-101198571D02*
X200642857Y-100741428D01*
X201442857Y-101027142D02*
X200414285Y-101027142D01*
X200300000Y-100970000D01*
X200242857Y-100855714D01*
X200242857Y-100741428D01*
X201385714Y-99884285D02*
X201442857Y-99998571D01*
X201442857Y-100227142D01*
X201385714Y-100341428D01*
X201271428Y-100398571D01*
X200814285Y-100398571D01*
X200700000Y-100341428D01*
X200642857Y-100227142D01*
X200642857Y-99998571D01*
X200700000Y-99884285D01*
X200814285Y-99827142D01*
X200928571Y-99827142D01*
X201042857Y-100398571D01*
X201442857Y-99312857D02*
X200642857Y-99312857D01*
X200871428Y-99312857D02*
X200757142Y-99255714D01*
X200700000Y-99198571D01*
X200642857Y-99084285D01*
X200642857Y-98970000D01*
X201442857Y-97141428D02*
X200242857Y-97141428D01*
X201385714Y-97141428D02*
X201442857Y-97255714D01*
X201442857Y-97484285D01*
X201385714Y-97598571D01*
X201328571Y-97655714D01*
X201214285Y-97712857D01*
X200871428Y-97712857D01*
X200757142Y-97655714D01*
X200700000Y-97598571D01*
X200642857Y-97484285D01*
X200642857Y-97255714D01*
X200700000Y-97141428D01*
X201385714Y-96112857D02*
X201442857Y-96227142D01*
X201442857Y-96455714D01*
X201385714Y-96570000D01*
X201271428Y-96627142D01*
X200814285Y-96627142D01*
X200700000Y-96570000D01*
X200642857Y-96455714D01*
X200642857Y-96227142D01*
X200700000Y-96112857D01*
X200814285Y-96055714D01*
X200928571Y-96055714D01*
X201042857Y-96627142D01*
X201385714Y-95598571D02*
X201442857Y-95484285D01*
X201442857Y-95255714D01*
X201385714Y-95141428D01*
X201271428Y-95084285D01*
X201214285Y-95084285D01*
X201100000Y-95141428D01*
X201042857Y-95255714D01*
X201042857Y-95427142D01*
X200985714Y-95541428D01*
X200871428Y-95598571D01*
X200814285Y-95598571D01*
X200700000Y-95541428D01*
X200642857Y-95427142D01*
X200642857Y-95255714D01*
X200700000Y-95141428D01*
X201442857Y-94570000D02*
X200642857Y-94570000D01*
X200242857Y-94570000D02*
X200300000Y-94627142D01*
X200357142Y-94570000D01*
X200300000Y-94512857D01*
X200242857Y-94570000D01*
X200357142Y-94570000D01*
X200642857Y-93484285D02*
X201614285Y-93484285D01*
X201728571Y-93541428D01*
X201785714Y-93598571D01*
X201842857Y-93712857D01*
X201842857Y-93884285D01*
X201785714Y-93998571D01*
X201385714Y-93484285D02*
X201442857Y-93598571D01*
X201442857Y-93827142D01*
X201385714Y-93941428D01*
X201328571Y-93998571D01*
X201214285Y-94055714D01*
X200871428Y-94055714D01*
X200757142Y-93998571D01*
X200700000Y-93941428D01*
X200642857Y-93827142D01*
X200642857Y-93598571D01*
X200700000Y-93484285D01*
X200642857Y-92912857D02*
X201442857Y-92912857D01*
X200757142Y-92912857D02*
X200700000Y-92855714D01*
X200642857Y-92741428D01*
X200642857Y-92570000D01*
X200700000Y-92455714D01*
X200814285Y-92398571D01*
X201442857Y-92398571D01*
X202642857Y-117770000D02*
X203442857Y-117770000D01*
X202642857Y-118284285D02*
X203271428Y-118284285D01*
X203385714Y-118227142D01*
X203442857Y-118112857D01*
X203442857Y-117941428D01*
X203385714Y-117827142D01*
X203328571Y-117770000D01*
X202642857Y-117198571D02*
X203842857Y-117198571D01*
X202700000Y-117198571D02*
X202642857Y-117084285D01*
X202642857Y-116855714D01*
X202700000Y-116741428D01*
X202757142Y-116684285D01*
X202871428Y-116627142D01*
X203214285Y-116627142D01*
X203328571Y-116684285D01*
X203385714Y-116741428D01*
X203442857Y-116855714D01*
X203442857Y-117084285D01*
X203385714Y-117198571D01*
X203442857Y-115598571D02*
X202242857Y-115598571D01*
X203385714Y-115598571D02*
X203442857Y-115712857D01*
X203442857Y-115941428D01*
X203385714Y-116055714D01*
X203328571Y-116112857D01*
X203214285Y-116170000D01*
X202871428Y-116170000D01*
X202757142Y-116112857D01*
X202700000Y-116055714D01*
X202642857Y-115941428D01*
X202642857Y-115712857D01*
X202700000Y-115598571D01*
X203442857Y-114512857D02*
X202814285Y-114512857D01*
X202700000Y-114570000D01*
X202642857Y-114684285D01*
X202642857Y-114912857D01*
X202700000Y-115027142D01*
X203385714Y-114512857D02*
X203442857Y-114627142D01*
X203442857Y-114912857D01*
X203385714Y-115027142D01*
X203271428Y-115084285D01*
X203157142Y-115084285D01*
X203042857Y-115027142D01*
X202985714Y-114912857D01*
X202985714Y-114627142D01*
X202928571Y-114512857D01*
X202642857Y-114112857D02*
X202642857Y-113655714D01*
X202242857Y-113941428D02*
X203271428Y-113941428D01*
X203385714Y-113884285D01*
X203442857Y-113770000D01*
X203442857Y-113655714D01*
X203385714Y-112798571D02*
X203442857Y-112912857D01*
X203442857Y-113141428D01*
X203385714Y-113255714D01*
X203271428Y-113312857D01*
X202814285Y-113312857D01*
X202700000Y-113255714D01*
X202642857Y-113141428D01*
X202642857Y-112912857D01*
X202700000Y-112798571D01*
X202814285Y-112741428D01*
X202928571Y-112741428D01*
X203042857Y-113312857D01*
X203442857Y-111712857D02*
X202242857Y-111712857D01*
X203385714Y-111712857D02*
X203442857Y-111827142D01*
X203442857Y-112055714D01*
X203385714Y-112170000D01*
X203328571Y-112227142D01*
X203214285Y-112284285D01*
X202871428Y-112284285D01*
X202757142Y-112227142D01*
X202700000Y-112170000D01*
X202642857Y-112055714D01*
X202642857Y-111827142D01*
X202700000Y-111712857D01*
X203442857Y-110227142D02*
X202242857Y-110227142D01*
X202700000Y-110227142D02*
X202642857Y-110112857D01*
X202642857Y-109884285D01*
X202700000Y-109770000D01*
X202757142Y-109712857D01*
X202871428Y-109655714D01*
X203214285Y-109655714D01*
X203328571Y-109712857D01*
X203385714Y-109770000D01*
X203442857Y-109884285D01*
X203442857Y-110112857D01*
X203385714Y-110227142D01*
X202642857Y-109255714D02*
X203442857Y-108970000D01*
X202642857Y-108684285D02*
X203442857Y-108970000D01*
X203728571Y-109084285D01*
X203785714Y-109141428D01*
X203842857Y-109255714D01*
X203385714Y-106798571D02*
X203442857Y-106912857D01*
X203442857Y-107141428D01*
X203385714Y-107255714D01*
X203328571Y-107312857D01*
X203214285Y-107370000D01*
X202871428Y-107370000D01*
X202757142Y-107312857D01*
X202700000Y-107255714D01*
X202642857Y-107141428D01*
X202642857Y-106912857D01*
X202700000Y-106798571D01*
X202642857Y-106398571D02*
X203442857Y-106112857D01*
X202642857Y-105827142D02*
X203442857Y-106112857D01*
X203728571Y-106227142D01*
X203785714Y-106284285D01*
X203842857Y-106398571D01*
X203442857Y-105370000D02*
X202242857Y-105370000D01*
X202700000Y-105370000D02*
X202642857Y-105255714D01*
X202642857Y-105027142D01*
X202700000Y-104912857D01*
X202757142Y-104855714D01*
X202871428Y-104798571D01*
X203214285Y-104798571D01*
X203328571Y-104855714D01*
X203385714Y-104912857D01*
X203442857Y-105027142D01*
X203442857Y-105255714D01*
X203385714Y-105370000D01*
X203385714Y-103827142D02*
X203442857Y-103941428D01*
X203442857Y-104170000D01*
X203385714Y-104284285D01*
X203271428Y-104341428D01*
X202814285Y-104341428D01*
X202700000Y-104284285D01*
X202642857Y-104170000D01*
X202642857Y-103941428D01*
X202700000Y-103827142D01*
X202814285Y-103770000D01*
X202928571Y-103770000D01*
X203042857Y-104341428D01*
X203442857Y-103255714D02*
X202642857Y-103255714D01*
X202871428Y-103255714D02*
X202757142Y-103198571D01*
X202700000Y-103141428D01*
X202642857Y-103027142D01*
X202642857Y-102912857D01*
X203442857Y-102512857D02*
X202242857Y-102512857D01*
X202700000Y-102512857D02*
X202642857Y-102398571D01*
X202642857Y-102170000D01*
X202700000Y-102055714D01*
X202757142Y-101998571D01*
X202871428Y-101941428D01*
X203214285Y-101941428D01*
X203328571Y-101998571D01*
X203385714Y-102055714D01*
X203442857Y-102170000D01*
X203442857Y-102398571D01*
X203385714Y-102512857D01*
X203442857Y-101255714D02*
X203385714Y-101370000D01*
X203328571Y-101427142D01*
X203214285Y-101484285D01*
X202871428Y-101484285D01*
X202757142Y-101427142D01*
X202700000Y-101370000D01*
X202642857Y-101255714D01*
X202642857Y-101084285D01*
X202700000Y-100970000D01*
X202757142Y-100912857D01*
X202871428Y-100855714D01*
X203214285Y-100855714D01*
X203328571Y-100912857D01*
X203385714Y-100970000D01*
X203442857Y-101084285D01*
X203442857Y-101255714D01*
X202642857Y-100455714D02*
X203442857Y-100170000D01*
X202642857Y-99884285D02*
X203442857Y-100170000D01*
X203728571Y-100284285D01*
X203785714Y-100341428D01*
X203842857Y-100455714D01*
X202242857Y-98912857D02*
X202242857Y-99141428D01*
X202300000Y-99255714D01*
X202357142Y-99312857D01*
X202528571Y-99427142D01*
X202757142Y-99484285D01*
X203214285Y-99484285D01*
X203328571Y-99427142D01*
X203385714Y-99370000D01*
X203442857Y-99255714D01*
X203442857Y-99027142D01*
X203385714Y-98912857D01*
X203328571Y-98855714D01*
X203214285Y-98798571D01*
X202928571Y-98798571D01*
X202814285Y-98855714D01*
X202757142Y-98912857D01*
X202700000Y-99027142D01*
X202700000Y-99255714D01*
X202757142Y-99370000D01*
X202814285Y-99427142D01*
X202928571Y-99484285D01*
X202242857Y-97770000D02*
X202242857Y-97998571D01*
X202300000Y-98112857D01*
X202357142Y-98170000D01*
X202528571Y-98284285D01*
X202757142Y-98341428D01*
X203214285Y-98341428D01*
X203328571Y-98284285D01*
X203385714Y-98227142D01*
X203442857Y-98112857D01*
X203442857Y-97884285D01*
X203385714Y-97770000D01*
X203328571Y-97712857D01*
X203214285Y-97655714D01*
X202928571Y-97655714D01*
X202814285Y-97712857D01*
X202757142Y-97770000D01*
X202700000Y-97884285D01*
X202700000Y-98112857D01*
X202757142Y-98227142D01*
X202814285Y-98284285D01*
X202928571Y-98341428D01*
X202242857Y-96627142D02*
X202242857Y-96855714D01*
X202300000Y-96970000D01*
X202357142Y-97027142D01*
X202528571Y-97141428D01*
X202757142Y-97198571D01*
X203214285Y-97198571D01*
X203328571Y-97141428D01*
X203385714Y-97084285D01*
X203442857Y-96970000D01*
X203442857Y-96741428D01*
X203385714Y-96627142D01*
X203328571Y-96570000D01*
X203214285Y-96512857D01*
X202928571Y-96512857D01*
X202814285Y-96570000D01*
X202757142Y-96627142D01*
X202700000Y-96741428D01*
X202700000Y-96970000D01*
X202757142Y-97084285D01*
X202814285Y-97141428D01*
X202928571Y-97198571D01*
X194976190Y-90285714D02*
X194976190Y-91285714D01*
X194976190Y-90333333D02*
X195071428Y-90285714D01*
X195261904Y-90285714D01*
X195357142Y-90333333D01*
X195404761Y-90380952D01*
X195452380Y-90476190D01*
X195452380Y-90761904D01*
X195404761Y-90857142D01*
X195357142Y-90904761D01*
X195261904Y-90952380D01*
X195071428Y-90952380D01*
X194976190Y-90904761D01*
X196309523Y-90952380D02*
X196309523Y-90428571D01*
X196261904Y-90333333D01*
X196166666Y-90285714D01*
X195976190Y-90285714D01*
X195880952Y-90333333D01*
X196309523Y-90904761D02*
X196214285Y-90952380D01*
X195976190Y-90952380D01*
X195880952Y-90904761D01*
X195833333Y-90809523D01*
X195833333Y-90714285D01*
X195880952Y-90619047D01*
X195976190Y-90571428D01*
X196214285Y-90571428D01*
X196309523Y-90523809D01*
X196928571Y-90952380D02*
X196833333Y-90904761D01*
X196785714Y-90809523D01*
X196785714Y-89952380D01*
X198023809Y-89904761D02*
X197166666Y-91190476D01*
X198357142Y-90285714D02*
X198357142Y-90952380D01*
X198357142Y-90380952D02*
X198404761Y-90333333D01*
X198500000Y-90285714D01*
X198642857Y-90285714D01*
X198738095Y-90333333D01*
X198785714Y-90428571D01*
X198785714Y-90952380D01*
X199119047Y-90285714D02*
X199500000Y-90285714D01*
X199261904Y-89952380D02*
X199261904Y-90809523D01*
X199309523Y-90904761D01*
X199404761Y-90952380D01*
X199500000Y-90952380D01*
X199785714Y-90904761D02*
X199880952Y-90952380D01*
X200071428Y-90952380D01*
X200166666Y-90904761D01*
X200214285Y-90809523D01*
X200214285Y-90761904D01*
X200166666Y-90666666D01*
X200071428Y-90619047D01*
X199928571Y-90619047D01*
X199833333Y-90571428D01*
X199785714Y-90476190D01*
X199785714Y-90428571D01*
X199833333Y-90333333D01*
X199928571Y-90285714D01*
X200071428Y-90285714D01*
X200166666Y-90333333D01*
X201071428Y-90904761D02*
X200976190Y-90952380D01*
X200785714Y-90952380D01*
X200690476Y-90904761D01*
X200642857Y-90857142D01*
X200595238Y-90761904D01*
X200595238Y-90476190D01*
X200642857Y-90380952D01*
X200690476Y-90333333D01*
X200785714Y-90285714D01*
X200976190Y-90285714D01*
X201071428Y-90333333D01*
D12*
X160642857Y-35630952D02*
X159452380Y-35630952D01*
X159333333Y-36821428D01*
X159452380Y-36702380D01*
X159690476Y-36583333D01*
X160285714Y-36583333D01*
X160523809Y-36702380D01*
X160642857Y-36821428D01*
X160761904Y-37059523D01*
X160761904Y-37654761D01*
X160642857Y-37892857D01*
X160523809Y-38011904D01*
X160285714Y-38130952D01*
X159690476Y-38130952D01*
X159452380Y-38011904D01*
X159333333Y-37892857D01*
X161595238Y-36464285D02*
X162190476Y-38130952D01*
X162785714Y-36464285D01*
X198976190Y-44630952D02*
X198738095Y-44511904D01*
X198619047Y-44392857D01*
X198500000Y-44154761D01*
X198500000Y-43440476D01*
X198619047Y-43202380D01*
X198738095Y-43083333D01*
X198976190Y-42964285D01*
X199333333Y-42964285D01*
X199571428Y-43083333D01*
X199690476Y-43202380D01*
X199809523Y-43440476D01*
X199809523Y-44154761D01*
X199690476Y-44392857D01*
X199571428Y-44511904D01*
X199333333Y-44630952D01*
X198976190Y-44630952D01*
X201952380Y-42964285D02*
X201952380Y-44630952D01*
X200880952Y-42964285D02*
X200880952Y-44273809D01*
X201000000Y-44511904D01*
X201238095Y-44630952D01*
X201595238Y-44630952D01*
X201833333Y-44511904D01*
X201952380Y-44392857D01*
X202785714Y-42964285D02*
X203738095Y-42964285D01*
X203142857Y-42130952D02*
X203142857Y-44273809D01*
X203261904Y-44511904D01*
X203500000Y-44630952D01*
X203738095Y-44630952D01*
X106869047Y-45130952D02*
X106869047Y-43464285D01*
X106869047Y-42630952D02*
X106750000Y-42750000D01*
X106869047Y-42869047D01*
X106988095Y-42750000D01*
X106869047Y-42630952D01*
X106869047Y-42869047D01*
X108059523Y-43464285D02*
X108059523Y-45130952D01*
X108059523Y-43702380D02*
X108178571Y-43583333D01*
X108416666Y-43464285D01*
X108773809Y-43464285D01*
X109011904Y-43583333D01*
X109130952Y-43821428D01*
X109130952Y-45130952D01*
X150535714Y-84630952D02*
X150297619Y-84511904D01*
X150178571Y-84273809D01*
X150178571Y-82130952D01*
X152440476Y-84511904D02*
X152202380Y-84630952D01*
X151726190Y-84630952D01*
X151488095Y-84511904D01*
X151369047Y-84273809D01*
X151369047Y-83321428D01*
X151488095Y-83083333D01*
X151726190Y-82964285D01*
X152202380Y-82964285D01*
X152440476Y-83083333D01*
X152559523Y-83321428D01*
X152559523Y-83559523D01*
X151369047Y-83797619D01*
X153392857Y-82964285D02*
X153988095Y-84630952D01*
X154583333Y-82964285D01*
X156488095Y-84511904D02*
X156250000Y-84630952D01*
X155773809Y-84630952D01*
X155535714Y-84511904D01*
X155416666Y-84273809D01*
X155416666Y-83321428D01*
X155535714Y-83083333D01*
X155773809Y-82964285D01*
X156250000Y-82964285D01*
X156488095Y-83083333D01*
X156607142Y-83321428D01*
X156607142Y-83559523D01*
X155416666Y-83797619D01*
X158035714Y-84630952D02*
X157797619Y-84511904D01*
X157678571Y-84273809D01*
X157678571Y-82130952D01*
X158869047Y-84511904D02*
X159107142Y-84630952D01*
X159583333Y-84630952D01*
X159821428Y-84511904D01*
X159940476Y-84273809D01*
X159940476Y-84154761D01*
X159821428Y-83916666D01*
X159583333Y-83797619D01*
X159226190Y-83797619D01*
X158988095Y-83678571D01*
X158869047Y-83440476D01*
X158869047Y-83321428D01*
X158988095Y-83083333D01*
X159226190Y-82964285D01*
X159583333Y-82964285D01*
X159821428Y-83083333D01*
X149761904Y-122011904D02*
X149523809Y-122130952D01*
X149047619Y-122130952D01*
X148809523Y-122011904D01*
X148690476Y-121892857D01*
X148571428Y-121654761D01*
X148571428Y-120940476D01*
X148690476Y-120702380D01*
X148809523Y-120583333D01*
X149047619Y-120464285D01*
X149523809Y-120464285D01*
X149761904Y-120583333D01*
X151190476Y-122130952D02*
X150952380Y-122011904D01*
X150833333Y-121892857D01*
X150714285Y-121654761D01*
X150714285Y-120940476D01*
X150833333Y-120702380D01*
X150952380Y-120583333D01*
X151190476Y-120464285D01*
X151547619Y-120464285D01*
X151785714Y-120583333D01*
X151904761Y-120702380D01*
X152023809Y-120940476D01*
X152023809Y-121654761D01*
X151904761Y-121892857D01*
X151785714Y-122011904D01*
X151547619Y-122130952D01*
X151190476Y-122130952D01*
X153452380Y-122130952D02*
X153214285Y-122011904D01*
X153095238Y-121773809D01*
X153095238Y-119630952D01*
X154761904Y-122130952D02*
X154523809Y-122011904D01*
X154404761Y-121892857D01*
X154285714Y-121654761D01*
X154285714Y-120940476D01*
X154404761Y-120702380D01*
X154523809Y-120583333D01*
X154761904Y-120464285D01*
X155119047Y-120464285D01*
X155357142Y-120583333D01*
X155476190Y-120702380D01*
X155595238Y-120940476D01*
X155595238Y-121654761D01*
X155476190Y-121892857D01*
X155357142Y-122011904D01*
X155119047Y-122130952D01*
X154761904Y-122130952D01*
X157738095Y-120464285D02*
X157738095Y-122130952D01*
X156666666Y-120464285D02*
X156666666Y-121773809D01*
X156785714Y-122011904D01*
X157023809Y-122130952D01*
X157380952Y-122130952D01*
X157619047Y-122011904D01*
X157738095Y-121892857D01*
X158928571Y-122130952D02*
X158928571Y-120464285D01*
X158928571Y-120940476D02*
X159047619Y-120702380D01*
X159166666Y-120583333D01*
X159404761Y-120464285D01*
X159642857Y-120464285D01*
X160357142Y-122011904D02*
X160595238Y-122130952D01*
X161071428Y-122130952D01*
X161309523Y-122011904D01*
X161428571Y-121773809D01*
X161428571Y-121654761D01*
X161309523Y-121416666D01*
X161071428Y-121297619D01*
X160714285Y-121297619D01*
X160476190Y-121178571D01*
X160357142Y-120940476D01*
X160357142Y-120821428D01*
X160476190Y-120583333D01*
X160714285Y-120464285D01*
X161071428Y-120464285D01*
X161309523Y-120583333D01*
D13*
X127500000Y-43050000D02*
G75*
G03X127500000Y-43050000I-7000000J0D01*
G01*
X112755000Y-76930000D02*
X113070000Y-76930000D01*
X110330000Y-76930000D02*
X110645000Y-76930000D01*
X112755000Y-81870000D02*
X113070000Y-81870000D01*
X110330000Y-81870000D02*
X110645000Y-81870000D01*
X113070000Y-81870000D02*
X113070000Y-76930000D01*
X110330000Y-81870000D02*
X110330000Y-76930000D01*
X113830000Y-81870000D02*
X113830000Y-76930000D01*
X116570000Y-81870000D02*
X116570000Y-76930000D01*
X113830000Y-81870000D02*
X114145000Y-81870000D01*
X116255000Y-81870000D02*
X116570000Y-81870000D01*
X113830000Y-76930000D02*
X114145000Y-76930000D01*
X116255000Y-76930000D02*
X116570000Y-76930000D01*
X111970000Y-68120000D02*
X107030000Y-68120000D01*
X111970000Y-65380000D02*
X107030000Y-65380000D01*
X111970000Y-68120000D02*
X111970000Y-67805000D01*
X111970000Y-65695000D02*
X111970000Y-65380000D01*
X107030000Y-68120000D02*
X107030000Y-67805000D01*
X107030000Y-65695000D02*
X107030000Y-65380000D01*
X146370000Y-37500000D02*
G75*
G03X146370000Y-37500000I-2620000J0D01*
G01*
X143750000Y-34920000D02*
X143750000Y-40080000D01*
X143790000Y-34920000D02*
X143790000Y-40080000D01*
X143830000Y-34921000D02*
X143830000Y-40079000D01*
X143870000Y-34922000D02*
X143870000Y-40078000D01*
X143910000Y-34924000D02*
X143910000Y-40076000D01*
X143950000Y-34927000D02*
X143950000Y-40073000D01*
X143990000Y-34931000D02*
X143990000Y-36460000D01*
X143990000Y-38540000D02*
X143990000Y-40069000D01*
X144030000Y-34935000D02*
X144030000Y-36460000D01*
X144030000Y-38540000D02*
X144030000Y-40065000D01*
X144070000Y-34939000D02*
X144070000Y-36460000D01*
X144070000Y-38540000D02*
X144070000Y-40061000D01*
X144110000Y-34944000D02*
X144110000Y-36460000D01*
X144110000Y-38540000D02*
X144110000Y-40056000D01*
X144150000Y-34950000D02*
X144150000Y-36460000D01*
X144150000Y-38540000D02*
X144150000Y-40050000D01*
X144190000Y-34957000D02*
X144190000Y-36460000D01*
X144190000Y-38540000D02*
X144190000Y-40043000D01*
X144230000Y-34964000D02*
X144230000Y-36460000D01*
X144230000Y-38540000D02*
X144230000Y-40036000D01*
X144270000Y-34972000D02*
X144270000Y-36460000D01*
X144270000Y-38540000D02*
X144270000Y-40028000D01*
X144310000Y-34980000D02*
X144310000Y-36460000D01*
X144310000Y-38540000D02*
X144310000Y-40020000D01*
X144350000Y-34989000D02*
X144350000Y-36460000D01*
X144350000Y-38540000D02*
X144350000Y-40011000D01*
X144390000Y-34999000D02*
X144390000Y-36460000D01*
X144390000Y-38540000D02*
X144390000Y-40001000D01*
X144430000Y-35009000D02*
X144430000Y-36460000D01*
X144430000Y-38540000D02*
X144430000Y-39991000D01*
X144471000Y-35020000D02*
X144471000Y-36460000D01*
X144471000Y-38540000D02*
X144471000Y-39980000D01*
X144511000Y-35032000D02*
X144511000Y-36460000D01*
X144511000Y-38540000D02*
X144511000Y-39968000D01*
X144551000Y-35045000D02*
X144551000Y-36460000D01*
X144551000Y-38540000D02*
X144551000Y-39955000D01*
X144591000Y-35058000D02*
X144591000Y-36460000D01*
X144591000Y-38540000D02*
X144591000Y-39942000D01*
X144631000Y-35072000D02*
X144631000Y-36460000D01*
X144631000Y-38540000D02*
X144631000Y-39928000D01*
X144671000Y-35086000D02*
X144671000Y-36460000D01*
X144671000Y-38540000D02*
X144671000Y-39914000D01*
X144711000Y-35102000D02*
X144711000Y-36460000D01*
X144711000Y-38540000D02*
X144711000Y-39898000D01*
X144751000Y-35118000D02*
X144751000Y-36460000D01*
X144751000Y-38540000D02*
X144751000Y-39882000D01*
X144791000Y-35135000D02*
X144791000Y-36460000D01*
X144791000Y-38540000D02*
X144791000Y-39865000D01*
X144831000Y-35152000D02*
X144831000Y-36460000D01*
X144831000Y-38540000D02*
X144831000Y-39848000D01*
X144871000Y-35171000D02*
X144871000Y-36460000D01*
X144871000Y-38540000D02*
X144871000Y-39829000D01*
X144911000Y-35190000D02*
X144911000Y-36460000D01*
X144911000Y-38540000D02*
X144911000Y-39810000D01*
X144951000Y-35210000D02*
X144951000Y-36460000D01*
X144951000Y-38540000D02*
X144951000Y-39790000D01*
X144991000Y-35232000D02*
X144991000Y-36460000D01*
X144991000Y-38540000D02*
X144991000Y-39768000D01*
X145031000Y-35253000D02*
X145031000Y-36460000D01*
X145031000Y-38540000D02*
X145031000Y-39747000D01*
X145071000Y-35276000D02*
X145071000Y-36460000D01*
X145071000Y-38540000D02*
X145071000Y-39724000D01*
X145111000Y-35300000D02*
X145111000Y-36460000D01*
X145111000Y-38540000D02*
X145111000Y-39700000D01*
X145151000Y-35325000D02*
X145151000Y-36460000D01*
X145151000Y-38540000D02*
X145151000Y-39675000D01*
X145191000Y-35351000D02*
X145191000Y-36460000D01*
X145191000Y-38540000D02*
X145191000Y-39649000D01*
X145231000Y-35378000D02*
X145231000Y-36460000D01*
X145231000Y-38540000D02*
X145231000Y-39622000D01*
X145271000Y-35405000D02*
X145271000Y-36460000D01*
X145271000Y-38540000D02*
X145271000Y-39595000D01*
X145311000Y-35435000D02*
X145311000Y-36460000D01*
X145311000Y-38540000D02*
X145311000Y-39565000D01*
X145351000Y-35465000D02*
X145351000Y-36460000D01*
X145351000Y-38540000D02*
X145351000Y-39535000D01*
X145391000Y-35496000D02*
X145391000Y-36460000D01*
X145391000Y-38540000D02*
X145391000Y-39504000D01*
X145431000Y-35529000D02*
X145431000Y-36460000D01*
X145431000Y-38540000D02*
X145431000Y-39471000D01*
X145471000Y-35563000D02*
X145471000Y-36460000D01*
X145471000Y-38540000D02*
X145471000Y-39437000D01*
X145511000Y-35599000D02*
X145511000Y-36460000D01*
X145511000Y-38540000D02*
X145511000Y-39401000D01*
X145551000Y-35636000D02*
X145551000Y-36460000D01*
X145551000Y-38540000D02*
X145551000Y-39364000D01*
X145591000Y-35674000D02*
X145591000Y-36460000D01*
X145591000Y-38540000D02*
X145591000Y-39326000D01*
X145631000Y-35715000D02*
X145631000Y-36460000D01*
X145631000Y-38540000D02*
X145631000Y-39285000D01*
X145671000Y-35757000D02*
X145671000Y-36460000D01*
X145671000Y-38540000D02*
X145671000Y-39243000D01*
X145711000Y-35801000D02*
X145711000Y-36460000D01*
X145711000Y-38540000D02*
X145711000Y-39199000D01*
X145751000Y-35847000D02*
X145751000Y-36460000D01*
X145751000Y-38540000D02*
X145751000Y-39153000D01*
X145791000Y-35895000D02*
X145791000Y-36460000D01*
X145791000Y-38540000D02*
X145791000Y-39105000D01*
X145831000Y-35946000D02*
X145831000Y-36460000D01*
X145831000Y-38540000D02*
X145831000Y-39054000D01*
X145871000Y-36000000D02*
X145871000Y-36460000D01*
X145871000Y-38540000D02*
X145871000Y-39000000D01*
X145911000Y-36057000D02*
X145911000Y-36460000D01*
X145911000Y-38540000D02*
X145911000Y-38943000D01*
X145951000Y-36117000D02*
X145951000Y-36460000D01*
X145951000Y-38540000D02*
X145951000Y-38883000D01*
X145991000Y-36181000D02*
X145991000Y-36460000D01*
X145991000Y-38540000D02*
X145991000Y-38819000D01*
X146031000Y-36249000D02*
X146031000Y-36460000D01*
X146031000Y-38540000D02*
X146031000Y-38751000D01*
X146071000Y-36322000D02*
X146071000Y-38678000D01*
X146111000Y-36402000D02*
X146111000Y-38598000D01*
X146151000Y-36489000D02*
X146151000Y-38511000D01*
X146191000Y-36585000D02*
X146191000Y-38415000D01*
X146231000Y-36695000D02*
X146231000Y-38305000D01*
X146271000Y-36823000D02*
X146271000Y-38177000D01*
X146311000Y-36982000D02*
X146311000Y-38018000D01*
X146351000Y-37216000D02*
X146351000Y-37784000D01*
X140945225Y-36025000D02*
X141445225Y-36025000D01*
X141195225Y-35775000D02*
X141195225Y-36275000D01*
X150470000Y-96870000D02*
X145530000Y-96870000D01*
X150470000Y-94130000D02*
X145530000Y-94130000D01*
X150470000Y-96870000D02*
X150470000Y-96555000D01*
X150470000Y-94445000D02*
X150470000Y-94130000D01*
X145530000Y-96870000D02*
X145530000Y-96555000D01*
X145530000Y-94445000D02*
X145530000Y-94130000D01*
X133030000Y-47945000D02*
X133030000Y-47630000D01*
X133030000Y-50370000D02*
X133030000Y-50055000D01*
X137970000Y-47945000D02*
X137970000Y-47630000D01*
X137970000Y-50370000D02*
X137970000Y-50055000D01*
X137970000Y-47630000D02*
X133030000Y-47630000D01*
X137970000Y-50370000D02*
X133030000Y-50370000D01*
X163030000Y-94445000D02*
X163030000Y-94130000D01*
X163030000Y-96870000D02*
X163030000Y-96555000D01*
X167970000Y-94445000D02*
X167970000Y-94130000D01*
X167970000Y-96870000D02*
X167970000Y-96555000D01*
X167970000Y-94130000D02*
X163030000Y-94130000D01*
X167970000Y-96870000D02*
X163030000Y-96870000D01*
X202470000Y-65870000D02*
X197530000Y-65870000D01*
X202470000Y-63130000D02*
X197530000Y-63130000D01*
X202470000Y-65870000D02*
X202470000Y-65555000D01*
X202470000Y-63445000D02*
X202470000Y-63130000D01*
X197530000Y-65870000D02*
X197530000Y-65555000D01*
X197530000Y-63445000D02*
X197530000Y-63130000D01*
X169970000Y-68370000D02*
X165030000Y-68370000D01*
X169970000Y-65630000D02*
X165030000Y-65630000D01*
X169970000Y-68370000D02*
X169970000Y-68055000D01*
X169970000Y-65945000D02*
X169970000Y-65630000D01*
X165030000Y-68370000D02*
X165030000Y-68055000D01*
X165030000Y-65945000D02*
X165030000Y-65630000D01*
X181970000Y-48370000D02*
X177030000Y-48370000D01*
X181970000Y-45630000D02*
X177030000Y-45630000D01*
X181970000Y-48370000D02*
X181970000Y-48055000D01*
X181970000Y-45945000D02*
X181970000Y-45630000D01*
X177030000Y-48370000D02*
X177030000Y-48055000D01*
X177030000Y-45945000D02*
X177030000Y-45630000D01*
X117945000Y-101970000D02*
X117630000Y-101970000D01*
X120370000Y-101970000D02*
X120055000Y-101970000D01*
X117945000Y-97030000D02*
X117630000Y-97030000D01*
X120370000Y-97030000D02*
X120055000Y-97030000D01*
X117630000Y-97030000D02*
X117630000Y-101970000D01*
X120370000Y-97030000D02*
X120370000Y-101970000D01*
X151470000Y-63255000D02*
X151470000Y-63570000D01*
X151470000Y-60830000D02*
X151470000Y-61145000D01*
X146530000Y-63255000D02*
X146530000Y-63570000D01*
X146530000Y-60830000D02*
X146530000Y-61145000D01*
X146530000Y-63570000D02*
X151470000Y-63570000D01*
X146530000Y-60830000D02*
X151470000Y-60830000D01*
X157530000Y-60445000D02*
X157530000Y-60130000D01*
X157530000Y-62870000D02*
X157530000Y-62555000D01*
X162470000Y-60445000D02*
X162470000Y-60130000D01*
X162470000Y-62870000D02*
X162470000Y-62555000D01*
X162470000Y-60130000D02*
X157530000Y-60130000D01*
X162470000Y-62870000D02*
X157530000Y-62870000D01*
X136870000Y-86030000D02*
X136870000Y-90970000D01*
X134130000Y-86030000D02*
X134130000Y-90970000D01*
X136870000Y-86030000D02*
X136555000Y-86030000D01*
X134445000Y-86030000D02*
X134130000Y-86030000D01*
X136870000Y-90970000D02*
X136555000Y-90970000D01*
X134445000Y-90970000D02*
X134130000Y-90970000D01*
X185445000Y-90970000D02*
X185130000Y-90970000D01*
X187870000Y-90970000D02*
X187555000Y-90970000D01*
X185445000Y-86030000D02*
X185130000Y-86030000D01*
X187870000Y-86030000D02*
X187555000Y-86030000D01*
X185130000Y-86030000D02*
X185130000Y-90970000D01*
X187870000Y-86030000D02*
X187870000Y-90970000D01*
X138970000Y-118055000D02*
X138970000Y-118370000D01*
X138970000Y-115630000D02*
X138970000Y-115945000D01*
X134030000Y-118055000D02*
X134030000Y-118370000D01*
X134030000Y-115630000D02*
X134030000Y-115945000D01*
X134030000Y-118370000D02*
X138970000Y-118370000D01*
X134030000Y-115630000D02*
X138970000Y-115630000D01*
X125470000Y-118055000D02*
X125470000Y-118370000D01*
X125470000Y-115630000D02*
X125470000Y-115945000D01*
X120530000Y-118055000D02*
X120530000Y-118370000D01*
X120530000Y-115630000D02*
X120530000Y-115945000D01*
X120530000Y-118370000D02*
X125470000Y-118370000D01*
X120530000Y-115630000D02*
X125470000Y-115630000D01*
X188970000Y-117870000D02*
X184030000Y-117870000D01*
X188970000Y-115130000D02*
X184030000Y-115130000D01*
X188970000Y-117870000D02*
X188970000Y-117555000D01*
X188970000Y-115445000D02*
X188970000Y-115130000D01*
X184030000Y-117870000D02*
X184030000Y-117555000D01*
X184030000Y-115445000D02*
X184030000Y-115130000D01*
X175970000Y-117870000D02*
X171030000Y-117870000D01*
X175970000Y-115130000D02*
X171030000Y-115130000D01*
X175970000Y-117870000D02*
X175970000Y-117555000D01*
X175970000Y-115445000D02*
X175970000Y-115130000D01*
X171030000Y-117870000D02*
X171030000Y-117555000D01*
X171030000Y-115445000D02*
X171030000Y-115130000D01*
X117160000Y-69410000D02*
X117030000Y-69410000D01*
X117030000Y-69410000D02*
X117030000Y-63970000D01*
X117030000Y-63970000D02*
X117160000Y-63970000D01*
X119840000Y-69410000D02*
X119970000Y-69410000D01*
X119970000Y-69410000D02*
X119970000Y-63970000D01*
X119970000Y-63970000D02*
X119840000Y-63970000D01*
X117030000Y-68510000D02*
X119970000Y-68510000D01*
X117030000Y-68390000D02*
X119970000Y-68390000D01*
X117030000Y-68630000D02*
X119970000Y-68630000D01*
X157850000Y-46100000D02*
X158900000Y-46100000D01*
X158900000Y-45050000D02*
X158900000Y-46100000D01*
X149500000Y-40000000D02*
X149500000Y-31200000D01*
X149500000Y-31200000D02*
X158700000Y-31200000D01*
X152200000Y-45900000D02*
X149500000Y-45900000D01*
X149500000Y-45900000D02*
X149500000Y-44000000D01*
X158700000Y-31200000D02*
X158700000Y-45900000D01*
X158700000Y-45900000D02*
X156100000Y-45900000D01*
X201910000Y-88830000D02*
X201910000Y-86170000D01*
X196770000Y-88830000D02*
X201910000Y-88830000D01*
X196770000Y-86170000D02*
X201910000Y-86170000D01*
X196770000Y-88830000D02*
X196770000Y-86170000D01*
X195500000Y-88830000D02*
X194170000Y-88830000D01*
X194170000Y-88830000D02*
X194170000Y-87500000D01*
X189220000Y-40350000D02*
X192820000Y-40350000D01*
X189208547Y-40342156D02*
G75*
G02X190200000Y-36050000I1811453J1842156D01*
G01*
X192828445Y-40327684D02*
G75*
G03X191800000Y-36050000I-1808445J1827684D01*
G01*
X107540000Y-96960000D02*
X107540000Y-96630000D01*
X107540000Y-96630000D02*
X114080000Y-96630000D01*
X114080000Y-96630000D02*
X114080000Y-96960000D01*
X107540000Y-99040000D02*
X107540000Y-99370000D01*
X107540000Y-99370000D02*
X114080000Y-99370000D01*
X114080000Y-99370000D02*
X114080000Y-99040000D01*
X124370000Y-97920000D02*
X124040000Y-97920000D01*
X124370000Y-104460000D02*
X124370000Y-97920000D01*
X124040000Y-104460000D02*
X124370000Y-104460000D01*
X121630000Y-97920000D02*
X121960000Y-97920000D01*
X121630000Y-104460000D02*
X121630000Y-97920000D01*
X121960000Y-104460000D02*
X121630000Y-104460000D01*
X191960000Y-47790000D02*
X191960000Y-48120000D01*
X191960000Y-48120000D02*
X185420000Y-48120000D01*
X185420000Y-48120000D02*
X185420000Y-47790000D01*
X191960000Y-45710000D02*
X191960000Y-45380000D01*
X191960000Y-45380000D02*
X185420000Y-45380000D01*
X185420000Y-45380000D02*
X185420000Y-45710000D01*
X195920000Y-45380000D02*
X195920000Y-45710000D01*
X202460000Y-45380000D02*
X195920000Y-45380000D01*
X202460000Y-45710000D02*
X202460000Y-45380000D01*
X195920000Y-48120000D02*
X195920000Y-47790000D01*
X202460000Y-48120000D02*
X195920000Y-48120000D01*
X202460000Y-47790000D02*
X202460000Y-48120000D01*
X185540000Y-41710000D02*
X185540000Y-41380000D01*
X185540000Y-41380000D02*
X192080000Y-41380000D01*
X192080000Y-41380000D02*
X192080000Y-41710000D01*
X185540000Y-43790000D02*
X185540000Y-44120000D01*
X185540000Y-44120000D02*
X192080000Y-44120000D01*
X192080000Y-44120000D02*
X192080000Y-43790000D01*
X114080000Y-64370000D02*
X114080000Y-64040000D01*
X107540000Y-64370000D02*
X114080000Y-64370000D01*
X107540000Y-64040000D02*
X107540000Y-64370000D01*
X114080000Y-61630000D02*
X114080000Y-61960000D01*
X107540000Y-61630000D02*
X114080000Y-61630000D01*
X107540000Y-61960000D02*
X107540000Y-61630000D01*
X114080000Y-71870000D02*
X114080000Y-71540000D01*
X107540000Y-71870000D02*
X114080000Y-71870000D01*
X107540000Y-71540000D02*
X107540000Y-71870000D01*
X114080000Y-69130000D02*
X114080000Y-69460000D01*
X107540000Y-69130000D02*
X114080000Y-69130000D01*
X107540000Y-69460000D02*
X107540000Y-69130000D01*
X138080000Y-45370000D02*
X138080000Y-45040000D01*
X131540000Y-45370000D02*
X138080000Y-45370000D01*
X131540000Y-45040000D02*
X131540000Y-45370000D01*
X138080000Y-42630000D02*
X138080000Y-42960000D01*
X131540000Y-42630000D02*
X138080000Y-42630000D01*
X131540000Y-42960000D02*
X131540000Y-42630000D01*
X144540000Y-50160000D02*
X144540000Y-49830000D01*
X144540000Y-49830000D02*
X151080000Y-49830000D01*
X151080000Y-49830000D02*
X151080000Y-50160000D01*
X144540000Y-52240000D02*
X144540000Y-52570000D01*
X144540000Y-52570000D02*
X151080000Y-52570000D01*
X151080000Y-52570000D02*
X151080000Y-52240000D01*
X144420000Y-53330000D02*
X144420000Y-53660000D01*
X150960000Y-53330000D02*
X144420000Y-53330000D01*
X150960000Y-53660000D02*
X150960000Y-53330000D01*
X144420000Y-56070000D02*
X144420000Y-55740000D01*
X150960000Y-56070000D02*
X144420000Y-56070000D01*
X150960000Y-55740000D02*
X150960000Y-56070000D01*
X151080000Y-59570000D02*
X151080000Y-59240000D01*
X144540000Y-59570000D02*
X151080000Y-59570000D01*
X144540000Y-59240000D02*
X144540000Y-59570000D01*
X151080000Y-56830000D02*
X151080000Y-57160000D01*
X144540000Y-56830000D02*
X151080000Y-56830000D01*
X144540000Y-57160000D02*
X144540000Y-56830000D01*
X164460000Y-51540000D02*
X164460000Y-51870000D01*
X164460000Y-51870000D02*
X157920000Y-51870000D01*
X157920000Y-51870000D02*
X157920000Y-51540000D01*
X164460000Y-49460000D02*
X164460000Y-49130000D01*
X164460000Y-49130000D02*
X157920000Y-49130000D01*
X157920000Y-49130000D02*
X157920000Y-49460000D01*
X158040000Y-56460000D02*
X158040000Y-56130000D01*
X158040000Y-56130000D02*
X164580000Y-56130000D01*
X164580000Y-56130000D02*
X164580000Y-56460000D01*
X158040000Y-58540000D02*
X158040000Y-58870000D01*
X158040000Y-58870000D02*
X164580000Y-58870000D01*
X164580000Y-58870000D02*
X164580000Y-58540000D01*
X158040000Y-52960000D02*
X158040000Y-52630000D01*
X158040000Y-52630000D02*
X164580000Y-52630000D01*
X164580000Y-52630000D02*
X164580000Y-52960000D01*
X158040000Y-55040000D02*
X158040000Y-55370000D01*
X158040000Y-55370000D02*
X164580000Y-55370000D01*
X164580000Y-55370000D02*
X164580000Y-55040000D01*
X152040000Y-72040000D02*
X152370000Y-72040000D01*
X152370000Y-72040000D02*
X152370000Y-78580000D01*
X152370000Y-78580000D02*
X152040000Y-78580000D01*
X149960000Y-72040000D02*
X149630000Y-72040000D01*
X149630000Y-72040000D02*
X149630000Y-78580000D01*
X149630000Y-78580000D02*
X149960000Y-78580000D01*
X125540000Y-89460000D02*
X125540000Y-89130000D01*
X125540000Y-89130000D02*
X132080000Y-89130000D01*
X132080000Y-89130000D02*
X132080000Y-89460000D01*
X125540000Y-91540000D02*
X125540000Y-91870000D01*
X125540000Y-91870000D02*
X132080000Y-91870000D01*
X132080000Y-91870000D02*
X132080000Y-91540000D01*
X125420000Y-85130000D02*
X125420000Y-85460000D01*
X131960000Y-85130000D02*
X125420000Y-85130000D01*
X131960000Y-85460000D02*
X131960000Y-85130000D01*
X125420000Y-87870000D02*
X125420000Y-87540000D01*
X131960000Y-87870000D02*
X125420000Y-87870000D01*
X131960000Y-87540000D02*
X131960000Y-87870000D01*
X131960000Y-95040000D02*
X131960000Y-95370000D01*
X131960000Y-95370000D02*
X125420000Y-95370000D01*
X125420000Y-95370000D02*
X125420000Y-95040000D01*
X131960000Y-92960000D02*
X131960000Y-92630000D01*
X131960000Y-92630000D02*
X125420000Y-92630000D01*
X125420000Y-92630000D02*
X125420000Y-92960000D01*
X153380000Y-78580000D02*
X153710000Y-78580000D01*
X153380000Y-72040000D02*
X153380000Y-78580000D01*
X153710000Y-72040000D02*
X153380000Y-72040000D01*
X156120000Y-78580000D02*
X155790000Y-78580000D01*
X156120000Y-72040000D02*
X156120000Y-78580000D01*
X155790000Y-72040000D02*
X156120000Y-72040000D01*
X182080000Y-91870000D02*
X182080000Y-91540000D01*
X175540000Y-91870000D02*
X182080000Y-91870000D01*
X175540000Y-91540000D02*
X175540000Y-91870000D01*
X182080000Y-89130000D02*
X182080000Y-89460000D01*
X175540000Y-89130000D02*
X182080000Y-89130000D01*
X175540000Y-89460000D02*
X175540000Y-89130000D01*
X181960000Y-87540000D02*
X181960000Y-87870000D01*
X181960000Y-87870000D02*
X175420000Y-87870000D01*
X175420000Y-87870000D02*
X175420000Y-87540000D01*
X181960000Y-85460000D02*
X181960000Y-85130000D01*
X181960000Y-85130000D02*
X175420000Y-85130000D01*
X175420000Y-85130000D02*
X175420000Y-85460000D01*
X175420000Y-92630000D02*
X175420000Y-92960000D01*
X181960000Y-92630000D02*
X175420000Y-92630000D01*
X181960000Y-92960000D02*
X181960000Y-92630000D01*
X175420000Y-95370000D02*
X175420000Y-95040000D01*
X181960000Y-95370000D02*
X175420000Y-95370000D01*
X181960000Y-95040000D02*
X181960000Y-95370000D01*
X128420000Y-102130000D02*
X128420000Y-102460000D01*
X134960000Y-102130000D02*
X128420000Y-102130000D01*
X134960000Y-102460000D02*
X134960000Y-102130000D01*
X128420000Y-104870000D02*
X128420000Y-104540000D01*
X134960000Y-104870000D02*
X128420000Y-104870000D01*
X134960000Y-104540000D02*
X134960000Y-104870000D01*
X128960000Y-121960000D02*
X128630000Y-121960000D01*
X128630000Y-121960000D02*
X128630000Y-115420000D01*
X128630000Y-115420000D02*
X128960000Y-115420000D01*
X131040000Y-121960000D02*
X131370000Y-121960000D01*
X131370000Y-121960000D02*
X131370000Y-115420000D01*
X131370000Y-115420000D02*
X131040000Y-115420000D01*
X131370000Y-125920000D02*
X131040000Y-125920000D01*
X131370000Y-132460000D02*
X131370000Y-125920000D01*
X131040000Y-132460000D02*
X131370000Y-132460000D01*
X128630000Y-125920000D02*
X128960000Y-125920000D01*
X128630000Y-132460000D02*
X128630000Y-125920000D01*
X128960000Y-132460000D02*
X128630000Y-132460000D01*
X137630000Y-95080000D02*
X137960000Y-95080000D01*
X137630000Y-88540000D02*
X137630000Y-95080000D01*
X137960000Y-88540000D02*
X137630000Y-88540000D01*
X140370000Y-95080000D02*
X140040000Y-95080000D01*
X140370000Y-88540000D02*
X140370000Y-95080000D01*
X140040000Y-88540000D02*
X140370000Y-88540000D01*
X140040000Y-99040000D02*
X140370000Y-99040000D01*
X140370000Y-99040000D02*
X140370000Y-105580000D01*
X140370000Y-105580000D02*
X140040000Y-105580000D01*
X137960000Y-99040000D02*
X137630000Y-99040000D01*
X137630000Y-99040000D02*
X137630000Y-105580000D01*
X137630000Y-105580000D02*
X137960000Y-105580000D01*
X143870000Y-88920000D02*
X143540000Y-88920000D01*
X143870000Y-95460000D02*
X143870000Y-88920000D01*
X143540000Y-95460000D02*
X143870000Y-95460000D01*
X141130000Y-88920000D02*
X141460000Y-88920000D01*
X141130000Y-95460000D02*
X141130000Y-88920000D01*
X141460000Y-95460000D02*
X141130000Y-95460000D01*
X181960000Y-104540000D02*
X181960000Y-104870000D01*
X181960000Y-104870000D02*
X175420000Y-104870000D01*
X175420000Y-104870000D02*
X175420000Y-104540000D01*
X181960000Y-102460000D02*
X181960000Y-102130000D01*
X181960000Y-102130000D02*
X175420000Y-102130000D01*
X175420000Y-102130000D02*
X175420000Y-102460000D01*
X181370000Y-126420000D02*
X181040000Y-126420000D01*
X181370000Y-132960000D02*
X181370000Y-126420000D01*
X181040000Y-132960000D02*
X181370000Y-132960000D01*
X178630000Y-126420000D02*
X178960000Y-126420000D01*
X178630000Y-132960000D02*
X178630000Y-126420000D01*
X178960000Y-132960000D02*
X178630000Y-132960000D01*
X181040000Y-115540000D02*
X181370000Y-115540000D01*
X181370000Y-115540000D02*
X181370000Y-122080000D01*
X181370000Y-122080000D02*
X181040000Y-122080000D01*
X178960000Y-115540000D02*
X178630000Y-115540000D01*
X178630000Y-115540000D02*
X178630000Y-122080000D01*
X178630000Y-122080000D02*
X178960000Y-122080000D01*
X154540000Y-88540000D02*
X154870000Y-88540000D01*
X154870000Y-88540000D02*
X154870000Y-95080000D01*
X154870000Y-95080000D02*
X154540000Y-95080000D01*
X152460000Y-88540000D02*
X152130000Y-88540000D01*
X152130000Y-88540000D02*
X152130000Y-95080000D01*
X152130000Y-95080000D02*
X152460000Y-95080000D01*
X158040000Y-99040000D02*
X158370000Y-99040000D01*
X158370000Y-99040000D02*
X158370000Y-105580000D01*
X158370000Y-105580000D02*
X158040000Y-105580000D01*
X155960000Y-99040000D02*
X155630000Y-99040000D01*
X155630000Y-99040000D02*
X155630000Y-105580000D01*
X155630000Y-105580000D02*
X155960000Y-105580000D01*
X158370000Y-88420000D02*
X158040000Y-88420000D01*
X158370000Y-94960000D02*
X158370000Y-88420000D01*
X158040000Y-94960000D02*
X158370000Y-94960000D01*
X155630000Y-88420000D02*
X155960000Y-88420000D01*
X155630000Y-94960000D02*
X155630000Y-88420000D01*
X155960000Y-94960000D02*
X155630000Y-94960000D01*
X124330000Y-70530000D02*
X136670000Y-70530000D01*
X133870000Y-82120000D02*
X136670000Y-82120000D01*
X131371000Y-82120000D02*
X132130000Y-82120000D01*
X128871000Y-82120000D02*
X129630000Y-82120000D01*
X124330000Y-82120000D02*
X127129000Y-82120000D01*
X136670000Y-73545000D02*
X136670000Y-70530000D01*
X136670000Y-82120000D02*
X136670000Y-77454000D01*
X124330000Y-73545000D02*
X124330000Y-70530000D01*
X124330000Y-82120000D02*
X124330000Y-77454000D01*
X174330000Y-82120000D02*
X174330000Y-77454000D01*
X174330000Y-73545000D02*
X174330000Y-70530000D01*
X186670000Y-82120000D02*
X186670000Y-77454000D01*
X186670000Y-73545000D02*
X186670000Y-70530000D01*
X174330000Y-82120000D02*
X177129000Y-82120000D01*
X178871000Y-82120000D02*
X179630000Y-82120000D01*
X181371000Y-82120000D02*
X182130000Y-82120000D01*
X183870000Y-82120000D02*
X186670000Y-82120000D01*
X174330000Y-70530000D02*
X186670000Y-70530000D01*
X113830000Y-120030000D02*
X126170000Y-120030000D01*
X123370000Y-131620000D02*
X126170000Y-131620000D01*
X120871000Y-131620000D02*
X121630000Y-131620000D01*
X118371000Y-131620000D02*
X119130000Y-131620000D01*
X113830000Y-131620000D02*
X116629000Y-131620000D01*
X126170000Y-123045000D02*
X126170000Y-120030000D01*
X126170000Y-131620000D02*
X126170000Y-126954000D01*
X113830000Y-123045000D02*
X113830000Y-120030000D01*
X113830000Y-131620000D02*
X113830000Y-126954000D01*
X133830000Y-131620000D02*
X133830000Y-126954000D01*
X133830000Y-123045000D02*
X133830000Y-120030000D01*
X146170000Y-131620000D02*
X146170000Y-126954000D01*
X146170000Y-123045000D02*
X146170000Y-120030000D01*
X133830000Y-131620000D02*
X136629000Y-131620000D01*
X138371000Y-131620000D02*
X139130000Y-131620000D01*
X140871000Y-131620000D02*
X141630000Y-131620000D01*
X143370000Y-131620000D02*
X146170000Y-131620000D01*
X133830000Y-120030000D02*
X146170000Y-120030000D01*
X163830000Y-120030000D02*
X176170000Y-120030000D01*
X173370000Y-131620000D02*
X176170000Y-131620000D01*
X170871000Y-131620000D02*
X171630000Y-131620000D01*
X168371000Y-131620000D02*
X169130000Y-131620000D01*
X163830000Y-131620000D02*
X166629000Y-131620000D01*
X176170000Y-123045000D02*
X176170000Y-120030000D01*
X176170000Y-131620000D02*
X176170000Y-126954000D01*
X163830000Y-123045000D02*
X163830000Y-120030000D01*
X163830000Y-131620000D02*
X163830000Y-126954000D01*
X183830000Y-131620000D02*
X183830000Y-126954000D01*
X183830000Y-123045000D02*
X183830000Y-120030000D01*
X196170000Y-131620000D02*
X196170000Y-126954000D01*
X196170000Y-123045000D02*
X196170000Y-120030000D01*
X183830000Y-131620000D02*
X186629000Y-131620000D01*
X188371000Y-131620000D02*
X189130000Y-131620000D01*
X190871000Y-131620000D02*
X191630000Y-131620000D01*
X193370000Y-131620000D02*
X196170000Y-131620000D01*
X183830000Y-120030000D02*
X196170000Y-120030000D01*
X136500000Y-109500000D02*
X136500000Y-112750000D01*
X136500000Y-112750000D02*
X123500000Y-112750000D01*
X123500000Y-112750000D02*
X123500000Y-106000000D01*
X123500000Y-106000000D02*
X136500000Y-106000000D01*
X136500000Y-106000000D02*
X136500000Y-109500000D01*
X186500000Y-106000000D02*
X186500000Y-109500000D01*
X173500000Y-106000000D02*
X186500000Y-106000000D01*
X173500000Y-112750000D02*
X173500000Y-106000000D01*
X186500000Y-112750000D02*
X173500000Y-112750000D01*
X186500000Y-109500000D02*
X186500000Y-112750000D01*
X112310000Y-100670000D02*
G75*
G02X110310000Y-100670000I-1000000J0D01*
G01*
X110310000Y-100670000D02*
X109060000Y-100670000D01*
X109060000Y-100670000D02*
X109060000Y-118570000D01*
X109060000Y-118570000D02*
X113560000Y-118570000D01*
X113560000Y-118570000D02*
X113560000Y-100670000D01*
X113560000Y-100670000D02*
X112310000Y-100670000D01*
X183560000Y-48670000D02*
X182310000Y-48670000D01*
X183560000Y-69110000D02*
X183560000Y-48670000D01*
X179060000Y-69110000D02*
X183560000Y-69110000D01*
X179060000Y-48670000D02*
X179060000Y-69110000D01*
X180310000Y-48670000D02*
X179060000Y-48670000D01*
X182310000Y-48670000D02*
G75*
G02X180310000Y-48670000I-1000000J0D01*
G01*
X201060000Y-66670000D02*
X199810000Y-66670000D01*
X201060000Y-84570000D02*
X201060000Y-66670000D01*
X196560000Y-84570000D02*
X201060000Y-84570000D01*
X196560000Y-66670000D02*
X196560000Y-84570000D01*
X197810000Y-66670000D02*
X196560000Y-66670000D01*
X199810000Y-66670000D02*
G75*
G02X197810000Y-66670000I-1000000J0D01*
G01*
X148560000Y-97670000D02*
X147310000Y-97670000D01*
X148560000Y-118110000D02*
X148560000Y-97670000D01*
X144060000Y-118110000D02*
X148560000Y-118110000D01*
X144060000Y-97670000D02*
X144060000Y-118110000D01*
X145310000Y-97670000D02*
X144060000Y-97670000D01*
X147310000Y-97670000D02*
G75*
G02X145310000Y-97670000I-1000000J0D01*
G01*
X166560000Y-97670000D02*
X165310000Y-97670000D01*
X166560000Y-118110000D02*
X166560000Y-97670000D01*
X162060000Y-118110000D02*
X166560000Y-118110000D01*
X162060000Y-97670000D02*
X162060000Y-118110000D01*
X163310000Y-97670000D02*
X162060000Y-97670000D01*
X165310000Y-97670000D02*
G75*
G02X163310000Y-97670000I-1000000J0D01*
G01*
X114040000Y-83875000D02*
X120440000Y-83875000D01*
X114040000Y-88925000D02*
X120440000Y-88925000D01*
X114040000Y-88925000D02*
G75*
G02X114040000Y-83875000I0J2525000D01*
G01*
X120440000Y-88925000D02*
G75*
G03X120440000Y-83875000I0J2525000D01*
G01*
X129920000Y-36730000D02*
X140160000Y-36730000D01*
X129920000Y-41371000D02*
X140160000Y-41371000D01*
X129920000Y-36730000D02*
X129920000Y-41371000D01*
X140160000Y-36730000D02*
X140160000Y-41371000D01*
X129920000Y-38240000D02*
X140160000Y-38240000D01*
X133190000Y-36730000D02*
X133190000Y-38240000D01*
X136891000Y-36730000D02*
X136891000Y-38240000D01*
X166810000Y-69170000D02*
G75*
G02X164810000Y-69170000I-1000000J0D01*
G01*
X164810000Y-69170000D02*
X163560000Y-69170000D01*
X163560000Y-69170000D02*
X163560000Y-87070000D01*
X163560000Y-87070000D02*
X168060000Y-87070000D01*
X168060000Y-87070000D02*
X168060000Y-69170000D01*
X168060000Y-69170000D02*
X166810000Y-69170000D01*
X137810000Y-51170000D02*
G75*
G02X135810000Y-51170000I-1000000J0D01*
G01*
X135810000Y-51170000D02*
X134560000Y-51170000D01*
X134560000Y-51170000D02*
X134560000Y-61450000D01*
X134560000Y-61450000D02*
X139060000Y-61450000D01*
X139060000Y-61450000D02*
X139060000Y-51170000D01*
X139060000Y-51170000D02*
X137810000Y-51170000D01*
X145560000Y-70670000D02*
X144310000Y-70670000D01*
X145560000Y-80950000D02*
X145560000Y-70670000D01*
X141060000Y-80950000D02*
X145560000Y-80950000D01*
X141060000Y-70670000D02*
X141060000Y-80950000D01*
X142310000Y-70670000D02*
X141060000Y-70670000D01*
X144310000Y-70670000D02*
G75*
G02X142310000Y-70670000I-1000000J0D01*
G01*
X147220000Y-69870000D02*
X142280000Y-69870000D01*
X147220000Y-67130000D02*
X142280000Y-67130000D01*
X147220000Y-69870000D02*
X147220000Y-69555000D01*
X147220000Y-67445000D02*
X147220000Y-67130000D01*
X142280000Y-69870000D02*
X142280000Y-69555000D01*
X142280000Y-67445000D02*
X142280000Y-67130000D01*
D14*
X202350000Y-55765000D02*
X202350000Y-57135000D01*
X202350000Y-50865000D02*
X202350000Y-52235000D01*
X191650000Y-50865000D02*
X191650000Y-52235000D01*
X191650000Y-55765000D02*
X191650000Y-57135000D01*
X200882076Y-57137372D02*
G75*
G02X193116000Y-57135000I-3882076J3151223D01*
G01*
X193117924Y-50862628D02*
G75*
G02X200884000Y-50865000I3882076J-3151223D01*
G01*
X202350000Y-57135000D02*
X200884000Y-57135000D01*
X193116000Y-57135000D02*
X191650000Y-57135000D01*
X193116000Y-50865000D02*
X191650000Y-50865000D01*
X202350000Y-50865000D02*
X200884000Y-50865000D01*
D15*
X189800000Y-54000000D02*
G75*
G03X189800000Y-54000000I-200000J0D01*
G01*
X105800000Y-55000000D02*
G75*
G03X105800000Y-55000000I-200000J0D01*
G01*
D14*
X118350000Y-51865000D02*
X116884000Y-51865000D01*
X109116000Y-51865000D02*
X107650000Y-51865000D01*
X109116000Y-58135000D02*
X107650000Y-58135000D01*
X118350000Y-58135000D02*
X116884000Y-58135000D01*
X109117924Y-51862628D02*
G75*
G02X116884000Y-51865000I3882076J-3151223D01*
G01*
X116882076Y-58137372D02*
G75*
G02X109116000Y-58135000I-3882076J3151223D01*
G01*
X107650000Y-56765000D02*
X107650000Y-58135000D01*
X107650000Y-51865000D02*
X107650000Y-53235000D01*
X118350000Y-51865000D02*
X118350000Y-53235000D01*
X118350000Y-56765000D02*
X118350000Y-58135000D01*
D13*
X108930000Y-85790000D02*
X106270000Y-85790000D01*
X108930000Y-90930000D02*
X108930000Y-85790000D01*
X106270000Y-90930000D02*
X106270000Y-85790000D01*
X108930000Y-90930000D02*
X106270000Y-90930000D01*
X108930000Y-92200000D02*
X108930000Y-93530000D01*
X108930000Y-93530000D02*
X107600000Y-93530000D01*
X163790000Y-35970000D02*
X163790000Y-41170000D01*
X181630000Y-35970000D02*
X163790000Y-35970000D01*
X184230000Y-41170000D02*
X163790000Y-41170000D01*
X181630000Y-35970000D02*
X181630000Y-38570000D01*
X181630000Y-38570000D02*
X184230000Y-38570000D01*
X184230000Y-38570000D02*
X184230000Y-41170000D01*
X182900000Y-35970000D02*
X184230000Y-35970000D01*
X184230000Y-35970000D02*
X184230000Y-37300000D01*
X144540000Y-46860000D02*
X144540000Y-46530000D01*
X144540000Y-46530000D02*
X151080000Y-46530000D01*
X151080000Y-46530000D02*
X151080000Y-46860000D01*
X144540000Y-48940000D02*
X144540000Y-49270000D01*
X144540000Y-49270000D02*
X151080000Y-49270000D01*
X151080000Y-49270000D02*
X151080000Y-48940000D01*
X114040000Y-89975000D02*
X120440000Y-89975000D01*
X114040000Y-95025000D02*
X120440000Y-95025000D01*
X114040000Y-95025000D02*
G75*
G02X114040000Y-89975000I0J2525000D01*
G01*
X120440000Y-95025000D02*
G75*
G03X120440000Y-89975000I0J2525000D01*
G01*
D16*
X120316666Y-34602380D02*
X120316666Y-35316666D01*
X120269047Y-35459523D01*
X120173809Y-35554761D01*
X120030952Y-35602380D01*
X119935714Y-35602380D01*
X120697619Y-34602380D02*
X121316666Y-34602380D01*
X120983333Y-34983333D01*
X121126190Y-34983333D01*
X121221428Y-35030952D01*
X121269047Y-35078571D01*
X121316666Y-35173809D01*
X121316666Y-35411904D01*
X121269047Y-35507142D01*
X121221428Y-35554761D01*
X121126190Y-35602380D01*
X120840476Y-35602380D01*
X120745238Y-35554761D01*
X120697619Y-35507142D01*
X112057142Y-79566666D02*
X112104761Y-79614285D01*
X112152380Y-79757142D01*
X112152380Y-79852380D01*
X112104761Y-79995238D01*
X112009523Y-80090476D01*
X111914285Y-80138095D01*
X111723809Y-80185714D01*
X111580952Y-80185714D01*
X111390476Y-80138095D01*
X111295238Y-80090476D01*
X111200000Y-79995238D01*
X111152380Y-79852380D01*
X111152380Y-79757142D01*
X111200000Y-79614285D01*
X111247619Y-79566666D01*
X112152380Y-78614285D02*
X112152380Y-79185714D01*
X112152380Y-78900000D02*
X111152380Y-78900000D01*
X111295238Y-78995238D01*
X111390476Y-79090476D01*
X111438095Y-79185714D01*
X115557142Y-79566666D02*
X115604761Y-79614285D01*
X115652380Y-79757142D01*
X115652380Y-79852380D01*
X115604761Y-79995238D01*
X115509523Y-80090476D01*
X115414285Y-80138095D01*
X115223809Y-80185714D01*
X115080952Y-80185714D01*
X114890476Y-80138095D01*
X114795238Y-80090476D01*
X114700000Y-79995238D01*
X114652380Y-79852380D01*
X114652380Y-79757142D01*
X114700000Y-79614285D01*
X114747619Y-79566666D01*
X114747619Y-79185714D02*
X114700000Y-79138095D01*
X114652380Y-79042857D01*
X114652380Y-78804761D01*
X114700000Y-78709523D01*
X114747619Y-78661904D01*
X114842857Y-78614285D01*
X114938095Y-78614285D01*
X115080952Y-78661904D01*
X115652380Y-79233333D01*
X115652380Y-78614285D01*
X109333333Y-66857142D02*
X109285714Y-66904761D01*
X109142857Y-66952380D01*
X109047619Y-66952380D01*
X108904761Y-66904761D01*
X108809523Y-66809523D01*
X108761904Y-66714285D01*
X108714285Y-66523809D01*
X108714285Y-66380952D01*
X108761904Y-66190476D01*
X108809523Y-66095238D01*
X108904761Y-66000000D01*
X109047619Y-65952380D01*
X109142857Y-65952380D01*
X109285714Y-66000000D01*
X109333333Y-66047619D01*
X109666666Y-65952380D02*
X110285714Y-65952380D01*
X109952380Y-66333333D01*
X110095238Y-66333333D01*
X110190476Y-66380952D01*
X110238095Y-66428571D01*
X110285714Y-66523809D01*
X110285714Y-66761904D01*
X110238095Y-66857142D01*
X110190476Y-66904761D01*
X110095238Y-66952380D01*
X109809523Y-66952380D01*
X109714285Y-66904761D01*
X109666666Y-66857142D01*
X143833333Y-41857142D02*
X143785714Y-41904761D01*
X143642857Y-41952380D01*
X143547619Y-41952380D01*
X143404761Y-41904761D01*
X143309523Y-41809523D01*
X143261904Y-41714285D01*
X143214285Y-41523809D01*
X143214285Y-41380952D01*
X143261904Y-41190476D01*
X143309523Y-41095238D01*
X143404761Y-41000000D01*
X143547619Y-40952380D01*
X143642857Y-40952380D01*
X143785714Y-41000000D01*
X143833333Y-41047619D01*
X144690476Y-41285714D02*
X144690476Y-41952380D01*
X144452380Y-40904761D02*
X144214285Y-41619047D01*
X144833333Y-41619047D01*
X147833333Y-96357142D02*
X147785714Y-96404761D01*
X147642857Y-96452380D01*
X147547619Y-96452380D01*
X147404761Y-96404761D01*
X147309523Y-96309523D01*
X147261904Y-96214285D01*
X147214285Y-96023809D01*
X147214285Y-95880952D01*
X147261904Y-95690476D01*
X147309523Y-95595238D01*
X147404761Y-95500000D01*
X147547619Y-95452380D01*
X147642857Y-95452380D01*
X147785714Y-95500000D01*
X147833333Y-95547619D01*
X148738095Y-95452380D02*
X148261904Y-95452380D01*
X148214285Y-95928571D01*
X148261904Y-95880952D01*
X148357142Y-95833333D01*
X148595238Y-95833333D01*
X148690476Y-95880952D01*
X148738095Y-95928571D01*
X148785714Y-96023809D01*
X148785714Y-96261904D01*
X148738095Y-96357142D01*
X148690476Y-96404761D01*
X148595238Y-96452380D01*
X148357142Y-96452380D01*
X148261904Y-96404761D01*
X148214285Y-96357142D01*
X135333333Y-49357142D02*
X135285714Y-49404761D01*
X135142857Y-49452380D01*
X135047619Y-49452380D01*
X134904761Y-49404761D01*
X134809523Y-49309523D01*
X134761904Y-49214285D01*
X134714285Y-49023809D01*
X134714285Y-48880952D01*
X134761904Y-48690476D01*
X134809523Y-48595238D01*
X134904761Y-48500000D01*
X135047619Y-48452380D01*
X135142857Y-48452380D01*
X135285714Y-48500000D01*
X135333333Y-48547619D01*
X136190476Y-48452380D02*
X136000000Y-48452380D01*
X135904761Y-48500000D01*
X135857142Y-48547619D01*
X135761904Y-48690476D01*
X135714285Y-48880952D01*
X135714285Y-49261904D01*
X135761904Y-49357142D01*
X135809523Y-49404761D01*
X135904761Y-49452380D01*
X136095238Y-49452380D01*
X136190476Y-49404761D01*
X136238095Y-49357142D01*
X136285714Y-49261904D01*
X136285714Y-49023809D01*
X136238095Y-48928571D01*
X136190476Y-48880952D01*
X136095238Y-48833333D01*
X135904761Y-48833333D01*
X135809523Y-48880952D01*
X135761904Y-48928571D01*
X135714285Y-49023809D01*
X165333333Y-95857142D02*
X165285714Y-95904761D01*
X165142857Y-95952380D01*
X165047619Y-95952380D01*
X164904761Y-95904761D01*
X164809523Y-95809523D01*
X164761904Y-95714285D01*
X164714285Y-95523809D01*
X164714285Y-95380952D01*
X164761904Y-95190476D01*
X164809523Y-95095238D01*
X164904761Y-95000000D01*
X165047619Y-94952380D01*
X165142857Y-94952380D01*
X165285714Y-95000000D01*
X165333333Y-95047619D01*
X165666666Y-94952380D02*
X166333333Y-94952380D01*
X165904761Y-95952380D01*
X199833333Y-64857142D02*
X199785714Y-64904761D01*
X199642857Y-64952380D01*
X199547619Y-64952380D01*
X199404761Y-64904761D01*
X199309523Y-64809523D01*
X199261904Y-64714285D01*
X199214285Y-64523809D01*
X199214285Y-64380952D01*
X199261904Y-64190476D01*
X199309523Y-64095238D01*
X199404761Y-64000000D01*
X199547619Y-63952380D01*
X199642857Y-63952380D01*
X199785714Y-64000000D01*
X199833333Y-64047619D01*
X200404761Y-64380952D02*
X200309523Y-64333333D01*
X200261904Y-64285714D01*
X200214285Y-64190476D01*
X200214285Y-64142857D01*
X200261904Y-64047619D01*
X200309523Y-64000000D01*
X200404761Y-63952380D01*
X200595238Y-63952380D01*
X200690476Y-64000000D01*
X200738095Y-64047619D01*
X200785714Y-64142857D01*
X200785714Y-64190476D01*
X200738095Y-64285714D01*
X200690476Y-64333333D01*
X200595238Y-64380952D01*
X200404761Y-64380952D01*
X200309523Y-64428571D01*
X200261904Y-64476190D01*
X200214285Y-64571428D01*
X200214285Y-64761904D01*
X200261904Y-64857142D01*
X200309523Y-64904761D01*
X200404761Y-64952380D01*
X200595238Y-64952380D01*
X200690476Y-64904761D01*
X200738095Y-64857142D01*
X200785714Y-64761904D01*
X200785714Y-64571428D01*
X200738095Y-64476190D01*
X200690476Y-64428571D01*
X200595238Y-64380952D01*
X167333333Y-67357142D02*
X167285714Y-67404761D01*
X167142857Y-67452380D01*
X167047619Y-67452380D01*
X166904761Y-67404761D01*
X166809523Y-67309523D01*
X166761904Y-67214285D01*
X166714285Y-67023809D01*
X166714285Y-66880952D01*
X166761904Y-66690476D01*
X166809523Y-66595238D01*
X166904761Y-66500000D01*
X167047619Y-66452380D01*
X167142857Y-66452380D01*
X167285714Y-66500000D01*
X167333333Y-66547619D01*
X167809523Y-67452380D02*
X168000000Y-67452380D01*
X168095238Y-67404761D01*
X168142857Y-67357142D01*
X168238095Y-67214285D01*
X168285714Y-67023809D01*
X168285714Y-66642857D01*
X168238095Y-66547619D01*
X168190476Y-66500000D01*
X168095238Y-66452380D01*
X167904761Y-66452380D01*
X167809523Y-66500000D01*
X167761904Y-66547619D01*
X167714285Y-66642857D01*
X167714285Y-66880952D01*
X167761904Y-66976190D01*
X167809523Y-67023809D01*
X167904761Y-67071428D01*
X168095238Y-67071428D01*
X168190476Y-67023809D01*
X168238095Y-66976190D01*
X168285714Y-66880952D01*
X178857142Y-47357142D02*
X178809523Y-47404761D01*
X178666666Y-47452380D01*
X178571428Y-47452380D01*
X178428571Y-47404761D01*
X178333333Y-47309523D01*
X178285714Y-47214285D01*
X178238095Y-47023809D01*
X178238095Y-46880952D01*
X178285714Y-46690476D01*
X178333333Y-46595238D01*
X178428571Y-46500000D01*
X178571428Y-46452380D01*
X178666666Y-46452380D01*
X178809523Y-46500000D01*
X178857142Y-46547619D01*
X179809523Y-47452380D02*
X179238095Y-47452380D01*
X179523809Y-47452380D02*
X179523809Y-46452380D01*
X179428571Y-46595238D01*
X179333333Y-46690476D01*
X179238095Y-46738095D01*
X180428571Y-46452380D02*
X180523809Y-46452380D01*
X180619047Y-46500000D01*
X180666666Y-46547619D01*
X180714285Y-46642857D01*
X180761904Y-46833333D01*
X180761904Y-47071428D01*
X180714285Y-47261904D01*
X180666666Y-47357142D01*
X180619047Y-47404761D01*
X180523809Y-47452380D01*
X180428571Y-47452380D01*
X180333333Y-47404761D01*
X180285714Y-47357142D01*
X180238095Y-47261904D01*
X180190476Y-47071428D01*
X180190476Y-46833333D01*
X180238095Y-46642857D01*
X180285714Y-46547619D01*
X180333333Y-46500000D01*
X180428571Y-46452380D01*
X119357142Y-100142857D02*
X119404761Y-100190476D01*
X119452380Y-100333333D01*
X119452380Y-100428571D01*
X119404761Y-100571428D01*
X119309523Y-100666666D01*
X119214285Y-100714285D01*
X119023809Y-100761904D01*
X118880952Y-100761904D01*
X118690476Y-100714285D01*
X118595238Y-100666666D01*
X118500000Y-100571428D01*
X118452380Y-100428571D01*
X118452380Y-100333333D01*
X118500000Y-100190476D01*
X118547619Y-100142857D01*
X119452380Y-99190476D02*
X119452380Y-99761904D01*
X119452380Y-99476190D02*
X118452380Y-99476190D01*
X118595238Y-99571428D01*
X118690476Y-99666666D01*
X118738095Y-99761904D01*
X119452380Y-98238095D02*
X119452380Y-98809523D01*
X119452380Y-98523809D02*
X118452380Y-98523809D01*
X118595238Y-98619047D01*
X118690476Y-98714285D01*
X118738095Y-98809523D01*
X148357142Y-62557142D02*
X148309523Y-62604761D01*
X148166666Y-62652380D01*
X148071428Y-62652380D01*
X147928571Y-62604761D01*
X147833333Y-62509523D01*
X147785714Y-62414285D01*
X147738095Y-62223809D01*
X147738095Y-62080952D01*
X147785714Y-61890476D01*
X147833333Y-61795238D01*
X147928571Y-61700000D01*
X148071428Y-61652380D01*
X148166666Y-61652380D01*
X148309523Y-61700000D01*
X148357142Y-61747619D01*
X149309523Y-62652380D02*
X148738095Y-62652380D01*
X149023809Y-62652380D02*
X149023809Y-61652380D01*
X148928571Y-61795238D01*
X148833333Y-61890476D01*
X148738095Y-61938095D01*
X149690476Y-61747619D02*
X149738095Y-61700000D01*
X149833333Y-61652380D01*
X150071428Y-61652380D01*
X150166666Y-61700000D01*
X150214285Y-61747619D01*
X150261904Y-61842857D01*
X150261904Y-61938095D01*
X150214285Y-62080952D01*
X149642857Y-62652380D01*
X150261904Y-62652380D01*
X159357142Y-61857142D02*
X159309523Y-61904761D01*
X159166666Y-61952380D01*
X159071428Y-61952380D01*
X158928571Y-61904761D01*
X158833333Y-61809523D01*
X158785714Y-61714285D01*
X158738095Y-61523809D01*
X158738095Y-61380952D01*
X158785714Y-61190476D01*
X158833333Y-61095238D01*
X158928571Y-61000000D01*
X159071428Y-60952380D01*
X159166666Y-60952380D01*
X159309523Y-61000000D01*
X159357142Y-61047619D01*
X160309523Y-61952380D02*
X159738095Y-61952380D01*
X160023809Y-61952380D02*
X160023809Y-60952380D01*
X159928571Y-61095238D01*
X159833333Y-61190476D01*
X159738095Y-61238095D01*
X160642857Y-60952380D02*
X161261904Y-60952380D01*
X160928571Y-61333333D01*
X161071428Y-61333333D01*
X161166666Y-61380952D01*
X161214285Y-61428571D01*
X161261904Y-61523809D01*
X161261904Y-61761904D01*
X161214285Y-61857142D01*
X161166666Y-61904761D01*
X161071428Y-61952380D01*
X160785714Y-61952380D01*
X160690476Y-61904761D01*
X160642857Y-61857142D01*
X135857142Y-89142857D02*
X135904761Y-89190476D01*
X135952380Y-89333333D01*
X135952380Y-89428571D01*
X135904761Y-89571428D01*
X135809523Y-89666666D01*
X135714285Y-89714285D01*
X135523809Y-89761904D01*
X135380952Y-89761904D01*
X135190476Y-89714285D01*
X135095238Y-89666666D01*
X135000000Y-89571428D01*
X134952380Y-89428571D01*
X134952380Y-89333333D01*
X135000000Y-89190476D01*
X135047619Y-89142857D01*
X135952380Y-88190476D02*
X135952380Y-88761904D01*
X135952380Y-88476190D02*
X134952380Y-88476190D01*
X135095238Y-88571428D01*
X135190476Y-88666666D01*
X135238095Y-88761904D01*
X135285714Y-87333333D02*
X135952380Y-87333333D01*
X134904761Y-87571428D02*
X135619047Y-87809523D01*
X135619047Y-87190476D01*
X186857142Y-89142857D02*
X186904761Y-89190476D01*
X186952380Y-89333333D01*
X186952380Y-89428571D01*
X186904761Y-89571428D01*
X186809523Y-89666666D01*
X186714285Y-89714285D01*
X186523809Y-89761904D01*
X186380952Y-89761904D01*
X186190476Y-89714285D01*
X186095238Y-89666666D01*
X186000000Y-89571428D01*
X185952380Y-89428571D01*
X185952380Y-89333333D01*
X186000000Y-89190476D01*
X186047619Y-89142857D01*
X186952380Y-88190476D02*
X186952380Y-88761904D01*
X186952380Y-88476190D02*
X185952380Y-88476190D01*
X186095238Y-88571428D01*
X186190476Y-88666666D01*
X186238095Y-88761904D01*
X185952380Y-87285714D02*
X185952380Y-87761904D01*
X186428571Y-87809523D01*
X186380952Y-87761904D01*
X186333333Y-87666666D01*
X186333333Y-87428571D01*
X186380952Y-87333333D01*
X186428571Y-87285714D01*
X186523809Y-87238095D01*
X186761904Y-87238095D01*
X186857142Y-87285714D01*
X186904761Y-87333333D01*
X186952380Y-87428571D01*
X186952380Y-87666666D01*
X186904761Y-87761904D01*
X186857142Y-87809523D01*
X135857142Y-117357142D02*
X135809523Y-117404761D01*
X135666666Y-117452380D01*
X135571428Y-117452380D01*
X135428571Y-117404761D01*
X135333333Y-117309523D01*
X135285714Y-117214285D01*
X135238095Y-117023809D01*
X135238095Y-116880952D01*
X135285714Y-116690476D01*
X135333333Y-116595238D01*
X135428571Y-116500000D01*
X135571428Y-116452380D01*
X135666666Y-116452380D01*
X135809523Y-116500000D01*
X135857142Y-116547619D01*
X136809523Y-117452380D02*
X136238095Y-117452380D01*
X136523809Y-117452380D02*
X136523809Y-116452380D01*
X136428571Y-116595238D01*
X136333333Y-116690476D01*
X136238095Y-116738095D01*
X137666666Y-116452380D02*
X137476190Y-116452380D01*
X137380952Y-116500000D01*
X137333333Y-116547619D01*
X137238095Y-116690476D01*
X137190476Y-116880952D01*
X137190476Y-117261904D01*
X137238095Y-117357142D01*
X137285714Y-117404761D01*
X137380952Y-117452380D01*
X137571428Y-117452380D01*
X137666666Y-117404761D01*
X137714285Y-117357142D01*
X137761904Y-117261904D01*
X137761904Y-117023809D01*
X137714285Y-116928571D01*
X137666666Y-116880952D01*
X137571428Y-116833333D01*
X137380952Y-116833333D01*
X137285714Y-116880952D01*
X137238095Y-116928571D01*
X137190476Y-117023809D01*
X122357142Y-117357142D02*
X122309523Y-117404761D01*
X122166666Y-117452380D01*
X122071428Y-117452380D01*
X121928571Y-117404761D01*
X121833333Y-117309523D01*
X121785714Y-117214285D01*
X121738095Y-117023809D01*
X121738095Y-116880952D01*
X121785714Y-116690476D01*
X121833333Y-116595238D01*
X121928571Y-116500000D01*
X122071428Y-116452380D01*
X122166666Y-116452380D01*
X122309523Y-116500000D01*
X122357142Y-116547619D01*
X123309523Y-117452380D02*
X122738095Y-117452380D01*
X123023809Y-117452380D02*
X123023809Y-116452380D01*
X122928571Y-116595238D01*
X122833333Y-116690476D01*
X122738095Y-116738095D01*
X123642857Y-116452380D02*
X124309523Y-116452380D01*
X123880952Y-117452380D01*
X185857142Y-116857142D02*
X185809523Y-116904761D01*
X185666666Y-116952380D01*
X185571428Y-116952380D01*
X185428571Y-116904761D01*
X185333333Y-116809523D01*
X185285714Y-116714285D01*
X185238095Y-116523809D01*
X185238095Y-116380952D01*
X185285714Y-116190476D01*
X185333333Y-116095238D01*
X185428571Y-116000000D01*
X185571428Y-115952380D01*
X185666666Y-115952380D01*
X185809523Y-116000000D01*
X185857142Y-116047619D01*
X186809523Y-116952380D02*
X186238095Y-116952380D01*
X186523809Y-116952380D02*
X186523809Y-115952380D01*
X186428571Y-116095238D01*
X186333333Y-116190476D01*
X186238095Y-116238095D01*
X187380952Y-116380952D02*
X187285714Y-116333333D01*
X187238095Y-116285714D01*
X187190476Y-116190476D01*
X187190476Y-116142857D01*
X187238095Y-116047619D01*
X187285714Y-116000000D01*
X187380952Y-115952380D01*
X187571428Y-115952380D01*
X187666666Y-116000000D01*
X187714285Y-116047619D01*
X187761904Y-116142857D01*
X187761904Y-116190476D01*
X187714285Y-116285714D01*
X187666666Y-116333333D01*
X187571428Y-116380952D01*
X187380952Y-116380952D01*
X187285714Y-116428571D01*
X187238095Y-116476190D01*
X187190476Y-116571428D01*
X187190476Y-116761904D01*
X187238095Y-116857142D01*
X187285714Y-116904761D01*
X187380952Y-116952380D01*
X187571428Y-116952380D01*
X187666666Y-116904761D01*
X187714285Y-116857142D01*
X187761904Y-116761904D01*
X187761904Y-116571428D01*
X187714285Y-116476190D01*
X187666666Y-116428571D01*
X187571428Y-116380952D01*
X172857142Y-116857142D02*
X172809523Y-116904761D01*
X172666666Y-116952380D01*
X172571428Y-116952380D01*
X172428571Y-116904761D01*
X172333333Y-116809523D01*
X172285714Y-116714285D01*
X172238095Y-116523809D01*
X172238095Y-116380952D01*
X172285714Y-116190476D01*
X172333333Y-116095238D01*
X172428571Y-116000000D01*
X172571428Y-115952380D01*
X172666666Y-115952380D01*
X172809523Y-116000000D01*
X172857142Y-116047619D01*
X173809523Y-116952380D02*
X173238095Y-116952380D01*
X173523809Y-116952380D02*
X173523809Y-115952380D01*
X173428571Y-116095238D01*
X173333333Y-116190476D01*
X173238095Y-116238095D01*
X174285714Y-116952380D02*
X174476190Y-116952380D01*
X174571428Y-116904761D01*
X174619047Y-116857142D01*
X174714285Y-116714285D01*
X174761904Y-116523809D01*
X174761904Y-116142857D01*
X174714285Y-116047619D01*
X174666666Y-116000000D01*
X174571428Y-115952380D01*
X174380952Y-115952380D01*
X174285714Y-116000000D01*
X174238095Y-116047619D01*
X174190476Y-116142857D01*
X174190476Y-116380952D01*
X174238095Y-116476190D01*
X174285714Y-116523809D01*
X174380952Y-116571428D01*
X174571428Y-116571428D01*
X174666666Y-116523809D01*
X174714285Y-116476190D01*
X174761904Y-116380952D01*
X118952380Y-67038095D02*
X117952380Y-67038095D01*
X117952380Y-66800000D01*
X118000000Y-66657142D01*
X118095238Y-66561904D01*
X118190476Y-66514285D01*
X118380952Y-66466666D01*
X118523809Y-66466666D01*
X118714285Y-66514285D01*
X118809523Y-66561904D01*
X118904761Y-66657142D01*
X118952380Y-66800000D01*
X118952380Y-67038095D01*
X118952380Y-65514285D02*
X118952380Y-66085714D01*
X118952380Y-65800000D02*
X117952380Y-65800000D01*
X118095238Y-65895238D01*
X118190476Y-65990476D01*
X118238095Y-66085714D01*
X116852380Y-70761904D02*
X115852380Y-70761904D01*
X116852380Y-70190476D02*
X116280952Y-70619047D01*
X115852380Y-70190476D02*
X116423809Y-70761904D01*
X147802380Y-36883333D02*
X148516666Y-36883333D01*
X148659523Y-36930952D01*
X148754761Y-37026190D01*
X148802380Y-37169047D01*
X148802380Y-37264285D01*
X148135714Y-35978571D02*
X148802380Y-35978571D01*
X147754761Y-36216666D02*
X148469047Y-36454761D01*
X148469047Y-35835714D01*
X192622380Y-87833333D02*
X193336666Y-87833333D01*
X193479523Y-87880952D01*
X193574761Y-87976190D01*
X193622380Y-88119047D01*
X193622380Y-88214285D01*
X192622380Y-86880952D02*
X192622380Y-87357142D01*
X193098571Y-87404761D01*
X193050952Y-87357142D01*
X193003333Y-87261904D01*
X193003333Y-87023809D01*
X193050952Y-86928571D01*
X193098571Y-86880952D01*
X193193809Y-86833333D01*
X193431904Y-86833333D01*
X193527142Y-86880952D01*
X193574761Y-86928571D01*
X193622380Y-87023809D01*
X193622380Y-87261904D01*
X193574761Y-87357142D01*
X193527142Y-87404761D01*
X194904761Y-36547619D02*
X194809523Y-36500000D01*
X194714285Y-36404761D01*
X194571428Y-36261904D01*
X194476190Y-36214285D01*
X194380952Y-36214285D01*
X194428571Y-36452380D02*
X194333333Y-36404761D01*
X194238095Y-36309523D01*
X194190476Y-36119047D01*
X194190476Y-35785714D01*
X194238095Y-35595238D01*
X194333333Y-35500000D01*
X194428571Y-35452380D01*
X194619047Y-35452380D01*
X194714285Y-35500000D01*
X194809523Y-35595238D01*
X194857142Y-35785714D01*
X194857142Y-36119047D01*
X194809523Y-36309523D01*
X194714285Y-36404761D01*
X194619047Y-36452380D01*
X194428571Y-36452380D01*
X195809523Y-36452380D02*
X195238095Y-36452380D01*
X195523809Y-36452380D02*
X195523809Y-35452380D01*
X195428571Y-35595238D01*
X195333333Y-35690476D01*
X195238095Y-35738095D01*
X110643333Y-98452380D02*
X110310000Y-97976190D01*
X110071904Y-98452380D02*
X110071904Y-97452380D01*
X110452857Y-97452380D01*
X110548095Y-97500000D01*
X110595714Y-97547619D01*
X110643333Y-97642857D01*
X110643333Y-97785714D01*
X110595714Y-97880952D01*
X110548095Y-97928571D01*
X110452857Y-97976190D01*
X110071904Y-97976190D01*
X111595714Y-98452380D02*
X111024285Y-98452380D01*
X111310000Y-98452380D02*
X111310000Y-97452380D01*
X111214761Y-97595238D01*
X111119523Y-97690476D01*
X111024285Y-97738095D01*
X123452380Y-101356666D02*
X122976190Y-101690000D01*
X123452380Y-101928095D02*
X122452380Y-101928095D01*
X122452380Y-101547142D01*
X122500000Y-101451904D01*
X122547619Y-101404285D01*
X122642857Y-101356666D01*
X122785714Y-101356666D01*
X122880952Y-101404285D01*
X122928571Y-101451904D01*
X122976190Y-101547142D01*
X122976190Y-101928095D01*
X122547619Y-100975714D02*
X122500000Y-100928095D01*
X122452380Y-100832857D01*
X122452380Y-100594761D01*
X122500000Y-100499523D01*
X122547619Y-100451904D01*
X122642857Y-100404285D01*
X122738095Y-100404285D01*
X122880952Y-100451904D01*
X123452380Y-101023333D01*
X123452380Y-100404285D01*
X188523333Y-46952380D02*
X188190000Y-46476190D01*
X187951904Y-46952380D02*
X187951904Y-45952380D01*
X188332857Y-45952380D01*
X188428095Y-46000000D01*
X188475714Y-46047619D01*
X188523333Y-46142857D01*
X188523333Y-46285714D01*
X188475714Y-46380952D01*
X188428095Y-46428571D01*
X188332857Y-46476190D01*
X187951904Y-46476190D01*
X188856666Y-45952380D02*
X189475714Y-45952380D01*
X189142380Y-46333333D01*
X189285238Y-46333333D01*
X189380476Y-46380952D01*
X189428095Y-46428571D01*
X189475714Y-46523809D01*
X189475714Y-46761904D01*
X189428095Y-46857142D01*
X189380476Y-46904761D01*
X189285238Y-46952380D01*
X188999523Y-46952380D01*
X188904285Y-46904761D01*
X188856666Y-46857142D01*
X199023333Y-46952380D02*
X198690000Y-46476190D01*
X198451904Y-46952380D02*
X198451904Y-45952380D01*
X198832857Y-45952380D01*
X198928095Y-46000000D01*
X198975714Y-46047619D01*
X199023333Y-46142857D01*
X199023333Y-46285714D01*
X198975714Y-46380952D01*
X198928095Y-46428571D01*
X198832857Y-46476190D01*
X198451904Y-46476190D01*
X199880476Y-46285714D02*
X199880476Y-46952380D01*
X199642380Y-45904761D02*
X199404285Y-46619047D01*
X200023333Y-46619047D01*
X188643333Y-42952380D02*
X188310000Y-42476190D01*
X188071904Y-42952380D02*
X188071904Y-41952380D01*
X188452857Y-41952380D01*
X188548095Y-42000000D01*
X188595714Y-42047619D01*
X188643333Y-42142857D01*
X188643333Y-42285714D01*
X188595714Y-42380952D01*
X188548095Y-42428571D01*
X188452857Y-42476190D01*
X188071904Y-42476190D01*
X189548095Y-41952380D02*
X189071904Y-41952380D01*
X189024285Y-42428571D01*
X189071904Y-42380952D01*
X189167142Y-42333333D01*
X189405238Y-42333333D01*
X189500476Y-42380952D01*
X189548095Y-42428571D01*
X189595714Y-42523809D01*
X189595714Y-42761904D01*
X189548095Y-42857142D01*
X189500476Y-42904761D01*
X189405238Y-42952380D01*
X189167142Y-42952380D01*
X189071904Y-42904761D01*
X189024285Y-42857142D01*
X110643333Y-63452380D02*
X110310000Y-62976190D01*
X110071904Y-63452380D02*
X110071904Y-62452380D01*
X110452857Y-62452380D01*
X110548095Y-62500000D01*
X110595714Y-62547619D01*
X110643333Y-62642857D01*
X110643333Y-62785714D01*
X110595714Y-62880952D01*
X110548095Y-62928571D01*
X110452857Y-62976190D01*
X110071904Y-62976190D01*
X111500476Y-62452380D02*
X111310000Y-62452380D01*
X111214761Y-62500000D01*
X111167142Y-62547619D01*
X111071904Y-62690476D01*
X111024285Y-62880952D01*
X111024285Y-63261904D01*
X111071904Y-63357142D01*
X111119523Y-63404761D01*
X111214761Y-63452380D01*
X111405238Y-63452380D01*
X111500476Y-63404761D01*
X111548095Y-63357142D01*
X111595714Y-63261904D01*
X111595714Y-63023809D01*
X111548095Y-62928571D01*
X111500476Y-62880952D01*
X111405238Y-62833333D01*
X111214761Y-62833333D01*
X111119523Y-62880952D01*
X111071904Y-62928571D01*
X111024285Y-63023809D01*
X110643333Y-70952380D02*
X110310000Y-70476190D01*
X110071904Y-70952380D02*
X110071904Y-69952380D01*
X110452857Y-69952380D01*
X110548095Y-70000000D01*
X110595714Y-70047619D01*
X110643333Y-70142857D01*
X110643333Y-70285714D01*
X110595714Y-70380952D01*
X110548095Y-70428571D01*
X110452857Y-70476190D01*
X110071904Y-70476190D01*
X110976666Y-69952380D02*
X111643333Y-69952380D01*
X111214761Y-70952380D01*
X134643333Y-44452380D02*
X134310000Y-43976190D01*
X134071904Y-44452380D02*
X134071904Y-43452380D01*
X134452857Y-43452380D01*
X134548095Y-43500000D01*
X134595714Y-43547619D01*
X134643333Y-43642857D01*
X134643333Y-43785714D01*
X134595714Y-43880952D01*
X134548095Y-43928571D01*
X134452857Y-43976190D01*
X134071904Y-43976190D01*
X135214761Y-43880952D02*
X135119523Y-43833333D01*
X135071904Y-43785714D01*
X135024285Y-43690476D01*
X135024285Y-43642857D01*
X135071904Y-43547619D01*
X135119523Y-43500000D01*
X135214761Y-43452380D01*
X135405238Y-43452380D01*
X135500476Y-43500000D01*
X135548095Y-43547619D01*
X135595714Y-43642857D01*
X135595714Y-43690476D01*
X135548095Y-43785714D01*
X135500476Y-43833333D01*
X135405238Y-43880952D01*
X135214761Y-43880952D01*
X135119523Y-43928571D01*
X135071904Y-43976190D01*
X135024285Y-44071428D01*
X135024285Y-44261904D01*
X135071904Y-44357142D01*
X135119523Y-44404761D01*
X135214761Y-44452380D01*
X135405238Y-44452380D01*
X135500476Y-44404761D01*
X135548095Y-44357142D01*
X135595714Y-44261904D01*
X135595714Y-44071428D01*
X135548095Y-43976190D01*
X135500476Y-43928571D01*
X135405238Y-43880952D01*
X147643333Y-51652380D02*
X147310000Y-51176190D01*
X147071904Y-51652380D02*
X147071904Y-50652380D01*
X147452857Y-50652380D01*
X147548095Y-50700000D01*
X147595714Y-50747619D01*
X147643333Y-50842857D01*
X147643333Y-50985714D01*
X147595714Y-51080952D01*
X147548095Y-51128571D01*
X147452857Y-51176190D01*
X147071904Y-51176190D01*
X148119523Y-51652380D02*
X148310000Y-51652380D01*
X148405238Y-51604761D01*
X148452857Y-51557142D01*
X148548095Y-51414285D01*
X148595714Y-51223809D01*
X148595714Y-50842857D01*
X148548095Y-50747619D01*
X148500476Y-50700000D01*
X148405238Y-50652380D01*
X148214761Y-50652380D01*
X148119523Y-50700000D01*
X148071904Y-50747619D01*
X148024285Y-50842857D01*
X148024285Y-51080952D01*
X148071904Y-51176190D01*
X148119523Y-51223809D01*
X148214761Y-51271428D01*
X148405238Y-51271428D01*
X148500476Y-51223809D01*
X148548095Y-51176190D01*
X148595714Y-51080952D01*
X146857142Y-55152380D02*
X146523809Y-54676190D01*
X146285714Y-55152380D02*
X146285714Y-54152380D01*
X146666666Y-54152380D01*
X146761904Y-54200000D01*
X146809523Y-54247619D01*
X146857142Y-54342857D01*
X146857142Y-54485714D01*
X146809523Y-54580952D01*
X146761904Y-54628571D01*
X146666666Y-54676190D01*
X146285714Y-54676190D01*
X147809523Y-55152380D02*
X147238095Y-55152380D01*
X147523809Y-55152380D02*
X147523809Y-54152380D01*
X147428571Y-54295238D01*
X147333333Y-54390476D01*
X147238095Y-54438095D01*
X148428571Y-54152380D02*
X148523809Y-54152380D01*
X148619047Y-54200000D01*
X148666666Y-54247619D01*
X148714285Y-54342857D01*
X148761904Y-54533333D01*
X148761904Y-54771428D01*
X148714285Y-54961904D01*
X148666666Y-55057142D01*
X148619047Y-55104761D01*
X148523809Y-55152380D01*
X148428571Y-55152380D01*
X148333333Y-55104761D01*
X148285714Y-55057142D01*
X148238095Y-54961904D01*
X148190476Y-54771428D01*
X148190476Y-54533333D01*
X148238095Y-54342857D01*
X148285714Y-54247619D01*
X148333333Y-54200000D01*
X148428571Y-54152380D01*
X147167142Y-58652380D02*
X146833809Y-58176190D01*
X146595714Y-58652380D02*
X146595714Y-57652380D01*
X146976666Y-57652380D01*
X147071904Y-57700000D01*
X147119523Y-57747619D01*
X147167142Y-57842857D01*
X147167142Y-57985714D01*
X147119523Y-58080952D01*
X147071904Y-58128571D01*
X146976666Y-58176190D01*
X146595714Y-58176190D01*
X148119523Y-58652380D02*
X147548095Y-58652380D01*
X147833809Y-58652380D02*
X147833809Y-57652380D01*
X147738571Y-57795238D01*
X147643333Y-57890476D01*
X147548095Y-57938095D01*
X149071904Y-58652380D02*
X148500476Y-58652380D01*
X148786190Y-58652380D02*
X148786190Y-57652380D01*
X148690952Y-57795238D01*
X148595714Y-57890476D01*
X148500476Y-57938095D01*
X160547142Y-50952380D02*
X160213809Y-50476190D01*
X159975714Y-50952380D02*
X159975714Y-49952380D01*
X160356666Y-49952380D01*
X160451904Y-50000000D01*
X160499523Y-50047619D01*
X160547142Y-50142857D01*
X160547142Y-50285714D01*
X160499523Y-50380952D01*
X160451904Y-50428571D01*
X160356666Y-50476190D01*
X159975714Y-50476190D01*
X161499523Y-50952380D02*
X160928095Y-50952380D01*
X161213809Y-50952380D02*
X161213809Y-49952380D01*
X161118571Y-50095238D01*
X161023333Y-50190476D01*
X160928095Y-50238095D01*
X161880476Y-50047619D02*
X161928095Y-50000000D01*
X162023333Y-49952380D01*
X162261428Y-49952380D01*
X162356666Y-50000000D01*
X162404285Y-50047619D01*
X162451904Y-50142857D01*
X162451904Y-50238095D01*
X162404285Y-50380952D01*
X161832857Y-50952380D01*
X162451904Y-50952380D01*
X160667142Y-57952380D02*
X160333809Y-57476190D01*
X160095714Y-57952380D02*
X160095714Y-56952380D01*
X160476666Y-56952380D01*
X160571904Y-57000000D01*
X160619523Y-57047619D01*
X160667142Y-57142857D01*
X160667142Y-57285714D01*
X160619523Y-57380952D01*
X160571904Y-57428571D01*
X160476666Y-57476190D01*
X160095714Y-57476190D01*
X161619523Y-57952380D02*
X161048095Y-57952380D01*
X161333809Y-57952380D02*
X161333809Y-56952380D01*
X161238571Y-57095238D01*
X161143333Y-57190476D01*
X161048095Y-57238095D01*
X161952857Y-56952380D02*
X162571904Y-56952380D01*
X162238571Y-57333333D01*
X162381428Y-57333333D01*
X162476666Y-57380952D01*
X162524285Y-57428571D01*
X162571904Y-57523809D01*
X162571904Y-57761904D01*
X162524285Y-57857142D01*
X162476666Y-57904761D01*
X162381428Y-57952380D01*
X162095714Y-57952380D01*
X162000476Y-57904761D01*
X161952857Y-57857142D01*
X160667142Y-54452380D02*
X160333809Y-53976190D01*
X160095714Y-54452380D02*
X160095714Y-53452380D01*
X160476666Y-53452380D01*
X160571904Y-53500000D01*
X160619523Y-53547619D01*
X160667142Y-53642857D01*
X160667142Y-53785714D01*
X160619523Y-53880952D01*
X160571904Y-53928571D01*
X160476666Y-53976190D01*
X160095714Y-53976190D01*
X161619523Y-54452380D02*
X161048095Y-54452380D01*
X161333809Y-54452380D02*
X161333809Y-53452380D01*
X161238571Y-53595238D01*
X161143333Y-53690476D01*
X161048095Y-53738095D01*
X162476666Y-53785714D02*
X162476666Y-54452380D01*
X162238571Y-53404761D02*
X162000476Y-54119047D01*
X162619523Y-54119047D01*
X151452380Y-75942857D02*
X150976190Y-76276190D01*
X151452380Y-76514285D02*
X150452380Y-76514285D01*
X150452380Y-76133333D01*
X150500000Y-76038095D01*
X150547619Y-75990476D01*
X150642857Y-75942857D01*
X150785714Y-75942857D01*
X150880952Y-75990476D01*
X150928571Y-76038095D01*
X150976190Y-76133333D01*
X150976190Y-76514285D01*
X151452380Y-74990476D02*
X151452380Y-75561904D01*
X151452380Y-75276190D02*
X150452380Y-75276190D01*
X150595238Y-75371428D01*
X150690476Y-75466666D01*
X150738095Y-75561904D01*
X150452380Y-74085714D02*
X150452380Y-74561904D01*
X150928571Y-74609523D01*
X150880952Y-74561904D01*
X150833333Y-74466666D01*
X150833333Y-74228571D01*
X150880952Y-74133333D01*
X150928571Y-74085714D01*
X151023809Y-74038095D01*
X151261904Y-74038095D01*
X151357142Y-74085714D01*
X151404761Y-74133333D01*
X151452380Y-74228571D01*
X151452380Y-74466666D01*
X151404761Y-74561904D01*
X151357142Y-74609523D01*
X128167142Y-90952380D02*
X127833809Y-90476190D01*
X127595714Y-90952380D02*
X127595714Y-89952380D01*
X127976666Y-89952380D01*
X128071904Y-90000000D01*
X128119523Y-90047619D01*
X128167142Y-90142857D01*
X128167142Y-90285714D01*
X128119523Y-90380952D01*
X128071904Y-90428571D01*
X127976666Y-90476190D01*
X127595714Y-90476190D01*
X129119523Y-90952380D02*
X128548095Y-90952380D01*
X128833809Y-90952380D02*
X128833809Y-89952380D01*
X128738571Y-90095238D01*
X128643333Y-90190476D01*
X128548095Y-90238095D01*
X129976666Y-89952380D02*
X129786190Y-89952380D01*
X129690952Y-90000000D01*
X129643333Y-90047619D01*
X129548095Y-90190476D01*
X129500476Y-90380952D01*
X129500476Y-90761904D01*
X129548095Y-90857142D01*
X129595714Y-90904761D01*
X129690952Y-90952380D01*
X129881428Y-90952380D01*
X129976666Y-90904761D01*
X130024285Y-90857142D01*
X130071904Y-90761904D01*
X130071904Y-90523809D01*
X130024285Y-90428571D01*
X129976666Y-90380952D01*
X129881428Y-90333333D01*
X129690952Y-90333333D01*
X129595714Y-90380952D01*
X129548095Y-90428571D01*
X129500476Y-90523809D01*
X128047142Y-86952380D02*
X127713809Y-86476190D01*
X127475714Y-86952380D02*
X127475714Y-85952380D01*
X127856666Y-85952380D01*
X127951904Y-86000000D01*
X127999523Y-86047619D01*
X128047142Y-86142857D01*
X128047142Y-86285714D01*
X127999523Y-86380952D01*
X127951904Y-86428571D01*
X127856666Y-86476190D01*
X127475714Y-86476190D01*
X128999523Y-86952380D02*
X128428095Y-86952380D01*
X128713809Y-86952380D02*
X128713809Y-85952380D01*
X128618571Y-86095238D01*
X128523333Y-86190476D01*
X128428095Y-86238095D01*
X129332857Y-85952380D02*
X129999523Y-85952380D01*
X129570952Y-86952380D01*
X128047142Y-94452380D02*
X127713809Y-93976190D01*
X127475714Y-94452380D02*
X127475714Y-93452380D01*
X127856666Y-93452380D01*
X127951904Y-93500000D01*
X127999523Y-93547619D01*
X128047142Y-93642857D01*
X128047142Y-93785714D01*
X127999523Y-93880952D01*
X127951904Y-93928571D01*
X127856666Y-93976190D01*
X127475714Y-93976190D01*
X128999523Y-94452380D02*
X128428095Y-94452380D01*
X128713809Y-94452380D02*
X128713809Y-93452380D01*
X128618571Y-93595238D01*
X128523333Y-93690476D01*
X128428095Y-93738095D01*
X129570952Y-93880952D02*
X129475714Y-93833333D01*
X129428095Y-93785714D01*
X129380476Y-93690476D01*
X129380476Y-93642857D01*
X129428095Y-93547619D01*
X129475714Y-93500000D01*
X129570952Y-93452380D01*
X129761428Y-93452380D01*
X129856666Y-93500000D01*
X129904285Y-93547619D01*
X129951904Y-93642857D01*
X129951904Y-93690476D01*
X129904285Y-93785714D01*
X129856666Y-93833333D01*
X129761428Y-93880952D01*
X129570952Y-93880952D01*
X129475714Y-93928571D01*
X129428095Y-93976190D01*
X129380476Y-94071428D01*
X129380476Y-94261904D01*
X129428095Y-94357142D01*
X129475714Y-94404761D01*
X129570952Y-94452380D01*
X129761428Y-94452380D01*
X129856666Y-94404761D01*
X129904285Y-94357142D01*
X129951904Y-94261904D01*
X129951904Y-94071428D01*
X129904285Y-93976190D01*
X129856666Y-93928571D01*
X129761428Y-93880952D01*
X155152380Y-75942857D02*
X154676190Y-76276190D01*
X155152380Y-76514285D02*
X154152380Y-76514285D01*
X154152380Y-76133333D01*
X154200000Y-76038095D01*
X154247619Y-75990476D01*
X154342857Y-75942857D01*
X154485714Y-75942857D01*
X154580952Y-75990476D01*
X154628571Y-76038095D01*
X154676190Y-76133333D01*
X154676190Y-76514285D01*
X155152380Y-74990476D02*
X155152380Y-75561904D01*
X155152380Y-75276190D02*
X154152380Y-75276190D01*
X154295238Y-75371428D01*
X154390476Y-75466666D01*
X154438095Y-75561904D01*
X155152380Y-74514285D02*
X155152380Y-74323809D01*
X155104761Y-74228571D01*
X155057142Y-74180952D01*
X154914285Y-74085714D01*
X154723809Y-74038095D01*
X154342857Y-74038095D01*
X154247619Y-74085714D01*
X154200000Y-74133333D01*
X154152380Y-74228571D01*
X154152380Y-74419047D01*
X154200000Y-74514285D01*
X154247619Y-74561904D01*
X154342857Y-74609523D01*
X154580952Y-74609523D01*
X154676190Y-74561904D01*
X154723809Y-74514285D01*
X154771428Y-74419047D01*
X154771428Y-74228571D01*
X154723809Y-74133333D01*
X154676190Y-74085714D01*
X154580952Y-74038095D01*
X178167142Y-90952380D02*
X177833809Y-90476190D01*
X177595714Y-90952380D02*
X177595714Y-89952380D01*
X177976666Y-89952380D01*
X178071904Y-90000000D01*
X178119523Y-90047619D01*
X178167142Y-90142857D01*
X178167142Y-90285714D01*
X178119523Y-90380952D01*
X178071904Y-90428571D01*
X177976666Y-90476190D01*
X177595714Y-90476190D01*
X178548095Y-90047619D02*
X178595714Y-90000000D01*
X178690952Y-89952380D01*
X178929047Y-89952380D01*
X179024285Y-90000000D01*
X179071904Y-90047619D01*
X179119523Y-90142857D01*
X179119523Y-90238095D01*
X179071904Y-90380952D01*
X178500476Y-90952380D01*
X179119523Y-90952380D01*
X179738571Y-89952380D02*
X179833809Y-89952380D01*
X179929047Y-90000000D01*
X179976666Y-90047619D01*
X180024285Y-90142857D01*
X180071904Y-90333333D01*
X180071904Y-90571428D01*
X180024285Y-90761904D01*
X179976666Y-90857142D01*
X179929047Y-90904761D01*
X179833809Y-90952380D01*
X179738571Y-90952380D01*
X179643333Y-90904761D01*
X179595714Y-90857142D01*
X179548095Y-90761904D01*
X179500476Y-90571428D01*
X179500476Y-90333333D01*
X179548095Y-90142857D01*
X179595714Y-90047619D01*
X179643333Y-90000000D01*
X179738571Y-89952380D01*
X178047142Y-86952380D02*
X177713809Y-86476190D01*
X177475714Y-86952380D02*
X177475714Y-85952380D01*
X177856666Y-85952380D01*
X177951904Y-86000000D01*
X177999523Y-86047619D01*
X178047142Y-86142857D01*
X178047142Y-86285714D01*
X177999523Y-86380952D01*
X177951904Y-86428571D01*
X177856666Y-86476190D01*
X177475714Y-86476190D01*
X178428095Y-86047619D02*
X178475714Y-86000000D01*
X178570952Y-85952380D01*
X178809047Y-85952380D01*
X178904285Y-86000000D01*
X178951904Y-86047619D01*
X178999523Y-86142857D01*
X178999523Y-86238095D01*
X178951904Y-86380952D01*
X178380476Y-86952380D01*
X178999523Y-86952380D01*
X179951904Y-86952380D02*
X179380476Y-86952380D01*
X179666190Y-86952380D02*
X179666190Y-85952380D01*
X179570952Y-86095238D01*
X179475714Y-86190476D01*
X179380476Y-86238095D01*
X178047142Y-94452380D02*
X177713809Y-93976190D01*
X177475714Y-94452380D02*
X177475714Y-93452380D01*
X177856666Y-93452380D01*
X177951904Y-93500000D01*
X177999523Y-93547619D01*
X178047142Y-93642857D01*
X178047142Y-93785714D01*
X177999523Y-93880952D01*
X177951904Y-93928571D01*
X177856666Y-93976190D01*
X177475714Y-93976190D01*
X178428095Y-93547619D02*
X178475714Y-93500000D01*
X178570952Y-93452380D01*
X178809047Y-93452380D01*
X178904285Y-93500000D01*
X178951904Y-93547619D01*
X178999523Y-93642857D01*
X178999523Y-93738095D01*
X178951904Y-93880952D01*
X178380476Y-94452380D01*
X178999523Y-94452380D01*
X179380476Y-93547619D02*
X179428095Y-93500000D01*
X179523333Y-93452380D01*
X179761428Y-93452380D01*
X179856666Y-93500000D01*
X179904285Y-93547619D01*
X179951904Y-93642857D01*
X179951904Y-93738095D01*
X179904285Y-93880952D01*
X179332857Y-94452380D01*
X179951904Y-94452380D01*
X131047142Y-103952380D02*
X130713809Y-103476190D01*
X130475714Y-103952380D02*
X130475714Y-102952380D01*
X130856666Y-102952380D01*
X130951904Y-103000000D01*
X130999523Y-103047619D01*
X131047142Y-103142857D01*
X131047142Y-103285714D01*
X130999523Y-103380952D01*
X130951904Y-103428571D01*
X130856666Y-103476190D01*
X130475714Y-103476190D01*
X131428095Y-103047619D02*
X131475714Y-103000000D01*
X131570952Y-102952380D01*
X131809047Y-102952380D01*
X131904285Y-103000000D01*
X131951904Y-103047619D01*
X131999523Y-103142857D01*
X131999523Y-103238095D01*
X131951904Y-103380952D01*
X131380476Y-103952380D01*
X131999523Y-103952380D01*
X132332857Y-102952380D02*
X132951904Y-102952380D01*
X132618571Y-103333333D01*
X132761428Y-103333333D01*
X132856666Y-103380952D01*
X132904285Y-103428571D01*
X132951904Y-103523809D01*
X132951904Y-103761904D01*
X132904285Y-103857142D01*
X132856666Y-103904761D01*
X132761428Y-103952380D01*
X132475714Y-103952380D01*
X132380476Y-103904761D01*
X132332857Y-103857142D01*
X130452380Y-119332857D02*
X129976190Y-119666190D01*
X130452380Y-119904285D02*
X129452380Y-119904285D01*
X129452380Y-119523333D01*
X129500000Y-119428095D01*
X129547619Y-119380476D01*
X129642857Y-119332857D01*
X129785714Y-119332857D01*
X129880952Y-119380476D01*
X129928571Y-119428095D01*
X129976190Y-119523333D01*
X129976190Y-119904285D01*
X129547619Y-118951904D02*
X129500000Y-118904285D01*
X129452380Y-118809047D01*
X129452380Y-118570952D01*
X129500000Y-118475714D01*
X129547619Y-118428095D01*
X129642857Y-118380476D01*
X129738095Y-118380476D01*
X129880952Y-118428095D01*
X130452380Y-118999523D01*
X130452380Y-118380476D01*
X129785714Y-117523333D02*
X130452380Y-117523333D01*
X129404761Y-117761428D02*
X130119047Y-117999523D01*
X130119047Y-117380476D01*
X130452380Y-129642857D02*
X129976190Y-129976190D01*
X130452380Y-130214285D02*
X129452380Y-130214285D01*
X129452380Y-129833333D01*
X129500000Y-129738095D01*
X129547619Y-129690476D01*
X129642857Y-129642857D01*
X129785714Y-129642857D01*
X129880952Y-129690476D01*
X129928571Y-129738095D01*
X129976190Y-129833333D01*
X129976190Y-130214285D01*
X129547619Y-129261904D02*
X129500000Y-129214285D01*
X129452380Y-129119047D01*
X129452380Y-128880952D01*
X129500000Y-128785714D01*
X129547619Y-128738095D01*
X129642857Y-128690476D01*
X129738095Y-128690476D01*
X129880952Y-128738095D01*
X130452380Y-129309523D01*
X130452380Y-128690476D01*
X129452380Y-127785714D02*
X129452380Y-128261904D01*
X129928571Y-128309523D01*
X129880952Y-128261904D01*
X129833333Y-128166666D01*
X129833333Y-127928571D01*
X129880952Y-127833333D01*
X129928571Y-127785714D01*
X130023809Y-127738095D01*
X130261904Y-127738095D01*
X130357142Y-127785714D01*
X130404761Y-127833333D01*
X130452380Y-127928571D01*
X130452380Y-128166666D01*
X130404761Y-128261904D01*
X130357142Y-128309523D01*
X139452380Y-92452857D02*
X138976190Y-92786190D01*
X139452380Y-93024285D02*
X138452380Y-93024285D01*
X138452380Y-92643333D01*
X138500000Y-92548095D01*
X138547619Y-92500476D01*
X138642857Y-92452857D01*
X138785714Y-92452857D01*
X138880952Y-92500476D01*
X138928571Y-92548095D01*
X138976190Y-92643333D01*
X138976190Y-93024285D01*
X138547619Y-92071904D02*
X138500000Y-92024285D01*
X138452380Y-91929047D01*
X138452380Y-91690952D01*
X138500000Y-91595714D01*
X138547619Y-91548095D01*
X138642857Y-91500476D01*
X138738095Y-91500476D01*
X138880952Y-91548095D01*
X139452380Y-92119523D01*
X139452380Y-91500476D01*
X138452380Y-90643333D02*
X138452380Y-90833809D01*
X138500000Y-90929047D01*
X138547619Y-90976666D01*
X138690476Y-91071904D01*
X138880952Y-91119523D01*
X139261904Y-91119523D01*
X139357142Y-91071904D01*
X139404761Y-91024285D01*
X139452380Y-90929047D01*
X139452380Y-90738571D01*
X139404761Y-90643333D01*
X139357142Y-90595714D01*
X139261904Y-90548095D01*
X139023809Y-90548095D01*
X138928571Y-90595714D01*
X138880952Y-90643333D01*
X138833333Y-90738571D01*
X138833333Y-90929047D01*
X138880952Y-91024285D01*
X138928571Y-91071904D01*
X139023809Y-91119523D01*
X139452380Y-103142857D02*
X138976190Y-103476190D01*
X139452380Y-103714285D02*
X138452380Y-103714285D01*
X138452380Y-103333333D01*
X138500000Y-103238095D01*
X138547619Y-103190476D01*
X138642857Y-103142857D01*
X138785714Y-103142857D01*
X138880952Y-103190476D01*
X138928571Y-103238095D01*
X138976190Y-103333333D01*
X138976190Y-103714285D01*
X138547619Y-102761904D02*
X138500000Y-102714285D01*
X138452380Y-102619047D01*
X138452380Y-102380952D01*
X138500000Y-102285714D01*
X138547619Y-102238095D01*
X138642857Y-102190476D01*
X138738095Y-102190476D01*
X138880952Y-102238095D01*
X139452380Y-102809523D01*
X139452380Y-102190476D01*
X138452380Y-101857142D02*
X138452380Y-101190476D01*
X139452380Y-101619047D01*
X142952380Y-92832857D02*
X142476190Y-93166190D01*
X142952380Y-93404285D02*
X141952380Y-93404285D01*
X141952380Y-93023333D01*
X142000000Y-92928095D01*
X142047619Y-92880476D01*
X142142857Y-92832857D01*
X142285714Y-92832857D01*
X142380952Y-92880476D01*
X142428571Y-92928095D01*
X142476190Y-93023333D01*
X142476190Y-93404285D01*
X142047619Y-92451904D02*
X142000000Y-92404285D01*
X141952380Y-92309047D01*
X141952380Y-92070952D01*
X142000000Y-91975714D01*
X142047619Y-91928095D01*
X142142857Y-91880476D01*
X142238095Y-91880476D01*
X142380952Y-91928095D01*
X142952380Y-92499523D01*
X142952380Y-91880476D01*
X142380952Y-91309047D02*
X142333333Y-91404285D01*
X142285714Y-91451904D01*
X142190476Y-91499523D01*
X142142857Y-91499523D01*
X142047619Y-91451904D01*
X142000000Y-91404285D01*
X141952380Y-91309047D01*
X141952380Y-91118571D01*
X142000000Y-91023333D01*
X142047619Y-90975714D01*
X142142857Y-90928095D01*
X142190476Y-90928095D01*
X142285714Y-90975714D01*
X142333333Y-91023333D01*
X142380952Y-91118571D01*
X142380952Y-91309047D01*
X142428571Y-91404285D01*
X142476190Y-91451904D01*
X142571428Y-91499523D01*
X142761904Y-91499523D01*
X142857142Y-91451904D01*
X142904761Y-91404285D01*
X142952380Y-91309047D01*
X142952380Y-91118571D01*
X142904761Y-91023333D01*
X142857142Y-90975714D01*
X142761904Y-90928095D01*
X142571428Y-90928095D01*
X142476190Y-90975714D01*
X142428571Y-91023333D01*
X142380952Y-91118571D01*
X178047142Y-103952380D02*
X177713809Y-103476190D01*
X177475714Y-103952380D02*
X177475714Y-102952380D01*
X177856666Y-102952380D01*
X177951904Y-103000000D01*
X177999523Y-103047619D01*
X178047142Y-103142857D01*
X178047142Y-103285714D01*
X177999523Y-103380952D01*
X177951904Y-103428571D01*
X177856666Y-103476190D01*
X177475714Y-103476190D01*
X178428095Y-103047619D02*
X178475714Y-103000000D01*
X178570952Y-102952380D01*
X178809047Y-102952380D01*
X178904285Y-103000000D01*
X178951904Y-103047619D01*
X178999523Y-103142857D01*
X178999523Y-103238095D01*
X178951904Y-103380952D01*
X178380476Y-103952380D01*
X178999523Y-103952380D01*
X179475714Y-103952380D02*
X179666190Y-103952380D01*
X179761428Y-103904761D01*
X179809047Y-103857142D01*
X179904285Y-103714285D01*
X179951904Y-103523809D01*
X179951904Y-103142857D01*
X179904285Y-103047619D01*
X179856666Y-103000000D01*
X179761428Y-102952380D01*
X179570952Y-102952380D01*
X179475714Y-103000000D01*
X179428095Y-103047619D01*
X179380476Y-103142857D01*
X179380476Y-103380952D01*
X179428095Y-103476190D01*
X179475714Y-103523809D01*
X179570952Y-103571428D01*
X179761428Y-103571428D01*
X179856666Y-103523809D01*
X179904285Y-103476190D01*
X179951904Y-103380952D01*
X180452380Y-130332857D02*
X179976190Y-130666190D01*
X180452380Y-130904285D02*
X179452380Y-130904285D01*
X179452380Y-130523333D01*
X179500000Y-130428095D01*
X179547619Y-130380476D01*
X179642857Y-130332857D01*
X179785714Y-130332857D01*
X179880952Y-130380476D01*
X179928571Y-130428095D01*
X179976190Y-130523333D01*
X179976190Y-130904285D01*
X179452380Y-129999523D02*
X179452380Y-129380476D01*
X179833333Y-129713809D01*
X179833333Y-129570952D01*
X179880952Y-129475714D01*
X179928571Y-129428095D01*
X180023809Y-129380476D01*
X180261904Y-129380476D01*
X180357142Y-129428095D01*
X180404761Y-129475714D01*
X180452380Y-129570952D01*
X180452380Y-129856666D01*
X180404761Y-129951904D01*
X180357142Y-129999523D01*
X179452380Y-128761428D02*
X179452380Y-128666190D01*
X179500000Y-128570952D01*
X179547619Y-128523333D01*
X179642857Y-128475714D01*
X179833333Y-128428095D01*
X180071428Y-128428095D01*
X180261904Y-128475714D01*
X180357142Y-128523333D01*
X180404761Y-128570952D01*
X180452380Y-128666190D01*
X180452380Y-128761428D01*
X180404761Y-128856666D01*
X180357142Y-128904285D01*
X180261904Y-128951904D01*
X180071428Y-128999523D01*
X179833333Y-128999523D01*
X179642857Y-128951904D01*
X179547619Y-128904285D01*
X179500000Y-128856666D01*
X179452380Y-128761428D01*
X180452380Y-119452857D02*
X179976190Y-119786190D01*
X180452380Y-120024285D02*
X179452380Y-120024285D01*
X179452380Y-119643333D01*
X179500000Y-119548095D01*
X179547619Y-119500476D01*
X179642857Y-119452857D01*
X179785714Y-119452857D01*
X179880952Y-119500476D01*
X179928571Y-119548095D01*
X179976190Y-119643333D01*
X179976190Y-120024285D01*
X179452380Y-119119523D02*
X179452380Y-118500476D01*
X179833333Y-118833809D01*
X179833333Y-118690952D01*
X179880952Y-118595714D01*
X179928571Y-118548095D01*
X180023809Y-118500476D01*
X180261904Y-118500476D01*
X180357142Y-118548095D01*
X180404761Y-118595714D01*
X180452380Y-118690952D01*
X180452380Y-118976666D01*
X180404761Y-119071904D01*
X180357142Y-119119523D01*
X180452380Y-117548095D02*
X180452380Y-118119523D01*
X180452380Y-117833809D02*
X179452380Y-117833809D01*
X179595238Y-117929047D01*
X179690476Y-118024285D01*
X179738095Y-118119523D01*
X153952380Y-92452857D02*
X153476190Y-92786190D01*
X153952380Y-93024285D02*
X152952380Y-93024285D01*
X152952380Y-92643333D01*
X153000000Y-92548095D01*
X153047619Y-92500476D01*
X153142857Y-92452857D01*
X153285714Y-92452857D01*
X153380952Y-92500476D01*
X153428571Y-92548095D01*
X153476190Y-92643333D01*
X153476190Y-93024285D01*
X152952380Y-92119523D02*
X152952380Y-91500476D01*
X153333333Y-91833809D01*
X153333333Y-91690952D01*
X153380952Y-91595714D01*
X153428571Y-91548095D01*
X153523809Y-91500476D01*
X153761904Y-91500476D01*
X153857142Y-91548095D01*
X153904761Y-91595714D01*
X153952380Y-91690952D01*
X153952380Y-91976666D01*
X153904761Y-92071904D01*
X153857142Y-92119523D01*
X153047619Y-91119523D02*
X153000000Y-91071904D01*
X152952380Y-90976666D01*
X152952380Y-90738571D01*
X153000000Y-90643333D01*
X153047619Y-90595714D01*
X153142857Y-90548095D01*
X153238095Y-90548095D01*
X153380952Y-90595714D01*
X153952380Y-91167142D01*
X153952380Y-90548095D01*
X157452380Y-102952857D02*
X156976190Y-103286190D01*
X157452380Y-103524285D02*
X156452380Y-103524285D01*
X156452380Y-103143333D01*
X156500000Y-103048095D01*
X156547619Y-103000476D01*
X156642857Y-102952857D01*
X156785714Y-102952857D01*
X156880952Y-103000476D01*
X156928571Y-103048095D01*
X156976190Y-103143333D01*
X156976190Y-103524285D01*
X156452380Y-102619523D02*
X156452380Y-102000476D01*
X156833333Y-102333809D01*
X156833333Y-102190952D01*
X156880952Y-102095714D01*
X156928571Y-102048095D01*
X157023809Y-102000476D01*
X157261904Y-102000476D01*
X157357142Y-102048095D01*
X157404761Y-102095714D01*
X157452380Y-102190952D01*
X157452380Y-102476666D01*
X157404761Y-102571904D01*
X157357142Y-102619523D01*
X156452380Y-101667142D02*
X156452380Y-101048095D01*
X156833333Y-101381428D01*
X156833333Y-101238571D01*
X156880952Y-101143333D01*
X156928571Y-101095714D01*
X157023809Y-101048095D01*
X157261904Y-101048095D01*
X157357142Y-101095714D01*
X157404761Y-101143333D01*
X157452380Y-101238571D01*
X157452380Y-101524285D01*
X157404761Y-101619523D01*
X157357142Y-101667142D01*
X157452380Y-92332857D02*
X156976190Y-92666190D01*
X157452380Y-92904285D02*
X156452380Y-92904285D01*
X156452380Y-92523333D01*
X156500000Y-92428095D01*
X156547619Y-92380476D01*
X156642857Y-92332857D01*
X156785714Y-92332857D01*
X156880952Y-92380476D01*
X156928571Y-92428095D01*
X156976190Y-92523333D01*
X156976190Y-92904285D01*
X156452380Y-91999523D02*
X156452380Y-91380476D01*
X156833333Y-91713809D01*
X156833333Y-91570952D01*
X156880952Y-91475714D01*
X156928571Y-91428095D01*
X157023809Y-91380476D01*
X157261904Y-91380476D01*
X157357142Y-91428095D01*
X157404761Y-91475714D01*
X157452380Y-91570952D01*
X157452380Y-91856666D01*
X157404761Y-91951904D01*
X157357142Y-91999523D01*
X156785714Y-90523333D02*
X157452380Y-90523333D01*
X156404761Y-90761428D02*
X157119047Y-90999523D01*
X157119047Y-90380476D01*
X122952380Y-77870238D02*
X122476190Y-78203571D01*
X122952380Y-78441666D02*
X121952380Y-78441666D01*
X121952380Y-78060714D01*
X122000000Y-77965476D01*
X122047619Y-77917857D01*
X122142857Y-77870238D01*
X122285714Y-77870238D01*
X122380952Y-77917857D01*
X122428571Y-77965476D01*
X122476190Y-78060714D01*
X122476190Y-78441666D01*
X121952380Y-77584523D02*
X122952380Y-77251190D01*
X121952380Y-76917857D01*
X122952380Y-76060714D02*
X122952380Y-76632142D01*
X122952380Y-76346428D02*
X121952380Y-76346428D01*
X122095238Y-76441666D01*
X122190476Y-76536904D01*
X122238095Y-76632142D01*
X172952380Y-77870238D02*
X172476190Y-78203571D01*
X172952380Y-78441666D02*
X171952380Y-78441666D01*
X171952380Y-78060714D01*
X172000000Y-77965476D01*
X172047619Y-77917857D01*
X172142857Y-77870238D01*
X172285714Y-77870238D01*
X172380952Y-77917857D01*
X172428571Y-77965476D01*
X172476190Y-78060714D01*
X172476190Y-78441666D01*
X171952380Y-77584523D02*
X172952380Y-77251190D01*
X171952380Y-76917857D01*
X172047619Y-76632142D02*
X172000000Y-76584523D01*
X171952380Y-76489285D01*
X171952380Y-76251190D01*
X172000000Y-76155952D01*
X172047619Y-76108333D01*
X172142857Y-76060714D01*
X172238095Y-76060714D01*
X172380952Y-76108333D01*
X172952380Y-76679761D01*
X172952380Y-76060714D01*
X119404761Y-130952380D02*
X119071428Y-130476190D01*
X118833333Y-130952380D02*
X118833333Y-129952380D01*
X119214285Y-129952380D01*
X119309523Y-130000000D01*
X119357142Y-130047619D01*
X119404761Y-130142857D01*
X119404761Y-130285714D01*
X119357142Y-130380952D01*
X119309523Y-130428571D01*
X119214285Y-130476190D01*
X118833333Y-130476190D01*
X119690476Y-129952380D02*
X120023809Y-130952380D01*
X120357142Y-129952380D01*
X120595238Y-129952380D02*
X121214285Y-129952380D01*
X120880952Y-130333333D01*
X121023809Y-130333333D01*
X121119047Y-130380952D01*
X121166666Y-130428571D01*
X121214285Y-130523809D01*
X121214285Y-130761904D01*
X121166666Y-130857142D01*
X121119047Y-130904761D01*
X121023809Y-130952380D01*
X120738095Y-130952380D01*
X120642857Y-130904761D01*
X120595238Y-130857142D01*
X139404761Y-130952380D02*
X139071428Y-130476190D01*
X138833333Y-130952380D02*
X138833333Y-129952380D01*
X139214285Y-129952380D01*
X139309523Y-130000000D01*
X139357142Y-130047619D01*
X139404761Y-130142857D01*
X139404761Y-130285714D01*
X139357142Y-130380952D01*
X139309523Y-130428571D01*
X139214285Y-130476190D01*
X138833333Y-130476190D01*
X139690476Y-129952380D02*
X140023809Y-130952380D01*
X140357142Y-129952380D01*
X141119047Y-130285714D02*
X141119047Y-130952380D01*
X140880952Y-129904761D02*
X140642857Y-130619047D01*
X141261904Y-130619047D01*
X169404761Y-130952380D02*
X169071428Y-130476190D01*
X168833333Y-130952380D02*
X168833333Y-129952380D01*
X169214285Y-129952380D01*
X169309523Y-130000000D01*
X169357142Y-130047619D01*
X169404761Y-130142857D01*
X169404761Y-130285714D01*
X169357142Y-130380952D01*
X169309523Y-130428571D01*
X169214285Y-130476190D01*
X168833333Y-130476190D01*
X169690476Y-129952380D02*
X170023809Y-130952380D01*
X170357142Y-129952380D01*
X171166666Y-129952380D02*
X170690476Y-129952380D01*
X170642857Y-130428571D01*
X170690476Y-130380952D01*
X170785714Y-130333333D01*
X171023809Y-130333333D01*
X171119047Y-130380952D01*
X171166666Y-130428571D01*
X171214285Y-130523809D01*
X171214285Y-130761904D01*
X171166666Y-130857142D01*
X171119047Y-130904761D01*
X171023809Y-130952380D01*
X170785714Y-130952380D01*
X170690476Y-130904761D01*
X170642857Y-130857142D01*
X189404761Y-130952380D02*
X189071428Y-130476190D01*
X188833333Y-130952380D02*
X188833333Y-129952380D01*
X189214285Y-129952380D01*
X189309523Y-130000000D01*
X189357142Y-130047619D01*
X189404761Y-130142857D01*
X189404761Y-130285714D01*
X189357142Y-130380952D01*
X189309523Y-130428571D01*
X189214285Y-130476190D01*
X188833333Y-130476190D01*
X189690476Y-129952380D02*
X190023809Y-130952380D01*
X190357142Y-129952380D01*
X191119047Y-129952380D02*
X190928571Y-129952380D01*
X190833333Y-130000000D01*
X190785714Y-130047619D01*
X190690476Y-130190476D01*
X190642857Y-130380952D01*
X190642857Y-130761904D01*
X190690476Y-130857142D01*
X190738095Y-130904761D01*
X190833333Y-130952380D01*
X191023809Y-130952380D01*
X191119047Y-130904761D01*
X191166666Y-130857142D01*
X191214285Y-130761904D01*
X191214285Y-130523809D01*
X191166666Y-130428571D01*
X191119047Y-130380952D01*
X191023809Y-130333333D01*
X190833333Y-130333333D01*
X190738095Y-130380952D01*
X190690476Y-130428571D01*
X190642857Y-130523809D01*
X128666666Y-107404761D02*
X128809523Y-107452380D01*
X129047619Y-107452380D01*
X129142857Y-107404761D01*
X129190476Y-107357142D01*
X129238095Y-107261904D01*
X129238095Y-107166666D01*
X129190476Y-107071428D01*
X129142857Y-107023809D01*
X129047619Y-106976190D01*
X128857142Y-106928571D01*
X128761904Y-106880952D01*
X128714285Y-106833333D01*
X128666666Y-106738095D01*
X128666666Y-106642857D01*
X128714285Y-106547619D01*
X128761904Y-106500000D01*
X128857142Y-106452380D01*
X129095238Y-106452380D01*
X129238095Y-106500000D01*
X129571428Y-106452380D02*
X129809523Y-107452380D01*
X130000000Y-106738095D01*
X130190476Y-107452380D01*
X130428571Y-106452380D01*
X131333333Y-107452380D02*
X130761904Y-107452380D01*
X131047619Y-107452380D02*
X131047619Y-106452380D01*
X130952380Y-106595238D01*
X130857142Y-106690476D01*
X130761904Y-106738095D01*
X178666666Y-107404761D02*
X178809523Y-107452380D01*
X179047619Y-107452380D01*
X179142857Y-107404761D01*
X179190476Y-107357142D01*
X179238095Y-107261904D01*
X179238095Y-107166666D01*
X179190476Y-107071428D01*
X179142857Y-107023809D01*
X179047619Y-106976190D01*
X178857142Y-106928571D01*
X178761904Y-106880952D01*
X178714285Y-106833333D01*
X178666666Y-106738095D01*
X178666666Y-106642857D01*
X178714285Y-106547619D01*
X178761904Y-106500000D01*
X178857142Y-106452380D01*
X179095238Y-106452380D01*
X179238095Y-106500000D01*
X179571428Y-106452380D02*
X179809523Y-107452380D01*
X180000000Y-106738095D01*
X180190476Y-107452380D01*
X180428571Y-106452380D01*
X180761904Y-106547619D02*
X180809523Y-106500000D01*
X180904761Y-106452380D01*
X181142857Y-106452380D01*
X181238095Y-106500000D01*
X181285714Y-106547619D01*
X181333333Y-106642857D01*
X181333333Y-106738095D01*
X181285714Y-106880952D01*
X180714285Y-107452380D01*
X181333333Y-107452380D01*
X110548095Y-108952380D02*
X110548095Y-109761904D01*
X110595714Y-109857142D01*
X110643333Y-109904761D01*
X110738571Y-109952380D01*
X110929047Y-109952380D01*
X111024285Y-109904761D01*
X111071904Y-109857142D01*
X111119523Y-109761904D01*
X111119523Y-108952380D01*
X112119523Y-109952380D02*
X111548095Y-109952380D01*
X111833809Y-109952380D02*
X111833809Y-108952380D01*
X111738571Y-109095238D01*
X111643333Y-109190476D01*
X111548095Y-109238095D01*
X180548095Y-58452380D02*
X180548095Y-59261904D01*
X180595714Y-59357142D01*
X180643333Y-59404761D01*
X180738571Y-59452380D01*
X180929047Y-59452380D01*
X181024285Y-59404761D01*
X181071904Y-59357142D01*
X181119523Y-59261904D01*
X181119523Y-58452380D01*
X181548095Y-58547619D02*
X181595714Y-58500000D01*
X181690952Y-58452380D01*
X181929047Y-58452380D01*
X182024285Y-58500000D01*
X182071904Y-58547619D01*
X182119523Y-58642857D01*
X182119523Y-58738095D01*
X182071904Y-58880952D01*
X181500476Y-59452380D01*
X182119523Y-59452380D01*
X198048095Y-74952380D02*
X198048095Y-75761904D01*
X198095714Y-75857142D01*
X198143333Y-75904761D01*
X198238571Y-75952380D01*
X198429047Y-75952380D01*
X198524285Y-75904761D01*
X198571904Y-75857142D01*
X198619523Y-75761904D01*
X198619523Y-74952380D01*
X199524285Y-74952380D02*
X199333809Y-74952380D01*
X199238571Y-75000000D01*
X199190952Y-75047619D01*
X199095714Y-75190476D01*
X199048095Y-75380952D01*
X199048095Y-75761904D01*
X199095714Y-75857142D01*
X199143333Y-75904761D01*
X199238571Y-75952380D01*
X199429047Y-75952380D01*
X199524285Y-75904761D01*
X199571904Y-75857142D01*
X199619523Y-75761904D01*
X199619523Y-75523809D01*
X199571904Y-75428571D01*
X199524285Y-75380952D01*
X199429047Y-75333333D01*
X199238571Y-75333333D01*
X199143333Y-75380952D01*
X199095714Y-75428571D01*
X199048095Y-75523809D01*
X145738095Y-107452380D02*
X145738095Y-108261904D01*
X145785714Y-108357142D01*
X145833333Y-108404761D01*
X145928571Y-108452380D01*
X146119047Y-108452380D01*
X146214285Y-108404761D01*
X146261904Y-108357142D01*
X146309523Y-108261904D01*
X146309523Y-107452380D01*
X146928571Y-107880952D02*
X146833333Y-107833333D01*
X146785714Y-107785714D01*
X146738095Y-107690476D01*
X146738095Y-107642857D01*
X146785714Y-107547619D01*
X146833333Y-107500000D01*
X146928571Y-107452380D01*
X147119047Y-107452380D01*
X147214285Y-107500000D01*
X147261904Y-107547619D01*
X147309523Y-107642857D01*
X147309523Y-107690476D01*
X147261904Y-107785714D01*
X147214285Y-107833333D01*
X147119047Y-107880952D01*
X146928571Y-107880952D01*
X146833333Y-107928571D01*
X146785714Y-107976190D01*
X146738095Y-108071428D01*
X146738095Y-108261904D01*
X146785714Y-108357142D01*
X146833333Y-108404761D01*
X146928571Y-108452380D01*
X147119047Y-108452380D01*
X147214285Y-108404761D01*
X147261904Y-108357142D01*
X147309523Y-108261904D01*
X147309523Y-108071428D01*
X147261904Y-107976190D01*
X147214285Y-107928571D01*
X147119047Y-107880952D01*
X163548095Y-107452380D02*
X163548095Y-108261904D01*
X163595714Y-108357142D01*
X163643333Y-108404761D01*
X163738571Y-108452380D01*
X163929047Y-108452380D01*
X164024285Y-108404761D01*
X164071904Y-108357142D01*
X164119523Y-108261904D01*
X164119523Y-107452380D01*
X164643333Y-108452380D02*
X164833809Y-108452380D01*
X164929047Y-108404761D01*
X164976666Y-108357142D01*
X165071904Y-108214285D01*
X165119523Y-108023809D01*
X165119523Y-107642857D01*
X165071904Y-107547619D01*
X165024285Y-107500000D01*
X164929047Y-107452380D01*
X164738571Y-107452380D01*
X164643333Y-107500000D01*
X164595714Y-107547619D01*
X164548095Y-107642857D01*
X164548095Y-107880952D01*
X164595714Y-107976190D01*
X164643333Y-108023809D01*
X164738571Y-108071428D01*
X164929047Y-108071428D01*
X165024285Y-108023809D01*
X165071904Y-107976190D01*
X165119523Y-107880952D01*
X116823809Y-86376190D02*
X116823809Y-86852380D01*
X116490476Y-85852380D02*
X116823809Y-86376190D01*
X117157142Y-85852380D01*
X118014285Y-86852380D02*
X117442857Y-86852380D01*
X117728571Y-86852380D02*
X117728571Y-85852380D01*
X117633333Y-85995238D01*
X117538095Y-86090476D01*
X117442857Y-86138095D01*
X134278095Y-35182380D02*
X134278095Y-35991904D01*
X134325714Y-36087142D01*
X134373333Y-36134761D01*
X134468571Y-36182380D01*
X134659047Y-36182380D01*
X134754285Y-36134761D01*
X134801904Y-36087142D01*
X134849523Y-35991904D01*
X134849523Y-35182380D01*
X135230476Y-35182380D02*
X135849523Y-35182380D01*
X135516190Y-35563333D01*
X135659047Y-35563333D01*
X135754285Y-35610952D01*
X135801904Y-35658571D01*
X135849523Y-35753809D01*
X135849523Y-35991904D01*
X135801904Y-36087142D01*
X135754285Y-36134761D01*
X135659047Y-36182380D01*
X135373333Y-36182380D01*
X135278095Y-36134761D01*
X135230476Y-36087142D01*
X165048095Y-77452380D02*
X165048095Y-78261904D01*
X165095714Y-78357142D01*
X165143333Y-78404761D01*
X165238571Y-78452380D01*
X165429047Y-78452380D01*
X165524285Y-78404761D01*
X165571904Y-78357142D01*
X165619523Y-78261904D01*
X165619523Y-77452380D01*
X166571904Y-77452380D02*
X166095714Y-77452380D01*
X166048095Y-77928571D01*
X166095714Y-77880952D01*
X166190952Y-77833333D01*
X166429047Y-77833333D01*
X166524285Y-77880952D01*
X166571904Y-77928571D01*
X166619523Y-78023809D01*
X166619523Y-78261904D01*
X166571904Y-78357142D01*
X166524285Y-78404761D01*
X166429047Y-78452380D01*
X166190952Y-78452380D01*
X166095714Y-78404761D01*
X166048095Y-78357142D01*
X136048095Y-55952380D02*
X136048095Y-56761904D01*
X136095714Y-56857142D01*
X136143333Y-56904761D01*
X136238571Y-56952380D01*
X136429047Y-56952380D01*
X136524285Y-56904761D01*
X136571904Y-56857142D01*
X136619523Y-56761904D01*
X136619523Y-55952380D01*
X137524285Y-56285714D02*
X137524285Y-56952380D01*
X137286190Y-55904761D02*
X137048095Y-56619047D01*
X137667142Y-56619047D01*
X142538095Y-75252380D02*
X142538095Y-76061904D01*
X142585714Y-76157142D01*
X142633333Y-76204761D01*
X142728571Y-76252380D01*
X142919047Y-76252380D01*
X143014285Y-76204761D01*
X143061904Y-76157142D01*
X143109523Y-76061904D01*
X143109523Y-75252380D01*
X143490476Y-75252380D02*
X144157142Y-75252380D01*
X143728571Y-76252380D01*
X144157142Y-68857142D02*
X144109523Y-68904761D01*
X143966666Y-68952380D01*
X143871428Y-68952380D01*
X143728571Y-68904761D01*
X143633333Y-68809523D01*
X143585714Y-68714285D01*
X143538095Y-68523809D01*
X143538095Y-68380952D01*
X143585714Y-68190476D01*
X143633333Y-68095238D01*
X143728571Y-68000000D01*
X143871428Y-67952380D01*
X143966666Y-67952380D01*
X144109523Y-68000000D01*
X144157142Y-68047619D01*
X144538095Y-68047619D02*
X144585714Y-68000000D01*
X144680952Y-67952380D01*
X144919047Y-67952380D01*
X145014285Y-68000000D01*
X145061904Y-68047619D01*
X145109523Y-68142857D01*
X145109523Y-68238095D01*
X145061904Y-68380952D01*
X144490476Y-68952380D01*
X145109523Y-68952380D01*
X145728571Y-67952380D02*
X145823809Y-67952380D01*
X145919047Y-68000000D01*
X145966666Y-68047619D01*
X146014285Y-68142857D01*
X146061904Y-68333333D01*
X146061904Y-68571428D01*
X146014285Y-68761904D01*
X145966666Y-68857142D01*
X145919047Y-68904761D01*
X145823809Y-68952380D01*
X145728571Y-68952380D01*
X145633333Y-68904761D01*
X145585714Y-68857142D01*
X145538095Y-68761904D01*
X145490476Y-68571428D01*
X145490476Y-68333333D01*
X145538095Y-68142857D01*
X145585714Y-68047619D01*
X145633333Y-68000000D01*
X145728571Y-67952380D01*
D17*
X193822150Y-47207717D02*
X193822150Y-47923025D01*
X193774462Y-48066086D01*
X193679088Y-48161460D01*
X193536027Y-48209147D01*
X193440652Y-48209147D01*
X194823580Y-48209147D02*
X194251334Y-48209147D01*
X194537457Y-48209147D02*
X194537457Y-47207717D01*
X194442082Y-47350779D01*
X194346708Y-47446153D01*
X194251334Y-47493840D01*
X109822150Y-48207717D02*
X109822150Y-48923025D01*
X109774462Y-49066086D01*
X109679088Y-49161460D01*
X109536027Y-49209147D01*
X109440652Y-49209147D01*
X110251334Y-48303092D02*
X110299021Y-48255405D01*
X110394395Y-48207717D01*
X110632831Y-48207717D01*
X110728205Y-48255405D01*
X110775892Y-48303092D01*
X110823580Y-48398466D01*
X110823580Y-48493840D01*
X110775892Y-48636902D01*
X110203647Y-49209147D01*
X110823580Y-49209147D01*
D16*
X107266666Y-83852380D02*
X107266666Y-84566666D01*
X107219047Y-84709523D01*
X107123809Y-84804761D01*
X106980952Y-84852380D01*
X106885714Y-84852380D01*
X108171428Y-83852380D02*
X107980952Y-83852380D01*
X107885714Y-83900000D01*
X107838095Y-83947619D01*
X107742857Y-84090476D01*
X107695238Y-84280952D01*
X107695238Y-84661904D01*
X107742857Y-84757142D01*
X107790476Y-84804761D01*
X107885714Y-84852380D01*
X108076190Y-84852380D01*
X108171428Y-84804761D01*
X108219047Y-84757142D01*
X108266666Y-84661904D01*
X108266666Y-84423809D01*
X108219047Y-84328571D01*
X108171428Y-84280952D01*
X108076190Y-84233333D01*
X107885714Y-84233333D01*
X107790476Y-84280952D01*
X107742857Y-84328571D01*
X107695238Y-84423809D01*
X184682380Y-38903333D02*
X185396666Y-38903333D01*
X185539523Y-38950952D01*
X185634761Y-39046190D01*
X185682380Y-39189047D01*
X185682380Y-39284285D01*
X184682380Y-38522380D02*
X184682380Y-37855714D01*
X185682380Y-38284285D01*
X147157142Y-48352380D02*
X146823809Y-47876190D01*
X146585714Y-48352380D02*
X146585714Y-47352380D01*
X146966666Y-47352380D01*
X147061904Y-47400000D01*
X147109523Y-47447619D01*
X147157142Y-47542857D01*
X147157142Y-47685714D01*
X147109523Y-47780952D01*
X147061904Y-47828571D01*
X146966666Y-47876190D01*
X146585714Y-47876190D01*
X147490476Y-47352380D02*
X148109523Y-47352380D01*
X147776190Y-47733333D01*
X147919047Y-47733333D01*
X148014285Y-47780952D01*
X148061904Y-47828571D01*
X148109523Y-47923809D01*
X148109523Y-48161904D01*
X148061904Y-48257142D01*
X148014285Y-48304761D01*
X147919047Y-48352380D01*
X147633333Y-48352380D01*
X147538095Y-48304761D01*
X147490476Y-48257142D01*
X149014285Y-47352380D02*
X148538095Y-47352380D01*
X148490476Y-47828571D01*
X148538095Y-47780952D01*
X148633333Y-47733333D01*
X148871428Y-47733333D01*
X148966666Y-47780952D01*
X149014285Y-47828571D01*
X149061904Y-47923809D01*
X149061904Y-48161904D01*
X149014285Y-48257142D01*
X148966666Y-48304761D01*
X148871428Y-48352380D01*
X148633333Y-48352380D01*
X148538095Y-48304761D01*
X148490476Y-48257142D01*
X116763809Y-92476190D02*
X116763809Y-92952380D01*
X116430476Y-91952380D02*
X116763809Y-92476190D01*
X117097142Y-91952380D01*
X117382857Y-92047619D02*
X117430476Y-92000000D01*
X117525714Y-91952380D01*
X117763809Y-91952380D01*
X117859047Y-92000000D01*
X117906666Y-92047619D01*
X117954285Y-92142857D01*
X117954285Y-92238095D01*
X117906666Y-92380952D01*
X117335238Y-92952380D01*
X117954285Y-92952380D01*
M02*
