M48
; DRILL file {KiCad (5.1.4-0-10_14)} date 2021 June 29, Tuesday 14:40:46
; FORMAT={-:-/ absolute / metric / decimal}
; #@! TF.CreationDate,2021-06-29T14:40:46+12:00
; #@! TF.GenerationSoftware,Kicad,Pcbnew,(5.1.4-0-10_14)
; #@! TF.FileFunction,Plated,1,2,PTH
FMAT,2
METRIC
T1C0.400
T2C0.750
T3C0.800
T4C1.000
T5C1.100
T6C1.200
T7C1.400
T8C1.700
T9C2.000
T10C2.100
%
G90
G05
T1
X118.8Y-66.4
X153.5Y-73.5
X155.7Y-55.7
X158.5Y-65.0
X162.0Y-68.5
X162.0Y-68.5
X166.0Y-105.5
X166.5Y-74.5
X170.0Y-91.0
X170.0Y-91.0
X180.0Y-74.5
X190.0Y-82.5
T2
X189.75Y-38.5
X191.02Y-37.23
X192.29Y-38.5
T3
X171.0Y-116.5
X176.0Y-116.5
X139.0Y-98.5
X139.0Y-106.12
X111.7Y-81.9
X163.0Y-95.5
X168.0Y-95.5
X107.0Y-66.75
X112.0Y-66.75
X107.0Y-98.0
X114.62Y-98.0
X180.0Y-125.88
X180.0Y-133.5
X157.5Y-54.0
X184.88Y-46.75
X192.5Y-46.75
X143.88Y-54.7
X114.8Y-86.4
X119.68Y-86.4
X111.7Y-76.9
X165.12Y-54.0
X151.5Y-54.7
X157.5Y-57.5
X165.12Y-57.5
X177.0Y-47.0
X182.0Y-47.0
X146.5Y-62.2
X139.5Y-77.08
X174.88Y-94.0
X182.5Y-94.0
X151.5Y-62.2
X174.88Y-103.5
X182.5Y-103.5
X153.5Y-88.0
X153.5Y-95.62
X184.0Y-116.5
X189.0Y-116.5
X139.5Y-74.54
X147.12Y-72.0
X147.12Y-77.08
X154.75Y-71.5
X154.75Y-79.12
X144.0Y-51.2
X151.62Y-51.2
X139.5Y-72.0
X139.5Y-79.62
X147.12Y-74.54
X147.12Y-79.62
X115.2Y-76.9
X115.2Y-81.9
X185.0Y-42.75
X192.62Y-42.75
X114.8Y-92.5
X119.68Y-92.5
X180.0Y-115.0
X180.0Y-122.62
X124.88Y-94.0
X132.5Y-94.0
X144.0Y-47.9
X151.62Y-47.9
X177.5Y-50.0
X177.5Y-52.54
X177.5Y-55.08
X177.5Y-57.62
X177.5Y-60.16
X177.5Y-62.7
X177.5Y-65.24
X177.5Y-67.78
X185.12Y-50.0
X185.12Y-52.54
X185.12Y-55.08
X185.12Y-57.62
X185.12Y-60.16
X185.12Y-62.7
X165.0Y-50.5
X135.5Y-86.0
X135.5Y-91.0
X120.5Y-117.0
X125.5Y-117.0
X123.0Y-97.38
X123.0Y-105.0
X157.0Y-87.88
X157.0Y-95.5
X134.0Y-117.0
X139.0Y-117.0
X107.0Y-70.5
X114.62Y-70.5
X131.0Y-44.0
X138.62Y-44.0
X174.88Y-86.5
X182.5Y-86.5
X130.0Y-114.88
X130.0Y-122.5
X139.0Y-88.0
X139.0Y-95.62
X133.0Y-52.5
X133.0Y-55.04
X133.0Y-57.58
X133.0Y-60.12
X140.62Y-52.5
X140.62Y-55.04
X140.62Y-57.58
X140.62Y-60.12
X145.0Y-37.5
X132.62Y-90.5
X165.0Y-67.0
X170.0Y-67.0
X197.5Y-64.5
X202.5Y-64.5
X142.5Y-37.5
X195.38Y-46.75
X203.0Y-46.75
X125.0Y-90.5
X157.38Y-50.5
X162.0Y-70.5
X162.0Y-73.04
X162.0Y-75.58
X162.0Y-78.12
X162.0Y-80.66
X157.0Y-106.12
X185.12Y-65.24
X185.12Y-67.78
X186.5Y-86.0
X186.5Y-91.0
X119.0Y-102.0
X119.0Y-97.0
X127.88Y-103.5
X135.5Y-103.5
X157.0Y-98.5
X107.5Y-102.0
X107.5Y-104.54
X107.5Y-107.08
X107.5Y-109.62
X107.5Y-112.16
X107.5Y-114.7
X107.5Y-117.24
X115.12Y-102.0
X115.12Y-104.54
X115.12Y-107.08
X115.12Y-109.62
X115.12Y-112.16
X115.12Y-114.7
X115.12Y-117.24
X160.5Y-99.0
X160.5Y-101.54
X160.5Y-104.08
X160.5Y-106.62
X160.5Y-109.16
X160.5Y-111.7
X160.5Y-114.24
X160.5Y-116.78
X182.62Y-90.5
X162.0Y-83.2
X162.0Y-85.74
X169.62Y-70.5
X169.62Y-73.04
X169.62Y-75.58
X169.62Y-78.12
X169.62Y-80.66
X162.5Y-61.5
X168.12Y-99.0
X124.88Y-86.5
X132.5Y-86.5
X169.62Y-85.74
X107.0Y-63.0
X114.62Y-63.0
X151.0Y-71.5
X151.0Y-79.12
X169.62Y-83.2
X175.0Y-90.5
X145.5Y-95.5
X130.0Y-125.38
X133.0Y-49.0
X168.12Y-101.54
X168.12Y-104.08
X138.0Y-49.0
X168.12Y-106.62
X150.5Y-95.5
X168.12Y-109.16
X130.0Y-133.0
X142.5Y-96.0
X168.12Y-111.7
X168.12Y-116.78
X157.5Y-61.5
X142.5Y-88.38
X168.12Y-114.24
X144.0Y-58.2
X151.62Y-58.2
X142.25Y-68.5
X147.25Y-68.5
X195.0Y-68.0
X195.0Y-70.54
X195.0Y-73.08
X195.0Y-75.62
X195.0Y-78.16
X195.0Y-80.7
X195.0Y-83.24
X202.62Y-68.0
X202.62Y-70.54
X202.62Y-73.08
X202.62Y-75.62
X202.62Y-78.16
X202.62Y-80.7
X202.62Y-83.24
X142.5Y-99.0
X142.5Y-101.54
X142.5Y-104.08
X142.5Y-106.62
X142.5Y-109.16
X142.5Y-111.7
X142.5Y-114.24
X142.5Y-116.78
X150.12Y-99.0
X150.12Y-101.54
X150.12Y-104.08
X150.12Y-106.62
X150.12Y-109.16
X150.12Y-111.7
X150.12Y-114.24
X150.12Y-116.78
T4
X178.0Y-83.0
X180.5Y-83.0
X183.0Y-83.0
X107.6Y-87.12
X107.6Y-89.66
X107.6Y-92.2
X167.5Y-132.5
X170.0Y-132.5
X172.5Y-132.5
X195.5Y-87.5
X198.04Y-87.5
X128.0Y-83.0
X130.5Y-83.0
X133.0Y-83.0
X200.58Y-87.5
X137.5Y-132.5
X122.5Y-132.5
X140.0Y-132.5
X142.5Y-132.5
X117.5Y-132.5
X120.0Y-132.5
X187.5Y-132.5
X190.0Y-132.5
X182.9Y-37.3
X170.2Y-37.3
X172.74Y-39.84
X172.74Y-37.3
X175.28Y-39.84
X175.28Y-37.3
X177.82Y-39.84
X177.82Y-37.3
X180.36Y-39.84
X180.36Y-37.3
X165.12Y-39.84
X170.2Y-39.84
X165.12Y-37.3
X167.66Y-39.84
X167.66Y-37.3
X192.5Y-132.5
X182.9Y-39.84
T5
X118.5Y-62.88
X118.5Y-70.5
X132.5Y-40.0
X135.04Y-40.0
X137.58Y-40.0
T6
X117.65Y-43.45
X118.15Y-41.5
X122.8Y-41.5
X123.3Y-43.45
T7
X115.8Y-43.05
T8
X113.0Y-53.4
X197.0Y-52.4
T9
X107.85Y-55.0
X118.15Y-55.0
X191.85Y-54.0
X202.15Y-54.0
T10
X125.35Y-109.5
X130.05Y-109.5
X134.75Y-109.5
X175.35Y-109.5
X180.05Y-109.5
X184.75Y-109.5
T4
G00X149.4Y-41.0
M15
G01X149.4Y-43.0
M16
G05
G00X155.1Y-39.0
M15
G01X153.1Y-39.0
M16
G05
G00X155.1Y-45.0
M15
G01X153.1Y-45.0
M16
G05
T7
G00X125.15Y-43.05
M15
G01X125.15Y-43.05
M16
G05
T0
M30
