G04 #@! TF.GenerationSoftware,KiCad,Pcbnew,(5.1.4-0-10_14)*
G04 #@! TF.CreationDate,2021-06-29T14:40:44+12:00*
G04 #@! TF.ProjectId,two_point_one_colorizer,74776f5f-706f-4696-9e74-5f6f6e655f63,rev?*
G04 #@! TF.SameCoordinates,Original*
G04 #@! TF.FileFunction,Soldermask,Top*
G04 #@! TF.FilePolarity,Negative*
%FSLAX46Y46*%
G04 Gerber Fmt 4.6, Leading zero omitted, Abs format (unit mm)*
G04 Created by KiCad (PCBNEW (5.1.4-0-10_14)) date 2021-06-29 14:40:44*
%MOMM*%
%LPD*%
G04 APERTURE LIST*
%ADD10C,1.900000*%
%ADD11C,2.300000*%
%ADD12C,3.600000*%
%ADD13C,2.000000*%
%ADD14R,2.000000X2.000000*%
%ADD15R,2.600000X2.600000*%
%ADD16O,2.600000X2.600000*%
%ADD17R,3.900000X3.900000*%
%ADD18C,0.100000*%
%ADD19C,3.400000*%
%ADD20C,3.900000*%
%ADD21R,2.100000X2.100000*%
%ADD22O,2.100000X2.100000*%
%ADD23C,1.500000*%
%ADD24R,1.500000X2.200000*%
%ADD25O,2.000000X2.000000*%
%ADD26C,4.400000*%
%ADD27C,2.200000*%
%ADD28R,2.800000X2.000000*%
%ADD29O,2.800000X2.000000*%
%ADD30R,2.305000X2.400000*%
%ADD31O,2.305000X2.400000*%
%ADD32C,2.950000*%
G04 APERTURE END LIST*
D10*
X123300000Y-43450000D03*
X117650000Y-43450000D03*
X122800000Y-41500000D03*
X118150000Y-41500000D03*
D11*
X125150000Y-43050000D03*
X115800000Y-43050000D03*
D12*
X201500000Y-38500000D03*
X201500000Y-131500000D03*
X108500000Y-131500000D03*
X108500000Y-38500000D03*
D13*
X111700000Y-76900000D03*
X111700000Y-81900000D03*
X115200000Y-81900000D03*
X115200000Y-76900000D03*
X112000000Y-66750000D03*
X107000000Y-66750000D03*
D14*
X142500000Y-37500000D03*
D13*
X145000000Y-37500000D03*
X150500000Y-95500000D03*
X145500000Y-95500000D03*
X133000000Y-49000000D03*
X138000000Y-49000000D03*
X163000000Y-95500000D03*
X168000000Y-95500000D03*
X202500000Y-64500000D03*
X197500000Y-64500000D03*
X170000000Y-67000000D03*
X165000000Y-67000000D03*
X182000000Y-47000000D03*
X177000000Y-47000000D03*
X119000000Y-102000000D03*
X119000000Y-97000000D03*
X151500000Y-62200000D03*
X146500000Y-62200000D03*
X157500000Y-61500000D03*
X162500000Y-61500000D03*
X135500000Y-86000000D03*
X135500000Y-91000000D03*
X186500000Y-91000000D03*
X186500000Y-86000000D03*
X139000000Y-117000000D03*
X134000000Y-117000000D03*
X125500000Y-117000000D03*
X120500000Y-117000000D03*
X189000000Y-116500000D03*
X184000000Y-116500000D03*
X176000000Y-116500000D03*
X171000000Y-116500000D03*
D15*
X118500000Y-70500000D03*
D16*
X118500000Y-62880000D03*
D17*
X154100000Y-45000000D03*
D18*
G36*
X155283315Y-37304093D02*
G01*
X155365827Y-37316333D01*
X155446742Y-37336601D01*
X155525281Y-37364702D01*
X155600687Y-37400367D01*
X155672235Y-37443251D01*
X155739234Y-37492941D01*
X155801041Y-37548959D01*
X155857059Y-37610766D01*
X155906749Y-37677765D01*
X155949633Y-37749313D01*
X155985298Y-37824719D01*
X156013399Y-37903258D01*
X156033667Y-37984173D01*
X156045907Y-38066685D01*
X156050000Y-38150000D01*
X156050000Y-39850000D01*
X156045907Y-39933315D01*
X156033667Y-40015827D01*
X156013399Y-40096742D01*
X155985298Y-40175281D01*
X155949633Y-40250687D01*
X155906749Y-40322235D01*
X155857059Y-40389234D01*
X155801041Y-40451041D01*
X155739234Y-40507059D01*
X155672235Y-40556749D01*
X155600687Y-40599633D01*
X155525281Y-40635298D01*
X155446742Y-40663399D01*
X155365827Y-40683667D01*
X155283315Y-40695907D01*
X155200000Y-40700000D01*
X153000000Y-40700000D01*
X152916685Y-40695907D01*
X152834173Y-40683667D01*
X152753258Y-40663399D01*
X152674719Y-40635298D01*
X152599313Y-40599633D01*
X152527765Y-40556749D01*
X152460766Y-40507059D01*
X152398959Y-40451041D01*
X152342941Y-40389234D01*
X152293251Y-40322235D01*
X152250367Y-40250687D01*
X152214702Y-40175281D01*
X152186601Y-40096742D01*
X152166333Y-40015827D01*
X152154093Y-39933315D01*
X152150000Y-39850000D01*
X152150000Y-38150000D01*
X152154093Y-38066685D01*
X152166333Y-37984173D01*
X152186601Y-37903258D01*
X152214702Y-37824719D01*
X152250367Y-37749313D01*
X152293251Y-37677765D01*
X152342941Y-37610766D01*
X152398959Y-37548959D01*
X152460766Y-37492941D01*
X152527765Y-37443251D01*
X152599313Y-37400367D01*
X152674719Y-37364702D01*
X152753258Y-37336601D01*
X152834173Y-37316333D01*
X152916685Y-37304093D01*
X153000000Y-37300000D01*
X155200000Y-37300000D01*
X155283315Y-37304093D01*
X155283315Y-37304093D01*
G37*
D19*
X154100000Y-39000000D03*
D18*
G36*
X150470567Y-40054695D02*
G01*
X150565213Y-40068734D01*
X150658028Y-40091983D01*
X150748116Y-40124217D01*
X150834612Y-40165127D01*
X150916681Y-40214317D01*
X150993533Y-40271315D01*
X151064429Y-40335571D01*
X151128685Y-40406467D01*
X151185683Y-40483319D01*
X151234873Y-40565388D01*
X151275783Y-40651884D01*
X151308017Y-40741972D01*
X151331266Y-40834787D01*
X151345305Y-40929433D01*
X151350000Y-41025000D01*
X151350000Y-42975000D01*
X151345305Y-43070567D01*
X151331266Y-43165213D01*
X151308017Y-43258028D01*
X151275783Y-43348116D01*
X151234873Y-43434612D01*
X151185683Y-43516681D01*
X151128685Y-43593533D01*
X151064429Y-43664429D01*
X150993533Y-43728685D01*
X150916681Y-43785683D01*
X150834612Y-43834873D01*
X150748116Y-43875783D01*
X150658028Y-43908017D01*
X150565213Y-43931266D01*
X150470567Y-43945305D01*
X150375000Y-43950000D01*
X148425000Y-43950000D01*
X148329433Y-43945305D01*
X148234787Y-43931266D01*
X148141972Y-43908017D01*
X148051884Y-43875783D01*
X147965388Y-43834873D01*
X147883319Y-43785683D01*
X147806467Y-43728685D01*
X147735571Y-43664429D01*
X147671315Y-43593533D01*
X147614317Y-43516681D01*
X147565127Y-43434612D01*
X147524217Y-43348116D01*
X147491983Y-43258028D01*
X147468734Y-43165213D01*
X147454695Y-43070567D01*
X147450000Y-42975000D01*
X147450000Y-41025000D01*
X147454695Y-40929433D01*
X147468734Y-40834787D01*
X147491983Y-40741972D01*
X147524217Y-40651884D01*
X147565127Y-40565388D01*
X147614317Y-40483319D01*
X147671315Y-40406467D01*
X147735571Y-40335571D01*
X147806467Y-40271315D01*
X147883319Y-40214317D01*
X147965388Y-40165127D01*
X148051884Y-40124217D01*
X148141972Y-40091983D01*
X148234787Y-40068734D01*
X148329433Y-40054695D01*
X148425000Y-40050000D01*
X150375000Y-40050000D01*
X150470567Y-40054695D01*
X150470567Y-40054695D01*
G37*
D20*
X149400000Y-42000000D03*
D21*
X195500000Y-87500000D03*
D22*
X198040000Y-87500000D03*
X200580000Y-87500000D03*
D18*
G36*
X191431756Y-35731806D02*
G01*
X191468159Y-35737206D01*
X191503857Y-35746147D01*
X191538506Y-35758545D01*
X191571774Y-35774280D01*
X191603339Y-35793199D01*
X191632897Y-35815121D01*
X191660165Y-35839835D01*
X191684879Y-35867103D01*
X191706801Y-35896661D01*
X191725720Y-35928226D01*
X191741455Y-35961494D01*
X191753853Y-35996143D01*
X191762794Y-36031841D01*
X191768194Y-36068244D01*
X191770000Y-36105000D01*
X191770000Y-37555000D01*
X191768194Y-37591756D01*
X191762794Y-37628159D01*
X191753853Y-37663857D01*
X191741455Y-37698506D01*
X191725720Y-37731774D01*
X191706801Y-37763339D01*
X191684879Y-37792897D01*
X191660165Y-37820165D01*
X191632897Y-37844879D01*
X191603339Y-37866801D01*
X191571774Y-37885720D01*
X191538506Y-37901455D01*
X191503857Y-37913853D01*
X191468159Y-37922794D01*
X191431756Y-37928194D01*
X191395000Y-37930000D01*
X190645000Y-37930000D01*
X190608244Y-37928194D01*
X190571841Y-37922794D01*
X190536143Y-37913853D01*
X190501494Y-37901455D01*
X190468226Y-37885720D01*
X190436661Y-37866801D01*
X190407103Y-37844879D01*
X190379835Y-37820165D01*
X190355121Y-37792897D01*
X190333199Y-37763339D01*
X190314280Y-37731774D01*
X190298545Y-37698506D01*
X190286147Y-37663857D01*
X190277206Y-37628159D01*
X190271806Y-37591756D01*
X190270000Y-37555000D01*
X190270000Y-36105000D01*
X190271806Y-36068244D01*
X190277206Y-36031841D01*
X190286147Y-35996143D01*
X190298545Y-35961494D01*
X190314280Y-35928226D01*
X190333199Y-35896661D01*
X190355121Y-35867103D01*
X190379835Y-35839835D01*
X190407103Y-35815121D01*
X190436661Y-35793199D01*
X190468226Y-35774280D01*
X190501494Y-35758545D01*
X190536143Y-35746147D01*
X190571841Y-35737206D01*
X190608244Y-35731806D01*
X190645000Y-35730000D01*
X191395000Y-35730000D01*
X191431756Y-35731806D01*
X191431756Y-35731806D01*
G37*
D23*
X191020000Y-36830000D03*
D18*
G36*
X192701756Y-37801806D02*
G01*
X192738159Y-37807206D01*
X192773857Y-37816147D01*
X192808506Y-37828545D01*
X192841774Y-37844280D01*
X192873339Y-37863199D01*
X192902897Y-37885121D01*
X192930165Y-37909835D01*
X192954879Y-37937103D01*
X192976801Y-37966661D01*
X192995720Y-37998226D01*
X193011455Y-38031494D01*
X193023853Y-38066143D01*
X193032794Y-38101841D01*
X193038194Y-38138244D01*
X193040000Y-38175000D01*
X193040000Y-39625000D01*
X193038194Y-39661756D01*
X193032794Y-39698159D01*
X193023853Y-39733857D01*
X193011455Y-39768506D01*
X192995720Y-39801774D01*
X192976801Y-39833339D01*
X192954879Y-39862897D01*
X192930165Y-39890165D01*
X192902897Y-39914879D01*
X192873339Y-39936801D01*
X192841774Y-39955720D01*
X192808506Y-39971455D01*
X192773857Y-39983853D01*
X192738159Y-39992794D01*
X192701756Y-39998194D01*
X192665000Y-40000000D01*
X191915000Y-40000000D01*
X191878244Y-39998194D01*
X191841841Y-39992794D01*
X191806143Y-39983853D01*
X191771494Y-39971455D01*
X191738226Y-39955720D01*
X191706661Y-39936801D01*
X191677103Y-39914879D01*
X191649835Y-39890165D01*
X191625121Y-39862897D01*
X191603199Y-39833339D01*
X191584280Y-39801774D01*
X191568545Y-39768506D01*
X191556147Y-39733857D01*
X191547206Y-39698159D01*
X191541806Y-39661756D01*
X191540000Y-39625000D01*
X191540000Y-38175000D01*
X191541806Y-38138244D01*
X191547206Y-38101841D01*
X191556147Y-38066143D01*
X191568545Y-38031494D01*
X191584280Y-37998226D01*
X191603199Y-37966661D01*
X191625121Y-37937103D01*
X191649835Y-37909835D01*
X191677103Y-37885121D01*
X191706661Y-37863199D01*
X191738226Y-37844280D01*
X191771494Y-37828545D01*
X191806143Y-37816147D01*
X191841841Y-37807206D01*
X191878244Y-37801806D01*
X191915000Y-37800000D01*
X192665000Y-37800000D01*
X192701756Y-37801806D01*
X192701756Y-37801806D01*
G37*
D23*
X192290000Y-38900000D03*
D24*
X189750000Y-38900000D03*
D13*
X107000000Y-98000000D03*
D25*
X114620000Y-98000000D03*
X123000000Y-97380000D03*
D13*
X123000000Y-105000000D03*
X192500000Y-46750000D03*
D25*
X184880000Y-46750000D03*
X195380000Y-46750000D03*
D13*
X203000000Y-46750000D03*
X185000000Y-42750000D03*
D25*
X192620000Y-42750000D03*
X114620000Y-63000000D03*
D13*
X107000000Y-63000000D03*
D25*
X114620000Y-70500000D03*
D13*
X107000000Y-70500000D03*
D25*
X138620000Y-44000000D03*
D13*
X131000000Y-44000000D03*
X144000000Y-51200000D03*
D25*
X151620000Y-51200000D03*
X143880000Y-54700000D03*
D13*
X151500000Y-54700000D03*
D25*
X151620000Y-58200000D03*
D13*
X144000000Y-58200000D03*
X165000000Y-50500000D03*
D25*
X157380000Y-50500000D03*
D13*
X157500000Y-57500000D03*
D25*
X165120000Y-57500000D03*
D13*
X157500000Y-54000000D03*
D25*
X165120000Y-54000000D03*
D13*
X151000000Y-71500000D03*
D25*
X151000000Y-79120000D03*
D13*
X125000000Y-90500000D03*
D25*
X132620000Y-90500000D03*
X124880000Y-86500000D03*
D13*
X132500000Y-86500000D03*
X132500000Y-94000000D03*
D25*
X124880000Y-94000000D03*
X154750000Y-79120000D03*
D13*
X154750000Y-71500000D03*
D25*
X182620000Y-90500000D03*
D13*
X175000000Y-90500000D03*
X182500000Y-86500000D03*
D25*
X174880000Y-86500000D03*
X174880000Y-94000000D03*
D13*
X182500000Y-94000000D03*
D25*
X127880000Y-103500000D03*
D13*
X135500000Y-103500000D03*
X130000000Y-122500000D03*
D25*
X130000000Y-114880000D03*
X130000000Y-125380000D03*
D13*
X130000000Y-133000000D03*
D25*
X139000000Y-95620000D03*
D13*
X139000000Y-88000000D03*
X139000000Y-98500000D03*
D25*
X139000000Y-106120000D03*
X142500000Y-88380000D03*
D13*
X142500000Y-96000000D03*
X182500000Y-103500000D03*
D25*
X174880000Y-103500000D03*
X180000000Y-125880000D03*
D13*
X180000000Y-133500000D03*
X180000000Y-115000000D03*
D25*
X180000000Y-122620000D03*
D13*
X153500000Y-88000000D03*
D25*
X153500000Y-95620000D03*
D13*
X157000000Y-98500000D03*
D25*
X157000000Y-106120000D03*
X157000000Y-87880000D03*
D13*
X157000000Y-95500000D03*
D26*
X135250000Y-75500000D03*
X125750000Y-75500000D03*
D27*
X133000000Y-83000000D03*
X130500000Y-83000000D03*
X128000000Y-83000000D03*
X178000000Y-83000000D03*
X180500000Y-83000000D03*
X183000000Y-83000000D03*
D26*
X175750000Y-75500000D03*
X185250000Y-75500000D03*
X124750000Y-125000000D03*
X115250000Y-125000000D03*
D27*
X122500000Y-132500000D03*
X120000000Y-132500000D03*
X117500000Y-132500000D03*
X137500000Y-132500000D03*
X140000000Y-132500000D03*
X142500000Y-132500000D03*
D26*
X135250000Y-125000000D03*
X144750000Y-125000000D03*
X174750000Y-125000000D03*
X165250000Y-125000000D03*
D27*
X172500000Y-132500000D03*
X170000000Y-132500000D03*
X167500000Y-132500000D03*
X187500000Y-132500000D03*
X190000000Y-132500000D03*
X192500000Y-132500000D03*
D26*
X185250000Y-125000000D03*
X194750000Y-125000000D03*
D20*
X125350000Y-109500000D03*
X130050000Y-109500000D03*
X134750000Y-109500000D03*
X184750000Y-109500000D03*
X180050000Y-109500000D03*
X175350000Y-109500000D03*
D28*
X107500000Y-102000000D03*
D29*
X115120000Y-117240000D03*
X107500000Y-104540000D03*
X115120000Y-114700000D03*
X107500000Y-107080000D03*
X115120000Y-112160000D03*
X107500000Y-109620000D03*
X115120000Y-109620000D03*
X107500000Y-112160000D03*
X115120000Y-107080000D03*
X107500000Y-114700000D03*
X115120000Y-104540000D03*
X107500000Y-117240000D03*
X115120000Y-102000000D03*
X185120000Y-50000000D03*
X177500000Y-67780000D03*
X185120000Y-52540000D03*
X177500000Y-65240000D03*
X185120000Y-55080000D03*
X177500000Y-62700000D03*
X185120000Y-57620000D03*
X177500000Y-60160000D03*
X185120000Y-60160000D03*
X177500000Y-57620000D03*
X185120000Y-62700000D03*
X177500000Y-55080000D03*
X185120000Y-65240000D03*
X177500000Y-52540000D03*
X185120000Y-67780000D03*
D28*
X177500000Y-50000000D03*
D29*
X202620000Y-68000000D03*
X195000000Y-83240000D03*
X202620000Y-70540000D03*
X195000000Y-80700000D03*
X202620000Y-73080000D03*
X195000000Y-78160000D03*
X202620000Y-75620000D03*
X195000000Y-75620000D03*
X202620000Y-78160000D03*
X195000000Y-73080000D03*
X202620000Y-80700000D03*
X195000000Y-70540000D03*
X202620000Y-83240000D03*
D28*
X195000000Y-68000000D03*
D29*
X150120000Y-99000000D03*
X142500000Y-116780000D03*
X150120000Y-101540000D03*
X142500000Y-114240000D03*
X150120000Y-104080000D03*
X142500000Y-111700000D03*
X150120000Y-106620000D03*
X142500000Y-109160000D03*
X150120000Y-109160000D03*
X142500000Y-106620000D03*
X150120000Y-111700000D03*
X142500000Y-104080000D03*
X150120000Y-114240000D03*
X142500000Y-101540000D03*
X150120000Y-116780000D03*
D28*
X142500000Y-99000000D03*
D29*
X168120000Y-99000000D03*
X160500000Y-116780000D03*
X168120000Y-101540000D03*
X160500000Y-114240000D03*
X168120000Y-104080000D03*
X160500000Y-111700000D03*
X168120000Y-106620000D03*
X160500000Y-109160000D03*
X168120000Y-109160000D03*
X160500000Y-106620000D03*
X168120000Y-111700000D03*
X160500000Y-104080000D03*
X168120000Y-114240000D03*
X160500000Y-101540000D03*
X168120000Y-116780000D03*
D28*
X160500000Y-99000000D03*
D10*
X114800000Y-86400000D03*
X119680000Y-86400000D03*
D30*
X132500000Y-40000000D03*
D31*
X135040000Y-40000000D03*
X137580000Y-40000000D03*
D28*
X162000000Y-70500000D03*
D29*
X169620000Y-85740000D03*
X162000000Y-73040000D03*
X169620000Y-83200000D03*
X162000000Y-75580000D03*
X169620000Y-80660000D03*
X162000000Y-78120000D03*
X169620000Y-78120000D03*
X162000000Y-80660000D03*
X169620000Y-75580000D03*
X162000000Y-83200000D03*
X169620000Y-73040000D03*
X162000000Y-85740000D03*
X169620000Y-70500000D03*
D28*
X133000000Y-52500000D03*
D29*
X140620000Y-60120000D03*
X133000000Y-55040000D03*
X140620000Y-57580000D03*
X133000000Y-57580000D03*
X140620000Y-55040000D03*
X133000000Y-60120000D03*
X140620000Y-52500000D03*
X147120000Y-72000000D03*
X139500000Y-79620000D03*
X147120000Y-74540000D03*
X139500000Y-77080000D03*
X147120000Y-77080000D03*
X139500000Y-74540000D03*
X147120000Y-79620000D03*
D28*
X139500000Y-72000000D03*
D13*
X147250000Y-68500000D03*
X142250000Y-68500000D03*
D32*
X197000000Y-52400000D03*
D19*
X202150000Y-54000000D03*
X191850000Y-54000000D03*
X107850000Y-55000000D03*
X118150000Y-55000000D03*
D32*
X113000000Y-53400000D03*
D21*
X107600000Y-92200000D03*
D22*
X107600000Y-89660000D03*
X107600000Y-87120000D03*
D21*
X182900000Y-37300000D03*
D22*
X182900000Y-39840000D03*
X180360000Y-37300000D03*
X180360000Y-39840000D03*
X177820000Y-37300000D03*
X177820000Y-39840000D03*
X175280000Y-37300000D03*
X175280000Y-39840000D03*
X172740000Y-37300000D03*
X172740000Y-39840000D03*
X170200000Y-37300000D03*
X170200000Y-39840000D03*
X167660000Y-37300000D03*
X167660000Y-39840000D03*
X165120000Y-37300000D03*
X165120000Y-39840000D03*
D13*
X144000000Y-47900000D03*
D25*
X151620000Y-47900000D03*
D10*
X114800000Y-92500000D03*
X119680000Y-92500000D03*
M02*
