G04 #@! TF.GenerationSoftware,KiCad,Pcbnew,5.1.10*
G04 #@! TF.CreationDate,2021-10-22T12:56:56+13:00*
G04 #@! TF.ProjectId,two_comparator_effect,74776f5f-636f-46d7-9061-7261746f725f,rev?*
G04 #@! TF.SameCoordinates,Original*
G04 #@! TF.FileFunction,Copper,L1,Top*
G04 #@! TF.FilePolarity,Positive*
%FSLAX46Y46*%
G04 Gerber Fmt 4.6, Leading zero omitted, Abs format (unit mm)*
G04 Created by KiCad (PCBNEW 5.1.10) date 2021-10-22 12:56:56*
%MOMM*%
%LPD*%
G01*
G04 APERTURE LIST*
G04 #@! TA.AperFunction,ComponentPad*
%ADD10O,1.600000X1.600000*%
G04 #@! TD*
G04 #@! TA.AperFunction,ComponentPad*
%ADD11C,1.600000*%
G04 #@! TD*
G04 #@! TA.AperFunction,ComponentPad*
%ADD12C,1.800000*%
G04 #@! TD*
G04 #@! TA.AperFunction,WasherPad*
%ADD13C,4.000000*%
G04 #@! TD*
G04 #@! TA.AperFunction,ComponentPad*
%ADD14R,1.100000X1.800000*%
G04 #@! TD*
G04 #@! TA.AperFunction,ComponentPad*
%ADD15R,1.800000X1.800000*%
G04 #@! TD*
G04 #@! TA.AperFunction,ComponentPad*
%ADD16O,1.800000X1.800000*%
G04 #@! TD*
G04 #@! TA.AperFunction,ComponentPad*
%ADD17R,3.500000X3.500000*%
G04 #@! TD*
G04 #@! TA.AperFunction,ComponentPad*
%ADD18R,1.600000X2.400000*%
G04 #@! TD*
G04 #@! TA.AperFunction,ComponentPad*
%ADD19O,1.600000X2.400000*%
G04 #@! TD*
G04 #@! TA.AperFunction,ComponentPad*
%ADD20C,3.000000*%
G04 #@! TD*
G04 #@! TA.AperFunction,ComponentPad*
%ADD21C,2.550000*%
G04 #@! TD*
G04 #@! TA.AperFunction,ComponentPad*
%ADD22C,3.500000*%
G04 #@! TD*
G04 #@! TA.AperFunction,Conductor*
%ADD23C,0.250000*%
G04 #@! TD*
G04 #@! TA.AperFunction,Conductor*
%ADD24C,0.254000*%
G04 #@! TD*
G04 #@! TA.AperFunction,Conductor*
%ADD25C,0.100000*%
G04 #@! TD*
G04 APERTURE END LIST*
D10*
X147680000Y-62800000D03*
D11*
X155300000Y-62800000D03*
D12*
X156300000Y-78100000D03*
X158800000Y-78100000D03*
X161300000Y-78100000D03*
D13*
X154050000Y-70600000D03*
X163550000Y-70600000D03*
D14*
X147550000Y-51625000D03*
G04 #@! TA.AperFunction,ComponentPad*
G36*
G01*
X149540000Y-52250000D02*
X149540000Y-51000000D01*
G75*
G02*
X149815000Y-50725000I275000J0D01*
G01*
X150365000Y-50725000D01*
G75*
G02*
X150640000Y-51000000I0J-275000D01*
G01*
X150640000Y-52250000D01*
G75*
G02*
X150365000Y-52525000I-275000J0D01*
G01*
X149815000Y-52525000D01*
G75*
G02*
X149540000Y-52250000I0J275000D01*
G01*
G37*
G04 #@! TD.AperFunction*
G04 #@! TA.AperFunction,ComponentPad*
G36*
G01*
X148270000Y-50180000D02*
X148270000Y-48930000D01*
G75*
G02*
X148545000Y-48655000I275000J0D01*
G01*
X149095000Y-48655000D01*
G75*
G02*
X149370000Y-48930000I0J-275000D01*
G01*
X149370000Y-50180000D01*
G75*
G02*
X149095000Y-50455000I-275000J0D01*
G01*
X148545000Y-50455000D01*
G75*
G02*
X148270000Y-50180000I0J275000D01*
G01*
G37*
G04 #@! TD.AperFunction*
X164000000Y-49400000D03*
G04 #@! TA.AperFunction,ComponentPad*
G36*
G01*
X165990000Y-50025000D02*
X165990000Y-48775000D01*
G75*
G02*
X166265000Y-48500000I275000J0D01*
G01*
X166815000Y-48500000D01*
G75*
G02*
X167090000Y-48775000I0J-275000D01*
G01*
X167090000Y-50025000D01*
G75*
G02*
X166815000Y-50300000I-275000J0D01*
G01*
X166265000Y-50300000D01*
G75*
G02*
X165990000Y-50025000I0J275000D01*
G01*
G37*
G04 #@! TD.AperFunction*
G04 #@! TA.AperFunction,ComponentPad*
G36*
G01*
X164720000Y-47955000D02*
X164720000Y-46705000D01*
G75*
G02*
X164995000Y-46430000I275000J0D01*
G01*
X165545000Y-46430000D01*
G75*
G02*
X165820000Y-46705000I0J-275000D01*
G01*
X165820000Y-47955000D01*
G75*
G02*
X165545000Y-48230000I-275000J0D01*
G01*
X164995000Y-48230000D01*
G75*
G02*
X164720000Y-47955000I0J275000D01*
G01*
G37*
G04 #@! TD.AperFunction*
D11*
X96100000Y-65700000D03*
X101100000Y-65700000D03*
X170400000Y-75000000D03*
X170400000Y-70000000D03*
X119750000Y-59000000D03*
X114750000Y-59000000D03*
D15*
X124500000Y-59000000D03*
D16*
X132120000Y-59000000D03*
D17*
X140000000Y-55000000D03*
G04 #@! TA.AperFunction,ComponentPad*
G36*
G01*
X139000000Y-47500000D02*
X141000000Y-47500000D01*
G75*
G02*
X141750000Y-48250000I0J-750000D01*
G01*
X141750000Y-49750000D01*
G75*
G02*
X141000000Y-50500000I-750000J0D01*
G01*
X139000000Y-50500000D01*
G75*
G02*
X138250000Y-49750000I0J750000D01*
G01*
X138250000Y-48250000D01*
G75*
G02*
X139000000Y-47500000I750000J0D01*
G01*
G37*
G04 #@! TD.AperFunction*
G04 #@! TA.AperFunction,ComponentPad*
G36*
G01*
X134425000Y-50250000D02*
X136175000Y-50250000D01*
G75*
G02*
X137050000Y-51125000I0J-875000D01*
G01*
X137050000Y-52875000D01*
G75*
G02*
X136175000Y-53750000I-875000J0D01*
G01*
X134425000Y-53750000D01*
G75*
G02*
X133550000Y-52875000I0J875000D01*
G01*
X133550000Y-51125000D01*
G75*
G02*
X134425000Y-50250000I875000J0D01*
G01*
G37*
G04 #@! TD.AperFunction*
D11*
X105000000Y-70100000D03*
D10*
X105000000Y-77720000D03*
X153900000Y-54670000D03*
D11*
X153900000Y-47050000D03*
X147800000Y-58400000D03*
D10*
X155420000Y-58400000D03*
X100500000Y-77620000D03*
D11*
X100500000Y-70000000D03*
D10*
X179500000Y-77620000D03*
D11*
X179500000Y-70000000D03*
X175000000Y-70000000D03*
D10*
X175000000Y-77620000D03*
D11*
X123575000Y-46775000D03*
D10*
X123575000Y-54395000D03*
X127325000Y-54370000D03*
D11*
X127325000Y-46750000D03*
D10*
X171000000Y-54620000D03*
D11*
X171000000Y-47000000D03*
X168000000Y-54000000D03*
D10*
X160380000Y-54000000D03*
D11*
X143000000Y-62900000D03*
D10*
X135380000Y-62900000D03*
D11*
X124400000Y-62900000D03*
D10*
X132020000Y-62900000D03*
X157450000Y-54670000D03*
D11*
X157450000Y-47050000D03*
D10*
X116920000Y-63300000D03*
D11*
X109300000Y-63300000D03*
X131025000Y-46750000D03*
D10*
X131025000Y-54370000D03*
D13*
X125950000Y-70700000D03*
X116450000Y-70700000D03*
D12*
X123700000Y-78200000D03*
X121200000Y-78200000D03*
X118700000Y-78200000D03*
D11*
X130400000Y-71700000D03*
X130400000Y-76700000D03*
D18*
X134100000Y-77900000D03*
D19*
X149340000Y-70280000D03*
X136640000Y-77900000D03*
X146800000Y-70280000D03*
X139180000Y-77900000D03*
X144260000Y-70280000D03*
X141720000Y-77900000D03*
X141720000Y-70280000D03*
X144260000Y-77900000D03*
X139180000Y-70280000D03*
X146800000Y-77900000D03*
X136640000Y-70280000D03*
X149340000Y-77900000D03*
X134100000Y-70280000D03*
D20*
X93750000Y-56600000D03*
X104050000Y-56600000D03*
D21*
X98900000Y-55000000D03*
X181200000Y-55500000D03*
D20*
X186350000Y-57100000D03*
X176050000Y-57100000D03*
D22*
X109625000Y-48750000D03*
X114325000Y-48750000D03*
X119025000Y-48750000D03*
X109625000Y-53450000D03*
X119025000Y-53450000D03*
X114325000Y-53450000D03*
D23*
X102231370Y-65700000D02*
X101100000Y-65700000D01*
X102265002Y-65700000D02*
X102231370Y-65700000D01*
X110465002Y-73900000D02*
X102265002Y-65700000D01*
X116900000Y-73900000D02*
X110465002Y-73900000D01*
X121200000Y-78200000D02*
X116900000Y-73900000D01*
X122099999Y-77300001D02*
X121200000Y-78200000D01*
X122425001Y-76974999D02*
X122099999Y-77300001D01*
X126738003Y-79425001D02*
X124288001Y-76974999D01*
X124288001Y-76974999D02*
X122425001Y-76974999D01*
X141644999Y-79425001D02*
X126738003Y-79425001D01*
X141720000Y-79350000D02*
X141644999Y-79425001D01*
X141720000Y-77900000D02*
X141720000Y-79350000D01*
X161900000Y-75000000D02*
X170400000Y-75000000D01*
X158800000Y-78100000D02*
X161900000Y-75000000D01*
X157900001Y-77200001D02*
X158800000Y-78100000D01*
X157074990Y-76374990D02*
X157900001Y-77200001D01*
X146800000Y-77500000D02*
X147925010Y-76374990D01*
X147925010Y-76374990D02*
X157074990Y-76374990D01*
X146800000Y-77900000D02*
X146800000Y-77500000D01*
X118950001Y-58200001D02*
X119750000Y-59000000D01*
X145385010Y-79425010D02*
X144260000Y-78300000D01*
X149340000Y-78300000D02*
X148214990Y-79425010D01*
X144260000Y-78300000D02*
X144260000Y-77900000D01*
X148214990Y-79425010D02*
X145385010Y-79425010D01*
X149340000Y-77900000D02*
X149340000Y-78300000D01*
X141720000Y-69880000D02*
X138540000Y-66700000D01*
X141720000Y-70280000D02*
X141720000Y-69880000D01*
X138540000Y-66700000D02*
X130700000Y-66700000D01*
X124500000Y-60500000D02*
X124500000Y-59000000D01*
X130700000Y-66700000D02*
X124500000Y-60500000D01*
X120021001Y-55525001D02*
X126550000Y-48996002D01*
X116400001Y-55525001D02*
X120021001Y-55525001D01*
X114325000Y-53450000D02*
X116400001Y-55525001D01*
X136733702Y-48996002D02*
X139879704Y-45850000D01*
X126550000Y-48996002D02*
X136733702Y-48996002D01*
X168184998Y-45850000D02*
X177834998Y-55500000D01*
X177834998Y-55500000D02*
X181200000Y-55500000D01*
X139879704Y-45850000D02*
X168184998Y-45850000D01*
X168620000Y-54620000D02*
X168000000Y-54000000D01*
X171000000Y-54620000D02*
X168620000Y-54620000D01*
X164000000Y-50000000D02*
X164000000Y-49000000D01*
X168000000Y-54000000D02*
X164000000Y-50000000D01*
X165270000Y-48000000D02*
X164270000Y-47000000D01*
X151020000Y-62800000D02*
X155420000Y-58400000D01*
X147680000Y-62800000D02*
X151020000Y-62800000D01*
X157500000Y-47000000D02*
X157450000Y-47050000D01*
X164270000Y-47000000D02*
X157500000Y-47000000D01*
X153850000Y-54620000D02*
X153900000Y-54670000D01*
X149000000Y-54620000D02*
X153850000Y-54620000D01*
X139594999Y-64025001D02*
X149000000Y-54620000D01*
X133145001Y-64025001D02*
X139594999Y-64025001D01*
X132020000Y-62900000D02*
X133145001Y-64025001D01*
X155420000Y-56190000D02*
X153900000Y-54670000D01*
X155420000Y-58400000D02*
X155420000Y-56190000D01*
X104200001Y-76920001D02*
X105000000Y-77720000D01*
X103774999Y-76494999D02*
X104200001Y-76920001D01*
X99959999Y-76494999D02*
X103774999Y-76494999D01*
X99374999Y-78160001D02*
X99374999Y-77079999D01*
X100864988Y-79649990D02*
X99374999Y-78160001D01*
X99374999Y-77079999D02*
X99959999Y-76494999D01*
X122250010Y-79649990D02*
X100864988Y-79649990D01*
X123700000Y-78200000D02*
X122250010Y-79649990D01*
X147000001Y-59199999D02*
X147800000Y-58400000D01*
X146554999Y-59645001D02*
X147000001Y-59199999D01*
X147139999Y-63925001D02*
X146554999Y-63340001D01*
X150531409Y-63925001D02*
X147139999Y-63925001D01*
X152781411Y-61674999D02*
X150531409Y-63925001D01*
X155840001Y-61674999D02*
X152781411Y-61674999D01*
X156825011Y-62660009D02*
X155840001Y-61674999D01*
X156825011Y-71902401D02*
X156825011Y-62660009D01*
X154877403Y-73850009D02*
X156825011Y-71902401D01*
X140289990Y-73850010D02*
X154877403Y-73850009D01*
X136640000Y-77500000D02*
X140289990Y-73850010D01*
X146554999Y-63340001D02*
X146554999Y-59645001D01*
X136640000Y-77900000D02*
X136640000Y-77500000D01*
X101299999Y-78419999D02*
X100500000Y-77620000D01*
X101725001Y-78845001D02*
X101299999Y-78419999D01*
X105540001Y-78845001D02*
X101725001Y-78845001D01*
X106185002Y-78200000D02*
X105540001Y-78845001D01*
X118700000Y-78200000D02*
X106185002Y-78200000D01*
X179120000Y-78000000D02*
X179500000Y-77620000D01*
X178374999Y-78745001D02*
X178700001Y-78419999D01*
X174459999Y-78745001D02*
X178374999Y-78745001D01*
X178700001Y-78419999D02*
X179500000Y-77620000D01*
X173814998Y-78100000D02*
X174459999Y-78745001D01*
X161300000Y-78100000D02*
X173814998Y-78100000D01*
X134100000Y-76450000D02*
X137150000Y-73400000D01*
X134100000Y-77900000D02*
X134100000Y-76450000D01*
X156375001Y-71716001D02*
X156375001Y-63875001D01*
X154691002Y-73400000D02*
X156375001Y-71716001D01*
X156099999Y-63599999D02*
X155300000Y-62800000D01*
X156375001Y-63875001D02*
X156099999Y-63599999D01*
X137150000Y-73400000D02*
X154691002Y-73400000D01*
X157525001Y-79325001D02*
X157199999Y-78999999D01*
X179460001Y-79325001D02*
X157525001Y-79325001D01*
X180625001Y-78160001D02*
X179460001Y-79325001D01*
X180625001Y-77079999D02*
X180625001Y-78160001D01*
X157199999Y-78999999D02*
X156300000Y-78100000D01*
X180040001Y-76494999D02*
X180625001Y-77079999D01*
X176125001Y-76494999D02*
X180040001Y-76494999D01*
X175000000Y-77620000D02*
X176125001Y-76494999D01*
X144390000Y-68700000D02*
X144260000Y-68830000D01*
X144260000Y-68830000D02*
X144260000Y-70280000D01*
X144500000Y-64400000D02*
X144500000Y-68700000D01*
X144500000Y-68700000D02*
X144390000Y-68700000D01*
X143000000Y-62900000D02*
X144500000Y-64400000D01*
X123339999Y-57774999D02*
X118614997Y-62500001D01*
X125660001Y-57774999D02*
X123339999Y-57774999D01*
X118614997Y-62500001D02*
X117719999Y-62500001D01*
X125725001Y-57839999D02*
X125660001Y-57774999D01*
X117719999Y-62500001D02*
X116920000Y-63300000D01*
X125725001Y-58270003D02*
X125725001Y-57839999D01*
X132954998Y-65500000D02*
X125725001Y-58270003D01*
X140400000Y-65500000D02*
X132954998Y-65500000D01*
X143000000Y-62900000D02*
X140400000Y-65500000D01*
X124400000Y-63440000D02*
X124400000Y-62900000D01*
X136640000Y-69880000D02*
X134560000Y-67800000D01*
X136640000Y-70280000D02*
X136640000Y-69880000D01*
X129300000Y-67800000D02*
X124400000Y-62900000D01*
X134560000Y-67800000D02*
X129300000Y-67800000D01*
X121600000Y-48750000D02*
X123575000Y-46775000D01*
X119025000Y-48750000D02*
X121600000Y-48750000D01*
X112249999Y-46674999D02*
X114325000Y-48750000D01*
X98900000Y-55000000D02*
X107225001Y-46674999D01*
X112249999Y-46674999D02*
X107225001Y-46674999D01*
X171000000Y-47000000D02*
X169350010Y-45350010D01*
X116949999Y-51374999D02*
X119025000Y-53450000D01*
X119353988Y-45350010D02*
X116949999Y-47753999D01*
X116949999Y-47753999D02*
X116949999Y-51374999D01*
X169350010Y-45350010D02*
X119353988Y-45350010D01*
X109625000Y-48750000D02*
X109625000Y-53450000D01*
D24*
X116439002Y-47190195D02*
X116409998Y-47213998D01*
X116375676Y-47255820D01*
X116315025Y-47329723D01*
X116283644Y-47388432D01*
X116177550Y-47229651D01*
X115845349Y-46897450D01*
X115454721Y-46636440D01*
X115020679Y-46456654D01*
X114559902Y-46365000D01*
X114090098Y-46365000D01*
X113629321Y-46456654D01*
X113259599Y-46609798D01*
X112813803Y-46164002D01*
X112790000Y-46134998D01*
X112674275Y-46040025D01*
X112542246Y-45969453D01*
X112398985Y-45925996D01*
X112287332Y-45914999D01*
X112287321Y-45914999D01*
X112249999Y-45911323D01*
X112212677Y-45914999D01*
X107262323Y-45914999D01*
X107225000Y-45911323D01*
X107187677Y-45914999D01*
X107187668Y-45914999D01*
X107076015Y-45925996D01*
X106932754Y-45969453D01*
X106800725Y-46040025D01*
X106685000Y-46134998D01*
X106661202Y-46163996D01*
X99601852Y-53223347D01*
X99457127Y-53163400D01*
X99088119Y-53090000D01*
X98711881Y-53090000D01*
X98342873Y-53163400D01*
X97995276Y-53307380D01*
X97682446Y-53516406D01*
X97416406Y-53782446D01*
X97207380Y-54095276D01*
X97063400Y-54442873D01*
X96990000Y-54811881D01*
X96990000Y-55188119D01*
X97063400Y-55557127D01*
X97207380Y-55904724D01*
X97416406Y-56217554D01*
X97682446Y-56483594D01*
X97995276Y-56692620D01*
X98342873Y-56836600D01*
X98711881Y-56910000D01*
X99088119Y-56910000D01*
X99457127Y-56836600D01*
X99804724Y-56692620D01*
X99879249Y-56642824D01*
X101905098Y-56642824D01*
X101954666Y-57060451D01*
X102084757Y-57460383D01*
X102242786Y-57756038D01*
X102558347Y-57912048D01*
X103870395Y-56600000D01*
X104229605Y-56600000D01*
X105541653Y-57912048D01*
X105857214Y-57756038D01*
X106048020Y-57381255D01*
X106162044Y-56976449D01*
X106194902Y-56557176D01*
X106145334Y-56139549D01*
X106015243Y-55739617D01*
X105857214Y-55443962D01*
X105541653Y-55287952D01*
X104229605Y-56600000D01*
X103870395Y-56600000D01*
X102558347Y-55287952D01*
X102242786Y-55443962D01*
X102051980Y-55818745D01*
X101937956Y-56223551D01*
X101905098Y-56642824D01*
X99879249Y-56642824D01*
X100117554Y-56483594D01*
X100383594Y-56217554D01*
X100592620Y-55904724D01*
X100736600Y-55557127D01*
X100810000Y-55188119D01*
X100810000Y-55108347D01*
X102737952Y-55108347D01*
X104050000Y-56420395D01*
X105362048Y-55108347D01*
X105206038Y-54792786D01*
X104831255Y-54601980D01*
X104426449Y-54487956D01*
X104007176Y-54455098D01*
X103589549Y-54504666D01*
X103189617Y-54634757D01*
X102893962Y-54792786D01*
X102737952Y-55108347D01*
X100810000Y-55108347D01*
X100810000Y-54811881D01*
X100736600Y-54442873D01*
X100676653Y-54298148D01*
X107539803Y-47434999D01*
X107635240Y-47434999D01*
X107511440Y-47620279D01*
X107331654Y-48054321D01*
X107240000Y-48515098D01*
X107240000Y-48984902D01*
X107331654Y-49445679D01*
X107511440Y-49879721D01*
X107772450Y-50270349D01*
X108104651Y-50602550D01*
X108495279Y-50863560D01*
X108865000Y-51016704D01*
X108865001Y-51183296D01*
X108495279Y-51336440D01*
X108104651Y-51597450D01*
X107772450Y-51929651D01*
X107511440Y-52320279D01*
X107331654Y-52754321D01*
X107240000Y-53215098D01*
X107240000Y-53684902D01*
X107331654Y-54145679D01*
X107511440Y-54579721D01*
X107772450Y-54970349D01*
X108104651Y-55302550D01*
X108495279Y-55563560D01*
X108929321Y-55743346D01*
X109390098Y-55835000D01*
X109859902Y-55835000D01*
X110320679Y-55743346D01*
X110754721Y-55563560D01*
X111145349Y-55302550D01*
X111477550Y-54970349D01*
X111738560Y-54579721D01*
X111918346Y-54145679D01*
X111975000Y-53860859D01*
X112031654Y-54145679D01*
X112211440Y-54579721D01*
X112472450Y-54970349D01*
X112804651Y-55302550D01*
X113195279Y-55563560D01*
X113629321Y-55743346D01*
X114090098Y-55835000D01*
X114559902Y-55835000D01*
X115020679Y-55743346D01*
X115390401Y-55590202D01*
X115836202Y-56036004D01*
X115860000Y-56065002D01*
X115888998Y-56088800D01*
X115975725Y-56159975D01*
X116107754Y-56230547D01*
X116251015Y-56274004D01*
X116400001Y-56288678D01*
X116437334Y-56285001D01*
X119983679Y-56285001D01*
X120021001Y-56288677D01*
X120058323Y-56285001D01*
X120058334Y-56285001D01*
X120169987Y-56274004D01*
X120313248Y-56230547D01*
X120445277Y-56159975D01*
X120561002Y-56065002D01*
X120584805Y-56035998D01*
X122140000Y-54480803D01*
X122140000Y-54522002D01*
X122304375Y-54522002D01*
X122183091Y-54744040D01*
X122277930Y-55008881D01*
X122422615Y-55250131D01*
X122611586Y-55458519D01*
X122837580Y-55626037D01*
X123091913Y-55746246D01*
X123225961Y-55786904D01*
X123448000Y-55664915D01*
X123448000Y-54522000D01*
X123702000Y-54522000D01*
X123702000Y-55664915D01*
X123924039Y-55786904D01*
X124058087Y-55746246D01*
X124312420Y-55626037D01*
X124538414Y-55458519D01*
X124727385Y-55250131D01*
X124872070Y-55008881D01*
X124966909Y-54744040D01*
X124953254Y-54719040D01*
X125933091Y-54719040D01*
X126027930Y-54983881D01*
X126172615Y-55225131D01*
X126361586Y-55433519D01*
X126587580Y-55601037D01*
X126841913Y-55721246D01*
X126975961Y-55761904D01*
X127198000Y-55639915D01*
X127198000Y-54497000D01*
X127452000Y-54497000D01*
X127452000Y-55639915D01*
X127674039Y-55761904D01*
X127808087Y-55721246D01*
X128062420Y-55601037D01*
X128288414Y-55433519D01*
X128477385Y-55225131D01*
X128622070Y-54983881D01*
X128716909Y-54719040D01*
X129633091Y-54719040D01*
X129727930Y-54983881D01*
X129872615Y-55225131D01*
X130061586Y-55433519D01*
X130287580Y-55601037D01*
X130541913Y-55721246D01*
X130675961Y-55761904D01*
X130898000Y-55639915D01*
X130898000Y-54497000D01*
X131152000Y-54497000D01*
X131152000Y-55639915D01*
X131374039Y-55761904D01*
X131508087Y-55721246D01*
X131762420Y-55601037D01*
X131988414Y-55433519D01*
X132177385Y-55225131D01*
X132322070Y-54983881D01*
X132416909Y-54719040D01*
X132295624Y-54497000D01*
X131152000Y-54497000D01*
X130898000Y-54497000D01*
X129754376Y-54497000D01*
X129633091Y-54719040D01*
X128716909Y-54719040D01*
X128595624Y-54497000D01*
X127452000Y-54497000D01*
X127198000Y-54497000D01*
X126054376Y-54497000D01*
X125933091Y-54719040D01*
X124953254Y-54719040D01*
X124845624Y-54522000D01*
X123702000Y-54522000D01*
X123448000Y-54522000D01*
X123428000Y-54522000D01*
X123428000Y-54268000D01*
X123448000Y-54268000D01*
X123448000Y-54248000D01*
X123702000Y-54248000D01*
X123702000Y-54268000D01*
X124845624Y-54268000D01*
X124966909Y-54045960D01*
X124957957Y-54020960D01*
X125933091Y-54020960D01*
X126054376Y-54243000D01*
X127198000Y-54243000D01*
X127198000Y-53100085D01*
X127452000Y-53100085D01*
X127452000Y-54243000D01*
X128595624Y-54243000D01*
X128716909Y-54020960D01*
X129633091Y-54020960D01*
X129754376Y-54243000D01*
X130898000Y-54243000D01*
X130898000Y-53100085D01*
X131152000Y-53100085D01*
X131152000Y-54243000D01*
X132295624Y-54243000D01*
X132416909Y-54020960D01*
X132322070Y-53756119D01*
X132318401Y-53750000D01*
X132911928Y-53750000D01*
X132924188Y-53874482D01*
X132960498Y-53994180D01*
X133019463Y-54104494D01*
X133098815Y-54201185D01*
X133195506Y-54280537D01*
X133305820Y-54339502D01*
X133425518Y-54375812D01*
X133550000Y-54388072D01*
X135014250Y-54385000D01*
X135173000Y-54226250D01*
X135173000Y-52127000D01*
X135427000Y-52127000D01*
X135427000Y-54226250D01*
X135585750Y-54385000D01*
X137050000Y-54388072D01*
X137174482Y-54375812D01*
X137294180Y-54339502D01*
X137404494Y-54280537D01*
X137501185Y-54201185D01*
X137580537Y-54104494D01*
X137611928Y-54045767D01*
X137611928Y-56750000D01*
X137624188Y-56874482D01*
X137660498Y-56994180D01*
X137719463Y-57104494D01*
X137798815Y-57201185D01*
X137895506Y-57280537D01*
X138005820Y-57339502D01*
X138125518Y-57375812D01*
X138250000Y-57388072D01*
X141750000Y-57388072D01*
X141874482Y-57375812D01*
X141994180Y-57339502D01*
X142104494Y-57280537D01*
X142201185Y-57201185D01*
X142280537Y-57104494D01*
X142339502Y-56994180D01*
X142375812Y-56874482D01*
X142388072Y-56750000D01*
X142388072Y-53250000D01*
X142375812Y-53125518D01*
X142339502Y-53005820D01*
X142280537Y-52895506D01*
X142201185Y-52798815D01*
X142104494Y-52719463D01*
X141994180Y-52660498D01*
X141874482Y-52624188D01*
X141750000Y-52611928D01*
X138250000Y-52611928D01*
X138125518Y-52624188D01*
X138005820Y-52660498D01*
X137895506Y-52719463D01*
X137798815Y-52798815D01*
X137719463Y-52895506D01*
X137686409Y-52957345D01*
X137685502Y-52525000D01*
X146361928Y-52525000D01*
X146374188Y-52649482D01*
X146410498Y-52769180D01*
X146469463Y-52879494D01*
X146548815Y-52976185D01*
X146645506Y-53055537D01*
X146755820Y-53114502D01*
X146875518Y-53150812D01*
X147000000Y-53163072D01*
X147264250Y-53160000D01*
X147423000Y-53001250D01*
X147423000Y-51752000D01*
X147677000Y-51752000D01*
X147677000Y-53001250D01*
X147835750Y-53160000D01*
X148100000Y-53163072D01*
X148224482Y-53150812D01*
X148344180Y-53114502D01*
X148454494Y-53055537D01*
X148551185Y-52976185D01*
X148630537Y-52879494D01*
X148689502Y-52769180D01*
X148725812Y-52649482D01*
X148738072Y-52525000D01*
X148735000Y-51910750D01*
X148576250Y-51752000D01*
X147677000Y-51752000D01*
X147423000Y-51752000D01*
X146523750Y-51752000D01*
X146365000Y-51910750D01*
X146361928Y-52525000D01*
X137685502Y-52525000D01*
X137685000Y-52285750D01*
X137526250Y-52127000D01*
X135427000Y-52127000D01*
X135173000Y-52127000D01*
X133073750Y-52127000D01*
X132915000Y-52285750D01*
X132911928Y-53750000D01*
X132318401Y-53750000D01*
X132177385Y-53514869D01*
X131988414Y-53306481D01*
X131762420Y-53138963D01*
X131508087Y-53018754D01*
X131374039Y-52978096D01*
X131152000Y-53100085D01*
X130898000Y-53100085D01*
X130675961Y-52978096D01*
X130541913Y-53018754D01*
X130287580Y-53138963D01*
X130061586Y-53306481D01*
X129872615Y-53514869D01*
X129727930Y-53756119D01*
X129633091Y-54020960D01*
X128716909Y-54020960D01*
X128622070Y-53756119D01*
X128477385Y-53514869D01*
X128288414Y-53306481D01*
X128062420Y-53138963D01*
X127808087Y-53018754D01*
X127674039Y-52978096D01*
X127452000Y-53100085D01*
X127198000Y-53100085D01*
X126975961Y-52978096D01*
X126841913Y-53018754D01*
X126587580Y-53138963D01*
X126361586Y-53306481D01*
X126172615Y-53514869D01*
X126027930Y-53756119D01*
X125933091Y-54020960D01*
X124957957Y-54020960D01*
X124872070Y-53781119D01*
X124727385Y-53539869D01*
X124538414Y-53331481D01*
X124312420Y-53163963D01*
X124058087Y-53043754D01*
X123924039Y-53003096D01*
X123702002Y-53125084D01*
X123702002Y-52960000D01*
X123660803Y-52960000D01*
X126864802Y-49756002D01*
X133150983Y-49756002D01*
X133098815Y-49798815D01*
X133019463Y-49895506D01*
X132960498Y-50005820D01*
X132924188Y-50125518D01*
X132911928Y-50250000D01*
X132915000Y-51714250D01*
X133073750Y-51873000D01*
X135173000Y-51873000D01*
X135173000Y-51853000D01*
X135427000Y-51853000D01*
X135427000Y-51873000D01*
X137526250Y-51873000D01*
X137685000Y-51714250D01*
X137686931Y-50793633D01*
X137719463Y-50854494D01*
X137798815Y-50951185D01*
X137895506Y-51030537D01*
X138005820Y-51089502D01*
X138125518Y-51125812D01*
X138250000Y-51138072D01*
X139714250Y-51135000D01*
X139873000Y-50976250D01*
X139873000Y-49127000D01*
X140127000Y-49127000D01*
X140127000Y-50976250D01*
X140285750Y-51135000D01*
X141750000Y-51138072D01*
X141874482Y-51125812D01*
X141994180Y-51089502D01*
X142104494Y-51030537D01*
X142201185Y-50951185D01*
X142280537Y-50854494D01*
X142339502Y-50744180D01*
X142345320Y-50725000D01*
X146361928Y-50725000D01*
X146365000Y-51339250D01*
X146523750Y-51498000D01*
X147423000Y-51498000D01*
X147423000Y-50248750D01*
X147264250Y-50090000D01*
X147000000Y-50086928D01*
X146875518Y-50099188D01*
X146755820Y-50135498D01*
X146645506Y-50194463D01*
X146548815Y-50273815D01*
X146469463Y-50370506D01*
X146410498Y-50480820D01*
X146374188Y-50600518D01*
X146361928Y-50725000D01*
X142345320Y-50725000D01*
X142375812Y-50624482D01*
X142388072Y-50500000D01*
X142385000Y-49285750D01*
X142226250Y-49127000D01*
X140127000Y-49127000D01*
X139873000Y-49127000D01*
X139853000Y-49127000D01*
X139853000Y-48930000D01*
X147631928Y-48930000D01*
X147631928Y-50180000D01*
X147649472Y-50358132D01*
X147677000Y-50448880D01*
X147677000Y-51498000D01*
X148576250Y-51498000D01*
X148735000Y-51339250D01*
X148736231Y-51093072D01*
X148901928Y-51093072D01*
X148901928Y-52250000D01*
X148919472Y-52428132D01*
X148971431Y-52599418D01*
X149055808Y-52757276D01*
X149169361Y-52895639D01*
X149307724Y-53009192D01*
X149465582Y-53093569D01*
X149636868Y-53145528D01*
X149815000Y-53163072D01*
X150365000Y-53163072D01*
X150543132Y-53145528D01*
X150714418Y-53093569D01*
X150872276Y-53009192D01*
X151010639Y-52895639D01*
X151124192Y-52757276D01*
X151208569Y-52599418D01*
X151260528Y-52428132D01*
X151278072Y-52250000D01*
X151278072Y-51000000D01*
X151260528Y-50821868D01*
X151208569Y-50650582D01*
X151124192Y-50492724D01*
X151010639Y-50354361D01*
X150872276Y-50240808D01*
X150714418Y-50156431D01*
X150543132Y-50104472D01*
X150365000Y-50086928D01*
X150008072Y-50086928D01*
X150008072Y-48930000D01*
X149990528Y-48751868D01*
X149938569Y-48580582D01*
X149854192Y-48422724D01*
X149740639Y-48284361D01*
X149602276Y-48170808D01*
X149444418Y-48086431D01*
X149273132Y-48034472D01*
X149095000Y-48016928D01*
X148545000Y-48016928D01*
X148366868Y-48034472D01*
X148195582Y-48086431D01*
X148037724Y-48170808D01*
X147899361Y-48284361D01*
X147785808Y-48422724D01*
X147701431Y-48580582D01*
X147649472Y-48751868D01*
X147631928Y-48930000D01*
X139853000Y-48930000D01*
X139853000Y-48873000D01*
X139873000Y-48873000D01*
X139873000Y-47023750D01*
X140127000Y-47023750D01*
X140127000Y-48873000D01*
X142226250Y-48873000D01*
X142385000Y-48714250D01*
X142388072Y-47500000D01*
X142375812Y-47375518D01*
X142339502Y-47255820D01*
X142280537Y-47145506D01*
X142201185Y-47048815D01*
X142104494Y-46969463D01*
X141994180Y-46910498D01*
X141874482Y-46874188D01*
X141750000Y-46861928D01*
X140285750Y-46865000D01*
X140127000Y-47023750D01*
X139873000Y-47023750D01*
X139826878Y-46977628D01*
X140194506Y-46610000D01*
X152529022Y-46610000D01*
X152520147Y-46631426D01*
X152465000Y-46908665D01*
X152465000Y-47191335D01*
X152520147Y-47468574D01*
X152628320Y-47729727D01*
X152785363Y-47964759D01*
X152985241Y-48164637D01*
X153220273Y-48321680D01*
X153481426Y-48429853D01*
X153758665Y-48485000D01*
X154041335Y-48485000D01*
X154318574Y-48429853D01*
X154579727Y-48321680D01*
X154814759Y-48164637D01*
X155014637Y-47964759D01*
X155171680Y-47729727D01*
X155279853Y-47468574D01*
X155335000Y-47191335D01*
X155335000Y-46908665D01*
X155279853Y-46631426D01*
X155270978Y-46610000D01*
X156079022Y-46610000D01*
X156070147Y-46631426D01*
X156015000Y-46908665D01*
X156015000Y-47191335D01*
X156070147Y-47468574D01*
X156178320Y-47729727D01*
X156335363Y-47964759D01*
X156535241Y-48164637D01*
X156770273Y-48321680D01*
X157031426Y-48429853D01*
X157308665Y-48485000D01*
X157591335Y-48485000D01*
X157868574Y-48429853D01*
X158129727Y-48321680D01*
X158364759Y-48164637D01*
X158564637Y-47964759D01*
X158701452Y-47760000D01*
X163955199Y-47760000D01*
X164057127Y-47861928D01*
X163450000Y-47861928D01*
X163325518Y-47874188D01*
X163205820Y-47910498D01*
X163095506Y-47969463D01*
X162998815Y-48048815D01*
X162919463Y-48145506D01*
X162860498Y-48255820D01*
X162824188Y-48375518D01*
X162811928Y-48500000D01*
X162811928Y-50300000D01*
X162824188Y-50424482D01*
X162860498Y-50544180D01*
X162919463Y-50654494D01*
X162998815Y-50751185D01*
X163095506Y-50830537D01*
X163205820Y-50889502D01*
X163325518Y-50925812D01*
X163450000Y-50938072D01*
X163863271Y-50938072D01*
X166601312Y-53676114D01*
X166565000Y-53858665D01*
X166565000Y-54141335D01*
X166620147Y-54418574D01*
X166728320Y-54679727D01*
X166885363Y-54914759D01*
X167085241Y-55114637D01*
X167320273Y-55271680D01*
X167581426Y-55379853D01*
X167858665Y-55435000D01*
X168141335Y-55435000D01*
X168418574Y-55379853D01*
X168455863Y-55364407D01*
X168471014Y-55369003D01*
X168582667Y-55380000D01*
X168582676Y-55380000D01*
X168619999Y-55383676D01*
X168657322Y-55380000D01*
X169781957Y-55380000D01*
X169885363Y-55534759D01*
X170085241Y-55734637D01*
X170320273Y-55891680D01*
X170581426Y-55999853D01*
X170858665Y-56055000D01*
X171141335Y-56055000D01*
X171418574Y-55999853D01*
X171679727Y-55891680D01*
X171914759Y-55734637D01*
X172114637Y-55534759D01*
X172271680Y-55299727D01*
X172379853Y-55038574D01*
X172435000Y-54761335D01*
X172435000Y-54478665D01*
X172379853Y-54201426D01*
X172271680Y-53940273D01*
X172114637Y-53705241D01*
X171914759Y-53505363D01*
X171679727Y-53348320D01*
X171418574Y-53240147D01*
X171141335Y-53185000D01*
X170858665Y-53185000D01*
X170581426Y-53240147D01*
X170320273Y-53348320D01*
X170085241Y-53505363D01*
X169885363Y-53705241D01*
X169781957Y-53860000D01*
X169435000Y-53860000D01*
X169435000Y-53858665D01*
X169379853Y-53581426D01*
X169271680Y-53320273D01*
X169114637Y-53085241D01*
X168914759Y-52885363D01*
X168679727Y-52728320D01*
X168418574Y-52620147D01*
X168141335Y-52565000D01*
X167858665Y-52565000D01*
X167676114Y-52601312D01*
X165955470Y-50880669D01*
X166086868Y-50920528D01*
X166265000Y-50938072D01*
X166815000Y-50938072D01*
X166993132Y-50920528D01*
X167164418Y-50868569D01*
X167322276Y-50784192D01*
X167460639Y-50670639D01*
X167574192Y-50532276D01*
X167658569Y-50374418D01*
X167710528Y-50203132D01*
X167728072Y-50025000D01*
X167728072Y-48775000D01*
X167710528Y-48596868D01*
X167658569Y-48425582D01*
X167574192Y-48267724D01*
X167460639Y-48129361D01*
X167322276Y-48015808D01*
X167164418Y-47931431D01*
X166993132Y-47879472D01*
X166815000Y-47861928D01*
X166458072Y-47861928D01*
X166458072Y-46705000D01*
X166448716Y-46610000D01*
X167870197Y-46610000D01*
X176232991Y-54972795D01*
X176007176Y-54955098D01*
X175589549Y-55004666D01*
X175189617Y-55134757D01*
X174893962Y-55292786D01*
X174737952Y-55608347D01*
X176050000Y-56920395D01*
X176064143Y-56906253D01*
X176243748Y-57085858D01*
X176229605Y-57100000D01*
X177541653Y-58412048D01*
X177857214Y-58256038D01*
X178048020Y-57881255D01*
X178162044Y-57476449D01*
X178194902Y-57057176D01*
X178145334Y-56639549D01*
X178021873Y-56260000D01*
X179447433Y-56260000D01*
X179507380Y-56404724D01*
X179716406Y-56717554D01*
X179982446Y-56983594D01*
X180295276Y-57192620D01*
X180642873Y-57336600D01*
X181011881Y-57410000D01*
X181388119Y-57410000D01*
X181757127Y-57336600D01*
X182104724Y-57192620D01*
X182179249Y-57142824D01*
X184205098Y-57142824D01*
X184254666Y-57560451D01*
X184384757Y-57960383D01*
X184542786Y-58256038D01*
X184858347Y-58412048D01*
X186170395Y-57100000D01*
X186529605Y-57100000D01*
X187841653Y-58412048D01*
X188157214Y-58256038D01*
X188348020Y-57881255D01*
X188462044Y-57476449D01*
X188494902Y-57057176D01*
X188445334Y-56639549D01*
X188315243Y-56239617D01*
X188157214Y-55943962D01*
X187841653Y-55787952D01*
X186529605Y-57100000D01*
X186170395Y-57100000D01*
X184858347Y-55787952D01*
X184542786Y-55943962D01*
X184351980Y-56318745D01*
X184237956Y-56723551D01*
X184205098Y-57142824D01*
X182179249Y-57142824D01*
X182417554Y-56983594D01*
X182683594Y-56717554D01*
X182892620Y-56404724D01*
X183036600Y-56057127D01*
X183110000Y-55688119D01*
X183110000Y-55608347D01*
X185037952Y-55608347D01*
X186350000Y-56920395D01*
X187662048Y-55608347D01*
X187506038Y-55292786D01*
X187131255Y-55101980D01*
X186726449Y-54987956D01*
X186307176Y-54955098D01*
X185889549Y-55004666D01*
X185489617Y-55134757D01*
X185193962Y-55292786D01*
X185037952Y-55608347D01*
X183110000Y-55608347D01*
X183110000Y-55311881D01*
X183036600Y-54942873D01*
X182892620Y-54595276D01*
X182683594Y-54282446D01*
X182417554Y-54016406D01*
X182104724Y-53807380D01*
X181757127Y-53663400D01*
X181388119Y-53590000D01*
X181011881Y-53590000D01*
X180642873Y-53663400D01*
X180295276Y-53807380D01*
X179982446Y-54016406D01*
X179716406Y-54282446D01*
X179507380Y-54595276D01*
X179447433Y-54740000D01*
X178149800Y-54740000D01*
X171789672Y-48379872D01*
X184265000Y-48379872D01*
X184265000Y-48820128D01*
X184350890Y-49251925D01*
X184519369Y-49658669D01*
X184763962Y-50024729D01*
X185075271Y-50336038D01*
X185441331Y-50580631D01*
X185848075Y-50749110D01*
X186279872Y-50835000D01*
X186720128Y-50835000D01*
X187151925Y-50749110D01*
X187558669Y-50580631D01*
X187924729Y-50336038D01*
X188236038Y-50024729D01*
X188480631Y-49658669D01*
X188649110Y-49251925D01*
X188735000Y-48820128D01*
X188735000Y-48379872D01*
X188649110Y-47948075D01*
X188480631Y-47541331D01*
X188236038Y-47175271D01*
X187924729Y-46863962D01*
X187558669Y-46619369D01*
X187151925Y-46450890D01*
X186720128Y-46365000D01*
X186279872Y-46365000D01*
X185848075Y-46450890D01*
X185441331Y-46619369D01*
X185075271Y-46863962D01*
X184763962Y-47175271D01*
X184519369Y-47541331D01*
X184350890Y-47948075D01*
X184265000Y-48379872D01*
X171789672Y-48379872D01*
X171680777Y-48270978D01*
X171914759Y-48114637D01*
X172114637Y-47914759D01*
X172271680Y-47679727D01*
X172379853Y-47418574D01*
X172435000Y-47141335D01*
X172435000Y-46858665D01*
X172379853Y-46581426D01*
X172271680Y-46320273D01*
X172114637Y-46085241D01*
X171914759Y-45885363D01*
X171679727Y-45728320D01*
X171514788Y-45660000D01*
X189340000Y-45660000D01*
X189340001Y-79340000D01*
X180519803Y-79340000D01*
X181136004Y-78723800D01*
X181165002Y-78700002D01*
X181259975Y-78584277D01*
X181330547Y-78452248D01*
X181374004Y-78308987D01*
X181385001Y-78197334D01*
X181385001Y-78197324D01*
X181388677Y-78160001D01*
X181385001Y-78122678D01*
X181385001Y-77117322D01*
X181388677Y-77079999D01*
X181385001Y-77042676D01*
X181385001Y-77042666D01*
X181374004Y-76931013D01*
X181330547Y-76787752D01*
X181302993Y-76736202D01*
X181259975Y-76655722D01*
X181188800Y-76568996D01*
X181165002Y-76539998D01*
X181136005Y-76516201D01*
X180899676Y-76279872D01*
X184365000Y-76279872D01*
X184365000Y-76720128D01*
X184450890Y-77151925D01*
X184619369Y-77558669D01*
X184863962Y-77924729D01*
X185175271Y-78236038D01*
X185541331Y-78480631D01*
X185948075Y-78649110D01*
X186379872Y-78735000D01*
X186820128Y-78735000D01*
X187251925Y-78649110D01*
X187658669Y-78480631D01*
X188024729Y-78236038D01*
X188336038Y-77924729D01*
X188580631Y-77558669D01*
X188749110Y-77151925D01*
X188835000Y-76720128D01*
X188835000Y-76279872D01*
X188749110Y-75848075D01*
X188580631Y-75441331D01*
X188336038Y-75075271D01*
X188024729Y-74763962D01*
X187658669Y-74519369D01*
X187251925Y-74350890D01*
X186820128Y-74265000D01*
X186379872Y-74265000D01*
X185948075Y-74350890D01*
X185541331Y-74519369D01*
X185175271Y-74763962D01*
X184863962Y-75075271D01*
X184619369Y-75441331D01*
X184450890Y-75848075D01*
X184365000Y-76279872D01*
X180899676Y-76279872D01*
X180603804Y-75984001D01*
X180580002Y-75954998D01*
X180464277Y-75860025D01*
X180332248Y-75789453D01*
X180188987Y-75745996D01*
X180077334Y-75734999D01*
X180077323Y-75734999D01*
X180040001Y-75731323D01*
X180002679Y-75734999D01*
X176162326Y-75734999D01*
X176125001Y-75731323D01*
X176087676Y-75734999D01*
X176087668Y-75734999D01*
X175976015Y-75745996D01*
X175832754Y-75789453D01*
X175700725Y-75860025D01*
X175585000Y-75954998D01*
X175561202Y-75983996D01*
X175323886Y-76221312D01*
X175141335Y-76185000D01*
X174858665Y-76185000D01*
X174581426Y-76240147D01*
X174320273Y-76348320D01*
X174085241Y-76505363D01*
X173885363Y-76705241D01*
X173728320Y-76940273D01*
X173620147Y-77201426D01*
X173592583Y-77340000D01*
X162638313Y-77340000D01*
X162492312Y-77121495D01*
X162278505Y-76907688D01*
X162027095Y-76739701D01*
X161747743Y-76623989D01*
X161451184Y-76565000D01*
X161409802Y-76565000D01*
X162214802Y-75760000D01*
X169181957Y-75760000D01*
X169285363Y-75914759D01*
X169485241Y-76114637D01*
X169720273Y-76271680D01*
X169981426Y-76379853D01*
X170258665Y-76435000D01*
X170541335Y-76435000D01*
X170818574Y-76379853D01*
X171079727Y-76271680D01*
X171314759Y-76114637D01*
X171514637Y-75914759D01*
X171671680Y-75679727D01*
X171779853Y-75418574D01*
X171835000Y-75141335D01*
X171835000Y-74858665D01*
X171779853Y-74581426D01*
X171671680Y-74320273D01*
X171514637Y-74085241D01*
X171314759Y-73885363D01*
X171079727Y-73728320D01*
X170818574Y-73620147D01*
X170541335Y-73565000D01*
X170258665Y-73565000D01*
X169981426Y-73620147D01*
X169720273Y-73728320D01*
X169485241Y-73885363D01*
X169285363Y-74085241D01*
X169181957Y-74240000D01*
X161937322Y-74240000D01*
X161899999Y-74236324D01*
X161862676Y-74240000D01*
X161862667Y-74240000D01*
X161751014Y-74250997D01*
X161607753Y-74294454D01*
X161475723Y-74365026D01*
X161419702Y-74411002D01*
X161359999Y-74459999D01*
X161336201Y-74488997D01*
X159208930Y-76616269D01*
X158951184Y-76565000D01*
X158648816Y-76565000D01*
X158391070Y-76616269D01*
X157638793Y-75863992D01*
X157614991Y-75834989D01*
X157499266Y-75740016D01*
X157367237Y-75669444D01*
X157223976Y-75625987D01*
X157112323Y-75614990D01*
X157112312Y-75614990D01*
X157074990Y-75611314D01*
X157037668Y-75614990D01*
X147962332Y-75614990D01*
X147925009Y-75611314D01*
X147887686Y-75614990D01*
X147887677Y-75614990D01*
X147776024Y-75625987D01*
X147632763Y-75669444D01*
X147500734Y-75740016D01*
X147500732Y-75740017D01*
X147500733Y-75740017D01*
X147414006Y-75811191D01*
X147414002Y-75811195D01*
X147385009Y-75834989D01*
X147361215Y-75863982D01*
X147125905Y-76099292D01*
X147081308Y-76085764D01*
X146800000Y-76058057D01*
X146518691Y-76085764D01*
X146248192Y-76167818D01*
X145998899Y-76301068D01*
X145780392Y-76480393D01*
X145601068Y-76698900D01*
X145530000Y-76831858D01*
X145458932Y-76698899D01*
X145279607Y-76480392D01*
X145061100Y-76301068D01*
X144811807Y-76167818D01*
X144541308Y-76085764D01*
X144260000Y-76058057D01*
X143978691Y-76085764D01*
X143708192Y-76167818D01*
X143458899Y-76301068D01*
X143240392Y-76480393D01*
X143061068Y-76698900D01*
X142990000Y-76831858D01*
X142918932Y-76698899D01*
X142739607Y-76480392D01*
X142521100Y-76301068D01*
X142271807Y-76167818D01*
X142001308Y-76085764D01*
X141720000Y-76058057D01*
X141438691Y-76085764D01*
X141168192Y-76167818D01*
X140918899Y-76301068D01*
X140700392Y-76480393D01*
X140521068Y-76698900D01*
X140450000Y-76831858D01*
X140378932Y-76698899D01*
X140199607Y-76480392D01*
X139981100Y-76301068D01*
X139731807Y-76167818D01*
X139461308Y-76085764D01*
X139180000Y-76058057D01*
X139154204Y-76060598D01*
X140604792Y-74610010D01*
X154840071Y-74610008D01*
X154877403Y-74613685D01*
X154914736Y-74610008D01*
X155026389Y-74599011D01*
X155084360Y-74581426D01*
X155169649Y-74555555D01*
X155301679Y-74484983D01*
X155388405Y-74413808D01*
X155388406Y-74413807D01*
X155417404Y-74390009D01*
X155441202Y-74361011D01*
X157336015Y-72466199D01*
X157365012Y-72442402D01*
X157459985Y-72326677D01*
X157530557Y-72194648D01*
X157574014Y-72051387D01*
X157585011Y-71939734D01*
X157585011Y-71939726D01*
X157588687Y-71902401D01*
X157585011Y-71865076D01*
X157585011Y-70340475D01*
X160915000Y-70340475D01*
X160915000Y-70859525D01*
X161016261Y-71368601D01*
X161214893Y-71848141D01*
X161503262Y-72279715D01*
X161870285Y-72646738D01*
X162301859Y-72935107D01*
X162781399Y-73133739D01*
X163290475Y-73235000D01*
X163809525Y-73235000D01*
X164318601Y-73133739D01*
X164798141Y-72935107D01*
X165229715Y-72646738D01*
X165596738Y-72279715D01*
X165885107Y-71848141D01*
X166083739Y-71368601D01*
X166158509Y-70992702D01*
X169586903Y-70992702D01*
X169658486Y-71236671D01*
X169913996Y-71357571D01*
X170188184Y-71426300D01*
X170470512Y-71440217D01*
X170750130Y-71398787D01*
X171016292Y-71303603D01*
X171141514Y-71236671D01*
X171213097Y-70992702D01*
X174186903Y-70992702D01*
X174258486Y-71236671D01*
X174513996Y-71357571D01*
X174788184Y-71426300D01*
X175070512Y-71440217D01*
X175350130Y-71398787D01*
X175616292Y-71303603D01*
X175741514Y-71236671D01*
X175813097Y-70992702D01*
X175000000Y-70179605D01*
X174186903Y-70992702D01*
X171213097Y-70992702D01*
X170400000Y-70179605D01*
X169586903Y-70992702D01*
X166158509Y-70992702D01*
X166185000Y-70859525D01*
X166185000Y-70340475D01*
X166131302Y-70070512D01*
X168959783Y-70070512D01*
X169001213Y-70350130D01*
X169096397Y-70616292D01*
X169163329Y-70741514D01*
X169407298Y-70813097D01*
X170220395Y-70000000D01*
X170579605Y-70000000D01*
X171392702Y-70813097D01*
X171636671Y-70741514D01*
X171757571Y-70486004D01*
X171826300Y-70211816D01*
X171833265Y-70070512D01*
X173559783Y-70070512D01*
X173601213Y-70350130D01*
X173696397Y-70616292D01*
X173763329Y-70741514D01*
X174007298Y-70813097D01*
X174820395Y-70000000D01*
X175179605Y-70000000D01*
X175992702Y-70813097D01*
X176236671Y-70741514D01*
X176357571Y-70486004D01*
X176426300Y-70211816D01*
X176440217Y-69929488D01*
X176429724Y-69858665D01*
X178065000Y-69858665D01*
X178065000Y-70141335D01*
X178120147Y-70418574D01*
X178228320Y-70679727D01*
X178385363Y-70914759D01*
X178585241Y-71114637D01*
X178820273Y-71271680D01*
X179081426Y-71379853D01*
X179358665Y-71435000D01*
X179641335Y-71435000D01*
X179918574Y-71379853D01*
X180179727Y-71271680D01*
X180414759Y-71114637D01*
X180614637Y-70914759D01*
X180771680Y-70679727D01*
X180879853Y-70418574D01*
X180935000Y-70141335D01*
X180935000Y-69858665D01*
X180879853Y-69581426D01*
X180771680Y-69320273D01*
X180614637Y-69085241D01*
X180414759Y-68885363D01*
X180179727Y-68728320D01*
X179918574Y-68620147D01*
X179641335Y-68565000D01*
X179358665Y-68565000D01*
X179081426Y-68620147D01*
X178820273Y-68728320D01*
X178585241Y-68885363D01*
X178385363Y-69085241D01*
X178228320Y-69320273D01*
X178120147Y-69581426D01*
X178065000Y-69858665D01*
X176429724Y-69858665D01*
X176398787Y-69649870D01*
X176303603Y-69383708D01*
X176236671Y-69258486D01*
X175992702Y-69186903D01*
X175179605Y-70000000D01*
X174820395Y-70000000D01*
X174007298Y-69186903D01*
X173763329Y-69258486D01*
X173642429Y-69513996D01*
X173573700Y-69788184D01*
X173559783Y-70070512D01*
X171833265Y-70070512D01*
X171840217Y-69929488D01*
X171798787Y-69649870D01*
X171703603Y-69383708D01*
X171636671Y-69258486D01*
X171392702Y-69186903D01*
X170579605Y-70000000D01*
X170220395Y-70000000D01*
X169407298Y-69186903D01*
X169163329Y-69258486D01*
X169042429Y-69513996D01*
X168973700Y-69788184D01*
X168959783Y-70070512D01*
X166131302Y-70070512D01*
X166083739Y-69831399D01*
X165885107Y-69351859D01*
X165654879Y-69007298D01*
X169586903Y-69007298D01*
X170400000Y-69820395D01*
X171213097Y-69007298D01*
X174186903Y-69007298D01*
X175000000Y-69820395D01*
X175813097Y-69007298D01*
X175741514Y-68763329D01*
X175486004Y-68642429D01*
X175211816Y-68573700D01*
X174929488Y-68559783D01*
X174649870Y-68601213D01*
X174383708Y-68696397D01*
X174258486Y-68763329D01*
X174186903Y-69007298D01*
X171213097Y-69007298D01*
X171141514Y-68763329D01*
X170886004Y-68642429D01*
X170611816Y-68573700D01*
X170329488Y-68559783D01*
X170049870Y-68601213D01*
X169783708Y-68696397D01*
X169658486Y-68763329D01*
X169586903Y-69007298D01*
X165654879Y-69007298D01*
X165596738Y-68920285D01*
X165229715Y-68553262D01*
X164798141Y-68264893D01*
X164318601Y-68066261D01*
X163809525Y-67965000D01*
X163290475Y-67965000D01*
X162781399Y-68066261D01*
X162301859Y-68264893D01*
X161870285Y-68553262D01*
X161503262Y-68920285D01*
X161214893Y-69351859D01*
X161016261Y-69831399D01*
X160915000Y-70340475D01*
X157585011Y-70340475D01*
X157585011Y-62697342D01*
X157588688Y-62660009D01*
X157574014Y-62511023D01*
X157530557Y-62367762D01*
X157459985Y-62235733D01*
X157388810Y-62149006D01*
X157365012Y-62120008D01*
X157336014Y-62096210D01*
X156403805Y-61164001D01*
X156380002Y-61134998D01*
X156264277Y-61040025D01*
X156132248Y-60969453D01*
X155988987Y-60925996D01*
X155877334Y-60914999D01*
X155877323Y-60914999D01*
X155840001Y-60911323D01*
X155802679Y-60914999D01*
X153979803Y-60914999D01*
X155096114Y-59798688D01*
X155278665Y-59835000D01*
X155561335Y-59835000D01*
X155838574Y-59779853D01*
X156099727Y-59671680D01*
X156334759Y-59514637D01*
X156534637Y-59314759D01*
X156691680Y-59079727D01*
X156799853Y-58818574D01*
X156844990Y-58591653D01*
X174737952Y-58591653D01*
X174893962Y-58907214D01*
X175268745Y-59098020D01*
X175673551Y-59212044D01*
X176092824Y-59244902D01*
X176510451Y-59195334D01*
X176910383Y-59065243D01*
X177206038Y-58907214D01*
X177362048Y-58591653D01*
X185037952Y-58591653D01*
X185193962Y-58907214D01*
X185568745Y-59098020D01*
X185973551Y-59212044D01*
X186392824Y-59244902D01*
X186810451Y-59195334D01*
X187210383Y-59065243D01*
X187506038Y-58907214D01*
X187662048Y-58591653D01*
X186350000Y-57279605D01*
X185037952Y-58591653D01*
X177362048Y-58591653D01*
X176050000Y-57279605D01*
X174737952Y-58591653D01*
X156844990Y-58591653D01*
X156855000Y-58541335D01*
X156855000Y-58258665D01*
X156799853Y-57981426D01*
X156691680Y-57720273D01*
X156534637Y-57485241D01*
X156334759Y-57285363D01*
X156180000Y-57181957D01*
X156180000Y-57142824D01*
X173905098Y-57142824D01*
X173954666Y-57560451D01*
X174084757Y-57960383D01*
X174242786Y-58256038D01*
X174558347Y-58412048D01*
X175870395Y-57100000D01*
X174558347Y-55787952D01*
X174242786Y-55943962D01*
X174051980Y-56318745D01*
X173937956Y-56723551D01*
X173905098Y-57142824D01*
X156180000Y-57142824D01*
X156180000Y-56227333D01*
X156183677Y-56190000D01*
X156169003Y-56041014D01*
X156125546Y-55897753D01*
X156054974Y-55765724D01*
X155983799Y-55678997D01*
X155960001Y-55649999D01*
X155931003Y-55626201D01*
X155323842Y-55019040D01*
X156058091Y-55019040D01*
X156152930Y-55283881D01*
X156297615Y-55525131D01*
X156486586Y-55733519D01*
X156712580Y-55901037D01*
X156966913Y-56021246D01*
X157100961Y-56061904D01*
X157323000Y-55939915D01*
X157323000Y-54797000D01*
X157577000Y-54797000D01*
X157577000Y-55939915D01*
X157799039Y-56061904D01*
X157933087Y-56021246D01*
X158187420Y-55901037D01*
X158413414Y-55733519D01*
X158602385Y-55525131D01*
X158747070Y-55283881D01*
X158841909Y-55019040D01*
X158720624Y-54797000D01*
X157577000Y-54797000D01*
X157323000Y-54797000D01*
X156179376Y-54797000D01*
X156058091Y-55019040D01*
X155323842Y-55019040D01*
X155298688Y-54993886D01*
X155335000Y-54811335D01*
X155335000Y-54528665D01*
X155293685Y-54320960D01*
X156058091Y-54320960D01*
X156179376Y-54543000D01*
X157323000Y-54543000D01*
X157323000Y-53400085D01*
X157577000Y-53400085D01*
X157577000Y-54543000D01*
X158720624Y-54543000D01*
X158826571Y-54349039D01*
X158988096Y-54349039D01*
X159028754Y-54483087D01*
X159148963Y-54737420D01*
X159316481Y-54963414D01*
X159524869Y-55152385D01*
X159766119Y-55297070D01*
X160030960Y-55391909D01*
X160253000Y-55270624D01*
X160253000Y-54127000D01*
X160507000Y-54127000D01*
X160507000Y-55270624D01*
X160729040Y-55391909D01*
X160993881Y-55297070D01*
X161235131Y-55152385D01*
X161443519Y-54963414D01*
X161611037Y-54737420D01*
X161731246Y-54483087D01*
X161771904Y-54349039D01*
X161649915Y-54127000D01*
X160507000Y-54127000D01*
X160253000Y-54127000D01*
X159110085Y-54127000D01*
X158988096Y-54349039D01*
X158826571Y-54349039D01*
X158841909Y-54320960D01*
X158747070Y-54056119D01*
X158602385Y-53814869D01*
X158453750Y-53650961D01*
X158988096Y-53650961D01*
X159110085Y-53873000D01*
X160253000Y-53873000D01*
X160253000Y-52729376D01*
X160507000Y-52729376D01*
X160507000Y-53873000D01*
X161649915Y-53873000D01*
X161771904Y-53650961D01*
X161731246Y-53516913D01*
X161611037Y-53262580D01*
X161443519Y-53036586D01*
X161235131Y-52847615D01*
X160993881Y-52702930D01*
X160729040Y-52608091D01*
X160507000Y-52729376D01*
X160253000Y-52729376D01*
X160030960Y-52608091D01*
X159766119Y-52702930D01*
X159524869Y-52847615D01*
X159316481Y-53036586D01*
X159148963Y-53262580D01*
X159028754Y-53516913D01*
X158988096Y-53650961D01*
X158453750Y-53650961D01*
X158413414Y-53606481D01*
X158187420Y-53438963D01*
X157933087Y-53318754D01*
X157799039Y-53278096D01*
X157577000Y-53400085D01*
X157323000Y-53400085D01*
X157100961Y-53278096D01*
X156966913Y-53318754D01*
X156712580Y-53438963D01*
X156486586Y-53606481D01*
X156297615Y-53814869D01*
X156152930Y-54056119D01*
X156058091Y-54320960D01*
X155293685Y-54320960D01*
X155279853Y-54251426D01*
X155171680Y-53990273D01*
X155014637Y-53755241D01*
X154814759Y-53555363D01*
X154579727Y-53398320D01*
X154318574Y-53290147D01*
X154041335Y-53235000D01*
X153758665Y-53235000D01*
X153481426Y-53290147D01*
X153220273Y-53398320D01*
X152985241Y-53555363D01*
X152785363Y-53755241D01*
X152715365Y-53860000D01*
X149037323Y-53860000D01*
X149000000Y-53856324D01*
X148962677Y-53860000D01*
X148962667Y-53860000D01*
X148851014Y-53870997D01*
X148707753Y-53914454D01*
X148575723Y-53985026D01*
X148537487Y-54016406D01*
X148459999Y-54079999D01*
X148436202Y-54108996D01*
X139280198Y-63265001D01*
X136770509Y-63265001D01*
X136815000Y-63041335D01*
X136815000Y-62758665D01*
X136759853Y-62481426D01*
X136651680Y-62220273D01*
X136494637Y-61985241D01*
X136294759Y-61785363D01*
X136059727Y-61628320D01*
X135798574Y-61520147D01*
X135521335Y-61465000D01*
X135238665Y-61465000D01*
X134961426Y-61520147D01*
X134700273Y-61628320D01*
X134465241Y-61785363D01*
X134265363Y-61985241D01*
X134108320Y-62220273D01*
X134000147Y-62481426D01*
X133945000Y-62758665D01*
X133945000Y-63041335D01*
X133989491Y-63265001D01*
X133459803Y-63265001D01*
X133418688Y-63223886D01*
X133455000Y-63041335D01*
X133455000Y-62758665D01*
X133399853Y-62481426D01*
X133291680Y-62220273D01*
X133134637Y-61985241D01*
X132934759Y-61785363D01*
X132699727Y-61628320D01*
X132438574Y-61520147D01*
X132161335Y-61465000D01*
X131878665Y-61465000D01*
X131601426Y-61520147D01*
X131340273Y-61628320D01*
X131105241Y-61785363D01*
X130905363Y-61985241D01*
X130749022Y-62219222D01*
X127378616Y-58848816D01*
X130585000Y-58848816D01*
X130585000Y-59151184D01*
X130643989Y-59447743D01*
X130759701Y-59727095D01*
X130927688Y-59978505D01*
X131141495Y-60192312D01*
X131392905Y-60360299D01*
X131672257Y-60476011D01*
X131968816Y-60535000D01*
X132271184Y-60535000D01*
X132567743Y-60476011D01*
X132847095Y-60360299D01*
X133098505Y-60192312D01*
X133312312Y-59978505D01*
X133480299Y-59727095D01*
X133596011Y-59447743D01*
X133655000Y-59151184D01*
X133655000Y-58848816D01*
X133596011Y-58552257D01*
X133480299Y-58272905D01*
X133312312Y-58021495D01*
X133098505Y-57807688D01*
X132847095Y-57639701D01*
X132567743Y-57523989D01*
X132271184Y-57465000D01*
X131968816Y-57465000D01*
X131672257Y-57523989D01*
X131392905Y-57639701D01*
X131141495Y-57807688D01*
X130927688Y-58021495D01*
X130759701Y-58272905D01*
X130643989Y-58552257D01*
X130585000Y-58848816D01*
X127378616Y-58848816D01*
X126485001Y-57955202D01*
X126485001Y-57877322D01*
X126488677Y-57839999D01*
X126485001Y-57802677D01*
X126485001Y-57802667D01*
X126474004Y-57691013D01*
X126430547Y-57547752D01*
X126359975Y-57415723D01*
X126265002Y-57299998D01*
X126235998Y-57276195D01*
X126223805Y-57264002D01*
X126200002Y-57234998D01*
X126084277Y-57140025D01*
X125952248Y-57069453D01*
X125808987Y-57025996D01*
X125697334Y-57014999D01*
X125697323Y-57014999D01*
X125660001Y-57011323D01*
X125622679Y-57014999D01*
X123377322Y-57014999D01*
X123339999Y-57011323D01*
X123302676Y-57014999D01*
X123302666Y-57014999D01*
X123191013Y-57025996D01*
X123047752Y-57069453D01*
X122915722Y-57140025D01*
X122851636Y-57192620D01*
X122799998Y-57234998D01*
X122776200Y-57263996D01*
X121184425Y-58855772D01*
X121129853Y-58581426D01*
X121021680Y-58320273D01*
X120864637Y-58085241D01*
X120664759Y-57885363D01*
X120429727Y-57728320D01*
X120168574Y-57620147D01*
X119891335Y-57565000D01*
X119608665Y-57565000D01*
X119419977Y-57602533D01*
X119374277Y-57565027D01*
X119242247Y-57494455D01*
X119098986Y-57450999D01*
X118950001Y-57436325D01*
X118801016Y-57450999D01*
X118657755Y-57494455D01*
X118525725Y-57565027D01*
X118410000Y-57660000D01*
X118315027Y-57775725D01*
X118244455Y-57907755D01*
X118200999Y-58051016D01*
X118186325Y-58200001D01*
X118200999Y-58348986D01*
X118244455Y-58492247D01*
X118315027Y-58624277D01*
X118352533Y-58669977D01*
X118315000Y-58858665D01*
X118315000Y-59141335D01*
X118370147Y-59418574D01*
X118478320Y-59679727D01*
X118635363Y-59914759D01*
X118835241Y-60114637D01*
X119070273Y-60271680D01*
X119331426Y-60379853D01*
X119605772Y-60434425D01*
X118300196Y-61740001D01*
X117757321Y-61740001D01*
X117719998Y-61736325D01*
X117682675Y-61740001D01*
X117682666Y-61740001D01*
X117571013Y-61750998D01*
X117427752Y-61794455D01*
X117295723Y-61865027D01*
X117295721Y-61865028D01*
X117295722Y-61865028D01*
X117250022Y-61902533D01*
X117061335Y-61865000D01*
X116778665Y-61865000D01*
X116501426Y-61920147D01*
X116240273Y-62028320D01*
X116005241Y-62185363D01*
X115805363Y-62385241D01*
X115648320Y-62620273D01*
X115540147Y-62881426D01*
X115485000Y-63158665D01*
X115485000Y-63441335D01*
X115540147Y-63718574D01*
X115648320Y-63979727D01*
X115805363Y-64214759D01*
X116005241Y-64414637D01*
X116240273Y-64571680D01*
X116501426Y-64679853D01*
X116778665Y-64735000D01*
X117061335Y-64735000D01*
X117338574Y-64679853D01*
X117599727Y-64571680D01*
X117834759Y-64414637D01*
X118034637Y-64214759D01*
X118191680Y-63979727D01*
X118299853Y-63718574D01*
X118355000Y-63441335D01*
X118355000Y-63260001D01*
X118577675Y-63260001D01*
X118614997Y-63263677D01*
X118652319Y-63260001D01*
X118652330Y-63260001D01*
X118763983Y-63249004D01*
X118907244Y-63205547D01*
X119039273Y-63134975D01*
X119154998Y-63040002D01*
X119178801Y-63010998D01*
X122961928Y-59227872D01*
X122961928Y-59900000D01*
X122974188Y-60024482D01*
X123010498Y-60144180D01*
X123069463Y-60254494D01*
X123148815Y-60351185D01*
X123245506Y-60430537D01*
X123355820Y-60489502D01*
X123475518Y-60525812D01*
X123600000Y-60538072D01*
X123740073Y-60538072D01*
X123750997Y-60648985D01*
X123794454Y-60792246D01*
X123865026Y-60924276D01*
X123902102Y-60969453D01*
X123959999Y-61040001D01*
X123989003Y-61063804D01*
X124390199Y-61465000D01*
X124258665Y-61465000D01*
X123981426Y-61520147D01*
X123720273Y-61628320D01*
X123485241Y-61785363D01*
X123285363Y-61985241D01*
X123128320Y-62220273D01*
X123020147Y-62481426D01*
X122965000Y-62758665D01*
X122965000Y-63041335D01*
X123020147Y-63318574D01*
X123128320Y-63579727D01*
X123285363Y-63814759D01*
X123485241Y-64014637D01*
X123720273Y-64171680D01*
X123981426Y-64279853D01*
X124258665Y-64335000D01*
X124541335Y-64335000D01*
X124723886Y-64298688D01*
X128736205Y-68311008D01*
X128759999Y-68340001D01*
X128788992Y-68363795D01*
X128788996Y-68363799D01*
X128840084Y-68405725D01*
X128875724Y-68434974D01*
X129007753Y-68505546D01*
X129151014Y-68549003D01*
X129262667Y-68560000D01*
X129262676Y-68560000D01*
X129299999Y-68563676D01*
X129337322Y-68560000D01*
X133525401Y-68560000D01*
X133298899Y-68681068D01*
X133080392Y-68860393D01*
X132901068Y-69078900D01*
X132767818Y-69328193D01*
X132685764Y-69598692D01*
X132665000Y-69809509D01*
X132665000Y-70750492D01*
X132685764Y-70961309D01*
X132767818Y-71231808D01*
X132901068Y-71481101D01*
X133080393Y-71699608D01*
X133298900Y-71878932D01*
X133548193Y-72012182D01*
X133818692Y-72094236D01*
X134100000Y-72121943D01*
X134381309Y-72094236D01*
X134651808Y-72012182D01*
X134901101Y-71878932D01*
X135119608Y-71699608D01*
X135298932Y-71481101D01*
X135370000Y-71348142D01*
X135441068Y-71481101D01*
X135620393Y-71699608D01*
X135838900Y-71878932D01*
X136088193Y-72012182D01*
X136358692Y-72094236D01*
X136640000Y-72121943D01*
X136921309Y-72094236D01*
X137191808Y-72012182D01*
X137441101Y-71878932D01*
X137659608Y-71699608D01*
X137838932Y-71481101D01*
X137907265Y-71353259D01*
X138057399Y-71582839D01*
X138255105Y-71784500D01*
X138488354Y-71943715D01*
X138748182Y-72054367D01*
X138830961Y-72071904D01*
X139053000Y-71949915D01*
X139053000Y-70407000D01*
X139033000Y-70407000D01*
X139033000Y-70153000D01*
X139053000Y-70153000D01*
X139053000Y-68610085D01*
X138830961Y-68488096D01*
X138748182Y-68505633D01*
X138488354Y-68616285D01*
X138255105Y-68775500D01*
X138057399Y-68977161D01*
X137907265Y-69206741D01*
X137838932Y-69078899D01*
X137659607Y-68860392D01*
X137441100Y-68681068D01*
X137191807Y-68547818D01*
X136921308Y-68465764D01*
X136640000Y-68438057D01*
X136358691Y-68465764D01*
X136314094Y-68479292D01*
X135294801Y-67460000D01*
X138225199Y-67460000D01*
X139351071Y-68585872D01*
X139307000Y-68610085D01*
X139307000Y-70153000D01*
X139327000Y-70153000D01*
X139327000Y-70407000D01*
X139307000Y-70407000D01*
X139307000Y-71949915D01*
X139529039Y-72071904D01*
X139611818Y-72054367D01*
X139871646Y-71943715D01*
X140104895Y-71784500D01*
X140302601Y-71582839D01*
X140452735Y-71353259D01*
X140521068Y-71481101D01*
X140700393Y-71699608D01*
X140918900Y-71878932D01*
X141168193Y-72012182D01*
X141438692Y-72094236D01*
X141720000Y-72121943D01*
X142001309Y-72094236D01*
X142271808Y-72012182D01*
X142521101Y-71878932D01*
X142739608Y-71699608D01*
X142918932Y-71481101D01*
X142990000Y-71348142D01*
X143061068Y-71481101D01*
X143240393Y-71699608D01*
X143458900Y-71878932D01*
X143708193Y-72012182D01*
X143978692Y-72094236D01*
X144260000Y-72121943D01*
X144541309Y-72094236D01*
X144811808Y-72012182D01*
X145061101Y-71878932D01*
X145279608Y-71699608D01*
X145458932Y-71481101D01*
X145530000Y-71348142D01*
X145601068Y-71481101D01*
X145780393Y-71699608D01*
X145998900Y-71878932D01*
X146248193Y-72012182D01*
X146518692Y-72094236D01*
X146800000Y-72121943D01*
X147081309Y-72094236D01*
X147351808Y-72012182D01*
X147601101Y-71878932D01*
X147819608Y-71699608D01*
X147998932Y-71481101D01*
X148070000Y-71348142D01*
X148141068Y-71481101D01*
X148320393Y-71699608D01*
X148538900Y-71878932D01*
X148788193Y-72012182D01*
X149058692Y-72094236D01*
X149340000Y-72121943D01*
X149621309Y-72094236D01*
X149891808Y-72012182D01*
X150141101Y-71878932D01*
X150359608Y-71699608D01*
X150538932Y-71481101D01*
X150672182Y-71231808D01*
X150754236Y-70961309D01*
X150775000Y-70750491D01*
X150775000Y-69809508D01*
X150754236Y-69598691D01*
X150672182Y-69328192D01*
X150538932Y-69078899D01*
X150359607Y-68860392D01*
X150141100Y-68681068D01*
X149891807Y-68547818D01*
X149621308Y-68465764D01*
X149340000Y-68438057D01*
X149058691Y-68465764D01*
X148788192Y-68547818D01*
X148538899Y-68681068D01*
X148320392Y-68860393D01*
X148141068Y-69078900D01*
X148070000Y-69211858D01*
X147998932Y-69078899D01*
X147819607Y-68860392D01*
X147601100Y-68681068D01*
X147351807Y-68547818D01*
X147081308Y-68465764D01*
X146800000Y-68438057D01*
X146518691Y-68465764D01*
X146248192Y-68547818D01*
X145998899Y-68681068D01*
X145780392Y-68860393D01*
X145601068Y-69078900D01*
X145530000Y-69211858D01*
X145458932Y-69078899D01*
X145279607Y-68860392D01*
X145250252Y-68836301D01*
X145263677Y-68700000D01*
X145260000Y-68662667D01*
X145260000Y-64437322D01*
X145263676Y-64399999D01*
X145260000Y-64362676D01*
X145260000Y-64362667D01*
X145249003Y-64251014D01*
X145205546Y-64107753D01*
X145134974Y-63975724D01*
X145040001Y-63859999D01*
X145011004Y-63836202D01*
X144398688Y-63223886D01*
X144435000Y-63041335D01*
X144435000Y-62758665D01*
X144379853Y-62481426D01*
X144271680Y-62220273D01*
X144114637Y-61985241D01*
X143914759Y-61785363D01*
X143679727Y-61628320D01*
X143418574Y-61520147D01*
X143215124Y-61479678D01*
X146365000Y-58329802D01*
X146365000Y-58541335D01*
X146401312Y-58723887D01*
X146043997Y-59081202D01*
X146014999Y-59105000D01*
X145991201Y-59133998D01*
X145991200Y-59133999D01*
X145920025Y-59220725D01*
X145849453Y-59352755D01*
X145829488Y-59418574D01*
X145807141Y-59492246D01*
X145805997Y-59496016D01*
X145791323Y-59645001D01*
X145795000Y-59682333D01*
X145794999Y-63302678D01*
X145791323Y-63340001D01*
X145794999Y-63377323D01*
X145794999Y-63377333D01*
X145805996Y-63488986D01*
X145828653Y-63563676D01*
X145849453Y-63632247D01*
X145920025Y-63764277D01*
X145959870Y-63812827D01*
X146014998Y-63880002D01*
X146044001Y-63903804D01*
X146576199Y-64436003D01*
X146599998Y-64465002D01*
X146628996Y-64488800D01*
X146715722Y-64559975D01*
X146797344Y-64603603D01*
X146847752Y-64630547D01*
X146991013Y-64674004D01*
X147102666Y-64685001D01*
X147102676Y-64685001D01*
X147139999Y-64688677D01*
X147177322Y-64685001D01*
X150494087Y-64685001D01*
X150531409Y-64688677D01*
X150568731Y-64685001D01*
X150568742Y-64685001D01*
X150680395Y-64674004D01*
X150823656Y-64630547D01*
X150955685Y-64559975D01*
X151071410Y-64465002D01*
X151095213Y-64435998D01*
X153096213Y-62434999D01*
X153909491Y-62434999D01*
X153865000Y-62658665D01*
X153865000Y-62941335D01*
X153920147Y-63218574D01*
X154028320Y-63479727D01*
X154185363Y-63714759D01*
X154385241Y-63914637D01*
X154620273Y-64071680D01*
X154881426Y-64179853D01*
X155158665Y-64235000D01*
X155441335Y-64235000D01*
X155615002Y-64200455D01*
X155615001Y-68476613D01*
X155298141Y-68264893D01*
X154818601Y-68066261D01*
X154309525Y-67965000D01*
X153790475Y-67965000D01*
X153281399Y-68066261D01*
X152801859Y-68264893D01*
X152370285Y-68553262D01*
X152003262Y-68920285D01*
X151714893Y-69351859D01*
X151516261Y-69831399D01*
X151415000Y-70340475D01*
X151415000Y-70859525D01*
X151516261Y-71368601D01*
X151714893Y-71848141D01*
X152003262Y-72279715D01*
X152363547Y-72640000D01*
X137187322Y-72640000D01*
X137149999Y-72636324D01*
X137112676Y-72640000D01*
X137112667Y-72640000D01*
X137001014Y-72650997D01*
X136857753Y-72694454D01*
X136725724Y-72765026D01*
X136609999Y-72859999D01*
X136586201Y-72888997D01*
X133588998Y-75886201D01*
X133560000Y-75909999D01*
X133536202Y-75938997D01*
X133536201Y-75938998D01*
X133465026Y-76025724D01*
X133445674Y-76061928D01*
X133300000Y-76061928D01*
X133175518Y-76074188D01*
X133055820Y-76110498D01*
X132945506Y-76169463D01*
X132848815Y-76248815D01*
X132769463Y-76345506D01*
X132710498Y-76455820D01*
X132674188Y-76575518D01*
X132661928Y-76700000D01*
X132661928Y-78665001D01*
X127052805Y-78665001D01*
X126080506Y-77692702D01*
X129586903Y-77692702D01*
X129658486Y-77936671D01*
X129913996Y-78057571D01*
X130188184Y-78126300D01*
X130470512Y-78140217D01*
X130750130Y-78098787D01*
X131016292Y-78003603D01*
X131141514Y-77936671D01*
X131213097Y-77692702D01*
X130400000Y-76879605D01*
X129586903Y-77692702D01*
X126080506Y-77692702D01*
X125158316Y-76770512D01*
X128959783Y-76770512D01*
X129001213Y-77050130D01*
X129096397Y-77316292D01*
X129163329Y-77441514D01*
X129407298Y-77513097D01*
X130220395Y-76700000D01*
X130579605Y-76700000D01*
X131392702Y-77513097D01*
X131636671Y-77441514D01*
X131757571Y-77186004D01*
X131826300Y-76911816D01*
X131840217Y-76629488D01*
X131798787Y-76349870D01*
X131703603Y-76083708D01*
X131636671Y-75958486D01*
X131392702Y-75886903D01*
X130579605Y-76700000D01*
X130220395Y-76700000D01*
X129407298Y-75886903D01*
X129163329Y-75958486D01*
X129042429Y-76213996D01*
X128973700Y-76488184D01*
X128959783Y-76770512D01*
X125158316Y-76770512D01*
X124851805Y-76464002D01*
X124828002Y-76434998D01*
X124712277Y-76340025D01*
X124580248Y-76269453D01*
X124436987Y-76225996D01*
X124325334Y-76214999D01*
X124325323Y-76214999D01*
X124288001Y-76211323D01*
X124250679Y-76214999D01*
X122462323Y-76214999D01*
X122425000Y-76211323D01*
X122387677Y-76214999D01*
X122387668Y-76214999D01*
X122276015Y-76225996D01*
X122132754Y-76269453D01*
X122000725Y-76340025D01*
X121885000Y-76434998D01*
X121861197Y-76464002D01*
X121608930Y-76716269D01*
X121351184Y-76665000D01*
X121048816Y-76665000D01*
X120791070Y-76716269D01*
X119782099Y-75707298D01*
X129586903Y-75707298D01*
X130400000Y-76520395D01*
X131213097Y-75707298D01*
X131141514Y-75463329D01*
X130886004Y-75342429D01*
X130611816Y-75273700D01*
X130329488Y-75259783D01*
X130049870Y-75301213D01*
X129783708Y-75396397D01*
X129658486Y-75463329D01*
X129586903Y-75707298D01*
X119782099Y-75707298D01*
X117463804Y-73389003D01*
X117440001Y-73359999D01*
X117324276Y-73265026D01*
X117245161Y-73222738D01*
X117698141Y-73035107D01*
X118129715Y-72746738D01*
X118496738Y-72379715D01*
X118785107Y-71948141D01*
X118983739Y-71468601D01*
X119085000Y-70959525D01*
X119085000Y-70440475D01*
X123315000Y-70440475D01*
X123315000Y-70959525D01*
X123416261Y-71468601D01*
X123614893Y-71948141D01*
X123903262Y-72379715D01*
X124270285Y-72746738D01*
X124701859Y-73035107D01*
X125181399Y-73233739D01*
X125690475Y-73335000D01*
X126209525Y-73335000D01*
X126718601Y-73233739D01*
X127198141Y-73035107D01*
X127629715Y-72746738D01*
X127996738Y-72379715D01*
X128285107Y-71948141D01*
X128446433Y-71558665D01*
X128965000Y-71558665D01*
X128965000Y-71841335D01*
X129020147Y-72118574D01*
X129128320Y-72379727D01*
X129285363Y-72614759D01*
X129485241Y-72814637D01*
X129720273Y-72971680D01*
X129981426Y-73079853D01*
X130258665Y-73135000D01*
X130541335Y-73135000D01*
X130818574Y-73079853D01*
X131079727Y-72971680D01*
X131314759Y-72814637D01*
X131514637Y-72614759D01*
X131671680Y-72379727D01*
X131779853Y-72118574D01*
X131835000Y-71841335D01*
X131835000Y-71558665D01*
X131779853Y-71281426D01*
X131671680Y-71020273D01*
X131514637Y-70785241D01*
X131314759Y-70585363D01*
X131079727Y-70428320D01*
X130818574Y-70320147D01*
X130541335Y-70265000D01*
X130258665Y-70265000D01*
X129981426Y-70320147D01*
X129720273Y-70428320D01*
X129485241Y-70585363D01*
X129285363Y-70785241D01*
X129128320Y-71020273D01*
X129020147Y-71281426D01*
X128965000Y-71558665D01*
X128446433Y-71558665D01*
X128483739Y-71468601D01*
X128585000Y-70959525D01*
X128585000Y-70440475D01*
X128483739Y-69931399D01*
X128285107Y-69451859D01*
X127996738Y-69020285D01*
X127629715Y-68653262D01*
X127198141Y-68364893D01*
X126718601Y-68166261D01*
X126209525Y-68065000D01*
X125690475Y-68065000D01*
X125181399Y-68166261D01*
X124701859Y-68364893D01*
X124270285Y-68653262D01*
X123903262Y-69020285D01*
X123614893Y-69451859D01*
X123416261Y-69931399D01*
X123315000Y-70440475D01*
X119085000Y-70440475D01*
X118983739Y-69931399D01*
X118785107Y-69451859D01*
X118496738Y-69020285D01*
X118129715Y-68653262D01*
X117698141Y-68364893D01*
X117218601Y-68166261D01*
X116709525Y-68065000D01*
X116190475Y-68065000D01*
X115681399Y-68166261D01*
X115201859Y-68364893D01*
X114770285Y-68653262D01*
X114403262Y-69020285D01*
X114114893Y-69451859D01*
X113916261Y-69931399D01*
X113815000Y-70440475D01*
X113815000Y-70959525D01*
X113916261Y-71468601D01*
X114114893Y-71948141D01*
X114403262Y-72379715D01*
X114770285Y-72746738D01*
X115201859Y-73035107D01*
X115455093Y-73140000D01*
X110779804Y-73140000D01*
X102828806Y-65189003D01*
X102805003Y-65159999D01*
X102689278Y-65065026D01*
X102557249Y-64994454D01*
X102413988Y-64950997D01*
X102319150Y-64941656D01*
X102214637Y-64785241D01*
X102014759Y-64585363D01*
X101779727Y-64428320D01*
X101518574Y-64320147D01*
X101380601Y-64292702D01*
X108486903Y-64292702D01*
X108558486Y-64536671D01*
X108813996Y-64657571D01*
X109088184Y-64726300D01*
X109370512Y-64740217D01*
X109650130Y-64698787D01*
X109916292Y-64603603D01*
X110041514Y-64536671D01*
X110113097Y-64292702D01*
X109300000Y-63479605D01*
X108486903Y-64292702D01*
X101380601Y-64292702D01*
X101241335Y-64265000D01*
X100958665Y-64265000D01*
X100681426Y-64320147D01*
X100420273Y-64428320D01*
X100185241Y-64585363D01*
X99985363Y-64785241D01*
X99828320Y-65020273D01*
X99720147Y-65281426D01*
X99665000Y-65558665D01*
X99665000Y-65841335D01*
X99720147Y-66118574D01*
X99828320Y-66379727D01*
X99985363Y-66614759D01*
X100185241Y-66814637D01*
X100420273Y-66971680D01*
X100681426Y-67079853D01*
X100958665Y-67135000D01*
X101241335Y-67135000D01*
X101518574Y-67079853D01*
X101779727Y-66971680D01*
X102014759Y-66814637D01*
X102159798Y-66669598D01*
X104319223Y-68829022D01*
X104085241Y-68985363D01*
X103885363Y-69185241D01*
X103728320Y-69420273D01*
X103620147Y-69681426D01*
X103565000Y-69958665D01*
X103565000Y-70241335D01*
X103620147Y-70518574D01*
X103728320Y-70779727D01*
X103885363Y-71014759D01*
X104085241Y-71214637D01*
X104320273Y-71371680D01*
X104581426Y-71479853D01*
X104858665Y-71535000D01*
X105141335Y-71535000D01*
X105418574Y-71479853D01*
X105679727Y-71371680D01*
X105914759Y-71214637D01*
X106114637Y-71014759D01*
X106270978Y-70780778D01*
X109901202Y-74411002D01*
X109925001Y-74440001D01*
X110040726Y-74534974D01*
X110172755Y-74605546D01*
X110316016Y-74649003D01*
X110427669Y-74660000D01*
X110427678Y-74660000D01*
X110465001Y-74663676D01*
X110502324Y-74660000D01*
X116585199Y-74660000D01*
X118590198Y-76665000D01*
X118548816Y-76665000D01*
X118252257Y-76723989D01*
X117972905Y-76839701D01*
X117721495Y-77007688D01*
X117507688Y-77221495D01*
X117361687Y-77440000D01*
X106407417Y-77440000D01*
X106379853Y-77301426D01*
X106271680Y-77040273D01*
X106114637Y-76805241D01*
X105914759Y-76605363D01*
X105679727Y-76448320D01*
X105418574Y-76340147D01*
X105141335Y-76285000D01*
X104858665Y-76285000D01*
X104676113Y-76321312D01*
X104338803Y-75984002D01*
X104315000Y-75954998D01*
X104199275Y-75860025D01*
X104067246Y-75789453D01*
X103923985Y-75745996D01*
X103812332Y-75734999D01*
X103812321Y-75734999D01*
X103774999Y-75731323D01*
X103737677Y-75734999D01*
X99997322Y-75734999D01*
X99959999Y-75731323D01*
X99922676Y-75734999D01*
X99922666Y-75734999D01*
X99811013Y-75745996D01*
X99667752Y-75789453D01*
X99535722Y-75860025D01*
X99474829Y-75909999D01*
X99419998Y-75954998D01*
X99396199Y-75983997D01*
X98863997Y-76516200D01*
X98834999Y-76539998D01*
X98811201Y-76568996D01*
X98811200Y-76568997D01*
X98740025Y-76655723D01*
X98669453Y-76787753D01*
X98644202Y-76870998D01*
X98625997Y-76931013D01*
X98618221Y-77009964D01*
X98611323Y-77079999D01*
X98615000Y-77117331D01*
X98614999Y-78122678D01*
X98611323Y-78160001D01*
X98614999Y-78197323D01*
X98614999Y-78197333D01*
X98625996Y-78308986D01*
X98651253Y-78392247D01*
X98669453Y-78452247D01*
X98740025Y-78584277D01*
X98761958Y-78611002D01*
X98834998Y-78700002D01*
X98864002Y-78723805D01*
X99480197Y-79340000D01*
X90660000Y-79340000D01*
X90660000Y-76279872D01*
X91265000Y-76279872D01*
X91265000Y-76720128D01*
X91350890Y-77151925D01*
X91519369Y-77558669D01*
X91763962Y-77924729D01*
X92075271Y-78236038D01*
X92441331Y-78480631D01*
X92848075Y-78649110D01*
X93279872Y-78735000D01*
X93720128Y-78735000D01*
X94151925Y-78649110D01*
X94558669Y-78480631D01*
X94924729Y-78236038D01*
X95236038Y-77924729D01*
X95480631Y-77558669D01*
X95649110Y-77151925D01*
X95735000Y-76720128D01*
X95735000Y-76279872D01*
X95649110Y-75848075D01*
X95480631Y-75441331D01*
X95236038Y-75075271D01*
X94924729Y-74763962D01*
X94558669Y-74519369D01*
X94151925Y-74350890D01*
X93720128Y-74265000D01*
X93279872Y-74265000D01*
X92848075Y-74350890D01*
X92441331Y-74519369D01*
X92075271Y-74763962D01*
X91763962Y-75075271D01*
X91519369Y-75441331D01*
X91350890Y-75848075D01*
X91265000Y-76279872D01*
X90660000Y-76279872D01*
X90660000Y-70992702D01*
X99686903Y-70992702D01*
X99758486Y-71236671D01*
X100013996Y-71357571D01*
X100288184Y-71426300D01*
X100570512Y-71440217D01*
X100850130Y-71398787D01*
X101116292Y-71303603D01*
X101241514Y-71236671D01*
X101313097Y-70992702D01*
X100500000Y-70179605D01*
X99686903Y-70992702D01*
X90660000Y-70992702D01*
X90660000Y-70070512D01*
X99059783Y-70070512D01*
X99101213Y-70350130D01*
X99196397Y-70616292D01*
X99263329Y-70741514D01*
X99507298Y-70813097D01*
X100320395Y-70000000D01*
X100679605Y-70000000D01*
X101492702Y-70813097D01*
X101736671Y-70741514D01*
X101857571Y-70486004D01*
X101926300Y-70211816D01*
X101940217Y-69929488D01*
X101898787Y-69649870D01*
X101803603Y-69383708D01*
X101736671Y-69258486D01*
X101492702Y-69186903D01*
X100679605Y-70000000D01*
X100320395Y-70000000D01*
X99507298Y-69186903D01*
X99263329Y-69258486D01*
X99142429Y-69513996D01*
X99073700Y-69788184D01*
X99059783Y-70070512D01*
X90660000Y-70070512D01*
X90660000Y-69007298D01*
X99686903Y-69007298D01*
X100500000Y-69820395D01*
X101313097Y-69007298D01*
X101241514Y-68763329D01*
X100986004Y-68642429D01*
X100711816Y-68573700D01*
X100429488Y-68559783D01*
X100149870Y-68601213D01*
X99883708Y-68696397D01*
X99758486Y-68763329D01*
X99686903Y-69007298D01*
X90660000Y-69007298D01*
X90660000Y-66692702D01*
X95286903Y-66692702D01*
X95358486Y-66936671D01*
X95613996Y-67057571D01*
X95888184Y-67126300D01*
X96170512Y-67140217D01*
X96450130Y-67098787D01*
X96716292Y-67003603D01*
X96841514Y-66936671D01*
X96913097Y-66692702D01*
X96100000Y-65879605D01*
X95286903Y-66692702D01*
X90660000Y-66692702D01*
X90660000Y-65770512D01*
X94659783Y-65770512D01*
X94701213Y-66050130D01*
X94796397Y-66316292D01*
X94863329Y-66441514D01*
X95107298Y-66513097D01*
X95920395Y-65700000D01*
X96279605Y-65700000D01*
X97092702Y-66513097D01*
X97336671Y-66441514D01*
X97457571Y-66186004D01*
X97526300Y-65911816D01*
X97540217Y-65629488D01*
X97498787Y-65349870D01*
X97403603Y-65083708D01*
X97336671Y-64958486D01*
X97092702Y-64886903D01*
X96279605Y-65700000D01*
X95920395Y-65700000D01*
X95107298Y-64886903D01*
X94863329Y-64958486D01*
X94742429Y-65213996D01*
X94673700Y-65488184D01*
X94659783Y-65770512D01*
X90660000Y-65770512D01*
X90660000Y-64707298D01*
X95286903Y-64707298D01*
X96100000Y-65520395D01*
X96913097Y-64707298D01*
X96841514Y-64463329D01*
X96586004Y-64342429D01*
X96311816Y-64273700D01*
X96029488Y-64259783D01*
X95749870Y-64301213D01*
X95483708Y-64396397D01*
X95358486Y-64463329D01*
X95286903Y-64707298D01*
X90660000Y-64707298D01*
X90660000Y-63370512D01*
X107859783Y-63370512D01*
X107901213Y-63650130D01*
X107996397Y-63916292D01*
X108063329Y-64041514D01*
X108307298Y-64113097D01*
X109120395Y-63300000D01*
X109479605Y-63300000D01*
X110292702Y-64113097D01*
X110536671Y-64041514D01*
X110657571Y-63786004D01*
X110726300Y-63511816D01*
X110740217Y-63229488D01*
X110698787Y-62949870D01*
X110603603Y-62683708D01*
X110536671Y-62558486D01*
X110292702Y-62486903D01*
X109479605Y-63300000D01*
X109120395Y-63300000D01*
X108307298Y-62486903D01*
X108063329Y-62558486D01*
X107942429Y-62813996D01*
X107873700Y-63088184D01*
X107859783Y-63370512D01*
X90660000Y-63370512D01*
X90660000Y-62307298D01*
X108486903Y-62307298D01*
X109300000Y-63120395D01*
X110113097Y-62307298D01*
X110041514Y-62063329D01*
X109786004Y-61942429D01*
X109511816Y-61873700D01*
X109229488Y-61859783D01*
X108949870Y-61901213D01*
X108683708Y-61996397D01*
X108558486Y-62063329D01*
X108486903Y-62307298D01*
X90660000Y-62307298D01*
X90660000Y-58858665D01*
X113315000Y-58858665D01*
X113315000Y-59141335D01*
X113370147Y-59418574D01*
X113478320Y-59679727D01*
X113635363Y-59914759D01*
X113835241Y-60114637D01*
X114070273Y-60271680D01*
X114331426Y-60379853D01*
X114608665Y-60435000D01*
X114891335Y-60435000D01*
X115168574Y-60379853D01*
X115429727Y-60271680D01*
X115664759Y-60114637D01*
X115864637Y-59914759D01*
X116021680Y-59679727D01*
X116129853Y-59418574D01*
X116185000Y-59141335D01*
X116185000Y-58858665D01*
X116129853Y-58581426D01*
X116021680Y-58320273D01*
X115864637Y-58085241D01*
X115664759Y-57885363D01*
X115429727Y-57728320D01*
X115168574Y-57620147D01*
X114891335Y-57565000D01*
X114608665Y-57565000D01*
X114331426Y-57620147D01*
X114070273Y-57728320D01*
X113835241Y-57885363D01*
X113635363Y-58085241D01*
X113478320Y-58320273D01*
X113370147Y-58581426D01*
X113315000Y-58858665D01*
X90660000Y-58858665D01*
X90660000Y-58091653D01*
X92437952Y-58091653D01*
X92593962Y-58407214D01*
X92968745Y-58598020D01*
X93373551Y-58712044D01*
X93792824Y-58744902D01*
X94210451Y-58695334D01*
X94610383Y-58565243D01*
X94906038Y-58407214D01*
X95062048Y-58091653D01*
X102737952Y-58091653D01*
X102893962Y-58407214D01*
X103268745Y-58598020D01*
X103673551Y-58712044D01*
X104092824Y-58744902D01*
X104510451Y-58695334D01*
X104910383Y-58565243D01*
X105206038Y-58407214D01*
X105362048Y-58091653D01*
X104050000Y-56779605D01*
X102737952Y-58091653D01*
X95062048Y-58091653D01*
X93750000Y-56779605D01*
X92437952Y-58091653D01*
X90660000Y-58091653D01*
X90660000Y-56642824D01*
X91605098Y-56642824D01*
X91654666Y-57060451D01*
X91784757Y-57460383D01*
X91942786Y-57756038D01*
X92258347Y-57912048D01*
X93570395Y-56600000D01*
X93929605Y-56600000D01*
X95241653Y-57912048D01*
X95557214Y-57756038D01*
X95748020Y-57381255D01*
X95862044Y-56976449D01*
X95894902Y-56557176D01*
X95845334Y-56139549D01*
X95715243Y-55739617D01*
X95557214Y-55443962D01*
X95241653Y-55287952D01*
X93929605Y-56600000D01*
X93570395Y-56600000D01*
X92258347Y-55287952D01*
X91942786Y-55443962D01*
X91751980Y-55818745D01*
X91637956Y-56223551D01*
X91605098Y-56642824D01*
X90660000Y-56642824D01*
X90660000Y-55108347D01*
X92437952Y-55108347D01*
X93750000Y-56420395D01*
X95062048Y-55108347D01*
X94906038Y-54792786D01*
X94531255Y-54601980D01*
X94126449Y-54487956D01*
X93707176Y-54455098D01*
X93289549Y-54504666D01*
X92889617Y-54634757D01*
X92593962Y-54792786D01*
X92437952Y-55108347D01*
X90660000Y-55108347D01*
X90660000Y-48279872D01*
X91265000Y-48279872D01*
X91265000Y-48720128D01*
X91350890Y-49151925D01*
X91519369Y-49558669D01*
X91763962Y-49924729D01*
X92075271Y-50236038D01*
X92441331Y-50480631D01*
X92848075Y-50649110D01*
X93279872Y-50735000D01*
X93720128Y-50735000D01*
X94151925Y-50649110D01*
X94558669Y-50480631D01*
X94924729Y-50236038D01*
X95236038Y-49924729D01*
X95480631Y-49558669D01*
X95649110Y-49151925D01*
X95735000Y-48720128D01*
X95735000Y-48279872D01*
X95649110Y-47848075D01*
X95480631Y-47441331D01*
X95236038Y-47075271D01*
X94924729Y-46763962D01*
X94558669Y-46519369D01*
X94151925Y-46350890D01*
X93720128Y-46265000D01*
X93279872Y-46265000D01*
X92848075Y-46350890D01*
X92441331Y-46519369D01*
X92075271Y-46763962D01*
X91763962Y-47075271D01*
X91519369Y-47441331D01*
X91350890Y-47848075D01*
X91265000Y-48279872D01*
X90660000Y-48279872D01*
X90660000Y-45660000D01*
X117969196Y-45660000D01*
X116439002Y-47190195D01*
G04 #@! TA.AperFunction,Conductor*
D25*
G36*
X116439002Y-47190195D02*
G01*
X116409998Y-47213998D01*
X116375676Y-47255820D01*
X116315025Y-47329723D01*
X116283644Y-47388432D01*
X116177550Y-47229651D01*
X115845349Y-46897450D01*
X115454721Y-46636440D01*
X115020679Y-46456654D01*
X114559902Y-46365000D01*
X114090098Y-46365000D01*
X113629321Y-46456654D01*
X113259599Y-46609798D01*
X112813803Y-46164002D01*
X112790000Y-46134998D01*
X112674275Y-46040025D01*
X112542246Y-45969453D01*
X112398985Y-45925996D01*
X112287332Y-45914999D01*
X112287321Y-45914999D01*
X112249999Y-45911323D01*
X112212677Y-45914999D01*
X107262323Y-45914999D01*
X107225000Y-45911323D01*
X107187677Y-45914999D01*
X107187668Y-45914999D01*
X107076015Y-45925996D01*
X106932754Y-45969453D01*
X106800725Y-46040025D01*
X106685000Y-46134998D01*
X106661202Y-46163996D01*
X99601852Y-53223347D01*
X99457127Y-53163400D01*
X99088119Y-53090000D01*
X98711881Y-53090000D01*
X98342873Y-53163400D01*
X97995276Y-53307380D01*
X97682446Y-53516406D01*
X97416406Y-53782446D01*
X97207380Y-54095276D01*
X97063400Y-54442873D01*
X96990000Y-54811881D01*
X96990000Y-55188119D01*
X97063400Y-55557127D01*
X97207380Y-55904724D01*
X97416406Y-56217554D01*
X97682446Y-56483594D01*
X97995276Y-56692620D01*
X98342873Y-56836600D01*
X98711881Y-56910000D01*
X99088119Y-56910000D01*
X99457127Y-56836600D01*
X99804724Y-56692620D01*
X99879249Y-56642824D01*
X101905098Y-56642824D01*
X101954666Y-57060451D01*
X102084757Y-57460383D01*
X102242786Y-57756038D01*
X102558347Y-57912048D01*
X103870395Y-56600000D01*
X104229605Y-56600000D01*
X105541653Y-57912048D01*
X105857214Y-57756038D01*
X106048020Y-57381255D01*
X106162044Y-56976449D01*
X106194902Y-56557176D01*
X106145334Y-56139549D01*
X106015243Y-55739617D01*
X105857214Y-55443962D01*
X105541653Y-55287952D01*
X104229605Y-56600000D01*
X103870395Y-56600000D01*
X102558347Y-55287952D01*
X102242786Y-55443962D01*
X102051980Y-55818745D01*
X101937956Y-56223551D01*
X101905098Y-56642824D01*
X99879249Y-56642824D01*
X100117554Y-56483594D01*
X100383594Y-56217554D01*
X100592620Y-55904724D01*
X100736600Y-55557127D01*
X100810000Y-55188119D01*
X100810000Y-55108347D01*
X102737952Y-55108347D01*
X104050000Y-56420395D01*
X105362048Y-55108347D01*
X105206038Y-54792786D01*
X104831255Y-54601980D01*
X104426449Y-54487956D01*
X104007176Y-54455098D01*
X103589549Y-54504666D01*
X103189617Y-54634757D01*
X102893962Y-54792786D01*
X102737952Y-55108347D01*
X100810000Y-55108347D01*
X100810000Y-54811881D01*
X100736600Y-54442873D01*
X100676653Y-54298148D01*
X107539803Y-47434999D01*
X107635240Y-47434999D01*
X107511440Y-47620279D01*
X107331654Y-48054321D01*
X107240000Y-48515098D01*
X107240000Y-48984902D01*
X107331654Y-49445679D01*
X107511440Y-49879721D01*
X107772450Y-50270349D01*
X108104651Y-50602550D01*
X108495279Y-50863560D01*
X108865000Y-51016704D01*
X108865001Y-51183296D01*
X108495279Y-51336440D01*
X108104651Y-51597450D01*
X107772450Y-51929651D01*
X107511440Y-52320279D01*
X107331654Y-52754321D01*
X107240000Y-53215098D01*
X107240000Y-53684902D01*
X107331654Y-54145679D01*
X107511440Y-54579721D01*
X107772450Y-54970349D01*
X108104651Y-55302550D01*
X108495279Y-55563560D01*
X108929321Y-55743346D01*
X109390098Y-55835000D01*
X109859902Y-55835000D01*
X110320679Y-55743346D01*
X110754721Y-55563560D01*
X111145349Y-55302550D01*
X111477550Y-54970349D01*
X111738560Y-54579721D01*
X111918346Y-54145679D01*
X111975000Y-53860859D01*
X112031654Y-54145679D01*
X112211440Y-54579721D01*
X112472450Y-54970349D01*
X112804651Y-55302550D01*
X113195279Y-55563560D01*
X113629321Y-55743346D01*
X114090098Y-55835000D01*
X114559902Y-55835000D01*
X115020679Y-55743346D01*
X115390401Y-55590202D01*
X115836202Y-56036004D01*
X115860000Y-56065002D01*
X115888998Y-56088800D01*
X115975725Y-56159975D01*
X116107754Y-56230547D01*
X116251015Y-56274004D01*
X116400001Y-56288678D01*
X116437334Y-56285001D01*
X119983679Y-56285001D01*
X120021001Y-56288677D01*
X120058323Y-56285001D01*
X120058334Y-56285001D01*
X120169987Y-56274004D01*
X120313248Y-56230547D01*
X120445277Y-56159975D01*
X120561002Y-56065002D01*
X120584805Y-56035998D01*
X122140000Y-54480803D01*
X122140000Y-54522002D01*
X122304375Y-54522002D01*
X122183091Y-54744040D01*
X122277930Y-55008881D01*
X122422615Y-55250131D01*
X122611586Y-55458519D01*
X122837580Y-55626037D01*
X123091913Y-55746246D01*
X123225961Y-55786904D01*
X123448000Y-55664915D01*
X123448000Y-54522000D01*
X123702000Y-54522000D01*
X123702000Y-55664915D01*
X123924039Y-55786904D01*
X124058087Y-55746246D01*
X124312420Y-55626037D01*
X124538414Y-55458519D01*
X124727385Y-55250131D01*
X124872070Y-55008881D01*
X124966909Y-54744040D01*
X124953254Y-54719040D01*
X125933091Y-54719040D01*
X126027930Y-54983881D01*
X126172615Y-55225131D01*
X126361586Y-55433519D01*
X126587580Y-55601037D01*
X126841913Y-55721246D01*
X126975961Y-55761904D01*
X127198000Y-55639915D01*
X127198000Y-54497000D01*
X127452000Y-54497000D01*
X127452000Y-55639915D01*
X127674039Y-55761904D01*
X127808087Y-55721246D01*
X128062420Y-55601037D01*
X128288414Y-55433519D01*
X128477385Y-55225131D01*
X128622070Y-54983881D01*
X128716909Y-54719040D01*
X129633091Y-54719040D01*
X129727930Y-54983881D01*
X129872615Y-55225131D01*
X130061586Y-55433519D01*
X130287580Y-55601037D01*
X130541913Y-55721246D01*
X130675961Y-55761904D01*
X130898000Y-55639915D01*
X130898000Y-54497000D01*
X131152000Y-54497000D01*
X131152000Y-55639915D01*
X131374039Y-55761904D01*
X131508087Y-55721246D01*
X131762420Y-55601037D01*
X131988414Y-55433519D01*
X132177385Y-55225131D01*
X132322070Y-54983881D01*
X132416909Y-54719040D01*
X132295624Y-54497000D01*
X131152000Y-54497000D01*
X130898000Y-54497000D01*
X129754376Y-54497000D01*
X129633091Y-54719040D01*
X128716909Y-54719040D01*
X128595624Y-54497000D01*
X127452000Y-54497000D01*
X127198000Y-54497000D01*
X126054376Y-54497000D01*
X125933091Y-54719040D01*
X124953254Y-54719040D01*
X124845624Y-54522000D01*
X123702000Y-54522000D01*
X123448000Y-54522000D01*
X123428000Y-54522000D01*
X123428000Y-54268000D01*
X123448000Y-54268000D01*
X123448000Y-54248000D01*
X123702000Y-54248000D01*
X123702000Y-54268000D01*
X124845624Y-54268000D01*
X124966909Y-54045960D01*
X124957957Y-54020960D01*
X125933091Y-54020960D01*
X126054376Y-54243000D01*
X127198000Y-54243000D01*
X127198000Y-53100085D01*
X127452000Y-53100085D01*
X127452000Y-54243000D01*
X128595624Y-54243000D01*
X128716909Y-54020960D01*
X129633091Y-54020960D01*
X129754376Y-54243000D01*
X130898000Y-54243000D01*
X130898000Y-53100085D01*
X131152000Y-53100085D01*
X131152000Y-54243000D01*
X132295624Y-54243000D01*
X132416909Y-54020960D01*
X132322070Y-53756119D01*
X132318401Y-53750000D01*
X132911928Y-53750000D01*
X132924188Y-53874482D01*
X132960498Y-53994180D01*
X133019463Y-54104494D01*
X133098815Y-54201185D01*
X133195506Y-54280537D01*
X133305820Y-54339502D01*
X133425518Y-54375812D01*
X133550000Y-54388072D01*
X135014250Y-54385000D01*
X135173000Y-54226250D01*
X135173000Y-52127000D01*
X135427000Y-52127000D01*
X135427000Y-54226250D01*
X135585750Y-54385000D01*
X137050000Y-54388072D01*
X137174482Y-54375812D01*
X137294180Y-54339502D01*
X137404494Y-54280537D01*
X137501185Y-54201185D01*
X137580537Y-54104494D01*
X137611928Y-54045767D01*
X137611928Y-56750000D01*
X137624188Y-56874482D01*
X137660498Y-56994180D01*
X137719463Y-57104494D01*
X137798815Y-57201185D01*
X137895506Y-57280537D01*
X138005820Y-57339502D01*
X138125518Y-57375812D01*
X138250000Y-57388072D01*
X141750000Y-57388072D01*
X141874482Y-57375812D01*
X141994180Y-57339502D01*
X142104494Y-57280537D01*
X142201185Y-57201185D01*
X142280537Y-57104494D01*
X142339502Y-56994180D01*
X142375812Y-56874482D01*
X142388072Y-56750000D01*
X142388072Y-53250000D01*
X142375812Y-53125518D01*
X142339502Y-53005820D01*
X142280537Y-52895506D01*
X142201185Y-52798815D01*
X142104494Y-52719463D01*
X141994180Y-52660498D01*
X141874482Y-52624188D01*
X141750000Y-52611928D01*
X138250000Y-52611928D01*
X138125518Y-52624188D01*
X138005820Y-52660498D01*
X137895506Y-52719463D01*
X137798815Y-52798815D01*
X137719463Y-52895506D01*
X137686409Y-52957345D01*
X137685502Y-52525000D01*
X146361928Y-52525000D01*
X146374188Y-52649482D01*
X146410498Y-52769180D01*
X146469463Y-52879494D01*
X146548815Y-52976185D01*
X146645506Y-53055537D01*
X146755820Y-53114502D01*
X146875518Y-53150812D01*
X147000000Y-53163072D01*
X147264250Y-53160000D01*
X147423000Y-53001250D01*
X147423000Y-51752000D01*
X147677000Y-51752000D01*
X147677000Y-53001250D01*
X147835750Y-53160000D01*
X148100000Y-53163072D01*
X148224482Y-53150812D01*
X148344180Y-53114502D01*
X148454494Y-53055537D01*
X148551185Y-52976185D01*
X148630537Y-52879494D01*
X148689502Y-52769180D01*
X148725812Y-52649482D01*
X148738072Y-52525000D01*
X148735000Y-51910750D01*
X148576250Y-51752000D01*
X147677000Y-51752000D01*
X147423000Y-51752000D01*
X146523750Y-51752000D01*
X146365000Y-51910750D01*
X146361928Y-52525000D01*
X137685502Y-52525000D01*
X137685000Y-52285750D01*
X137526250Y-52127000D01*
X135427000Y-52127000D01*
X135173000Y-52127000D01*
X133073750Y-52127000D01*
X132915000Y-52285750D01*
X132911928Y-53750000D01*
X132318401Y-53750000D01*
X132177385Y-53514869D01*
X131988414Y-53306481D01*
X131762420Y-53138963D01*
X131508087Y-53018754D01*
X131374039Y-52978096D01*
X131152000Y-53100085D01*
X130898000Y-53100085D01*
X130675961Y-52978096D01*
X130541913Y-53018754D01*
X130287580Y-53138963D01*
X130061586Y-53306481D01*
X129872615Y-53514869D01*
X129727930Y-53756119D01*
X129633091Y-54020960D01*
X128716909Y-54020960D01*
X128622070Y-53756119D01*
X128477385Y-53514869D01*
X128288414Y-53306481D01*
X128062420Y-53138963D01*
X127808087Y-53018754D01*
X127674039Y-52978096D01*
X127452000Y-53100085D01*
X127198000Y-53100085D01*
X126975961Y-52978096D01*
X126841913Y-53018754D01*
X126587580Y-53138963D01*
X126361586Y-53306481D01*
X126172615Y-53514869D01*
X126027930Y-53756119D01*
X125933091Y-54020960D01*
X124957957Y-54020960D01*
X124872070Y-53781119D01*
X124727385Y-53539869D01*
X124538414Y-53331481D01*
X124312420Y-53163963D01*
X124058087Y-53043754D01*
X123924039Y-53003096D01*
X123702002Y-53125084D01*
X123702002Y-52960000D01*
X123660803Y-52960000D01*
X126864802Y-49756002D01*
X133150983Y-49756002D01*
X133098815Y-49798815D01*
X133019463Y-49895506D01*
X132960498Y-50005820D01*
X132924188Y-50125518D01*
X132911928Y-50250000D01*
X132915000Y-51714250D01*
X133073750Y-51873000D01*
X135173000Y-51873000D01*
X135173000Y-51853000D01*
X135427000Y-51853000D01*
X135427000Y-51873000D01*
X137526250Y-51873000D01*
X137685000Y-51714250D01*
X137686931Y-50793633D01*
X137719463Y-50854494D01*
X137798815Y-50951185D01*
X137895506Y-51030537D01*
X138005820Y-51089502D01*
X138125518Y-51125812D01*
X138250000Y-51138072D01*
X139714250Y-51135000D01*
X139873000Y-50976250D01*
X139873000Y-49127000D01*
X140127000Y-49127000D01*
X140127000Y-50976250D01*
X140285750Y-51135000D01*
X141750000Y-51138072D01*
X141874482Y-51125812D01*
X141994180Y-51089502D01*
X142104494Y-51030537D01*
X142201185Y-50951185D01*
X142280537Y-50854494D01*
X142339502Y-50744180D01*
X142345320Y-50725000D01*
X146361928Y-50725000D01*
X146365000Y-51339250D01*
X146523750Y-51498000D01*
X147423000Y-51498000D01*
X147423000Y-50248750D01*
X147264250Y-50090000D01*
X147000000Y-50086928D01*
X146875518Y-50099188D01*
X146755820Y-50135498D01*
X146645506Y-50194463D01*
X146548815Y-50273815D01*
X146469463Y-50370506D01*
X146410498Y-50480820D01*
X146374188Y-50600518D01*
X146361928Y-50725000D01*
X142345320Y-50725000D01*
X142375812Y-50624482D01*
X142388072Y-50500000D01*
X142385000Y-49285750D01*
X142226250Y-49127000D01*
X140127000Y-49127000D01*
X139873000Y-49127000D01*
X139853000Y-49127000D01*
X139853000Y-48930000D01*
X147631928Y-48930000D01*
X147631928Y-50180000D01*
X147649472Y-50358132D01*
X147677000Y-50448880D01*
X147677000Y-51498000D01*
X148576250Y-51498000D01*
X148735000Y-51339250D01*
X148736231Y-51093072D01*
X148901928Y-51093072D01*
X148901928Y-52250000D01*
X148919472Y-52428132D01*
X148971431Y-52599418D01*
X149055808Y-52757276D01*
X149169361Y-52895639D01*
X149307724Y-53009192D01*
X149465582Y-53093569D01*
X149636868Y-53145528D01*
X149815000Y-53163072D01*
X150365000Y-53163072D01*
X150543132Y-53145528D01*
X150714418Y-53093569D01*
X150872276Y-53009192D01*
X151010639Y-52895639D01*
X151124192Y-52757276D01*
X151208569Y-52599418D01*
X151260528Y-52428132D01*
X151278072Y-52250000D01*
X151278072Y-51000000D01*
X151260528Y-50821868D01*
X151208569Y-50650582D01*
X151124192Y-50492724D01*
X151010639Y-50354361D01*
X150872276Y-50240808D01*
X150714418Y-50156431D01*
X150543132Y-50104472D01*
X150365000Y-50086928D01*
X150008072Y-50086928D01*
X150008072Y-48930000D01*
X149990528Y-48751868D01*
X149938569Y-48580582D01*
X149854192Y-48422724D01*
X149740639Y-48284361D01*
X149602276Y-48170808D01*
X149444418Y-48086431D01*
X149273132Y-48034472D01*
X149095000Y-48016928D01*
X148545000Y-48016928D01*
X148366868Y-48034472D01*
X148195582Y-48086431D01*
X148037724Y-48170808D01*
X147899361Y-48284361D01*
X147785808Y-48422724D01*
X147701431Y-48580582D01*
X147649472Y-48751868D01*
X147631928Y-48930000D01*
X139853000Y-48930000D01*
X139853000Y-48873000D01*
X139873000Y-48873000D01*
X139873000Y-47023750D01*
X140127000Y-47023750D01*
X140127000Y-48873000D01*
X142226250Y-48873000D01*
X142385000Y-48714250D01*
X142388072Y-47500000D01*
X142375812Y-47375518D01*
X142339502Y-47255820D01*
X142280537Y-47145506D01*
X142201185Y-47048815D01*
X142104494Y-46969463D01*
X141994180Y-46910498D01*
X141874482Y-46874188D01*
X141750000Y-46861928D01*
X140285750Y-46865000D01*
X140127000Y-47023750D01*
X139873000Y-47023750D01*
X139826878Y-46977628D01*
X140194506Y-46610000D01*
X152529022Y-46610000D01*
X152520147Y-46631426D01*
X152465000Y-46908665D01*
X152465000Y-47191335D01*
X152520147Y-47468574D01*
X152628320Y-47729727D01*
X152785363Y-47964759D01*
X152985241Y-48164637D01*
X153220273Y-48321680D01*
X153481426Y-48429853D01*
X153758665Y-48485000D01*
X154041335Y-48485000D01*
X154318574Y-48429853D01*
X154579727Y-48321680D01*
X154814759Y-48164637D01*
X155014637Y-47964759D01*
X155171680Y-47729727D01*
X155279853Y-47468574D01*
X155335000Y-47191335D01*
X155335000Y-46908665D01*
X155279853Y-46631426D01*
X155270978Y-46610000D01*
X156079022Y-46610000D01*
X156070147Y-46631426D01*
X156015000Y-46908665D01*
X156015000Y-47191335D01*
X156070147Y-47468574D01*
X156178320Y-47729727D01*
X156335363Y-47964759D01*
X156535241Y-48164637D01*
X156770273Y-48321680D01*
X157031426Y-48429853D01*
X157308665Y-48485000D01*
X157591335Y-48485000D01*
X157868574Y-48429853D01*
X158129727Y-48321680D01*
X158364759Y-48164637D01*
X158564637Y-47964759D01*
X158701452Y-47760000D01*
X163955199Y-47760000D01*
X164057127Y-47861928D01*
X163450000Y-47861928D01*
X163325518Y-47874188D01*
X163205820Y-47910498D01*
X163095506Y-47969463D01*
X162998815Y-48048815D01*
X162919463Y-48145506D01*
X162860498Y-48255820D01*
X162824188Y-48375518D01*
X162811928Y-48500000D01*
X162811928Y-50300000D01*
X162824188Y-50424482D01*
X162860498Y-50544180D01*
X162919463Y-50654494D01*
X162998815Y-50751185D01*
X163095506Y-50830537D01*
X163205820Y-50889502D01*
X163325518Y-50925812D01*
X163450000Y-50938072D01*
X163863271Y-50938072D01*
X166601312Y-53676114D01*
X166565000Y-53858665D01*
X166565000Y-54141335D01*
X166620147Y-54418574D01*
X166728320Y-54679727D01*
X166885363Y-54914759D01*
X167085241Y-55114637D01*
X167320273Y-55271680D01*
X167581426Y-55379853D01*
X167858665Y-55435000D01*
X168141335Y-55435000D01*
X168418574Y-55379853D01*
X168455863Y-55364407D01*
X168471014Y-55369003D01*
X168582667Y-55380000D01*
X168582676Y-55380000D01*
X168619999Y-55383676D01*
X168657322Y-55380000D01*
X169781957Y-55380000D01*
X169885363Y-55534759D01*
X170085241Y-55734637D01*
X170320273Y-55891680D01*
X170581426Y-55999853D01*
X170858665Y-56055000D01*
X171141335Y-56055000D01*
X171418574Y-55999853D01*
X171679727Y-55891680D01*
X171914759Y-55734637D01*
X172114637Y-55534759D01*
X172271680Y-55299727D01*
X172379853Y-55038574D01*
X172435000Y-54761335D01*
X172435000Y-54478665D01*
X172379853Y-54201426D01*
X172271680Y-53940273D01*
X172114637Y-53705241D01*
X171914759Y-53505363D01*
X171679727Y-53348320D01*
X171418574Y-53240147D01*
X171141335Y-53185000D01*
X170858665Y-53185000D01*
X170581426Y-53240147D01*
X170320273Y-53348320D01*
X170085241Y-53505363D01*
X169885363Y-53705241D01*
X169781957Y-53860000D01*
X169435000Y-53860000D01*
X169435000Y-53858665D01*
X169379853Y-53581426D01*
X169271680Y-53320273D01*
X169114637Y-53085241D01*
X168914759Y-52885363D01*
X168679727Y-52728320D01*
X168418574Y-52620147D01*
X168141335Y-52565000D01*
X167858665Y-52565000D01*
X167676114Y-52601312D01*
X165955470Y-50880669D01*
X166086868Y-50920528D01*
X166265000Y-50938072D01*
X166815000Y-50938072D01*
X166993132Y-50920528D01*
X167164418Y-50868569D01*
X167322276Y-50784192D01*
X167460639Y-50670639D01*
X167574192Y-50532276D01*
X167658569Y-50374418D01*
X167710528Y-50203132D01*
X167728072Y-50025000D01*
X167728072Y-48775000D01*
X167710528Y-48596868D01*
X167658569Y-48425582D01*
X167574192Y-48267724D01*
X167460639Y-48129361D01*
X167322276Y-48015808D01*
X167164418Y-47931431D01*
X166993132Y-47879472D01*
X166815000Y-47861928D01*
X166458072Y-47861928D01*
X166458072Y-46705000D01*
X166448716Y-46610000D01*
X167870197Y-46610000D01*
X176232991Y-54972795D01*
X176007176Y-54955098D01*
X175589549Y-55004666D01*
X175189617Y-55134757D01*
X174893962Y-55292786D01*
X174737952Y-55608347D01*
X176050000Y-56920395D01*
X176064143Y-56906253D01*
X176243748Y-57085858D01*
X176229605Y-57100000D01*
X177541653Y-58412048D01*
X177857214Y-58256038D01*
X178048020Y-57881255D01*
X178162044Y-57476449D01*
X178194902Y-57057176D01*
X178145334Y-56639549D01*
X178021873Y-56260000D01*
X179447433Y-56260000D01*
X179507380Y-56404724D01*
X179716406Y-56717554D01*
X179982446Y-56983594D01*
X180295276Y-57192620D01*
X180642873Y-57336600D01*
X181011881Y-57410000D01*
X181388119Y-57410000D01*
X181757127Y-57336600D01*
X182104724Y-57192620D01*
X182179249Y-57142824D01*
X184205098Y-57142824D01*
X184254666Y-57560451D01*
X184384757Y-57960383D01*
X184542786Y-58256038D01*
X184858347Y-58412048D01*
X186170395Y-57100000D01*
X186529605Y-57100000D01*
X187841653Y-58412048D01*
X188157214Y-58256038D01*
X188348020Y-57881255D01*
X188462044Y-57476449D01*
X188494902Y-57057176D01*
X188445334Y-56639549D01*
X188315243Y-56239617D01*
X188157214Y-55943962D01*
X187841653Y-55787952D01*
X186529605Y-57100000D01*
X186170395Y-57100000D01*
X184858347Y-55787952D01*
X184542786Y-55943962D01*
X184351980Y-56318745D01*
X184237956Y-56723551D01*
X184205098Y-57142824D01*
X182179249Y-57142824D01*
X182417554Y-56983594D01*
X182683594Y-56717554D01*
X182892620Y-56404724D01*
X183036600Y-56057127D01*
X183110000Y-55688119D01*
X183110000Y-55608347D01*
X185037952Y-55608347D01*
X186350000Y-56920395D01*
X187662048Y-55608347D01*
X187506038Y-55292786D01*
X187131255Y-55101980D01*
X186726449Y-54987956D01*
X186307176Y-54955098D01*
X185889549Y-55004666D01*
X185489617Y-55134757D01*
X185193962Y-55292786D01*
X185037952Y-55608347D01*
X183110000Y-55608347D01*
X183110000Y-55311881D01*
X183036600Y-54942873D01*
X182892620Y-54595276D01*
X182683594Y-54282446D01*
X182417554Y-54016406D01*
X182104724Y-53807380D01*
X181757127Y-53663400D01*
X181388119Y-53590000D01*
X181011881Y-53590000D01*
X180642873Y-53663400D01*
X180295276Y-53807380D01*
X179982446Y-54016406D01*
X179716406Y-54282446D01*
X179507380Y-54595276D01*
X179447433Y-54740000D01*
X178149800Y-54740000D01*
X171789672Y-48379872D01*
X184265000Y-48379872D01*
X184265000Y-48820128D01*
X184350890Y-49251925D01*
X184519369Y-49658669D01*
X184763962Y-50024729D01*
X185075271Y-50336038D01*
X185441331Y-50580631D01*
X185848075Y-50749110D01*
X186279872Y-50835000D01*
X186720128Y-50835000D01*
X187151925Y-50749110D01*
X187558669Y-50580631D01*
X187924729Y-50336038D01*
X188236038Y-50024729D01*
X188480631Y-49658669D01*
X188649110Y-49251925D01*
X188735000Y-48820128D01*
X188735000Y-48379872D01*
X188649110Y-47948075D01*
X188480631Y-47541331D01*
X188236038Y-47175271D01*
X187924729Y-46863962D01*
X187558669Y-46619369D01*
X187151925Y-46450890D01*
X186720128Y-46365000D01*
X186279872Y-46365000D01*
X185848075Y-46450890D01*
X185441331Y-46619369D01*
X185075271Y-46863962D01*
X184763962Y-47175271D01*
X184519369Y-47541331D01*
X184350890Y-47948075D01*
X184265000Y-48379872D01*
X171789672Y-48379872D01*
X171680777Y-48270978D01*
X171914759Y-48114637D01*
X172114637Y-47914759D01*
X172271680Y-47679727D01*
X172379853Y-47418574D01*
X172435000Y-47141335D01*
X172435000Y-46858665D01*
X172379853Y-46581426D01*
X172271680Y-46320273D01*
X172114637Y-46085241D01*
X171914759Y-45885363D01*
X171679727Y-45728320D01*
X171514788Y-45660000D01*
X189340000Y-45660000D01*
X189340001Y-79340000D01*
X180519803Y-79340000D01*
X181136004Y-78723800D01*
X181165002Y-78700002D01*
X181259975Y-78584277D01*
X181330547Y-78452248D01*
X181374004Y-78308987D01*
X181385001Y-78197334D01*
X181385001Y-78197324D01*
X181388677Y-78160001D01*
X181385001Y-78122678D01*
X181385001Y-77117322D01*
X181388677Y-77079999D01*
X181385001Y-77042676D01*
X181385001Y-77042666D01*
X181374004Y-76931013D01*
X181330547Y-76787752D01*
X181302993Y-76736202D01*
X181259975Y-76655722D01*
X181188800Y-76568996D01*
X181165002Y-76539998D01*
X181136005Y-76516201D01*
X180899676Y-76279872D01*
X184365000Y-76279872D01*
X184365000Y-76720128D01*
X184450890Y-77151925D01*
X184619369Y-77558669D01*
X184863962Y-77924729D01*
X185175271Y-78236038D01*
X185541331Y-78480631D01*
X185948075Y-78649110D01*
X186379872Y-78735000D01*
X186820128Y-78735000D01*
X187251925Y-78649110D01*
X187658669Y-78480631D01*
X188024729Y-78236038D01*
X188336038Y-77924729D01*
X188580631Y-77558669D01*
X188749110Y-77151925D01*
X188835000Y-76720128D01*
X188835000Y-76279872D01*
X188749110Y-75848075D01*
X188580631Y-75441331D01*
X188336038Y-75075271D01*
X188024729Y-74763962D01*
X187658669Y-74519369D01*
X187251925Y-74350890D01*
X186820128Y-74265000D01*
X186379872Y-74265000D01*
X185948075Y-74350890D01*
X185541331Y-74519369D01*
X185175271Y-74763962D01*
X184863962Y-75075271D01*
X184619369Y-75441331D01*
X184450890Y-75848075D01*
X184365000Y-76279872D01*
X180899676Y-76279872D01*
X180603804Y-75984001D01*
X180580002Y-75954998D01*
X180464277Y-75860025D01*
X180332248Y-75789453D01*
X180188987Y-75745996D01*
X180077334Y-75734999D01*
X180077323Y-75734999D01*
X180040001Y-75731323D01*
X180002679Y-75734999D01*
X176162326Y-75734999D01*
X176125001Y-75731323D01*
X176087676Y-75734999D01*
X176087668Y-75734999D01*
X175976015Y-75745996D01*
X175832754Y-75789453D01*
X175700725Y-75860025D01*
X175585000Y-75954998D01*
X175561202Y-75983996D01*
X175323886Y-76221312D01*
X175141335Y-76185000D01*
X174858665Y-76185000D01*
X174581426Y-76240147D01*
X174320273Y-76348320D01*
X174085241Y-76505363D01*
X173885363Y-76705241D01*
X173728320Y-76940273D01*
X173620147Y-77201426D01*
X173592583Y-77340000D01*
X162638313Y-77340000D01*
X162492312Y-77121495D01*
X162278505Y-76907688D01*
X162027095Y-76739701D01*
X161747743Y-76623989D01*
X161451184Y-76565000D01*
X161409802Y-76565000D01*
X162214802Y-75760000D01*
X169181957Y-75760000D01*
X169285363Y-75914759D01*
X169485241Y-76114637D01*
X169720273Y-76271680D01*
X169981426Y-76379853D01*
X170258665Y-76435000D01*
X170541335Y-76435000D01*
X170818574Y-76379853D01*
X171079727Y-76271680D01*
X171314759Y-76114637D01*
X171514637Y-75914759D01*
X171671680Y-75679727D01*
X171779853Y-75418574D01*
X171835000Y-75141335D01*
X171835000Y-74858665D01*
X171779853Y-74581426D01*
X171671680Y-74320273D01*
X171514637Y-74085241D01*
X171314759Y-73885363D01*
X171079727Y-73728320D01*
X170818574Y-73620147D01*
X170541335Y-73565000D01*
X170258665Y-73565000D01*
X169981426Y-73620147D01*
X169720273Y-73728320D01*
X169485241Y-73885363D01*
X169285363Y-74085241D01*
X169181957Y-74240000D01*
X161937322Y-74240000D01*
X161899999Y-74236324D01*
X161862676Y-74240000D01*
X161862667Y-74240000D01*
X161751014Y-74250997D01*
X161607753Y-74294454D01*
X161475723Y-74365026D01*
X161419702Y-74411002D01*
X161359999Y-74459999D01*
X161336201Y-74488997D01*
X159208930Y-76616269D01*
X158951184Y-76565000D01*
X158648816Y-76565000D01*
X158391070Y-76616269D01*
X157638793Y-75863992D01*
X157614991Y-75834989D01*
X157499266Y-75740016D01*
X157367237Y-75669444D01*
X157223976Y-75625987D01*
X157112323Y-75614990D01*
X157112312Y-75614990D01*
X157074990Y-75611314D01*
X157037668Y-75614990D01*
X147962332Y-75614990D01*
X147925009Y-75611314D01*
X147887686Y-75614990D01*
X147887677Y-75614990D01*
X147776024Y-75625987D01*
X147632763Y-75669444D01*
X147500734Y-75740016D01*
X147500732Y-75740017D01*
X147500733Y-75740017D01*
X147414006Y-75811191D01*
X147414002Y-75811195D01*
X147385009Y-75834989D01*
X147361215Y-75863982D01*
X147125905Y-76099292D01*
X147081308Y-76085764D01*
X146800000Y-76058057D01*
X146518691Y-76085764D01*
X146248192Y-76167818D01*
X145998899Y-76301068D01*
X145780392Y-76480393D01*
X145601068Y-76698900D01*
X145530000Y-76831858D01*
X145458932Y-76698899D01*
X145279607Y-76480392D01*
X145061100Y-76301068D01*
X144811807Y-76167818D01*
X144541308Y-76085764D01*
X144260000Y-76058057D01*
X143978691Y-76085764D01*
X143708192Y-76167818D01*
X143458899Y-76301068D01*
X143240392Y-76480393D01*
X143061068Y-76698900D01*
X142990000Y-76831858D01*
X142918932Y-76698899D01*
X142739607Y-76480392D01*
X142521100Y-76301068D01*
X142271807Y-76167818D01*
X142001308Y-76085764D01*
X141720000Y-76058057D01*
X141438691Y-76085764D01*
X141168192Y-76167818D01*
X140918899Y-76301068D01*
X140700392Y-76480393D01*
X140521068Y-76698900D01*
X140450000Y-76831858D01*
X140378932Y-76698899D01*
X140199607Y-76480392D01*
X139981100Y-76301068D01*
X139731807Y-76167818D01*
X139461308Y-76085764D01*
X139180000Y-76058057D01*
X139154204Y-76060598D01*
X140604792Y-74610010D01*
X154840071Y-74610008D01*
X154877403Y-74613685D01*
X154914736Y-74610008D01*
X155026389Y-74599011D01*
X155084360Y-74581426D01*
X155169649Y-74555555D01*
X155301679Y-74484983D01*
X155388405Y-74413808D01*
X155388406Y-74413807D01*
X155417404Y-74390009D01*
X155441202Y-74361011D01*
X157336015Y-72466199D01*
X157365012Y-72442402D01*
X157459985Y-72326677D01*
X157530557Y-72194648D01*
X157574014Y-72051387D01*
X157585011Y-71939734D01*
X157585011Y-71939726D01*
X157588687Y-71902401D01*
X157585011Y-71865076D01*
X157585011Y-70340475D01*
X160915000Y-70340475D01*
X160915000Y-70859525D01*
X161016261Y-71368601D01*
X161214893Y-71848141D01*
X161503262Y-72279715D01*
X161870285Y-72646738D01*
X162301859Y-72935107D01*
X162781399Y-73133739D01*
X163290475Y-73235000D01*
X163809525Y-73235000D01*
X164318601Y-73133739D01*
X164798141Y-72935107D01*
X165229715Y-72646738D01*
X165596738Y-72279715D01*
X165885107Y-71848141D01*
X166083739Y-71368601D01*
X166158509Y-70992702D01*
X169586903Y-70992702D01*
X169658486Y-71236671D01*
X169913996Y-71357571D01*
X170188184Y-71426300D01*
X170470512Y-71440217D01*
X170750130Y-71398787D01*
X171016292Y-71303603D01*
X171141514Y-71236671D01*
X171213097Y-70992702D01*
X174186903Y-70992702D01*
X174258486Y-71236671D01*
X174513996Y-71357571D01*
X174788184Y-71426300D01*
X175070512Y-71440217D01*
X175350130Y-71398787D01*
X175616292Y-71303603D01*
X175741514Y-71236671D01*
X175813097Y-70992702D01*
X175000000Y-70179605D01*
X174186903Y-70992702D01*
X171213097Y-70992702D01*
X170400000Y-70179605D01*
X169586903Y-70992702D01*
X166158509Y-70992702D01*
X166185000Y-70859525D01*
X166185000Y-70340475D01*
X166131302Y-70070512D01*
X168959783Y-70070512D01*
X169001213Y-70350130D01*
X169096397Y-70616292D01*
X169163329Y-70741514D01*
X169407298Y-70813097D01*
X170220395Y-70000000D01*
X170579605Y-70000000D01*
X171392702Y-70813097D01*
X171636671Y-70741514D01*
X171757571Y-70486004D01*
X171826300Y-70211816D01*
X171833265Y-70070512D01*
X173559783Y-70070512D01*
X173601213Y-70350130D01*
X173696397Y-70616292D01*
X173763329Y-70741514D01*
X174007298Y-70813097D01*
X174820395Y-70000000D01*
X175179605Y-70000000D01*
X175992702Y-70813097D01*
X176236671Y-70741514D01*
X176357571Y-70486004D01*
X176426300Y-70211816D01*
X176440217Y-69929488D01*
X176429724Y-69858665D01*
X178065000Y-69858665D01*
X178065000Y-70141335D01*
X178120147Y-70418574D01*
X178228320Y-70679727D01*
X178385363Y-70914759D01*
X178585241Y-71114637D01*
X178820273Y-71271680D01*
X179081426Y-71379853D01*
X179358665Y-71435000D01*
X179641335Y-71435000D01*
X179918574Y-71379853D01*
X180179727Y-71271680D01*
X180414759Y-71114637D01*
X180614637Y-70914759D01*
X180771680Y-70679727D01*
X180879853Y-70418574D01*
X180935000Y-70141335D01*
X180935000Y-69858665D01*
X180879853Y-69581426D01*
X180771680Y-69320273D01*
X180614637Y-69085241D01*
X180414759Y-68885363D01*
X180179727Y-68728320D01*
X179918574Y-68620147D01*
X179641335Y-68565000D01*
X179358665Y-68565000D01*
X179081426Y-68620147D01*
X178820273Y-68728320D01*
X178585241Y-68885363D01*
X178385363Y-69085241D01*
X178228320Y-69320273D01*
X178120147Y-69581426D01*
X178065000Y-69858665D01*
X176429724Y-69858665D01*
X176398787Y-69649870D01*
X176303603Y-69383708D01*
X176236671Y-69258486D01*
X175992702Y-69186903D01*
X175179605Y-70000000D01*
X174820395Y-70000000D01*
X174007298Y-69186903D01*
X173763329Y-69258486D01*
X173642429Y-69513996D01*
X173573700Y-69788184D01*
X173559783Y-70070512D01*
X171833265Y-70070512D01*
X171840217Y-69929488D01*
X171798787Y-69649870D01*
X171703603Y-69383708D01*
X171636671Y-69258486D01*
X171392702Y-69186903D01*
X170579605Y-70000000D01*
X170220395Y-70000000D01*
X169407298Y-69186903D01*
X169163329Y-69258486D01*
X169042429Y-69513996D01*
X168973700Y-69788184D01*
X168959783Y-70070512D01*
X166131302Y-70070512D01*
X166083739Y-69831399D01*
X165885107Y-69351859D01*
X165654879Y-69007298D01*
X169586903Y-69007298D01*
X170400000Y-69820395D01*
X171213097Y-69007298D01*
X174186903Y-69007298D01*
X175000000Y-69820395D01*
X175813097Y-69007298D01*
X175741514Y-68763329D01*
X175486004Y-68642429D01*
X175211816Y-68573700D01*
X174929488Y-68559783D01*
X174649870Y-68601213D01*
X174383708Y-68696397D01*
X174258486Y-68763329D01*
X174186903Y-69007298D01*
X171213097Y-69007298D01*
X171141514Y-68763329D01*
X170886004Y-68642429D01*
X170611816Y-68573700D01*
X170329488Y-68559783D01*
X170049870Y-68601213D01*
X169783708Y-68696397D01*
X169658486Y-68763329D01*
X169586903Y-69007298D01*
X165654879Y-69007298D01*
X165596738Y-68920285D01*
X165229715Y-68553262D01*
X164798141Y-68264893D01*
X164318601Y-68066261D01*
X163809525Y-67965000D01*
X163290475Y-67965000D01*
X162781399Y-68066261D01*
X162301859Y-68264893D01*
X161870285Y-68553262D01*
X161503262Y-68920285D01*
X161214893Y-69351859D01*
X161016261Y-69831399D01*
X160915000Y-70340475D01*
X157585011Y-70340475D01*
X157585011Y-62697342D01*
X157588688Y-62660009D01*
X157574014Y-62511023D01*
X157530557Y-62367762D01*
X157459985Y-62235733D01*
X157388810Y-62149006D01*
X157365012Y-62120008D01*
X157336014Y-62096210D01*
X156403805Y-61164001D01*
X156380002Y-61134998D01*
X156264277Y-61040025D01*
X156132248Y-60969453D01*
X155988987Y-60925996D01*
X155877334Y-60914999D01*
X155877323Y-60914999D01*
X155840001Y-60911323D01*
X155802679Y-60914999D01*
X153979803Y-60914999D01*
X155096114Y-59798688D01*
X155278665Y-59835000D01*
X155561335Y-59835000D01*
X155838574Y-59779853D01*
X156099727Y-59671680D01*
X156334759Y-59514637D01*
X156534637Y-59314759D01*
X156691680Y-59079727D01*
X156799853Y-58818574D01*
X156844990Y-58591653D01*
X174737952Y-58591653D01*
X174893962Y-58907214D01*
X175268745Y-59098020D01*
X175673551Y-59212044D01*
X176092824Y-59244902D01*
X176510451Y-59195334D01*
X176910383Y-59065243D01*
X177206038Y-58907214D01*
X177362048Y-58591653D01*
X185037952Y-58591653D01*
X185193962Y-58907214D01*
X185568745Y-59098020D01*
X185973551Y-59212044D01*
X186392824Y-59244902D01*
X186810451Y-59195334D01*
X187210383Y-59065243D01*
X187506038Y-58907214D01*
X187662048Y-58591653D01*
X186350000Y-57279605D01*
X185037952Y-58591653D01*
X177362048Y-58591653D01*
X176050000Y-57279605D01*
X174737952Y-58591653D01*
X156844990Y-58591653D01*
X156855000Y-58541335D01*
X156855000Y-58258665D01*
X156799853Y-57981426D01*
X156691680Y-57720273D01*
X156534637Y-57485241D01*
X156334759Y-57285363D01*
X156180000Y-57181957D01*
X156180000Y-57142824D01*
X173905098Y-57142824D01*
X173954666Y-57560451D01*
X174084757Y-57960383D01*
X174242786Y-58256038D01*
X174558347Y-58412048D01*
X175870395Y-57100000D01*
X174558347Y-55787952D01*
X174242786Y-55943962D01*
X174051980Y-56318745D01*
X173937956Y-56723551D01*
X173905098Y-57142824D01*
X156180000Y-57142824D01*
X156180000Y-56227333D01*
X156183677Y-56190000D01*
X156169003Y-56041014D01*
X156125546Y-55897753D01*
X156054974Y-55765724D01*
X155983799Y-55678997D01*
X155960001Y-55649999D01*
X155931003Y-55626201D01*
X155323842Y-55019040D01*
X156058091Y-55019040D01*
X156152930Y-55283881D01*
X156297615Y-55525131D01*
X156486586Y-55733519D01*
X156712580Y-55901037D01*
X156966913Y-56021246D01*
X157100961Y-56061904D01*
X157323000Y-55939915D01*
X157323000Y-54797000D01*
X157577000Y-54797000D01*
X157577000Y-55939915D01*
X157799039Y-56061904D01*
X157933087Y-56021246D01*
X158187420Y-55901037D01*
X158413414Y-55733519D01*
X158602385Y-55525131D01*
X158747070Y-55283881D01*
X158841909Y-55019040D01*
X158720624Y-54797000D01*
X157577000Y-54797000D01*
X157323000Y-54797000D01*
X156179376Y-54797000D01*
X156058091Y-55019040D01*
X155323842Y-55019040D01*
X155298688Y-54993886D01*
X155335000Y-54811335D01*
X155335000Y-54528665D01*
X155293685Y-54320960D01*
X156058091Y-54320960D01*
X156179376Y-54543000D01*
X157323000Y-54543000D01*
X157323000Y-53400085D01*
X157577000Y-53400085D01*
X157577000Y-54543000D01*
X158720624Y-54543000D01*
X158826571Y-54349039D01*
X158988096Y-54349039D01*
X159028754Y-54483087D01*
X159148963Y-54737420D01*
X159316481Y-54963414D01*
X159524869Y-55152385D01*
X159766119Y-55297070D01*
X160030960Y-55391909D01*
X160253000Y-55270624D01*
X160253000Y-54127000D01*
X160507000Y-54127000D01*
X160507000Y-55270624D01*
X160729040Y-55391909D01*
X160993881Y-55297070D01*
X161235131Y-55152385D01*
X161443519Y-54963414D01*
X161611037Y-54737420D01*
X161731246Y-54483087D01*
X161771904Y-54349039D01*
X161649915Y-54127000D01*
X160507000Y-54127000D01*
X160253000Y-54127000D01*
X159110085Y-54127000D01*
X158988096Y-54349039D01*
X158826571Y-54349039D01*
X158841909Y-54320960D01*
X158747070Y-54056119D01*
X158602385Y-53814869D01*
X158453750Y-53650961D01*
X158988096Y-53650961D01*
X159110085Y-53873000D01*
X160253000Y-53873000D01*
X160253000Y-52729376D01*
X160507000Y-52729376D01*
X160507000Y-53873000D01*
X161649915Y-53873000D01*
X161771904Y-53650961D01*
X161731246Y-53516913D01*
X161611037Y-53262580D01*
X161443519Y-53036586D01*
X161235131Y-52847615D01*
X160993881Y-52702930D01*
X160729040Y-52608091D01*
X160507000Y-52729376D01*
X160253000Y-52729376D01*
X160030960Y-52608091D01*
X159766119Y-52702930D01*
X159524869Y-52847615D01*
X159316481Y-53036586D01*
X159148963Y-53262580D01*
X159028754Y-53516913D01*
X158988096Y-53650961D01*
X158453750Y-53650961D01*
X158413414Y-53606481D01*
X158187420Y-53438963D01*
X157933087Y-53318754D01*
X157799039Y-53278096D01*
X157577000Y-53400085D01*
X157323000Y-53400085D01*
X157100961Y-53278096D01*
X156966913Y-53318754D01*
X156712580Y-53438963D01*
X156486586Y-53606481D01*
X156297615Y-53814869D01*
X156152930Y-54056119D01*
X156058091Y-54320960D01*
X155293685Y-54320960D01*
X155279853Y-54251426D01*
X155171680Y-53990273D01*
X155014637Y-53755241D01*
X154814759Y-53555363D01*
X154579727Y-53398320D01*
X154318574Y-53290147D01*
X154041335Y-53235000D01*
X153758665Y-53235000D01*
X153481426Y-53290147D01*
X153220273Y-53398320D01*
X152985241Y-53555363D01*
X152785363Y-53755241D01*
X152715365Y-53860000D01*
X149037323Y-53860000D01*
X149000000Y-53856324D01*
X148962677Y-53860000D01*
X148962667Y-53860000D01*
X148851014Y-53870997D01*
X148707753Y-53914454D01*
X148575723Y-53985026D01*
X148537487Y-54016406D01*
X148459999Y-54079999D01*
X148436202Y-54108996D01*
X139280198Y-63265001D01*
X136770509Y-63265001D01*
X136815000Y-63041335D01*
X136815000Y-62758665D01*
X136759853Y-62481426D01*
X136651680Y-62220273D01*
X136494637Y-61985241D01*
X136294759Y-61785363D01*
X136059727Y-61628320D01*
X135798574Y-61520147D01*
X135521335Y-61465000D01*
X135238665Y-61465000D01*
X134961426Y-61520147D01*
X134700273Y-61628320D01*
X134465241Y-61785363D01*
X134265363Y-61985241D01*
X134108320Y-62220273D01*
X134000147Y-62481426D01*
X133945000Y-62758665D01*
X133945000Y-63041335D01*
X133989491Y-63265001D01*
X133459803Y-63265001D01*
X133418688Y-63223886D01*
X133455000Y-63041335D01*
X133455000Y-62758665D01*
X133399853Y-62481426D01*
X133291680Y-62220273D01*
X133134637Y-61985241D01*
X132934759Y-61785363D01*
X132699727Y-61628320D01*
X132438574Y-61520147D01*
X132161335Y-61465000D01*
X131878665Y-61465000D01*
X131601426Y-61520147D01*
X131340273Y-61628320D01*
X131105241Y-61785363D01*
X130905363Y-61985241D01*
X130749022Y-62219222D01*
X127378616Y-58848816D01*
X130585000Y-58848816D01*
X130585000Y-59151184D01*
X130643989Y-59447743D01*
X130759701Y-59727095D01*
X130927688Y-59978505D01*
X131141495Y-60192312D01*
X131392905Y-60360299D01*
X131672257Y-60476011D01*
X131968816Y-60535000D01*
X132271184Y-60535000D01*
X132567743Y-60476011D01*
X132847095Y-60360299D01*
X133098505Y-60192312D01*
X133312312Y-59978505D01*
X133480299Y-59727095D01*
X133596011Y-59447743D01*
X133655000Y-59151184D01*
X133655000Y-58848816D01*
X133596011Y-58552257D01*
X133480299Y-58272905D01*
X133312312Y-58021495D01*
X133098505Y-57807688D01*
X132847095Y-57639701D01*
X132567743Y-57523989D01*
X132271184Y-57465000D01*
X131968816Y-57465000D01*
X131672257Y-57523989D01*
X131392905Y-57639701D01*
X131141495Y-57807688D01*
X130927688Y-58021495D01*
X130759701Y-58272905D01*
X130643989Y-58552257D01*
X130585000Y-58848816D01*
X127378616Y-58848816D01*
X126485001Y-57955202D01*
X126485001Y-57877322D01*
X126488677Y-57839999D01*
X126485001Y-57802677D01*
X126485001Y-57802667D01*
X126474004Y-57691013D01*
X126430547Y-57547752D01*
X126359975Y-57415723D01*
X126265002Y-57299998D01*
X126235998Y-57276195D01*
X126223805Y-57264002D01*
X126200002Y-57234998D01*
X126084277Y-57140025D01*
X125952248Y-57069453D01*
X125808987Y-57025996D01*
X125697334Y-57014999D01*
X125697323Y-57014999D01*
X125660001Y-57011323D01*
X125622679Y-57014999D01*
X123377322Y-57014999D01*
X123339999Y-57011323D01*
X123302676Y-57014999D01*
X123302666Y-57014999D01*
X123191013Y-57025996D01*
X123047752Y-57069453D01*
X122915722Y-57140025D01*
X122851636Y-57192620D01*
X122799998Y-57234998D01*
X122776200Y-57263996D01*
X121184425Y-58855772D01*
X121129853Y-58581426D01*
X121021680Y-58320273D01*
X120864637Y-58085241D01*
X120664759Y-57885363D01*
X120429727Y-57728320D01*
X120168574Y-57620147D01*
X119891335Y-57565000D01*
X119608665Y-57565000D01*
X119419977Y-57602533D01*
X119374277Y-57565027D01*
X119242247Y-57494455D01*
X119098986Y-57450999D01*
X118950001Y-57436325D01*
X118801016Y-57450999D01*
X118657755Y-57494455D01*
X118525725Y-57565027D01*
X118410000Y-57660000D01*
X118315027Y-57775725D01*
X118244455Y-57907755D01*
X118200999Y-58051016D01*
X118186325Y-58200001D01*
X118200999Y-58348986D01*
X118244455Y-58492247D01*
X118315027Y-58624277D01*
X118352533Y-58669977D01*
X118315000Y-58858665D01*
X118315000Y-59141335D01*
X118370147Y-59418574D01*
X118478320Y-59679727D01*
X118635363Y-59914759D01*
X118835241Y-60114637D01*
X119070273Y-60271680D01*
X119331426Y-60379853D01*
X119605772Y-60434425D01*
X118300196Y-61740001D01*
X117757321Y-61740001D01*
X117719998Y-61736325D01*
X117682675Y-61740001D01*
X117682666Y-61740001D01*
X117571013Y-61750998D01*
X117427752Y-61794455D01*
X117295723Y-61865027D01*
X117295721Y-61865028D01*
X117295722Y-61865028D01*
X117250022Y-61902533D01*
X117061335Y-61865000D01*
X116778665Y-61865000D01*
X116501426Y-61920147D01*
X116240273Y-62028320D01*
X116005241Y-62185363D01*
X115805363Y-62385241D01*
X115648320Y-62620273D01*
X115540147Y-62881426D01*
X115485000Y-63158665D01*
X115485000Y-63441335D01*
X115540147Y-63718574D01*
X115648320Y-63979727D01*
X115805363Y-64214759D01*
X116005241Y-64414637D01*
X116240273Y-64571680D01*
X116501426Y-64679853D01*
X116778665Y-64735000D01*
X117061335Y-64735000D01*
X117338574Y-64679853D01*
X117599727Y-64571680D01*
X117834759Y-64414637D01*
X118034637Y-64214759D01*
X118191680Y-63979727D01*
X118299853Y-63718574D01*
X118355000Y-63441335D01*
X118355000Y-63260001D01*
X118577675Y-63260001D01*
X118614997Y-63263677D01*
X118652319Y-63260001D01*
X118652330Y-63260001D01*
X118763983Y-63249004D01*
X118907244Y-63205547D01*
X119039273Y-63134975D01*
X119154998Y-63040002D01*
X119178801Y-63010998D01*
X122961928Y-59227872D01*
X122961928Y-59900000D01*
X122974188Y-60024482D01*
X123010498Y-60144180D01*
X123069463Y-60254494D01*
X123148815Y-60351185D01*
X123245506Y-60430537D01*
X123355820Y-60489502D01*
X123475518Y-60525812D01*
X123600000Y-60538072D01*
X123740073Y-60538072D01*
X123750997Y-60648985D01*
X123794454Y-60792246D01*
X123865026Y-60924276D01*
X123902102Y-60969453D01*
X123959999Y-61040001D01*
X123989003Y-61063804D01*
X124390199Y-61465000D01*
X124258665Y-61465000D01*
X123981426Y-61520147D01*
X123720273Y-61628320D01*
X123485241Y-61785363D01*
X123285363Y-61985241D01*
X123128320Y-62220273D01*
X123020147Y-62481426D01*
X122965000Y-62758665D01*
X122965000Y-63041335D01*
X123020147Y-63318574D01*
X123128320Y-63579727D01*
X123285363Y-63814759D01*
X123485241Y-64014637D01*
X123720273Y-64171680D01*
X123981426Y-64279853D01*
X124258665Y-64335000D01*
X124541335Y-64335000D01*
X124723886Y-64298688D01*
X128736205Y-68311008D01*
X128759999Y-68340001D01*
X128788992Y-68363795D01*
X128788996Y-68363799D01*
X128840084Y-68405725D01*
X128875724Y-68434974D01*
X129007753Y-68505546D01*
X129151014Y-68549003D01*
X129262667Y-68560000D01*
X129262676Y-68560000D01*
X129299999Y-68563676D01*
X129337322Y-68560000D01*
X133525401Y-68560000D01*
X133298899Y-68681068D01*
X133080392Y-68860393D01*
X132901068Y-69078900D01*
X132767818Y-69328193D01*
X132685764Y-69598692D01*
X132665000Y-69809509D01*
X132665000Y-70750492D01*
X132685764Y-70961309D01*
X132767818Y-71231808D01*
X132901068Y-71481101D01*
X133080393Y-71699608D01*
X133298900Y-71878932D01*
X133548193Y-72012182D01*
X133818692Y-72094236D01*
X134100000Y-72121943D01*
X134381309Y-72094236D01*
X134651808Y-72012182D01*
X134901101Y-71878932D01*
X135119608Y-71699608D01*
X135298932Y-71481101D01*
X135370000Y-71348142D01*
X135441068Y-71481101D01*
X135620393Y-71699608D01*
X135838900Y-71878932D01*
X136088193Y-72012182D01*
X136358692Y-72094236D01*
X136640000Y-72121943D01*
X136921309Y-72094236D01*
X137191808Y-72012182D01*
X137441101Y-71878932D01*
X137659608Y-71699608D01*
X137838932Y-71481101D01*
X137907265Y-71353259D01*
X138057399Y-71582839D01*
X138255105Y-71784500D01*
X138488354Y-71943715D01*
X138748182Y-72054367D01*
X138830961Y-72071904D01*
X139053000Y-71949915D01*
X139053000Y-70407000D01*
X139033000Y-70407000D01*
X139033000Y-70153000D01*
X139053000Y-70153000D01*
X139053000Y-68610085D01*
X138830961Y-68488096D01*
X138748182Y-68505633D01*
X138488354Y-68616285D01*
X138255105Y-68775500D01*
X138057399Y-68977161D01*
X137907265Y-69206741D01*
X137838932Y-69078899D01*
X137659607Y-68860392D01*
X137441100Y-68681068D01*
X137191807Y-68547818D01*
X136921308Y-68465764D01*
X136640000Y-68438057D01*
X136358691Y-68465764D01*
X136314094Y-68479292D01*
X135294801Y-67460000D01*
X138225199Y-67460000D01*
X139351071Y-68585872D01*
X139307000Y-68610085D01*
X139307000Y-70153000D01*
X139327000Y-70153000D01*
X139327000Y-70407000D01*
X139307000Y-70407000D01*
X139307000Y-71949915D01*
X139529039Y-72071904D01*
X139611818Y-72054367D01*
X139871646Y-71943715D01*
X140104895Y-71784500D01*
X140302601Y-71582839D01*
X140452735Y-71353259D01*
X140521068Y-71481101D01*
X140700393Y-71699608D01*
X140918900Y-71878932D01*
X141168193Y-72012182D01*
X141438692Y-72094236D01*
X141720000Y-72121943D01*
X142001309Y-72094236D01*
X142271808Y-72012182D01*
X142521101Y-71878932D01*
X142739608Y-71699608D01*
X142918932Y-71481101D01*
X142990000Y-71348142D01*
X143061068Y-71481101D01*
X143240393Y-71699608D01*
X143458900Y-71878932D01*
X143708193Y-72012182D01*
X143978692Y-72094236D01*
X144260000Y-72121943D01*
X144541309Y-72094236D01*
X144811808Y-72012182D01*
X145061101Y-71878932D01*
X145279608Y-71699608D01*
X145458932Y-71481101D01*
X145530000Y-71348142D01*
X145601068Y-71481101D01*
X145780393Y-71699608D01*
X145998900Y-71878932D01*
X146248193Y-72012182D01*
X146518692Y-72094236D01*
X146800000Y-72121943D01*
X147081309Y-72094236D01*
X147351808Y-72012182D01*
X147601101Y-71878932D01*
X147819608Y-71699608D01*
X147998932Y-71481101D01*
X148070000Y-71348142D01*
X148141068Y-71481101D01*
X148320393Y-71699608D01*
X148538900Y-71878932D01*
X148788193Y-72012182D01*
X149058692Y-72094236D01*
X149340000Y-72121943D01*
X149621309Y-72094236D01*
X149891808Y-72012182D01*
X150141101Y-71878932D01*
X150359608Y-71699608D01*
X150538932Y-71481101D01*
X150672182Y-71231808D01*
X150754236Y-70961309D01*
X150775000Y-70750491D01*
X150775000Y-69809508D01*
X150754236Y-69598691D01*
X150672182Y-69328192D01*
X150538932Y-69078899D01*
X150359607Y-68860392D01*
X150141100Y-68681068D01*
X149891807Y-68547818D01*
X149621308Y-68465764D01*
X149340000Y-68438057D01*
X149058691Y-68465764D01*
X148788192Y-68547818D01*
X148538899Y-68681068D01*
X148320392Y-68860393D01*
X148141068Y-69078900D01*
X148070000Y-69211858D01*
X147998932Y-69078899D01*
X147819607Y-68860392D01*
X147601100Y-68681068D01*
X147351807Y-68547818D01*
X147081308Y-68465764D01*
X146800000Y-68438057D01*
X146518691Y-68465764D01*
X146248192Y-68547818D01*
X145998899Y-68681068D01*
X145780392Y-68860393D01*
X145601068Y-69078900D01*
X145530000Y-69211858D01*
X145458932Y-69078899D01*
X145279607Y-68860392D01*
X145250252Y-68836301D01*
X145263677Y-68700000D01*
X145260000Y-68662667D01*
X145260000Y-64437322D01*
X145263676Y-64399999D01*
X145260000Y-64362676D01*
X145260000Y-64362667D01*
X145249003Y-64251014D01*
X145205546Y-64107753D01*
X145134974Y-63975724D01*
X145040001Y-63859999D01*
X145011004Y-63836202D01*
X144398688Y-63223886D01*
X144435000Y-63041335D01*
X144435000Y-62758665D01*
X144379853Y-62481426D01*
X144271680Y-62220273D01*
X144114637Y-61985241D01*
X143914759Y-61785363D01*
X143679727Y-61628320D01*
X143418574Y-61520147D01*
X143215124Y-61479678D01*
X146365000Y-58329802D01*
X146365000Y-58541335D01*
X146401312Y-58723887D01*
X146043997Y-59081202D01*
X146014999Y-59105000D01*
X145991201Y-59133998D01*
X145991200Y-59133999D01*
X145920025Y-59220725D01*
X145849453Y-59352755D01*
X145829488Y-59418574D01*
X145807141Y-59492246D01*
X145805997Y-59496016D01*
X145791323Y-59645001D01*
X145795000Y-59682333D01*
X145794999Y-63302678D01*
X145791323Y-63340001D01*
X145794999Y-63377323D01*
X145794999Y-63377333D01*
X145805996Y-63488986D01*
X145828653Y-63563676D01*
X145849453Y-63632247D01*
X145920025Y-63764277D01*
X145959870Y-63812827D01*
X146014998Y-63880002D01*
X146044001Y-63903804D01*
X146576199Y-64436003D01*
X146599998Y-64465002D01*
X146628996Y-64488800D01*
X146715722Y-64559975D01*
X146797344Y-64603603D01*
X146847752Y-64630547D01*
X146991013Y-64674004D01*
X147102666Y-64685001D01*
X147102676Y-64685001D01*
X147139999Y-64688677D01*
X147177322Y-64685001D01*
X150494087Y-64685001D01*
X150531409Y-64688677D01*
X150568731Y-64685001D01*
X150568742Y-64685001D01*
X150680395Y-64674004D01*
X150823656Y-64630547D01*
X150955685Y-64559975D01*
X151071410Y-64465002D01*
X151095213Y-64435998D01*
X153096213Y-62434999D01*
X153909491Y-62434999D01*
X153865000Y-62658665D01*
X153865000Y-62941335D01*
X153920147Y-63218574D01*
X154028320Y-63479727D01*
X154185363Y-63714759D01*
X154385241Y-63914637D01*
X154620273Y-64071680D01*
X154881426Y-64179853D01*
X155158665Y-64235000D01*
X155441335Y-64235000D01*
X155615002Y-64200455D01*
X155615001Y-68476613D01*
X155298141Y-68264893D01*
X154818601Y-68066261D01*
X154309525Y-67965000D01*
X153790475Y-67965000D01*
X153281399Y-68066261D01*
X152801859Y-68264893D01*
X152370285Y-68553262D01*
X152003262Y-68920285D01*
X151714893Y-69351859D01*
X151516261Y-69831399D01*
X151415000Y-70340475D01*
X151415000Y-70859525D01*
X151516261Y-71368601D01*
X151714893Y-71848141D01*
X152003262Y-72279715D01*
X152363547Y-72640000D01*
X137187322Y-72640000D01*
X137149999Y-72636324D01*
X137112676Y-72640000D01*
X137112667Y-72640000D01*
X137001014Y-72650997D01*
X136857753Y-72694454D01*
X136725724Y-72765026D01*
X136609999Y-72859999D01*
X136586201Y-72888997D01*
X133588998Y-75886201D01*
X133560000Y-75909999D01*
X133536202Y-75938997D01*
X133536201Y-75938998D01*
X133465026Y-76025724D01*
X133445674Y-76061928D01*
X133300000Y-76061928D01*
X133175518Y-76074188D01*
X133055820Y-76110498D01*
X132945506Y-76169463D01*
X132848815Y-76248815D01*
X132769463Y-76345506D01*
X132710498Y-76455820D01*
X132674188Y-76575518D01*
X132661928Y-76700000D01*
X132661928Y-78665001D01*
X127052805Y-78665001D01*
X126080506Y-77692702D01*
X129586903Y-77692702D01*
X129658486Y-77936671D01*
X129913996Y-78057571D01*
X130188184Y-78126300D01*
X130470512Y-78140217D01*
X130750130Y-78098787D01*
X131016292Y-78003603D01*
X131141514Y-77936671D01*
X131213097Y-77692702D01*
X130400000Y-76879605D01*
X129586903Y-77692702D01*
X126080506Y-77692702D01*
X125158316Y-76770512D01*
X128959783Y-76770512D01*
X129001213Y-77050130D01*
X129096397Y-77316292D01*
X129163329Y-77441514D01*
X129407298Y-77513097D01*
X130220395Y-76700000D01*
X130579605Y-76700000D01*
X131392702Y-77513097D01*
X131636671Y-77441514D01*
X131757571Y-77186004D01*
X131826300Y-76911816D01*
X131840217Y-76629488D01*
X131798787Y-76349870D01*
X131703603Y-76083708D01*
X131636671Y-75958486D01*
X131392702Y-75886903D01*
X130579605Y-76700000D01*
X130220395Y-76700000D01*
X129407298Y-75886903D01*
X129163329Y-75958486D01*
X129042429Y-76213996D01*
X128973700Y-76488184D01*
X128959783Y-76770512D01*
X125158316Y-76770512D01*
X124851805Y-76464002D01*
X124828002Y-76434998D01*
X124712277Y-76340025D01*
X124580248Y-76269453D01*
X124436987Y-76225996D01*
X124325334Y-76214999D01*
X124325323Y-76214999D01*
X124288001Y-76211323D01*
X124250679Y-76214999D01*
X122462323Y-76214999D01*
X122425000Y-76211323D01*
X122387677Y-76214999D01*
X122387668Y-76214999D01*
X122276015Y-76225996D01*
X122132754Y-76269453D01*
X122000725Y-76340025D01*
X121885000Y-76434998D01*
X121861197Y-76464002D01*
X121608930Y-76716269D01*
X121351184Y-76665000D01*
X121048816Y-76665000D01*
X120791070Y-76716269D01*
X119782099Y-75707298D01*
X129586903Y-75707298D01*
X130400000Y-76520395D01*
X131213097Y-75707298D01*
X131141514Y-75463329D01*
X130886004Y-75342429D01*
X130611816Y-75273700D01*
X130329488Y-75259783D01*
X130049870Y-75301213D01*
X129783708Y-75396397D01*
X129658486Y-75463329D01*
X129586903Y-75707298D01*
X119782099Y-75707298D01*
X117463804Y-73389003D01*
X117440001Y-73359999D01*
X117324276Y-73265026D01*
X117245161Y-73222738D01*
X117698141Y-73035107D01*
X118129715Y-72746738D01*
X118496738Y-72379715D01*
X118785107Y-71948141D01*
X118983739Y-71468601D01*
X119085000Y-70959525D01*
X119085000Y-70440475D01*
X123315000Y-70440475D01*
X123315000Y-70959525D01*
X123416261Y-71468601D01*
X123614893Y-71948141D01*
X123903262Y-72379715D01*
X124270285Y-72746738D01*
X124701859Y-73035107D01*
X125181399Y-73233739D01*
X125690475Y-73335000D01*
X126209525Y-73335000D01*
X126718601Y-73233739D01*
X127198141Y-73035107D01*
X127629715Y-72746738D01*
X127996738Y-72379715D01*
X128285107Y-71948141D01*
X128446433Y-71558665D01*
X128965000Y-71558665D01*
X128965000Y-71841335D01*
X129020147Y-72118574D01*
X129128320Y-72379727D01*
X129285363Y-72614759D01*
X129485241Y-72814637D01*
X129720273Y-72971680D01*
X129981426Y-73079853D01*
X130258665Y-73135000D01*
X130541335Y-73135000D01*
X130818574Y-73079853D01*
X131079727Y-72971680D01*
X131314759Y-72814637D01*
X131514637Y-72614759D01*
X131671680Y-72379727D01*
X131779853Y-72118574D01*
X131835000Y-71841335D01*
X131835000Y-71558665D01*
X131779853Y-71281426D01*
X131671680Y-71020273D01*
X131514637Y-70785241D01*
X131314759Y-70585363D01*
X131079727Y-70428320D01*
X130818574Y-70320147D01*
X130541335Y-70265000D01*
X130258665Y-70265000D01*
X129981426Y-70320147D01*
X129720273Y-70428320D01*
X129485241Y-70585363D01*
X129285363Y-70785241D01*
X129128320Y-71020273D01*
X129020147Y-71281426D01*
X128965000Y-71558665D01*
X128446433Y-71558665D01*
X128483739Y-71468601D01*
X128585000Y-70959525D01*
X128585000Y-70440475D01*
X128483739Y-69931399D01*
X128285107Y-69451859D01*
X127996738Y-69020285D01*
X127629715Y-68653262D01*
X127198141Y-68364893D01*
X126718601Y-68166261D01*
X126209525Y-68065000D01*
X125690475Y-68065000D01*
X125181399Y-68166261D01*
X124701859Y-68364893D01*
X124270285Y-68653262D01*
X123903262Y-69020285D01*
X123614893Y-69451859D01*
X123416261Y-69931399D01*
X123315000Y-70440475D01*
X119085000Y-70440475D01*
X118983739Y-69931399D01*
X118785107Y-69451859D01*
X118496738Y-69020285D01*
X118129715Y-68653262D01*
X117698141Y-68364893D01*
X117218601Y-68166261D01*
X116709525Y-68065000D01*
X116190475Y-68065000D01*
X115681399Y-68166261D01*
X115201859Y-68364893D01*
X114770285Y-68653262D01*
X114403262Y-69020285D01*
X114114893Y-69451859D01*
X113916261Y-69931399D01*
X113815000Y-70440475D01*
X113815000Y-70959525D01*
X113916261Y-71468601D01*
X114114893Y-71948141D01*
X114403262Y-72379715D01*
X114770285Y-72746738D01*
X115201859Y-73035107D01*
X115455093Y-73140000D01*
X110779804Y-73140000D01*
X102828806Y-65189003D01*
X102805003Y-65159999D01*
X102689278Y-65065026D01*
X102557249Y-64994454D01*
X102413988Y-64950997D01*
X102319150Y-64941656D01*
X102214637Y-64785241D01*
X102014759Y-64585363D01*
X101779727Y-64428320D01*
X101518574Y-64320147D01*
X101380601Y-64292702D01*
X108486903Y-64292702D01*
X108558486Y-64536671D01*
X108813996Y-64657571D01*
X109088184Y-64726300D01*
X109370512Y-64740217D01*
X109650130Y-64698787D01*
X109916292Y-64603603D01*
X110041514Y-64536671D01*
X110113097Y-64292702D01*
X109300000Y-63479605D01*
X108486903Y-64292702D01*
X101380601Y-64292702D01*
X101241335Y-64265000D01*
X100958665Y-64265000D01*
X100681426Y-64320147D01*
X100420273Y-64428320D01*
X100185241Y-64585363D01*
X99985363Y-64785241D01*
X99828320Y-65020273D01*
X99720147Y-65281426D01*
X99665000Y-65558665D01*
X99665000Y-65841335D01*
X99720147Y-66118574D01*
X99828320Y-66379727D01*
X99985363Y-66614759D01*
X100185241Y-66814637D01*
X100420273Y-66971680D01*
X100681426Y-67079853D01*
X100958665Y-67135000D01*
X101241335Y-67135000D01*
X101518574Y-67079853D01*
X101779727Y-66971680D01*
X102014759Y-66814637D01*
X102159798Y-66669598D01*
X104319223Y-68829022D01*
X104085241Y-68985363D01*
X103885363Y-69185241D01*
X103728320Y-69420273D01*
X103620147Y-69681426D01*
X103565000Y-69958665D01*
X103565000Y-70241335D01*
X103620147Y-70518574D01*
X103728320Y-70779727D01*
X103885363Y-71014759D01*
X104085241Y-71214637D01*
X104320273Y-71371680D01*
X104581426Y-71479853D01*
X104858665Y-71535000D01*
X105141335Y-71535000D01*
X105418574Y-71479853D01*
X105679727Y-71371680D01*
X105914759Y-71214637D01*
X106114637Y-71014759D01*
X106270978Y-70780778D01*
X109901202Y-74411002D01*
X109925001Y-74440001D01*
X110040726Y-74534974D01*
X110172755Y-74605546D01*
X110316016Y-74649003D01*
X110427669Y-74660000D01*
X110427678Y-74660000D01*
X110465001Y-74663676D01*
X110502324Y-74660000D01*
X116585199Y-74660000D01*
X118590198Y-76665000D01*
X118548816Y-76665000D01*
X118252257Y-76723989D01*
X117972905Y-76839701D01*
X117721495Y-77007688D01*
X117507688Y-77221495D01*
X117361687Y-77440000D01*
X106407417Y-77440000D01*
X106379853Y-77301426D01*
X106271680Y-77040273D01*
X106114637Y-76805241D01*
X105914759Y-76605363D01*
X105679727Y-76448320D01*
X105418574Y-76340147D01*
X105141335Y-76285000D01*
X104858665Y-76285000D01*
X104676113Y-76321312D01*
X104338803Y-75984002D01*
X104315000Y-75954998D01*
X104199275Y-75860025D01*
X104067246Y-75789453D01*
X103923985Y-75745996D01*
X103812332Y-75734999D01*
X103812321Y-75734999D01*
X103774999Y-75731323D01*
X103737677Y-75734999D01*
X99997322Y-75734999D01*
X99959999Y-75731323D01*
X99922676Y-75734999D01*
X99922666Y-75734999D01*
X99811013Y-75745996D01*
X99667752Y-75789453D01*
X99535722Y-75860025D01*
X99474829Y-75909999D01*
X99419998Y-75954998D01*
X99396199Y-75983997D01*
X98863997Y-76516200D01*
X98834999Y-76539998D01*
X98811201Y-76568996D01*
X98811200Y-76568997D01*
X98740025Y-76655723D01*
X98669453Y-76787753D01*
X98644202Y-76870998D01*
X98625997Y-76931013D01*
X98618221Y-77009964D01*
X98611323Y-77079999D01*
X98615000Y-77117331D01*
X98614999Y-78122678D01*
X98611323Y-78160001D01*
X98614999Y-78197323D01*
X98614999Y-78197333D01*
X98625996Y-78308986D01*
X98651253Y-78392247D01*
X98669453Y-78452247D01*
X98740025Y-78584277D01*
X98761958Y-78611002D01*
X98834998Y-78700002D01*
X98864002Y-78723805D01*
X99480197Y-79340000D01*
X90660000Y-79340000D01*
X90660000Y-76279872D01*
X91265000Y-76279872D01*
X91265000Y-76720128D01*
X91350890Y-77151925D01*
X91519369Y-77558669D01*
X91763962Y-77924729D01*
X92075271Y-78236038D01*
X92441331Y-78480631D01*
X92848075Y-78649110D01*
X93279872Y-78735000D01*
X93720128Y-78735000D01*
X94151925Y-78649110D01*
X94558669Y-78480631D01*
X94924729Y-78236038D01*
X95236038Y-77924729D01*
X95480631Y-77558669D01*
X95649110Y-77151925D01*
X95735000Y-76720128D01*
X95735000Y-76279872D01*
X95649110Y-75848075D01*
X95480631Y-75441331D01*
X95236038Y-75075271D01*
X94924729Y-74763962D01*
X94558669Y-74519369D01*
X94151925Y-74350890D01*
X93720128Y-74265000D01*
X93279872Y-74265000D01*
X92848075Y-74350890D01*
X92441331Y-74519369D01*
X92075271Y-74763962D01*
X91763962Y-75075271D01*
X91519369Y-75441331D01*
X91350890Y-75848075D01*
X91265000Y-76279872D01*
X90660000Y-76279872D01*
X90660000Y-70992702D01*
X99686903Y-70992702D01*
X99758486Y-71236671D01*
X100013996Y-71357571D01*
X100288184Y-71426300D01*
X100570512Y-71440217D01*
X100850130Y-71398787D01*
X101116292Y-71303603D01*
X101241514Y-71236671D01*
X101313097Y-70992702D01*
X100500000Y-70179605D01*
X99686903Y-70992702D01*
X90660000Y-70992702D01*
X90660000Y-70070512D01*
X99059783Y-70070512D01*
X99101213Y-70350130D01*
X99196397Y-70616292D01*
X99263329Y-70741514D01*
X99507298Y-70813097D01*
X100320395Y-70000000D01*
X100679605Y-70000000D01*
X101492702Y-70813097D01*
X101736671Y-70741514D01*
X101857571Y-70486004D01*
X101926300Y-70211816D01*
X101940217Y-69929488D01*
X101898787Y-69649870D01*
X101803603Y-69383708D01*
X101736671Y-69258486D01*
X101492702Y-69186903D01*
X100679605Y-70000000D01*
X100320395Y-70000000D01*
X99507298Y-69186903D01*
X99263329Y-69258486D01*
X99142429Y-69513996D01*
X99073700Y-69788184D01*
X99059783Y-70070512D01*
X90660000Y-70070512D01*
X90660000Y-69007298D01*
X99686903Y-69007298D01*
X100500000Y-69820395D01*
X101313097Y-69007298D01*
X101241514Y-68763329D01*
X100986004Y-68642429D01*
X100711816Y-68573700D01*
X100429488Y-68559783D01*
X100149870Y-68601213D01*
X99883708Y-68696397D01*
X99758486Y-68763329D01*
X99686903Y-69007298D01*
X90660000Y-69007298D01*
X90660000Y-66692702D01*
X95286903Y-66692702D01*
X95358486Y-66936671D01*
X95613996Y-67057571D01*
X95888184Y-67126300D01*
X96170512Y-67140217D01*
X96450130Y-67098787D01*
X96716292Y-67003603D01*
X96841514Y-66936671D01*
X96913097Y-66692702D01*
X96100000Y-65879605D01*
X95286903Y-66692702D01*
X90660000Y-66692702D01*
X90660000Y-65770512D01*
X94659783Y-65770512D01*
X94701213Y-66050130D01*
X94796397Y-66316292D01*
X94863329Y-66441514D01*
X95107298Y-66513097D01*
X95920395Y-65700000D01*
X96279605Y-65700000D01*
X97092702Y-66513097D01*
X97336671Y-66441514D01*
X97457571Y-66186004D01*
X97526300Y-65911816D01*
X97540217Y-65629488D01*
X97498787Y-65349870D01*
X97403603Y-65083708D01*
X97336671Y-64958486D01*
X97092702Y-64886903D01*
X96279605Y-65700000D01*
X95920395Y-65700000D01*
X95107298Y-64886903D01*
X94863329Y-64958486D01*
X94742429Y-65213996D01*
X94673700Y-65488184D01*
X94659783Y-65770512D01*
X90660000Y-65770512D01*
X90660000Y-64707298D01*
X95286903Y-64707298D01*
X96100000Y-65520395D01*
X96913097Y-64707298D01*
X96841514Y-64463329D01*
X96586004Y-64342429D01*
X96311816Y-64273700D01*
X96029488Y-64259783D01*
X95749870Y-64301213D01*
X95483708Y-64396397D01*
X95358486Y-64463329D01*
X95286903Y-64707298D01*
X90660000Y-64707298D01*
X90660000Y-63370512D01*
X107859783Y-63370512D01*
X107901213Y-63650130D01*
X107996397Y-63916292D01*
X108063329Y-64041514D01*
X108307298Y-64113097D01*
X109120395Y-63300000D01*
X109479605Y-63300000D01*
X110292702Y-64113097D01*
X110536671Y-64041514D01*
X110657571Y-63786004D01*
X110726300Y-63511816D01*
X110740217Y-63229488D01*
X110698787Y-62949870D01*
X110603603Y-62683708D01*
X110536671Y-62558486D01*
X110292702Y-62486903D01*
X109479605Y-63300000D01*
X109120395Y-63300000D01*
X108307298Y-62486903D01*
X108063329Y-62558486D01*
X107942429Y-62813996D01*
X107873700Y-63088184D01*
X107859783Y-63370512D01*
X90660000Y-63370512D01*
X90660000Y-62307298D01*
X108486903Y-62307298D01*
X109300000Y-63120395D01*
X110113097Y-62307298D01*
X110041514Y-62063329D01*
X109786004Y-61942429D01*
X109511816Y-61873700D01*
X109229488Y-61859783D01*
X108949870Y-61901213D01*
X108683708Y-61996397D01*
X108558486Y-62063329D01*
X108486903Y-62307298D01*
X90660000Y-62307298D01*
X90660000Y-58858665D01*
X113315000Y-58858665D01*
X113315000Y-59141335D01*
X113370147Y-59418574D01*
X113478320Y-59679727D01*
X113635363Y-59914759D01*
X113835241Y-60114637D01*
X114070273Y-60271680D01*
X114331426Y-60379853D01*
X114608665Y-60435000D01*
X114891335Y-60435000D01*
X115168574Y-60379853D01*
X115429727Y-60271680D01*
X115664759Y-60114637D01*
X115864637Y-59914759D01*
X116021680Y-59679727D01*
X116129853Y-59418574D01*
X116185000Y-59141335D01*
X116185000Y-58858665D01*
X116129853Y-58581426D01*
X116021680Y-58320273D01*
X115864637Y-58085241D01*
X115664759Y-57885363D01*
X115429727Y-57728320D01*
X115168574Y-57620147D01*
X114891335Y-57565000D01*
X114608665Y-57565000D01*
X114331426Y-57620147D01*
X114070273Y-57728320D01*
X113835241Y-57885363D01*
X113635363Y-58085241D01*
X113478320Y-58320273D01*
X113370147Y-58581426D01*
X113315000Y-58858665D01*
X90660000Y-58858665D01*
X90660000Y-58091653D01*
X92437952Y-58091653D01*
X92593962Y-58407214D01*
X92968745Y-58598020D01*
X93373551Y-58712044D01*
X93792824Y-58744902D01*
X94210451Y-58695334D01*
X94610383Y-58565243D01*
X94906038Y-58407214D01*
X95062048Y-58091653D01*
X102737952Y-58091653D01*
X102893962Y-58407214D01*
X103268745Y-58598020D01*
X103673551Y-58712044D01*
X104092824Y-58744902D01*
X104510451Y-58695334D01*
X104910383Y-58565243D01*
X105206038Y-58407214D01*
X105362048Y-58091653D01*
X104050000Y-56779605D01*
X102737952Y-58091653D01*
X95062048Y-58091653D01*
X93750000Y-56779605D01*
X92437952Y-58091653D01*
X90660000Y-58091653D01*
X90660000Y-56642824D01*
X91605098Y-56642824D01*
X91654666Y-57060451D01*
X91784757Y-57460383D01*
X91942786Y-57756038D01*
X92258347Y-57912048D01*
X93570395Y-56600000D01*
X93929605Y-56600000D01*
X95241653Y-57912048D01*
X95557214Y-57756038D01*
X95748020Y-57381255D01*
X95862044Y-56976449D01*
X95894902Y-56557176D01*
X95845334Y-56139549D01*
X95715243Y-55739617D01*
X95557214Y-55443962D01*
X95241653Y-55287952D01*
X93929605Y-56600000D01*
X93570395Y-56600000D01*
X92258347Y-55287952D01*
X91942786Y-55443962D01*
X91751980Y-55818745D01*
X91637956Y-56223551D01*
X91605098Y-56642824D01*
X90660000Y-56642824D01*
X90660000Y-55108347D01*
X92437952Y-55108347D01*
X93750000Y-56420395D01*
X95062048Y-55108347D01*
X94906038Y-54792786D01*
X94531255Y-54601980D01*
X94126449Y-54487956D01*
X93707176Y-54455098D01*
X93289549Y-54504666D01*
X92889617Y-54634757D01*
X92593962Y-54792786D01*
X92437952Y-55108347D01*
X90660000Y-55108347D01*
X90660000Y-48279872D01*
X91265000Y-48279872D01*
X91265000Y-48720128D01*
X91350890Y-49151925D01*
X91519369Y-49558669D01*
X91763962Y-49924729D01*
X92075271Y-50236038D01*
X92441331Y-50480631D01*
X92848075Y-50649110D01*
X93279872Y-50735000D01*
X93720128Y-50735000D01*
X94151925Y-50649110D01*
X94558669Y-50480631D01*
X94924729Y-50236038D01*
X95236038Y-49924729D01*
X95480631Y-49558669D01*
X95649110Y-49151925D01*
X95735000Y-48720128D01*
X95735000Y-48279872D01*
X95649110Y-47848075D01*
X95480631Y-47441331D01*
X95236038Y-47075271D01*
X94924729Y-46763962D01*
X94558669Y-46519369D01*
X94151925Y-46350890D01*
X93720128Y-46265000D01*
X93279872Y-46265000D01*
X92848075Y-46350890D01*
X92441331Y-46519369D01*
X92075271Y-46763962D01*
X91763962Y-47075271D01*
X91519369Y-47441331D01*
X91350890Y-47848075D01*
X91265000Y-48279872D01*
X90660000Y-48279872D01*
X90660000Y-45660000D01*
X117969196Y-45660000D01*
X116439002Y-47190195D01*
G37*
G04 #@! TD.AperFunction*
M02*
