G04 #@! TF.GenerationSoftware,KiCad,Pcbnew,5.1.10*
G04 #@! TF.CreationDate,2021-10-22T12:56:56+13:00*
G04 #@! TF.ProjectId,two_comparator_effect,74776f5f-636f-46d7-9061-7261746f725f,rev?*
G04 #@! TF.SameCoordinates,Original*
G04 #@! TF.FileFunction,Soldermask,Top*
G04 #@! TF.FilePolarity,Negative*
%FSLAX46Y46*%
G04 Gerber Fmt 4.6, Leading zero omitted, Abs format (unit mm)*
G04 Created by KiCad (PCBNEW 5.1.10) date 2021-10-22 12:56:56*
%MOMM*%
%LPD*%
G01*
G04 APERTURE LIST*
%ADD10O,1.702000X1.702000*%
%ADD11C,1.702000*%
%ADD12C,1.902000*%
%ADD13C,4.102000*%
%ADD14C,3.302000*%
%ADD15O,1.902000X1.902000*%
%ADD16O,1.702000X2.502000*%
%ADD17C,3.102000*%
%ADD18C,2.652000*%
%ADD19C,3.602000*%
%ADD20C,0.100000*%
G04 APERTURE END LIST*
D10*
X147680000Y-62800000D03*
D11*
X155300000Y-62800000D03*
D12*
X156300000Y-78100000D03*
X158800000Y-78100000D03*
X161300000Y-78100000D03*
D13*
X154050000Y-70600000D03*
X163550000Y-70600000D03*
G36*
G01*
X146949000Y-52525000D02*
X146949000Y-50725000D01*
G75*
G02*
X147000000Y-50674000I51000J0D01*
G01*
X148100000Y-50674000D01*
G75*
G02*
X148151000Y-50725000I0J-51000D01*
G01*
X148151000Y-52525000D01*
G75*
G02*
X148100000Y-52576000I-51000J0D01*
G01*
X147000000Y-52576000D01*
G75*
G02*
X146949000Y-52525000I0J51000D01*
G01*
G37*
G36*
G01*
X149489000Y-52275500D02*
X149489000Y-50974500D01*
G75*
G02*
X149789500Y-50674000I300500J0D01*
G01*
X150390500Y-50674000D01*
G75*
G02*
X150691000Y-50974500I0J-300500D01*
G01*
X150691000Y-52275500D01*
G75*
G02*
X150390500Y-52576000I-300500J0D01*
G01*
X149789500Y-52576000D01*
G75*
G02*
X149489000Y-52275500I0J300500D01*
G01*
G37*
G36*
G01*
X148219000Y-50205500D02*
X148219000Y-48904500D01*
G75*
G02*
X148519500Y-48604000I300500J0D01*
G01*
X149120500Y-48604000D01*
G75*
G02*
X149421000Y-48904500I0J-300500D01*
G01*
X149421000Y-50205500D01*
G75*
G02*
X149120500Y-50506000I-300500J0D01*
G01*
X148519500Y-50506000D01*
G75*
G02*
X148219000Y-50205500I0J300500D01*
G01*
G37*
G36*
G01*
X163399000Y-50300000D02*
X163399000Y-48500000D01*
G75*
G02*
X163450000Y-48449000I51000J0D01*
G01*
X164550000Y-48449000D01*
G75*
G02*
X164601000Y-48500000I0J-51000D01*
G01*
X164601000Y-50300000D01*
G75*
G02*
X164550000Y-50351000I-51000J0D01*
G01*
X163450000Y-50351000D01*
G75*
G02*
X163399000Y-50300000I0J51000D01*
G01*
G37*
G36*
G01*
X165939000Y-50050500D02*
X165939000Y-48749500D01*
G75*
G02*
X166239500Y-48449000I300500J0D01*
G01*
X166840500Y-48449000D01*
G75*
G02*
X167141000Y-48749500I0J-300500D01*
G01*
X167141000Y-50050500D01*
G75*
G02*
X166840500Y-50351000I-300500J0D01*
G01*
X166239500Y-50351000D01*
G75*
G02*
X165939000Y-50050500I0J300500D01*
G01*
G37*
G36*
G01*
X164669000Y-47980500D02*
X164669000Y-46679500D01*
G75*
G02*
X164969500Y-46379000I300500J0D01*
G01*
X165570500Y-46379000D01*
G75*
G02*
X165871000Y-46679500I0J-300500D01*
G01*
X165871000Y-47980500D01*
G75*
G02*
X165570500Y-48281000I-300500J0D01*
G01*
X164969500Y-48281000D01*
G75*
G02*
X164669000Y-47980500I0J300500D01*
G01*
G37*
D14*
X186600000Y-76500000D03*
X93500000Y-76500000D03*
X186500000Y-48600000D03*
X93500000Y-48500000D03*
D11*
X96100000Y-65700000D03*
X101100000Y-65700000D03*
X170400000Y-75000000D03*
X170400000Y-70000000D03*
X119750000Y-59000000D03*
X114750000Y-59000000D03*
G36*
G01*
X123549000Y-59900000D02*
X123549000Y-58100000D01*
G75*
G02*
X123600000Y-58049000I51000J0D01*
G01*
X125400000Y-58049000D01*
G75*
G02*
X125451000Y-58100000I0J-51000D01*
G01*
X125451000Y-59900000D01*
G75*
G02*
X125400000Y-59951000I-51000J0D01*
G01*
X123600000Y-59951000D01*
G75*
G02*
X123549000Y-59900000I0J51000D01*
G01*
G37*
D15*
X132120000Y-59000000D03*
G36*
G01*
X138250000Y-53199000D02*
X141750000Y-53199000D01*
G75*
G02*
X141801000Y-53250000I0J-51000D01*
G01*
X141801000Y-56750000D01*
G75*
G02*
X141750000Y-56801000I-51000J0D01*
G01*
X138250000Y-56801000D01*
G75*
G02*
X138199000Y-56750000I0J51000D01*
G01*
X138199000Y-53250000D01*
G75*
G02*
X138250000Y-53199000I51000J0D01*
G01*
G37*
G36*
G01*
X138974500Y-47449000D02*
X141025500Y-47449000D01*
G75*
G02*
X141801000Y-48224500I0J-775500D01*
G01*
X141801000Y-49775500D01*
G75*
G02*
X141025500Y-50551000I-775500J0D01*
G01*
X138974500Y-50551000D01*
G75*
G02*
X138199000Y-49775500I0J775500D01*
G01*
X138199000Y-48224500D01*
G75*
G02*
X138974500Y-47449000I775500J0D01*
G01*
G37*
G36*
G01*
X134399500Y-50199000D02*
X136200500Y-50199000D01*
G75*
G02*
X137101000Y-51099500I0J-900500D01*
G01*
X137101000Y-52900500D01*
G75*
G02*
X136200500Y-53801000I-900500J0D01*
G01*
X134399500Y-53801000D01*
G75*
G02*
X133499000Y-52900500I0J900500D01*
G01*
X133499000Y-51099500D01*
G75*
G02*
X134399500Y-50199000I900500J0D01*
G01*
G37*
D11*
X105000000Y-70100000D03*
D10*
X105000000Y-77720000D03*
X153900000Y-54670000D03*
D11*
X153900000Y-47050000D03*
X147800000Y-58400000D03*
D10*
X155420000Y-58400000D03*
X100500000Y-77620000D03*
D11*
X100500000Y-70000000D03*
D10*
X179500000Y-77620000D03*
D11*
X179500000Y-70000000D03*
X175000000Y-70000000D03*
D10*
X175000000Y-77620000D03*
D11*
X123575000Y-46775000D03*
D10*
X123575000Y-54395000D03*
X127325000Y-54370000D03*
D11*
X127325000Y-46750000D03*
D10*
X171000000Y-54620000D03*
D11*
X171000000Y-47000000D03*
X168000000Y-54000000D03*
D10*
X160380000Y-54000000D03*
D11*
X143000000Y-62900000D03*
D10*
X135380000Y-62900000D03*
D11*
X124400000Y-62900000D03*
D10*
X132020000Y-62900000D03*
X157450000Y-54670000D03*
D11*
X157450000Y-47050000D03*
D10*
X116920000Y-63300000D03*
D11*
X109300000Y-63300000D03*
X131025000Y-46750000D03*
D10*
X131025000Y-54370000D03*
D13*
X125950000Y-70700000D03*
X116450000Y-70700000D03*
D12*
X123700000Y-78200000D03*
X121200000Y-78200000D03*
X118700000Y-78200000D03*
D11*
X130400000Y-71700000D03*
X130400000Y-76700000D03*
G36*
G01*
X134900000Y-79151000D02*
X133300000Y-79151000D01*
G75*
G02*
X133249000Y-79100000I0J51000D01*
G01*
X133249000Y-76700000D01*
G75*
G02*
X133300000Y-76649000I51000J0D01*
G01*
X134900000Y-76649000D01*
G75*
G02*
X134951000Y-76700000I0J-51000D01*
G01*
X134951000Y-79100000D01*
G75*
G02*
X134900000Y-79151000I-51000J0D01*
G01*
G37*
D16*
X149340000Y-70280000D03*
X136640000Y-77900000D03*
X146800000Y-70280000D03*
X139180000Y-77900000D03*
X144260000Y-70280000D03*
X141720000Y-77900000D03*
X141720000Y-70280000D03*
X144260000Y-77900000D03*
X139180000Y-70280000D03*
X146800000Y-77900000D03*
X136640000Y-70280000D03*
X149340000Y-77900000D03*
X134100000Y-70280000D03*
D17*
X93750000Y-56600000D03*
X104050000Y-56600000D03*
D18*
X98900000Y-55000000D03*
X181200000Y-55500000D03*
D17*
X186350000Y-57100000D03*
X176050000Y-57100000D03*
D19*
X109625000Y-48750000D03*
X114325000Y-48750000D03*
X119025000Y-48750000D03*
X109625000Y-53450000D03*
X119025000Y-53450000D03*
X114325000Y-53450000D03*
D20*
G36*
X133500990Y-52900304D02*
G01*
X133518273Y-53075784D01*
X133569403Y-53244337D01*
X133652433Y-53399675D01*
X133764171Y-53535829D01*
X133900325Y-53647567D01*
X134055663Y-53730597D01*
X134224216Y-53781727D01*
X134399696Y-53799010D01*
X134401322Y-53800175D01*
X134401126Y-53802165D01*
X134399500Y-53803000D01*
X134343140Y-53803000D01*
X134342944Y-53802990D01*
X134173438Y-53786295D01*
X134173053Y-53786219D01*
X134015959Y-53738565D01*
X134015597Y-53738415D01*
X133870826Y-53661033D01*
X133870500Y-53660815D01*
X133743603Y-53556674D01*
X133743326Y-53556397D01*
X133639185Y-53429500D01*
X133638967Y-53429174D01*
X133561585Y-53284403D01*
X133561435Y-53284041D01*
X133513781Y-53126947D01*
X133513705Y-53126562D01*
X133497010Y-52957056D01*
X133497000Y-52956860D01*
X133497000Y-52900500D01*
X133498000Y-52898768D01*
X133500000Y-52898768D01*
X133500990Y-52900304D01*
G37*
G36*
X137102165Y-52898874D02*
G01*
X137103000Y-52900500D01*
X137103000Y-52956860D01*
X137102990Y-52957056D01*
X137086295Y-53126562D01*
X137086219Y-53126947D01*
X137038565Y-53284041D01*
X137038415Y-53284403D01*
X136961033Y-53429174D01*
X136960815Y-53429500D01*
X136856674Y-53556397D01*
X136856397Y-53556674D01*
X136729500Y-53660815D01*
X136729174Y-53661033D01*
X136584403Y-53738415D01*
X136584041Y-53738565D01*
X136426947Y-53786219D01*
X136426562Y-53786295D01*
X136257056Y-53802990D01*
X136256860Y-53803000D01*
X136200500Y-53803000D01*
X136198768Y-53802000D01*
X136198768Y-53800000D01*
X136200304Y-53799010D01*
X136375784Y-53781727D01*
X136544337Y-53730597D01*
X136699675Y-53647567D01*
X136835829Y-53535829D01*
X136947567Y-53399675D01*
X137030597Y-53244337D01*
X137081727Y-53075784D01*
X137099010Y-52900304D01*
X137100175Y-52898678D01*
X137102165Y-52898874D01*
G37*
G36*
X134401232Y-50198000D02*
G01*
X134401232Y-50200000D01*
X134399696Y-50200990D01*
X134224216Y-50218273D01*
X134055663Y-50269403D01*
X133900325Y-50352433D01*
X133764171Y-50464171D01*
X133652433Y-50600325D01*
X133569403Y-50755663D01*
X133518273Y-50924216D01*
X133500990Y-51099696D01*
X133499825Y-51101322D01*
X133497835Y-51101126D01*
X133497000Y-51099500D01*
X133497000Y-51043140D01*
X133497010Y-51042944D01*
X133513705Y-50873438D01*
X133513781Y-50873053D01*
X133561435Y-50715959D01*
X133561585Y-50715597D01*
X133638967Y-50570826D01*
X133639185Y-50570500D01*
X133743326Y-50443603D01*
X133743603Y-50443326D01*
X133870500Y-50339185D01*
X133870826Y-50338967D01*
X134015597Y-50261585D01*
X134015959Y-50261435D01*
X134173053Y-50213781D01*
X134173438Y-50213705D01*
X134342944Y-50197010D01*
X134343140Y-50197000D01*
X134399500Y-50197000D01*
X134401232Y-50198000D01*
G37*
G36*
X136257056Y-50197010D02*
G01*
X136426562Y-50213705D01*
X136426947Y-50213781D01*
X136584041Y-50261435D01*
X136584403Y-50261585D01*
X136729174Y-50338967D01*
X136729500Y-50339185D01*
X136856397Y-50443326D01*
X136856674Y-50443603D01*
X136960815Y-50570500D01*
X136961033Y-50570826D01*
X137038415Y-50715597D01*
X137038565Y-50715959D01*
X137086219Y-50873053D01*
X137086295Y-50873438D01*
X137102990Y-51042944D01*
X137103000Y-51043140D01*
X137103000Y-51099500D01*
X137102000Y-51101232D01*
X137100000Y-51101232D01*
X137099010Y-51099696D01*
X137081727Y-50924216D01*
X137030597Y-50755663D01*
X136947567Y-50600325D01*
X136835829Y-50464171D01*
X136699675Y-50352433D01*
X136544337Y-50269403D01*
X136375784Y-50218273D01*
X136200304Y-50200990D01*
X136198678Y-50199825D01*
X136198874Y-50197835D01*
X136200500Y-50197000D01*
X136256860Y-50197000D01*
X136257056Y-50197010D01*
G37*
G36*
X141802165Y-49773874D02*
G01*
X141803000Y-49775500D01*
X141803000Y-49831860D01*
X141802990Y-49832056D01*
X141788697Y-49977175D01*
X141788621Y-49977560D01*
X141748080Y-50111206D01*
X141747930Y-50111568D01*
X141682100Y-50234727D01*
X141681882Y-50235053D01*
X141593286Y-50343009D01*
X141593009Y-50343286D01*
X141485053Y-50431882D01*
X141484727Y-50432100D01*
X141361568Y-50497930D01*
X141361206Y-50498080D01*
X141227560Y-50538621D01*
X141227175Y-50538697D01*
X141082056Y-50552990D01*
X141081860Y-50553000D01*
X141025500Y-50553000D01*
X141023768Y-50552000D01*
X141023768Y-50550000D01*
X141025304Y-50549010D01*
X141176398Y-50534129D01*
X141321502Y-50490112D01*
X141455229Y-50418634D01*
X141572440Y-50322440D01*
X141668634Y-50205229D01*
X141740112Y-50071502D01*
X141784129Y-49926398D01*
X141799010Y-49775304D01*
X141800175Y-49773678D01*
X141802165Y-49773874D01*
G37*
G36*
X138200990Y-49775304D02*
G01*
X138215871Y-49926398D01*
X138259888Y-50071502D01*
X138331366Y-50205229D01*
X138427560Y-50322440D01*
X138544771Y-50418634D01*
X138678498Y-50490112D01*
X138823602Y-50534129D01*
X138974696Y-50549010D01*
X138976322Y-50550175D01*
X138976126Y-50552165D01*
X138974500Y-50553000D01*
X138918140Y-50553000D01*
X138917944Y-50552990D01*
X138772825Y-50538697D01*
X138772440Y-50538621D01*
X138638794Y-50498080D01*
X138638432Y-50497930D01*
X138515273Y-50432100D01*
X138514947Y-50431882D01*
X138406991Y-50343286D01*
X138406714Y-50343009D01*
X138318118Y-50235053D01*
X138317900Y-50234727D01*
X138252070Y-50111568D01*
X138251920Y-50111206D01*
X138211379Y-49977560D01*
X138211303Y-49977175D01*
X138197010Y-49832056D01*
X138197000Y-49831860D01*
X138197000Y-49775500D01*
X138198000Y-49773768D01*
X138200000Y-49773768D01*
X138200990Y-49775304D01*
G37*
G36*
X138976232Y-47448000D02*
G01*
X138976232Y-47450000D01*
X138974696Y-47450990D01*
X138823602Y-47465871D01*
X138678498Y-47509888D01*
X138544771Y-47581366D01*
X138427560Y-47677560D01*
X138331366Y-47794771D01*
X138259888Y-47928498D01*
X138215871Y-48073602D01*
X138200990Y-48224696D01*
X138199825Y-48226322D01*
X138197835Y-48226126D01*
X138197000Y-48224500D01*
X138197000Y-48168140D01*
X138197010Y-48167944D01*
X138211303Y-48022825D01*
X138211379Y-48022440D01*
X138251920Y-47888794D01*
X138252070Y-47888432D01*
X138317900Y-47765273D01*
X138318118Y-47764947D01*
X138406714Y-47656991D01*
X138406991Y-47656714D01*
X138514947Y-47568118D01*
X138515273Y-47567900D01*
X138638432Y-47502070D01*
X138638794Y-47501920D01*
X138772440Y-47461379D01*
X138772825Y-47461303D01*
X138917944Y-47447010D01*
X138918140Y-47447000D01*
X138974500Y-47447000D01*
X138976232Y-47448000D01*
G37*
G36*
X141082056Y-47447010D02*
G01*
X141227175Y-47461303D01*
X141227560Y-47461379D01*
X141361206Y-47501920D01*
X141361568Y-47502070D01*
X141484727Y-47567900D01*
X141485053Y-47568118D01*
X141593009Y-47656714D01*
X141593286Y-47656991D01*
X141681882Y-47764947D01*
X141682100Y-47765273D01*
X141747930Y-47888432D01*
X141748080Y-47888794D01*
X141788621Y-48022440D01*
X141788697Y-48022825D01*
X141802990Y-48167944D01*
X141803000Y-48168140D01*
X141803000Y-48224500D01*
X141802000Y-48226232D01*
X141800000Y-48226232D01*
X141799010Y-48224696D01*
X141784129Y-48073602D01*
X141740112Y-47928498D01*
X141668634Y-47794771D01*
X141572440Y-47677560D01*
X141455229Y-47581366D01*
X141321502Y-47509888D01*
X141176398Y-47465871D01*
X141025304Y-47450990D01*
X141023678Y-47449825D01*
X141023874Y-47447835D01*
X141025500Y-47447000D01*
X141081860Y-47447000D01*
X141082056Y-47447010D01*
G37*
M02*
