M48
; DRILL file {KiCad 5.1.10} date Fri Oct 22 12:57:00 2021
; FORMAT={-:-/ absolute / inch / decimal}
; #@! TF.CreationDate,2021-10-22T12:57:00+13:00
; #@! TF.GenerationSoftware,Kicad,Pcbnew,5.1.10
; #@! TF.FileFunction,Plated,1,2,PTH
FMAT,2
INCH
T1C0.0295
T2C0.0315
T3C0.0354
T4C0.0394
T5C0.0669
T6C0.0787
T7C0.0827
%
G90
G05
T1
X5.8091Y-2.0167
X5.8591Y-1.9667
X5.9091Y-2.0167
X6.4567Y-1.9291
X6.5067Y-1.8791
X6.5567Y-1.9291
T2
X3.7835Y-2.5866
X3.9567Y-2.7559
X3.9567Y-3.0559
X3.9803Y-2.5866
X4.1339Y-2.7598
X4.1339Y-3.0598
X4.3031Y-2.4921
X4.5177Y-2.3228
X4.6031Y-2.4921
X4.7146Y-2.3228
X4.8652Y-1.8415
X4.8652Y-2.1415
X4.8976Y-2.4764
X5.0128Y-1.8406
X5.0128Y-2.1406
X5.1339Y-2.8228
X5.1339Y-3.0197
X5.1585Y-1.8406
X5.1585Y-2.1406
X5.1976Y-2.4764
X5.2795Y-2.7669
X5.2795Y-3.0669
X5.3299Y-2.4764
X5.3795Y-2.7669
X5.3795Y-3.0669
X5.4795Y-2.7669
X5.4795Y-3.0669
X5.5795Y-2.7669
X5.5795Y-3.0669
X5.6299Y-2.4764
X5.6795Y-2.7669
X5.6795Y-3.0669
X5.7795Y-2.7669
X5.7795Y-3.0669
X5.8142Y-2.4724
X5.8189Y-2.2992
X5.8795Y-2.7669
X5.8795Y-3.0669
X6.0591Y-1.8524
X6.0591Y-2.1524
X6.1142Y-2.4724
X6.1189Y-2.2992
X6.1988Y-1.8524
X6.1988Y-2.1524
X6.3142Y-2.126
X6.6142Y-2.126
X6.7087Y-2.7559
X6.7087Y-2.9528
X6.7323Y-1.8504
X6.7323Y-2.1504
X6.8898Y-2.7559
X6.8898Y-3.0559
X7.0669Y-2.7559
X7.0669Y-3.0559
T3
X4.9016Y-2.3228
X5.2016Y-2.3228
T4
X4.6732Y-3.0787
X4.7717Y-3.0787
X4.8701Y-3.0787
X6.1535Y-3.0748
X6.252Y-3.0748
X6.3504Y-3.0748
T5
X3.8937Y-2.1654
X7.1339Y-2.185
T6
X3.6909Y-2.2283
X4.0965Y-2.2283
X6.9311Y-2.248
X7.3366Y-2.248
T7
X4.3159Y-1.9193
X4.3159Y-2.1043
X4.501Y-1.9193
X4.501Y-2.1043
X4.686Y-1.9193
X4.686Y-2.1043
T4
G00X5.3268Y-2.0079
M15
G01X5.3268Y-2.0866
M16
G05
G00X5.5512Y-1.9291
M15
G01X5.4724Y-1.9291
M16
G05
G00X5.5512Y-2.1654
M15
G01X5.4724Y-2.1654
M16
G05
T0
M30
