M48
; DRILL file {KiCad (5.1.4-0-10_14)} date 2020 June 13, Saturday 20:06:04
; FORMAT={-:-/ absolute / metric / decimal}
; #@! TF.CreationDate,2020-06-13T20:06:04+02:00
; #@! TF.GenerationSoftware,Kicad,Pcbnew,(5.1.4-0-10_14)
; #@! TF.FileFunction,Plated,1,2,PTH
FMAT,2
METRIC
T1C0.750
T2C0.800
T3C0.900
T4C1.000
T5C1.700
T6C2.000
%
G90
G05
T1
X127.0Y-51.0
X128.27Y-51.0
X129.54Y-51.0
X164.0Y-49.0
X165.27Y-49.0
X166.54Y-49.0
T2
X180.0Y-70.0
X180.0Y-72.54
X180.0Y-75.08
X180.0Y-77.62
X187.62Y-70.0
X187.62Y-72.54
X187.62Y-75.08
X187.62Y-77.62
X119.25Y-47.0
X119.25Y-54.62
X102.38Y-64.0
X110.0Y-64.0
X154.0Y-47.0
X154.0Y-54.62
X109.0Y-47.0
X109.0Y-54.62
X151.0Y-70.0
X151.0Y-77.62
X133.0Y-70.0
X133.0Y-72.54
X133.0Y-75.08
X133.0Y-77.62
X140.62Y-70.0
X140.62Y-72.54
X140.62Y-75.08
X140.62Y-77.62
X149.0Y-47.0
X149.0Y-54.62
X170.38Y-64.0
X178.0Y-64.0
X114.0Y-54.62
X114.75Y-59.0
X119.75Y-59.0
X114.0Y-47.0
X146.5Y-72.5
X146.5Y-77.5
X92.0Y-60.0
X99.62Y-60.0
X140.5Y-64.0
X148.12Y-64.0
X92.0Y-64.0
X99.62Y-64.0
X104.0Y-72.0
X172.0Y-70.0
X172.0Y-77.62
X104.0Y-77.0
X108.0Y-77.12
X128.5Y-70.0
X128.5Y-77.62
X108.0Y-69.5
X92.25Y-75.08
X92.25Y-77.62
X99.87Y-70.0
X99.87Y-72.54
X99.87Y-75.08
X160.38Y-54.0
X168.0Y-54.0
X92.25Y-70.0
X92.25Y-72.54
X99.87Y-77.62
X171.0Y-47.0
X171.0Y-54.62
T3
X124.5Y-59.0
X132.12Y-59.0
T4
X116.0Y-78.0
X118.5Y-78.0
X121.0Y-78.0
X159.0Y-78.0
X161.5Y-78.0
X164.0Y-78.0
T5
X99.0Y-50.4
X181.0Y-50.4
T6
X93.85Y-52.0
X175.85Y-52.0
X186.15Y-52.0
X104.15Y-52.0
T4
G00X135.3Y-51.0
M15
G01X135.3Y-53.0
M16
G05
G00X141.0Y-49.0
M15
G01X139.0Y-49.0
M16
G05
G00X141.0Y-55.0
M15
G01X139.0Y-55.0
M16
G05
T0
M30
