G04 #@! TF.GenerationSoftware,KiCad,Pcbnew,(5.1.4-0-10_14)*
G04 #@! TF.CreationDate,2020-06-13T20:06:02+02:00*
G04 #@! TF.ProjectId,two_comparator_effect,74776f5f-636f-46d7-9061-7261746f725f,rev?*
G04 #@! TF.SameCoordinates,Original*
G04 #@! TF.FileFunction,Copper,L1,Top*
G04 #@! TF.FilePolarity,Positive*
%FSLAX46Y46*%
G04 Gerber Fmt 4.6, Leading zero omitted, Abs format (unit mm)*
G04 Created by KiCad (PCBNEW (5.1.4-0-10_14)) date 2020-06-13 20:06:02*
%MOMM*%
%LPD*%
G04 APERTURE LIST*
%ADD10C,1.600000*%
%ADD11R,1.800000X1.800000*%
%ADD12O,1.800000X1.800000*%
%ADD13C,3.000000*%
%ADD14C,2.550000*%
%ADD15R,3.500000X3.500000*%
%ADD16C,0.100000*%
%ADD17C,3.500000*%
%ADD18R,1.050000X1.500000*%
%ADD19O,1.050000X1.500000*%
%ADD20O,1.600000X1.600000*%
%ADD21C,4.000000*%
%ADD22C,1.800000*%
%ADD23R,2.400000X1.600000*%
%ADD24O,2.400000X1.600000*%
%ADD25C,0.250000*%
%ADD26C,0.254000*%
G04 APERTURE END LIST*
D10*
X104000000Y-72000000D03*
X104000000Y-77000000D03*
X146500000Y-77500000D03*
X146500000Y-72500000D03*
X119750000Y-59000000D03*
X114750000Y-59000000D03*
D11*
X124500000Y-59000000D03*
D12*
X132120000Y-59000000D03*
D13*
X93850000Y-52000000D03*
X104150000Y-52000000D03*
D14*
X99000000Y-50400000D03*
X181000000Y-50400000D03*
D13*
X186150000Y-52000000D03*
X175850000Y-52000000D03*
D15*
X140000000Y-55000000D03*
D16*
G36*
X141073513Y-47503611D02*
G01*
X141146318Y-47514411D01*
X141217714Y-47532295D01*
X141287013Y-47557090D01*
X141353548Y-47588559D01*
X141416678Y-47626398D01*
X141475795Y-47670242D01*
X141530330Y-47719670D01*
X141579758Y-47774205D01*
X141623602Y-47833322D01*
X141661441Y-47896452D01*
X141692910Y-47962987D01*
X141717705Y-48032286D01*
X141735589Y-48103682D01*
X141746389Y-48176487D01*
X141750000Y-48250000D01*
X141750000Y-49750000D01*
X141746389Y-49823513D01*
X141735589Y-49896318D01*
X141717705Y-49967714D01*
X141692910Y-50037013D01*
X141661441Y-50103548D01*
X141623602Y-50166678D01*
X141579758Y-50225795D01*
X141530330Y-50280330D01*
X141475795Y-50329758D01*
X141416678Y-50373602D01*
X141353548Y-50411441D01*
X141287013Y-50442910D01*
X141217714Y-50467705D01*
X141146318Y-50485589D01*
X141073513Y-50496389D01*
X141000000Y-50500000D01*
X139000000Y-50500000D01*
X138926487Y-50496389D01*
X138853682Y-50485589D01*
X138782286Y-50467705D01*
X138712987Y-50442910D01*
X138646452Y-50411441D01*
X138583322Y-50373602D01*
X138524205Y-50329758D01*
X138469670Y-50280330D01*
X138420242Y-50225795D01*
X138376398Y-50166678D01*
X138338559Y-50103548D01*
X138307090Y-50037013D01*
X138282295Y-49967714D01*
X138264411Y-49896318D01*
X138253611Y-49823513D01*
X138250000Y-49750000D01*
X138250000Y-48250000D01*
X138253611Y-48176487D01*
X138264411Y-48103682D01*
X138282295Y-48032286D01*
X138307090Y-47962987D01*
X138338559Y-47896452D01*
X138376398Y-47833322D01*
X138420242Y-47774205D01*
X138469670Y-47719670D01*
X138524205Y-47670242D01*
X138583322Y-47626398D01*
X138646452Y-47588559D01*
X138712987Y-47557090D01*
X138782286Y-47532295D01*
X138853682Y-47514411D01*
X138926487Y-47503611D01*
X139000000Y-47500000D01*
X141000000Y-47500000D01*
X141073513Y-47503611D01*
X141073513Y-47503611D01*
G37*
D13*
X140000000Y-49000000D03*
D16*
G36*
X136260765Y-50254213D02*
G01*
X136345704Y-50266813D01*
X136428999Y-50287677D01*
X136509848Y-50316605D01*
X136587472Y-50353319D01*
X136661124Y-50397464D01*
X136730094Y-50448616D01*
X136793718Y-50506282D01*
X136851384Y-50569906D01*
X136902536Y-50638876D01*
X136946681Y-50712528D01*
X136983395Y-50790152D01*
X137012323Y-50871001D01*
X137033187Y-50954296D01*
X137045787Y-51039235D01*
X137050000Y-51125000D01*
X137050000Y-52875000D01*
X137045787Y-52960765D01*
X137033187Y-53045704D01*
X137012323Y-53128999D01*
X136983395Y-53209848D01*
X136946681Y-53287472D01*
X136902536Y-53361124D01*
X136851384Y-53430094D01*
X136793718Y-53493718D01*
X136730094Y-53551384D01*
X136661124Y-53602536D01*
X136587472Y-53646681D01*
X136509848Y-53683395D01*
X136428999Y-53712323D01*
X136345704Y-53733187D01*
X136260765Y-53745787D01*
X136175000Y-53750000D01*
X134425000Y-53750000D01*
X134339235Y-53745787D01*
X134254296Y-53733187D01*
X134171001Y-53712323D01*
X134090152Y-53683395D01*
X134012528Y-53646681D01*
X133938876Y-53602536D01*
X133869906Y-53551384D01*
X133806282Y-53493718D01*
X133748616Y-53430094D01*
X133697464Y-53361124D01*
X133653319Y-53287472D01*
X133616605Y-53209848D01*
X133587677Y-53128999D01*
X133566813Y-53045704D01*
X133554213Y-52960765D01*
X133550000Y-52875000D01*
X133550000Y-51125000D01*
X133554213Y-51039235D01*
X133566813Y-50954296D01*
X133587677Y-50871001D01*
X133616605Y-50790152D01*
X133653319Y-50712528D01*
X133697464Y-50638876D01*
X133748616Y-50569906D01*
X133806282Y-50506282D01*
X133869906Y-50448616D01*
X133938876Y-50397464D01*
X134012528Y-50353319D01*
X134090152Y-50316605D01*
X134171001Y-50287677D01*
X134254296Y-50266813D01*
X134339235Y-50254213D01*
X134425000Y-50250000D01*
X136175000Y-50250000D01*
X136260765Y-50254213D01*
X136260765Y-50254213D01*
G37*
D17*
X135300000Y-52000000D03*
D18*
X164000000Y-49000000D03*
D19*
X166540000Y-49000000D03*
X165270000Y-49000000D03*
D10*
X128500000Y-70000000D03*
D20*
X128500000Y-77620000D03*
X149000000Y-54620000D03*
D10*
X149000000Y-47000000D03*
X140500000Y-64000000D03*
D20*
X148120000Y-64000000D03*
X108000000Y-77120000D03*
D10*
X108000000Y-69500000D03*
D20*
X172000000Y-77620000D03*
D10*
X172000000Y-70000000D03*
D20*
X170380000Y-64000000D03*
D10*
X178000000Y-64000000D03*
X151000000Y-70000000D03*
D20*
X151000000Y-77620000D03*
D10*
X109000000Y-47000000D03*
D20*
X109000000Y-54620000D03*
X114000000Y-54620000D03*
D10*
X114000000Y-47000000D03*
D20*
X171000000Y-54620000D03*
D10*
X171000000Y-47000000D03*
X168000000Y-54000000D03*
D20*
X160380000Y-54000000D03*
D10*
X92000000Y-60000000D03*
D20*
X99620000Y-60000000D03*
D10*
X92000000Y-64000000D03*
D20*
X99620000Y-64000000D03*
X154000000Y-54620000D03*
D10*
X154000000Y-47000000D03*
D20*
X102380000Y-64000000D03*
D10*
X110000000Y-64000000D03*
X119250000Y-47000000D03*
D20*
X119250000Y-54620000D03*
D21*
X123250000Y-70500000D03*
X113750000Y-70500000D03*
D22*
X121000000Y-78000000D03*
X118500000Y-78000000D03*
X116000000Y-78000000D03*
X159000000Y-78000000D03*
X161500000Y-78000000D03*
X164000000Y-78000000D03*
D21*
X156750000Y-70500000D03*
X166250000Y-70500000D03*
D23*
X133000000Y-70000000D03*
D24*
X140620000Y-77620000D03*
X133000000Y-72540000D03*
X140620000Y-75080000D03*
X133000000Y-75080000D03*
X140620000Y-72540000D03*
X133000000Y-77620000D03*
X140620000Y-70000000D03*
X187620000Y-70000000D03*
X180000000Y-77620000D03*
X187620000Y-72540000D03*
X180000000Y-75080000D03*
X187620000Y-75080000D03*
X180000000Y-72540000D03*
X187620000Y-77620000D03*
D23*
X180000000Y-70000000D03*
X92250000Y-70000000D03*
D24*
X99870000Y-77620000D03*
X92250000Y-72540000D03*
X99870000Y-75080000D03*
X92250000Y-75080000D03*
X99870000Y-72540000D03*
X92250000Y-77620000D03*
X99870000Y-70000000D03*
D19*
X128270000Y-51000000D03*
X129540000Y-51000000D03*
D18*
X127000000Y-51000000D03*
D25*
X104799999Y-76200001D02*
X104000000Y-77000000D01*
X105005001Y-75994999D02*
X104799999Y-76200001D01*
X117767791Y-75994999D02*
X105005001Y-75994999D01*
X118500000Y-76727208D02*
X117767791Y-75994999D01*
X118500000Y-78000000D02*
X118500000Y-76727208D01*
X121420000Y-75080000D02*
X133000000Y-75080000D01*
X118500000Y-78000000D02*
X121420000Y-75080000D01*
X147299999Y-76700001D02*
X146500000Y-77500000D01*
X159500000Y-76000000D02*
X148000000Y-76000000D01*
X148000000Y-76000000D02*
X147299999Y-76700001D01*
X161500000Y-78000000D02*
X159500000Y-76000000D01*
X164420000Y-75080000D02*
X180000000Y-75080000D01*
X161500000Y-78000000D02*
X164420000Y-75080000D01*
X118950001Y-58200001D02*
X119750000Y-59000000D01*
X115125001Y-54375001D02*
X118950001Y-58200001D01*
X115125001Y-48125001D02*
X115125001Y-54375001D01*
X114000000Y-47000000D02*
X115125001Y-48125001D01*
X124500000Y-60150000D02*
X124500000Y-59000000D01*
X131474999Y-67124999D02*
X124500000Y-60150000D01*
X131474999Y-71414999D02*
X131474999Y-67124999D01*
X132600000Y-72540000D02*
X131474999Y-71414999D01*
X133000000Y-72540000D02*
X132600000Y-72540000D01*
X119750000Y-59000000D02*
X124500000Y-59000000D01*
X113624999Y-65125001D02*
X118950001Y-59799999D01*
X92650000Y-72540000D02*
X100064999Y-65125001D01*
X118950001Y-59799999D02*
X119750000Y-59000000D01*
X100064999Y-65125001D02*
X113624999Y-65125001D01*
X92250000Y-72540000D02*
X92650000Y-72540000D01*
X177424990Y-73665010D02*
X178550000Y-72540000D01*
X178550000Y-72540000D02*
X180000000Y-72540000D01*
X135575010Y-73665010D02*
X177424990Y-73665010D01*
X134450000Y-72540000D02*
X135575010Y-73665010D01*
X133000000Y-72540000D02*
X134450000Y-72540000D01*
X102400000Y-47000000D02*
X109000000Y-47000000D01*
X99000000Y-50400000D02*
X102400000Y-47000000D01*
X113950001Y-58200001D02*
X114750000Y-59000000D01*
X110125001Y-54375001D02*
X113950001Y-58200001D01*
X110125001Y-48125001D02*
X110125001Y-54375001D01*
X109000000Y-47000000D02*
X110125001Y-48125001D01*
X177600000Y-47000000D02*
X181000000Y-50400000D01*
X171000000Y-47000000D02*
X177600000Y-47000000D01*
X168620000Y-54620000D02*
X168000000Y-54000000D01*
X171000000Y-54620000D02*
X168620000Y-54620000D01*
X164000000Y-50000000D02*
X164000000Y-49000000D01*
X168000000Y-54000000D02*
X164000000Y-50000000D01*
X165270000Y-49225000D02*
X165270000Y-49000000D01*
X166120010Y-50075010D02*
X165270000Y-49225000D01*
X168120012Y-50075010D02*
X166120010Y-50075010D01*
X172125001Y-54079999D02*
X168120012Y-50075010D01*
X172125001Y-62254999D02*
X172125001Y-54079999D01*
X170380000Y-64000000D02*
X172125001Y-62254999D01*
X155131370Y-47000000D02*
X154000000Y-47000000D01*
X164270000Y-47000000D02*
X155131370Y-47000000D01*
X165270000Y-48000000D02*
X164270000Y-47000000D01*
X165270000Y-49000000D02*
X165270000Y-48000000D01*
X154000000Y-49620000D02*
X149000000Y-54620000D01*
X154000000Y-47000000D02*
X154000000Y-49620000D01*
X148120000Y-55500000D02*
X149000000Y-54620000D01*
X148120000Y-64000000D02*
X148120000Y-55500000D01*
X128120000Y-78000000D02*
X128500000Y-77620000D01*
X121000000Y-78000000D02*
X128120000Y-78000000D01*
X141299999Y-64799999D02*
X140500000Y-64000000D01*
X142145010Y-65645010D02*
X141299999Y-64799999D01*
X142145010Y-71414990D02*
X142145010Y-65645010D01*
X141020000Y-72540000D02*
X142145010Y-71414990D01*
X140620000Y-72540000D02*
X141020000Y-72540000D01*
X108880000Y-78000000D02*
X108000000Y-77120000D01*
X116000000Y-78000000D02*
X108880000Y-78000000D01*
X171620000Y-78000000D02*
X172000000Y-77620000D01*
X164000000Y-78000000D02*
X171620000Y-78000000D01*
X186540000Y-72540000D02*
X187620000Y-72540000D01*
X178000000Y-64000000D02*
X186540000Y-72540000D01*
X158620000Y-77620000D02*
X159000000Y-78000000D01*
X151000000Y-77620000D02*
X158620000Y-77620000D01*
X91850000Y-75080000D02*
X92250000Y-75080000D01*
X90724990Y-73954990D02*
X91850000Y-75080000D01*
X90724990Y-61275010D02*
X90724990Y-73954990D01*
X92000000Y-60000000D02*
X90724990Y-61275010D01*
X101580001Y-63200001D02*
X102380000Y-64000000D01*
X101254999Y-62874999D02*
X101580001Y-63200001D01*
X94874999Y-62874999D02*
X101254999Y-62874999D01*
X92000000Y-60000000D02*
X94874999Y-62874999D01*
D26*
G36*
X135011215Y-74176018D02*
G01*
X135035009Y-74205011D01*
X135064002Y-74228805D01*
X135064006Y-74228809D01*
X135125042Y-74278899D01*
X135150734Y-74299984D01*
X135282763Y-74370556D01*
X135426024Y-74414013D01*
X135537677Y-74425010D01*
X135537686Y-74425010D01*
X135575009Y-74428686D01*
X135612332Y-74425010D01*
X138942970Y-74425010D01*
X138887818Y-74528192D01*
X138805764Y-74798691D01*
X138778057Y-75080000D01*
X138805764Y-75361309D01*
X138887818Y-75631808D01*
X139021068Y-75881101D01*
X139200392Y-76099608D01*
X139418899Y-76278932D01*
X139551858Y-76350000D01*
X139418899Y-76421068D01*
X139200392Y-76600392D01*
X139021068Y-76818899D01*
X138887818Y-77068192D01*
X138805764Y-77338691D01*
X138778057Y-77620000D01*
X138805764Y-77901309D01*
X138887818Y-78171808D01*
X139021068Y-78421101D01*
X139200392Y-78639608D01*
X139418899Y-78818932D01*
X139668192Y-78952182D01*
X139938691Y-79034236D01*
X140149508Y-79055000D01*
X141090492Y-79055000D01*
X141301309Y-79034236D01*
X141571808Y-78952182D01*
X141821101Y-78818932D01*
X142039608Y-78639608D01*
X142218932Y-78421101D01*
X142352182Y-78171808D01*
X142434236Y-77901309D01*
X142461943Y-77620000D01*
X142434236Y-77338691D01*
X142352182Y-77068192D01*
X142218932Y-76818899D01*
X142039608Y-76600392D01*
X141821101Y-76421068D01*
X141688142Y-76350000D01*
X141821101Y-76278932D01*
X142039608Y-76099608D01*
X142218932Y-75881101D01*
X142352182Y-75631808D01*
X142434236Y-75361309D01*
X142461943Y-75080000D01*
X142434236Y-74798691D01*
X142352182Y-74528192D01*
X142297030Y-74425010D01*
X164033171Y-74425010D01*
X163995724Y-74445026D01*
X163879999Y-74539999D01*
X163856202Y-74568996D01*
X161908930Y-76516269D01*
X161651184Y-76465000D01*
X161348816Y-76465000D01*
X161091070Y-76516269D01*
X160063804Y-75489003D01*
X160040001Y-75459999D01*
X159924276Y-75365026D01*
X159792247Y-75294454D01*
X159648986Y-75250997D01*
X159537333Y-75240000D01*
X159537322Y-75240000D01*
X159500000Y-75236324D01*
X159462678Y-75240000D01*
X148037323Y-75240000D01*
X148000000Y-75236324D01*
X147962677Y-75240000D01*
X147962667Y-75240000D01*
X147851014Y-75250997D01*
X147707753Y-75294454D01*
X147575723Y-75365026D01*
X147495091Y-75431200D01*
X147459999Y-75459999D01*
X147436201Y-75488998D01*
X146823887Y-76101312D01*
X146641335Y-76065000D01*
X146358665Y-76065000D01*
X146081426Y-76120147D01*
X145820273Y-76228320D01*
X145585241Y-76385363D01*
X145385363Y-76585241D01*
X145228320Y-76820273D01*
X145120147Y-77081426D01*
X145065000Y-77358665D01*
X145065000Y-77641335D01*
X145120147Y-77918574D01*
X145228320Y-78179727D01*
X145385363Y-78414759D01*
X145585241Y-78614637D01*
X145820273Y-78771680D01*
X146081426Y-78879853D01*
X146358665Y-78935000D01*
X146641335Y-78935000D01*
X146918574Y-78879853D01*
X147179727Y-78771680D01*
X147414759Y-78614637D01*
X147614637Y-78414759D01*
X147771680Y-78179727D01*
X147879853Y-77918574D01*
X147935000Y-77641335D01*
X147935000Y-77358665D01*
X147898688Y-77176113D01*
X148314802Y-76760000D01*
X149849405Y-76760000D01*
X149801068Y-76818899D01*
X149667818Y-77068192D01*
X149585764Y-77338691D01*
X149558057Y-77620000D01*
X149585764Y-77901309D01*
X149667818Y-78171808D01*
X149801068Y-78421101D01*
X149980392Y-78639608D01*
X150198899Y-78818932D01*
X150448192Y-78952182D01*
X150718691Y-79034236D01*
X150929508Y-79055000D01*
X151070492Y-79055000D01*
X151281309Y-79034236D01*
X151551808Y-78952182D01*
X151801101Y-78818932D01*
X152019608Y-78639608D01*
X152198932Y-78421101D01*
X152220901Y-78380000D01*
X157510514Y-78380000D01*
X157523989Y-78447743D01*
X157639701Y-78727095D01*
X157807688Y-78978505D01*
X158021495Y-79192312D01*
X158242525Y-79340000D01*
X121757475Y-79340000D01*
X121978505Y-79192312D01*
X122192312Y-78978505D01*
X122338313Y-78760000D01*
X127627090Y-78760000D01*
X127698899Y-78818932D01*
X127948192Y-78952182D01*
X128218691Y-79034236D01*
X128429508Y-79055000D01*
X128570492Y-79055000D01*
X128781309Y-79034236D01*
X129051808Y-78952182D01*
X129301101Y-78818932D01*
X129519608Y-78639608D01*
X129698932Y-78421101D01*
X129832182Y-78171808D01*
X129893690Y-77969039D01*
X131208096Y-77969039D01*
X131225633Y-78051818D01*
X131336285Y-78311646D01*
X131495500Y-78544895D01*
X131697161Y-78742601D01*
X131933517Y-78897166D01*
X132195486Y-79002650D01*
X132473000Y-79055000D01*
X132873000Y-79055000D01*
X132873000Y-77747000D01*
X133127000Y-77747000D01*
X133127000Y-79055000D01*
X133527000Y-79055000D01*
X133804514Y-79002650D01*
X134066483Y-78897166D01*
X134302839Y-78742601D01*
X134504500Y-78544895D01*
X134663715Y-78311646D01*
X134774367Y-78051818D01*
X134791904Y-77969039D01*
X134669915Y-77747000D01*
X133127000Y-77747000D01*
X132873000Y-77747000D01*
X131330085Y-77747000D01*
X131208096Y-77969039D01*
X129893690Y-77969039D01*
X129914236Y-77901309D01*
X129941943Y-77620000D01*
X129914236Y-77338691D01*
X129832182Y-77068192D01*
X129698932Y-76818899D01*
X129519608Y-76600392D01*
X129301101Y-76421068D01*
X129051808Y-76287818D01*
X128781309Y-76205764D01*
X128570492Y-76185000D01*
X128429508Y-76185000D01*
X128218691Y-76205764D01*
X127948192Y-76287818D01*
X127698899Y-76421068D01*
X127480392Y-76600392D01*
X127301068Y-76818899D01*
X127167818Y-77068192D01*
X127115701Y-77240000D01*
X122338313Y-77240000D01*
X122192312Y-77021495D01*
X121978505Y-76807688D01*
X121727095Y-76639701D01*
X121447743Y-76523989D01*
X121151184Y-76465000D01*
X121109802Y-76465000D01*
X121734802Y-75840000D01*
X131379099Y-75840000D01*
X131401068Y-75881101D01*
X131580392Y-76099608D01*
X131798899Y-76278932D01*
X131926741Y-76347265D01*
X131697161Y-76497399D01*
X131495500Y-76695105D01*
X131336285Y-76928354D01*
X131225633Y-77188182D01*
X131208096Y-77270961D01*
X131330085Y-77493000D01*
X132873000Y-77493000D01*
X132873000Y-77473000D01*
X133127000Y-77473000D01*
X133127000Y-77493000D01*
X134669915Y-77493000D01*
X134791904Y-77270961D01*
X134774367Y-77188182D01*
X134663715Y-76928354D01*
X134504500Y-76695105D01*
X134302839Y-76497399D01*
X134073259Y-76347265D01*
X134201101Y-76278932D01*
X134419608Y-76099608D01*
X134598932Y-75881101D01*
X134732182Y-75631808D01*
X134814236Y-75361309D01*
X134841943Y-75080000D01*
X134814236Y-74798691D01*
X134732182Y-74528192D01*
X134598932Y-74278899D01*
X134419608Y-74060392D01*
X134201101Y-73881068D01*
X134068142Y-73810000D01*
X134201101Y-73738932D01*
X134405986Y-73570788D01*
X135011215Y-74176018D01*
X135011215Y-74176018D01*
G37*
X135011215Y-74176018D02*
X135035009Y-74205011D01*
X135064002Y-74228805D01*
X135064006Y-74228809D01*
X135125042Y-74278899D01*
X135150734Y-74299984D01*
X135282763Y-74370556D01*
X135426024Y-74414013D01*
X135537677Y-74425010D01*
X135537686Y-74425010D01*
X135575009Y-74428686D01*
X135612332Y-74425010D01*
X138942970Y-74425010D01*
X138887818Y-74528192D01*
X138805764Y-74798691D01*
X138778057Y-75080000D01*
X138805764Y-75361309D01*
X138887818Y-75631808D01*
X139021068Y-75881101D01*
X139200392Y-76099608D01*
X139418899Y-76278932D01*
X139551858Y-76350000D01*
X139418899Y-76421068D01*
X139200392Y-76600392D01*
X139021068Y-76818899D01*
X138887818Y-77068192D01*
X138805764Y-77338691D01*
X138778057Y-77620000D01*
X138805764Y-77901309D01*
X138887818Y-78171808D01*
X139021068Y-78421101D01*
X139200392Y-78639608D01*
X139418899Y-78818932D01*
X139668192Y-78952182D01*
X139938691Y-79034236D01*
X140149508Y-79055000D01*
X141090492Y-79055000D01*
X141301309Y-79034236D01*
X141571808Y-78952182D01*
X141821101Y-78818932D01*
X142039608Y-78639608D01*
X142218932Y-78421101D01*
X142352182Y-78171808D01*
X142434236Y-77901309D01*
X142461943Y-77620000D01*
X142434236Y-77338691D01*
X142352182Y-77068192D01*
X142218932Y-76818899D01*
X142039608Y-76600392D01*
X141821101Y-76421068D01*
X141688142Y-76350000D01*
X141821101Y-76278932D01*
X142039608Y-76099608D01*
X142218932Y-75881101D01*
X142352182Y-75631808D01*
X142434236Y-75361309D01*
X142461943Y-75080000D01*
X142434236Y-74798691D01*
X142352182Y-74528192D01*
X142297030Y-74425010D01*
X164033171Y-74425010D01*
X163995724Y-74445026D01*
X163879999Y-74539999D01*
X163856202Y-74568996D01*
X161908930Y-76516269D01*
X161651184Y-76465000D01*
X161348816Y-76465000D01*
X161091070Y-76516269D01*
X160063804Y-75489003D01*
X160040001Y-75459999D01*
X159924276Y-75365026D01*
X159792247Y-75294454D01*
X159648986Y-75250997D01*
X159537333Y-75240000D01*
X159537322Y-75240000D01*
X159500000Y-75236324D01*
X159462678Y-75240000D01*
X148037323Y-75240000D01*
X148000000Y-75236324D01*
X147962677Y-75240000D01*
X147962667Y-75240000D01*
X147851014Y-75250997D01*
X147707753Y-75294454D01*
X147575723Y-75365026D01*
X147495091Y-75431200D01*
X147459999Y-75459999D01*
X147436201Y-75488998D01*
X146823887Y-76101312D01*
X146641335Y-76065000D01*
X146358665Y-76065000D01*
X146081426Y-76120147D01*
X145820273Y-76228320D01*
X145585241Y-76385363D01*
X145385363Y-76585241D01*
X145228320Y-76820273D01*
X145120147Y-77081426D01*
X145065000Y-77358665D01*
X145065000Y-77641335D01*
X145120147Y-77918574D01*
X145228320Y-78179727D01*
X145385363Y-78414759D01*
X145585241Y-78614637D01*
X145820273Y-78771680D01*
X146081426Y-78879853D01*
X146358665Y-78935000D01*
X146641335Y-78935000D01*
X146918574Y-78879853D01*
X147179727Y-78771680D01*
X147414759Y-78614637D01*
X147614637Y-78414759D01*
X147771680Y-78179727D01*
X147879853Y-77918574D01*
X147935000Y-77641335D01*
X147935000Y-77358665D01*
X147898688Y-77176113D01*
X148314802Y-76760000D01*
X149849405Y-76760000D01*
X149801068Y-76818899D01*
X149667818Y-77068192D01*
X149585764Y-77338691D01*
X149558057Y-77620000D01*
X149585764Y-77901309D01*
X149667818Y-78171808D01*
X149801068Y-78421101D01*
X149980392Y-78639608D01*
X150198899Y-78818932D01*
X150448192Y-78952182D01*
X150718691Y-79034236D01*
X150929508Y-79055000D01*
X151070492Y-79055000D01*
X151281309Y-79034236D01*
X151551808Y-78952182D01*
X151801101Y-78818932D01*
X152019608Y-78639608D01*
X152198932Y-78421101D01*
X152220901Y-78380000D01*
X157510514Y-78380000D01*
X157523989Y-78447743D01*
X157639701Y-78727095D01*
X157807688Y-78978505D01*
X158021495Y-79192312D01*
X158242525Y-79340000D01*
X121757475Y-79340000D01*
X121978505Y-79192312D01*
X122192312Y-78978505D01*
X122338313Y-78760000D01*
X127627090Y-78760000D01*
X127698899Y-78818932D01*
X127948192Y-78952182D01*
X128218691Y-79034236D01*
X128429508Y-79055000D01*
X128570492Y-79055000D01*
X128781309Y-79034236D01*
X129051808Y-78952182D01*
X129301101Y-78818932D01*
X129519608Y-78639608D01*
X129698932Y-78421101D01*
X129832182Y-78171808D01*
X129893690Y-77969039D01*
X131208096Y-77969039D01*
X131225633Y-78051818D01*
X131336285Y-78311646D01*
X131495500Y-78544895D01*
X131697161Y-78742601D01*
X131933517Y-78897166D01*
X132195486Y-79002650D01*
X132473000Y-79055000D01*
X132873000Y-79055000D01*
X132873000Y-77747000D01*
X133127000Y-77747000D01*
X133127000Y-79055000D01*
X133527000Y-79055000D01*
X133804514Y-79002650D01*
X134066483Y-78897166D01*
X134302839Y-78742601D01*
X134504500Y-78544895D01*
X134663715Y-78311646D01*
X134774367Y-78051818D01*
X134791904Y-77969039D01*
X134669915Y-77747000D01*
X133127000Y-77747000D01*
X132873000Y-77747000D01*
X131330085Y-77747000D01*
X131208096Y-77969039D01*
X129893690Y-77969039D01*
X129914236Y-77901309D01*
X129941943Y-77620000D01*
X129914236Y-77338691D01*
X129832182Y-77068192D01*
X129698932Y-76818899D01*
X129519608Y-76600392D01*
X129301101Y-76421068D01*
X129051808Y-76287818D01*
X128781309Y-76205764D01*
X128570492Y-76185000D01*
X128429508Y-76185000D01*
X128218691Y-76205764D01*
X127948192Y-76287818D01*
X127698899Y-76421068D01*
X127480392Y-76600392D01*
X127301068Y-76818899D01*
X127167818Y-77068192D01*
X127115701Y-77240000D01*
X122338313Y-77240000D01*
X122192312Y-77021495D01*
X121978505Y-76807688D01*
X121727095Y-76639701D01*
X121447743Y-76523989D01*
X121151184Y-76465000D01*
X121109802Y-76465000D01*
X121734802Y-75840000D01*
X131379099Y-75840000D01*
X131401068Y-75881101D01*
X131580392Y-76099608D01*
X131798899Y-76278932D01*
X131926741Y-76347265D01*
X131697161Y-76497399D01*
X131495500Y-76695105D01*
X131336285Y-76928354D01*
X131225633Y-77188182D01*
X131208096Y-77270961D01*
X131330085Y-77493000D01*
X132873000Y-77493000D01*
X132873000Y-77473000D01*
X133127000Y-77473000D01*
X133127000Y-77493000D01*
X134669915Y-77493000D01*
X134791904Y-77270961D01*
X134774367Y-77188182D01*
X134663715Y-76928354D01*
X134504500Y-76695105D01*
X134302839Y-76497399D01*
X134073259Y-76347265D01*
X134201101Y-76278932D01*
X134419608Y-76099608D01*
X134598932Y-75881101D01*
X134732182Y-75631808D01*
X134814236Y-75361309D01*
X134841943Y-75080000D01*
X134814236Y-74798691D01*
X134732182Y-74528192D01*
X134598932Y-74278899D01*
X134419608Y-74060392D01*
X134201101Y-73881068D01*
X134068142Y-73810000D01*
X134201101Y-73738932D01*
X134405986Y-73570788D01*
X135011215Y-74176018D01*
G36*
X122961928Y-59900000D02*
G01*
X122974188Y-60024482D01*
X123010498Y-60144180D01*
X123069463Y-60254494D01*
X123148815Y-60351185D01*
X123245506Y-60430537D01*
X123355820Y-60489502D01*
X123475518Y-60525812D01*
X123600000Y-60538072D01*
X123845674Y-60538072D01*
X123865026Y-60574276D01*
X123904871Y-60622826D01*
X123959999Y-60690001D01*
X123989003Y-60713804D01*
X130715000Y-67439802D01*
X130714999Y-71377676D01*
X130711323Y-71414999D01*
X130714999Y-71452321D01*
X130714999Y-71452331D01*
X130725996Y-71563984D01*
X130769450Y-71707236D01*
X130769453Y-71707245D01*
X130840025Y-71839275D01*
X130876491Y-71883708D01*
X130934998Y-71955000D01*
X130964001Y-71978803D01*
X131199292Y-72214094D01*
X131185764Y-72258691D01*
X131158057Y-72540000D01*
X131185764Y-72821309D01*
X131267818Y-73091808D01*
X131401068Y-73341101D01*
X131580392Y-73559608D01*
X131798899Y-73738932D01*
X131931858Y-73810000D01*
X131798899Y-73881068D01*
X131580392Y-74060392D01*
X131401068Y-74278899D01*
X131379099Y-74320000D01*
X121457333Y-74320000D01*
X121420000Y-74316323D01*
X121382667Y-74320000D01*
X121271014Y-74330997D01*
X121127753Y-74374454D01*
X120995724Y-74445026D01*
X120879999Y-74539999D01*
X120856202Y-74568996D01*
X119129246Y-76295952D01*
X119063799Y-76216205D01*
X119040001Y-76187207D01*
X119011002Y-76163409D01*
X118331594Y-75484001D01*
X118307792Y-75454998D01*
X118192067Y-75360025D01*
X118060038Y-75289453D01*
X117916777Y-75245996D01*
X117805124Y-75234999D01*
X117805113Y-75234999D01*
X117767791Y-75231323D01*
X117730469Y-75234999D01*
X105042334Y-75234999D01*
X105005001Y-75231322D01*
X104967668Y-75234999D01*
X104856015Y-75245996D01*
X104712754Y-75289453D01*
X104580725Y-75360025D01*
X104465000Y-75454998D01*
X104441197Y-75484002D01*
X104323887Y-75601312D01*
X104141335Y-75565000D01*
X103858665Y-75565000D01*
X103581426Y-75620147D01*
X103320273Y-75728320D01*
X103085241Y-75885363D01*
X102885363Y-76085241D01*
X102728320Y-76320273D01*
X102620147Y-76581426D01*
X102565000Y-76858665D01*
X102565000Y-77141335D01*
X102620147Y-77418574D01*
X102728320Y-77679727D01*
X102885363Y-77914759D01*
X103085241Y-78114637D01*
X103320273Y-78271680D01*
X103581426Y-78379853D01*
X103858665Y-78435000D01*
X104141335Y-78435000D01*
X104418574Y-78379853D01*
X104679727Y-78271680D01*
X104914759Y-78114637D01*
X105114637Y-77914759D01*
X105271680Y-77679727D01*
X105379853Y-77418574D01*
X105435000Y-77141335D01*
X105435000Y-76858665D01*
X105414379Y-76754999D01*
X106611151Y-76754999D01*
X106585764Y-76838691D01*
X106558057Y-77120000D01*
X106585764Y-77401309D01*
X106667818Y-77671808D01*
X106801068Y-77921101D01*
X106980392Y-78139608D01*
X107198899Y-78318932D01*
X107448192Y-78452182D01*
X107718691Y-78534236D01*
X107929508Y-78555000D01*
X108070492Y-78555000D01*
X108281309Y-78534236D01*
X108324512Y-78521131D01*
X108339999Y-78540001D01*
X108368997Y-78563799D01*
X108455723Y-78634974D01*
X108464393Y-78639608D01*
X108587753Y-78705546D01*
X108731014Y-78749003D01*
X108842667Y-78760000D01*
X108842677Y-78760000D01*
X108880000Y-78763676D01*
X108917323Y-78760000D01*
X114661687Y-78760000D01*
X114807688Y-78978505D01*
X115021495Y-79192312D01*
X115242525Y-79340000D01*
X90660000Y-79340000D01*
X90660000Y-78419638D01*
X90745500Y-78544895D01*
X90947161Y-78742601D01*
X91183517Y-78897166D01*
X91445486Y-79002650D01*
X91723000Y-79055000D01*
X92123000Y-79055000D01*
X92123000Y-77747000D01*
X92377000Y-77747000D01*
X92377000Y-79055000D01*
X92777000Y-79055000D01*
X93054514Y-79002650D01*
X93316483Y-78897166D01*
X93552839Y-78742601D01*
X93754500Y-78544895D01*
X93913715Y-78311646D01*
X94024367Y-78051818D01*
X94041904Y-77969039D01*
X93919915Y-77747000D01*
X92377000Y-77747000D01*
X92123000Y-77747000D01*
X92103000Y-77747000D01*
X92103000Y-77493000D01*
X92123000Y-77493000D01*
X92123000Y-77473000D01*
X92377000Y-77473000D01*
X92377000Y-77493000D01*
X93919915Y-77493000D01*
X94041904Y-77270961D01*
X94024367Y-77188182D01*
X93913715Y-76928354D01*
X93754500Y-76695105D01*
X93552839Y-76497399D01*
X93323259Y-76347265D01*
X93451101Y-76278932D01*
X93669608Y-76099608D01*
X93848932Y-75881101D01*
X93982182Y-75631808D01*
X94064236Y-75361309D01*
X94091943Y-75080000D01*
X94064236Y-74798691D01*
X93982182Y-74528192D01*
X93848932Y-74278899D01*
X93669608Y-74060392D01*
X93451101Y-73881068D01*
X93318142Y-73810000D01*
X93451101Y-73738932D01*
X93669608Y-73559608D01*
X93848932Y-73341101D01*
X93982182Y-73091808D01*
X94064236Y-72821309D01*
X94091943Y-72540000D01*
X94064236Y-72258691D01*
X94050708Y-72214093D01*
X96264801Y-70000000D01*
X98028057Y-70000000D01*
X98055764Y-70281309D01*
X98137818Y-70551808D01*
X98271068Y-70801101D01*
X98450392Y-71019608D01*
X98668899Y-71198932D01*
X98801858Y-71270000D01*
X98668899Y-71341068D01*
X98450392Y-71520392D01*
X98271068Y-71738899D01*
X98137818Y-71988192D01*
X98055764Y-72258691D01*
X98028057Y-72540000D01*
X98055764Y-72821309D01*
X98137818Y-73091808D01*
X98271068Y-73341101D01*
X98450392Y-73559608D01*
X98668899Y-73738932D01*
X98801858Y-73810000D01*
X98668899Y-73881068D01*
X98450392Y-74060392D01*
X98271068Y-74278899D01*
X98137818Y-74528192D01*
X98055764Y-74798691D01*
X98028057Y-75080000D01*
X98055764Y-75361309D01*
X98137818Y-75631808D01*
X98271068Y-75881101D01*
X98450392Y-76099608D01*
X98668899Y-76278932D01*
X98801858Y-76350000D01*
X98668899Y-76421068D01*
X98450392Y-76600392D01*
X98271068Y-76818899D01*
X98137818Y-77068192D01*
X98055764Y-77338691D01*
X98028057Y-77620000D01*
X98055764Y-77901309D01*
X98137818Y-78171808D01*
X98271068Y-78421101D01*
X98450392Y-78639608D01*
X98668899Y-78818932D01*
X98918192Y-78952182D01*
X99188691Y-79034236D01*
X99399508Y-79055000D01*
X100340492Y-79055000D01*
X100551309Y-79034236D01*
X100821808Y-78952182D01*
X101071101Y-78818932D01*
X101289608Y-78639608D01*
X101468932Y-78421101D01*
X101602182Y-78171808D01*
X101684236Y-77901309D01*
X101711943Y-77620000D01*
X101684236Y-77338691D01*
X101602182Y-77068192D01*
X101468932Y-76818899D01*
X101289608Y-76600392D01*
X101071101Y-76421068D01*
X100938142Y-76350000D01*
X101071101Y-76278932D01*
X101289608Y-76099608D01*
X101468932Y-75881101D01*
X101602182Y-75631808D01*
X101684236Y-75361309D01*
X101711943Y-75080000D01*
X101684236Y-74798691D01*
X101602182Y-74528192D01*
X101468932Y-74278899D01*
X101289608Y-74060392D01*
X101071101Y-73881068D01*
X100938142Y-73810000D01*
X101071101Y-73738932D01*
X101289608Y-73559608D01*
X101468932Y-73341101D01*
X101602182Y-73091808D01*
X101632245Y-72992702D01*
X103186903Y-72992702D01*
X103258486Y-73236671D01*
X103513996Y-73357571D01*
X103788184Y-73426300D01*
X104070512Y-73440217D01*
X104350130Y-73398787D01*
X104616292Y-73303603D01*
X104741514Y-73236671D01*
X104813097Y-72992702D01*
X104000000Y-72179605D01*
X103186903Y-72992702D01*
X101632245Y-72992702D01*
X101684236Y-72821309D01*
X101711943Y-72540000D01*
X101684236Y-72258691D01*
X101627154Y-72070512D01*
X102559783Y-72070512D01*
X102601213Y-72350130D01*
X102696397Y-72616292D01*
X102763329Y-72741514D01*
X103007298Y-72813097D01*
X103820395Y-72000000D01*
X104179605Y-72000000D01*
X104992702Y-72813097D01*
X105236671Y-72741514D01*
X105357571Y-72486004D01*
X105426300Y-72211816D01*
X105440217Y-71929488D01*
X105398787Y-71649870D01*
X105303603Y-71383708D01*
X105236671Y-71258486D01*
X104992702Y-71186903D01*
X104179605Y-72000000D01*
X103820395Y-72000000D01*
X103007298Y-71186903D01*
X102763329Y-71258486D01*
X102642429Y-71513996D01*
X102573700Y-71788184D01*
X102559783Y-72070512D01*
X101627154Y-72070512D01*
X101602182Y-71988192D01*
X101468932Y-71738899D01*
X101289608Y-71520392D01*
X101071101Y-71341068D01*
X100938142Y-71270000D01*
X101071101Y-71198932D01*
X101289608Y-71019608D01*
X101299710Y-71007298D01*
X103186903Y-71007298D01*
X104000000Y-71820395D01*
X104813097Y-71007298D01*
X104741514Y-70763329D01*
X104486004Y-70642429D01*
X104211816Y-70573700D01*
X103929488Y-70559783D01*
X103649870Y-70601213D01*
X103383708Y-70696397D01*
X103258486Y-70763329D01*
X103186903Y-71007298D01*
X101299710Y-71007298D01*
X101468932Y-70801101D01*
X101602182Y-70551808D01*
X101620111Y-70492702D01*
X107186903Y-70492702D01*
X107258486Y-70736671D01*
X107513996Y-70857571D01*
X107788184Y-70926300D01*
X108070512Y-70940217D01*
X108350130Y-70898787D01*
X108616292Y-70803603D01*
X108741514Y-70736671D01*
X108813097Y-70492702D01*
X108000000Y-69679605D01*
X107186903Y-70492702D01*
X101620111Y-70492702D01*
X101684236Y-70281309D01*
X101711943Y-70000000D01*
X101684236Y-69718691D01*
X101639287Y-69570512D01*
X106559783Y-69570512D01*
X106601213Y-69850130D01*
X106696397Y-70116292D01*
X106763329Y-70241514D01*
X107007298Y-70313097D01*
X107820395Y-69500000D01*
X108179605Y-69500000D01*
X108992702Y-70313097D01*
X109236671Y-70241514D01*
X109237162Y-70240475D01*
X111115000Y-70240475D01*
X111115000Y-70759525D01*
X111216261Y-71268601D01*
X111414893Y-71748141D01*
X111703262Y-72179715D01*
X112070285Y-72546738D01*
X112501859Y-72835107D01*
X112981399Y-73033739D01*
X113490475Y-73135000D01*
X114009525Y-73135000D01*
X114518601Y-73033739D01*
X114998141Y-72835107D01*
X115429715Y-72546738D01*
X115796738Y-72179715D01*
X116085107Y-71748141D01*
X116283739Y-71268601D01*
X116385000Y-70759525D01*
X116385000Y-70240475D01*
X120615000Y-70240475D01*
X120615000Y-70759525D01*
X120716261Y-71268601D01*
X120914893Y-71748141D01*
X121203262Y-72179715D01*
X121570285Y-72546738D01*
X122001859Y-72835107D01*
X122481399Y-73033739D01*
X122990475Y-73135000D01*
X123509525Y-73135000D01*
X124018601Y-73033739D01*
X124498141Y-72835107D01*
X124929715Y-72546738D01*
X125296738Y-72179715D01*
X125585107Y-71748141D01*
X125783739Y-71268601D01*
X125885000Y-70759525D01*
X125885000Y-70240475D01*
X125809054Y-69858665D01*
X127065000Y-69858665D01*
X127065000Y-70141335D01*
X127120147Y-70418574D01*
X127228320Y-70679727D01*
X127385363Y-70914759D01*
X127585241Y-71114637D01*
X127820273Y-71271680D01*
X128081426Y-71379853D01*
X128358665Y-71435000D01*
X128641335Y-71435000D01*
X128918574Y-71379853D01*
X129179727Y-71271680D01*
X129414759Y-71114637D01*
X129614637Y-70914759D01*
X129771680Y-70679727D01*
X129879853Y-70418574D01*
X129935000Y-70141335D01*
X129935000Y-69858665D01*
X129879853Y-69581426D01*
X129771680Y-69320273D01*
X129614637Y-69085241D01*
X129414759Y-68885363D01*
X129179727Y-68728320D01*
X128918574Y-68620147D01*
X128641335Y-68565000D01*
X128358665Y-68565000D01*
X128081426Y-68620147D01*
X127820273Y-68728320D01*
X127585241Y-68885363D01*
X127385363Y-69085241D01*
X127228320Y-69320273D01*
X127120147Y-69581426D01*
X127065000Y-69858665D01*
X125809054Y-69858665D01*
X125783739Y-69731399D01*
X125585107Y-69251859D01*
X125296738Y-68820285D01*
X124929715Y-68453262D01*
X124498141Y-68164893D01*
X124018601Y-67966261D01*
X123509525Y-67865000D01*
X122990475Y-67865000D01*
X122481399Y-67966261D01*
X122001859Y-68164893D01*
X121570285Y-68453262D01*
X121203262Y-68820285D01*
X120914893Y-69251859D01*
X120716261Y-69731399D01*
X120615000Y-70240475D01*
X116385000Y-70240475D01*
X116283739Y-69731399D01*
X116085107Y-69251859D01*
X115796738Y-68820285D01*
X115429715Y-68453262D01*
X114998141Y-68164893D01*
X114518601Y-67966261D01*
X114009525Y-67865000D01*
X113490475Y-67865000D01*
X112981399Y-67966261D01*
X112501859Y-68164893D01*
X112070285Y-68453262D01*
X111703262Y-68820285D01*
X111414893Y-69251859D01*
X111216261Y-69731399D01*
X111115000Y-70240475D01*
X109237162Y-70240475D01*
X109357571Y-69986004D01*
X109426300Y-69711816D01*
X109440217Y-69429488D01*
X109398787Y-69149870D01*
X109303603Y-68883708D01*
X109236671Y-68758486D01*
X108992702Y-68686903D01*
X108179605Y-69500000D01*
X107820395Y-69500000D01*
X107007298Y-68686903D01*
X106763329Y-68758486D01*
X106642429Y-69013996D01*
X106573700Y-69288184D01*
X106559783Y-69570512D01*
X101639287Y-69570512D01*
X101602182Y-69448192D01*
X101468932Y-69198899D01*
X101289608Y-68980392D01*
X101071101Y-68801068D01*
X100821808Y-68667818D01*
X100551309Y-68585764D01*
X100340492Y-68565000D01*
X99399508Y-68565000D01*
X99188691Y-68585764D01*
X98918192Y-68667818D01*
X98668899Y-68801068D01*
X98450392Y-68980392D01*
X98271068Y-69198899D01*
X98137818Y-69448192D01*
X98055764Y-69718691D01*
X98028057Y-70000000D01*
X96264801Y-70000000D01*
X97757503Y-68507298D01*
X107186903Y-68507298D01*
X108000000Y-69320395D01*
X108813097Y-68507298D01*
X108741514Y-68263329D01*
X108486004Y-68142429D01*
X108211816Y-68073700D01*
X107929488Y-68059783D01*
X107649870Y-68101213D01*
X107383708Y-68196397D01*
X107258486Y-68263329D01*
X107186903Y-68507298D01*
X97757503Y-68507298D01*
X100379801Y-65885001D01*
X113587677Y-65885001D01*
X113624999Y-65888677D01*
X113662321Y-65885001D01*
X113662332Y-65885001D01*
X113773985Y-65874004D01*
X113917246Y-65830547D01*
X114049275Y-65759975D01*
X114165000Y-65665002D01*
X114188803Y-65635998D01*
X119426114Y-60398688D01*
X119608665Y-60435000D01*
X119891335Y-60435000D01*
X120168574Y-60379853D01*
X120429727Y-60271680D01*
X120664759Y-60114637D01*
X120864637Y-59914759D01*
X120968043Y-59760000D01*
X122961928Y-59760000D01*
X122961928Y-59900000D01*
X122961928Y-59900000D01*
G37*
X122961928Y-59900000D02*
X122974188Y-60024482D01*
X123010498Y-60144180D01*
X123069463Y-60254494D01*
X123148815Y-60351185D01*
X123245506Y-60430537D01*
X123355820Y-60489502D01*
X123475518Y-60525812D01*
X123600000Y-60538072D01*
X123845674Y-60538072D01*
X123865026Y-60574276D01*
X123904871Y-60622826D01*
X123959999Y-60690001D01*
X123989003Y-60713804D01*
X130715000Y-67439802D01*
X130714999Y-71377676D01*
X130711323Y-71414999D01*
X130714999Y-71452321D01*
X130714999Y-71452331D01*
X130725996Y-71563984D01*
X130769450Y-71707236D01*
X130769453Y-71707245D01*
X130840025Y-71839275D01*
X130876491Y-71883708D01*
X130934998Y-71955000D01*
X130964001Y-71978803D01*
X131199292Y-72214094D01*
X131185764Y-72258691D01*
X131158057Y-72540000D01*
X131185764Y-72821309D01*
X131267818Y-73091808D01*
X131401068Y-73341101D01*
X131580392Y-73559608D01*
X131798899Y-73738932D01*
X131931858Y-73810000D01*
X131798899Y-73881068D01*
X131580392Y-74060392D01*
X131401068Y-74278899D01*
X131379099Y-74320000D01*
X121457333Y-74320000D01*
X121420000Y-74316323D01*
X121382667Y-74320000D01*
X121271014Y-74330997D01*
X121127753Y-74374454D01*
X120995724Y-74445026D01*
X120879999Y-74539999D01*
X120856202Y-74568996D01*
X119129246Y-76295952D01*
X119063799Y-76216205D01*
X119040001Y-76187207D01*
X119011002Y-76163409D01*
X118331594Y-75484001D01*
X118307792Y-75454998D01*
X118192067Y-75360025D01*
X118060038Y-75289453D01*
X117916777Y-75245996D01*
X117805124Y-75234999D01*
X117805113Y-75234999D01*
X117767791Y-75231323D01*
X117730469Y-75234999D01*
X105042334Y-75234999D01*
X105005001Y-75231322D01*
X104967668Y-75234999D01*
X104856015Y-75245996D01*
X104712754Y-75289453D01*
X104580725Y-75360025D01*
X104465000Y-75454998D01*
X104441197Y-75484002D01*
X104323887Y-75601312D01*
X104141335Y-75565000D01*
X103858665Y-75565000D01*
X103581426Y-75620147D01*
X103320273Y-75728320D01*
X103085241Y-75885363D01*
X102885363Y-76085241D01*
X102728320Y-76320273D01*
X102620147Y-76581426D01*
X102565000Y-76858665D01*
X102565000Y-77141335D01*
X102620147Y-77418574D01*
X102728320Y-77679727D01*
X102885363Y-77914759D01*
X103085241Y-78114637D01*
X103320273Y-78271680D01*
X103581426Y-78379853D01*
X103858665Y-78435000D01*
X104141335Y-78435000D01*
X104418574Y-78379853D01*
X104679727Y-78271680D01*
X104914759Y-78114637D01*
X105114637Y-77914759D01*
X105271680Y-77679727D01*
X105379853Y-77418574D01*
X105435000Y-77141335D01*
X105435000Y-76858665D01*
X105414379Y-76754999D01*
X106611151Y-76754999D01*
X106585764Y-76838691D01*
X106558057Y-77120000D01*
X106585764Y-77401309D01*
X106667818Y-77671808D01*
X106801068Y-77921101D01*
X106980392Y-78139608D01*
X107198899Y-78318932D01*
X107448192Y-78452182D01*
X107718691Y-78534236D01*
X107929508Y-78555000D01*
X108070492Y-78555000D01*
X108281309Y-78534236D01*
X108324512Y-78521131D01*
X108339999Y-78540001D01*
X108368997Y-78563799D01*
X108455723Y-78634974D01*
X108464393Y-78639608D01*
X108587753Y-78705546D01*
X108731014Y-78749003D01*
X108842667Y-78760000D01*
X108842677Y-78760000D01*
X108880000Y-78763676D01*
X108917323Y-78760000D01*
X114661687Y-78760000D01*
X114807688Y-78978505D01*
X115021495Y-79192312D01*
X115242525Y-79340000D01*
X90660000Y-79340000D01*
X90660000Y-78419638D01*
X90745500Y-78544895D01*
X90947161Y-78742601D01*
X91183517Y-78897166D01*
X91445486Y-79002650D01*
X91723000Y-79055000D01*
X92123000Y-79055000D01*
X92123000Y-77747000D01*
X92377000Y-77747000D01*
X92377000Y-79055000D01*
X92777000Y-79055000D01*
X93054514Y-79002650D01*
X93316483Y-78897166D01*
X93552839Y-78742601D01*
X93754500Y-78544895D01*
X93913715Y-78311646D01*
X94024367Y-78051818D01*
X94041904Y-77969039D01*
X93919915Y-77747000D01*
X92377000Y-77747000D01*
X92123000Y-77747000D01*
X92103000Y-77747000D01*
X92103000Y-77493000D01*
X92123000Y-77493000D01*
X92123000Y-77473000D01*
X92377000Y-77473000D01*
X92377000Y-77493000D01*
X93919915Y-77493000D01*
X94041904Y-77270961D01*
X94024367Y-77188182D01*
X93913715Y-76928354D01*
X93754500Y-76695105D01*
X93552839Y-76497399D01*
X93323259Y-76347265D01*
X93451101Y-76278932D01*
X93669608Y-76099608D01*
X93848932Y-75881101D01*
X93982182Y-75631808D01*
X94064236Y-75361309D01*
X94091943Y-75080000D01*
X94064236Y-74798691D01*
X93982182Y-74528192D01*
X93848932Y-74278899D01*
X93669608Y-74060392D01*
X93451101Y-73881068D01*
X93318142Y-73810000D01*
X93451101Y-73738932D01*
X93669608Y-73559608D01*
X93848932Y-73341101D01*
X93982182Y-73091808D01*
X94064236Y-72821309D01*
X94091943Y-72540000D01*
X94064236Y-72258691D01*
X94050708Y-72214093D01*
X96264801Y-70000000D01*
X98028057Y-70000000D01*
X98055764Y-70281309D01*
X98137818Y-70551808D01*
X98271068Y-70801101D01*
X98450392Y-71019608D01*
X98668899Y-71198932D01*
X98801858Y-71270000D01*
X98668899Y-71341068D01*
X98450392Y-71520392D01*
X98271068Y-71738899D01*
X98137818Y-71988192D01*
X98055764Y-72258691D01*
X98028057Y-72540000D01*
X98055764Y-72821309D01*
X98137818Y-73091808D01*
X98271068Y-73341101D01*
X98450392Y-73559608D01*
X98668899Y-73738932D01*
X98801858Y-73810000D01*
X98668899Y-73881068D01*
X98450392Y-74060392D01*
X98271068Y-74278899D01*
X98137818Y-74528192D01*
X98055764Y-74798691D01*
X98028057Y-75080000D01*
X98055764Y-75361309D01*
X98137818Y-75631808D01*
X98271068Y-75881101D01*
X98450392Y-76099608D01*
X98668899Y-76278932D01*
X98801858Y-76350000D01*
X98668899Y-76421068D01*
X98450392Y-76600392D01*
X98271068Y-76818899D01*
X98137818Y-77068192D01*
X98055764Y-77338691D01*
X98028057Y-77620000D01*
X98055764Y-77901309D01*
X98137818Y-78171808D01*
X98271068Y-78421101D01*
X98450392Y-78639608D01*
X98668899Y-78818932D01*
X98918192Y-78952182D01*
X99188691Y-79034236D01*
X99399508Y-79055000D01*
X100340492Y-79055000D01*
X100551309Y-79034236D01*
X100821808Y-78952182D01*
X101071101Y-78818932D01*
X101289608Y-78639608D01*
X101468932Y-78421101D01*
X101602182Y-78171808D01*
X101684236Y-77901309D01*
X101711943Y-77620000D01*
X101684236Y-77338691D01*
X101602182Y-77068192D01*
X101468932Y-76818899D01*
X101289608Y-76600392D01*
X101071101Y-76421068D01*
X100938142Y-76350000D01*
X101071101Y-76278932D01*
X101289608Y-76099608D01*
X101468932Y-75881101D01*
X101602182Y-75631808D01*
X101684236Y-75361309D01*
X101711943Y-75080000D01*
X101684236Y-74798691D01*
X101602182Y-74528192D01*
X101468932Y-74278899D01*
X101289608Y-74060392D01*
X101071101Y-73881068D01*
X100938142Y-73810000D01*
X101071101Y-73738932D01*
X101289608Y-73559608D01*
X101468932Y-73341101D01*
X101602182Y-73091808D01*
X101632245Y-72992702D01*
X103186903Y-72992702D01*
X103258486Y-73236671D01*
X103513996Y-73357571D01*
X103788184Y-73426300D01*
X104070512Y-73440217D01*
X104350130Y-73398787D01*
X104616292Y-73303603D01*
X104741514Y-73236671D01*
X104813097Y-72992702D01*
X104000000Y-72179605D01*
X103186903Y-72992702D01*
X101632245Y-72992702D01*
X101684236Y-72821309D01*
X101711943Y-72540000D01*
X101684236Y-72258691D01*
X101627154Y-72070512D01*
X102559783Y-72070512D01*
X102601213Y-72350130D01*
X102696397Y-72616292D01*
X102763329Y-72741514D01*
X103007298Y-72813097D01*
X103820395Y-72000000D01*
X104179605Y-72000000D01*
X104992702Y-72813097D01*
X105236671Y-72741514D01*
X105357571Y-72486004D01*
X105426300Y-72211816D01*
X105440217Y-71929488D01*
X105398787Y-71649870D01*
X105303603Y-71383708D01*
X105236671Y-71258486D01*
X104992702Y-71186903D01*
X104179605Y-72000000D01*
X103820395Y-72000000D01*
X103007298Y-71186903D01*
X102763329Y-71258486D01*
X102642429Y-71513996D01*
X102573700Y-71788184D01*
X102559783Y-72070512D01*
X101627154Y-72070512D01*
X101602182Y-71988192D01*
X101468932Y-71738899D01*
X101289608Y-71520392D01*
X101071101Y-71341068D01*
X100938142Y-71270000D01*
X101071101Y-71198932D01*
X101289608Y-71019608D01*
X101299710Y-71007298D01*
X103186903Y-71007298D01*
X104000000Y-71820395D01*
X104813097Y-71007298D01*
X104741514Y-70763329D01*
X104486004Y-70642429D01*
X104211816Y-70573700D01*
X103929488Y-70559783D01*
X103649870Y-70601213D01*
X103383708Y-70696397D01*
X103258486Y-70763329D01*
X103186903Y-71007298D01*
X101299710Y-71007298D01*
X101468932Y-70801101D01*
X101602182Y-70551808D01*
X101620111Y-70492702D01*
X107186903Y-70492702D01*
X107258486Y-70736671D01*
X107513996Y-70857571D01*
X107788184Y-70926300D01*
X108070512Y-70940217D01*
X108350130Y-70898787D01*
X108616292Y-70803603D01*
X108741514Y-70736671D01*
X108813097Y-70492702D01*
X108000000Y-69679605D01*
X107186903Y-70492702D01*
X101620111Y-70492702D01*
X101684236Y-70281309D01*
X101711943Y-70000000D01*
X101684236Y-69718691D01*
X101639287Y-69570512D01*
X106559783Y-69570512D01*
X106601213Y-69850130D01*
X106696397Y-70116292D01*
X106763329Y-70241514D01*
X107007298Y-70313097D01*
X107820395Y-69500000D01*
X108179605Y-69500000D01*
X108992702Y-70313097D01*
X109236671Y-70241514D01*
X109237162Y-70240475D01*
X111115000Y-70240475D01*
X111115000Y-70759525D01*
X111216261Y-71268601D01*
X111414893Y-71748141D01*
X111703262Y-72179715D01*
X112070285Y-72546738D01*
X112501859Y-72835107D01*
X112981399Y-73033739D01*
X113490475Y-73135000D01*
X114009525Y-73135000D01*
X114518601Y-73033739D01*
X114998141Y-72835107D01*
X115429715Y-72546738D01*
X115796738Y-72179715D01*
X116085107Y-71748141D01*
X116283739Y-71268601D01*
X116385000Y-70759525D01*
X116385000Y-70240475D01*
X120615000Y-70240475D01*
X120615000Y-70759525D01*
X120716261Y-71268601D01*
X120914893Y-71748141D01*
X121203262Y-72179715D01*
X121570285Y-72546738D01*
X122001859Y-72835107D01*
X122481399Y-73033739D01*
X122990475Y-73135000D01*
X123509525Y-73135000D01*
X124018601Y-73033739D01*
X124498141Y-72835107D01*
X124929715Y-72546738D01*
X125296738Y-72179715D01*
X125585107Y-71748141D01*
X125783739Y-71268601D01*
X125885000Y-70759525D01*
X125885000Y-70240475D01*
X125809054Y-69858665D01*
X127065000Y-69858665D01*
X127065000Y-70141335D01*
X127120147Y-70418574D01*
X127228320Y-70679727D01*
X127385363Y-70914759D01*
X127585241Y-71114637D01*
X127820273Y-71271680D01*
X128081426Y-71379853D01*
X128358665Y-71435000D01*
X128641335Y-71435000D01*
X128918574Y-71379853D01*
X129179727Y-71271680D01*
X129414759Y-71114637D01*
X129614637Y-70914759D01*
X129771680Y-70679727D01*
X129879853Y-70418574D01*
X129935000Y-70141335D01*
X129935000Y-69858665D01*
X129879853Y-69581426D01*
X129771680Y-69320273D01*
X129614637Y-69085241D01*
X129414759Y-68885363D01*
X129179727Y-68728320D01*
X128918574Y-68620147D01*
X128641335Y-68565000D01*
X128358665Y-68565000D01*
X128081426Y-68620147D01*
X127820273Y-68728320D01*
X127585241Y-68885363D01*
X127385363Y-69085241D01*
X127228320Y-69320273D01*
X127120147Y-69581426D01*
X127065000Y-69858665D01*
X125809054Y-69858665D01*
X125783739Y-69731399D01*
X125585107Y-69251859D01*
X125296738Y-68820285D01*
X124929715Y-68453262D01*
X124498141Y-68164893D01*
X124018601Y-67966261D01*
X123509525Y-67865000D01*
X122990475Y-67865000D01*
X122481399Y-67966261D01*
X122001859Y-68164893D01*
X121570285Y-68453262D01*
X121203262Y-68820285D01*
X120914893Y-69251859D01*
X120716261Y-69731399D01*
X120615000Y-70240475D01*
X116385000Y-70240475D01*
X116283739Y-69731399D01*
X116085107Y-69251859D01*
X115796738Y-68820285D01*
X115429715Y-68453262D01*
X114998141Y-68164893D01*
X114518601Y-67966261D01*
X114009525Y-67865000D01*
X113490475Y-67865000D01*
X112981399Y-67966261D01*
X112501859Y-68164893D01*
X112070285Y-68453262D01*
X111703262Y-68820285D01*
X111414893Y-69251859D01*
X111216261Y-69731399D01*
X111115000Y-70240475D01*
X109237162Y-70240475D01*
X109357571Y-69986004D01*
X109426300Y-69711816D01*
X109440217Y-69429488D01*
X109398787Y-69149870D01*
X109303603Y-68883708D01*
X109236671Y-68758486D01*
X108992702Y-68686903D01*
X108179605Y-69500000D01*
X107820395Y-69500000D01*
X107007298Y-68686903D01*
X106763329Y-68758486D01*
X106642429Y-69013996D01*
X106573700Y-69288184D01*
X106559783Y-69570512D01*
X101639287Y-69570512D01*
X101602182Y-69448192D01*
X101468932Y-69198899D01*
X101289608Y-68980392D01*
X101071101Y-68801068D01*
X100821808Y-68667818D01*
X100551309Y-68585764D01*
X100340492Y-68565000D01*
X99399508Y-68565000D01*
X99188691Y-68585764D01*
X98918192Y-68667818D01*
X98668899Y-68801068D01*
X98450392Y-68980392D01*
X98271068Y-69198899D01*
X98137818Y-69448192D01*
X98055764Y-69718691D01*
X98028057Y-70000000D01*
X96264801Y-70000000D01*
X97757503Y-68507298D01*
X107186903Y-68507298D01*
X108000000Y-69320395D01*
X108813097Y-68507298D01*
X108741514Y-68263329D01*
X108486004Y-68142429D01*
X108211816Y-68073700D01*
X107929488Y-68059783D01*
X107649870Y-68101213D01*
X107383708Y-68196397D01*
X107258486Y-68263329D01*
X107186903Y-68507298D01*
X97757503Y-68507298D01*
X100379801Y-65885001D01*
X113587677Y-65885001D01*
X113624999Y-65888677D01*
X113662321Y-65885001D01*
X113662332Y-65885001D01*
X113773985Y-65874004D01*
X113917246Y-65830547D01*
X114049275Y-65759975D01*
X114165000Y-65665002D01*
X114188803Y-65635998D01*
X119426114Y-60398688D01*
X119608665Y-60435000D01*
X119891335Y-60435000D01*
X120168574Y-60379853D01*
X120429727Y-60271680D01*
X120664759Y-60114637D01*
X120864637Y-59914759D01*
X120968043Y-59760000D01*
X122961928Y-59760000D01*
X122961928Y-59900000D01*
G36*
X118570273Y-45728320D02*
G01*
X118335241Y-45885363D01*
X118135363Y-46085241D01*
X117978320Y-46320273D01*
X117870147Y-46581426D01*
X117815000Y-46858665D01*
X117815000Y-47141335D01*
X117870147Y-47418574D01*
X117978320Y-47679727D01*
X118135363Y-47914759D01*
X118335241Y-48114637D01*
X118570273Y-48271680D01*
X118831426Y-48379853D01*
X119108665Y-48435000D01*
X119391335Y-48435000D01*
X119668574Y-48379853D01*
X119929727Y-48271680D01*
X120164759Y-48114637D01*
X120364637Y-47914759D01*
X120521680Y-47679727D01*
X120596125Y-47500000D01*
X137611928Y-47500000D01*
X137615000Y-48714250D01*
X137773750Y-48873000D01*
X139873000Y-48873000D01*
X139873000Y-47023750D01*
X140127000Y-47023750D01*
X140127000Y-48873000D01*
X142226250Y-48873000D01*
X142385000Y-48714250D01*
X142388072Y-47500000D01*
X142375812Y-47375518D01*
X142339502Y-47255820D01*
X142280537Y-47145506D01*
X142201185Y-47048815D01*
X142104494Y-46969463D01*
X141994180Y-46910498D01*
X141874482Y-46874188D01*
X141750000Y-46861928D01*
X140285750Y-46865000D01*
X140127000Y-47023750D01*
X139873000Y-47023750D01*
X139714250Y-46865000D01*
X138250000Y-46861928D01*
X138125518Y-46874188D01*
X138005820Y-46910498D01*
X137895506Y-46969463D01*
X137798815Y-47048815D01*
X137719463Y-47145506D01*
X137660498Y-47255820D01*
X137624188Y-47375518D01*
X137611928Y-47500000D01*
X120596125Y-47500000D01*
X120629853Y-47418574D01*
X120685000Y-47141335D01*
X120685000Y-46858665D01*
X120629853Y-46581426D01*
X120521680Y-46320273D01*
X120364637Y-46085241D01*
X120164759Y-45885363D01*
X119929727Y-45728320D01*
X119764788Y-45660000D01*
X148485212Y-45660000D01*
X148320273Y-45728320D01*
X148085241Y-45885363D01*
X147885363Y-46085241D01*
X147728320Y-46320273D01*
X147620147Y-46581426D01*
X147565000Y-46858665D01*
X147565000Y-47141335D01*
X147620147Y-47418574D01*
X147728320Y-47679727D01*
X147885363Y-47914759D01*
X148085241Y-48114637D01*
X148320273Y-48271680D01*
X148581426Y-48379853D01*
X148858665Y-48435000D01*
X149141335Y-48435000D01*
X149418574Y-48379853D01*
X149679727Y-48271680D01*
X149914759Y-48114637D01*
X150114637Y-47914759D01*
X150271680Y-47679727D01*
X150379853Y-47418574D01*
X150435000Y-47141335D01*
X150435000Y-46858665D01*
X150379853Y-46581426D01*
X150271680Y-46320273D01*
X150114637Y-46085241D01*
X149914759Y-45885363D01*
X149679727Y-45728320D01*
X149514788Y-45660000D01*
X153485212Y-45660000D01*
X153320273Y-45728320D01*
X153085241Y-45885363D01*
X152885363Y-46085241D01*
X152728320Y-46320273D01*
X152620147Y-46581426D01*
X152565000Y-46858665D01*
X152565000Y-47141335D01*
X152620147Y-47418574D01*
X152728320Y-47679727D01*
X152885363Y-47914759D01*
X153085241Y-48114637D01*
X153240000Y-48218044D01*
X153240001Y-49305197D01*
X149325906Y-53219292D01*
X149281309Y-53205764D01*
X149070492Y-53185000D01*
X148929508Y-53185000D01*
X148718691Y-53205764D01*
X148448192Y-53287818D01*
X148198899Y-53421068D01*
X147980392Y-53600392D01*
X147801068Y-53818899D01*
X147667818Y-54068192D01*
X147585764Y-54338691D01*
X147558057Y-54620000D01*
X147585764Y-54901309D01*
X147598870Y-54944513D01*
X147580000Y-54959999D01*
X147556202Y-54988997D01*
X147556201Y-54988998D01*
X147485026Y-55075724D01*
X147414454Y-55207754D01*
X147370998Y-55351015D01*
X147356324Y-55500000D01*
X147360001Y-55537332D01*
X147360000Y-62779099D01*
X147318899Y-62801068D01*
X147100392Y-62980392D01*
X146921068Y-63198899D01*
X146787818Y-63448192D01*
X146705764Y-63718691D01*
X146678057Y-64000000D01*
X146705764Y-64281309D01*
X146787818Y-64551808D01*
X146921068Y-64801101D01*
X147100392Y-65019608D01*
X147318899Y-65198932D01*
X147568192Y-65332182D01*
X147838691Y-65414236D01*
X148049508Y-65435000D01*
X148190492Y-65435000D01*
X148401309Y-65414236D01*
X148671808Y-65332182D01*
X148921101Y-65198932D01*
X149139608Y-65019608D01*
X149318932Y-64801101D01*
X149452182Y-64551808D01*
X149534236Y-64281309D01*
X149561943Y-64000000D01*
X149534236Y-63718691D01*
X149452182Y-63448192D01*
X149318932Y-63198899D01*
X149139608Y-62980392D01*
X148921101Y-62801068D01*
X148880000Y-62779099D01*
X148880000Y-56050124D01*
X148929508Y-56055000D01*
X149070492Y-56055000D01*
X149281309Y-56034236D01*
X149551808Y-55952182D01*
X149801101Y-55818932D01*
X150019608Y-55639608D01*
X150198932Y-55421101D01*
X150332182Y-55171808D01*
X150393690Y-54969040D01*
X152608091Y-54969040D01*
X152702930Y-55233881D01*
X152847615Y-55475131D01*
X153036586Y-55683519D01*
X153262580Y-55851037D01*
X153516913Y-55971246D01*
X153650961Y-56011904D01*
X153873000Y-55889915D01*
X153873000Y-54747000D01*
X154127000Y-54747000D01*
X154127000Y-55889915D01*
X154349039Y-56011904D01*
X154483087Y-55971246D01*
X154737420Y-55851037D01*
X154963414Y-55683519D01*
X155152385Y-55475131D01*
X155297070Y-55233881D01*
X155391909Y-54969040D01*
X155270624Y-54747000D01*
X154127000Y-54747000D01*
X153873000Y-54747000D01*
X152729376Y-54747000D01*
X152608091Y-54969040D01*
X150393690Y-54969040D01*
X150414236Y-54901309D01*
X150441943Y-54620000D01*
X150414236Y-54338691D01*
X150400708Y-54294094D01*
X150423842Y-54270960D01*
X152608091Y-54270960D01*
X152729376Y-54493000D01*
X153873000Y-54493000D01*
X153873000Y-53350085D01*
X154127000Y-53350085D01*
X154127000Y-54493000D01*
X155270624Y-54493000D01*
X155349259Y-54349039D01*
X158988096Y-54349039D01*
X159028754Y-54483087D01*
X159148963Y-54737420D01*
X159316481Y-54963414D01*
X159524869Y-55152385D01*
X159766119Y-55297070D01*
X160030960Y-55391909D01*
X160253000Y-55270624D01*
X160253000Y-54127000D01*
X160507000Y-54127000D01*
X160507000Y-55270624D01*
X160729040Y-55391909D01*
X160993881Y-55297070D01*
X161235131Y-55152385D01*
X161443519Y-54963414D01*
X161611037Y-54737420D01*
X161731246Y-54483087D01*
X161771904Y-54349039D01*
X161649915Y-54127000D01*
X160507000Y-54127000D01*
X160253000Y-54127000D01*
X159110085Y-54127000D01*
X158988096Y-54349039D01*
X155349259Y-54349039D01*
X155391909Y-54270960D01*
X155297070Y-54006119D01*
X155152385Y-53764869D01*
X155049091Y-53650961D01*
X158988096Y-53650961D01*
X159110085Y-53873000D01*
X160253000Y-53873000D01*
X160253000Y-52729376D01*
X160507000Y-52729376D01*
X160507000Y-53873000D01*
X161649915Y-53873000D01*
X161771904Y-53650961D01*
X161731246Y-53516913D01*
X161611037Y-53262580D01*
X161443519Y-53036586D01*
X161235131Y-52847615D01*
X160993881Y-52702930D01*
X160729040Y-52608091D01*
X160507000Y-52729376D01*
X160253000Y-52729376D01*
X160030960Y-52608091D01*
X159766119Y-52702930D01*
X159524869Y-52847615D01*
X159316481Y-53036586D01*
X159148963Y-53262580D01*
X159028754Y-53516913D01*
X158988096Y-53650961D01*
X155049091Y-53650961D01*
X154963414Y-53556481D01*
X154737420Y-53388963D01*
X154483087Y-53268754D01*
X154349039Y-53228096D01*
X154127000Y-53350085D01*
X153873000Y-53350085D01*
X153650961Y-53228096D01*
X153516913Y-53268754D01*
X153262580Y-53388963D01*
X153036586Y-53556481D01*
X152847615Y-53764869D01*
X152702930Y-54006119D01*
X152608091Y-54270960D01*
X150423842Y-54270960D01*
X154511003Y-50183799D01*
X154540001Y-50160001D01*
X154634974Y-50044276D01*
X154705546Y-49912247D01*
X154749003Y-49768986D01*
X154760000Y-49657333D01*
X154760000Y-49657323D01*
X154763676Y-49620000D01*
X154760000Y-49582677D01*
X154760000Y-48218043D01*
X154914759Y-48114637D01*
X155114637Y-47914759D01*
X155218043Y-47760000D01*
X163071111Y-47760000D01*
X163023815Y-47798815D01*
X162944463Y-47895506D01*
X162885498Y-48005820D01*
X162849188Y-48125518D01*
X162836928Y-48250000D01*
X162836928Y-49750000D01*
X162849188Y-49874482D01*
X162885498Y-49994180D01*
X162944463Y-50104494D01*
X163023815Y-50201185D01*
X163120506Y-50280537D01*
X163230820Y-50339502D01*
X163336916Y-50371686D01*
X163365026Y-50424276D01*
X163404871Y-50472826D01*
X163459999Y-50540001D01*
X163489003Y-50563804D01*
X166601312Y-53676114D01*
X166565000Y-53858665D01*
X166565000Y-54141335D01*
X166620147Y-54418574D01*
X166728320Y-54679727D01*
X166885363Y-54914759D01*
X167085241Y-55114637D01*
X167320273Y-55271680D01*
X167581426Y-55379853D01*
X167858665Y-55435000D01*
X168141335Y-55435000D01*
X168418574Y-55379853D01*
X168455863Y-55364407D01*
X168471014Y-55369003D01*
X168582667Y-55380000D01*
X168582676Y-55380000D01*
X168619999Y-55383676D01*
X168657322Y-55380000D01*
X169779099Y-55380000D01*
X169801068Y-55421101D01*
X169980392Y-55639608D01*
X170198899Y-55818932D01*
X170448192Y-55952182D01*
X170718691Y-56034236D01*
X170929508Y-56055000D01*
X171070492Y-56055000D01*
X171281309Y-56034236D01*
X171365002Y-56008848D01*
X171365001Y-61940197D01*
X170705906Y-62599292D01*
X170661309Y-62585764D01*
X170450492Y-62565000D01*
X170309508Y-62565000D01*
X170098691Y-62585764D01*
X169828192Y-62667818D01*
X169578899Y-62801068D01*
X169360392Y-62980392D01*
X169181068Y-63198899D01*
X169047818Y-63448192D01*
X168965764Y-63718691D01*
X168938057Y-64000000D01*
X168965764Y-64281309D01*
X169047818Y-64551808D01*
X169181068Y-64801101D01*
X169360392Y-65019608D01*
X169578899Y-65198932D01*
X169828192Y-65332182D01*
X170098691Y-65414236D01*
X170309508Y-65435000D01*
X170450492Y-65435000D01*
X170661309Y-65414236D01*
X170931808Y-65332182D01*
X171181101Y-65198932D01*
X171399608Y-65019608D01*
X171578932Y-64801101D01*
X171712182Y-64551808D01*
X171794236Y-64281309D01*
X171821943Y-64000000D01*
X171794236Y-63718691D01*
X171780708Y-63674094D01*
X172636005Y-62818797D01*
X172665002Y-62795000D01*
X172719725Y-62728320D01*
X172759975Y-62679276D01*
X172830547Y-62547246D01*
X172830547Y-62547245D01*
X172874004Y-62403985D01*
X172885001Y-62292332D01*
X172885001Y-62292323D01*
X172888677Y-62255000D01*
X172885001Y-62217677D01*
X172885001Y-54117324D01*
X172888677Y-54079999D01*
X172885001Y-54042674D01*
X172885001Y-54042666D01*
X172874004Y-53931013D01*
X172830547Y-53787752D01*
X172759975Y-53655723D01*
X172665002Y-53539998D01*
X172636004Y-53516200D01*
X172611457Y-53491653D01*
X174537952Y-53491653D01*
X174693962Y-53807214D01*
X175068745Y-53998020D01*
X175473551Y-54112044D01*
X175892824Y-54144902D01*
X176310451Y-54095334D01*
X176710383Y-53965243D01*
X177006038Y-53807214D01*
X177162048Y-53491653D01*
X184837952Y-53491653D01*
X184993962Y-53807214D01*
X185368745Y-53998020D01*
X185773551Y-54112044D01*
X186192824Y-54144902D01*
X186610451Y-54095334D01*
X187010383Y-53965243D01*
X187306038Y-53807214D01*
X187462048Y-53491653D01*
X186150000Y-52179605D01*
X184837952Y-53491653D01*
X177162048Y-53491653D01*
X175850000Y-52179605D01*
X174537952Y-53491653D01*
X172611457Y-53491653D01*
X171162628Y-52042824D01*
X173705098Y-52042824D01*
X173754666Y-52460451D01*
X173884757Y-52860383D01*
X174042786Y-53156038D01*
X174358347Y-53312048D01*
X175670395Y-52000000D01*
X176029605Y-52000000D01*
X177341653Y-53312048D01*
X177657214Y-53156038D01*
X177848020Y-52781255D01*
X177962044Y-52376449D01*
X177994902Y-51957176D01*
X177945334Y-51539549D01*
X177815243Y-51139617D01*
X177657214Y-50843962D01*
X177341653Y-50687952D01*
X176029605Y-52000000D01*
X175670395Y-52000000D01*
X174358347Y-50687952D01*
X174042786Y-50843962D01*
X173851980Y-51218745D01*
X173737956Y-51623551D01*
X173705098Y-52042824D01*
X171162628Y-52042824D01*
X169628151Y-50508347D01*
X174537952Y-50508347D01*
X175850000Y-51820395D01*
X177162048Y-50508347D01*
X177006038Y-50192786D01*
X176631255Y-50001980D01*
X176226449Y-49887956D01*
X175807176Y-49855098D01*
X175389549Y-49904666D01*
X174989617Y-50034757D01*
X174693962Y-50192786D01*
X174537952Y-50508347D01*
X169628151Y-50508347D01*
X168683816Y-49564013D01*
X168660013Y-49535009D01*
X168544288Y-49440036D01*
X168412259Y-49369464D01*
X168268998Y-49326007D01*
X168157345Y-49315010D01*
X168157334Y-49315010D01*
X168120012Y-49311334D01*
X168082690Y-49315010D01*
X167696747Y-49315010D01*
X167700000Y-49281978D01*
X167700000Y-48718021D01*
X167683215Y-48547600D01*
X167616885Y-48328940D01*
X167509171Y-48127421D01*
X167364212Y-47950788D01*
X167187578Y-47805829D01*
X166986059Y-47698115D01*
X166767399Y-47631785D01*
X166540000Y-47609388D01*
X166312600Y-47631785D01*
X166093940Y-47698115D01*
X165989548Y-47753913D01*
X165975546Y-47707753D01*
X165904974Y-47575724D01*
X165833799Y-47488997D01*
X165810001Y-47459999D01*
X165781003Y-47436201D01*
X164833804Y-46489002D01*
X164810001Y-46459999D01*
X164694276Y-46365026D01*
X164562247Y-46294454D01*
X164418986Y-46250997D01*
X164307333Y-46240000D01*
X164307322Y-46240000D01*
X164270000Y-46236324D01*
X164232678Y-46240000D01*
X155218043Y-46240000D01*
X155114637Y-46085241D01*
X154914759Y-45885363D01*
X154679727Y-45728320D01*
X154514788Y-45660000D01*
X170485212Y-45660000D01*
X170320273Y-45728320D01*
X170085241Y-45885363D01*
X169885363Y-46085241D01*
X169728320Y-46320273D01*
X169620147Y-46581426D01*
X169565000Y-46858665D01*
X169565000Y-47141335D01*
X169620147Y-47418574D01*
X169728320Y-47679727D01*
X169885363Y-47914759D01*
X170085241Y-48114637D01*
X170320273Y-48271680D01*
X170581426Y-48379853D01*
X170858665Y-48435000D01*
X171141335Y-48435000D01*
X171418574Y-48379853D01*
X171679727Y-48271680D01*
X171914759Y-48114637D01*
X172114637Y-47914759D01*
X172218043Y-47760000D01*
X177285199Y-47760000D01*
X179223347Y-49698149D01*
X179163400Y-49842873D01*
X179090000Y-50211881D01*
X179090000Y-50588119D01*
X179163400Y-50957127D01*
X179307380Y-51304724D01*
X179516406Y-51617554D01*
X179782446Y-51883594D01*
X180095276Y-52092620D01*
X180442873Y-52236600D01*
X180811881Y-52310000D01*
X181188119Y-52310000D01*
X181557127Y-52236600D01*
X181904724Y-52092620D01*
X181979249Y-52042824D01*
X184005098Y-52042824D01*
X184054666Y-52460451D01*
X184184757Y-52860383D01*
X184342786Y-53156038D01*
X184658347Y-53312048D01*
X185970395Y-52000000D01*
X186329605Y-52000000D01*
X187641653Y-53312048D01*
X187957214Y-53156038D01*
X188148020Y-52781255D01*
X188262044Y-52376449D01*
X188294902Y-51957176D01*
X188245334Y-51539549D01*
X188115243Y-51139617D01*
X187957214Y-50843962D01*
X187641653Y-50687952D01*
X186329605Y-52000000D01*
X185970395Y-52000000D01*
X184658347Y-50687952D01*
X184342786Y-50843962D01*
X184151980Y-51218745D01*
X184037956Y-51623551D01*
X184005098Y-52042824D01*
X181979249Y-52042824D01*
X182217554Y-51883594D01*
X182483594Y-51617554D01*
X182692620Y-51304724D01*
X182836600Y-50957127D01*
X182910000Y-50588119D01*
X182910000Y-50508347D01*
X184837952Y-50508347D01*
X186150000Y-51820395D01*
X187462048Y-50508347D01*
X187306038Y-50192786D01*
X186931255Y-50001980D01*
X186526449Y-49887956D01*
X186107176Y-49855098D01*
X185689549Y-49904666D01*
X185289617Y-50034757D01*
X184993962Y-50192786D01*
X184837952Y-50508347D01*
X182910000Y-50508347D01*
X182910000Y-50211881D01*
X182836600Y-49842873D01*
X182692620Y-49495276D01*
X182483594Y-49182446D01*
X182217554Y-48916406D01*
X181904724Y-48707380D01*
X181557127Y-48563400D01*
X181188119Y-48490000D01*
X180811881Y-48490000D01*
X180442873Y-48563400D01*
X180298149Y-48623347D01*
X178163804Y-46489003D01*
X178140001Y-46459999D01*
X178024276Y-46365026D01*
X177892247Y-46294454D01*
X177748986Y-46250997D01*
X177637333Y-46240000D01*
X177637322Y-46240000D01*
X177600000Y-46236324D01*
X177562678Y-46240000D01*
X172218043Y-46240000D01*
X172114637Y-46085241D01*
X171914759Y-45885363D01*
X171679727Y-45728320D01*
X171514788Y-45660000D01*
X189340000Y-45660000D01*
X189340001Y-69425402D01*
X189218932Y-69198899D01*
X189039608Y-68980392D01*
X188821101Y-68801068D01*
X188571808Y-68667818D01*
X188301309Y-68585764D01*
X188090492Y-68565000D01*
X187149508Y-68565000D01*
X186938691Y-68585764D01*
X186668192Y-68667818D01*
X186418899Y-68801068D01*
X186200392Y-68980392D01*
X186021068Y-69198899D01*
X185887818Y-69448192D01*
X185805764Y-69718691D01*
X185778057Y-70000000D01*
X185805764Y-70281309D01*
X185887818Y-70551808D01*
X186021068Y-70801101D01*
X186200392Y-71019608D01*
X186418899Y-71198932D01*
X186551858Y-71270000D01*
X186418899Y-71341068D01*
X186417235Y-71342433D01*
X179398688Y-64323887D01*
X179435000Y-64141335D01*
X179435000Y-63858665D01*
X179379853Y-63581426D01*
X179271680Y-63320273D01*
X179114637Y-63085241D01*
X178914759Y-62885363D01*
X178679727Y-62728320D01*
X178418574Y-62620147D01*
X178141335Y-62565000D01*
X177858665Y-62565000D01*
X177581426Y-62620147D01*
X177320273Y-62728320D01*
X177085241Y-62885363D01*
X176885363Y-63085241D01*
X176728320Y-63320273D01*
X176620147Y-63581426D01*
X176565000Y-63858665D01*
X176565000Y-64141335D01*
X176620147Y-64418574D01*
X176728320Y-64679727D01*
X176885363Y-64914759D01*
X177085241Y-65114637D01*
X177320273Y-65271680D01*
X177581426Y-65379853D01*
X177858665Y-65435000D01*
X178141335Y-65435000D01*
X178323887Y-65398688D01*
X185831566Y-72906368D01*
X185887818Y-73091808D01*
X186021068Y-73341101D01*
X186200392Y-73559608D01*
X186418899Y-73738932D01*
X186551858Y-73810000D01*
X186418899Y-73881068D01*
X186200392Y-74060392D01*
X186021068Y-74278899D01*
X185887818Y-74528192D01*
X185805764Y-74798691D01*
X185778057Y-75080000D01*
X185805764Y-75361309D01*
X185887818Y-75631808D01*
X186021068Y-75881101D01*
X186200392Y-76099608D01*
X186418899Y-76278932D01*
X186551858Y-76350000D01*
X186418899Y-76421068D01*
X186200392Y-76600392D01*
X186021068Y-76818899D01*
X185887818Y-77068192D01*
X185805764Y-77338691D01*
X185778057Y-77620000D01*
X185805764Y-77901309D01*
X185887818Y-78171808D01*
X186021068Y-78421101D01*
X186200392Y-78639608D01*
X186418899Y-78818932D01*
X186668192Y-78952182D01*
X186938691Y-79034236D01*
X187149508Y-79055000D01*
X188090492Y-79055000D01*
X188301309Y-79034236D01*
X188571808Y-78952182D01*
X188821101Y-78818932D01*
X189039608Y-78639608D01*
X189218932Y-78421101D01*
X189340001Y-78194597D01*
X189340001Y-79340000D01*
X164757475Y-79340000D01*
X164978505Y-79192312D01*
X165192312Y-78978505D01*
X165338313Y-78760000D01*
X171127090Y-78760000D01*
X171198899Y-78818932D01*
X171448192Y-78952182D01*
X171718691Y-79034236D01*
X171929508Y-79055000D01*
X172070492Y-79055000D01*
X172281309Y-79034236D01*
X172551808Y-78952182D01*
X172801101Y-78818932D01*
X173019608Y-78639608D01*
X173198932Y-78421101D01*
X173332182Y-78171808D01*
X173393690Y-77969039D01*
X178208096Y-77969039D01*
X178225633Y-78051818D01*
X178336285Y-78311646D01*
X178495500Y-78544895D01*
X178697161Y-78742601D01*
X178933517Y-78897166D01*
X179195486Y-79002650D01*
X179473000Y-79055000D01*
X179873000Y-79055000D01*
X179873000Y-77747000D01*
X180127000Y-77747000D01*
X180127000Y-79055000D01*
X180527000Y-79055000D01*
X180804514Y-79002650D01*
X181066483Y-78897166D01*
X181302839Y-78742601D01*
X181504500Y-78544895D01*
X181663715Y-78311646D01*
X181774367Y-78051818D01*
X181791904Y-77969039D01*
X181669915Y-77747000D01*
X180127000Y-77747000D01*
X179873000Y-77747000D01*
X178330085Y-77747000D01*
X178208096Y-77969039D01*
X173393690Y-77969039D01*
X173414236Y-77901309D01*
X173441943Y-77620000D01*
X173414236Y-77338691D01*
X173332182Y-77068192D01*
X173198932Y-76818899D01*
X173019608Y-76600392D01*
X172801101Y-76421068D01*
X172551808Y-76287818D01*
X172281309Y-76205764D01*
X172070492Y-76185000D01*
X171929508Y-76185000D01*
X171718691Y-76205764D01*
X171448192Y-76287818D01*
X171198899Y-76421068D01*
X170980392Y-76600392D01*
X170801068Y-76818899D01*
X170667818Y-77068192D01*
X170615701Y-77240000D01*
X165338313Y-77240000D01*
X165192312Y-77021495D01*
X164978505Y-76807688D01*
X164727095Y-76639701D01*
X164447743Y-76523989D01*
X164151184Y-76465000D01*
X164109802Y-76465000D01*
X164734802Y-75840000D01*
X178379099Y-75840000D01*
X178401068Y-75881101D01*
X178580392Y-76099608D01*
X178798899Y-76278932D01*
X178926741Y-76347265D01*
X178697161Y-76497399D01*
X178495500Y-76695105D01*
X178336285Y-76928354D01*
X178225633Y-77188182D01*
X178208096Y-77270961D01*
X178330085Y-77493000D01*
X179873000Y-77493000D01*
X179873000Y-77473000D01*
X180127000Y-77473000D01*
X180127000Y-77493000D01*
X181669915Y-77493000D01*
X181791904Y-77270961D01*
X181774367Y-77188182D01*
X181663715Y-76928354D01*
X181504500Y-76695105D01*
X181302839Y-76497399D01*
X181073259Y-76347265D01*
X181201101Y-76278932D01*
X181419608Y-76099608D01*
X181598932Y-75881101D01*
X181732182Y-75631808D01*
X181814236Y-75361309D01*
X181841943Y-75080000D01*
X181814236Y-74798691D01*
X181732182Y-74528192D01*
X181598932Y-74278899D01*
X181419608Y-74060392D01*
X181201101Y-73881068D01*
X181068142Y-73810000D01*
X181201101Y-73738932D01*
X181419608Y-73559608D01*
X181598932Y-73341101D01*
X181732182Y-73091808D01*
X181814236Y-72821309D01*
X181841943Y-72540000D01*
X181814236Y-72258691D01*
X181732182Y-71988192D01*
X181598932Y-71738899D01*
X181419608Y-71520392D01*
X181306518Y-71427581D01*
X181324482Y-71425812D01*
X181444180Y-71389502D01*
X181554494Y-71330537D01*
X181651185Y-71251185D01*
X181730537Y-71154494D01*
X181789502Y-71044180D01*
X181825812Y-70924482D01*
X181838072Y-70800000D01*
X181835000Y-70285750D01*
X181676250Y-70127000D01*
X180127000Y-70127000D01*
X180127000Y-70147000D01*
X179873000Y-70147000D01*
X179873000Y-70127000D01*
X178323750Y-70127000D01*
X178165000Y-70285750D01*
X178161928Y-70800000D01*
X178174188Y-70924482D01*
X178210498Y-71044180D01*
X178269463Y-71154494D01*
X178348815Y-71251185D01*
X178445506Y-71330537D01*
X178555820Y-71389502D01*
X178675518Y-71425812D01*
X178693482Y-71427581D01*
X178580392Y-71520392D01*
X178401068Y-71738899D01*
X178367843Y-71801059D01*
X178257753Y-71834454D01*
X178125724Y-71905026D01*
X178125722Y-71905027D01*
X178125723Y-71905027D01*
X178038996Y-71976201D01*
X178038992Y-71976205D01*
X178009999Y-71999999D01*
X177986205Y-72028992D01*
X177110189Y-72905010D01*
X167329380Y-72905010D01*
X167498141Y-72835107D01*
X167929715Y-72546738D01*
X168296738Y-72179715D01*
X168585107Y-71748141D01*
X168783739Y-71268601D01*
X168885000Y-70759525D01*
X168885000Y-70240475D01*
X168809054Y-69858665D01*
X170565000Y-69858665D01*
X170565000Y-70141335D01*
X170620147Y-70418574D01*
X170728320Y-70679727D01*
X170885363Y-70914759D01*
X171085241Y-71114637D01*
X171320273Y-71271680D01*
X171581426Y-71379853D01*
X171858665Y-71435000D01*
X172141335Y-71435000D01*
X172418574Y-71379853D01*
X172679727Y-71271680D01*
X172914759Y-71114637D01*
X173114637Y-70914759D01*
X173271680Y-70679727D01*
X173379853Y-70418574D01*
X173435000Y-70141335D01*
X173435000Y-69858665D01*
X173379853Y-69581426D01*
X173271680Y-69320273D01*
X173191317Y-69200000D01*
X178161928Y-69200000D01*
X178165000Y-69714250D01*
X178323750Y-69873000D01*
X179873000Y-69873000D01*
X179873000Y-68723750D01*
X180127000Y-68723750D01*
X180127000Y-69873000D01*
X181676250Y-69873000D01*
X181835000Y-69714250D01*
X181838072Y-69200000D01*
X181825812Y-69075518D01*
X181789502Y-68955820D01*
X181730537Y-68845506D01*
X181651185Y-68748815D01*
X181554494Y-68669463D01*
X181444180Y-68610498D01*
X181324482Y-68574188D01*
X181200000Y-68561928D01*
X180285750Y-68565000D01*
X180127000Y-68723750D01*
X179873000Y-68723750D01*
X179714250Y-68565000D01*
X178800000Y-68561928D01*
X178675518Y-68574188D01*
X178555820Y-68610498D01*
X178445506Y-68669463D01*
X178348815Y-68748815D01*
X178269463Y-68845506D01*
X178210498Y-68955820D01*
X178174188Y-69075518D01*
X178161928Y-69200000D01*
X173191317Y-69200000D01*
X173114637Y-69085241D01*
X172914759Y-68885363D01*
X172679727Y-68728320D01*
X172418574Y-68620147D01*
X172141335Y-68565000D01*
X171858665Y-68565000D01*
X171581426Y-68620147D01*
X171320273Y-68728320D01*
X171085241Y-68885363D01*
X170885363Y-69085241D01*
X170728320Y-69320273D01*
X170620147Y-69581426D01*
X170565000Y-69858665D01*
X168809054Y-69858665D01*
X168783739Y-69731399D01*
X168585107Y-69251859D01*
X168296738Y-68820285D01*
X167929715Y-68453262D01*
X167498141Y-68164893D01*
X167018601Y-67966261D01*
X166509525Y-67865000D01*
X165990475Y-67865000D01*
X165481399Y-67966261D01*
X165001859Y-68164893D01*
X164570285Y-68453262D01*
X164203262Y-68820285D01*
X163914893Y-69251859D01*
X163716261Y-69731399D01*
X163615000Y-70240475D01*
X163615000Y-70759525D01*
X163716261Y-71268601D01*
X163914893Y-71748141D01*
X164203262Y-72179715D01*
X164570285Y-72546738D01*
X165001859Y-72835107D01*
X165170620Y-72905010D01*
X157829380Y-72905010D01*
X157998141Y-72835107D01*
X158429715Y-72546738D01*
X158796738Y-72179715D01*
X159085107Y-71748141D01*
X159283739Y-71268601D01*
X159385000Y-70759525D01*
X159385000Y-70240475D01*
X159283739Y-69731399D01*
X159085107Y-69251859D01*
X158796738Y-68820285D01*
X158429715Y-68453262D01*
X157998141Y-68164893D01*
X157518601Y-67966261D01*
X157009525Y-67865000D01*
X156490475Y-67865000D01*
X155981399Y-67966261D01*
X155501859Y-68164893D01*
X155070285Y-68453262D01*
X154703262Y-68820285D01*
X154414893Y-69251859D01*
X154216261Y-69731399D01*
X154115000Y-70240475D01*
X154115000Y-70759525D01*
X154216261Y-71268601D01*
X154414893Y-71748141D01*
X154703262Y-72179715D01*
X155070285Y-72546738D01*
X155501859Y-72835107D01*
X155670620Y-72905010D01*
X147877873Y-72905010D01*
X147926300Y-72711816D01*
X147940217Y-72429488D01*
X147898787Y-72149870D01*
X147803603Y-71883708D01*
X147736671Y-71758486D01*
X147492702Y-71686903D01*
X146679605Y-72500000D01*
X146693748Y-72514143D01*
X146514143Y-72693748D01*
X146500000Y-72679605D01*
X146485858Y-72693748D01*
X146306253Y-72514143D01*
X146320395Y-72500000D01*
X145507298Y-71686903D01*
X145263329Y-71758486D01*
X145142429Y-72013996D01*
X145073700Y-72288184D01*
X145059783Y-72570512D01*
X145101213Y-72850130D01*
X145120839Y-72905010D01*
X142408846Y-72905010D01*
X142434236Y-72821309D01*
X142461943Y-72540000D01*
X142434236Y-72258691D01*
X142420708Y-72214095D01*
X142656019Y-71978784D01*
X142685011Y-71954991D01*
X142708805Y-71925998D01*
X142708809Y-71925994D01*
X142766821Y-71855305D01*
X142779984Y-71839266D01*
X142850556Y-71707237D01*
X142894013Y-71563976D01*
X142899595Y-71507298D01*
X145686903Y-71507298D01*
X146500000Y-72320395D01*
X147313097Y-71507298D01*
X147241514Y-71263329D01*
X146986004Y-71142429D01*
X146711816Y-71073700D01*
X146429488Y-71059783D01*
X146149870Y-71101213D01*
X145883708Y-71196397D01*
X145758486Y-71263329D01*
X145686903Y-71507298D01*
X142899595Y-71507298D01*
X142905010Y-71452323D01*
X142905010Y-71452314D01*
X142908686Y-71414991D01*
X142905010Y-71377668D01*
X142905010Y-70992702D01*
X150186903Y-70992702D01*
X150258486Y-71236671D01*
X150513996Y-71357571D01*
X150788184Y-71426300D01*
X151070512Y-71440217D01*
X151350130Y-71398787D01*
X151616292Y-71303603D01*
X151741514Y-71236671D01*
X151813097Y-70992702D01*
X151000000Y-70179605D01*
X150186903Y-70992702D01*
X142905010Y-70992702D01*
X142905010Y-70070512D01*
X149559783Y-70070512D01*
X149601213Y-70350130D01*
X149696397Y-70616292D01*
X149763329Y-70741514D01*
X150007298Y-70813097D01*
X150820395Y-70000000D01*
X151179605Y-70000000D01*
X151992702Y-70813097D01*
X152236671Y-70741514D01*
X152357571Y-70486004D01*
X152426300Y-70211816D01*
X152440217Y-69929488D01*
X152398787Y-69649870D01*
X152303603Y-69383708D01*
X152236671Y-69258486D01*
X151992702Y-69186903D01*
X151179605Y-70000000D01*
X150820395Y-70000000D01*
X150007298Y-69186903D01*
X149763329Y-69258486D01*
X149642429Y-69513996D01*
X149573700Y-69788184D01*
X149559783Y-70070512D01*
X142905010Y-70070512D01*
X142905010Y-69007298D01*
X150186903Y-69007298D01*
X151000000Y-69820395D01*
X151813097Y-69007298D01*
X151741514Y-68763329D01*
X151486004Y-68642429D01*
X151211816Y-68573700D01*
X150929488Y-68559783D01*
X150649870Y-68601213D01*
X150383708Y-68696397D01*
X150258486Y-68763329D01*
X150186903Y-69007298D01*
X142905010Y-69007298D01*
X142905010Y-65682332D01*
X142908686Y-65645009D01*
X142905010Y-65607687D01*
X142905010Y-65607677D01*
X142894013Y-65496024D01*
X142850556Y-65352763D01*
X142839555Y-65332182D01*
X142779984Y-65220733D01*
X142708809Y-65134007D01*
X142685011Y-65105009D01*
X142656013Y-65081211D01*
X141898688Y-64323887D01*
X141935000Y-64141335D01*
X141935000Y-63858665D01*
X141879853Y-63581426D01*
X141771680Y-63320273D01*
X141614637Y-63085241D01*
X141414759Y-62885363D01*
X141179727Y-62728320D01*
X140918574Y-62620147D01*
X140641335Y-62565000D01*
X140358665Y-62565000D01*
X140081426Y-62620147D01*
X139820273Y-62728320D01*
X139585241Y-62885363D01*
X139385363Y-63085241D01*
X139228320Y-63320273D01*
X139120147Y-63581426D01*
X139065000Y-63858665D01*
X139065000Y-64141335D01*
X139120147Y-64418574D01*
X139228320Y-64679727D01*
X139385363Y-64914759D01*
X139585241Y-65114637D01*
X139820273Y-65271680D01*
X140081426Y-65379853D01*
X140358665Y-65435000D01*
X140641335Y-65435000D01*
X140823887Y-65398688D01*
X141385011Y-65959813D01*
X141385010Y-68611154D01*
X141301309Y-68585764D01*
X141090492Y-68565000D01*
X140149508Y-68565000D01*
X139938691Y-68585764D01*
X139668192Y-68667818D01*
X139418899Y-68801068D01*
X139200392Y-68980392D01*
X139021068Y-69198899D01*
X138887818Y-69448192D01*
X138805764Y-69718691D01*
X138778057Y-70000000D01*
X138805764Y-70281309D01*
X138887818Y-70551808D01*
X139021068Y-70801101D01*
X139200392Y-71019608D01*
X139418899Y-71198932D01*
X139551858Y-71270000D01*
X139418899Y-71341068D01*
X139200392Y-71520392D01*
X139021068Y-71738899D01*
X138887818Y-71988192D01*
X138805764Y-72258691D01*
X138778057Y-72540000D01*
X138805764Y-72821309D01*
X138831154Y-72905010D01*
X135889813Y-72905010D01*
X135013803Y-72029002D01*
X134990001Y-71999999D01*
X134874276Y-71905026D01*
X134742247Y-71834454D01*
X134632157Y-71801059D01*
X134598932Y-71738899D01*
X134419608Y-71520392D01*
X134306518Y-71427581D01*
X134324482Y-71425812D01*
X134444180Y-71389502D01*
X134554494Y-71330537D01*
X134651185Y-71251185D01*
X134730537Y-71154494D01*
X134789502Y-71044180D01*
X134825812Y-70924482D01*
X134838072Y-70800000D01*
X134835000Y-70285750D01*
X134676250Y-70127000D01*
X133127000Y-70127000D01*
X133127000Y-70147000D01*
X132873000Y-70147000D01*
X132873000Y-70127000D01*
X132853000Y-70127000D01*
X132853000Y-69873000D01*
X132873000Y-69873000D01*
X132873000Y-68723750D01*
X133127000Y-68723750D01*
X133127000Y-69873000D01*
X134676250Y-69873000D01*
X134835000Y-69714250D01*
X134838072Y-69200000D01*
X134825812Y-69075518D01*
X134789502Y-68955820D01*
X134730537Y-68845506D01*
X134651185Y-68748815D01*
X134554494Y-68669463D01*
X134444180Y-68610498D01*
X134324482Y-68574188D01*
X134200000Y-68561928D01*
X133285750Y-68565000D01*
X133127000Y-68723750D01*
X132873000Y-68723750D01*
X132714250Y-68565000D01*
X132234999Y-68563390D01*
X132234999Y-67162321D01*
X132238675Y-67124998D01*
X132234999Y-67087675D01*
X132234999Y-67087666D01*
X132224002Y-66976013D01*
X132180545Y-66832752D01*
X132109973Y-66700723D01*
X132015000Y-66584998D01*
X131986002Y-66561200D01*
X125809882Y-60385081D01*
X125851185Y-60351185D01*
X125930537Y-60254494D01*
X125989502Y-60144180D01*
X126025812Y-60024482D01*
X126038072Y-59900000D01*
X126038072Y-59000000D01*
X130577573Y-59000000D01*
X130607210Y-59300913D01*
X130694983Y-59590261D01*
X130837519Y-59856927D01*
X131029339Y-60090661D01*
X131263073Y-60282481D01*
X131529739Y-60425017D01*
X131819087Y-60512790D01*
X132044592Y-60535000D01*
X132195408Y-60535000D01*
X132420913Y-60512790D01*
X132710261Y-60425017D01*
X132976927Y-60282481D01*
X133210661Y-60090661D01*
X133402481Y-59856927D01*
X133545017Y-59590261D01*
X133632790Y-59300913D01*
X133662427Y-59000000D01*
X133632790Y-58699087D01*
X133545017Y-58409739D01*
X133402481Y-58143073D01*
X133210661Y-57909339D01*
X132976927Y-57717519D01*
X132710261Y-57574983D01*
X132420913Y-57487210D01*
X132195408Y-57465000D01*
X132044592Y-57465000D01*
X131819087Y-57487210D01*
X131529739Y-57574983D01*
X131263073Y-57717519D01*
X131029339Y-57909339D01*
X130837519Y-58143073D01*
X130694983Y-58409739D01*
X130607210Y-58699087D01*
X130577573Y-59000000D01*
X126038072Y-59000000D01*
X126038072Y-58100000D01*
X126025812Y-57975518D01*
X125989502Y-57855820D01*
X125930537Y-57745506D01*
X125851185Y-57648815D01*
X125754494Y-57569463D01*
X125644180Y-57510498D01*
X125524482Y-57474188D01*
X125400000Y-57461928D01*
X123600000Y-57461928D01*
X123475518Y-57474188D01*
X123355820Y-57510498D01*
X123245506Y-57569463D01*
X123148815Y-57648815D01*
X123069463Y-57745506D01*
X123010498Y-57855820D01*
X122974188Y-57975518D01*
X122961928Y-58100000D01*
X122961928Y-58240000D01*
X120968043Y-58240000D01*
X120864637Y-58085241D01*
X120664759Y-57885363D01*
X120429727Y-57728320D01*
X120168574Y-57620147D01*
X119891335Y-57565000D01*
X119608665Y-57565000D01*
X119426114Y-57601312D01*
X116793842Y-54969040D01*
X117858091Y-54969040D01*
X117952930Y-55233881D01*
X118097615Y-55475131D01*
X118286586Y-55683519D01*
X118512580Y-55851037D01*
X118766913Y-55971246D01*
X118900961Y-56011904D01*
X119123000Y-55889915D01*
X119123000Y-54747000D01*
X119377000Y-54747000D01*
X119377000Y-55889915D01*
X119599039Y-56011904D01*
X119733087Y-55971246D01*
X119987420Y-55851037D01*
X120213414Y-55683519D01*
X120402385Y-55475131D01*
X120547070Y-55233881D01*
X120641909Y-54969040D01*
X120520624Y-54747000D01*
X119377000Y-54747000D01*
X119123000Y-54747000D01*
X117979376Y-54747000D01*
X117858091Y-54969040D01*
X116793842Y-54969040D01*
X116095762Y-54270960D01*
X117858091Y-54270960D01*
X117979376Y-54493000D01*
X119123000Y-54493000D01*
X119123000Y-53350085D01*
X119377000Y-53350085D01*
X119377000Y-54493000D01*
X120520624Y-54493000D01*
X120641909Y-54270960D01*
X120547070Y-54006119D01*
X120402385Y-53764869D01*
X120388902Y-53750000D01*
X132911928Y-53750000D01*
X132924188Y-53874482D01*
X132960498Y-53994180D01*
X133019463Y-54104494D01*
X133098815Y-54201185D01*
X133195506Y-54280537D01*
X133305820Y-54339502D01*
X133425518Y-54375812D01*
X133550000Y-54388072D01*
X135014250Y-54385000D01*
X135173000Y-54226250D01*
X135173000Y-52127000D01*
X135427000Y-52127000D01*
X135427000Y-54226250D01*
X135585750Y-54385000D01*
X137050000Y-54388072D01*
X137174482Y-54375812D01*
X137294180Y-54339502D01*
X137404494Y-54280537D01*
X137501185Y-54201185D01*
X137580537Y-54104494D01*
X137611928Y-54045767D01*
X137611928Y-56750000D01*
X137624188Y-56874482D01*
X137660498Y-56994180D01*
X137719463Y-57104494D01*
X137798815Y-57201185D01*
X137895506Y-57280537D01*
X138005820Y-57339502D01*
X138125518Y-57375812D01*
X138250000Y-57388072D01*
X141750000Y-57388072D01*
X141874482Y-57375812D01*
X141994180Y-57339502D01*
X142104494Y-57280537D01*
X142201185Y-57201185D01*
X142280537Y-57104494D01*
X142339502Y-56994180D01*
X142375812Y-56874482D01*
X142388072Y-56750000D01*
X142388072Y-53250000D01*
X142375812Y-53125518D01*
X142339502Y-53005820D01*
X142280537Y-52895506D01*
X142201185Y-52798815D01*
X142104494Y-52719463D01*
X141994180Y-52660498D01*
X141874482Y-52624188D01*
X141750000Y-52611928D01*
X138250000Y-52611928D01*
X138125518Y-52624188D01*
X138005820Y-52660498D01*
X137895506Y-52719463D01*
X137798815Y-52798815D01*
X137719463Y-52895506D01*
X137686409Y-52957345D01*
X137685000Y-52285750D01*
X137526250Y-52127000D01*
X135427000Y-52127000D01*
X135173000Y-52127000D01*
X133073750Y-52127000D01*
X132915000Y-52285750D01*
X132911928Y-53750000D01*
X120388902Y-53750000D01*
X120213414Y-53556481D01*
X119987420Y-53388963D01*
X119733087Y-53268754D01*
X119599039Y-53228096D01*
X119377000Y-53350085D01*
X119123000Y-53350085D01*
X118900961Y-53228096D01*
X118766913Y-53268754D01*
X118512580Y-53388963D01*
X118286586Y-53556481D01*
X118097615Y-53764869D01*
X117952930Y-54006119D01*
X117858091Y-54270960D01*
X116095762Y-54270960D01*
X115885001Y-54060200D01*
X115885001Y-51750000D01*
X125836928Y-51750000D01*
X125849188Y-51874482D01*
X125885498Y-51994180D01*
X125944463Y-52104494D01*
X126023815Y-52201185D01*
X126120506Y-52280537D01*
X126230820Y-52339502D01*
X126350518Y-52375812D01*
X126475000Y-52388072D01*
X126714250Y-52385000D01*
X126873000Y-52226250D01*
X126873000Y-51127000D01*
X125998750Y-51127000D01*
X125840000Y-51285750D01*
X125836928Y-51750000D01*
X115885001Y-51750000D01*
X115885001Y-50250000D01*
X125836928Y-50250000D01*
X125840000Y-50714250D01*
X125998750Y-50873000D01*
X126873000Y-50873000D01*
X126873000Y-50718022D01*
X127110000Y-50718022D01*
X127110000Y-51281979D01*
X127126785Y-51452400D01*
X127127000Y-51453109D01*
X127127000Y-52226250D01*
X127285750Y-52385000D01*
X127525000Y-52388072D01*
X127649482Y-52375812D01*
X127769180Y-52339502D01*
X127833902Y-52304907D01*
X128042601Y-52368215D01*
X128270000Y-52390612D01*
X128497400Y-52368215D01*
X128716060Y-52301885D01*
X128905001Y-52200894D01*
X129093941Y-52301885D01*
X129312601Y-52368215D01*
X129540000Y-52390612D01*
X129767400Y-52368215D01*
X129986060Y-52301885D01*
X130187579Y-52194171D01*
X130364212Y-52049212D01*
X130509171Y-51872579D01*
X130616885Y-51671059D01*
X130683215Y-51452399D01*
X130700000Y-51281978D01*
X130700000Y-50718021D01*
X130683215Y-50547600D01*
X130616885Y-50328940D01*
X130574691Y-50250000D01*
X132911928Y-50250000D01*
X132915000Y-51714250D01*
X133073750Y-51873000D01*
X135173000Y-51873000D01*
X135173000Y-49773750D01*
X135427000Y-49773750D01*
X135427000Y-51873000D01*
X137526250Y-51873000D01*
X137685000Y-51714250D01*
X137686931Y-50793633D01*
X137719463Y-50854494D01*
X137798815Y-50951185D01*
X137895506Y-51030537D01*
X138005820Y-51089502D01*
X138125518Y-51125812D01*
X138250000Y-51138072D01*
X139714250Y-51135000D01*
X139873000Y-50976250D01*
X139873000Y-49127000D01*
X140127000Y-49127000D01*
X140127000Y-50976250D01*
X140285750Y-51135000D01*
X141750000Y-51138072D01*
X141874482Y-51125812D01*
X141994180Y-51089502D01*
X142104494Y-51030537D01*
X142201185Y-50951185D01*
X142280537Y-50854494D01*
X142339502Y-50744180D01*
X142375812Y-50624482D01*
X142388072Y-50500000D01*
X142385000Y-49285750D01*
X142226250Y-49127000D01*
X140127000Y-49127000D01*
X139873000Y-49127000D01*
X137773750Y-49127000D01*
X137615000Y-49285750D01*
X137613302Y-49956805D01*
X137580537Y-49895506D01*
X137501185Y-49798815D01*
X137404494Y-49719463D01*
X137294180Y-49660498D01*
X137174482Y-49624188D01*
X137050000Y-49611928D01*
X135585750Y-49615000D01*
X135427000Y-49773750D01*
X135173000Y-49773750D01*
X135014250Y-49615000D01*
X133550000Y-49611928D01*
X133425518Y-49624188D01*
X133305820Y-49660498D01*
X133195506Y-49719463D01*
X133098815Y-49798815D01*
X133019463Y-49895506D01*
X132960498Y-50005820D01*
X132924188Y-50125518D01*
X132911928Y-50250000D01*
X130574691Y-50250000D01*
X130509171Y-50127421D01*
X130364212Y-49950788D01*
X130187578Y-49805829D01*
X129986059Y-49698115D01*
X129767399Y-49631785D01*
X129540000Y-49609388D01*
X129312600Y-49631785D01*
X129093940Y-49698115D01*
X128904999Y-49799106D01*
X128716059Y-49698115D01*
X128497399Y-49631785D01*
X128270000Y-49609388D01*
X128042600Y-49631785D01*
X127833902Y-49695093D01*
X127769180Y-49660498D01*
X127649482Y-49624188D01*
X127525000Y-49611928D01*
X127285750Y-49615000D01*
X127127000Y-49773750D01*
X127127000Y-50546892D01*
X127126785Y-50547601D01*
X127110000Y-50718022D01*
X126873000Y-50718022D01*
X126873000Y-49773750D01*
X126714250Y-49615000D01*
X126475000Y-49611928D01*
X126350518Y-49624188D01*
X126230820Y-49660498D01*
X126120506Y-49719463D01*
X126023815Y-49798815D01*
X125944463Y-49895506D01*
X125885498Y-50005820D01*
X125849188Y-50125518D01*
X125836928Y-50250000D01*
X115885001Y-50250000D01*
X115885001Y-48162326D01*
X115888677Y-48125001D01*
X115885001Y-48087676D01*
X115885001Y-48087668D01*
X115874004Y-47976015D01*
X115830547Y-47832754D01*
X115759975Y-47700725D01*
X115665002Y-47585000D01*
X115636005Y-47561203D01*
X115398688Y-47323886D01*
X115435000Y-47141335D01*
X115435000Y-46858665D01*
X115379853Y-46581426D01*
X115271680Y-46320273D01*
X115114637Y-46085241D01*
X114914759Y-45885363D01*
X114679727Y-45728320D01*
X114514788Y-45660000D01*
X118735212Y-45660000D01*
X118570273Y-45728320D01*
X118570273Y-45728320D01*
G37*
X118570273Y-45728320D02*
X118335241Y-45885363D01*
X118135363Y-46085241D01*
X117978320Y-46320273D01*
X117870147Y-46581426D01*
X117815000Y-46858665D01*
X117815000Y-47141335D01*
X117870147Y-47418574D01*
X117978320Y-47679727D01*
X118135363Y-47914759D01*
X118335241Y-48114637D01*
X118570273Y-48271680D01*
X118831426Y-48379853D01*
X119108665Y-48435000D01*
X119391335Y-48435000D01*
X119668574Y-48379853D01*
X119929727Y-48271680D01*
X120164759Y-48114637D01*
X120364637Y-47914759D01*
X120521680Y-47679727D01*
X120596125Y-47500000D01*
X137611928Y-47500000D01*
X137615000Y-48714250D01*
X137773750Y-48873000D01*
X139873000Y-48873000D01*
X139873000Y-47023750D01*
X140127000Y-47023750D01*
X140127000Y-48873000D01*
X142226250Y-48873000D01*
X142385000Y-48714250D01*
X142388072Y-47500000D01*
X142375812Y-47375518D01*
X142339502Y-47255820D01*
X142280537Y-47145506D01*
X142201185Y-47048815D01*
X142104494Y-46969463D01*
X141994180Y-46910498D01*
X141874482Y-46874188D01*
X141750000Y-46861928D01*
X140285750Y-46865000D01*
X140127000Y-47023750D01*
X139873000Y-47023750D01*
X139714250Y-46865000D01*
X138250000Y-46861928D01*
X138125518Y-46874188D01*
X138005820Y-46910498D01*
X137895506Y-46969463D01*
X137798815Y-47048815D01*
X137719463Y-47145506D01*
X137660498Y-47255820D01*
X137624188Y-47375518D01*
X137611928Y-47500000D01*
X120596125Y-47500000D01*
X120629853Y-47418574D01*
X120685000Y-47141335D01*
X120685000Y-46858665D01*
X120629853Y-46581426D01*
X120521680Y-46320273D01*
X120364637Y-46085241D01*
X120164759Y-45885363D01*
X119929727Y-45728320D01*
X119764788Y-45660000D01*
X148485212Y-45660000D01*
X148320273Y-45728320D01*
X148085241Y-45885363D01*
X147885363Y-46085241D01*
X147728320Y-46320273D01*
X147620147Y-46581426D01*
X147565000Y-46858665D01*
X147565000Y-47141335D01*
X147620147Y-47418574D01*
X147728320Y-47679727D01*
X147885363Y-47914759D01*
X148085241Y-48114637D01*
X148320273Y-48271680D01*
X148581426Y-48379853D01*
X148858665Y-48435000D01*
X149141335Y-48435000D01*
X149418574Y-48379853D01*
X149679727Y-48271680D01*
X149914759Y-48114637D01*
X150114637Y-47914759D01*
X150271680Y-47679727D01*
X150379853Y-47418574D01*
X150435000Y-47141335D01*
X150435000Y-46858665D01*
X150379853Y-46581426D01*
X150271680Y-46320273D01*
X150114637Y-46085241D01*
X149914759Y-45885363D01*
X149679727Y-45728320D01*
X149514788Y-45660000D01*
X153485212Y-45660000D01*
X153320273Y-45728320D01*
X153085241Y-45885363D01*
X152885363Y-46085241D01*
X152728320Y-46320273D01*
X152620147Y-46581426D01*
X152565000Y-46858665D01*
X152565000Y-47141335D01*
X152620147Y-47418574D01*
X152728320Y-47679727D01*
X152885363Y-47914759D01*
X153085241Y-48114637D01*
X153240000Y-48218044D01*
X153240001Y-49305197D01*
X149325906Y-53219292D01*
X149281309Y-53205764D01*
X149070492Y-53185000D01*
X148929508Y-53185000D01*
X148718691Y-53205764D01*
X148448192Y-53287818D01*
X148198899Y-53421068D01*
X147980392Y-53600392D01*
X147801068Y-53818899D01*
X147667818Y-54068192D01*
X147585764Y-54338691D01*
X147558057Y-54620000D01*
X147585764Y-54901309D01*
X147598870Y-54944513D01*
X147580000Y-54959999D01*
X147556202Y-54988997D01*
X147556201Y-54988998D01*
X147485026Y-55075724D01*
X147414454Y-55207754D01*
X147370998Y-55351015D01*
X147356324Y-55500000D01*
X147360001Y-55537332D01*
X147360000Y-62779099D01*
X147318899Y-62801068D01*
X147100392Y-62980392D01*
X146921068Y-63198899D01*
X146787818Y-63448192D01*
X146705764Y-63718691D01*
X146678057Y-64000000D01*
X146705764Y-64281309D01*
X146787818Y-64551808D01*
X146921068Y-64801101D01*
X147100392Y-65019608D01*
X147318899Y-65198932D01*
X147568192Y-65332182D01*
X147838691Y-65414236D01*
X148049508Y-65435000D01*
X148190492Y-65435000D01*
X148401309Y-65414236D01*
X148671808Y-65332182D01*
X148921101Y-65198932D01*
X149139608Y-65019608D01*
X149318932Y-64801101D01*
X149452182Y-64551808D01*
X149534236Y-64281309D01*
X149561943Y-64000000D01*
X149534236Y-63718691D01*
X149452182Y-63448192D01*
X149318932Y-63198899D01*
X149139608Y-62980392D01*
X148921101Y-62801068D01*
X148880000Y-62779099D01*
X148880000Y-56050124D01*
X148929508Y-56055000D01*
X149070492Y-56055000D01*
X149281309Y-56034236D01*
X149551808Y-55952182D01*
X149801101Y-55818932D01*
X150019608Y-55639608D01*
X150198932Y-55421101D01*
X150332182Y-55171808D01*
X150393690Y-54969040D01*
X152608091Y-54969040D01*
X152702930Y-55233881D01*
X152847615Y-55475131D01*
X153036586Y-55683519D01*
X153262580Y-55851037D01*
X153516913Y-55971246D01*
X153650961Y-56011904D01*
X153873000Y-55889915D01*
X153873000Y-54747000D01*
X154127000Y-54747000D01*
X154127000Y-55889915D01*
X154349039Y-56011904D01*
X154483087Y-55971246D01*
X154737420Y-55851037D01*
X154963414Y-55683519D01*
X155152385Y-55475131D01*
X155297070Y-55233881D01*
X155391909Y-54969040D01*
X155270624Y-54747000D01*
X154127000Y-54747000D01*
X153873000Y-54747000D01*
X152729376Y-54747000D01*
X152608091Y-54969040D01*
X150393690Y-54969040D01*
X150414236Y-54901309D01*
X150441943Y-54620000D01*
X150414236Y-54338691D01*
X150400708Y-54294094D01*
X150423842Y-54270960D01*
X152608091Y-54270960D01*
X152729376Y-54493000D01*
X153873000Y-54493000D01*
X153873000Y-53350085D01*
X154127000Y-53350085D01*
X154127000Y-54493000D01*
X155270624Y-54493000D01*
X155349259Y-54349039D01*
X158988096Y-54349039D01*
X159028754Y-54483087D01*
X159148963Y-54737420D01*
X159316481Y-54963414D01*
X159524869Y-55152385D01*
X159766119Y-55297070D01*
X160030960Y-55391909D01*
X160253000Y-55270624D01*
X160253000Y-54127000D01*
X160507000Y-54127000D01*
X160507000Y-55270624D01*
X160729040Y-55391909D01*
X160993881Y-55297070D01*
X161235131Y-55152385D01*
X161443519Y-54963414D01*
X161611037Y-54737420D01*
X161731246Y-54483087D01*
X161771904Y-54349039D01*
X161649915Y-54127000D01*
X160507000Y-54127000D01*
X160253000Y-54127000D01*
X159110085Y-54127000D01*
X158988096Y-54349039D01*
X155349259Y-54349039D01*
X155391909Y-54270960D01*
X155297070Y-54006119D01*
X155152385Y-53764869D01*
X155049091Y-53650961D01*
X158988096Y-53650961D01*
X159110085Y-53873000D01*
X160253000Y-53873000D01*
X160253000Y-52729376D01*
X160507000Y-52729376D01*
X160507000Y-53873000D01*
X161649915Y-53873000D01*
X161771904Y-53650961D01*
X161731246Y-53516913D01*
X161611037Y-53262580D01*
X161443519Y-53036586D01*
X161235131Y-52847615D01*
X160993881Y-52702930D01*
X160729040Y-52608091D01*
X160507000Y-52729376D01*
X160253000Y-52729376D01*
X160030960Y-52608091D01*
X159766119Y-52702930D01*
X159524869Y-52847615D01*
X159316481Y-53036586D01*
X159148963Y-53262580D01*
X159028754Y-53516913D01*
X158988096Y-53650961D01*
X155049091Y-53650961D01*
X154963414Y-53556481D01*
X154737420Y-53388963D01*
X154483087Y-53268754D01*
X154349039Y-53228096D01*
X154127000Y-53350085D01*
X153873000Y-53350085D01*
X153650961Y-53228096D01*
X153516913Y-53268754D01*
X153262580Y-53388963D01*
X153036586Y-53556481D01*
X152847615Y-53764869D01*
X152702930Y-54006119D01*
X152608091Y-54270960D01*
X150423842Y-54270960D01*
X154511003Y-50183799D01*
X154540001Y-50160001D01*
X154634974Y-50044276D01*
X154705546Y-49912247D01*
X154749003Y-49768986D01*
X154760000Y-49657333D01*
X154760000Y-49657323D01*
X154763676Y-49620000D01*
X154760000Y-49582677D01*
X154760000Y-48218043D01*
X154914759Y-48114637D01*
X155114637Y-47914759D01*
X155218043Y-47760000D01*
X163071111Y-47760000D01*
X163023815Y-47798815D01*
X162944463Y-47895506D01*
X162885498Y-48005820D01*
X162849188Y-48125518D01*
X162836928Y-48250000D01*
X162836928Y-49750000D01*
X162849188Y-49874482D01*
X162885498Y-49994180D01*
X162944463Y-50104494D01*
X163023815Y-50201185D01*
X163120506Y-50280537D01*
X163230820Y-50339502D01*
X163336916Y-50371686D01*
X163365026Y-50424276D01*
X163404871Y-50472826D01*
X163459999Y-50540001D01*
X163489003Y-50563804D01*
X166601312Y-53676114D01*
X166565000Y-53858665D01*
X166565000Y-54141335D01*
X166620147Y-54418574D01*
X166728320Y-54679727D01*
X166885363Y-54914759D01*
X167085241Y-55114637D01*
X167320273Y-55271680D01*
X167581426Y-55379853D01*
X167858665Y-55435000D01*
X168141335Y-55435000D01*
X168418574Y-55379853D01*
X168455863Y-55364407D01*
X168471014Y-55369003D01*
X168582667Y-55380000D01*
X168582676Y-55380000D01*
X168619999Y-55383676D01*
X168657322Y-55380000D01*
X169779099Y-55380000D01*
X169801068Y-55421101D01*
X169980392Y-55639608D01*
X170198899Y-55818932D01*
X170448192Y-55952182D01*
X170718691Y-56034236D01*
X170929508Y-56055000D01*
X171070492Y-56055000D01*
X171281309Y-56034236D01*
X171365002Y-56008848D01*
X171365001Y-61940197D01*
X170705906Y-62599292D01*
X170661309Y-62585764D01*
X170450492Y-62565000D01*
X170309508Y-62565000D01*
X170098691Y-62585764D01*
X169828192Y-62667818D01*
X169578899Y-62801068D01*
X169360392Y-62980392D01*
X169181068Y-63198899D01*
X169047818Y-63448192D01*
X168965764Y-63718691D01*
X168938057Y-64000000D01*
X168965764Y-64281309D01*
X169047818Y-64551808D01*
X169181068Y-64801101D01*
X169360392Y-65019608D01*
X169578899Y-65198932D01*
X169828192Y-65332182D01*
X170098691Y-65414236D01*
X170309508Y-65435000D01*
X170450492Y-65435000D01*
X170661309Y-65414236D01*
X170931808Y-65332182D01*
X171181101Y-65198932D01*
X171399608Y-65019608D01*
X171578932Y-64801101D01*
X171712182Y-64551808D01*
X171794236Y-64281309D01*
X171821943Y-64000000D01*
X171794236Y-63718691D01*
X171780708Y-63674094D01*
X172636005Y-62818797D01*
X172665002Y-62795000D01*
X172719725Y-62728320D01*
X172759975Y-62679276D01*
X172830547Y-62547246D01*
X172830547Y-62547245D01*
X172874004Y-62403985D01*
X172885001Y-62292332D01*
X172885001Y-62292323D01*
X172888677Y-62255000D01*
X172885001Y-62217677D01*
X172885001Y-54117324D01*
X172888677Y-54079999D01*
X172885001Y-54042674D01*
X172885001Y-54042666D01*
X172874004Y-53931013D01*
X172830547Y-53787752D01*
X172759975Y-53655723D01*
X172665002Y-53539998D01*
X172636004Y-53516200D01*
X172611457Y-53491653D01*
X174537952Y-53491653D01*
X174693962Y-53807214D01*
X175068745Y-53998020D01*
X175473551Y-54112044D01*
X175892824Y-54144902D01*
X176310451Y-54095334D01*
X176710383Y-53965243D01*
X177006038Y-53807214D01*
X177162048Y-53491653D01*
X184837952Y-53491653D01*
X184993962Y-53807214D01*
X185368745Y-53998020D01*
X185773551Y-54112044D01*
X186192824Y-54144902D01*
X186610451Y-54095334D01*
X187010383Y-53965243D01*
X187306038Y-53807214D01*
X187462048Y-53491653D01*
X186150000Y-52179605D01*
X184837952Y-53491653D01*
X177162048Y-53491653D01*
X175850000Y-52179605D01*
X174537952Y-53491653D01*
X172611457Y-53491653D01*
X171162628Y-52042824D01*
X173705098Y-52042824D01*
X173754666Y-52460451D01*
X173884757Y-52860383D01*
X174042786Y-53156038D01*
X174358347Y-53312048D01*
X175670395Y-52000000D01*
X176029605Y-52000000D01*
X177341653Y-53312048D01*
X177657214Y-53156038D01*
X177848020Y-52781255D01*
X177962044Y-52376449D01*
X177994902Y-51957176D01*
X177945334Y-51539549D01*
X177815243Y-51139617D01*
X177657214Y-50843962D01*
X177341653Y-50687952D01*
X176029605Y-52000000D01*
X175670395Y-52000000D01*
X174358347Y-50687952D01*
X174042786Y-50843962D01*
X173851980Y-51218745D01*
X173737956Y-51623551D01*
X173705098Y-52042824D01*
X171162628Y-52042824D01*
X169628151Y-50508347D01*
X174537952Y-50508347D01*
X175850000Y-51820395D01*
X177162048Y-50508347D01*
X177006038Y-50192786D01*
X176631255Y-50001980D01*
X176226449Y-49887956D01*
X175807176Y-49855098D01*
X175389549Y-49904666D01*
X174989617Y-50034757D01*
X174693962Y-50192786D01*
X174537952Y-50508347D01*
X169628151Y-50508347D01*
X168683816Y-49564013D01*
X168660013Y-49535009D01*
X168544288Y-49440036D01*
X168412259Y-49369464D01*
X168268998Y-49326007D01*
X168157345Y-49315010D01*
X168157334Y-49315010D01*
X168120012Y-49311334D01*
X168082690Y-49315010D01*
X167696747Y-49315010D01*
X167700000Y-49281978D01*
X167700000Y-48718021D01*
X167683215Y-48547600D01*
X167616885Y-48328940D01*
X167509171Y-48127421D01*
X167364212Y-47950788D01*
X167187578Y-47805829D01*
X166986059Y-47698115D01*
X166767399Y-47631785D01*
X166540000Y-47609388D01*
X166312600Y-47631785D01*
X166093940Y-47698115D01*
X165989548Y-47753913D01*
X165975546Y-47707753D01*
X165904974Y-47575724D01*
X165833799Y-47488997D01*
X165810001Y-47459999D01*
X165781003Y-47436201D01*
X164833804Y-46489002D01*
X164810001Y-46459999D01*
X164694276Y-46365026D01*
X164562247Y-46294454D01*
X164418986Y-46250997D01*
X164307333Y-46240000D01*
X164307322Y-46240000D01*
X164270000Y-46236324D01*
X164232678Y-46240000D01*
X155218043Y-46240000D01*
X155114637Y-46085241D01*
X154914759Y-45885363D01*
X154679727Y-45728320D01*
X154514788Y-45660000D01*
X170485212Y-45660000D01*
X170320273Y-45728320D01*
X170085241Y-45885363D01*
X169885363Y-46085241D01*
X169728320Y-46320273D01*
X169620147Y-46581426D01*
X169565000Y-46858665D01*
X169565000Y-47141335D01*
X169620147Y-47418574D01*
X169728320Y-47679727D01*
X169885363Y-47914759D01*
X170085241Y-48114637D01*
X170320273Y-48271680D01*
X170581426Y-48379853D01*
X170858665Y-48435000D01*
X171141335Y-48435000D01*
X171418574Y-48379853D01*
X171679727Y-48271680D01*
X171914759Y-48114637D01*
X172114637Y-47914759D01*
X172218043Y-47760000D01*
X177285199Y-47760000D01*
X179223347Y-49698149D01*
X179163400Y-49842873D01*
X179090000Y-50211881D01*
X179090000Y-50588119D01*
X179163400Y-50957127D01*
X179307380Y-51304724D01*
X179516406Y-51617554D01*
X179782446Y-51883594D01*
X180095276Y-52092620D01*
X180442873Y-52236600D01*
X180811881Y-52310000D01*
X181188119Y-52310000D01*
X181557127Y-52236600D01*
X181904724Y-52092620D01*
X181979249Y-52042824D01*
X184005098Y-52042824D01*
X184054666Y-52460451D01*
X184184757Y-52860383D01*
X184342786Y-53156038D01*
X184658347Y-53312048D01*
X185970395Y-52000000D01*
X186329605Y-52000000D01*
X187641653Y-53312048D01*
X187957214Y-53156038D01*
X188148020Y-52781255D01*
X188262044Y-52376449D01*
X188294902Y-51957176D01*
X188245334Y-51539549D01*
X188115243Y-51139617D01*
X187957214Y-50843962D01*
X187641653Y-50687952D01*
X186329605Y-52000000D01*
X185970395Y-52000000D01*
X184658347Y-50687952D01*
X184342786Y-50843962D01*
X184151980Y-51218745D01*
X184037956Y-51623551D01*
X184005098Y-52042824D01*
X181979249Y-52042824D01*
X182217554Y-51883594D01*
X182483594Y-51617554D01*
X182692620Y-51304724D01*
X182836600Y-50957127D01*
X182910000Y-50588119D01*
X182910000Y-50508347D01*
X184837952Y-50508347D01*
X186150000Y-51820395D01*
X187462048Y-50508347D01*
X187306038Y-50192786D01*
X186931255Y-50001980D01*
X186526449Y-49887956D01*
X186107176Y-49855098D01*
X185689549Y-49904666D01*
X185289617Y-50034757D01*
X184993962Y-50192786D01*
X184837952Y-50508347D01*
X182910000Y-50508347D01*
X182910000Y-50211881D01*
X182836600Y-49842873D01*
X182692620Y-49495276D01*
X182483594Y-49182446D01*
X182217554Y-48916406D01*
X181904724Y-48707380D01*
X181557127Y-48563400D01*
X181188119Y-48490000D01*
X180811881Y-48490000D01*
X180442873Y-48563400D01*
X180298149Y-48623347D01*
X178163804Y-46489003D01*
X178140001Y-46459999D01*
X178024276Y-46365026D01*
X177892247Y-46294454D01*
X177748986Y-46250997D01*
X177637333Y-46240000D01*
X177637322Y-46240000D01*
X177600000Y-46236324D01*
X177562678Y-46240000D01*
X172218043Y-46240000D01*
X172114637Y-46085241D01*
X171914759Y-45885363D01*
X171679727Y-45728320D01*
X171514788Y-45660000D01*
X189340000Y-45660000D01*
X189340001Y-69425402D01*
X189218932Y-69198899D01*
X189039608Y-68980392D01*
X188821101Y-68801068D01*
X188571808Y-68667818D01*
X188301309Y-68585764D01*
X188090492Y-68565000D01*
X187149508Y-68565000D01*
X186938691Y-68585764D01*
X186668192Y-68667818D01*
X186418899Y-68801068D01*
X186200392Y-68980392D01*
X186021068Y-69198899D01*
X185887818Y-69448192D01*
X185805764Y-69718691D01*
X185778057Y-70000000D01*
X185805764Y-70281309D01*
X185887818Y-70551808D01*
X186021068Y-70801101D01*
X186200392Y-71019608D01*
X186418899Y-71198932D01*
X186551858Y-71270000D01*
X186418899Y-71341068D01*
X186417235Y-71342433D01*
X179398688Y-64323887D01*
X179435000Y-64141335D01*
X179435000Y-63858665D01*
X179379853Y-63581426D01*
X179271680Y-63320273D01*
X179114637Y-63085241D01*
X178914759Y-62885363D01*
X178679727Y-62728320D01*
X178418574Y-62620147D01*
X178141335Y-62565000D01*
X177858665Y-62565000D01*
X177581426Y-62620147D01*
X177320273Y-62728320D01*
X177085241Y-62885363D01*
X176885363Y-63085241D01*
X176728320Y-63320273D01*
X176620147Y-63581426D01*
X176565000Y-63858665D01*
X176565000Y-64141335D01*
X176620147Y-64418574D01*
X176728320Y-64679727D01*
X176885363Y-64914759D01*
X177085241Y-65114637D01*
X177320273Y-65271680D01*
X177581426Y-65379853D01*
X177858665Y-65435000D01*
X178141335Y-65435000D01*
X178323887Y-65398688D01*
X185831566Y-72906368D01*
X185887818Y-73091808D01*
X186021068Y-73341101D01*
X186200392Y-73559608D01*
X186418899Y-73738932D01*
X186551858Y-73810000D01*
X186418899Y-73881068D01*
X186200392Y-74060392D01*
X186021068Y-74278899D01*
X185887818Y-74528192D01*
X185805764Y-74798691D01*
X185778057Y-75080000D01*
X185805764Y-75361309D01*
X185887818Y-75631808D01*
X186021068Y-75881101D01*
X186200392Y-76099608D01*
X186418899Y-76278932D01*
X186551858Y-76350000D01*
X186418899Y-76421068D01*
X186200392Y-76600392D01*
X186021068Y-76818899D01*
X185887818Y-77068192D01*
X185805764Y-77338691D01*
X185778057Y-77620000D01*
X185805764Y-77901309D01*
X185887818Y-78171808D01*
X186021068Y-78421101D01*
X186200392Y-78639608D01*
X186418899Y-78818932D01*
X186668192Y-78952182D01*
X186938691Y-79034236D01*
X187149508Y-79055000D01*
X188090492Y-79055000D01*
X188301309Y-79034236D01*
X188571808Y-78952182D01*
X188821101Y-78818932D01*
X189039608Y-78639608D01*
X189218932Y-78421101D01*
X189340001Y-78194597D01*
X189340001Y-79340000D01*
X164757475Y-79340000D01*
X164978505Y-79192312D01*
X165192312Y-78978505D01*
X165338313Y-78760000D01*
X171127090Y-78760000D01*
X171198899Y-78818932D01*
X171448192Y-78952182D01*
X171718691Y-79034236D01*
X171929508Y-79055000D01*
X172070492Y-79055000D01*
X172281309Y-79034236D01*
X172551808Y-78952182D01*
X172801101Y-78818932D01*
X173019608Y-78639608D01*
X173198932Y-78421101D01*
X173332182Y-78171808D01*
X173393690Y-77969039D01*
X178208096Y-77969039D01*
X178225633Y-78051818D01*
X178336285Y-78311646D01*
X178495500Y-78544895D01*
X178697161Y-78742601D01*
X178933517Y-78897166D01*
X179195486Y-79002650D01*
X179473000Y-79055000D01*
X179873000Y-79055000D01*
X179873000Y-77747000D01*
X180127000Y-77747000D01*
X180127000Y-79055000D01*
X180527000Y-79055000D01*
X180804514Y-79002650D01*
X181066483Y-78897166D01*
X181302839Y-78742601D01*
X181504500Y-78544895D01*
X181663715Y-78311646D01*
X181774367Y-78051818D01*
X181791904Y-77969039D01*
X181669915Y-77747000D01*
X180127000Y-77747000D01*
X179873000Y-77747000D01*
X178330085Y-77747000D01*
X178208096Y-77969039D01*
X173393690Y-77969039D01*
X173414236Y-77901309D01*
X173441943Y-77620000D01*
X173414236Y-77338691D01*
X173332182Y-77068192D01*
X173198932Y-76818899D01*
X173019608Y-76600392D01*
X172801101Y-76421068D01*
X172551808Y-76287818D01*
X172281309Y-76205764D01*
X172070492Y-76185000D01*
X171929508Y-76185000D01*
X171718691Y-76205764D01*
X171448192Y-76287818D01*
X171198899Y-76421068D01*
X170980392Y-76600392D01*
X170801068Y-76818899D01*
X170667818Y-77068192D01*
X170615701Y-77240000D01*
X165338313Y-77240000D01*
X165192312Y-77021495D01*
X164978505Y-76807688D01*
X164727095Y-76639701D01*
X164447743Y-76523989D01*
X164151184Y-76465000D01*
X164109802Y-76465000D01*
X164734802Y-75840000D01*
X178379099Y-75840000D01*
X178401068Y-75881101D01*
X178580392Y-76099608D01*
X178798899Y-76278932D01*
X178926741Y-76347265D01*
X178697161Y-76497399D01*
X178495500Y-76695105D01*
X178336285Y-76928354D01*
X178225633Y-77188182D01*
X178208096Y-77270961D01*
X178330085Y-77493000D01*
X179873000Y-77493000D01*
X179873000Y-77473000D01*
X180127000Y-77473000D01*
X180127000Y-77493000D01*
X181669915Y-77493000D01*
X181791904Y-77270961D01*
X181774367Y-77188182D01*
X181663715Y-76928354D01*
X181504500Y-76695105D01*
X181302839Y-76497399D01*
X181073259Y-76347265D01*
X181201101Y-76278932D01*
X181419608Y-76099608D01*
X181598932Y-75881101D01*
X181732182Y-75631808D01*
X181814236Y-75361309D01*
X181841943Y-75080000D01*
X181814236Y-74798691D01*
X181732182Y-74528192D01*
X181598932Y-74278899D01*
X181419608Y-74060392D01*
X181201101Y-73881068D01*
X181068142Y-73810000D01*
X181201101Y-73738932D01*
X181419608Y-73559608D01*
X181598932Y-73341101D01*
X181732182Y-73091808D01*
X181814236Y-72821309D01*
X181841943Y-72540000D01*
X181814236Y-72258691D01*
X181732182Y-71988192D01*
X181598932Y-71738899D01*
X181419608Y-71520392D01*
X181306518Y-71427581D01*
X181324482Y-71425812D01*
X181444180Y-71389502D01*
X181554494Y-71330537D01*
X181651185Y-71251185D01*
X181730537Y-71154494D01*
X181789502Y-71044180D01*
X181825812Y-70924482D01*
X181838072Y-70800000D01*
X181835000Y-70285750D01*
X181676250Y-70127000D01*
X180127000Y-70127000D01*
X180127000Y-70147000D01*
X179873000Y-70147000D01*
X179873000Y-70127000D01*
X178323750Y-70127000D01*
X178165000Y-70285750D01*
X178161928Y-70800000D01*
X178174188Y-70924482D01*
X178210498Y-71044180D01*
X178269463Y-71154494D01*
X178348815Y-71251185D01*
X178445506Y-71330537D01*
X178555820Y-71389502D01*
X178675518Y-71425812D01*
X178693482Y-71427581D01*
X178580392Y-71520392D01*
X178401068Y-71738899D01*
X178367843Y-71801059D01*
X178257753Y-71834454D01*
X178125724Y-71905026D01*
X178125722Y-71905027D01*
X178125723Y-71905027D01*
X178038996Y-71976201D01*
X178038992Y-71976205D01*
X178009999Y-71999999D01*
X177986205Y-72028992D01*
X177110189Y-72905010D01*
X167329380Y-72905010D01*
X167498141Y-72835107D01*
X167929715Y-72546738D01*
X168296738Y-72179715D01*
X168585107Y-71748141D01*
X168783739Y-71268601D01*
X168885000Y-70759525D01*
X168885000Y-70240475D01*
X168809054Y-69858665D01*
X170565000Y-69858665D01*
X170565000Y-70141335D01*
X170620147Y-70418574D01*
X170728320Y-70679727D01*
X170885363Y-70914759D01*
X171085241Y-71114637D01*
X171320273Y-71271680D01*
X171581426Y-71379853D01*
X171858665Y-71435000D01*
X172141335Y-71435000D01*
X172418574Y-71379853D01*
X172679727Y-71271680D01*
X172914759Y-71114637D01*
X173114637Y-70914759D01*
X173271680Y-70679727D01*
X173379853Y-70418574D01*
X173435000Y-70141335D01*
X173435000Y-69858665D01*
X173379853Y-69581426D01*
X173271680Y-69320273D01*
X173191317Y-69200000D01*
X178161928Y-69200000D01*
X178165000Y-69714250D01*
X178323750Y-69873000D01*
X179873000Y-69873000D01*
X179873000Y-68723750D01*
X180127000Y-68723750D01*
X180127000Y-69873000D01*
X181676250Y-69873000D01*
X181835000Y-69714250D01*
X181838072Y-69200000D01*
X181825812Y-69075518D01*
X181789502Y-68955820D01*
X181730537Y-68845506D01*
X181651185Y-68748815D01*
X181554494Y-68669463D01*
X181444180Y-68610498D01*
X181324482Y-68574188D01*
X181200000Y-68561928D01*
X180285750Y-68565000D01*
X180127000Y-68723750D01*
X179873000Y-68723750D01*
X179714250Y-68565000D01*
X178800000Y-68561928D01*
X178675518Y-68574188D01*
X178555820Y-68610498D01*
X178445506Y-68669463D01*
X178348815Y-68748815D01*
X178269463Y-68845506D01*
X178210498Y-68955820D01*
X178174188Y-69075518D01*
X178161928Y-69200000D01*
X173191317Y-69200000D01*
X173114637Y-69085241D01*
X172914759Y-68885363D01*
X172679727Y-68728320D01*
X172418574Y-68620147D01*
X172141335Y-68565000D01*
X171858665Y-68565000D01*
X171581426Y-68620147D01*
X171320273Y-68728320D01*
X171085241Y-68885363D01*
X170885363Y-69085241D01*
X170728320Y-69320273D01*
X170620147Y-69581426D01*
X170565000Y-69858665D01*
X168809054Y-69858665D01*
X168783739Y-69731399D01*
X168585107Y-69251859D01*
X168296738Y-68820285D01*
X167929715Y-68453262D01*
X167498141Y-68164893D01*
X167018601Y-67966261D01*
X166509525Y-67865000D01*
X165990475Y-67865000D01*
X165481399Y-67966261D01*
X165001859Y-68164893D01*
X164570285Y-68453262D01*
X164203262Y-68820285D01*
X163914893Y-69251859D01*
X163716261Y-69731399D01*
X163615000Y-70240475D01*
X163615000Y-70759525D01*
X163716261Y-71268601D01*
X163914893Y-71748141D01*
X164203262Y-72179715D01*
X164570285Y-72546738D01*
X165001859Y-72835107D01*
X165170620Y-72905010D01*
X157829380Y-72905010D01*
X157998141Y-72835107D01*
X158429715Y-72546738D01*
X158796738Y-72179715D01*
X159085107Y-71748141D01*
X159283739Y-71268601D01*
X159385000Y-70759525D01*
X159385000Y-70240475D01*
X159283739Y-69731399D01*
X159085107Y-69251859D01*
X158796738Y-68820285D01*
X158429715Y-68453262D01*
X157998141Y-68164893D01*
X157518601Y-67966261D01*
X157009525Y-67865000D01*
X156490475Y-67865000D01*
X155981399Y-67966261D01*
X155501859Y-68164893D01*
X155070285Y-68453262D01*
X154703262Y-68820285D01*
X154414893Y-69251859D01*
X154216261Y-69731399D01*
X154115000Y-70240475D01*
X154115000Y-70759525D01*
X154216261Y-71268601D01*
X154414893Y-71748141D01*
X154703262Y-72179715D01*
X155070285Y-72546738D01*
X155501859Y-72835107D01*
X155670620Y-72905010D01*
X147877873Y-72905010D01*
X147926300Y-72711816D01*
X147940217Y-72429488D01*
X147898787Y-72149870D01*
X147803603Y-71883708D01*
X147736671Y-71758486D01*
X147492702Y-71686903D01*
X146679605Y-72500000D01*
X146693748Y-72514143D01*
X146514143Y-72693748D01*
X146500000Y-72679605D01*
X146485858Y-72693748D01*
X146306253Y-72514143D01*
X146320395Y-72500000D01*
X145507298Y-71686903D01*
X145263329Y-71758486D01*
X145142429Y-72013996D01*
X145073700Y-72288184D01*
X145059783Y-72570512D01*
X145101213Y-72850130D01*
X145120839Y-72905010D01*
X142408846Y-72905010D01*
X142434236Y-72821309D01*
X142461943Y-72540000D01*
X142434236Y-72258691D01*
X142420708Y-72214095D01*
X142656019Y-71978784D01*
X142685011Y-71954991D01*
X142708805Y-71925998D01*
X142708809Y-71925994D01*
X142766821Y-71855305D01*
X142779984Y-71839266D01*
X142850556Y-71707237D01*
X142894013Y-71563976D01*
X142899595Y-71507298D01*
X145686903Y-71507298D01*
X146500000Y-72320395D01*
X147313097Y-71507298D01*
X147241514Y-71263329D01*
X146986004Y-71142429D01*
X146711816Y-71073700D01*
X146429488Y-71059783D01*
X146149870Y-71101213D01*
X145883708Y-71196397D01*
X145758486Y-71263329D01*
X145686903Y-71507298D01*
X142899595Y-71507298D01*
X142905010Y-71452323D01*
X142905010Y-71452314D01*
X142908686Y-71414991D01*
X142905010Y-71377668D01*
X142905010Y-70992702D01*
X150186903Y-70992702D01*
X150258486Y-71236671D01*
X150513996Y-71357571D01*
X150788184Y-71426300D01*
X151070512Y-71440217D01*
X151350130Y-71398787D01*
X151616292Y-71303603D01*
X151741514Y-71236671D01*
X151813097Y-70992702D01*
X151000000Y-70179605D01*
X150186903Y-70992702D01*
X142905010Y-70992702D01*
X142905010Y-70070512D01*
X149559783Y-70070512D01*
X149601213Y-70350130D01*
X149696397Y-70616292D01*
X149763329Y-70741514D01*
X150007298Y-70813097D01*
X150820395Y-70000000D01*
X151179605Y-70000000D01*
X151992702Y-70813097D01*
X152236671Y-70741514D01*
X152357571Y-70486004D01*
X152426300Y-70211816D01*
X152440217Y-69929488D01*
X152398787Y-69649870D01*
X152303603Y-69383708D01*
X152236671Y-69258486D01*
X151992702Y-69186903D01*
X151179605Y-70000000D01*
X150820395Y-70000000D01*
X150007298Y-69186903D01*
X149763329Y-69258486D01*
X149642429Y-69513996D01*
X149573700Y-69788184D01*
X149559783Y-70070512D01*
X142905010Y-70070512D01*
X142905010Y-69007298D01*
X150186903Y-69007298D01*
X151000000Y-69820395D01*
X151813097Y-69007298D01*
X151741514Y-68763329D01*
X151486004Y-68642429D01*
X151211816Y-68573700D01*
X150929488Y-68559783D01*
X150649870Y-68601213D01*
X150383708Y-68696397D01*
X150258486Y-68763329D01*
X150186903Y-69007298D01*
X142905010Y-69007298D01*
X142905010Y-65682332D01*
X142908686Y-65645009D01*
X142905010Y-65607687D01*
X142905010Y-65607677D01*
X142894013Y-65496024D01*
X142850556Y-65352763D01*
X142839555Y-65332182D01*
X142779984Y-65220733D01*
X142708809Y-65134007D01*
X142685011Y-65105009D01*
X142656013Y-65081211D01*
X141898688Y-64323887D01*
X141935000Y-64141335D01*
X141935000Y-63858665D01*
X141879853Y-63581426D01*
X141771680Y-63320273D01*
X141614637Y-63085241D01*
X141414759Y-62885363D01*
X141179727Y-62728320D01*
X140918574Y-62620147D01*
X140641335Y-62565000D01*
X140358665Y-62565000D01*
X140081426Y-62620147D01*
X139820273Y-62728320D01*
X139585241Y-62885363D01*
X139385363Y-63085241D01*
X139228320Y-63320273D01*
X139120147Y-63581426D01*
X139065000Y-63858665D01*
X139065000Y-64141335D01*
X139120147Y-64418574D01*
X139228320Y-64679727D01*
X139385363Y-64914759D01*
X139585241Y-65114637D01*
X139820273Y-65271680D01*
X140081426Y-65379853D01*
X140358665Y-65435000D01*
X140641335Y-65435000D01*
X140823887Y-65398688D01*
X141385011Y-65959813D01*
X141385010Y-68611154D01*
X141301309Y-68585764D01*
X141090492Y-68565000D01*
X140149508Y-68565000D01*
X139938691Y-68585764D01*
X139668192Y-68667818D01*
X139418899Y-68801068D01*
X139200392Y-68980392D01*
X139021068Y-69198899D01*
X138887818Y-69448192D01*
X138805764Y-69718691D01*
X138778057Y-70000000D01*
X138805764Y-70281309D01*
X138887818Y-70551808D01*
X139021068Y-70801101D01*
X139200392Y-71019608D01*
X139418899Y-71198932D01*
X139551858Y-71270000D01*
X139418899Y-71341068D01*
X139200392Y-71520392D01*
X139021068Y-71738899D01*
X138887818Y-71988192D01*
X138805764Y-72258691D01*
X138778057Y-72540000D01*
X138805764Y-72821309D01*
X138831154Y-72905010D01*
X135889813Y-72905010D01*
X135013803Y-72029002D01*
X134990001Y-71999999D01*
X134874276Y-71905026D01*
X134742247Y-71834454D01*
X134632157Y-71801059D01*
X134598932Y-71738899D01*
X134419608Y-71520392D01*
X134306518Y-71427581D01*
X134324482Y-71425812D01*
X134444180Y-71389502D01*
X134554494Y-71330537D01*
X134651185Y-71251185D01*
X134730537Y-71154494D01*
X134789502Y-71044180D01*
X134825812Y-70924482D01*
X134838072Y-70800000D01*
X134835000Y-70285750D01*
X134676250Y-70127000D01*
X133127000Y-70127000D01*
X133127000Y-70147000D01*
X132873000Y-70147000D01*
X132873000Y-70127000D01*
X132853000Y-70127000D01*
X132853000Y-69873000D01*
X132873000Y-69873000D01*
X132873000Y-68723750D01*
X133127000Y-68723750D01*
X133127000Y-69873000D01*
X134676250Y-69873000D01*
X134835000Y-69714250D01*
X134838072Y-69200000D01*
X134825812Y-69075518D01*
X134789502Y-68955820D01*
X134730537Y-68845506D01*
X134651185Y-68748815D01*
X134554494Y-68669463D01*
X134444180Y-68610498D01*
X134324482Y-68574188D01*
X134200000Y-68561928D01*
X133285750Y-68565000D01*
X133127000Y-68723750D01*
X132873000Y-68723750D01*
X132714250Y-68565000D01*
X132234999Y-68563390D01*
X132234999Y-67162321D01*
X132238675Y-67124998D01*
X132234999Y-67087675D01*
X132234999Y-67087666D01*
X132224002Y-66976013D01*
X132180545Y-66832752D01*
X132109973Y-66700723D01*
X132015000Y-66584998D01*
X131986002Y-66561200D01*
X125809882Y-60385081D01*
X125851185Y-60351185D01*
X125930537Y-60254494D01*
X125989502Y-60144180D01*
X126025812Y-60024482D01*
X126038072Y-59900000D01*
X126038072Y-59000000D01*
X130577573Y-59000000D01*
X130607210Y-59300913D01*
X130694983Y-59590261D01*
X130837519Y-59856927D01*
X131029339Y-60090661D01*
X131263073Y-60282481D01*
X131529739Y-60425017D01*
X131819087Y-60512790D01*
X132044592Y-60535000D01*
X132195408Y-60535000D01*
X132420913Y-60512790D01*
X132710261Y-60425017D01*
X132976927Y-60282481D01*
X133210661Y-60090661D01*
X133402481Y-59856927D01*
X133545017Y-59590261D01*
X133632790Y-59300913D01*
X133662427Y-59000000D01*
X133632790Y-58699087D01*
X133545017Y-58409739D01*
X133402481Y-58143073D01*
X133210661Y-57909339D01*
X132976927Y-57717519D01*
X132710261Y-57574983D01*
X132420913Y-57487210D01*
X132195408Y-57465000D01*
X132044592Y-57465000D01*
X131819087Y-57487210D01*
X131529739Y-57574983D01*
X131263073Y-57717519D01*
X131029339Y-57909339D01*
X130837519Y-58143073D01*
X130694983Y-58409739D01*
X130607210Y-58699087D01*
X130577573Y-59000000D01*
X126038072Y-59000000D01*
X126038072Y-58100000D01*
X126025812Y-57975518D01*
X125989502Y-57855820D01*
X125930537Y-57745506D01*
X125851185Y-57648815D01*
X125754494Y-57569463D01*
X125644180Y-57510498D01*
X125524482Y-57474188D01*
X125400000Y-57461928D01*
X123600000Y-57461928D01*
X123475518Y-57474188D01*
X123355820Y-57510498D01*
X123245506Y-57569463D01*
X123148815Y-57648815D01*
X123069463Y-57745506D01*
X123010498Y-57855820D01*
X122974188Y-57975518D01*
X122961928Y-58100000D01*
X122961928Y-58240000D01*
X120968043Y-58240000D01*
X120864637Y-58085241D01*
X120664759Y-57885363D01*
X120429727Y-57728320D01*
X120168574Y-57620147D01*
X119891335Y-57565000D01*
X119608665Y-57565000D01*
X119426114Y-57601312D01*
X116793842Y-54969040D01*
X117858091Y-54969040D01*
X117952930Y-55233881D01*
X118097615Y-55475131D01*
X118286586Y-55683519D01*
X118512580Y-55851037D01*
X118766913Y-55971246D01*
X118900961Y-56011904D01*
X119123000Y-55889915D01*
X119123000Y-54747000D01*
X119377000Y-54747000D01*
X119377000Y-55889915D01*
X119599039Y-56011904D01*
X119733087Y-55971246D01*
X119987420Y-55851037D01*
X120213414Y-55683519D01*
X120402385Y-55475131D01*
X120547070Y-55233881D01*
X120641909Y-54969040D01*
X120520624Y-54747000D01*
X119377000Y-54747000D01*
X119123000Y-54747000D01*
X117979376Y-54747000D01*
X117858091Y-54969040D01*
X116793842Y-54969040D01*
X116095762Y-54270960D01*
X117858091Y-54270960D01*
X117979376Y-54493000D01*
X119123000Y-54493000D01*
X119123000Y-53350085D01*
X119377000Y-53350085D01*
X119377000Y-54493000D01*
X120520624Y-54493000D01*
X120641909Y-54270960D01*
X120547070Y-54006119D01*
X120402385Y-53764869D01*
X120388902Y-53750000D01*
X132911928Y-53750000D01*
X132924188Y-53874482D01*
X132960498Y-53994180D01*
X133019463Y-54104494D01*
X133098815Y-54201185D01*
X133195506Y-54280537D01*
X133305820Y-54339502D01*
X133425518Y-54375812D01*
X133550000Y-54388072D01*
X135014250Y-54385000D01*
X135173000Y-54226250D01*
X135173000Y-52127000D01*
X135427000Y-52127000D01*
X135427000Y-54226250D01*
X135585750Y-54385000D01*
X137050000Y-54388072D01*
X137174482Y-54375812D01*
X137294180Y-54339502D01*
X137404494Y-54280537D01*
X137501185Y-54201185D01*
X137580537Y-54104494D01*
X137611928Y-54045767D01*
X137611928Y-56750000D01*
X137624188Y-56874482D01*
X137660498Y-56994180D01*
X137719463Y-57104494D01*
X137798815Y-57201185D01*
X137895506Y-57280537D01*
X138005820Y-57339502D01*
X138125518Y-57375812D01*
X138250000Y-57388072D01*
X141750000Y-57388072D01*
X141874482Y-57375812D01*
X141994180Y-57339502D01*
X142104494Y-57280537D01*
X142201185Y-57201185D01*
X142280537Y-57104494D01*
X142339502Y-56994180D01*
X142375812Y-56874482D01*
X142388072Y-56750000D01*
X142388072Y-53250000D01*
X142375812Y-53125518D01*
X142339502Y-53005820D01*
X142280537Y-52895506D01*
X142201185Y-52798815D01*
X142104494Y-52719463D01*
X141994180Y-52660498D01*
X141874482Y-52624188D01*
X141750000Y-52611928D01*
X138250000Y-52611928D01*
X138125518Y-52624188D01*
X138005820Y-52660498D01*
X137895506Y-52719463D01*
X137798815Y-52798815D01*
X137719463Y-52895506D01*
X137686409Y-52957345D01*
X137685000Y-52285750D01*
X137526250Y-52127000D01*
X135427000Y-52127000D01*
X135173000Y-52127000D01*
X133073750Y-52127000D01*
X132915000Y-52285750D01*
X132911928Y-53750000D01*
X120388902Y-53750000D01*
X120213414Y-53556481D01*
X119987420Y-53388963D01*
X119733087Y-53268754D01*
X119599039Y-53228096D01*
X119377000Y-53350085D01*
X119123000Y-53350085D01*
X118900961Y-53228096D01*
X118766913Y-53268754D01*
X118512580Y-53388963D01*
X118286586Y-53556481D01*
X118097615Y-53764869D01*
X117952930Y-54006119D01*
X117858091Y-54270960D01*
X116095762Y-54270960D01*
X115885001Y-54060200D01*
X115885001Y-51750000D01*
X125836928Y-51750000D01*
X125849188Y-51874482D01*
X125885498Y-51994180D01*
X125944463Y-52104494D01*
X126023815Y-52201185D01*
X126120506Y-52280537D01*
X126230820Y-52339502D01*
X126350518Y-52375812D01*
X126475000Y-52388072D01*
X126714250Y-52385000D01*
X126873000Y-52226250D01*
X126873000Y-51127000D01*
X125998750Y-51127000D01*
X125840000Y-51285750D01*
X125836928Y-51750000D01*
X115885001Y-51750000D01*
X115885001Y-50250000D01*
X125836928Y-50250000D01*
X125840000Y-50714250D01*
X125998750Y-50873000D01*
X126873000Y-50873000D01*
X126873000Y-50718022D01*
X127110000Y-50718022D01*
X127110000Y-51281979D01*
X127126785Y-51452400D01*
X127127000Y-51453109D01*
X127127000Y-52226250D01*
X127285750Y-52385000D01*
X127525000Y-52388072D01*
X127649482Y-52375812D01*
X127769180Y-52339502D01*
X127833902Y-52304907D01*
X128042601Y-52368215D01*
X128270000Y-52390612D01*
X128497400Y-52368215D01*
X128716060Y-52301885D01*
X128905001Y-52200894D01*
X129093941Y-52301885D01*
X129312601Y-52368215D01*
X129540000Y-52390612D01*
X129767400Y-52368215D01*
X129986060Y-52301885D01*
X130187579Y-52194171D01*
X130364212Y-52049212D01*
X130509171Y-51872579D01*
X130616885Y-51671059D01*
X130683215Y-51452399D01*
X130700000Y-51281978D01*
X130700000Y-50718021D01*
X130683215Y-50547600D01*
X130616885Y-50328940D01*
X130574691Y-50250000D01*
X132911928Y-50250000D01*
X132915000Y-51714250D01*
X133073750Y-51873000D01*
X135173000Y-51873000D01*
X135173000Y-49773750D01*
X135427000Y-49773750D01*
X135427000Y-51873000D01*
X137526250Y-51873000D01*
X137685000Y-51714250D01*
X137686931Y-50793633D01*
X137719463Y-50854494D01*
X137798815Y-50951185D01*
X137895506Y-51030537D01*
X138005820Y-51089502D01*
X138125518Y-51125812D01*
X138250000Y-51138072D01*
X139714250Y-51135000D01*
X139873000Y-50976250D01*
X139873000Y-49127000D01*
X140127000Y-49127000D01*
X140127000Y-50976250D01*
X140285750Y-51135000D01*
X141750000Y-51138072D01*
X141874482Y-51125812D01*
X141994180Y-51089502D01*
X142104494Y-51030537D01*
X142201185Y-50951185D01*
X142280537Y-50854494D01*
X142339502Y-50744180D01*
X142375812Y-50624482D01*
X142388072Y-50500000D01*
X142385000Y-49285750D01*
X142226250Y-49127000D01*
X140127000Y-49127000D01*
X139873000Y-49127000D01*
X137773750Y-49127000D01*
X137615000Y-49285750D01*
X137613302Y-49956805D01*
X137580537Y-49895506D01*
X137501185Y-49798815D01*
X137404494Y-49719463D01*
X137294180Y-49660498D01*
X137174482Y-49624188D01*
X137050000Y-49611928D01*
X135585750Y-49615000D01*
X135427000Y-49773750D01*
X135173000Y-49773750D01*
X135014250Y-49615000D01*
X133550000Y-49611928D01*
X133425518Y-49624188D01*
X133305820Y-49660498D01*
X133195506Y-49719463D01*
X133098815Y-49798815D01*
X133019463Y-49895506D01*
X132960498Y-50005820D01*
X132924188Y-50125518D01*
X132911928Y-50250000D01*
X130574691Y-50250000D01*
X130509171Y-50127421D01*
X130364212Y-49950788D01*
X130187578Y-49805829D01*
X129986059Y-49698115D01*
X129767399Y-49631785D01*
X129540000Y-49609388D01*
X129312600Y-49631785D01*
X129093940Y-49698115D01*
X128904999Y-49799106D01*
X128716059Y-49698115D01*
X128497399Y-49631785D01*
X128270000Y-49609388D01*
X128042600Y-49631785D01*
X127833902Y-49695093D01*
X127769180Y-49660498D01*
X127649482Y-49624188D01*
X127525000Y-49611928D01*
X127285750Y-49615000D01*
X127127000Y-49773750D01*
X127127000Y-50546892D01*
X127126785Y-50547601D01*
X127110000Y-50718022D01*
X126873000Y-50718022D01*
X126873000Y-49773750D01*
X126714250Y-49615000D01*
X126475000Y-49611928D01*
X126350518Y-49624188D01*
X126230820Y-49660498D01*
X126120506Y-49719463D01*
X126023815Y-49798815D01*
X125944463Y-49895506D01*
X125885498Y-50005820D01*
X125849188Y-50125518D01*
X125836928Y-50250000D01*
X115885001Y-50250000D01*
X115885001Y-48162326D01*
X115888677Y-48125001D01*
X115885001Y-48087676D01*
X115885001Y-48087668D01*
X115874004Y-47976015D01*
X115830547Y-47832754D01*
X115759975Y-47700725D01*
X115665002Y-47585000D01*
X115636005Y-47561203D01*
X115398688Y-47323886D01*
X115435000Y-47141335D01*
X115435000Y-46858665D01*
X115379853Y-46581426D01*
X115271680Y-46320273D01*
X115114637Y-46085241D01*
X114914759Y-45885363D01*
X114679727Y-45728320D01*
X114514788Y-45660000D01*
X118735212Y-45660000D01*
X118570273Y-45728320D01*
G36*
X94311199Y-63386001D02*
G01*
X94334998Y-63415000D01*
X94363996Y-63438798D01*
X94450723Y-63509973D01*
X94582752Y-63580545D01*
X94726013Y-63624002D01*
X94874999Y-63638676D01*
X94912332Y-63634999D01*
X98231151Y-63634999D01*
X98205764Y-63718691D01*
X98178057Y-64000000D01*
X98205764Y-64281309D01*
X98287818Y-64551808D01*
X98421068Y-64801101D01*
X98600392Y-65019608D01*
X98818899Y-65198932D01*
X98882351Y-65232848D01*
X93957224Y-70157974D01*
X93926250Y-70127000D01*
X92377000Y-70127000D01*
X92377000Y-70147000D01*
X92123000Y-70147000D01*
X92123000Y-70127000D01*
X92103000Y-70127000D01*
X92103000Y-69873000D01*
X92123000Y-69873000D01*
X92123000Y-68723750D01*
X92377000Y-68723750D01*
X92377000Y-69873000D01*
X93926250Y-69873000D01*
X94085000Y-69714250D01*
X94088072Y-69200000D01*
X94075812Y-69075518D01*
X94039502Y-68955820D01*
X93980537Y-68845506D01*
X93901185Y-68748815D01*
X93804494Y-68669463D01*
X93694180Y-68610498D01*
X93574482Y-68574188D01*
X93450000Y-68561928D01*
X92535750Y-68565000D01*
X92377000Y-68723750D01*
X92123000Y-68723750D01*
X91964250Y-68565000D01*
X91484990Y-68563390D01*
X91484990Y-65339908D01*
X91581426Y-65379853D01*
X91858665Y-65435000D01*
X92141335Y-65435000D01*
X92418574Y-65379853D01*
X92679727Y-65271680D01*
X92914759Y-65114637D01*
X93114637Y-64914759D01*
X93271680Y-64679727D01*
X93379853Y-64418574D01*
X93435000Y-64141335D01*
X93435000Y-63858665D01*
X93379853Y-63581426D01*
X93271680Y-63320273D01*
X93114637Y-63085241D01*
X92914759Y-62885363D01*
X92679727Y-62728320D01*
X92418574Y-62620147D01*
X92141335Y-62565000D01*
X91858665Y-62565000D01*
X91581426Y-62620147D01*
X91484990Y-62660092D01*
X91484990Y-61589811D01*
X91676114Y-61398688D01*
X91858665Y-61435000D01*
X92141335Y-61435000D01*
X92323886Y-61398688D01*
X94311199Y-63386001D01*
X94311199Y-63386001D01*
G37*
X94311199Y-63386001D02*
X94334998Y-63415000D01*
X94363996Y-63438798D01*
X94450723Y-63509973D01*
X94582752Y-63580545D01*
X94726013Y-63624002D01*
X94874999Y-63638676D01*
X94912332Y-63634999D01*
X98231151Y-63634999D01*
X98205764Y-63718691D01*
X98178057Y-64000000D01*
X98205764Y-64281309D01*
X98287818Y-64551808D01*
X98421068Y-64801101D01*
X98600392Y-65019608D01*
X98818899Y-65198932D01*
X98882351Y-65232848D01*
X93957224Y-70157974D01*
X93926250Y-70127000D01*
X92377000Y-70127000D01*
X92377000Y-70147000D01*
X92123000Y-70147000D01*
X92123000Y-70127000D01*
X92103000Y-70127000D01*
X92103000Y-69873000D01*
X92123000Y-69873000D01*
X92123000Y-68723750D01*
X92377000Y-68723750D01*
X92377000Y-69873000D01*
X93926250Y-69873000D01*
X94085000Y-69714250D01*
X94088072Y-69200000D01*
X94075812Y-69075518D01*
X94039502Y-68955820D01*
X93980537Y-68845506D01*
X93901185Y-68748815D01*
X93804494Y-68669463D01*
X93694180Y-68610498D01*
X93574482Y-68574188D01*
X93450000Y-68561928D01*
X92535750Y-68565000D01*
X92377000Y-68723750D01*
X92123000Y-68723750D01*
X91964250Y-68565000D01*
X91484990Y-68563390D01*
X91484990Y-65339908D01*
X91581426Y-65379853D01*
X91858665Y-65435000D01*
X92141335Y-65435000D01*
X92418574Y-65379853D01*
X92679727Y-65271680D01*
X92914759Y-65114637D01*
X93114637Y-64914759D01*
X93271680Y-64679727D01*
X93379853Y-64418574D01*
X93435000Y-64141335D01*
X93435000Y-63858665D01*
X93379853Y-63581426D01*
X93271680Y-63320273D01*
X93114637Y-63085241D01*
X92914759Y-62885363D01*
X92679727Y-62728320D01*
X92418574Y-62620147D01*
X92141335Y-62565000D01*
X91858665Y-62565000D01*
X91581426Y-62620147D01*
X91484990Y-62660092D01*
X91484990Y-61589811D01*
X91676114Y-61398688D01*
X91858665Y-61435000D01*
X92141335Y-61435000D01*
X92323886Y-61398688D01*
X94311199Y-63386001D01*
G36*
X108320273Y-45728320D02*
G01*
X108085241Y-45885363D01*
X107885363Y-46085241D01*
X107781957Y-46240000D01*
X102437322Y-46240000D01*
X102399999Y-46236324D01*
X102362676Y-46240000D01*
X102362667Y-46240000D01*
X102251014Y-46250997D01*
X102107753Y-46294454D01*
X101975723Y-46365026D01*
X101892083Y-46433668D01*
X101859999Y-46459999D01*
X101836201Y-46488997D01*
X99701852Y-48623347D01*
X99557127Y-48563400D01*
X99188119Y-48490000D01*
X98811881Y-48490000D01*
X98442873Y-48563400D01*
X98095276Y-48707380D01*
X97782446Y-48916406D01*
X97516406Y-49182446D01*
X97307380Y-49495276D01*
X97163400Y-49842873D01*
X97090000Y-50211881D01*
X97090000Y-50588119D01*
X97163400Y-50957127D01*
X97307380Y-51304724D01*
X97516406Y-51617554D01*
X97782446Y-51883594D01*
X98095276Y-52092620D01*
X98442873Y-52236600D01*
X98811881Y-52310000D01*
X99188119Y-52310000D01*
X99557127Y-52236600D01*
X99904724Y-52092620D01*
X99979249Y-52042824D01*
X102005098Y-52042824D01*
X102054666Y-52460451D01*
X102184757Y-52860383D01*
X102342786Y-53156038D01*
X102658347Y-53312048D01*
X103970395Y-52000000D01*
X104329605Y-52000000D01*
X105641653Y-53312048D01*
X105957214Y-53156038D01*
X106148020Y-52781255D01*
X106262044Y-52376449D01*
X106294902Y-51957176D01*
X106245334Y-51539549D01*
X106115243Y-51139617D01*
X105957214Y-50843962D01*
X105641653Y-50687952D01*
X104329605Y-52000000D01*
X103970395Y-52000000D01*
X102658347Y-50687952D01*
X102342786Y-50843962D01*
X102151980Y-51218745D01*
X102037956Y-51623551D01*
X102005098Y-52042824D01*
X99979249Y-52042824D01*
X100217554Y-51883594D01*
X100483594Y-51617554D01*
X100692620Y-51304724D01*
X100836600Y-50957127D01*
X100910000Y-50588119D01*
X100910000Y-50508347D01*
X102837952Y-50508347D01*
X104150000Y-51820395D01*
X105462048Y-50508347D01*
X105306038Y-50192786D01*
X104931255Y-50001980D01*
X104526449Y-49887956D01*
X104107176Y-49855098D01*
X103689549Y-49904666D01*
X103289617Y-50034757D01*
X102993962Y-50192786D01*
X102837952Y-50508347D01*
X100910000Y-50508347D01*
X100910000Y-50211881D01*
X100836600Y-49842873D01*
X100776653Y-49698148D01*
X102714802Y-47760000D01*
X107781957Y-47760000D01*
X107885363Y-47914759D01*
X108085241Y-48114637D01*
X108320273Y-48271680D01*
X108581426Y-48379853D01*
X108858665Y-48435000D01*
X109141335Y-48435000D01*
X109323886Y-48398688D01*
X109365001Y-48439803D01*
X109365002Y-53232938D01*
X109349039Y-53228096D01*
X109127000Y-53350085D01*
X109127000Y-54493000D01*
X109147000Y-54493000D01*
X109147000Y-54747000D01*
X109127000Y-54747000D01*
X109127000Y-55889915D01*
X109349039Y-56011904D01*
X109483087Y-55971246D01*
X109737420Y-55851037D01*
X109963414Y-55683519D01*
X110151408Y-55476209D01*
X113351312Y-58676114D01*
X113315000Y-58858665D01*
X113315000Y-59141335D01*
X113370147Y-59418574D01*
X113478320Y-59679727D01*
X113635363Y-59914759D01*
X113835241Y-60114637D01*
X114070273Y-60271680D01*
X114331426Y-60379853D01*
X114608665Y-60435000D01*
X114891335Y-60435000D01*
X115168574Y-60379853D01*
X115429727Y-60271680D01*
X115664759Y-60114637D01*
X115864637Y-59914759D01*
X116021680Y-59679727D01*
X116129853Y-59418574D01*
X116185000Y-59141335D01*
X116185000Y-58858665D01*
X116129853Y-58581426D01*
X116021680Y-58320273D01*
X115864637Y-58085241D01*
X115664759Y-57885363D01*
X115429727Y-57728320D01*
X115168574Y-57620147D01*
X114891335Y-57565000D01*
X114608665Y-57565000D01*
X114426114Y-57601312D01*
X111793842Y-54969040D01*
X112608091Y-54969040D01*
X112702930Y-55233881D01*
X112847615Y-55475131D01*
X113036586Y-55683519D01*
X113262580Y-55851037D01*
X113516913Y-55971246D01*
X113650961Y-56011904D01*
X113873000Y-55889915D01*
X113873000Y-54747000D01*
X112729376Y-54747000D01*
X112608091Y-54969040D01*
X111793842Y-54969040D01*
X111095762Y-54270960D01*
X112608091Y-54270960D01*
X112729376Y-54493000D01*
X113873000Y-54493000D01*
X113873000Y-53350085D01*
X113650961Y-53228096D01*
X113516913Y-53268754D01*
X113262580Y-53388963D01*
X113036586Y-53556481D01*
X112847615Y-53764869D01*
X112702930Y-54006119D01*
X112608091Y-54270960D01*
X111095762Y-54270960D01*
X110885001Y-54060200D01*
X110885001Y-48162326D01*
X110888677Y-48125001D01*
X110885001Y-48087676D01*
X110885001Y-48087668D01*
X110874004Y-47976015D01*
X110830547Y-47832754D01*
X110759975Y-47700725D01*
X110665002Y-47585000D01*
X110636005Y-47561203D01*
X110398688Y-47323886D01*
X110435000Y-47141335D01*
X110435000Y-46858665D01*
X110379853Y-46581426D01*
X110271680Y-46320273D01*
X110114637Y-46085241D01*
X109914759Y-45885363D01*
X109679727Y-45728320D01*
X109514788Y-45660000D01*
X113485212Y-45660000D01*
X113320273Y-45728320D01*
X113085241Y-45885363D01*
X112885363Y-46085241D01*
X112728320Y-46320273D01*
X112620147Y-46581426D01*
X112565000Y-46858665D01*
X112565000Y-47141335D01*
X112620147Y-47418574D01*
X112728320Y-47679727D01*
X112885363Y-47914759D01*
X113085241Y-48114637D01*
X113320273Y-48271680D01*
X113581426Y-48379853D01*
X113858665Y-48435000D01*
X114141335Y-48435000D01*
X114323886Y-48398688D01*
X114365001Y-48439803D01*
X114365002Y-53232938D01*
X114349039Y-53228096D01*
X114127000Y-53350085D01*
X114127000Y-54493000D01*
X114147000Y-54493000D01*
X114147000Y-54747000D01*
X114127000Y-54747000D01*
X114127000Y-55889915D01*
X114349039Y-56011904D01*
X114483087Y-55971246D01*
X114737420Y-55851037D01*
X114963414Y-55683519D01*
X115151408Y-55476209D01*
X118351312Y-58676114D01*
X118315000Y-58858665D01*
X118315000Y-59141335D01*
X118351312Y-59323886D01*
X113310198Y-64365001D01*
X111387902Y-64365001D01*
X111426300Y-64211816D01*
X111440217Y-63929488D01*
X111398787Y-63649870D01*
X111303603Y-63383708D01*
X111236671Y-63258486D01*
X110992702Y-63186903D01*
X110179605Y-64000000D01*
X110193748Y-64014143D01*
X110014143Y-64193748D01*
X110000000Y-64179605D01*
X109985858Y-64193748D01*
X109806253Y-64014143D01*
X109820395Y-64000000D01*
X109007298Y-63186903D01*
X108763329Y-63258486D01*
X108642429Y-63513996D01*
X108573700Y-63788184D01*
X108559783Y-64070512D01*
X108601213Y-64350130D01*
X108606531Y-64365001D01*
X103768849Y-64365001D01*
X103794236Y-64281309D01*
X103821943Y-64000000D01*
X103794236Y-63718691D01*
X103712182Y-63448192D01*
X103578932Y-63198899D01*
X103421690Y-63007298D01*
X109186903Y-63007298D01*
X110000000Y-63820395D01*
X110813097Y-63007298D01*
X110741514Y-62763329D01*
X110486004Y-62642429D01*
X110211816Y-62573700D01*
X109929488Y-62559783D01*
X109649870Y-62601213D01*
X109383708Y-62696397D01*
X109258486Y-62763329D01*
X109186903Y-63007298D01*
X103421690Y-63007298D01*
X103399608Y-62980392D01*
X103181101Y-62801068D01*
X102931808Y-62667818D01*
X102661309Y-62585764D01*
X102450492Y-62565000D01*
X102309508Y-62565000D01*
X102098691Y-62585764D01*
X102054093Y-62599292D01*
X101818803Y-62364002D01*
X101795000Y-62334998D01*
X101679275Y-62240025D01*
X101547246Y-62169453D01*
X101403985Y-62125996D01*
X101292332Y-62114999D01*
X101292321Y-62114999D01*
X101254999Y-62111323D01*
X101217677Y-62114999D01*
X95189801Y-62114999D01*
X93398688Y-60323886D01*
X93435000Y-60141335D01*
X93435000Y-60000000D01*
X98178057Y-60000000D01*
X98205764Y-60281309D01*
X98287818Y-60551808D01*
X98421068Y-60801101D01*
X98600392Y-61019608D01*
X98818899Y-61198932D01*
X99068192Y-61332182D01*
X99338691Y-61414236D01*
X99549508Y-61435000D01*
X99690492Y-61435000D01*
X99901309Y-61414236D01*
X100171808Y-61332182D01*
X100421101Y-61198932D01*
X100639608Y-61019608D01*
X100818932Y-60801101D01*
X100952182Y-60551808D01*
X101034236Y-60281309D01*
X101061943Y-60000000D01*
X101034236Y-59718691D01*
X100952182Y-59448192D01*
X100818932Y-59198899D01*
X100639608Y-58980392D01*
X100421101Y-58801068D01*
X100171808Y-58667818D01*
X99901309Y-58585764D01*
X99690492Y-58565000D01*
X99549508Y-58565000D01*
X99338691Y-58585764D01*
X99068192Y-58667818D01*
X98818899Y-58801068D01*
X98600392Y-58980392D01*
X98421068Y-59198899D01*
X98287818Y-59448192D01*
X98205764Y-59718691D01*
X98178057Y-60000000D01*
X93435000Y-60000000D01*
X93435000Y-59858665D01*
X93379853Y-59581426D01*
X93271680Y-59320273D01*
X93114637Y-59085241D01*
X92914759Y-58885363D01*
X92679727Y-58728320D01*
X92418574Y-58620147D01*
X92141335Y-58565000D01*
X91858665Y-58565000D01*
X91581426Y-58620147D01*
X91320273Y-58728320D01*
X91085241Y-58885363D01*
X90885363Y-59085241D01*
X90728320Y-59320273D01*
X90660000Y-59485212D01*
X90660000Y-54969040D01*
X107608091Y-54969040D01*
X107702930Y-55233881D01*
X107847615Y-55475131D01*
X108036586Y-55683519D01*
X108262580Y-55851037D01*
X108516913Y-55971246D01*
X108650961Y-56011904D01*
X108873000Y-55889915D01*
X108873000Y-54747000D01*
X107729376Y-54747000D01*
X107608091Y-54969040D01*
X90660000Y-54969040D01*
X90660000Y-54270960D01*
X107608091Y-54270960D01*
X107729376Y-54493000D01*
X108873000Y-54493000D01*
X108873000Y-53350085D01*
X108650961Y-53228096D01*
X108516913Y-53268754D01*
X108262580Y-53388963D01*
X108036586Y-53556481D01*
X107847615Y-53764869D01*
X107702930Y-54006119D01*
X107608091Y-54270960D01*
X90660000Y-54270960D01*
X90660000Y-53491653D01*
X92537952Y-53491653D01*
X92693962Y-53807214D01*
X93068745Y-53998020D01*
X93473551Y-54112044D01*
X93892824Y-54144902D01*
X94310451Y-54095334D01*
X94710383Y-53965243D01*
X95006038Y-53807214D01*
X95162048Y-53491653D01*
X102837952Y-53491653D01*
X102993962Y-53807214D01*
X103368745Y-53998020D01*
X103773551Y-54112044D01*
X104192824Y-54144902D01*
X104610451Y-54095334D01*
X105010383Y-53965243D01*
X105306038Y-53807214D01*
X105462048Y-53491653D01*
X104150000Y-52179605D01*
X102837952Y-53491653D01*
X95162048Y-53491653D01*
X93850000Y-52179605D01*
X92537952Y-53491653D01*
X90660000Y-53491653D01*
X90660000Y-52042824D01*
X91705098Y-52042824D01*
X91754666Y-52460451D01*
X91884757Y-52860383D01*
X92042786Y-53156038D01*
X92358347Y-53312048D01*
X93670395Y-52000000D01*
X94029605Y-52000000D01*
X95341653Y-53312048D01*
X95657214Y-53156038D01*
X95848020Y-52781255D01*
X95962044Y-52376449D01*
X95994902Y-51957176D01*
X95945334Y-51539549D01*
X95815243Y-51139617D01*
X95657214Y-50843962D01*
X95341653Y-50687952D01*
X94029605Y-52000000D01*
X93670395Y-52000000D01*
X92358347Y-50687952D01*
X92042786Y-50843962D01*
X91851980Y-51218745D01*
X91737956Y-51623551D01*
X91705098Y-52042824D01*
X90660000Y-52042824D01*
X90660000Y-50508347D01*
X92537952Y-50508347D01*
X93850000Y-51820395D01*
X95162048Y-50508347D01*
X95006038Y-50192786D01*
X94631255Y-50001980D01*
X94226449Y-49887956D01*
X93807176Y-49855098D01*
X93389549Y-49904666D01*
X92989617Y-50034757D01*
X92693962Y-50192786D01*
X92537952Y-50508347D01*
X90660000Y-50508347D01*
X90660000Y-45660000D01*
X108485212Y-45660000D01*
X108320273Y-45728320D01*
X108320273Y-45728320D01*
G37*
X108320273Y-45728320D02*
X108085241Y-45885363D01*
X107885363Y-46085241D01*
X107781957Y-46240000D01*
X102437322Y-46240000D01*
X102399999Y-46236324D01*
X102362676Y-46240000D01*
X102362667Y-46240000D01*
X102251014Y-46250997D01*
X102107753Y-46294454D01*
X101975723Y-46365026D01*
X101892083Y-46433668D01*
X101859999Y-46459999D01*
X101836201Y-46488997D01*
X99701852Y-48623347D01*
X99557127Y-48563400D01*
X99188119Y-48490000D01*
X98811881Y-48490000D01*
X98442873Y-48563400D01*
X98095276Y-48707380D01*
X97782446Y-48916406D01*
X97516406Y-49182446D01*
X97307380Y-49495276D01*
X97163400Y-49842873D01*
X97090000Y-50211881D01*
X97090000Y-50588119D01*
X97163400Y-50957127D01*
X97307380Y-51304724D01*
X97516406Y-51617554D01*
X97782446Y-51883594D01*
X98095276Y-52092620D01*
X98442873Y-52236600D01*
X98811881Y-52310000D01*
X99188119Y-52310000D01*
X99557127Y-52236600D01*
X99904724Y-52092620D01*
X99979249Y-52042824D01*
X102005098Y-52042824D01*
X102054666Y-52460451D01*
X102184757Y-52860383D01*
X102342786Y-53156038D01*
X102658347Y-53312048D01*
X103970395Y-52000000D01*
X104329605Y-52000000D01*
X105641653Y-53312048D01*
X105957214Y-53156038D01*
X106148020Y-52781255D01*
X106262044Y-52376449D01*
X106294902Y-51957176D01*
X106245334Y-51539549D01*
X106115243Y-51139617D01*
X105957214Y-50843962D01*
X105641653Y-50687952D01*
X104329605Y-52000000D01*
X103970395Y-52000000D01*
X102658347Y-50687952D01*
X102342786Y-50843962D01*
X102151980Y-51218745D01*
X102037956Y-51623551D01*
X102005098Y-52042824D01*
X99979249Y-52042824D01*
X100217554Y-51883594D01*
X100483594Y-51617554D01*
X100692620Y-51304724D01*
X100836600Y-50957127D01*
X100910000Y-50588119D01*
X100910000Y-50508347D01*
X102837952Y-50508347D01*
X104150000Y-51820395D01*
X105462048Y-50508347D01*
X105306038Y-50192786D01*
X104931255Y-50001980D01*
X104526449Y-49887956D01*
X104107176Y-49855098D01*
X103689549Y-49904666D01*
X103289617Y-50034757D01*
X102993962Y-50192786D01*
X102837952Y-50508347D01*
X100910000Y-50508347D01*
X100910000Y-50211881D01*
X100836600Y-49842873D01*
X100776653Y-49698148D01*
X102714802Y-47760000D01*
X107781957Y-47760000D01*
X107885363Y-47914759D01*
X108085241Y-48114637D01*
X108320273Y-48271680D01*
X108581426Y-48379853D01*
X108858665Y-48435000D01*
X109141335Y-48435000D01*
X109323886Y-48398688D01*
X109365001Y-48439803D01*
X109365002Y-53232938D01*
X109349039Y-53228096D01*
X109127000Y-53350085D01*
X109127000Y-54493000D01*
X109147000Y-54493000D01*
X109147000Y-54747000D01*
X109127000Y-54747000D01*
X109127000Y-55889915D01*
X109349039Y-56011904D01*
X109483087Y-55971246D01*
X109737420Y-55851037D01*
X109963414Y-55683519D01*
X110151408Y-55476209D01*
X113351312Y-58676114D01*
X113315000Y-58858665D01*
X113315000Y-59141335D01*
X113370147Y-59418574D01*
X113478320Y-59679727D01*
X113635363Y-59914759D01*
X113835241Y-60114637D01*
X114070273Y-60271680D01*
X114331426Y-60379853D01*
X114608665Y-60435000D01*
X114891335Y-60435000D01*
X115168574Y-60379853D01*
X115429727Y-60271680D01*
X115664759Y-60114637D01*
X115864637Y-59914759D01*
X116021680Y-59679727D01*
X116129853Y-59418574D01*
X116185000Y-59141335D01*
X116185000Y-58858665D01*
X116129853Y-58581426D01*
X116021680Y-58320273D01*
X115864637Y-58085241D01*
X115664759Y-57885363D01*
X115429727Y-57728320D01*
X115168574Y-57620147D01*
X114891335Y-57565000D01*
X114608665Y-57565000D01*
X114426114Y-57601312D01*
X111793842Y-54969040D01*
X112608091Y-54969040D01*
X112702930Y-55233881D01*
X112847615Y-55475131D01*
X113036586Y-55683519D01*
X113262580Y-55851037D01*
X113516913Y-55971246D01*
X113650961Y-56011904D01*
X113873000Y-55889915D01*
X113873000Y-54747000D01*
X112729376Y-54747000D01*
X112608091Y-54969040D01*
X111793842Y-54969040D01*
X111095762Y-54270960D01*
X112608091Y-54270960D01*
X112729376Y-54493000D01*
X113873000Y-54493000D01*
X113873000Y-53350085D01*
X113650961Y-53228096D01*
X113516913Y-53268754D01*
X113262580Y-53388963D01*
X113036586Y-53556481D01*
X112847615Y-53764869D01*
X112702930Y-54006119D01*
X112608091Y-54270960D01*
X111095762Y-54270960D01*
X110885001Y-54060200D01*
X110885001Y-48162326D01*
X110888677Y-48125001D01*
X110885001Y-48087676D01*
X110885001Y-48087668D01*
X110874004Y-47976015D01*
X110830547Y-47832754D01*
X110759975Y-47700725D01*
X110665002Y-47585000D01*
X110636005Y-47561203D01*
X110398688Y-47323886D01*
X110435000Y-47141335D01*
X110435000Y-46858665D01*
X110379853Y-46581426D01*
X110271680Y-46320273D01*
X110114637Y-46085241D01*
X109914759Y-45885363D01*
X109679727Y-45728320D01*
X109514788Y-45660000D01*
X113485212Y-45660000D01*
X113320273Y-45728320D01*
X113085241Y-45885363D01*
X112885363Y-46085241D01*
X112728320Y-46320273D01*
X112620147Y-46581426D01*
X112565000Y-46858665D01*
X112565000Y-47141335D01*
X112620147Y-47418574D01*
X112728320Y-47679727D01*
X112885363Y-47914759D01*
X113085241Y-48114637D01*
X113320273Y-48271680D01*
X113581426Y-48379853D01*
X113858665Y-48435000D01*
X114141335Y-48435000D01*
X114323886Y-48398688D01*
X114365001Y-48439803D01*
X114365002Y-53232938D01*
X114349039Y-53228096D01*
X114127000Y-53350085D01*
X114127000Y-54493000D01*
X114147000Y-54493000D01*
X114147000Y-54747000D01*
X114127000Y-54747000D01*
X114127000Y-55889915D01*
X114349039Y-56011904D01*
X114483087Y-55971246D01*
X114737420Y-55851037D01*
X114963414Y-55683519D01*
X115151408Y-55476209D01*
X118351312Y-58676114D01*
X118315000Y-58858665D01*
X118315000Y-59141335D01*
X118351312Y-59323886D01*
X113310198Y-64365001D01*
X111387902Y-64365001D01*
X111426300Y-64211816D01*
X111440217Y-63929488D01*
X111398787Y-63649870D01*
X111303603Y-63383708D01*
X111236671Y-63258486D01*
X110992702Y-63186903D01*
X110179605Y-64000000D01*
X110193748Y-64014143D01*
X110014143Y-64193748D01*
X110000000Y-64179605D01*
X109985858Y-64193748D01*
X109806253Y-64014143D01*
X109820395Y-64000000D01*
X109007298Y-63186903D01*
X108763329Y-63258486D01*
X108642429Y-63513996D01*
X108573700Y-63788184D01*
X108559783Y-64070512D01*
X108601213Y-64350130D01*
X108606531Y-64365001D01*
X103768849Y-64365001D01*
X103794236Y-64281309D01*
X103821943Y-64000000D01*
X103794236Y-63718691D01*
X103712182Y-63448192D01*
X103578932Y-63198899D01*
X103421690Y-63007298D01*
X109186903Y-63007298D01*
X110000000Y-63820395D01*
X110813097Y-63007298D01*
X110741514Y-62763329D01*
X110486004Y-62642429D01*
X110211816Y-62573700D01*
X109929488Y-62559783D01*
X109649870Y-62601213D01*
X109383708Y-62696397D01*
X109258486Y-62763329D01*
X109186903Y-63007298D01*
X103421690Y-63007298D01*
X103399608Y-62980392D01*
X103181101Y-62801068D01*
X102931808Y-62667818D01*
X102661309Y-62585764D01*
X102450492Y-62565000D01*
X102309508Y-62565000D01*
X102098691Y-62585764D01*
X102054093Y-62599292D01*
X101818803Y-62364002D01*
X101795000Y-62334998D01*
X101679275Y-62240025D01*
X101547246Y-62169453D01*
X101403985Y-62125996D01*
X101292332Y-62114999D01*
X101292321Y-62114999D01*
X101254999Y-62111323D01*
X101217677Y-62114999D01*
X95189801Y-62114999D01*
X93398688Y-60323886D01*
X93435000Y-60141335D01*
X93435000Y-60000000D01*
X98178057Y-60000000D01*
X98205764Y-60281309D01*
X98287818Y-60551808D01*
X98421068Y-60801101D01*
X98600392Y-61019608D01*
X98818899Y-61198932D01*
X99068192Y-61332182D01*
X99338691Y-61414236D01*
X99549508Y-61435000D01*
X99690492Y-61435000D01*
X99901309Y-61414236D01*
X100171808Y-61332182D01*
X100421101Y-61198932D01*
X100639608Y-61019608D01*
X100818932Y-60801101D01*
X100952182Y-60551808D01*
X101034236Y-60281309D01*
X101061943Y-60000000D01*
X101034236Y-59718691D01*
X100952182Y-59448192D01*
X100818932Y-59198899D01*
X100639608Y-58980392D01*
X100421101Y-58801068D01*
X100171808Y-58667818D01*
X99901309Y-58585764D01*
X99690492Y-58565000D01*
X99549508Y-58565000D01*
X99338691Y-58585764D01*
X99068192Y-58667818D01*
X98818899Y-58801068D01*
X98600392Y-58980392D01*
X98421068Y-59198899D01*
X98287818Y-59448192D01*
X98205764Y-59718691D01*
X98178057Y-60000000D01*
X93435000Y-60000000D01*
X93435000Y-59858665D01*
X93379853Y-59581426D01*
X93271680Y-59320273D01*
X93114637Y-59085241D01*
X92914759Y-58885363D01*
X92679727Y-58728320D01*
X92418574Y-58620147D01*
X92141335Y-58565000D01*
X91858665Y-58565000D01*
X91581426Y-58620147D01*
X91320273Y-58728320D01*
X91085241Y-58885363D01*
X90885363Y-59085241D01*
X90728320Y-59320273D01*
X90660000Y-59485212D01*
X90660000Y-54969040D01*
X107608091Y-54969040D01*
X107702930Y-55233881D01*
X107847615Y-55475131D01*
X108036586Y-55683519D01*
X108262580Y-55851037D01*
X108516913Y-55971246D01*
X108650961Y-56011904D01*
X108873000Y-55889915D01*
X108873000Y-54747000D01*
X107729376Y-54747000D01*
X107608091Y-54969040D01*
X90660000Y-54969040D01*
X90660000Y-54270960D01*
X107608091Y-54270960D01*
X107729376Y-54493000D01*
X108873000Y-54493000D01*
X108873000Y-53350085D01*
X108650961Y-53228096D01*
X108516913Y-53268754D01*
X108262580Y-53388963D01*
X108036586Y-53556481D01*
X107847615Y-53764869D01*
X107702930Y-54006119D01*
X107608091Y-54270960D01*
X90660000Y-54270960D01*
X90660000Y-53491653D01*
X92537952Y-53491653D01*
X92693962Y-53807214D01*
X93068745Y-53998020D01*
X93473551Y-54112044D01*
X93892824Y-54144902D01*
X94310451Y-54095334D01*
X94710383Y-53965243D01*
X95006038Y-53807214D01*
X95162048Y-53491653D01*
X102837952Y-53491653D01*
X102993962Y-53807214D01*
X103368745Y-53998020D01*
X103773551Y-54112044D01*
X104192824Y-54144902D01*
X104610451Y-54095334D01*
X105010383Y-53965243D01*
X105306038Y-53807214D01*
X105462048Y-53491653D01*
X104150000Y-52179605D01*
X102837952Y-53491653D01*
X95162048Y-53491653D01*
X93850000Y-52179605D01*
X92537952Y-53491653D01*
X90660000Y-53491653D01*
X90660000Y-52042824D01*
X91705098Y-52042824D01*
X91754666Y-52460451D01*
X91884757Y-52860383D01*
X92042786Y-53156038D01*
X92358347Y-53312048D01*
X93670395Y-52000000D01*
X94029605Y-52000000D01*
X95341653Y-53312048D01*
X95657214Y-53156038D01*
X95848020Y-52781255D01*
X95962044Y-52376449D01*
X95994902Y-51957176D01*
X95945334Y-51539549D01*
X95815243Y-51139617D01*
X95657214Y-50843962D01*
X95341653Y-50687952D01*
X94029605Y-52000000D01*
X93670395Y-52000000D01*
X92358347Y-50687952D01*
X92042786Y-50843962D01*
X91851980Y-51218745D01*
X91737956Y-51623551D01*
X91705098Y-52042824D01*
X90660000Y-52042824D01*
X90660000Y-50508347D01*
X92537952Y-50508347D01*
X93850000Y-51820395D01*
X95162048Y-50508347D01*
X95006038Y-50192786D01*
X94631255Y-50001980D01*
X94226449Y-49887956D01*
X93807176Y-49855098D01*
X93389549Y-49904666D01*
X92989617Y-50034757D01*
X92693962Y-50192786D01*
X92537952Y-50508347D01*
X90660000Y-50508347D01*
X90660000Y-45660000D01*
X108485212Y-45660000D01*
X108320273Y-45728320D01*
M02*
