G04 #@! TF.GenerationSoftware,KiCad,Pcbnew,(5.1.4-0-10_14)*
G04 #@! TF.CreationDate,2020-06-13T20:06:02+02:00*
G04 #@! TF.ProjectId,two_comparator_effect,74776f5f-636f-46d7-9061-7261746f725f,rev?*
G04 #@! TF.SameCoordinates,Original*
G04 #@! TF.FileFunction,Legend,Bot*
G04 #@! TF.FilePolarity,Positive*
%FSLAX46Y46*%
G04 Gerber Fmt 4.6, Leading zero omitted, Abs format (unit mm)*
G04 Created by KiCad (PCBNEW (5.1.4-0-10_14)) date 2020-06-13 20:06:02*
%MOMM*%
%LPD*%
G04 APERTURE LIST*
%ADD10C,0.150000*%
G04 APERTURE END LIST*
D10*
X188712023Y-60072619D02*
X188664404Y-60025000D01*
X188569166Y-59977380D01*
X188331071Y-59977380D01*
X188235833Y-60025000D01*
X188188214Y-60072619D01*
X188140595Y-60167857D01*
X188140595Y-60263095D01*
X188188214Y-60405952D01*
X188759642Y-60977380D01*
X188140595Y-60977380D01*
X187283452Y-60929761D02*
X187378690Y-60977380D01*
X187569166Y-60977380D01*
X187664404Y-60929761D01*
X187712023Y-60882142D01*
X187759642Y-60786904D01*
X187759642Y-60501190D01*
X187712023Y-60405952D01*
X187664404Y-60358333D01*
X187569166Y-60310714D01*
X187378690Y-60310714D01*
X187283452Y-60358333D01*
X186712023Y-60977380D02*
X186807261Y-60929761D01*
X186854880Y-60882142D01*
X186902500Y-60786904D01*
X186902500Y-60501190D01*
X186854880Y-60405952D01*
X186807261Y-60358333D01*
X186712023Y-60310714D01*
X186569166Y-60310714D01*
X186473928Y-60358333D01*
X186426309Y-60405952D01*
X186378690Y-60501190D01*
X186378690Y-60786904D01*
X186426309Y-60882142D01*
X186473928Y-60929761D01*
X186569166Y-60977380D01*
X186712023Y-60977380D01*
X185950119Y-60977380D02*
X185950119Y-60310714D01*
X185950119Y-60405952D02*
X185902500Y-60358333D01*
X185807261Y-60310714D01*
X185664404Y-60310714D01*
X185569166Y-60358333D01*
X185521547Y-60453571D01*
X185521547Y-60977380D01*
X185521547Y-60453571D02*
X185473928Y-60358333D01*
X185378690Y-60310714D01*
X185235833Y-60310714D01*
X185140595Y-60358333D01*
X185092976Y-60453571D01*
X185092976Y-60977380D01*
X184616785Y-60310714D02*
X184616785Y-61310714D01*
X184616785Y-60358333D02*
X184521547Y-60310714D01*
X184331071Y-60310714D01*
X184235833Y-60358333D01*
X184188214Y-60405952D01*
X184140595Y-60501190D01*
X184140595Y-60786904D01*
X184188214Y-60882142D01*
X184235833Y-60929761D01*
X184331071Y-60977380D01*
X184521547Y-60977380D01*
X184616785Y-60929761D01*
X183283452Y-60977380D02*
X183283452Y-60453571D01*
X183331071Y-60358333D01*
X183426309Y-60310714D01*
X183616785Y-60310714D01*
X183712023Y-60358333D01*
X183283452Y-60929761D02*
X183378690Y-60977380D01*
X183616785Y-60977380D01*
X183712023Y-60929761D01*
X183759642Y-60834523D01*
X183759642Y-60739285D01*
X183712023Y-60644047D01*
X183616785Y-60596428D01*
X183378690Y-60596428D01*
X183283452Y-60548809D01*
X182807261Y-60977380D02*
X182807261Y-60310714D01*
X182807261Y-60501190D02*
X182759642Y-60405952D01*
X182712023Y-60358333D01*
X182616785Y-60310714D01*
X182521547Y-60310714D01*
X181759642Y-60977380D02*
X181759642Y-60453571D01*
X181807261Y-60358333D01*
X181902500Y-60310714D01*
X182092976Y-60310714D01*
X182188214Y-60358333D01*
X181759642Y-60929761D02*
X181854880Y-60977380D01*
X182092976Y-60977380D01*
X182188214Y-60929761D01*
X182235833Y-60834523D01*
X182235833Y-60739285D01*
X182188214Y-60644047D01*
X182092976Y-60596428D01*
X181854880Y-60596428D01*
X181759642Y-60548809D01*
X181426309Y-60310714D02*
X181045357Y-60310714D01*
X181283452Y-59977380D02*
X181283452Y-60834523D01*
X181235833Y-60929761D01*
X181140595Y-60977380D01*
X181045357Y-60977380D01*
X180569166Y-60977380D02*
X180664404Y-60929761D01*
X180712023Y-60882142D01*
X180759642Y-60786904D01*
X180759642Y-60501190D01*
X180712023Y-60405952D01*
X180664404Y-60358333D01*
X180569166Y-60310714D01*
X180426309Y-60310714D01*
X180331071Y-60358333D01*
X180283452Y-60405952D01*
X180235833Y-60501190D01*
X180235833Y-60786904D01*
X180283452Y-60882142D01*
X180331071Y-60929761D01*
X180426309Y-60977380D01*
X180569166Y-60977380D01*
X179807261Y-60977380D02*
X179807261Y-60310714D01*
X179807261Y-60501190D02*
X179759642Y-60405952D01*
X179712023Y-60358333D01*
X179616785Y-60310714D01*
X179521547Y-60310714D01*
X178854880Y-60453571D02*
X179188214Y-60453571D01*
X179188214Y-60977380D02*
X179188214Y-59977380D01*
X178712023Y-59977380D01*
X178426309Y-59977380D02*
X177759642Y-60977380D01*
X177759642Y-59977380D02*
X178426309Y-60977380D01*
X176426309Y-59977380D02*
X176331071Y-59977380D01*
X176235833Y-60025000D01*
X176188214Y-60072619D01*
X176140595Y-60167857D01*
X176092976Y-60358333D01*
X176092976Y-60596428D01*
X176140595Y-60786904D01*
X176188214Y-60882142D01*
X176235833Y-60929761D01*
X176331071Y-60977380D01*
X176426309Y-60977380D01*
X176521547Y-60929761D01*
X176569166Y-60882142D01*
X176616785Y-60786904D01*
X176664404Y-60596428D01*
X176664404Y-60358333D01*
X176616785Y-60167857D01*
X176569166Y-60072619D01*
X176521547Y-60025000D01*
X176426309Y-59977380D01*
X175664404Y-60882142D02*
X175616785Y-60929761D01*
X175664404Y-60977380D01*
X175712023Y-60929761D01*
X175664404Y-60882142D01*
X175664404Y-60977380D01*
X174664404Y-60977380D02*
X175235833Y-60977380D01*
X174950119Y-60977380D02*
X174950119Y-59977380D01*
X175045357Y-60120238D01*
X175140595Y-60215476D01*
X175235833Y-60263095D01*
X188664404Y-62627380D02*
X188664404Y-61627380D01*
X188664404Y-62008333D02*
X188569166Y-61960714D01*
X188378690Y-61960714D01*
X188283452Y-62008333D01*
X188235833Y-62055952D01*
X188188214Y-62151190D01*
X188188214Y-62436904D01*
X188235833Y-62532142D01*
X188283452Y-62579761D01*
X188378690Y-62627380D01*
X188569166Y-62627380D01*
X188664404Y-62579761D01*
X187854880Y-61960714D02*
X187616785Y-62627380D01*
X187378690Y-61960714D02*
X187616785Y-62627380D01*
X187712023Y-62865476D01*
X187759642Y-62913095D01*
X187854880Y-62960714D01*
X185664404Y-62627380D02*
X185997738Y-62151190D01*
X186235833Y-62627380D02*
X186235833Y-61627380D01*
X185854880Y-61627380D01*
X185759642Y-61675000D01*
X185712023Y-61722619D01*
X185664404Y-61817857D01*
X185664404Y-61960714D01*
X185712023Y-62055952D01*
X185759642Y-62103571D01*
X185854880Y-62151190D01*
X186235833Y-62151190D01*
X185092976Y-62627380D02*
X185188214Y-62579761D01*
X185235833Y-62532142D01*
X185283452Y-62436904D01*
X185283452Y-62151190D01*
X185235833Y-62055952D01*
X185188214Y-62008333D01*
X185092976Y-61960714D01*
X184950119Y-61960714D01*
X184854880Y-62008333D01*
X184807261Y-62055952D01*
X184759642Y-62151190D01*
X184759642Y-62436904D01*
X184807261Y-62532142D01*
X184854880Y-62579761D01*
X184950119Y-62627380D01*
X185092976Y-62627380D01*
X184331071Y-62627380D02*
X184331071Y-61627380D01*
X184331071Y-62008333D02*
X184235833Y-61960714D01*
X184045357Y-61960714D01*
X183950119Y-62008333D01*
X183902500Y-62055952D01*
X183854880Y-62151190D01*
X183854880Y-62436904D01*
X183902500Y-62532142D01*
X183950119Y-62579761D01*
X184045357Y-62627380D01*
X184235833Y-62627380D01*
X184331071Y-62579761D01*
X182712023Y-62579761D02*
X182569166Y-62627380D01*
X182331071Y-62627380D01*
X182235833Y-62579761D01*
X182188214Y-62532142D01*
X182140595Y-62436904D01*
X182140595Y-62341666D01*
X182188214Y-62246428D01*
X182235833Y-62198809D01*
X182331071Y-62151190D01*
X182521547Y-62103571D01*
X182616785Y-62055952D01*
X182664404Y-62008333D01*
X182712023Y-61913095D01*
X182712023Y-61817857D01*
X182664404Y-61722619D01*
X182616785Y-61675000D01*
X182521547Y-61627380D01*
X182283452Y-61627380D01*
X182140595Y-61675000D01*
X181283452Y-62579761D02*
X181378690Y-62627380D01*
X181569166Y-62627380D01*
X181664404Y-62579761D01*
X181712023Y-62532142D01*
X181759642Y-62436904D01*
X181759642Y-62151190D01*
X181712023Y-62055952D01*
X181664404Y-62008333D01*
X181569166Y-61960714D01*
X181378690Y-61960714D01*
X181283452Y-62008333D01*
X180854880Y-62627380D02*
X180854880Y-61627380D01*
X180426309Y-62627380D02*
X180426309Y-62103571D01*
X180473928Y-62008333D01*
X180569166Y-61960714D01*
X180712023Y-61960714D01*
X180807261Y-62008333D01*
X180854880Y-62055952D01*
X179521547Y-62627380D02*
X179521547Y-62103571D01*
X179569166Y-62008333D01*
X179664404Y-61960714D01*
X179854880Y-61960714D01*
X179950119Y-62008333D01*
X179521547Y-62579761D02*
X179616785Y-62627380D01*
X179854880Y-62627380D01*
X179950119Y-62579761D01*
X179997738Y-62484523D01*
X179997738Y-62389285D01*
X179950119Y-62294047D01*
X179854880Y-62246428D01*
X179616785Y-62246428D01*
X179521547Y-62198809D01*
X179188214Y-61960714D02*
X178807261Y-61960714D01*
X179045357Y-62627380D02*
X179045357Y-61770238D01*
X178997738Y-61675000D01*
X178902500Y-61627380D01*
X178807261Y-61627380D01*
X178092976Y-62579761D02*
X178188214Y-62627380D01*
X178378690Y-62627380D01*
X178473928Y-62579761D01*
X178521547Y-62484523D01*
X178521547Y-62103571D01*
X178473928Y-62008333D01*
X178378690Y-61960714D01*
X178188214Y-61960714D01*
X178092976Y-62008333D01*
X178045357Y-62103571D01*
X178045357Y-62198809D01*
X178521547Y-62294047D01*
X177616785Y-62627380D02*
X177616785Y-61960714D01*
X177616785Y-62151190D02*
X177569166Y-62055952D01*
X177521547Y-62008333D01*
X177426309Y-61960714D01*
X177331071Y-61960714D01*
X188664404Y-65260714D02*
X188664404Y-66260714D01*
X188664404Y-65308333D02*
X188569166Y-65260714D01*
X188378690Y-65260714D01*
X188283452Y-65308333D01*
X188235833Y-65355952D01*
X188188214Y-65451190D01*
X188188214Y-65736904D01*
X188235833Y-65832142D01*
X188283452Y-65879761D01*
X188378690Y-65927380D01*
X188569166Y-65927380D01*
X188664404Y-65879761D01*
X187331071Y-65879761D02*
X187426309Y-65927380D01*
X187616785Y-65927380D01*
X187712023Y-65879761D01*
X187759642Y-65832142D01*
X187807261Y-65736904D01*
X187807261Y-65451190D01*
X187759642Y-65355952D01*
X187712023Y-65308333D01*
X187616785Y-65260714D01*
X187426309Y-65260714D01*
X187331071Y-65308333D01*
X186902500Y-65927380D02*
X186902500Y-64927380D01*
X186902500Y-65308333D02*
X186807261Y-65260714D01*
X186616785Y-65260714D01*
X186521547Y-65308333D01*
X186473928Y-65355952D01*
X186426309Y-65451190D01*
X186426309Y-65736904D01*
X186473928Y-65832142D01*
X186521547Y-65879761D01*
X186616785Y-65927380D01*
X186807261Y-65927380D01*
X186902500Y-65879761D01*
X185235833Y-65927380D02*
X185235833Y-64927380D01*
X185235833Y-65308333D02*
X185140595Y-65260714D01*
X184950119Y-65260714D01*
X184854880Y-65308333D01*
X184807261Y-65355952D01*
X184759642Y-65451190D01*
X184759642Y-65736904D01*
X184807261Y-65832142D01*
X184854880Y-65879761D01*
X184950119Y-65927380D01*
X185140595Y-65927380D01*
X185235833Y-65879761D01*
X184426309Y-65260714D02*
X184188214Y-65927380D01*
X183950119Y-65260714D02*
X184188214Y-65927380D01*
X184283452Y-66165476D01*
X184331071Y-66213095D01*
X184426309Y-66260714D01*
X182378690Y-65879761D02*
X182473928Y-65927380D01*
X182664404Y-65927380D01*
X182759642Y-65879761D01*
X182807261Y-65832142D01*
X182854880Y-65736904D01*
X182854880Y-65451190D01*
X182807261Y-65355952D01*
X182759642Y-65308333D01*
X182664404Y-65260714D01*
X182473928Y-65260714D01*
X182378690Y-65308333D01*
X182045357Y-65260714D02*
X181807261Y-65927380D01*
X181569166Y-65260714D02*
X181807261Y-65927380D01*
X181902500Y-66165476D01*
X181950119Y-66213095D01*
X182045357Y-66260714D01*
X181188214Y-65927380D02*
X181188214Y-64927380D01*
X181188214Y-65308333D02*
X181092976Y-65260714D01*
X180902500Y-65260714D01*
X180807261Y-65308333D01*
X180759642Y-65355952D01*
X180712023Y-65451190D01*
X180712023Y-65736904D01*
X180759642Y-65832142D01*
X180807261Y-65879761D01*
X180902500Y-65927380D01*
X181092976Y-65927380D01*
X181188214Y-65879761D01*
X179902500Y-65879761D02*
X179997738Y-65927380D01*
X180188214Y-65927380D01*
X180283452Y-65879761D01*
X180331071Y-65784523D01*
X180331071Y-65403571D01*
X180283452Y-65308333D01*
X180188214Y-65260714D01*
X179997738Y-65260714D01*
X179902500Y-65308333D01*
X179854880Y-65403571D01*
X179854880Y-65498809D01*
X180331071Y-65594047D01*
X179426309Y-65927380D02*
X179426309Y-65260714D01*
X179426309Y-65451190D02*
X179378690Y-65355952D01*
X179331071Y-65308333D01*
X179235833Y-65260714D01*
X179140595Y-65260714D01*
X178807261Y-65927380D02*
X178807261Y-64927380D01*
X178807261Y-65308333D02*
X178712023Y-65260714D01*
X178521547Y-65260714D01*
X178426309Y-65308333D01*
X178378690Y-65355952D01*
X178331071Y-65451190D01*
X178331071Y-65736904D01*
X178378690Y-65832142D01*
X178426309Y-65879761D01*
X178521547Y-65927380D01*
X178712023Y-65927380D01*
X178807261Y-65879761D01*
X177759642Y-65927380D02*
X177854880Y-65879761D01*
X177902500Y-65832142D01*
X177950119Y-65736904D01*
X177950119Y-65451190D01*
X177902500Y-65355952D01*
X177854880Y-65308333D01*
X177759642Y-65260714D01*
X177616785Y-65260714D01*
X177521547Y-65308333D01*
X177473928Y-65355952D01*
X177426309Y-65451190D01*
X177426309Y-65736904D01*
X177473928Y-65832142D01*
X177521547Y-65879761D01*
X177616785Y-65927380D01*
X177759642Y-65927380D01*
X177092976Y-65260714D02*
X176854880Y-65927380D01*
X176616785Y-65260714D02*
X176854880Y-65927380D01*
X176950119Y-66165476D01*
X176997738Y-66213095D01*
X177092976Y-66260714D01*
X175807261Y-64927380D02*
X175997738Y-64927380D01*
X176092976Y-64975000D01*
X176140595Y-65022619D01*
X176235833Y-65165476D01*
X176283452Y-65355952D01*
X176283452Y-65736904D01*
X176235833Y-65832142D01*
X176188214Y-65879761D01*
X176092976Y-65927380D01*
X175902500Y-65927380D01*
X175807261Y-65879761D01*
X175759642Y-65832142D01*
X175712023Y-65736904D01*
X175712023Y-65498809D01*
X175759642Y-65403571D01*
X175807261Y-65355952D01*
X175902500Y-65308333D01*
X176092976Y-65308333D01*
X176188214Y-65355952D01*
X176235833Y-65403571D01*
X176283452Y-65498809D01*
X174854880Y-64927380D02*
X175045357Y-64927380D01*
X175140595Y-64975000D01*
X175188214Y-65022619D01*
X175283452Y-65165476D01*
X175331071Y-65355952D01*
X175331071Y-65736904D01*
X175283452Y-65832142D01*
X175235833Y-65879761D01*
X175140595Y-65927380D01*
X174950119Y-65927380D01*
X174854880Y-65879761D01*
X174807261Y-65832142D01*
X174759642Y-65736904D01*
X174759642Y-65498809D01*
X174807261Y-65403571D01*
X174854880Y-65355952D01*
X174950119Y-65308333D01*
X175140595Y-65308333D01*
X175235833Y-65355952D01*
X175283452Y-65403571D01*
X175331071Y-65498809D01*
X173902500Y-64927380D02*
X174092976Y-64927380D01*
X174188214Y-64975000D01*
X174235833Y-65022619D01*
X174331071Y-65165476D01*
X174378690Y-65355952D01*
X174378690Y-65736904D01*
X174331071Y-65832142D01*
X174283452Y-65879761D01*
X174188214Y-65927380D01*
X173997738Y-65927380D01*
X173902500Y-65879761D01*
X173854880Y-65832142D01*
X173807261Y-65736904D01*
X173807261Y-65498809D01*
X173854880Y-65403571D01*
X173902500Y-65355952D01*
X173997738Y-65308333D01*
X174188214Y-65308333D01*
X174283452Y-65355952D01*
X174331071Y-65403571D01*
X174378690Y-65498809D01*
M02*
