G04 #@! TF.GenerationSoftware,KiCad,Pcbnew,(5.1.4-0-10_14)*
G04 #@! TF.CreationDate,2021-06-29T12:17:26+12:00*
G04 #@! TF.ProjectId,two_comparator_effect,74776f5f-636f-46d7-9061-7261746f725f,rev?*
G04 #@! TF.SameCoordinates,Original*
G04 #@! TF.FileFunction,Soldermask,Top*
G04 #@! TF.FilePolarity,Negative*
%FSLAX46Y46*%
G04 Gerber Fmt 4.6, Leading zero omitted, Abs format (unit mm)*
G04 Created by KiCad (PCBNEW (5.1.4-0-10_14)) date 2021-06-29 12:17:26*
%MOMM*%
%LPD*%
G04 APERTURE LIST*
%ADD10C,0.100000*%
G04 APERTURE END LIST*
D10*
G36*
X136806822Y-76661313D02*
G01*
X136967241Y-76709976D01*
X137115077Y-76788995D01*
X137227566Y-76881313D01*
X137244659Y-76895341D01*
X137351004Y-77024922D01*
X137351005Y-77024924D01*
X137430024Y-77172758D01*
X137478687Y-77333177D01*
X137491000Y-77458196D01*
X137491000Y-78341803D01*
X137478687Y-78466822D01*
X137430024Y-78627242D01*
X137359114Y-78759906D01*
X137351004Y-78775078D01*
X137244659Y-78904659D01*
X137115078Y-79011004D01*
X137115076Y-79011005D01*
X136967242Y-79090024D01*
X136806823Y-79138687D01*
X136640000Y-79155117D01*
X136473178Y-79138687D01*
X136312759Y-79090024D01*
X136164925Y-79011005D01*
X136164923Y-79011004D01*
X136035342Y-78904659D01*
X135928997Y-78775078D01*
X135920887Y-78759906D01*
X135849977Y-78627242D01*
X135801314Y-78466823D01*
X135789000Y-78341803D01*
X135789000Y-77458197D01*
X135801313Y-77333178D01*
X135849976Y-77172759D01*
X135928995Y-77024923D01*
X136035341Y-76895341D01*
X136052434Y-76881313D01*
X136164922Y-76788996D01*
X136202332Y-76769000D01*
X136312758Y-76709976D01*
X136473177Y-76661313D01*
X136640000Y-76644883D01*
X136806822Y-76661313D01*
X136806822Y-76661313D01*
G37*
G36*
X139346822Y-76661313D02*
G01*
X139507241Y-76709976D01*
X139655077Y-76788995D01*
X139767566Y-76881313D01*
X139784659Y-76895341D01*
X139891004Y-77024922D01*
X139891005Y-77024924D01*
X139970024Y-77172758D01*
X140018687Y-77333177D01*
X140031000Y-77458196D01*
X140031000Y-78341803D01*
X140018687Y-78466822D01*
X139970024Y-78627242D01*
X139899114Y-78759906D01*
X139891004Y-78775078D01*
X139784659Y-78904659D01*
X139655078Y-79011004D01*
X139655076Y-79011005D01*
X139507242Y-79090024D01*
X139346823Y-79138687D01*
X139180000Y-79155117D01*
X139013178Y-79138687D01*
X138852759Y-79090024D01*
X138704925Y-79011005D01*
X138704923Y-79011004D01*
X138575342Y-78904659D01*
X138468997Y-78775078D01*
X138460887Y-78759906D01*
X138389977Y-78627242D01*
X138341314Y-78466823D01*
X138329000Y-78341803D01*
X138329000Y-77458197D01*
X138341313Y-77333178D01*
X138389976Y-77172759D01*
X138468995Y-77024923D01*
X138575341Y-76895341D01*
X138592434Y-76881313D01*
X138704922Y-76788996D01*
X138742332Y-76769000D01*
X138852758Y-76709976D01*
X139013177Y-76661313D01*
X139180000Y-76644883D01*
X139346822Y-76661313D01*
X139346822Y-76661313D01*
G37*
G36*
X141886822Y-76661313D02*
G01*
X142047241Y-76709976D01*
X142195077Y-76788995D01*
X142307566Y-76881313D01*
X142324659Y-76895341D01*
X142431004Y-77024922D01*
X142431005Y-77024924D01*
X142510024Y-77172758D01*
X142558687Y-77333177D01*
X142571000Y-77458196D01*
X142571000Y-78341803D01*
X142558687Y-78466822D01*
X142510024Y-78627242D01*
X142439114Y-78759906D01*
X142431004Y-78775078D01*
X142324659Y-78904659D01*
X142195078Y-79011004D01*
X142195076Y-79011005D01*
X142047242Y-79090024D01*
X141886823Y-79138687D01*
X141720000Y-79155117D01*
X141553178Y-79138687D01*
X141392759Y-79090024D01*
X141244925Y-79011005D01*
X141244923Y-79011004D01*
X141115342Y-78904659D01*
X141008997Y-78775078D01*
X141000887Y-78759906D01*
X140929977Y-78627242D01*
X140881314Y-78466823D01*
X140869000Y-78341803D01*
X140869000Y-77458197D01*
X140881313Y-77333178D01*
X140929976Y-77172759D01*
X141008995Y-77024923D01*
X141115341Y-76895341D01*
X141132434Y-76881313D01*
X141244922Y-76788996D01*
X141282332Y-76769000D01*
X141392758Y-76709976D01*
X141553177Y-76661313D01*
X141720000Y-76644883D01*
X141886822Y-76661313D01*
X141886822Y-76661313D01*
G37*
G36*
X144426822Y-76661313D02*
G01*
X144587241Y-76709976D01*
X144735077Y-76788995D01*
X144847566Y-76881313D01*
X144864659Y-76895341D01*
X144971004Y-77024922D01*
X144971005Y-77024924D01*
X145050024Y-77172758D01*
X145098687Y-77333177D01*
X145111000Y-77458196D01*
X145111000Y-78341803D01*
X145098687Y-78466822D01*
X145050024Y-78627242D01*
X144979114Y-78759906D01*
X144971004Y-78775078D01*
X144864659Y-78904659D01*
X144735078Y-79011004D01*
X144735076Y-79011005D01*
X144587242Y-79090024D01*
X144426823Y-79138687D01*
X144260000Y-79155117D01*
X144093178Y-79138687D01*
X143932759Y-79090024D01*
X143784925Y-79011005D01*
X143784923Y-79011004D01*
X143655342Y-78904659D01*
X143548997Y-78775078D01*
X143540887Y-78759906D01*
X143469977Y-78627242D01*
X143421314Y-78466823D01*
X143409000Y-78341803D01*
X143409000Y-77458197D01*
X143421313Y-77333178D01*
X143469976Y-77172759D01*
X143548995Y-77024923D01*
X143655341Y-76895341D01*
X143672434Y-76881313D01*
X143784922Y-76788996D01*
X143822332Y-76769000D01*
X143932758Y-76709976D01*
X144093177Y-76661313D01*
X144260000Y-76644883D01*
X144426822Y-76661313D01*
X144426822Y-76661313D01*
G37*
G36*
X146966822Y-76661313D02*
G01*
X147127241Y-76709976D01*
X147275077Y-76788995D01*
X147387566Y-76881313D01*
X147404659Y-76895341D01*
X147511004Y-77024922D01*
X147511005Y-77024924D01*
X147590024Y-77172758D01*
X147638687Y-77333177D01*
X147651000Y-77458196D01*
X147651000Y-78341803D01*
X147638687Y-78466822D01*
X147590024Y-78627242D01*
X147519114Y-78759906D01*
X147511004Y-78775078D01*
X147404659Y-78904659D01*
X147275078Y-79011004D01*
X147275076Y-79011005D01*
X147127242Y-79090024D01*
X146966823Y-79138687D01*
X146800000Y-79155117D01*
X146633178Y-79138687D01*
X146472759Y-79090024D01*
X146324925Y-79011005D01*
X146324923Y-79011004D01*
X146195342Y-78904659D01*
X146088997Y-78775078D01*
X146080887Y-78759906D01*
X146009977Y-78627242D01*
X145961314Y-78466823D01*
X145949000Y-78341803D01*
X145949000Y-77458197D01*
X145961313Y-77333178D01*
X146009976Y-77172759D01*
X146088995Y-77024923D01*
X146195341Y-76895341D01*
X146212434Y-76881313D01*
X146324922Y-76788996D01*
X146362332Y-76769000D01*
X146472758Y-76709976D01*
X146633177Y-76661313D01*
X146800000Y-76644883D01*
X146966822Y-76661313D01*
X146966822Y-76661313D01*
G37*
G36*
X149506822Y-76661313D02*
G01*
X149667241Y-76709976D01*
X149815077Y-76788995D01*
X149927566Y-76881313D01*
X149944659Y-76895341D01*
X150051004Y-77024922D01*
X150051005Y-77024924D01*
X150130024Y-77172758D01*
X150178687Y-77333177D01*
X150191000Y-77458196D01*
X150191000Y-78341803D01*
X150178687Y-78466822D01*
X150130024Y-78627242D01*
X150059114Y-78759906D01*
X150051004Y-78775078D01*
X149944659Y-78904659D01*
X149815078Y-79011004D01*
X149815076Y-79011005D01*
X149667242Y-79090024D01*
X149506823Y-79138687D01*
X149340000Y-79155117D01*
X149173178Y-79138687D01*
X149012759Y-79090024D01*
X148864925Y-79011005D01*
X148864923Y-79011004D01*
X148735342Y-78904659D01*
X148628997Y-78775078D01*
X148620887Y-78759906D01*
X148549977Y-78627242D01*
X148501314Y-78466823D01*
X148489000Y-78341803D01*
X148489000Y-77458197D01*
X148501313Y-77333178D01*
X148549976Y-77172759D01*
X148628995Y-77024923D01*
X148735341Y-76895341D01*
X148752434Y-76881313D01*
X148864922Y-76788996D01*
X148902332Y-76769000D01*
X149012758Y-76709976D01*
X149173177Y-76661313D01*
X149340000Y-76644883D01*
X149506822Y-76661313D01*
X149506822Y-76661313D01*
G37*
G36*
X134951000Y-79151000D02*
G01*
X133249000Y-79151000D01*
X133249000Y-76649000D01*
X134951000Y-76649000D01*
X134951000Y-79151000D01*
X134951000Y-79151000D01*
G37*
G36*
X123977395Y-77285546D02*
G01*
X124150466Y-77357234D01*
X124156566Y-77361310D01*
X124306227Y-77461310D01*
X124438690Y-77593773D01*
X124438691Y-77593775D01*
X124542766Y-77749534D01*
X124614454Y-77922605D01*
X124651000Y-78106333D01*
X124651000Y-78293667D01*
X124614454Y-78477395D01*
X124542766Y-78650466D01*
X124542765Y-78650467D01*
X124438690Y-78806227D01*
X124306227Y-78938690D01*
X124227818Y-78991081D01*
X124150466Y-79042766D01*
X123977395Y-79114454D01*
X123793667Y-79151000D01*
X123606333Y-79151000D01*
X123422605Y-79114454D01*
X123249534Y-79042766D01*
X123172182Y-78991081D01*
X123093773Y-78938690D01*
X122961310Y-78806227D01*
X122857235Y-78650467D01*
X122857234Y-78650466D01*
X122785546Y-78477395D01*
X122749000Y-78293667D01*
X122749000Y-78106333D01*
X122785546Y-77922605D01*
X122857234Y-77749534D01*
X122961309Y-77593775D01*
X122961310Y-77593773D01*
X123093773Y-77461310D01*
X123243434Y-77361310D01*
X123249534Y-77357234D01*
X123422605Y-77285546D01*
X123606333Y-77249000D01*
X123793667Y-77249000D01*
X123977395Y-77285546D01*
X123977395Y-77285546D01*
G37*
G36*
X121477395Y-77285546D02*
G01*
X121650466Y-77357234D01*
X121656566Y-77361310D01*
X121806227Y-77461310D01*
X121938690Y-77593773D01*
X121938691Y-77593775D01*
X122042766Y-77749534D01*
X122114454Y-77922605D01*
X122151000Y-78106333D01*
X122151000Y-78293667D01*
X122114454Y-78477395D01*
X122042766Y-78650466D01*
X122042765Y-78650467D01*
X121938690Y-78806227D01*
X121806227Y-78938690D01*
X121727818Y-78991081D01*
X121650466Y-79042766D01*
X121477395Y-79114454D01*
X121293667Y-79151000D01*
X121106333Y-79151000D01*
X120922605Y-79114454D01*
X120749534Y-79042766D01*
X120672182Y-78991081D01*
X120593773Y-78938690D01*
X120461310Y-78806227D01*
X120357235Y-78650467D01*
X120357234Y-78650466D01*
X120285546Y-78477395D01*
X120249000Y-78293667D01*
X120249000Y-78106333D01*
X120285546Y-77922605D01*
X120357234Y-77749534D01*
X120461309Y-77593775D01*
X120461310Y-77593773D01*
X120593773Y-77461310D01*
X120743434Y-77361310D01*
X120749534Y-77357234D01*
X120922605Y-77285546D01*
X121106333Y-77249000D01*
X121293667Y-77249000D01*
X121477395Y-77285546D01*
X121477395Y-77285546D01*
G37*
G36*
X118977395Y-77285546D02*
G01*
X119150466Y-77357234D01*
X119156566Y-77361310D01*
X119306227Y-77461310D01*
X119438690Y-77593773D01*
X119438691Y-77593775D01*
X119542766Y-77749534D01*
X119614454Y-77922605D01*
X119651000Y-78106333D01*
X119651000Y-78293667D01*
X119614454Y-78477395D01*
X119542766Y-78650466D01*
X119542765Y-78650467D01*
X119438690Y-78806227D01*
X119306227Y-78938690D01*
X119227818Y-78991081D01*
X119150466Y-79042766D01*
X118977395Y-79114454D01*
X118793667Y-79151000D01*
X118606333Y-79151000D01*
X118422605Y-79114454D01*
X118249534Y-79042766D01*
X118172182Y-78991081D01*
X118093773Y-78938690D01*
X117961310Y-78806227D01*
X117857235Y-78650467D01*
X117857234Y-78650466D01*
X117785546Y-78477395D01*
X117749000Y-78293667D01*
X117749000Y-78106333D01*
X117785546Y-77922605D01*
X117857234Y-77749534D01*
X117961309Y-77593775D01*
X117961310Y-77593773D01*
X118093773Y-77461310D01*
X118243434Y-77361310D01*
X118249534Y-77357234D01*
X118422605Y-77285546D01*
X118606333Y-77249000D01*
X118793667Y-77249000D01*
X118977395Y-77285546D01*
X118977395Y-77285546D01*
G37*
G36*
X161577395Y-77185546D02*
G01*
X161750466Y-77257234D01*
X161792838Y-77285546D01*
X161906227Y-77361310D01*
X162038690Y-77493773D01*
X162038691Y-77493775D01*
X162142766Y-77649534D01*
X162214454Y-77822605D01*
X162251000Y-78006333D01*
X162251000Y-78193667D01*
X162214454Y-78377395D01*
X162142766Y-78550466D01*
X162091468Y-78627239D01*
X162038690Y-78706227D01*
X161906227Y-78838690D01*
X161827818Y-78891081D01*
X161750466Y-78942766D01*
X161577395Y-79014454D01*
X161393667Y-79051000D01*
X161206333Y-79051000D01*
X161022605Y-79014454D01*
X160849534Y-78942766D01*
X160772182Y-78891081D01*
X160693773Y-78838690D01*
X160561310Y-78706227D01*
X160508532Y-78627239D01*
X160457234Y-78550466D01*
X160385546Y-78377395D01*
X160349000Y-78193667D01*
X160349000Y-78006333D01*
X160385546Y-77822605D01*
X160457234Y-77649534D01*
X160561309Y-77493775D01*
X160561310Y-77493773D01*
X160693773Y-77361310D01*
X160807162Y-77285546D01*
X160849534Y-77257234D01*
X161022605Y-77185546D01*
X161206333Y-77149000D01*
X161393667Y-77149000D01*
X161577395Y-77185546D01*
X161577395Y-77185546D01*
G37*
G36*
X159077395Y-77185546D02*
G01*
X159250466Y-77257234D01*
X159292838Y-77285546D01*
X159406227Y-77361310D01*
X159538690Y-77493773D01*
X159538691Y-77493775D01*
X159642766Y-77649534D01*
X159714454Y-77822605D01*
X159751000Y-78006333D01*
X159751000Y-78193667D01*
X159714454Y-78377395D01*
X159642766Y-78550466D01*
X159591468Y-78627239D01*
X159538690Y-78706227D01*
X159406227Y-78838690D01*
X159327818Y-78891081D01*
X159250466Y-78942766D01*
X159077395Y-79014454D01*
X158893667Y-79051000D01*
X158706333Y-79051000D01*
X158522605Y-79014454D01*
X158349534Y-78942766D01*
X158272182Y-78891081D01*
X158193773Y-78838690D01*
X158061310Y-78706227D01*
X158008532Y-78627239D01*
X157957234Y-78550466D01*
X157885546Y-78377395D01*
X157849000Y-78193667D01*
X157849000Y-78006333D01*
X157885546Y-77822605D01*
X157957234Y-77649534D01*
X158061309Y-77493775D01*
X158061310Y-77493773D01*
X158193773Y-77361310D01*
X158307162Y-77285546D01*
X158349534Y-77257234D01*
X158522605Y-77185546D01*
X158706333Y-77149000D01*
X158893667Y-77149000D01*
X159077395Y-77185546D01*
X159077395Y-77185546D01*
G37*
G36*
X156577395Y-77185546D02*
G01*
X156750466Y-77257234D01*
X156792838Y-77285546D01*
X156906227Y-77361310D01*
X157038690Y-77493773D01*
X157038691Y-77493775D01*
X157142766Y-77649534D01*
X157214454Y-77822605D01*
X157251000Y-78006333D01*
X157251000Y-78193667D01*
X157214454Y-78377395D01*
X157142766Y-78550466D01*
X157091468Y-78627239D01*
X157038690Y-78706227D01*
X156906227Y-78838690D01*
X156827818Y-78891081D01*
X156750466Y-78942766D01*
X156577395Y-79014454D01*
X156393667Y-79051000D01*
X156206333Y-79051000D01*
X156022605Y-79014454D01*
X155849534Y-78942766D01*
X155772182Y-78891081D01*
X155693773Y-78838690D01*
X155561310Y-78706227D01*
X155508532Y-78627239D01*
X155457234Y-78550466D01*
X155385546Y-78377395D01*
X155349000Y-78193667D01*
X155349000Y-78006333D01*
X155385546Y-77822605D01*
X155457234Y-77649534D01*
X155561309Y-77493775D01*
X155561310Y-77493773D01*
X155693773Y-77361310D01*
X155807162Y-77285546D01*
X155849534Y-77257234D01*
X156022605Y-77185546D01*
X156206333Y-77149000D01*
X156393667Y-77149000D01*
X156577395Y-77185546D01*
X156577395Y-77185546D01*
G37*
G36*
X105166823Y-76881313D02*
G01*
X105327242Y-76929976D01*
X105423782Y-76981578D01*
X105475078Y-77008996D01*
X105604659Y-77115341D01*
X105711004Y-77244922D01*
X105711005Y-77244924D01*
X105790024Y-77392758D01*
X105838687Y-77553177D01*
X105855117Y-77720000D01*
X105838687Y-77886823D01*
X105790024Y-78047242D01*
X105768477Y-78087553D01*
X105711004Y-78195078D01*
X105604659Y-78324659D01*
X105475078Y-78431004D01*
X105475076Y-78431005D01*
X105327242Y-78510024D01*
X105166823Y-78558687D01*
X105041804Y-78571000D01*
X104958196Y-78571000D01*
X104833177Y-78558687D01*
X104672758Y-78510024D01*
X104524924Y-78431005D01*
X104524922Y-78431004D01*
X104395341Y-78324659D01*
X104288996Y-78195078D01*
X104231523Y-78087553D01*
X104209976Y-78047242D01*
X104161313Y-77886823D01*
X104144883Y-77720000D01*
X104161313Y-77553177D01*
X104209976Y-77392758D01*
X104288995Y-77244924D01*
X104288996Y-77244922D01*
X104395341Y-77115341D01*
X104524922Y-77008996D01*
X104576218Y-76981578D01*
X104672758Y-76929976D01*
X104833177Y-76881313D01*
X104958196Y-76869000D01*
X105041804Y-76869000D01*
X105166823Y-76881313D01*
X105166823Y-76881313D01*
G37*
G36*
X100666823Y-76781313D02*
G01*
X100827242Y-76829976D01*
X100949531Y-76895341D01*
X100975078Y-76908996D01*
X101104659Y-77015341D01*
X101211004Y-77144922D01*
X101211005Y-77144924D01*
X101290024Y-77292758D01*
X101338687Y-77453177D01*
X101355117Y-77620000D01*
X101338687Y-77786823D01*
X101290024Y-77947242D01*
X101258439Y-78006333D01*
X101211004Y-78095078D01*
X101104659Y-78224659D01*
X100975078Y-78331004D01*
X100975076Y-78331005D01*
X100827242Y-78410024D01*
X100666823Y-78458687D01*
X100541804Y-78471000D01*
X100458196Y-78471000D01*
X100333177Y-78458687D01*
X100172758Y-78410024D01*
X100024924Y-78331005D01*
X100024922Y-78331004D01*
X99895341Y-78224659D01*
X99788996Y-78095078D01*
X99741561Y-78006333D01*
X99709976Y-77947242D01*
X99661313Y-77786823D01*
X99644883Y-77620000D01*
X99661313Y-77453177D01*
X99709976Y-77292758D01*
X99788995Y-77144924D01*
X99788996Y-77144922D01*
X99895341Y-77015341D01*
X100024922Y-76908996D01*
X100050469Y-76895341D01*
X100172758Y-76829976D01*
X100333177Y-76781313D01*
X100458196Y-76769000D01*
X100541804Y-76769000D01*
X100666823Y-76781313D01*
X100666823Y-76781313D01*
G37*
G36*
X179666823Y-76781313D02*
G01*
X179827242Y-76829976D01*
X179949531Y-76895341D01*
X179975078Y-76908996D01*
X180104659Y-77015341D01*
X180211004Y-77144922D01*
X180211005Y-77144924D01*
X180290024Y-77292758D01*
X180338687Y-77453177D01*
X180355117Y-77620000D01*
X180338687Y-77786823D01*
X180290024Y-77947242D01*
X180258439Y-78006333D01*
X180211004Y-78095078D01*
X180104659Y-78224659D01*
X179975078Y-78331004D01*
X179975076Y-78331005D01*
X179827242Y-78410024D01*
X179666823Y-78458687D01*
X179541804Y-78471000D01*
X179458196Y-78471000D01*
X179333177Y-78458687D01*
X179172758Y-78410024D01*
X179024924Y-78331005D01*
X179024922Y-78331004D01*
X178895341Y-78224659D01*
X178788996Y-78095078D01*
X178741561Y-78006333D01*
X178709976Y-77947242D01*
X178661313Y-77786823D01*
X178644883Y-77620000D01*
X178661313Y-77453177D01*
X178709976Y-77292758D01*
X178788995Y-77144924D01*
X178788996Y-77144922D01*
X178895341Y-77015341D01*
X179024922Y-76908996D01*
X179050469Y-76895341D01*
X179172758Y-76829976D01*
X179333177Y-76781313D01*
X179458196Y-76769000D01*
X179541804Y-76769000D01*
X179666823Y-76781313D01*
X179666823Y-76781313D01*
G37*
G36*
X175166823Y-76781313D02*
G01*
X175327242Y-76829976D01*
X175449531Y-76895341D01*
X175475078Y-76908996D01*
X175604659Y-77015341D01*
X175711004Y-77144922D01*
X175711005Y-77144924D01*
X175790024Y-77292758D01*
X175838687Y-77453177D01*
X175855117Y-77620000D01*
X175838687Y-77786823D01*
X175790024Y-77947242D01*
X175758439Y-78006333D01*
X175711004Y-78095078D01*
X175604659Y-78224659D01*
X175475078Y-78331004D01*
X175475076Y-78331005D01*
X175327242Y-78410024D01*
X175166823Y-78458687D01*
X175041804Y-78471000D01*
X174958196Y-78471000D01*
X174833177Y-78458687D01*
X174672758Y-78410024D01*
X174524924Y-78331005D01*
X174524922Y-78331004D01*
X174395341Y-78224659D01*
X174288996Y-78095078D01*
X174241561Y-78006333D01*
X174209976Y-77947242D01*
X174161313Y-77786823D01*
X174144883Y-77620000D01*
X174161313Y-77453177D01*
X174209976Y-77292758D01*
X174288995Y-77144924D01*
X174288996Y-77144922D01*
X174395341Y-77015341D01*
X174524922Y-76908996D01*
X174550469Y-76895341D01*
X174672758Y-76829976D01*
X174833177Y-76781313D01*
X174958196Y-76769000D01*
X175041804Y-76769000D01*
X175166823Y-76781313D01*
X175166823Y-76781313D01*
G37*
G36*
X186975256Y-74891298D02*
G01*
X187081579Y-74912447D01*
X187382042Y-75036903D01*
X187652451Y-75217585D01*
X187882415Y-75447549D01*
X188063097Y-75717958D01*
X188063098Y-75717960D01*
X188187553Y-76018422D01*
X188251000Y-76337389D01*
X188251000Y-76662611D01*
X188225860Y-76788995D01*
X188187553Y-76981579D01*
X188137217Y-77103100D01*
X188073373Y-77257235D01*
X188063097Y-77282042D01*
X187882415Y-77552451D01*
X187652451Y-77782415D01*
X187382042Y-77963097D01*
X187081579Y-78087553D01*
X187043758Y-78095076D01*
X186762611Y-78151000D01*
X186437389Y-78151000D01*
X186156242Y-78095076D01*
X186118421Y-78087553D01*
X185817958Y-77963097D01*
X185547549Y-77782415D01*
X185317585Y-77552451D01*
X185136903Y-77282042D01*
X185126628Y-77257235D01*
X185062783Y-77103100D01*
X185012447Y-76981579D01*
X184974140Y-76788995D01*
X184949000Y-76662611D01*
X184949000Y-76337389D01*
X185012447Y-76018422D01*
X185136902Y-75717960D01*
X185136903Y-75717958D01*
X185317585Y-75447549D01*
X185547549Y-75217585D01*
X185817958Y-75036903D01*
X186118421Y-74912447D01*
X186224744Y-74891298D01*
X186437389Y-74849000D01*
X186762611Y-74849000D01*
X186975256Y-74891298D01*
X186975256Y-74891298D01*
G37*
G36*
X93875256Y-74891298D02*
G01*
X93981579Y-74912447D01*
X94282042Y-75036903D01*
X94552451Y-75217585D01*
X94782415Y-75447549D01*
X94963097Y-75717958D01*
X94963098Y-75717960D01*
X95087553Y-76018422D01*
X95151000Y-76337389D01*
X95151000Y-76662611D01*
X95125860Y-76788995D01*
X95087553Y-76981579D01*
X95037217Y-77103100D01*
X94973373Y-77257235D01*
X94963097Y-77282042D01*
X94782415Y-77552451D01*
X94552451Y-77782415D01*
X94282042Y-77963097D01*
X93981579Y-78087553D01*
X93943758Y-78095076D01*
X93662611Y-78151000D01*
X93337389Y-78151000D01*
X93056242Y-78095076D01*
X93018421Y-78087553D01*
X92717958Y-77963097D01*
X92447549Y-77782415D01*
X92217585Y-77552451D01*
X92036903Y-77282042D01*
X92026628Y-77257235D01*
X91962783Y-77103100D01*
X91912447Y-76981579D01*
X91874140Y-76788995D01*
X91849000Y-76662611D01*
X91849000Y-76337389D01*
X91912447Y-76018422D01*
X92036902Y-75717960D01*
X92036903Y-75717958D01*
X92217585Y-75447549D01*
X92447549Y-75217585D01*
X92717958Y-75036903D01*
X93018421Y-74912447D01*
X93124744Y-74891298D01*
X93337389Y-74849000D01*
X93662611Y-74849000D01*
X93875256Y-74891298D01*
X93875256Y-74891298D01*
G37*
G36*
X130648228Y-75881703D02*
G01*
X130803100Y-75945853D01*
X130942481Y-76038985D01*
X131061015Y-76157519D01*
X131154147Y-76296900D01*
X131218297Y-76451772D01*
X131251000Y-76616184D01*
X131251000Y-76783816D01*
X131218297Y-76948228D01*
X131154147Y-77103100D01*
X131061015Y-77242481D01*
X130942481Y-77361015D01*
X130803100Y-77454147D01*
X130648228Y-77518297D01*
X130483816Y-77551000D01*
X130316184Y-77551000D01*
X130151772Y-77518297D01*
X129996900Y-77454147D01*
X129857519Y-77361015D01*
X129738985Y-77242481D01*
X129645853Y-77103100D01*
X129581703Y-76948228D01*
X129549000Y-76783816D01*
X129549000Y-76616184D01*
X129581703Y-76451772D01*
X129645853Y-76296900D01*
X129738985Y-76157519D01*
X129857519Y-76038985D01*
X129996900Y-75945853D01*
X130151772Y-75881703D01*
X130316184Y-75849000D01*
X130483816Y-75849000D01*
X130648228Y-75881703D01*
X130648228Y-75881703D01*
G37*
G36*
X170648228Y-74181703D02*
G01*
X170803100Y-74245853D01*
X170942481Y-74338985D01*
X171061015Y-74457519D01*
X171154147Y-74596900D01*
X171218297Y-74751772D01*
X171251000Y-74916184D01*
X171251000Y-75083816D01*
X171218297Y-75248228D01*
X171154147Y-75403100D01*
X171061015Y-75542481D01*
X170942481Y-75661015D01*
X170803100Y-75754147D01*
X170648228Y-75818297D01*
X170483816Y-75851000D01*
X170316184Y-75851000D01*
X170151772Y-75818297D01*
X169996900Y-75754147D01*
X169857519Y-75661015D01*
X169738985Y-75542481D01*
X169645853Y-75403100D01*
X169581703Y-75248228D01*
X169549000Y-75083816D01*
X169549000Y-74916184D01*
X169581703Y-74751772D01*
X169645853Y-74596900D01*
X169738985Y-74457519D01*
X169857519Y-74338985D01*
X169996900Y-74245853D01*
X170151772Y-74181703D01*
X170316184Y-74149000D01*
X170483816Y-74149000D01*
X170648228Y-74181703D01*
X170648228Y-74181703D01*
G37*
G36*
X126548254Y-68727818D02*
G01*
X126921511Y-68882426D01*
X126921513Y-68882427D01*
X127257436Y-69106884D01*
X127543116Y-69392564D01*
X127653336Y-69557519D01*
X127767574Y-69728489D01*
X127922182Y-70101746D01*
X128001000Y-70497993D01*
X128001000Y-70902007D01*
X127922182Y-71298254D01*
X127824070Y-71535117D01*
X127767573Y-71671513D01*
X127543116Y-72007436D01*
X127257436Y-72293116D01*
X126921513Y-72517573D01*
X126921512Y-72517574D01*
X126921511Y-72517574D01*
X126548254Y-72672182D01*
X126152007Y-72751000D01*
X125747993Y-72751000D01*
X125351746Y-72672182D01*
X124978489Y-72517574D01*
X124978488Y-72517574D01*
X124978487Y-72517573D01*
X124642564Y-72293116D01*
X124356884Y-72007436D01*
X124132427Y-71671513D01*
X124075930Y-71535117D01*
X123977818Y-71298254D01*
X123899000Y-70902007D01*
X123899000Y-70497993D01*
X123977818Y-70101746D01*
X124132426Y-69728489D01*
X124246665Y-69557519D01*
X124356884Y-69392564D01*
X124642564Y-69106884D01*
X124978487Y-68882427D01*
X124978489Y-68882426D01*
X125351746Y-68727818D01*
X125747993Y-68649000D01*
X126152007Y-68649000D01*
X126548254Y-68727818D01*
X126548254Y-68727818D01*
G37*
G36*
X117048254Y-68727818D02*
G01*
X117421511Y-68882426D01*
X117421513Y-68882427D01*
X117757436Y-69106884D01*
X118043116Y-69392564D01*
X118153336Y-69557519D01*
X118267574Y-69728489D01*
X118422182Y-70101746D01*
X118501000Y-70497993D01*
X118501000Y-70902007D01*
X118422182Y-71298254D01*
X118324070Y-71535117D01*
X118267573Y-71671513D01*
X118043116Y-72007436D01*
X117757436Y-72293116D01*
X117421513Y-72517573D01*
X117421512Y-72517574D01*
X117421511Y-72517574D01*
X117048254Y-72672182D01*
X116652007Y-72751000D01*
X116247993Y-72751000D01*
X115851746Y-72672182D01*
X115478489Y-72517574D01*
X115478488Y-72517574D01*
X115478487Y-72517573D01*
X115142564Y-72293116D01*
X114856884Y-72007436D01*
X114632427Y-71671513D01*
X114575930Y-71535117D01*
X114477818Y-71298254D01*
X114399000Y-70902007D01*
X114399000Y-70497993D01*
X114477818Y-70101746D01*
X114632426Y-69728489D01*
X114746665Y-69557519D01*
X114856884Y-69392564D01*
X115142564Y-69106884D01*
X115478487Y-68882427D01*
X115478489Y-68882426D01*
X115851746Y-68727818D01*
X116247993Y-68649000D01*
X116652007Y-68649000D01*
X117048254Y-68727818D01*
X117048254Y-68727818D01*
G37*
G36*
X164148254Y-68627818D02*
G01*
X164521511Y-68782426D01*
X164521513Y-68782427D01*
X164857436Y-69006884D01*
X165143116Y-69292564D01*
X165320154Y-69557519D01*
X165367574Y-69628489D01*
X165522182Y-70001746D01*
X165601000Y-70397993D01*
X165601000Y-70802007D01*
X165522182Y-71198254D01*
X165480760Y-71298255D01*
X165367573Y-71571513D01*
X165143116Y-71907436D01*
X164857436Y-72193116D01*
X164521513Y-72417573D01*
X164521512Y-72417574D01*
X164521511Y-72417574D01*
X164148254Y-72572182D01*
X163752007Y-72651000D01*
X163347993Y-72651000D01*
X162951746Y-72572182D01*
X162578489Y-72417574D01*
X162578488Y-72417574D01*
X162578487Y-72417573D01*
X162242564Y-72193116D01*
X161956884Y-71907436D01*
X161732427Y-71571513D01*
X161619240Y-71298255D01*
X161577818Y-71198254D01*
X161499000Y-70802007D01*
X161499000Y-70397993D01*
X161577818Y-70001746D01*
X161732426Y-69628489D01*
X161779847Y-69557519D01*
X161956884Y-69292564D01*
X162242564Y-69006884D01*
X162578487Y-68782427D01*
X162578489Y-68782426D01*
X162951746Y-68627818D01*
X163347993Y-68549000D01*
X163752007Y-68549000D01*
X164148254Y-68627818D01*
X164148254Y-68627818D01*
G37*
G36*
X154648254Y-68627818D02*
G01*
X155021511Y-68782426D01*
X155021513Y-68782427D01*
X155357436Y-69006884D01*
X155643116Y-69292564D01*
X155820154Y-69557519D01*
X155867574Y-69628489D01*
X156022182Y-70001746D01*
X156101000Y-70397993D01*
X156101000Y-70802007D01*
X156022182Y-71198254D01*
X155980760Y-71298255D01*
X155867573Y-71571513D01*
X155643116Y-71907436D01*
X155357436Y-72193116D01*
X155021513Y-72417573D01*
X155021512Y-72417574D01*
X155021511Y-72417574D01*
X154648254Y-72572182D01*
X154252007Y-72651000D01*
X153847993Y-72651000D01*
X153451746Y-72572182D01*
X153078489Y-72417574D01*
X153078488Y-72417574D01*
X153078487Y-72417573D01*
X152742564Y-72193116D01*
X152456884Y-71907436D01*
X152232427Y-71571513D01*
X152119240Y-71298255D01*
X152077818Y-71198254D01*
X151999000Y-70802007D01*
X151999000Y-70397993D01*
X152077818Y-70001746D01*
X152232426Y-69628489D01*
X152279847Y-69557519D01*
X152456884Y-69292564D01*
X152742564Y-69006884D01*
X153078487Y-68782427D01*
X153078489Y-68782426D01*
X153451746Y-68627818D01*
X153847993Y-68549000D01*
X154252007Y-68549000D01*
X154648254Y-68627818D01*
X154648254Y-68627818D01*
G37*
G36*
X130648228Y-70881703D02*
G01*
X130803100Y-70945853D01*
X130942481Y-71038985D01*
X131061015Y-71157519D01*
X131154147Y-71296900D01*
X131218297Y-71451772D01*
X131251000Y-71616184D01*
X131251000Y-71783816D01*
X131218297Y-71948228D01*
X131154147Y-72103100D01*
X131061015Y-72242481D01*
X130942481Y-72361015D01*
X130803100Y-72454147D01*
X130648228Y-72518297D01*
X130483816Y-72551000D01*
X130316184Y-72551000D01*
X130151772Y-72518297D01*
X129996900Y-72454147D01*
X129857519Y-72361015D01*
X129738985Y-72242481D01*
X129645853Y-72103100D01*
X129581703Y-71948228D01*
X129549000Y-71783816D01*
X129549000Y-71616184D01*
X129581703Y-71451772D01*
X129645853Y-71296900D01*
X129738985Y-71157519D01*
X129857519Y-71038985D01*
X129996900Y-70945853D01*
X130151772Y-70881703D01*
X130316184Y-70849000D01*
X130483816Y-70849000D01*
X130648228Y-70881703D01*
X130648228Y-70881703D01*
G37*
G36*
X134266822Y-69041313D02*
G01*
X134427241Y-69089976D01*
X134575077Y-69168995D01*
X134704659Y-69275341D01*
X134811004Y-69404922D01*
X134811005Y-69404924D01*
X134890024Y-69552758D01*
X134938687Y-69713177D01*
X134951000Y-69838196D01*
X134951000Y-70721803D01*
X134938687Y-70846822D01*
X134890024Y-71007242D01*
X134873057Y-71038985D01*
X134811004Y-71155078D01*
X134704659Y-71284659D01*
X134575078Y-71391004D01*
X134575076Y-71391005D01*
X134427242Y-71470024D01*
X134266823Y-71518687D01*
X134100000Y-71535117D01*
X133933178Y-71518687D01*
X133772759Y-71470024D01*
X133624925Y-71391005D01*
X133624923Y-71391004D01*
X133495342Y-71284659D01*
X133388997Y-71155078D01*
X133326944Y-71038985D01*
X133309977Y-71007242D01*
X133261314Y-70846823D01*
X133249000Y-70721803D01*
X133249000Y-69838197D01*
X133261313Y-69713178D01*
X133309976Y-69552759D01*
X133388995Y-69404923D01*
X133495341Y-69275341D01*
X133624922Y-69168996D01*
X133662332Y-69149000D01*
X133772758Y-69089976D01*
X133933177Y-69041313D01*
X134100000Y-69024883D01*
X134266822Y-69041313D01*
X134266822Y-69041313D01*
G37*
G36*
X136806822Y-69041313D02*
G01*
X136967241Y-69089976D01*
X137115077Y-69168995D01*
X137244659Y-69275341D01*
X137351004Y-69404922D01*
X137351005Y-69404924D01*
X137430024Y-69552758D01*
X137478687Y-69713177D01*
X137491000Y-69838196D01*
X137491000Y-70721803D01*
X137478687Y-70846822D01*
X137430024Y-71007242D01*
X137413057Y-71038985D01*
X137351004Y-71155078D01*
X137244659Y-71284659D01*
X137115078Y-71391004D01*
X137115076Y-71391005D01*
X136967242Y-71470024D01*
X136806823Y-71518687D01*
X136640000Y-71535117D01*
X136473178Y-71518687D01*
X136312759Y-71470024D01*
X136164925Y-71391005D01*
X136164923Y-71391004D01*
X136035342Y-71284659D01*
X135928997Y-71155078D01*
X135866944Y-71038985D01*
X135849977Y-71007242D01*
X135801314Y-70846823D01*
X135789000Y-70721803D01*
X135789000Y-69838197D01*
X135801313Y-69713178D01*
X135849976Y-69552759D01*
X135928995Y-69404923D01*
X136035341Y-69275341D01*
X136164922Y-69168996D01*
X136202332Y-69149000D01*
X136312758Y-69089976D01*
X136473177Y-69041313D01*
X136640000Y-69024883D01*
X136806822Y-69041313D01*
X136806822Y-69041313D01*
G37*
G36*
X139346822Y-69041313D02*
G01*
X139507241Y-69089976D01*
X139655077Y-69168995D01*
X139784659Y-69275341D01*
X139891004Y-69404922D01*
X139891005Y-69404924D01*
X139970024Y-69552758D01*
X140018687Y-69713177D01*
X140031000Y-69838196D01*
X140031000Y-70721803D01*
X140018687Y-70846822D01*
X139970024Y-71007242D01*
X139953057Y-71038985D01*
X139891004Y-71155078D01*
X139784659Y-71284659D01*
X139655078Y-71391004D01*
X139655076Y-71391005D01*
X139507242Y-71470024D01*
X139346823Y-71518687D01*
X139180000Y-71535117D01*
X139013178Y-71518687D01*
X138852759Y-71470024D01*
X138704925Y-71391005D01*
X138704923Y-71391004D01*
X138575342Y-71284659D01*
X138468997Y-71155078D01*
X138406944Y-71038985D01*
X138389977Y-71007242D01*
X138341314Y-70846823D01*
X138329000Y-70721803D01*
X138329000Y-69838197D01*
X138341313Y-69713178D01*
X138389976Y-69552759D01*
X138468995Y-69404923D01*
X138575341Y-69275341D01*
X138704922Y-69168996D01*
X138742332Y-69149000D01*
X138852758Y-69089976D01*
X139013177Y-69041313D01*
X139180000Y-69024883D01*
X139346822Y-69041313D01*
X139346822Y-69041313D01*
G37*
G36*
X141886822Y-69041313D02*
G01*
X142047241Y-69089976D01*
X142195077Y-69168995D01*
X142324659Y-69275341D01*
X142431004Y-69404922D01*
X142431005Y-69404924D01*
X142510024Y-69552758D01*
X142558687Y-69713177D01*
X142571000Y-69838196D01*
X142571000Y-70721803D01*
X142558687Y-70846822D01*
X142510024Y-71007242D01*
X142493057Y-71038985D01*
X142431004Y-71155078D01*
X142324659Y-71284659D01*
X142195078Y-71391004D01*
X142195076Y-71391005D01*
X142047242Y-71470024D01*
X141886823Y-71518687D01*
X141720000Y-71535117D01*
X141553178Y-71518687D01*
X141392759Y-71470024D01*
X141244925Y-71391005D01*
X141244923Y-71391004D01*
X141115342Y-71284659D01*
X141008997Y-71155078D01*
X140946944Y-71038985D01*
X140929977Y-71007242D01*
X140881314Y-70846823D01*
X140869000Y-70721803D01*
X140869000Y-69838197D01*
X140881313Y-69713178D01*
X140929976Y-69552759D01*
X141008995Y-69404923D01*
X141115341Y-69275341D01*
X141244922Y-69168996D01*
X141282332Y-69149000D01*
X141392758Y-69089976D01*
X141553177Y-69041313D01*
X141720000Y-69024883D01*
X141886822Y-69041313D01*
X141886822Y-69041313D01*
G37*
G36*
X144426822Y-69041313D02*
G01*
X144587241Y-69089976D01*
X144735077Y-69168995D01*
X144864659Y-69275341D01*
X144971004Y-69404922D01*
X144971005Y-69404924D01*
X145050024Y-69552758D01*
X145098687Y-69713177D01*
X145111000Y-69838196D01*
X145111000Y-70721803D01*
X145098687Y-70846822D01*
X145050024Y-71007242D01*
X145033057Y-71038985D01*
X144971004Y-71155078D01*
X144864659Y-71284659D01*
X144735078Y-71391004D01*
X144735076Y-71391005D01*
X144587242Y-71470024D01*
X144426823Y-71518687D01*
X144260000Y-71535117D01*
X144093178Y-71518687D01*
X143932759Y-71470024D01*
X143784925Y-71391005D01*
X143784923Y-71391004D01*
X143655342Y-71284659D01*
X143548997Y-71155078D01*
X143486944Y-71038985D01*
X143469977Y-71007242D01*
X143421314Y-70846823D01*
X143409000Y-70721803D01*
X143409000Y-69838197D01*
X143421313Y-69713178D01*
X143469976Y-69552759D01*
X143548995Y-69404923D01*
X143655341Y-69275341D01*
X143784922Y-69168996D01*
X143822332Y-69149000D01*
X143932758Y-69089976D01*
X144093177Y-69041313D01*
X144260000Y-69024883D01*
X144426822Y-69041313D01*
X144426822Y-69041313D01*
G37*
G36*
X146966822Y-69041313D02*
G01*
X147127241Y-69089976D01*
X147275077Y-69168995D01*
X147404659Y-69275341D01*
X147511004Y-69404922D01*
X147511005Y-69404924D01*
X147590024Y-69552758D01*
X147638687Y-69713177D01*
X147651000Y-69838196D01*
X147651000Y-70721803D01*
X147638687Y-70846822D01*
X147590024Y-71007242D01*
X147573057Y-71038985D01*
X147511004Y-71155078D01*
X147404659Y-71284659D01*
X147275078Y-71391004D01*
X147275076Y-71391005D01*
X147127242Y-71470024D01*
X146966823Y-71518687D01*
X146800000Y-71535117D01*
X146633178Y-71518687D01*
X146472759Y-71470024D01*
X146324925Y-71391005D01*
X146324923Y-71391004D01*
X146195342Y-71284659D01*
X146088997Y-71155078D01*
X146026944Y-71038985D01*
X146009977Y-71007242D01*
X145961314Y-70846823D01*
X145949000Y-70721803D01*
X145949000Y-69838197D01*
X145961313Y-69713178D01*
X146009976Y-69552759D01*
X146088995Y-69404923D01*
X146195341Y-69275341D01*
X146324922Y-69168996D01*
X146362332Y-69149000D01*
X146472758Y-69089976D01*
X146633177Y-69041313D01*
X146800000Y-69024883D01*
X146966822Y-69041313D01*
X146966822Y-69041313D01*
G37*
G36*
X149506822Y-69041313D02*
G01*
X149667241Y-69089976D01*
X149815077Y-69168995D01*
X149944659Y-69275341D01*
X150051004Y-69404922D01*
X150051005Y-69404924D01*
X150130024Y-69552758D01*
X150178687Y-69713177D01*
X150191000Y-69838196D01*
X150191000Y-70721803D01*
X150178687Y-70846822D01*
X150130024Y-71007242D01*
X150113057Y-71038985D01*
X150051004Y-71155078D01*
X149944659Y-71284659D01*
X149815078Y-71391004D01*
X149815076Y-71391005D01*
X149667242Y-71470024D01*
X149506823Y-71518687D01*
X149340000Y-71535117D01*
X149173178Y-71518687D01*
X149012759Y-71470024D01*
X148864925Y-71391005D01*
X148864923Y-71391004D01*
X148735342Y-71284659D01*
X148628997Y-71155078D01*
X148566944Y-71038985D01*
X148549977Y-71007242D01*
X148501314Y-70846823D01*
X148489000Y-70721803D01*
X148489000Y-69838197D01*
X148501313Y-69713178D01*
X148549976Y-69552759D01*
X148628995Y-69404923D01*
X148735341Y-69275341D01*
X148864922Y-69168996D01*
X148902332Y-69149000D01*
X149012758Y-69089976D01*
X149173177Y-69041313D01*
X149340000Y-69024883D01*
X149506822Y-69041313D01*
X149506822Y-69041313D01*
G37*
G36*
X105248228Y-69281703D02*
G01*
X105403100Y-69345853D01*
X105542481Y-69438985D01*
X105661015Y-69557519D01*
X105754147Y-69696900D01*
X105818297Y-69851772D01*
X105851000Y-70016184D01*
X105851000Y-70183816D01*
X105818297Y-70348228D01*
X105754147Y-70503100D01*
X105661015Y-70642481D01*
X105542481Y-70761015D01*
X105403100Y-70854147D01*
X105248228Y-70918297D01*
X105083816Y-70951000D01*
X104916184Y-70951000D01*
X104751772Y-70918297D01*
X104596900Y-70854147D01*
X104457519Y-70761015D01*
X104338985Y-70642481D01*
X104245853Y-70503100D01*
X104181703Y-70348228D01*
X104149000Y-70183816D01*
X104149000Y-70016184D01*
X104181703Y-69851772D01*
X104245853Y-69696900D01*
X104338985Y-69557519D01*
X104457519Y-69438985D01*
X104596900Y-69345853D01*
X104751772Y-69281703D01*
X104916184Y-69249000D01*
X105083816Y-69249000D01*
X105248228Y-69281703D01*
X105248228Y-69281703D01*
G37*
G36*
X179748228Y-69181703D02*
G01*
X179903100Y-69245853D01*
X180042481Y-69338985D01*
X180161015Y-69457519D01*
X180254147Y-69596900D01*
X180318297Y-69751772D01*
X180351000Y-69916184D01*
X180351000Y-70083816D01*
X180318297Y-70248228D01*
X180254147Y-70403100D01*
X180161015Y-70542481D01*
X180042481Y-70661015D01*
X179903100Y-70754147D01*
X179748228Y-70818297D01*
X179583816Y-70851000D01*
X179416184Y-70851000D01*
X179251772Y-70818297D01*
X179096900Y-70754147D01*
X178957519Y-70661015D01*
X178838985Y-70542481D01*
X178745853Y-70403100D01*
X178681703Y-70248228D01*
X178649000Y-70083816D01*
X178649000Y-69916184D01*
X178681703Y-69751772D01*
X178745853Y-69596900D01*
X178838985Y-69457519D01*
X178957519Y-69338985D01*
X179096900Y-69245853D01*
X179251772Y-69181703D01*
X179416184Y-69149000D01*
X179583816Y-69149000D01*
X179748228Y-69181703D01*
X179748228Y-69181703D01*
G37*
G36*
X175248228Y-69181703D02*
G01*
X175403100Y-69245853D01*
X175542481Y-69338985D01*
X175661015Y-69457519D01*
X175754147Y-69596900D01*
X175818297Y-69751772D01*
X175851000Y-69916184D01*
X175851000Y-70083816D01*
X175818297Y-70248228D01*
X175754147Y-70403100D01*
X175661015Y-70542481D01*
X175542481Y-70661015D01*
X175403100Y-70754147D01*
X175248228Y-70818297D01*
X175083816Y-70851000D01*
X174916184Y-70851000D01*
X174751772Y-70818297D01*
X174596900Y-70754147D01*
X174457519Y-70661015D01*
X174338985Y-70542481D01*
X174245853Y-70403100D01*
X174181703Y-70248228D01*
X174149000Y-70083816D01*
X174149000Y-69916184D01*
X174181703Y-69751772D01*
X174245853Y-69596900D01*
X174338985Y-69457519D01*
X174457519Y-69338985D01*
X174596900Y-69245853D01*
X174751772Y-69181703D01*
X174916184Y-69149000D01*
X175083816Y-69149000D01*
X175248228Y-69181703D01*
X175248228Y-69181703D01*
G37*
G36*
X170648228Y-69181703D02*
G01*
X170803100Y-69245853D01*
X170942481Y-69338985D01*
X171061015Y-69457519D01*
X171154147Y-69596900D01*
X171218297Y-69751772D01*
X171251000Y-69916184D01*
X171251000Y-70083816D01*
X171218297Y-70248228D01*
X171154147Y-70403100D01*
X171061015Y-70542481D01*
X170942481Y-70661015D01*
X170803100Y-70754147D01*
X170648228Y-70818297D01*
X170483816Y-70851000D01*
X170316184Y-70851000D01*
X170151772Y-70818297D01*
X169996900Y-70754147D01*
X169857519Y-70661015D01*
X169738985Y-70542481D01*
X169645853Y-70403100D01*
X169581703Y-70248228D01*
X169549000Y-70083816D01*
X169549000Y-69916184D01*
X169581703Y-69751772D01*
X169645853Y-69596900D01*
X169738985Y-69457519D01*
X169857519Y-69338985D01*
X169996900Y-69245853D01*
X170151772Y-69181703D01*
X170316184Y-69149000D01*
X170483816Y-69149000D01*
X170648228Y-69181703D01*
X170648228Y-69181703D01*
G37*
G36*
X100748228Y-69181703D02*
G01*
X100903100Y-69245853D01*
X101042481Y-69338985D01*
X101161015Y-69457519D01*
X101254147Y-69596900D01*
X101318297Y-69751772D01*
X101351000Y-69916184D01*
X101351000Y-70083816D01*
X101318297Y-70248228D01*
X101254147Y-70403100D01*
X101161015Y-70542481D01*
X101042481Y-70661015D01*
X100903100Y-70754147D01*
X100748228Y-70818297D01*
X100583816Y-70851000D01*
X100416184Y-70851000D01*
X100251772Y-70818297D01*
X100096900Y-70754147D01*
X99957519Y-70661015D01*
X99838985Y-70542481D01*
X99745853Y-70403100D01*
X99681703Y-70248228D01*
X99649000Y-70083816D01*
X99649000Y-69916184D01*
X99681703Y-69751772D01*
X99745853Y-69596900D01*
X99838985Y-69457519D01*
X99957519Y-69338985D01*
X100096900Y-69245853D01*
X100251772Y-69181703D01*
X100416184Y-69149000D01*
X100583816Y-69149000D01*
X100748228Y-69181703D01*
X100748228Y-69181703D01*
G37*
G36*
X96348228Y-64881703D02*
G01*
X96503100Y-64945853D01*
X96642481Y-65038985D01*
X96761015Y-65157519D01*
X96854147Y-65296900D01*
X96918297Y-65451772D01*
X96951000Y-65616184D01*
X96951000Y-65783816D01*
X96918297Y-65948228D01*
X96854147Y-66103100D01*
X96761015Y-66242481D01*
X96642481Y-66361015D01*
X96503100Y-66454147D01*
X96348228Y-66518297D01*
X96183816Y-66551000D01*
X96016184Y-66551000D01*
X95851772Y-66518297D01*
X95696900Y-66454147D01*
X95557519Y-66361015D01*
X95438985Y-66242481D01*
X95345853Y-66103100D01*
X95281703Y-65948228D01*
X95249000Y-65783816D01*
X95249000Y-65616184D01*
X95281703Y-65451772D01*
X95345853Y-65296900D01*
X95438985Y-65157519D01*
X95557519Y-65038985D01*
X95696900Y-64945853D01*
X95851772Y-64881703D01*
X96016184Y-64849000D01*
X96183816Y-64849000D01*
X96348228Y-64881703D01*
X96348228Y-64881703D01*
G37*
G36*
X101348228Y-64881703D02*
G01*
X101503100Y-64945853D01*
X101642481Y-65038985D01*
X101761015Y-65157519D01*
X101854147Y-65296900D01*
X101918297Y-65451772D01*
X101951000Y-65616184D01*
X101951000Y-65783816D01*
X101918297Y-65948228D01*
X101854147Y-66103100D01*
X101761015Y-66242481D01*
X101642481Y-66361015D01*
X101503100Y-66454147D01*
X101348228Y-66518297D01*
X101183816Y-66551000D01*
X101016184Y-66551000D01*
X100851772Y-66518297D01*
X100696900Y-66454147D01*
X100557519Y-66361015D01*
X100438985Y-66242481D01*
X100345853Y-66103100D01*
X100281703Y-65948228D01*
X100249000Y-65783816D01*
X100249000Y-65616184D01*
X100281703Y-65451772D01*
X100345853Y-65296900D01*
X100438985Y-65157519D01*
X100557519Y-65038985D01*
X100696900Y-64945853D01*
X100851772Y-64881703D01*
X101016184Y-64849000D01*
X101183816Y-64849000D01*
X101348228Y-64881703D01*
X101348228Y-64881703D01*
G37*
G36*
X109548228Y-62481703D02*
G01*
X109703100Y-62545853D01*
X109842481Y-62638985D01*
X109961015Y-62757519D01*
X110054147Y-62896900D01*
X110118297Y-63051772D01*
X110151000Y-63216184D01*
X110151000Y-63383816D01*
X110118297Y-63548228D01*
X110054147Y-63703100D01*
X109961015Y-63842481D01*
X109842481Y-63961015D01*
X109703100Y-64054147D01*
X109548228Y-64118297D01*
X109383816Y-64151000D01*
X109216184Y-64151000D01*
X109051772Y-64118297D01*
X108896900Y-64054147D01*
X108757519Y-63961015D01*
X108638985Y-63842481D01*
X108545853Y-63703100D01*
X108481703Y-63548228D01*
X108449000Y-63383816D01*
X108449000Y-63216184D01*
X108481703Y-63051772D01*
X108545853Y-62896900D01*
X108638985Y-62757519D01*
X108757519Y-62638985D01*
X108896900Y-62545853D01*
X109051772Y-62481703D01*
X109216184Y-62449000D01*
X109383816Y-62449000D01*
X109548228Y-62481703D01*
X109548228Y-62481703D01*
G37*
G36*
X117086823Y-62461313D02*
G01*
X117247242Y-62509976D01*
X117364699Y-62572758D01*
X117395078Y-62588996D01*
X117524659Y-62695341D01*
X117631004Y-62824922D01*
X117631005Y-62824924D01*
X117710024Y-62972758D01*
X117758687Y-63133177D01*
X117775117Y-63300000D01*
X117758687Y-63466823D01*
X117732197Y-63554147D01*
X117712738Y-63618297D01*
X117710024Y-63627242D01*
X117669477Y-63703100D01*
X117631004Y-63775078D01*
X117524659Y-63904659D01*
X117395078Y-64011004D01*
X117395076Y-64011005D01*
X117247242Y-64090024D01*
X117086823Y-64138687D01*
X116961804Y-64151000D01*
X116878196Y-64151000D01*
X116753177Y-64138687D01*
X116592758Y-64090024D01*
X116444924Y-64011005D01*
X116444922Y-64011004D01*
X116315341Y-63904659D01*
X116208996Y-63775078D01*
X116170523Y-63703100D01*
X116129976Y-63627242D01*
X116127263Y-63618297D01*
X116107803Y-63554147D01*
X116081313Y-63466823D01*
X116064883Y-63300000D01*
X116081313Y-63133177D01*
X116129976Y-62972758D01*
X116208995Y-62824924D01*
X116208996Y-62824922D01*
X116315341Y-62695341D01*
X116444922Y-62588996D01*
X116475301Y-62572758D01*
X116592758Y-62509976D01*
X116753177Y-62461313D01*
X116878196Y-62449000D01*
X116961804Y-62449000D01*
X117086823Y-62461313D01*
X117086823Y-62461313D01*
G37*
G36*
X143248228Y-62081703D02*
G01*
X143403100Y-62145853D01*
X143542481Y-62238985D01*
X143661015Y-62357519D01*
X143754147Y-62496900D01*
X143818297Y-62651772D01*
X143851000Y-62816184D01*
X143851000Y-62983816D01*
X143818297Y-63148228D01*
X143754147Y-63303100D01*
X143661015Y-63442481D01*
X143542481Y-63561015D01*
X143403100Y-63654147D01*
X143248228Y-63718297D01*
X143083816Y-63751000D01*
X142916184Y-63751000D01*
X142751772Y-63718297D01*
X142596900Y-63654147D01*
X142457519Y-63561015D01*
X142338985Y-63442481D01*
X142245853Y-63303100D01*
X142181703Y-63148228D01*
X142149000Y-62983816D01*
X142149000Y-62816184D01*
X142181703Y-62651772D01*
X142245853Y-62496900D01*
X142338985Y-62357519D01*
X142457519Y-62238985D01*
X142596900Y-62145853D01*
X142751772Y-62081703D01*
X142916184Y-62049000D01*
X143083816Y-62049000D01*
X143248228Y-62081703D01*
X143248228Y-62081703D01*
G37*
G36*
X135546823Y-62061313D02*
G01*
X135707242Y-62109976D01*
X135774361Y-62145852D01*
X135855078Y-62188996D01*
X135984659Y-62295341D01*
X136091004Y-62424922D01*
X136091005Y-62424924D01*
X136170024Y-62572758D01*
X136170025Y-62572761D01*
X136174950Y-62588996D01*
X136218687Y-62733177D01*
X136235117Y-62900000D01*
X136218687Y-63066823D01*
X136170024Y-63227242D01*
X136129477Y-63303100D01*
X136091004Y-63375078D01*
X135984659Y-63504659D01*
X135855078Y-63611004D01*
X135855076Y-63611005D01*
X135707242Y-63690024D01*
X135546823Y-63738687D01*
X135421804Y-63751000D01*
X135338196Y-63751000D01*
X135213177Y-63738687D01*
X135052758Y-63690024D01*
X134904924Y-63611005D01*
X134904922Y-63611004D01*
X134775341Y-63504659D01*
X134668996Y-63375078D01*
X134630523Y-63303100D01*
X134589976Y-63227242D01*
X134541313Y-63066823D01*
X134524883Y-62900000D01*
X134541313Y-62733177D01*
X134585050Y-62588996D01*
X134589975Y-62572761D01*
X134589976Y-62572758D01*
X134668995Y-62424924D01*
X134668996Y-62424922D01*
X134775341Y-62295341D01*
X134904922Y-62188996D01*
X134985639Y-62145852D01*
X135052758Y-62109976D01*
X135213177Y-62061313D01*
X135338196Y-62049000D01*
X135421804Y-62049000D01*
X135546823Y-62061313D01*
X135546823Y-62061313D01*
G37*
G36*
X124648228Y-62081703D02*
G01*
X124803100Y-62145853D01*
X124942481Y-62238985D01*
X125061015Y-62357519D01*
X125154147Y-62496900D01*
X125218297Y-62651772D01*
X125251000Y-62816184D01*
X125251000Y-62983816D01*
X125218297Y-63148228D01*
X125154147Y-63303100D01*
X125061015Y-63442481D01*
X124942481Y-63561015D01*
X124803100Y-63654147D01*
X124648228Y-63718297D01*
X124483816Y-63751000D01*
X124316184Y-63751000D01*
X124151772Y-63718297D01*
X123996900Y-63654147D01*
X123857519Y-63561015D01*
X123738985Y-63442481D01*
X123645853Y-63303100D01*
X123581703Y-63148228D01*
X123549000Y-62983816D01*
X123549000Y-62816184D01*
X123581703Y-62651772D01*
X123645853Y-62496900D01*
X123738985Y-62357519D01*
X123857519Y-62238985D01*
X123996900Y-62145853D01*
X124151772Y-62081703D01*
X124316184Y-62049000D01*
X124483816Y-62049000D01*
X124648228Y-62081703D01*
X124648228Y-62081703D01*
G37*
G36*
X132186823Y-62061313D02*
G01*
X132347242Y-62109976D01*
X132414361Y-62145852D01*
X132495078Y-62188996D01*
X132624659Y-62295341D01*
X132731004Y-62424922D01*
X132731005Y-62424924D01*
X132810024Y-62572758D01*
X132810025Y-62572761D01*
X132814950Y-62588996D01*
X132858687Y-62733177D01*
X132875117Y-62900000D01*
X132858687Y-63066823D01*
X132810024Y-63227242D01*
X132769477Y-63303100D01*
X132731004Y-63375078D01*
X132624659Y-63504659D01*
X132495078Y-63611004D01*
X132495076Y-63611005D01*
X132347242Y-63690024D01*
X132186823Y-63738687D01*
X132061804Y-63751000D01*
X131978196Y-63751000D01*
X131853177Y-63738687D01*
X131692758Y-63690024D01*
X131544924Y-63611005D01*
X131544922Y-63611004D01*
X131415341Y-63504659D01*
X131308996Y-63375078D01*
X131270523Y-63303100D01*
X131229976Y-63227242D01*
X131181313Y-63066823D01*
X131164883Y-62900000D01*
X131181313Y-62733177D01*
X131225050Y-62588996D01*
X131229975Y-62572761D01*
X131229976Y-62572758D01*
X131308995Y-62424924D01*
X131308996Y-62424922D01*
X131415341Y-62295341D01*
X131544922Y-62188996D01*
X131625639Y-62145852D01*
X131692758Y-62109976D01*
X131853177Y-62061313D01*
X131978196Y-62049000D01*
X132061804Y-62049000D01*
X132186823Y-62061313D01*
X132186823Y-62061313D01*
G37*
G36*
X147846823Y-61961313D02*
G01*
X148007242Y-62009976D01*
X148139906Y-62080886D01*
X148155078Y-62088996D01*
X148284659Y-62195341D01*
X148391004Y-62324922D01*
X148391005Y-62324924D01*
X148470024Y-62472758D01*
X148470025Y-62472761D01*
X148472738Y-62481705D01*
X148518687Y-62633177D01*
X148535117Y-62800000D01*
X148518687Y-62966823D01*
X148470024Y-63127242D01*
X148429477Y-63203100D01*
X148391004Y-63275078D01*
X148284659Y-63404659D01*
X148155078Y-63511004D01*
X148155076Y-63511005D01*
X148007242Y-63590024D01*
X147846823Y-63638687D01*
X147721804Y-63651000D01*
X147638196Y-63651000D01*
X147513177Y-63638687D01*
X147352758Y-63590024D01*
X147204924Y-63511005D01*
X147204922Y-63511004D01*
X147075341Y-63404659D01*
X146968996Y-63275078D01*
X146930523Y-63203100D01*
X146889976Y-63127242D01*
X146841313Y-62966823D01*
X146824883Y-62800000D01*
X146841313Y-62633177D01*
X146887262Y-62481705D01*
X146889975Y-62472761D01*
X146889976Y-62472758D01*
X146968995Y-62324924D01*
X146968996Y-62324922D01*
X147075341Y-62195341D01*
X147204922Y-62088996D01*
X147220094Y-62080886D01*
X147352758Y-62009976D01*
X147513177Y-61961313D01*
X147638196Y-61949000D01*
X147721804Y-61949000D01*
X147846823Y-61961313D01*
X147846823Y-61961313D01*
G37*
G36*
X155548228Y-61981703D02*
G01*
X155703100Y-62045853D01*
X155842481Y-62138985D01*
X155961015Y-62257519D01*
X156054147Y-62396900D01*
X156118297Y-62551772D01*
X156151000Y-62716184D01*
X156151000Y-62883816D01*
X156118297Y-63048228D01*
X156054147Y-63203100D01*
X155961015Y-63342481D01*
X155842481Y-63461015D01*
X155703100Y-63554147D01*
X155548228Y-63618297D01*
X155383816Y-63651000D01*
X155216184Y-63651000D01*
X155051772Y-63618297D01*
X154896900Y-63554147D01*
X154757519Y-63461015D01*
X154638985Y-63342481D01*
X154545853Y-63203100D01*
X154481703Y-63048228D01*
X154449000Y-62883816D01*
X154449000Y-62716184D01*
X154481703Y-62551772D01*
X154545853Y-62396900D01*
X154638985Y-62257519D01*
X154757519Y-62138985D01*
X154896900Y-62045853D01*
X155051772Y-61981703D01*
X155216184Y-61949000D01*
X155383816Y-61949000D01*
X155548228Y-61981703D01*
X155548228Y-61981703D01*
G37*
G36*
X132306425Y-58062760D02*
G01*
X132306428Y-58062761D01*
X132306429Y-58062761D01*
X132485693Y-58117140D01*
X132485696Y-58117142D01*
X132485697Y-58117142D01*
X132650903Y-58205446D01*
X132795712Y-58324288D01*
X132914554Y-58469097D01*
X132982867Y-58596903D01*
X133002860Y-58634307D01*
X133057239Y-58813571D01*
X133057240Y-58813575D01*
X133075601Y-59000000D01*
X133057240Y-59186425D01*
X133057239Y-59186428D01*
X133057239Y-59186429D01*
X133002860Y-59365693D01*
X133002858Y-59365696D01*
X133002858Y-59365697D01*
X132914554Y-59530903D01*
X132795712Y-59675712D01*
X132650903Y-59794554D01*
X132545299Y-59851000D01*
X132485693Y-59882860D01*
X132306429Y-59937239D01*
X132306428Y-59937239D01*
X132306425Y-59937240D01*
X132166718Y-59951000D01*
X132073282Y-59951000D01*
X131933575Y-59937240D01*
X131933572Y-59937239D01*
X131933571Y-59937239D01*
X131754307Y-59882860D01*
X131694701Y-59851000D01*
X131589097Y-59794554D01*
X131444288Y-59675712D01*
X131325446Y-59530903D01*
X131237142Y-59365697D01*
X131237142Y-59365696D01*
X131237140Y-59365693D01*
X131182761Y-59186429D01*
X131182761Y-59186428D01*
X131182760Y-59186425D01*
X131164399Y-59000000D01*
X131182760Y-58813575D01*
X131182761Y-58813571D01*
X131237140Y-58634307D01*
X131257133Y-58596903D01*
X131325446Y-58469097D01*
X131444288Y-58324288D01*
X131589097Y-58205446D01*
X131754303Y-58117142D01*
X131754304Y-58117142D01*
X131754307Y-58117140D01*
X131933571Y-58062761D01*
X131933572Y-58062761D01*
X131933575Y-58062760D01*
X132073282Y-58049000D01*
X132166718Y-58049000D01*
X132306425Y-58062760D01*
X132306425Y-58062760D01*
G37*
G36*
X125451000Y-59951000D02*
G01*
X123549000Y-59951000D01*
X123549000Y-58049000D01*
X125451000Y-58049000D01*
X125451000Y-59951000D01*
X125451000Y-59951000D01*
G37*
G36*
X119998228Y-58181703D02*
G01*
X120153100Y-58245853D01*
X120292481Y-58338985D01*
X120411015Y-58457519D01*
X120504147Y-58596900D01*
X120568297Y-58751772D01*
X120601000Y-58916184D01*
X120601000Y-59083816D01*
X120568297Y-59248228D01*
X120504147Y-59403100D01*
X120411015Y-59542481D01*
X120292481Y-59661015D01*
X120153100Y-59754147D01*
X119998228Y-59818297D01*
X119833816Y-59851000D01*
X119666184Y-59851000D01*
X119501772Y-59818297D01*
X119346900Y-59754147D01*
X119207519Y-59661015D01*
X119088985Y-59542481D01*
X118995853Y-59403100D01*
X118931703Y-59248228D01*
X118899000Y-59083816D01*
X118899000Y-58916184D01*
X118931703Y-58751772D01*
X118995853Y-58596900D01*
X119088985Y-58457519D01*
X119207519Y-58338985D01*
X119346900Y-58245853D01*
X119501772Y-58181703D01*
X119666184Y-58149000D01*
X119833816Y-58149000D01*
X119998228Y-58181703D01*
X119998228Y-58181703D01*
G37*
G36*
X114998228Y-58181703D02*
G01*
X115153100Y-58245853D01*
X115292481Y-58338985D01*
X115411015Y-58457519D01*
X115504147Y-58596900D01*
X115568297Y-58751772D01*
X115601000Y-58916184D01*
X115601000Y-59083816D01*
X115568297Y-59248228D01*
X115504147Y-59403100D01*
X115411015Y-59542481D01*
X115292481Y-59661015D01*
X115153100Y-59754147D01*
X114998228Y-59818297D01*
X114833816Y-59851000D01*
X114666184Y-59851000D01*
X114501772Y-59818297D01*
X114346900Y-59754147D01*
X114207519Y-59661015D01*
X114088985Y-59542481D01*
X113995853Y-59403100D01*
X113931703Y-59248228D01*
X113899000Y-59083816D01*
X113899000Y-58916184D01*
X113931703Y-58751772D01*
X113995853Y-58596900D01*
X114088985Y-58457519D01*
X114207519Y-58338985D01*
X114346900Y-58245853D01*
X114501772Y-58181703D01*
X114666184Y-58149000D01*
X114833816Y-58149000D01*
X114998228Y-58181703D01*
X114998228Y-58181703D01*
G37*
G36*
X155586823Y-57561313D02*
G01*
X155747242Y-57609976D01*
X155814361Y-57645852D01*
X155895078Y-57688996D01*
X156024659Y-57795341D01*
X156131004Y-57924922D01*
X156131005Y-57924924D01*
X156210024Y-58072758D01*
X156258687Y-58233177D01*
X156275117Y-58400000D01*
X156258687Y-58566823D01*
X156210024Y-58727242D01*
X156169477Y-58803100D01*
X156131004Y-58875078D01*
X156024659Y-59004659D01*
X155895078Y-59111004D01*
X155895076Y-59111005D01*
X155747242Y-59190024D01*
X155586823Y-59238687D01*
X155461804Y-59251000D01*
X155378196Y-59251000D01*
X155253177Y-59238687D01*
X155092758Y-59190024D01*
X154944924Y-59111005D01*
X154944922Y-59111004D01*
X154815341Y-59004659D01*
X154708996Y-58875078D01*
X154670523Y-58803100D01*
X154629976Y-58727242D01*
X154581313Y-58566823D01*
X154564883Y-58400000D01*
X154581313Y-58233177D01*
X154629976Y-58072758D01*
X154708995Y-57924924D01*
X154708996Y-57924922D01*
X154815341Y-57795341D01*
X154944922Y-57688996D01*
X155025639Y-57645852D01*
X155092758Y-57609976D01*
X155253177Y-57561313D01*
X155378196Y-57549000D01*
X155461804Y-57549000D01*
X155586823Y-57561313D01*
X155586823Y-57561313D01*
G37*
G36*
X148048228Y-57581703D02*
G01*
X148203100Y-57645853D01*
X148342481Y-57738985D01*
X148461015Y-57857519D01*
X148554147Y-57996900D01*
X148618297Y-58151772D01*
X148651000Y-58316184D01*
X148651000Y-58483816D01*
X148618297Y-58648228D01*
X148554147Y-58803100D01*
X148461015Y-58942481D01*
X148342481Y-59061015D01*
X148203100Y-59154147D01*
X148048228Y-59218297D01*
X147883816Y-59251000D01*
X147716184Y-59251000D01*
X147551772Y-59218297D01*
X147396900Y-59154147D01*
X147257519Y-59061015D01*
X147138985Y-58942481D01*
X147045853Y-58803100D01*
X146981703Y-58648228D01*
X146949000Y-58483816D01*
X146949000Y-58316184D01*
X146981703Y-58151772D01*
X147045853Y-57996900D01*
X147138985Y-57857519D01*
X147257519Y-57738985D01*
X147396900Y-57645853D01*
X147551772Y-57581703D01*
X147716184Y-57549000D01*
X147883816Y-57549000D01*
X148048228Y-57581703D01*
X148048228Y-57581703D01*
G37*
G36*
X186652585Y-55578802D02*
G01*
X186802410Y-55608604D01*
X187084674Y-55725521D01*
X187338705Y-55895259D01*
X187554741Y-56111295D01*
X187724479Y-56365326D01*
X187841396Y-56647590D01*
X187901000Y-56947240D01*
X187901000Y-57252760D01*
X187841396Y-57552410D01*
X187724479Y-57834674D01*
X187554741Y-58088705D01*
X187338705Y-58304741D01*
X187084674Y-58474479D01*
X186802410Y-58591396D01*
X186774739Y-58596900D01*
X186502761Y-58651000D01*
X186197239Y-58651000D01*
X185925261Y-58596900D01*
X185897590Y-58591396D01*
X185615326Y-58474479D01*
X185361295Y-58304741D01*
X185145259Y-58088705D01*
X184975521Y-57834674D01*
X184858604Y-57552410D01*
X184799000Y-57252760D01*
X184799000Y-56947240D01*
X184858604Y-56647590D01*
X184975521Y-56365326D01*
X185145259Y-56111295D01*
X185361295Y-55895259D01*
X185615326Y-55725521D01*
X185897590Y-55608604D01*
X186047415Y-55578802D01*
X186197239Y-55549000D01*
X186502761Y-55549000D01*
X186652585Y-55578802D01*
X186652585Y-55578802D01*
G37*
G36*
X176352585Y-55578802D02*
G01*
X176502410Y-55608604D01*
X176784674Y-55725521D01*
X177038705Y-55895259D01*
X177254741Y-56111295D01*
X177424479Y-56365326D01*
X177541396Y-56647590D01*
X177601000Y-56947240D01*
X177601000Y-57252760D01*
X177541396Y-57552410D01*
X177424479Y-57834674D01*
X177254741Y-58088705D01*
X177038705Y-58304741D01*
X176784674Y-58474479D01*
X176502410Y-58591396D01*
X176474739Y-58596900D01*
X176202761Y-58651000D01*
X175897239Y-58651000D01*
X175625261Y-58596900D01*
X175597590Y-58591396D01*
X175315326Y-58474479D01*
X175061295Y-58304741D01*
X174845259Y-58088705D01*
X174675521Y-57834674D01*
X174558604Y-57552410D01*
X174499000Y-57252760D01*
X174499000Y-56947240D01*
X174558604Y-56647590D01*
X174675521Y-56365326D01*
X174845259Y-56111295D01*
X175061295Y-55895259D01*
X175315326Y-55725521D01*
X175597590Y-55608604D01*
X175747415Y-55578802D01*
X175897239Y-55549000D01*
X176202761Y-55549000D01*
X176352585Y-55578802D01*
X176352585Y-55578802D01*
G37*
G36*
X104352585Y-55078802D02*
G01*
X104502410Y-55108604D01*
X104784674Y-55225521D01*
X105038705Y-55395259D01*
X105254741Y-55611295D01*
X105424479Y-55865326D01*
X105541396Y-56147590D01*
X105541396Y-56147591D01*
X105601000Y-56447239D01*
X105601000Y-56752761D01*
X105586432Y-56826000D01*
X105541396Y-57052410D01*
X105424479Y-57334674D01*
X105254741Y-57588705D01*
X105038705Y-57804741D01*
X104784674Y-57974479D01*
X104502410Y-58091396D01*
X104372986Y-58117140D01*
X104202761Y-58151000D01*
X103897239Y-58151000D01*
X103727014Y-58117140D01*
X103597590Y-58091396D01*
X103315326Y-57974479D01*
X103061295Y-57804741D01*
X102845259Y-57588705D01*
X102675521Y-57334674D01*
X102558604Y-57052410D01*
X102513568Y-56826000D01*
X102499000Y-56752761D01*
X102499000Y-56447239D01*
X102558604Y-56147591D01*
X102558604Y-56147590D01*
X102675521Y-55865326D01*
X102845259Y-55611295D01*
X103061295Y-55395259D01*
X103315326Y-55225521D01*
X103597590Y-55108604D01*
X103747415Y-55078802D01*
X103897239Y-55049000D01*
X104202761Y-55049000D01*
X104352585Y-55078802D01*
X104352585Y-55078802D01*
G37*
G36*
X94052585Y-55078802D02*
G01*
X94202410Y-55108604D01*
X94484674Y-55225521D01*
X94738705Y-55395259D01*
X94954741Y-55611295D01*
X95124479Y-55865326D01*
X95241396Y-56147590D01*
X95241396Y-56147591D01*
X95301000Y-56447239D01*
X95301000Y-56752761D01*
X95286432Y-56826000D01*
X95241396Y-57052410D01*
X95124479Y-57334674D01*
X94954741Y-57588705D01*
X94738705Y-57804741D01*
X94484674Y-57974479D01*
X94202410Y-58091396D01*
X94072986Y-58117140D01*
X93902761Y-58151000D01*
X93597239Y-58151000D01*
X93427014Y-58117140D01*
X93297590Y-58091396D01*
X93015326Y-57974479D01*
X92761295Y-57804741D01*
X92545259Y-57588705D01*
X92375521Y-57334674D01*
X92258604Y-57052410D01*
X92213568Y-56826000D01*
X92199000Y-56752761D01*
X92199000Y-56447239D01*
X92258604Y-56147591D01*
X92258604Y-56147590D01*
X92375521Y-55865326D01*
X92545259Y-55611295D01*
X92761295Y-55395259D01*
X93015326Y-55225521D01*
X93297590Y-55108604D01*
X93447415Y-55078802D01*
X93597239Y-55049000D01*
X93902761Y-55049000D01*
X94052585Y-55078802D01*
X94052585Y-55078802D01*
G37*
G36*
X181458690Y-54199478D02*
G01*
X181586780Y-54224957D01*
X181828097Y-54324914D01*
X181831581Y-54327242D01*
X182020056Y-54453177D01*
X182045276Y-54470029D01*
X182229971Y-54654724D01*
X182375086Y-54871903D01*
X182475043Y-55113220D01*
X182526000Y-55369400D01*
X182526000Y-55630600D01*
X182475043Y-55886780D01*
X182471530Y-55895260D01*
X182375087Y-56128095D01*
X182276900Y-56275043D01*
X182229971Y-56345276D01*
X182045276Y-56529971D01*
X181828097Y-56675086D01*
X181586780Y-56775043D01*
X181458690Y-56800522D01*
X181330601Y-56826000D01*
X181069399Y-56826000D01*
X180941310Y-56800522D01*
X180813220Y-56775043D01*
X180571903Y-56675086D01*
X180354724Y-56529971D01*
X180170029Y-56345276D01*
X180123101Y-56275043D01*
X180024913Y-56128095D01*
X179928470Y-55895260D01*
X179924957Y-55886780D01*
X179874000Y-55630600D01*
X179874000Y-55369400D01*
X179924957Y-55113220D01*
X180024914Y-54871903D01*
X180170029Y-54654724D01*
X180354724Y-54470029D01*
X180379945Y-54453177D01*
X180568419Y-54327242D01*
X180571903Y-54324914D01*
X180813220Y-54224957D01*
X180941310Y-54199478D01*
X181069399Y-54174000D01*
X181330601Y-54174000D01*
X181458690Y-54199478D01*
X181458690Y-54199478D01*
G37*
G36*
X141801000Y-56801000D02*
G01*
X138199000Y-56801000D01*
X138199000Y-53199000D01*
X141801000Y-53199000D01*
X141801000Y-56801000D01*
X141801000Y-56801000D01*
G37*
G36*
X99158690Y-53699479D02*
G01*
X99286780Y-53724957D01*
X99528097Y-53824914D01*
X99540460Y-53833175D01*
X99745275Y-53970028D01*
X99929972Y-54154725D01*
X99992449Y-54248228D01*
X100075086Y-54371903D01*
X100175043Y-54613220D01*
X100200522Y-54741310D01*
X100210212Y-54790025D01*
X100226000Y-54869400D01*
X100226000Y-55130600D01*
X100175043Y-55386780D01*
X100075086Y-55628097D01*
X99929971Y-55845276D01*
X99745276Y-56029971D01*
X99528097Y-56175086D01*
X99286780Y-56275043D01*
X99158690Y-56300521D01*
X99030601Y-56326000D01*
X98769399Y-56326000D01*
X98641310Y-56300521D01*
X98513220Y-56275043D01*
X98271903Y-56175086D01*
X98054724Y-56029971D01*
X97870029Y-55845276D01*
X97724914Y-55628097D01*
X97624957Y-55386780D01*
X97574000Y-55130600D01*
X97574000Y-54869400D01*
X97589789Y-54790025D01*
X97599478Y-54741310D01*
X97624957Y-54613220D01*
X97724914Y-54371903D01*
X97807551Y-54248228D01*
X97870028Y-54154725D01*
X98054725Y-53970028D01*
X98259540Y-53833175D01*
X98271903Y-53824914D01*
X98513220Y-53724957D01*
X98641310Y-53699479D01*
X98769399Y-53674000D01*
X99030601Y-53674000D01*
X99158690Y-53699479D01*
X99158690Y-53699479D01*
G37*
G36*
X149166823Y-53781313D02*
G01*
X149327242Y-53829976D01*
X149459906Y-53900886D01*
X149475078Y-53908996D01*
X149604659Y-54015341D01*
X149711004Y-54144922D01*
X149711005Y-54144924D01*
X149790024Y-54292758D01*
X149838687Y-54453177D01*
X149855117Y-54620000D01*
X149838687Y-54786823D01*
X149790024Y-54947242D01*
X149735633Y-55049000D01*
X149711004Y-55095078D01*
X149604659Y-55224659D01*
X149475078Y-55331004D01*
X149475076Y-55331005D01*
X149327242Y-55410024D01*
X149166823Y-55458687D01*
X149041804Y-55471000D01*
X148958196Y-55471000D01*
X148833177Y-55458687D01*
X148672758Y-55410024D01*
X148524924Y-55331005D01*
X148524922Y-55331004D01*
X148395341Y-55224659D01*
X148288996Y-55095078D01*
X148264367Y-55049000D01*
X148209976Y-54947242D01*
X148161313Y-54786823D01*
X148144883Y-54620000D01*
X148161313Y-54453177D01*
X148209976Y-54292758D01*
X148288995Y-54144924D01*
X148288996Y-54144922D01*
X148395341Y-54015341D01*
X148524922Y-53908996D01*
X148540094Y-53900886D01*
X148672758Y-53829976D01*
X148833177Y-53781313D01*
X148958196Y-53769000D01*
X149041804Y-53769000D01*
X149166823Y-53781313D01*
X149166823Y-53781313D01*
G37*
G36*
X171166823Y-53781313D02*
G01*
X171327242Y-53829976D01*
X171459906Y-53900886D01*
X171475078Y-53908996D01*
X171604659Y-54015341D01*
X171711004Y-54144922D01*
X171711005Y-54144924D01*
X171790024Y-54292758D01*
X171838687Y-54453177D01*
X171855117Y-54620000D01*
X171838687Y-54786823D01*
X171790024Y-54947242D01*
X171735633Y-55049000D01*
X171711004Y-55095078D01*
X171604659Y-55224659D01*
X171475078Y-55331004D01*
X171475076Y-55331005D01*
X171327242Y-55410024D01*
X171166823Y-55458687D01*
X171041804Y-55471000D01*
X170958196Y-55471000D01*
X170833177Y-55458687D01*
X170672758Y-55410024D01*
X170524924Y-55331005D01*
X170524922Y-55331004D01*
X170395341Y-55224659D01*
X170288996Y-55095078D01*
X170264367Y-55049000D01*
X170209976Y-54947242D01*
X170161313Y-54786823D01*
X170144883Y-54620000D01*
X170161313Y-54453177D01*
X170209976Y-54292758D01*
X170288995Y-54144924D01*
X170288996Y-54144922D01*
X170395341Y-54015341D01*
X170524922Y-53908996D01*
X170540094Y-53900886D01*
X170672758Y-53829976D01*
X170833177Y-53781313D01*
X170958196Y-53769000D01*
X171041804Y-53769000D01*
X171166823Y-53781313D01*
X171166823Y-53781313D01*
G37*
G36*
X154166823Y-53781313D02*
G01*
X154327242Y-53829976D01*
X154459906Y-53900886D01*
X154475078Y-53908996D01*
X154604659Y-54015341D01*
X154711004Y-54144922D01*
X154711005Y-54144924D01*
X154790024Y-54292758D01*
X154838687Y-54453177D01*
X154855117Y-54620000D01*
X154838687Y-54786823D01*
X154790024Y-54947242D01*
X154735633Y-55049000D01*
X154711004Y-55095078D01*
X154604659Y-55224659D01*
X154475078Y-55331004D01*
X154475076Y-55331005D01*
X154327242Y-55410024D01*
X154166823Y-55458687D01*
X154041804Y-55471000D01*
X153958196Y-55471000D01*
X153833177Y-55458687D01*
X153672758Y-55410024D01*
X153524924Y-55331005D01*
X153524922Y-55331004D01*
X153395341Y-55224659D01*
X153288996Y-55095078D01*
X153264367Y-55049000D01*
X153209976Y-54947242D01*
X153161313Y-54786823D01*
X153144883Y-54620000D01*
X153161313Y-54453177D01*
X153209976Y-54292758D01*
X153288995Y-54144924D01*
X153288996Y-54144922D01*
X153395341Y-54015341D01*
X153524922Y-53908996D01*
X153540094Y-53900886D01*
X153672758Y-53829976D01*
X153833177Y-53781313D01*
X153958196Y-53769000D01*
X154041804Y-53769000D01*
X154166823Y-53781313D01*
X154166823Y-53781313D01*
G37*
G36*
X109166823Y-53781313D02*
G01*
X109327242Y-53829976D01*
X109459906Y-53900886D01*
X109475078Y-53908996D01*
X109604659Y-54015341D01*
X109711004Y-54144922D01*
X109711005Y-54144924D01*
X109790024Y-54292758D01*
X109838687Y-54453177D01*
X109855117Y-54620000D01*
X109838687Y-54786823D01*
X109790024Y-54947242D01*
X109735633Y-55049000D01*
X109711004Y-55095078D01*
X109604659Y-55224659D01*
X109475078Y-55331004D01*
X109475076Y-55331005D01*
X109327242Y-55410024D01*
X109166823Y-55458687D01*
X109041804Y-55471000D01*
X108958196Y-55471000D01*
X108833177Y-55458687D01*
X108672758Y-55410024D01*
X108524924Y-55331005D01*
X108524922Y-55331004D01*
X108395341Y-55224659D01*
X108288996Y-55095078D01*
X108264367Y-55049000D01*
X108209976Y-54947242D01*
X108161313Y-54786823D01*
X108144883Y-54620000D01*
X108161313Y-54453177D01*
X108209976Y-54292758D01*
X108288995Y-54144924D01*
X108288996Y-54144922D01*
X108395341Y-54015341D01*
X108524922Y-53908996D01*
X108540094Y-53900886D01*
X108672758Y-53829976D01*
X108833177Y-53781313D01*
X108958196Y-53769000D01*
X109041804Y-53769000D01*
X109166823Y-53781313D01*
X109166823Y-53781313D01*
G37*
G36*
X114166823Y-53781313D02*
G01*
X114327242Y-53829976D01*
X114459906Y-53900886D01*
X114475078Y-53908996D01*
X114604659Y-54015341D01*
X114711004Y-54144922D01*
X114711005Y-54144924D01*
X114790024Y-54292758D01*
X114838687Y-54453177D01*
X114855117Y-54620000D01*
X114838687Y-54786823D01*
X114790024Y-54947242D01*
X114735633Y-55049000D01*
X114711004Y-55095078D01*
X114604659Y-55224659D01*
X114475078Y-55331004D01*
X114475076Y-55331005D01*
X114327242Y-55410024D01*
X114166823Y-55458687D01*
X114041804Y-55471000D01*
X113958196Y-55471000D01*
X113833177Y-55458687D01*
X113672758Y-55410024D01*
X113524924Y-55331005D01*
X113524922Y-55331004D01*
X113395341Y-55224659D01*
X113288996Y-55095078D01*
X113264367Y-55049000D01*
X113209976Y-54947242D01*
X113161313Y-54786823D01*
X113144883Y-54620000D01*
X113161313Y-54453177D01*
X113209976Y-54292758D01*
X113288995Y-54144924D01*
X113288996Y-54144922D01*
X113395341Y-54015341D01*
X113524922Y-53908996D01*
X113540094Y-53900886D01*
X113672758Y-53829976D01*
X113833177Y-53781313D01*
X113958196Y-53769000D01*
X114041804Y-53769000D01*
X114166823Y-53781313D01*
X114166823Y-53781313D01*
G37*
G36*
X119416823Y-53781313D02*
G01*
X119577242Y-53829976D01*
X119709906Y-53900886D01*
X119725078Y-53908996D01*
X119854659Y-54015341D01*
X119961004Y-54144922D01*
X119961005Y-54144924D01*
X120040024Y-54292758D01*
X120088687Y-54453177D01*
X120105117Y-54620000D01*
X120088687Y-54786823D01*
X120040024Y-54947242D01*
X119985633Y-55049000D01*
X119961004Y-55095078D01*
X119854659Y-55224659D01*
X119725078Y-55331004D01*
X119725076Y-55331005D01*
X119577242Y-55410024D01*
X119416823Y-55458687D01*
X119291804Y-55471000D01*
X119208196Y-55471000D01*
X119083177Y-55458687D01*
X118922758Y-55410024D01*
X118774924Y-55331005D01*
X118774922Y-55331004D01*
X118645341Y-55224659D01*
X118538996Y-55095078D01*
X118514367Y-55049000D01*
X118459976Y-54947242D01*
X118411313Y-54786823D01*
X118394883Y-54620000D01*
X118411313Y-54453177D01*
X118459976Y-54292758D01*
X118538995Y-54144924D01*
X118538996Y-54144922D01*
X118645341Y-54015341D01*
X118774922Y-53908996D01*
X118790094Y-53900886D01*
X118922758Y-53829976D01*
X119083177Y-53781313D01*
X119208196Y-53769000D01*
X119291804Y-53769000D01*
X119416823Y-53781313D01*
X119416823Y-53781313D01*
G37*
G36*
X168248228Y-53181703D02*
G01*
X168403100Y-53245853D01*
X168542481Y-53338985D01*
X168661015Y-53457519D01*
X168754147Y-53596900D01*
X168818297Y-53751772D01*
X168851000Y-53916184D01*
X168851000Y-54083816D01*
X168818297Y-54248228D01*
X168754147Y-54403100D01*
X168661015Y-54542481D01*
X168542481Y-54661015D01*
X168403100Y-54754147D01*
X168248228Y-54818297D01*
X168083816Y-54851000D01*
X167916184Y-54851000D01*
X167751772Y-54818297D01*
X167596900Y-54754147D01*
X167457519Y-54661015D01*
X167338985Y-54542481D01*
X167245853Y-54403100D01*
X167181703Y-54248228D01*
X167149000Y-54083816D01*
X167149000Y-53916184D01*
X167181703Y-53751772D01*
X167245853Y-53596900D01*
X167338985Y-53457519D01*
X167457519Y-53338985D01*
X167596900Y-53245853D01*
X167751772Y-53181703D01*
X167916184Y-53149000D01*
X168083816Y-53149000D01*
X168248228Y-53181703D01*
X168248228Y-53181703D01*
G37*
G36*
X160546823Y-53161313D02*
G01*
X160707242Y-53209976D01*
X160774361Y-53245852D01*
X160855078Y-53288996D01*
X160984659Y-53395341D01*
X161091004Y-53524922D01*
X161091005Y-53524924D01*
X161170024Y-53672758D01*
X161218687Y-53833177D01*
X161235117Y-54000000D01*
X161218687Y-54166823D01*
X161170024Y-54327242D01*
X161129477Y-54403100D01*
X161091004Y-54475078D01*
X160984659Y-54604659D01*
X160855078Y-54711004D01*
X160855076Y-54711005D01*
X160707242Y-54790024D01*
X160546823Y-54838687D01*
X160421804Y-54851000D01*
X160338196Y-54851000D01*
X160213177Y-54838687D01*
X160052758Y-54790024D01*
X159904924Y-54711005D01*
X159904922Y-54711004D01*
X159775341Y-54604659D01*
X159668996Y-54475078D01*
X159630523Y-54403100D01*
X159589976Y-54327242D01*
X159541313Y-54166823D01*
X159524883Y-54000000D01*
X159541313Y-53833177D01*
X159589976Y-53672758D01*
X159668995Y-53524924D01*
X159668996Y-53524922D01*
X159775341Y-53395341D01*
X159904922Y-53288996D01*
X159985639Y-53245852D01*
X160052758Y-53209976D01*
X160213177Y-53161313D01*
X160338196Y-53149000D01*
X160421804Y-53149000D01*
X160546823Y-53161313D01*
X160546823Y-53161313D01*
G37*
G36*
X136426366Y-50215695D02*
G01*
X136583460Y-50263349D01*
X136728231Y-50340731D01*
X136855128Y-50444872D01*
X136959269Y-50571769D01*
X137036651Y-50716540D01*
X137084305Y-50873634D01*
X137101000Y-51043140D01*
X137101000Y-52956860D01*
X137084305Y-53126366D01*
X137036651Y-53283460D01*
X136959269Y-53428231D01*
X136855128Y-53555128D01*
X136728231Y-53659269D01*
X136583460Y-53736651D01*
X136426366Y-53784305D01*
X136256860Y-53801000D01*
X134343140Y-53801000D01*
X134173634Y-53784305D01*
X134016540Y-53736651D01*
X133871769Y-53659269D01*
X133744872Y-53555128D01*
X133640731Y-53428231D01*
X133563349Y-53283460D01*
X133515695Y-53126366D01*
X133499000Y-52956860D01*
X133499000Y-51043140D01*
X133515695Y-50873634D01*
X133563349Y-50716540D01*
X133640731Y-50571769D01*
X133744872Y-50444872D01*
X133871769Y-50340731D01*
X134016540Y-50263349D01*
X134173634Y-50215695D01*
X134343140Y-50199000D01*
X136256860Y-50199000D01*
X136426366Y-50215695D01*
X136426366Y-50215695D01*
G37*
G36*
X129949315Y-50454166D02*
G01*
X129993843Y-50467674D01*
X130034892Y-50489615D01*
X130070864Y-50519136D01*
X130100385Y-50555108D01*
X130122326Y-50596157D01*
X130135834Y-50640685D01*
X130141000Y-50693140D01*
X130141000Y-52106860D01*
X130135834Y-52159315D01*
X130122326Y-52203843D01*
X130100385Y-52244892D01*
X130070864Y-52280864D01*
X130034892Y-52310385D01*
X129993843Y-52332326D01*
X129949315Y-52345834D01*
X129896860Y-52351000D01*
X129183140Y-52351000D01*
X129130685Y-52345834D01*
X129086157Y-52332326D01*
X129045108Y-52310385D01*
X129009136Y-52280864D01*
X128979615Y-52244892D01*
X128957674Y-52203843D01*
X128944166Y-52159315D01*
X128939000Y-52106860D01*
X128939000Y-50693140D01*
X128944166Y-50640685D01*
X128957674Y-50596157D01*
X128979615Y-50555108D01*
X129009136Y-50519136D01*
X129045108Y-50489615D01*
X129086157Y-50467674D01*
X129130685Y-50454166D01*
X129183140Y-50449000D01*
X129896860Y-50449000D01*
X129949315Y-50454166D01*
X129949315Y-50454166D01*
G37*
G36*
X127601000Y-52351000D02*
G01*
X126399000Y-52351000D01*
X126399000Y-50449000D01*
X127601000Y-50449000D01*
X127601000Y-52351000D01*
X127601000Y-52351000D01*
G37*
G36*
X141226979Y-47463293D02*
G01*
X141360625Y-47503834D01*
X141483784Y-47569664D01*
X141591740Y-47658260D01*
X141680336Y-47766216D01*
X141746166Y-47889375D01*
X141786707Y-48023021D01*
X141801000Y-48168140D01*
X141801000Y-49831860D01*
X141786707Y-49976979D01*
X141746166Y-50110625D01*
X141680336Y-50233784D01*
X141591740Y-50341740D01*
X141483784Y-50430336D01*
X141360625Y-50496166D01*
X141226979Y-50536707D01*
X141081860Y-50551000D01*
X138918140Y-50551000D01*
X138773021Y-50536707D01*
X138639375Y-50496166D01*
X138516216Y-50430336D01*
X138408260Y-50341740D01*
X138319664Y-50233784D01*
X138253834Y-50110625D01*
X138213293Y-49976979D01*
X138199000Y-49831860D01*
X138199000Y-48168140D01*
X138213293Y-48023021D01*
X138253834Y-47889375D01*
X138319664Y-47766216D01*
X138408260Y-47658260D01*
X138516216Y-47569664D01*
X138639375Y-47503834D01*
X138773021Y-47463293D01*
X138918140Y-47449000D01*
X141081860Y-47449000D01*
X141226979Y-47463293D01*
X141226979Y-47463293D01*
G37*
G36*
X166949315Y-48454166D02*
G01*
X166993843Y-48467674D01*
X167034892Y-48489615D01*
X167070864Y-48519136D01*
X167100385Y-48555108D01*
X167122326Y-48596157D01*
X167135834Y-48640685D01*
X167141000Y-48693140D01*
X167141000Y-50106860D01*
X167135834Y-50159315D01*
X167122326Y-50203843D01*
X167100385Y-50244892D01*
X167070864Y-50280864D01*
X167034892Y-50310385D01*
X166993843Y-50332326D01*
X166949315Y-50345834D01*
X166896860Y-50351000D01*
X166183140Y-50351000D01*
X166130685Y-50345834D01*
X166086157Y-50332326D01*
X166045108Y-50310385D01*
X166009136Y-50280864D01*
X165979615Y-50244892D01*
X165957674Y-50203843D01*
X165944166Y-50159315D01*
X165939000Y-50106860D01*
X165939000Y-48693140D01*
X165944166Y-48640685D01*
X165957674Y-48596157D01*
X165979615Y-48555108D01*
X166009136Y-48519136D01*
X166045108Y-48489615D01*
X166086157Y-48467674D01*
X166130685Y-48454166D01*
X166183140Y-48449000D01*
X166896860Y-48449000D01*
X166949315Y-48454166D01*
X166949315Y-48454166D01*
G37*
G36*
X164601000Y-50351000D02*
G01*
X163399000Y-50351000D01*
X163399000Y-48449000D01*
X164601000Y-48449000D01*
X164601000Y-50351000D01*
X164601000Y-50351000D01*
G37*
G36*
X128679315Y-48384166D02*
G01*
X128723843Y-48397674D01*
X128764892Y-48419615D01*
X128800864Y-48449136D01*
X128830385Y-48485108D01*
X128852326Y-48526157D01*
X128865834Y-48570685D01*
X128871000Y-48623140D01*
X128871000Y-50036860D01*
X128865834Y-50089315D01*
X128852326Y-50133843D01*
X128830385Y-50174892D01*
X128800864Y-50210864D01*
X128764892Y-50240385D01*
X128723843Y-50262326D01*
X128679315Y-50275834D01*
X128626860Y-50281000D01*
X127913140Y-50281000D01*
X127860685Y-50275834D01*
X127816153Y-50262325D01*
X127784923Y-50245632D01*
X127770320Y-50239583D01*
X127759256Y-50227376D01*
X127739136Y-50210864D01*
X127709615Y-50174892D01*
X127687674Y-50133843D01*
X127674166Y-50089315D01*
X127669000Y-50036860D01*
X127669000Y-48623140D01*
X127674166Y-48570685D01*
X127687674Y-48526157D01*
X127709615Y-48485108D01*
X127739136Y-48449136D01*
X127775108Y-48419615D01*
X127816157Y-48397674D01*
X127860685Y-48384166D01*
X127913140Y-48379000D01*
X128626860Y-48379000D01*
X128679315Y-48384166D01*
X128679315Y-48384166D01*
G37*
G36*
X186875256Y-46991298D02*
G01*
X186981579Y-47012447D01*
X187282042Y-47136903D01*
X187552451Y-47317585D01*
X187782415Y-47547549D01*
X187920460Y-47754148D01*
X187963098Y-47817960D01*
X187992679Y-47889375D01*
X188087553Y-48118421D01*
X188093327Y-48147449D01*
X188147465Y-48419615D01*
X188151000Y-48437391D01*
X188151000Y-48762609D01*
X188087553Y-49081579D01*
X187963097Y-49382042D01*
X187782415Y-49652451D01*
X187552451Y-49882415D01*
X187282042Y-50063097D01*
X186981579Y-50187553D01*
X186887105Y-50206345D01*
X186662611Y-50251000D01*
X186337389Y-50251000D01*
X186112895Y-50206345D01*
X186018421Y-50187553D01*
X185717958Y-50063097D01*
X185447549Y-49882415D01*
X185217585Y-49652451D01*
X185036903Y-49382042D01*
X184912447Y-49081579D01*
X184849000Y-48762609D01*
X184849000Y-48437391D01*
X184852536Y-48419615D01*
X184906673Y-48147449D01*
X184912447Y-48118421D01*
X185007321Y-47889375D01*
X185036902Y-47817960D01*
X185079540Y-47754148D01*
X185217585Y-47547549D01*
X185447549Y-47317585D01*
X185717958Y-47136903D01*
X186018421Y-47012447D01*
X186124744Y-46991298D01*
X186337389Y-46949000D01*
X186662611Y-46949000D01*
X186875256Y-46991298D01*
X186875256Y-46991298D01*
G37*
G36*
X93875256Y-46891298D02*
G01*
X93981579Y-46912447D01*
X94282042Y-47036903D01*
X94552451Y-47217585D01*
X94782415Y-47447549D01*
X94935154Y-47676139D01*
X94963098Y-47717960D01*
X94983086Y-47766216D01*
X95071846Y-47980500D01*
X95087553Y-48018422D01*
X95151000Y-48337389D01*
X95151000Y-48662611D01*
X95108702Y-48875256D01*
X95087553Y-48981579D01*
X94963097Y-49282042D01*
X94782415Y-49552451D01*
X94552451Y-49782415D01*
X94282042Y-49963097D01*
X94282041Y-49963098D01*
X94282040Y-49963098D01*
X94194037Y-49999550D01*
X93981579Y-50087553D01*
X93884516Y-50106860D01*
X93662611Y-50151000D01*
X93337389Y-50151000D01*
X93115484Y-50106860D01*
X93018421Y-50087553D01*
X92805963Y-49999550D01*
X92717960Y-49963098D01*
X92717959Y-49963098D01*
X92717958Y-49963097D01*
X92447549Y-49782415D01*
X92217585Y-49552451D01*
X92036903Y-49282042D01*
X91912447Y-48981579D01*
X91891298Y-48875256D01*
X91849000Y-48662611D01*
X91849000Y-48337389D01*
X91912447Y-48018422D01*
X91928155Y-47980500D01*
X92016914Y-47766216D01*
X92036902Y-47717960D01*
X92064846Y-47676139D01*
X92217585Y-47447549D01*
X92447549Y-47217585D01*
X92717958Y-47036903D01*
X93018421Y-46912447D01*
X93124744Y-46891298D01*
X93337389Y-46849000D01*
X93662611Y-46849000D01*
X93875256Y-46891298D01*
X93875256Y-46891298D01*
G37*
G36*
X165679315Y-46384166D02*
G01*
X165723843Y-46397674D01*
X165764892Y-46419615D01*
X165800864Y-46449136D01*
X165830385Y-46485108D01*
X165852326Y-46526157D01*
X165865834Y-46570685D01*
X165871000Y-46623140D01*
X165871000Y-48036860D01*
X165865834Y-48089315D01*
X165852326Y-48133843D01*
X165830385Y-48174892D01*
X165800864Y-48210864D01*
X165764892Y-48240385D01*
X165723843Y-48262326D01*
X165679315Y-48275834D01*
X165626860Y-48281000D01*
X164913140Y-48281000D01*
X164860685Y-48275834D01*
X164816153Y-48262325D01*
X164784923Y-48245632D01*
X164770320Y-48239583D01*
X164759256Y-48227376D01*
X164739136Y-48210864D01*
X164709615Y-48174892D01*
X164687674Y-48133843D01*
X164674166Y-48089315D01*
X164669000Y-48036860D01*
X164669000Y-46623140D01*
X164674166Y-46570685D01*
X164687674Y-46526157D01*
X164709615Y-46485108D01*
X164739136Y-46449136D01*
X164775108Y-46419615D01*
X164816157Y-46397674D01*
X164860685Y-46384166D01*
X164913140Y-46379000D01*
X165626860Y-46379000D01*
X165679315Y-46384166D01*
X165679315Y-46384166D01*
G37*
G36*
X119498228Y-46181703D02*
G01*
X119653100Y-46245853D01*
X119792481Y-46338985D01*
X119911015Y-46457519D01*
X120004147Y-46596900D01*
X120068297Y-46751772D01*
X120101000Y-46916184D01*
X120101000Y-47083816D01*
X120068297Y-47248228D01*
X120004147Y-47403100D01*
X119911015Y-47542481D01*
X119792481Y-47661015D01*
X119653100Y-47754147D01*
X119498228Y-47818297D01*
X119333816Y-47851000D01*
X119166184Y-47851000D01*
X119001772Y-47818297D01*
X118846900Y-47754147D01*
X118707519Y-47661015D01*
X118588985Y-47542481D01*
X118495853Y-47403100D01*
X118431703Y-47248228D01*
X118399000Y-47083816D01*
X118399000Y-46916184D01*
X118431703Y-46751772D01*
X118495853Y-46596900D01*
X118588985Y-46457519D01*
X118707519Y-46338985D01*
X118846900Y-46245853D01*
X119001772Y-46181703D01*
X119166184Y-46149000D01*
X119333816Y-46149000D01*
X119498228Y-46181703D01*
X119498228Y-46181703D01*
G37*
G36*
X171248228Y-46181703D02*
G01*
X171403100Y-46245853D01*
X171542481Y-46338985D01*
X171661015Y-46457519D01*
X171754147Y-46596900D01*
X171818297Y-46751772D01*
X171851000Y-46916184D01*
X171851000Y-47083816D01*
X171818297Y-47248228D01*
X171754147Y-47403100D01*
X171661015Y-47542481D01*
X171542481Y-47661015D01*
X171403100Y-47754147D01*
X171248228Y-47818297D01*
X171083816Y-47851000D01*
X170916184Y-47851000D01*
X170751772Y-47818297D01*
X170596900Y-47754147D01*
X170457519Y-47661015D01*
X170338985Y-47542481D01*
X170245853Y-47403100D01*
X170181703Y-47248228D01*
X170149000Y-47083816D01*
X170149000Y-46916184D01*
X170181703Y-46751772D01*
X170245853Y-46596900D01*
X170338985Y-46457519D01*
X170457519Y-46338985D01*
X170596900Y-46245853D01*
X170751772Y-46181703D01*
X170916184Y-46149000D01*
X171083816Y-46149000D01*
X171248228Y-46181703D01*
X171248228Y-46181703D01*
G37*
G36*
X114248228Y-46181703D02*
G01*
X114403100Y-46245853D01*
X114542481Y-46338985D01*
X114661015Y-46457519D01*
X114754147Y-46596900D01*
X114818297Y-46751772D01*
X114851000Y-46916184D01*
X114851000Y-47083816D01*
X114818297Y-47248228D01*
X114754147Y-47403100D01*
X114661015Y-47542481D01*
X114542481Y-47661015D01*
X114403100Y-47754147D01*
X114248228Y-47818297D01*
X114083816Y-47851000D01*
X113916184Y-47851000D01*
X113751772Y-47818297D01*
X113596900Y-47754147D01*
X113457519Y-47661015D01*
X113338985Y-47542481D01*
X113245853Y-47403100D01*
X113181703Y-47248228D01*
X113149000Y-47083816D01*
X113149000Y-46916184D01*
X113181703Y-46751772D01*
X113245853Y-46596900D01*
X113338985Y-46457519D01*
X113457519Y-46338985D01*
X113596900Y-46245853D01*
X113751772Y-46181703D01*
X113916184Y-46149000D01*
X114083816Y-46149000D01*
X114248228Y-46181703D01*
X114248228Y-46181703D01*
G37*
G36*
X109248228Y-46181703D02*
G01*
X109403100Y-46245853D01*
X109542481Y-46338985D01*
X109661015Y-46457519D01*
X109754147Y-46596900D01*
X109818297Y-46751772D01*
X109851000Y-46916184D01*
X109851000Y-47083816D01*
X109818297Y-47248228D01*
X109754147Y-47403100D01*
X109661015Y-47542481D01*
X109542481Y-47661015D01*
X109403100Y-47754147D01*
X109248228Y-47818297D01*
X109083816Y-47851000D01*
X108916184Y-47851000D01*
X108751772Y-47818297D01*
X108596900Y-47754147D01*
X108457519Y-47661015D01*
X108338985Y-47542481D01*
X108245853Y-47403100D01*
X108181703Y-47248228D01*
X108149000Y-47083816D01*
X108149000Y-46916184D01*
X108181703Y-46751772D01*
X108245853Y-46596900D01*
X108338985Y-46457519D01*
X108457519Y-46338985D01*
X108596900Y-46245853D01*
X108751772Y-46181703D01*
X108916184Y-46149000D01*
X109083816Y-46149000D01*
X109248228Y-46181703D01*
X109248228Y-46181703D01*
G37*
G36*
X154248228Y-46181703D02*
G01*
X154403100Y-46245853D01*
X154542481Y-46338985D01*
X154661015Y-46457519D01*
X154754147Y-46596900D01*
X154818297Y-46751772D01*
X154851000Y-46916184D01*
X154851000Y-47083816D01*
X154818297Y-47248228D01*
X154754147Y-47403100D01*
X154661015Y-47542481D01*
X154542481Y-47661015D01*
X154403100Y-47754147D01*
X154248228Y-47818297D01*
X154083816Y-47851000D01*
X153916184Y-47851000D01*
X153751772Y-47818297D01*
X153596900Y-47754147D01*
X153457519Y-47661015D01*
X153338985Y-47542481D01*
X153245853Y-47403100D01*
X153181703Y-47248228D01*
X153149000Y-47083816D01*
X153149000Y-46916184D01*
X153181703Y-46751772D01*
X153245853Y-46596900D01*
X153338985Y-46457519D01*
X153457519Y-46338985D01*
X153596900Y-46245853D01*
X153751772Y-46181703D01*
X153916184Y-46149000D01*
X154083816Y-46149000D01*
X154248228Y-46181703D01*
X154248228Y-46181703D01*
G37*
G36*
X149248228Y-46181703D02*
G01*
X149403100Y-46245853D01*
X149542481Y-46338985D01*
X149661015Y-46457519D01*
X149754147Y-46596900D01*
X149818297Y-46751772D01*
X149851000Y-46916184D01*
X149851000Y-47083816D01*
X149818297Y-47248228D01*
X149754147Y-47403100D01*
X149661015Y-47542481D01*
X149542481Y-47661015D01*
X149403100Y-47754147D01*
X149248228Y-47818297D01*
X149083816Y-47851000D01*
X148916184Y-47851000D01*
X148751772Y-47818297D01*
X148596900Y-47754147D01*
X148457519Y-47661015D01*
X148338985Y-47542481D01*
X148245853Y-47403100D01*
X148181703Y-47248228D01*
X148149000Y-47083816D01*
X148149000Y-46916184D01*
X148181703Y-46751772D01*
X148245853Y-46596900D01*
X148338985Y-46457519D01*
X148457519Y-46338985D01*
X148596900Y-46245853D01*
X148751772Y-46181703D01*
X148916184Y-46149000D01*
X149083816Y-46149000D01*
X149248228Y-46181703D01*
X149248228Y-46181703D01*
G37*
M02*
