G04 #@! TF.GenerationSoftware,KiCad,Pcbnew,(5.1.4-0-10_14)*
G04 #@! TF.CreationDate,2021-06-29T12:17:26+12:00*
G04 #@! TF.ProjectId,two_comparator_effect,74776f5f-636f-46d7-9061-7261746f725f,rev?*
G04 #@! TF.SameCoordinates,Original*
G04 #@! TF.FileFunction,Legend,Top*
G04 #@! TF.FilePolarity,Positive*
%FSLAX46Y46*%
G04 Gerber Fmt 4.6, Leading zero omitted, Abs format (unit mm)*
G04 Created by KiCad (PCBNEW (5.1.4-0-10_14)) date 2021-06-29 12:17:26*
%MOMM*%
%LPD*%
G04 APERTURE LIST*
%ADD10C,0.120000*%
%ADD11C,0.250000*%
%ADD12C,0.150000*%
%ADD13C,0.350000*%
%ADD14C,0.400000*%
%ADD15C,0.127000*%
G04 APERTURE END LIST*
D10*
X135000000Y-68250000D02*
X128900000Y-68300000D01*
X144500000Y-68250000D02*
X151200000Y-68250000D01*
D11*
X136178571Y-67904761D02*
X135988095Y-67809523D01*
X135892857Y-67619047D01*
X135892857Y-65904761D01*
X137702380Y-67809523D02*
X137511904Y-67904761D01*
X137130952Y-67904761D01*
X136940476Y-67809523D01*
X136845238Y-67619047D01*
X136845238Y-66857142D01*
X136940476Y-66666666D01*
X137130952Y-66571428D01*
X137511904Y-66571428D01*
X137702380Y-66666666D01*
X137797619Y-66857142D01*
X137797619Y-67047619D01*
X136845238Y-67238095D01*
X138464285Y-66571428D02*
X138940476Y-67904761D01*
X139416666Y-66571428D01*
X140940476Y-67809523D02*
X140750000Y-67904761D01*
X140369047Y-67904761D01*
X140178571Y-67809523D01*
X140083333Y-67619047D01*
X140083333Y-66857142D01*
X140178571Y-66666666D01*
X140369047Y-66571428D01*
X140750000Y-66571428D01*
X140940476Y-66666666D01*
X141035714Y-66857142D01*
X141035714Y-67047619D01*
X140083333Y-67238095D01*
X142178571Y-67904761D02*
X141988095Y-67809523D01*
X141892857Y-67619047D01*
X141892857Y-65904761D01*
X142845238Y-67809523D02*
X143035714Y-67904761D01*
X143416666Y-67904761D01*
X143607142Y-67809523D01*
X143702380Y-67619047D01*
X143702380Y-67523809D01*
X143607142Y-67333333D01*
X143416666Y-67238095D01*
X143130952Y-67238095D01*
X142940476Y-67142857D01*
X142845238Y-66952380D01*
X142845238Y-66857142D01*
X142940476Y-66666666D01*
X143130952Y-66571428D01*
X143416666Y-66571428D01*
X143607142Y-66666666D01*
D12*
X156992738Y-59410714D02*
X157373690Y-59410714D01*
X157135595Y-59077380D02*
X157135595Y-59934523D01*
X157183214Y-60029761D01*
X157278452Y-60077380D01*
X157373690Y-60077380D01*
X157611785Y-59410714D02*
X157802261Y-60077380D01*
X157992738Y-59601190D01*
X158183214Y-60077380D01*
X158373690Y-59410714D01*
X158897500Y-60077380D02*
X158802261Y-60029761D01*
X158754642Y-59982142D01*
X158707023Y-59886904D01*
X158707023Y-59601190D01*
X158754642Y-59505952D01*
X158802261Y-59458333D01*
X158897500Y-59410714D01*
X159040357Y-59410714D01*
X159135595Y-59458333D01*
X159183214Y-59505952D01*
X159230833Y-59601190D01*
X159230833Y-59886904D01*
X159183214Y-59982142D01*
X159135595Y-60029761D01*
X159040357Y-60077380D01*
X158897500Y-60077380D01*
X159421309Y-60172619D02*
X160183214Y-60172619D01*
X160849880Y-60029761D02*
X160754642Y-60077380D01*
X160564166Y-60077380D01*
X160468928Y-60029761D01*
X160421309Y-59982142D01*
X160373690Y-59886904D01*
X160373690Y-59601190D01*
X160421309Y-59505952D01*
X160468928Y-59458333D01*
X160564166Y-59410714D01*
X160754642Y-59410714D01*
X160849880Y-59458333D01*
X161421309Y-60077380D02*
X161326071Y-60029761D01*
X161278452Y-59982142D01*
X161230833Y-59886904D01*
X161230833Y-59601190D01*
X161278452Y-59505952D01*
X161326071Y-59458333D01*
X161421309Y-59410714D01*
X161564166Y-59410714D01*
X161659404Y-59458333D01*
X161707023Y-59505952D01*
X161754642Y-59601190D01*
X161754642Y-59886904D01*
X161707023Y-59982142D01*
X161659404Y-60029761D01*
X161564166Y-60077380D01*
X161421309Y-60077380D01*
X162183214Y-60077380D02*
X162183214Y-59410714D01*
X162183214Y-59505952D02*
X162230833Y-59458333D01*
X162326071Y-59410714D01*
X162468928Y-59410714D01*
X162564166Y-59458333D01*
X162611785Y-59553571D01*
X162611785Y-60077380D01*
X162611785Y-59553571D02*
X162659404Y-59458333D01*
X162754642Y-59410714D01*
X162897500Y-59410714D01*
X162992738Y-59458333D01*
X163040357Y-59553571D01*
X163040357Y-60077380D01*
X163516547Y-59410714D02*
X163516547Y-60410714D01*
X163516547Y-59458333D02*
X163611785Y-59410714D01*
X163802261Y-59410714D01*
X163897500Y-59458333D01*
X163945119Y-59505952D01*
X163992738Y-59601190D01*
X163992738Y-59886904D01*
X163945119Y-59982142D01*
X163897500Y-60029761D01*
X163802261Y-60077380D01*
X163611785Y-60077380D01*
X163516547Y-60029761D01*
X164849880Y-60077380D02*
X164849880Y-59553571D01*
X164802261Y-59458333D01*
X164707023Y-59410714D01*
X164516547Y-59410714D01*
X164421309Y-59458333D01*
X164849880Y-60029761D02*
X164754642Y-60077380D01*
X164516547Y-60077380D01*
X164421309Y-60029761D01*
X164373690Y-59934523D01*
X164373690Y-59839285D01*
X164421309Y-59744047D01*
X164516547Y-59696428D01*
X164754642Y-59696428D01*
X164849880Y-59648809D01*
X165326071Y-60077380D02*
X165326071Y-59410714D01*
X165326071Y-59601190D02*
X165373690Y-59505952D01*
X165421309Y-59458333D01*
X165516547Y-59410714D01*
X165611785Y-59410714D01*
X166373690Y-60077380D02*
X166373690Y-59553571D01*
X166326071Y-59458333D01*
X166230833Y-59410714D01*
X166040357Y-59410714D01*
X165945119Y-59458333D01*
X166373690Y-60029761D02*
X166278452Y-60077380D01*
X166040357Y-60077380D01*
X165945119Y-60029761D01*
X165897500Y-59934523D01*
X165897500Y-59839285D01*
X165945119Y-59744047D01*
X166040357Y-59696428D01*
X166278452Y-59696428D01*
X166373690Y-59648809D01*
X166707023Y-59410714D02*
X167087976Y-59410714D01*
X166849880Y-59077380D02*
X166849880Y-59934523D01*
X166897500Y-60029761D01*
X166992738Y-60077380D01*
X167087976Y-60077380D01*
X167564166Y-60077380D02*
X167468928Y-60029761D01*
X167421309Y-59982142D01*
X167373690Y-59886904D01*
X167373690Y-59601190D01*
X167421309Y-59505952D01*
X167468928Y-59458333D01*
X167564166Y-59410714D01*
X167707023Y-59410714D01*
X167802261Y-59458333D01*
X167849880Y-59505952D01*
X167897500Y-59601190D01*
X167897500Y-59886904D01*
X167849880Y-59982142D01*
X167802261Y-60029761D01*
X167707023Y-60077380D01*
X167564166Y-60077380D01*
X168326071Y-60077380D02*
X168326071Y-59410714D01*
X168326071Y-59601190D02*
X168373690Y-59505952D01*
X168421309Y-59458333D01*
X168516547Y-59410714D01*
X168611785Y-59410714D01*
X168707023Y-60172619D02*
X169468928Y-60172619D01*
X170087976Y-60029761D02*
X169992738Y-60077380D01*
X169802261Y-60077380D01*
X169707023Y-60029761D01*
X169659404Y-59934523D01*
X169659404Y-59553571D01*
X169707023Y-59458333D01*
X169802261Y-59410714D01*
X169992738Y-59410714D01*
X170087976Y-59458333D01*
X170135595Y-59553571D01*
X170135595Y-59648809D01*
X169659404Y-59744047D01*
X170421309Y-59410714D02*
X170802261Y-59410714D01*
X170564166Y-60077380D02*
X170564166Y-59220238D01*
X170611785Y-59125000D01*
X170707023Y-59077380D01*
X170802261Y-59077380D01*
X170992738Y-59410714D02*
X171373690Y-59410714D01*
X171135595Y-60077380D02*
X171135595Y-59220238D01*
X171183214Y-59125000D01*
X171278452Y-59077380D01*
X171373690Y-59077380D01*
X172087976Y-60029761D02*
X171992738Y-60077380D01*
X171802261Y-60077380D01*
X171707023Y-60029761D01*
X171659404Y-59934523D01*
X171659404Y-59553571D01*
X171707023Y-59458333D01*
X171802261Y-59410714D01*
X171992738Y-59410714D01*
X172087976Y-59458333D01*
X172135595Y-59553571D01*
X172135595Y-59648809D01*
X171659404Y-59744047D01*
X172992738Y-60029761D02*
X172897500Y-60077380D01*
X172707023Y-60077380D01*
X172611785Y-60029761D01*
X172564166Y-59982142D01*
X172516547Y-59886904D01*
X172516547Y-59601190D01*
X172564166Y-59505952D01*
X172611785Y-59458333D01*
X172707023Y-59410714D01*
X172897500Y-59410714D01*
X172992738Y-59458333D01*
X173278452Y-59410714D02*
X173659404Y-59410714D01*
X173421309Y-59077380D02*
X173421309Y-59934523D01*
X173468928Y-60029761D01*
X173564166Y-60077380D01*
X173659404Y-60077380D01*
X157040357Y-61060714D02*
X157278452Y-61727380D01*
X157516547Y-61060714D01*
X158087976Y-60727380D02*
X158183214Y-60727380D01*
X158278452Y-60775000D01*
X158326071Y-60822619D01*
X158373690Y-60917857D01*
X158421309Y-61108333D01*
X158421309Y-61346428D01*
X158373690Y-61536904D01*
X158326071Y-61632142D01*
X158278452Y-61679761D01*
X158183214Y-61727380D01*
X158087976Y-61727380D01*
X157992738Y-61679761D01*
X157945119Y-61632142D01*
X157897500Y-61536904D01*
X157849880Y-61346428D01*
X157849880Y-61108333D01*
X157897500Y-60917857D01*
X157945119Y-60822619D01*
X157992738Y-60775000D01*
X158087976Y-60727380D01*
X158611785Y-61822619D02*
X159373690Y-61822619D01*
X159516547Y-60727380D02*
X160135595Y-60727380D01*
X159802261Y-61108333D01*
X159945119Y-61108333D01*
X160040357Y-61155952D01*
X160087976Y-61203571D01*
X160135595Y-61298809D01*
X160135595Y-61536904D01*
X160087976Y-61632142D01*
X160040357Y-61679761D01*
X159945119Y-61727380D01*
X159659404Y-61727380D01*
X159564166Y-61679761D01*
X159516547Y-61632142D01*
X157135595Y-63377380D02*
X157135595Y-62377380D01*
X157135595Y-62758333D02*
X157230833Y-62710714D01*
X157421309Y-62710714D01*
X157516547Y-62758333D01*
X157564166Y-62805952D01*
X157611785Y-62901190D01*
X157611785Y-63186904D01*
X157564166Y-63282142D01*
X157516547Y-63329761D01*
X157421309Y-63377380D01*
X157230833Y-63377380D01*
X157135595Y-63329761D01*
X158468928Y-63377380D02*
X158468928Y-62853571D01*
X158421309Y-62758333D01*
X158326071Y-62710714D01*
X158135595Y-62710714D01*
X158040357Y-62758333D01*
X158468928Y-63329761D02*
X158373690Y-63377380D01*
X158135595Y-63377380D01*
X158040357Y-63329761D01*
X157992738Y-63234523D01*
X157992738Y-63139285D01*
X158040357Y-63044047D01*
X158135595Y-62996428D01*
X158373690Y-62996428D01*
X158468928Y-62948809D01*
X158897500Y-63329761D02*
X158992738Y-63377380D01*
X159183214Y-63377380D01*
X159278452Y-63329761D01*
X159326071Y-63234523D01*
X159326071Y-63186904D01*
X159278452Y-63091666D01*
X159183214Y-63044047D01*
X159040357Y-63044047D01*
X158945119Y-62996428D01*
X158897500Y-62901190D01*
X158897500Y-62853571D01*
X158945119Y-62758333D01*
X159040357Y-62710714D01*
X159183214Y-62710714D01*
X159278452Y-62758333D01*
X160135595Y-63329761D02*
X160040357Y-63377380D01*
X159849880Y-63377380D01*
X159754642Y-63329761D01*
X159707023Y-63234523D01*
X159707023Y-62853571D01*
X159754642Y-62758333D01*
X159849880Y-62710714D01*
X160040357Y-62710714D01*
X160135595Y-62758333D01*
X160183214Y-62853571D01*
X160183214Y-62948809D01*
X159707023Y-63044047D01*
X161040357Y-63377380D02*
X161040357Y-62377380D01*
X161040357Y-63329761D02*
X160945119Y-63377380D01*
X160754642Y-63377380D01*
X160659404Y-63329761D01*
X160611785Y-63282142D01*
X160564166Y-63186904D01*
X160564166Y-62901190D01*
X160611785Y-62805952D01*
X160659404Y-62758333D01*
X160754642Y-62710714D01*
X160945119Y-62710714D01*
X161040357Y-62758333D01*
X162421309Y-63377380D02*
X162326071Y-63329761D01*
X162278452Y-63282142D01*
X162230833Y-63186904D01*
X162230833Y-62901190D01*
X162278452Y-62805952D01*
X162326071Y-62758333D01*
X162421309Y-62710714D01*
X162564166Y-62710714D01*
X162659404Y-62758333D01*
X162707023Y-62805952D01*
X162754642Y-62901190D01*
X162754642Y-63186904D01*
X162707023Y-63282142D01*
X162659404Y-63329761D01*
X162564166Y-63377380D01*
X162421309Y-63377380D01*
X163183214Y-62710714D02*
X163183214Y-63377380D01*
X163183214Y-62805952D02*
X163230833Y-62758333D01*
X163326071Y-62710714D01*
X163468928Y-62710714D01*
X163564166Y-62758333D01*
X163611785Y-62853571D01*
X163611785Y-63377380D01*
X165421309Y-63377380D02*
X165087976Y-62901190D01*
X164849880Y-63377380D02*
X164849880Y-62377380D01*
X165230833Y-62377380D01*
X165326071Y-62425000D01*
X165373690Y-62472619D01*
X165421309Y-62567857D01*
X165421309Y-62710714D01*
X165373690Y-62805952D01*
X165326071Y-62853571D01*
X165230833Y-62901190D01*
X164849880Y-62901190D01*
X165992738Y-63377380D02*
X165897500Y-63329761D01*
X165849880Y-63282142D01*
X165802261Y-63186904D01*
X165802261Y-62901190D01*
X165849880Y-62805952D01*
X165897500Y-62758333D01*
X165992738Y-62710714D01*
X166135595Y-62710714D01*
X166230833Y-62758333D01*
X166278452Y-62805952D01*
X166326071Y-62901190D01*
X166326071Y-63186904D01*
X166278452Y-63282142D01*
X166230833Y-63329761D01*
X166135595Y-63377380D01*
X165992738Y-63377380D01*
X166754642Y-63377380D02*
X166754642Y-62377380D01*
X166754642Y-62758333D02*
X166849880Y-62710714D01*
X167040357Y-62710714D01*
X167135595Y-62758333D01*
X167183214Y-62805952D01*
X167230833Y-62901190D01*
X167230833Y-63186904D01*
X167183214Y-63282142D01*
X167135595Y-63329761D01*
X167040357Y-63377380D01*
X166849880Y-63377380D01*
X166754642Y-63329761D01*
X168373690Y-63329761D02*
X168516547Y-63377380D01*
X168754642Y-63377380D01*
X168849880Y-63329761D01*
X168897500Y-63282142D01*
X168945119Y-63186904D01*
X168945119Y-63091666D01*
X168897500Y-62996428D01*
X168849880Y-62948809D01*
X168754642Y-62901190D01*
X168564166Y-62853571D01*
X168468928Y-62805952D01*
X168421309Y-62758333D01*
X168373690Y-62663095D01*
X168373690Y-62567857D01*
X168421309Y-62472619D01*
X168468928Y-62425000D01*
X168564166Y-62377380D01*
X168802261Y-62377380D01*
X168945119Y-62425000D01*
X169802261Y-63329761D02*
X169707023Y-63377380D01*
X169516547Y-63377380D01*
X169421309Y-63329761D01*
X169373690Y-63282142D01*
X169326071Y-63186904D01*
X169326071Y-62901190D01*
X169373690Y-62805952D01*
X169421309Y-62758333D01*
X169516547Y-62710714D01*
X169707023Y-62710714D01*
X169802261Y-62758333D01*
X170230833Y-63377380D02*
X170230833Y-62377380D01*
X170659404Y-63377380D02*
X170659404Y-62853571D01*
X170611785Y-62758333D01*
X170516547Y-62710714D01*
X170373690Y-62710714D01*
X170278452Y-62758333D01*
X170230833Y-62805952D01*
X171564166Y-63377380D02*
X171564166Y-62853571D01*
X171516547Y-62758333D01*
X171421309Y-62710714D01*
X171230833Y-62710714D01*
X171135595Y-62758333D01*
X171564166Y-63329761D02*
X171468928Y-63377380D01*
X171230833Y-63377380D01*
X171135595Y-63329761D01*
X171087976Y-63234523D01*
X171087976Y-63139285D01*
X171135595Y-63044047D01*
X171230833Y-62996428D01*
X171468928Y-62996428D01*
X171564166Y-62948809D01*
X171897500Y-62710714D02*
X172278452Y-62710714D01*
X172040357Y-63377380D02*
X172040357Y-62520238D01*
X172087976Y-62425000D01*
X172183214Y-62377380D01*
X172278452Y-62377380D01*
X172992738Y-63329761D02*
X172897500Y-63377380D01*
X172707023Y-63377380D01*
X172611785Y-63329761D01*
X172564166Y-63234523D01*
X172564166Y-62853571D01*
X172611785Y-62758333D01*
X172707023Y-62710714D01*
X172897500Y-62710714D01*
X172992738Y-62758333D01*
X173040357Y-62853571D01*
X173040357Y-62948809D01*
X172564166Y-63044047D01*
X173468928Y-63377380D02*
X173468928Y-62710714D01*
X173468928Y-62901190D02*
X173516547Y-62805952D01*
X173564166Y-62758333D01*
X173659404Y-62710714D01*
X173754642Y-62710714D01*
X175278452Y-63377380D02*
X175278452Y-62377380D01*
X175278452Y-63329761D02*
X175183214Y-63377380D01*
X174992738Y-63377380D01*
X174897500Y-63329761D01*
X174849880Y-63282142D01*
X174802261Y-63186904D01*
X174802261Y-62901190D01*
X174849880Y-62805952D01*
X174897500Y-62758333D01*
X174992738Y-62710714D01*
X175183214Y-62710714D01*
X175278452Y-62758333D01*
X176135595Y-63329761D02*
X176040357Y-63377380D01*
X175849880Y-63377380D01*
X175754642Y-63329761D01*
X175707023Y-63234523D01*
X175707023Y-62853571D01*
X175754642Y-62758333D01*
X175849880Y-62710714D01*
X176040357Y-62710714D01*
X176135595Y-62758333D01*
X176183214Y-62853571D01*
X176183214Y-62948809D01*
X175707023Y-63044047D01*
X176564166Y-63329761D02*
X176659404Y-63377380D01*
X176849880Y-63377380D01*
X176945119Y-63329761D01*
X176992738Y-63234523D01*
X176992738Y-63186904D01*
X176945119Y-63091666D01*
X176849880Y-63044047D01*
X176707023Y-63044047D01*
X176611785Y-62996428D01*
X176564166Y-62901190D01*
X176564166Y-62853571D01*
X176611785Y-62758333D01*
X176707023Y-62710714D01*
X176849880Y-62710714D01*
X176945119Y-62758333D01*
X177421309Y-63377380D02*
X177421309Y-62710714D01*
X177421309Y-62377380D02*
X177373690Y-62425000D01*
X177421309Y-62472619D01*
X177468928Y-62425000D01*
X177421309Y-62377380D01*
X177421309Y-62472619D01*
X178326071Y-62710714D02*
X178326071Y-63520238D01*
X178278452Y-63615476D01*
X178230833Y-63663095D01*
X178135595Y-63710714D01*
X177992738Y-63710714D01*
X177897500Y-63663095D01*
X178326071Y-63329761D02*
X178230833Y-63377380D01*
X178040357Y-63377380D01*
X177945119Y-63329761D01*
X177897500Y-63282142D01*
X177849880Y-63186904D01*
X177849880Y-62901190D01*
X177897500Y-62805952D01*
X177945119Y-62758333D01*
X178040357Y-62710714D01*
X178230833Y-62710714D01*
X178326071Y-62758333D01*
X178802261Y-62710714D02*
X178802261Y-63377380D01*
X178802261Y-62805952D02*
X178849880Y-62758333D01*
X178945119Y-62710714D01*
X179087976Y-62710714D01*
X179183214Y-62758333D01*
X179230833Y-62853571D01*
X179230833Y-63377380D01*
X157564166Y-64360714D02*
X157564166Y-65027380D01*
X157135595Y-64360714D02*
X157135595Y-64884523D01*
X157183214Y-64979761D01*
X157278452Y-65027380D01*
X157421309Y-65027380D01*
X157516547Y-64979761D01*
X157564166Y-64932142D01*
X158040357Y-64360714D02*
X158040357Y-65360714D01*
X158040357Y-64408333D02*
X158135595Y-64360714D01*
X158326071Y-64360714D01*
X158421309Y-64408333D01*
X158468928Y-64455952D01*
X158516547Y-64551190D01*
X158516547Y-64836904D01*
X158468928Y-64932142D01*
X158421309Y-64979761D01*
X158326071Y-65027380D01*
X158135595Y-65027380D01*
X158040357Y-64979761D01*
X159373690Y-65027380D02*
X159373690Y-64027380D01*
X159373690Y-64979761D02*
X159278452Y-65027380D01*
X159087976Y-65027380D01*
X158992738Y-64979761D01*
X158945119Y-64932142D01*
X158897500Y-64836904D01*
X158897500Y-64551190D01*
X158945119Y-64455952D01*
X158992738Y-64408333D01*
X159087976Y-64360714D01*
X159278452Y-64360714D01*
X159373690Y-64408333D01*
X160278452Y-65027380D02*
X160278452Y-64503571D01*
X160230833Y-64408333D01*
X160135595Y-64360714D01*
X159945119Y-64360714D01*
X159849880Y-64408333D01*
X160278452Y-64979761D02*
X160183214Y-65027380D01*
X159945119Y-65027380D01*
X159849880Y-64979761D01*
X159802261Y-64884523D01*
X159802261Y-64789285D01*
X159849880Y-64694047D01*
X159945119Y-64646428D01*
X160183214Y-64646428D01*
X160278452Y-64598809D01*
X160611785Y-64360714D02*
X160992738Y-64360714D01*
X160754642Y-64027380D02*
X160754642Y-64884523D01*
X160802261Y-64979761D01*
X160897500Y-65027380D01*
X160992738Y-65027380D01*
X161707023Y-64979761D02*
X161611785Y-65027380D01*
X161421309Y-65027380D01*
X161326071Y-64979761D01*
X161278452Y-64884523D01*
X161278452Y-64503571D01*
X161326071Y-64408333D01*
X161421309Y-64360714D01*
X161611785Y-64360714D01*
X161707023Y-64408333D01*
X161754642Y-64503571D01*
X161754642Y-64598809D01*
X161278452Y-64694047D01*
X162611785Y-65027380D02*
X162611785Y-64027380D01*
X162611785Y-64979761D02*
X162516547Y-65027380D01*
X162326071Y-65027380D01*
X162230833Y-64979761D01*
X162183214Y-64932142D01*
X162135595Y-64836904D01*
X162135595Y-64551190D01*
X162183214Y-64455952D01*
X162230833Y-64408333D01*
X162326071Y-64360714D01*
X162516547Y-64360714D01*
X162611785Y-64408333D01*
X163849880Y-65027380D02*
X163849880Y-64027380D01*
X163849880Y-64408333D02*
X163945119Y-64360714D01*
X164135595Y-64360714D01*
X164230833Y-64408333D01*
X164278452Y-64455952D01*
X164326071Y-64551190D01*
X164326071Y-64836904D01*
X164278452Y-64932142D01*
X164230833Y-64979761D01*
X164135595Y-65027380D01*
X163945119Y-65027380D01*
X163849880Y-64979761D01*
X164659404Y-64360714D02*
X164897500Y-65027380D01*
X165135595Y-64360714D02*
X164897500Y-65027380D01*
X164802261Y-65265476D01*
X164754642Y-65313095D01*
X164659404Y-65360714D01*
X166707023Y-64979761D02*
X166611785Y-65027380D01*
X166421309Y-65027380D01*
X166326071Y-64979761D01*
X166278452Y-64932142D01*
X166230833Y-64836904D01*
X166230833Y-64551190D01*
X166278452Y-64455952D01*
X166326071Y-64408333D01*
X166421309Y-64360714D01*
X166611785Y-64360714D01*
X166707023Y-64408333D01*
X167040357Y-64360714D02*
X167278452Y-65027380D01*
X167516547Y-64360714D02*
X167278452Y-65027380D01*
X167183214Y-65265476D01*
X167135595Y-65313095D01*
X167040357Y-65360714D01*
X167897500Y-65027380D02*
X167897500Y-64027380D01*
X167897500Y-64408333D02*
X167992738Y-64360714D01*
X168183214Y-64360714D01*
X168278452Y-64408333D01*
X168326071Y-64455952D01*
X168373690Y-64551190D01*
X168373690Y-64836904D01*
X168326071Y-64932142D01*
X168278452Y-64979761D01*
X168183214Y-65027380D01*
X167992738Y-65027380D01*
X167897500Y-64979761D01*
X169183214Y-64979761D02*
X169087976Y-65027380D01*
X168897500Y-65027380D01*
X168802261Y-64979761D01*
X168754642Y-64884523D01*
X168754642Y-64503571D01*
X168802261Y-64408333D01*
X168897500Y-64360714D01*
X169087976Y-64360714D01*
X169183214Y-64408333D01*
X169230833Y-64503571D01*
X169230833Y-64598809D01*
X168754642Y-64694047D01*
X169659404Y-65027380D02*
X169659404Y-64360714D01*
X169659404Y-64551190D02*
X169707023Y-64455952D01*
X169754642Y-64408333D01*
X169849880Y-64360714D01*
X169945119Y-64360714D01*
X170278452Y-65027380D02*
X170278452Y-64027380D01*
X170278452Y-64408333D02*
X170373690Y-64360714D01*
X170564166Y-64360714D01*
X170659404Y-64408333D01*
X170707023Y-64455952D01*
X170754642Y-64551190D01*
X170754642Y-64836904D01*
X170707023Y-64932142D01*
X170659404Y-64979761D01*
X170564166Y-65027380D01*
X170373690Y-65027380D01*
X170278452Y-64979761D01*
X171326071Y-65027380D02*
X171230833Y-64979761D01*
X171183214Y-64932142D01*
X171135595Y-64836904D01*
X171135595Y-64551190D01*
X171183214Y-64455952D01*
X171230833Y-64408333D01*
X171326071Y-64360714D01*
X171468928Y-64360714D01*
X171564166Y-64408333D01*
X171611785Y-64455952D01*
X171659404Y-64551190D01*
X171659404Y-64836904D01*
X171611785Y-64932142D01*
X171564166Y-64979761D01*
X171468928Y-65027380D01*
X171326071Y-65027380D01*
X171992738Y-64360714D02*
X172230833Y-65027380D01*
X172468928Y-64360714D02*
X172230833Y-65027380D01*
X172135595Y-65265476D01*
X172087976Y-65313095D01*
X171992738Y-65360714D01*
X173278452Y-64027380D02*
X173087976Y-64027380D01*
X172992738Y-64075000D01*
X172945119Y-64122619D01*
X172849880Y-64265476D01*
X172802261Y-64455952D01*
X172802261Y-64836904D01*
X172849880Y-64932142D01*
X172897500Y-64979761D01*
X172992738Y-65027380D01*
X173183214Y-65027380D01*
X173278452Y-64979761D01*
X173326071Y-64932142D01*
X173373690Y-64836904D01*
X173373690Y-64598809D01*
X173326071Y-64503571D01*
X173278452Y-64455952D01*
X173183214Y-64408333D01*
X172992738Y-64408333D01*
X172897500Y-64455952D01*
X172849880Y-64503571D01*
X172802261Y-64598809D01*
X174230833Y-64027380D02*
X174040357Y-64027380D01*
X173945119Y-64075000D01*
X173897500Y-64122619D01*
X173802261Y-64265476D01*
X173754642Y-64455952D01*
X173754642Y-64836904D01*
X173802261Y-64932142D01*
X173849880Y-64979761D01*
X173945119Y-65027380D01*
X174135595Y-65027380D01*
X174230833Y-64979761D01*
X174278452Y-64932142D01*
X174326071Y-64836904D01*
X174326071Y-64598809D01*
X174278452Y-64503571D01*
X174230833Y-64455952D01*
X174135595Y-64408333D01*
X173945119Y-64408333D01*
X173849880Y-64455952D01*
X173802261Y-64503571D01*
X173754642Y-64598809D01*
X175183214Y-64027380D02*
X174992738Y-64027380D01*
X174897500Y-64075000D01*
X174849880Y-64122619D01*
X174754642Y-64265476D01*
X174707023Y-64455952D01*
X174707023Y-64836904D01*
X174754642Y-64932142D01*
X174802261Y-64979761D01*
X174897500Y-65027380D01*
X175087976Y-65027380D01*
X175183214Y-64979761D01*
X175230833Y-64932142D01*
X175278452Y-64836904D01*
X175278452Y-64598809D01*
X175230833Y-64503571D01*
X175183214Y-64455952D01*
X175087976Y-64408333D01*
X174897500Y-64408333D01*
X174802261Y-64455952D01*
X174754642Y-64503571D01*
X174707023Y-64598809D01*
D11*
X139619047Y-57904761D02*
X138666666Y-57904761D01*
X138571428Y-58857142D01*
X138666666Y-58761904D01*
X138857142Y-58666666D01*
X139333333Y-58666666D01*
X139523809Y-58761904D01*
X139619047Y-58857142D01*
X139714285Y-59047619D01*
X139714285Y-59523809D01*
X139619047Y-59714285D01*
X139523809Y-59809523D01*
X139333333Y-59904761D01*
X138857142Y-59904761D01*
X138666666Y-59809523D01*
X138571428Y-59714285D01*
X140285714Y-57904761D02*
X140952380Y-59904761D01*
X141619047Y-57904761D01*
D13*
X182300000Y-62957142D02*
X182871428Y-62957142D01*
X183157142Y-63100000D01*
X183442857Y-63385714D01*
X183585714Y-63957142D01*
X183585714Y-64957142D01*
X183442857Y-65528571D01*
X183157142Y-65814285D01*
X182871428Y-65957142D01*
X182300000Y-65957142D01*
X182014285Y-65814285D01*
X181728571Y-65528571D01*
X181585714Y-64957142D01*
X181585714Y-63957142D01*
X181728571Y-63385714D01*
X182014285Y-63100000D01*
X182300000Y-62957142D01*
X184871428Y-62957142D02*
X184871428Y-65385714D01*
X185014285Y-65671428D01*
X185157142Y-65814285D01*
X185442857Y-65957142D01*
X186014285Y-65957142D01*
X186300000Y-65814285D01*
X186442857Y-65671428D01*
X186585714Y-65385714D01*
X186585714Y-62957142D01*
X187585714Y-62957142D02*
X189300000Y-62957142D01*
X188442857Y-65957142D02*
X188442857Y-62957142D01*
X91028571Y-64657142D02*
X91028571Y-61657142D01*
X92457142Y-64657142D02*
X92457142Y-61657142D01*
X94171428Y-64657142D01*
X94171428Y-61657142D01*
D10*
X148220000Y-61430000D02*
X148220000Y-61760000D01*
X154760000Y-61430000D02*
X148220000Y-61430000D01*
X154760000Y-61760000D02*
X154760000Y-61430000D01*
X148220000Y-64170000D02*
X148220000Y-63840000D01*
X154760000Y-64170000D02*
X148220000Y-64170000D01*
X154760000Y-63840000D02*
X154760000Y-64170000D01*
X152630000Y-77220000D02*
X152630000Y-72554000D01*
X152630000Y-68645000D02*
X152630000Y-65630000D01*
X164970000Y-77220000D02*
X164970000Y-72554000D01*
X164970000Y-68645000D02*
X164970000Y-65630000D01*
X152630000Y-77220000D02*
X155429000Y-77220000D01*
X157171000Y-77220000D02*
X157930000Y-77220000D01*
X159671000Y-77220000D02*
X160430000Y-77220000D01*
X162170000Y-77220000D02*
X164970000Y-77220000D01*
X152630000Y-65630000D02*
X164970000Y-65630000D01*
X130078445Y-52827684D02*
G75*
G03X129050000Y-48550000I-1808445J1827684D01*
G01*
X126458125Y-52841741D02*
G75*
G02X127450000Y-48550000I1811875J1841741D01*
G01*
X126470000Y-52850000D02*
X130070000Y-52850000D01*
X167078445Y-50827684D02*
G75*
G03X166050000Y-46550000I-1808445J1827684D01*
G01*
X163458125Y-50841741D02*
G75*
G02X164450000Y-46550000I1811875J1841741D01*
G01*
X163470000Y-50850000D02*
X167070000Y-50850000D01*
X96130000Y-64330000D02*
X101070000Y-64330000D01*
X96130000Y-67070000D02*
X101070000Y-67070000D01*
X96130000Y-64330000D02*
X96130000Y-64645000D01*
X96130000Y-66755000D02*
X96130000Y-67070000D01*
X101070000Y-64330000D02*
X101070000Y-64645000D01*
X101070000Y-66755000D02*
X101070000Y-67070000D01*
X169345000Y-74970000D02*
X169030000Y-74970000D01*
X171770000Y-74970000D02*
X171455000Y-74970000D01*
X169345000Y-70030000D02*
X169030000Y-70030000D01*
X171770000Y-70030000D02*
X171455000Y-70030000D01*
X169030000Y-70030000D02*
X169030000Y-74970000D01*
X171770000Y-70030000D02*
X171770000Y-74970000D01*
X119720000Y-60370000D02*
X114780000Y-60370000D01*
X119720000Y-57630000D02*
X114780000Y-57630000D01*
X119720000Y-60370000D02*
X119720000Y-60055000D01*
X119720000Y-57945000D02*
X119720000Y-57630000D01*
X114780000Y-60370000D02*
X114780000Y-60055000D01*
X114780000Y-57945000D02*
X114780000Y-57630000D01*
X125590000Y-57860000D02*
X125590000Y-57530000D01*
X125590000Y-57530000D02*
X131030000Y-57530000D01*
X131030000Y-57530000D02*
X131030000Y-57860000D01*
X125590000Y-60140000D02*
X125590000Y-60470000D01*
X125590000Y-60470000D02*
X131030000Y-60470000D01*
X131030000Y-60470000D02*
X131030000Y-60140000D01*
X126490000Y-57530000D02*
X126490000Y-60470000D01*
X126610000Y-57530000D02*
X126610000Y-60470000D01*
X126370000Y-57530000D02*
X126370000Y-60470000D01*
X143750000Y-56100000D02*
X144800000Y-56100000D01*
X144800000Y-55050000D02*
X144800000Y-56100000D01*
X135400000Y-50000000D02*
X135400000Y-41200000D01*
X135400000Y-41200000D02*
X144600000Y-41200000D01*
X138100000Y-55900000D02*
X135400000Y-55900000D01*
X135400000Y-55900000D02*
X135400000Y-54000000D01*
X144600000Y-41200000D02*
X144600000Y-55900000D01*
X144600000Y-55900000D02*
X142000000Y-55900000D01*
X106040000Y-70640000D02*
X106370000Y-70640000D01*
X106370000Y-70640000D02*
X106370000Y-77180000D01*
X106370000Y-77180000D02*
X106040000Y-77180000D01*
X103960000Y-70640000D02*
X103630000Y-70640000D01*
X103630000Y-70640000D02*
X103630000Y-77180000D01*
X103630000Y-77180000D02*
X103960000Y-77180000D01*
X147630000Y-54080000D02*
X147960000Y-54080000D01*
X147630000Y-47540000D02*
X147630000Y-54080000D01*
X147960000Y-47540000D02*
X147630000Y-47540000D01*
X150370000Y-54080000D02*
X150040000Y-54080000D01*
X150370000Y-47540000D02*
X150370000Y-54080000D01*
X150040000Y-47540000D02*
X150370000Y-47540000D01*
X148340000Y-57360000D02*
X148340000Y-57030000D01*
X148340000Y-57030000D02*
X154880000Y-57030000D01*
X154880000Y-57030000D02*
X154880000Y-57360000D01*
X148340000Y-59440000D02*
X148340000Y-59770000D01*
X148340000Y-59770000D02*
X154880000Y-59770000D01*
X154880000Y-59770000D02*
X154880000Y-59440000D01*
X99130000Y-77080000D02*
X99460000Y-77080000D01*
X99130000Y-70540000D02*
X99130000Y-77080000D01*
X99460000Y-70540000D02*
X99130000Y-70540000D01*
X101870000Y-77080000D02*
X101540000Y-77080000D01*
X101870000Y-70540000D02*
X101870000Y-77080000D01*
X101540000Y-70540000D02*
X101870000Y-70540000D01*
X178130000Y-77080000D02*
X178460000Y-77080000D01*
X178130000Y-70540000D02*
X178130000Y-77080000D01*
X178460000Y-70540000D02*
X178130000Y-70540000D01*
X180870000Y-77080000D02*
X180540000Y-77080000D01*
X180870000Y-70540000D02*
X180870000Y-77080000D01*
X180540000Y-70540000D02*
X180870000Y-70540000D01*
X176040000Y-70540000D02*
X176370000Y-70540000D01*
X176370000Y-70540000D02*
X176370000Y-77080000D01*
X176370000Y-77080000D02*
X176040000Y-77080000D01*
X173960000Y-70540000D02*
X173630000Y-70540000D01*
X173630000Y-70540000D02*
X173630000Y-77080000D01*
X173630000Y-77080000D02*
X173960000Y-77080000D01*
X110040000Y-47540000D02*
X110370000Y-47540000D01*
X110370000Y-47540000D02*
X110370000Y-54080000D01*
X110370000Y-54080000D02*
X110040000Y-54080000D01*
X107960000Y-47540000D02*
X107630000Y-47540000D01*
X107630000Y-47540000D02*
X107630000Y-54080000D01*
X107630000Y-54080000D02*
X107960000Y-54080000D01*
X112630000Y-54080000D02*
X112960000Y-54080000D01*
X112630000Y-47540000D02*
X112630000Y-54080000D01*
X112960000Y-47540000D02*
X112630000Y-47540000D01*
X115370000Y-54080000D02*
X115040000Y-54080000D01*
X115370000Y-47540000D02*
X115370000Y-54080000D01*
X115040000Y-47540000D02*
X115370000Y-47540000D01*
X169630000Y-54080000D02*
X169960000Y-54080000D01*
X169630000Y-47540000D02*
X169630000Y-54080000D01*
X169960000Y-47540000D02*
X169630000Y-47540000D01*
X172370000Y-54080000D02*
X172040000Y-54080000D01*
X172370000Y-47540000D02*
X172370000Y-54080000D01*
X172040000Y-47540000D02*
X172370000Y-47540000D01*
X167460000Y-55040000D02*
X167460000Y-55370000D01*
X167460000Y-55370000D02*
X160920000Y-55370000D01*
X160920000Y-55370000D02*
X160920000Y-55040000D01*
X167460000Y-52960000D02*
X167460000Y-52630000D01*
X167460000Y-52630000D02*
X160920000Y-52630000D01*
X160920000Y-52630000D02*
X160920000Y-52960000D01*
X142460000Y-63940000D02*
X142460000Y-64270000D01*
X142460000Y-64270000D02*
X135920000Y-64270000D01*
X135920000Y-64270000D02*
X135920000Y-63940000D01*
X142460000Y-61860000D02*
X142460000Y-61530000D01*
X142460000Y-61530000D02*
X135920000Y-61530000D01*
X135920000Y-61530000D02*
X135920000Y-61860000D01*
X124940000Y-61860000D02*
X124940000Y-61530000D01*
X124940000Y-61530000D02*
X131480000Y-61530000D01*
X131480000Y-61530000D02*
X131480000Y-61860000D01*
X124940000Y-63940000D02*
X124940000Y-64270000D01*
X124940000Y-64270000D02*
X131480000Y-64270000D01*
X131480000Y-64270000D02*
X131480000Y-63940000D01*
X152630000Y-54080000D02*
X152960000Y-54080000D01*
X152630000Y-47540000D02*
X152630000Y-54080000D01*
X152960000Y-47540000D02*
X152630000Y-47540000D01*
X155370000Y-54080000D02*
X155040000Y-54080000D01*
X155370000Y-47540000D02*
X155370000Y-54080000D01*
X155040000Y-47540000D02*
X155370000Y-47540000D01*
X116380000Y-64670000D02*
X116380000Y-64340000D01*
X109840000Y-64670000D02*
X116380000Y-64670000D01*
X109840000Y-64340000D02*
X109840000Y-64670000D01*
X116380000Y-61930000D02*
X116380000Y-62260000D01*
X109840000Y-61930000D02*
X116380000Y-61930000D01*
X109840000Y-62260000D02*
X109840000Y-61930000D01*
X120290000Y-47540000D02*
X120620000Y-47540000D01*
X120620000Y-47540000D02*
X120620000Y-54080000D01*
X120620000Y-54080000D02*
X120290000Y-54080000D01*
X118210000Y-47540000D02*
X117880000Y-47540000D01*
X117880000Y-47540000D02*
X117880000Y-54080000D01*
X117880000Y-54080000D02*
X118210000Y-54080000D01*
X115030000Y-65730000D02*
X127370000Y-65730000D01*
X124570000Y-77320000D02*
X127370000Y-77320000D01*
X122071000Y-77320000D02*
X122830000Y-77320000D01*
X119571000Y-77320000D02*
X120330000Y-77320000D01*
X115030000Y-77320000D02*
X117829000Y-77320000D01*
X127370000Y-68745000D02*
X127370000Y-65730000D01*
X127370000Y-77320000D02*
X127370000Y-72654000D01*
X115030000Y-68745000D02*
X115030000Y-65730000D01*
X115030000Y-77320000D02*
X115030000Y-72654000D01*
X131770000Y-71730000D02*
X131770000Y-76670000D01*
X129030000Y-71730000D02*
X129030000Y-76670000D01*
X131770000Y-71730000D02*
X131455000Y-71730000D01*
X129345000Y-71730000D02*
X129030000Y-71730000D01*
X131770000Y-76670000D02*
X131455000Y-76670000D01*
X129345000Y-76670000D02*
X129030000Y-76670000D01*
X132770000Y-73090000D02*
G75*
G02X132770000Y-75090000I0J-1000000D01*
G01*
X132770000Y-75090000D02*
X132770000Y-76340000D01*
X132770000Y-76340000D02*
X150670000Y-76340000D01*
X150670000Y-76340000D02*
X150670000Y-71840000D01*
X150670000Y-71840000D02*
X132770000Y-71840000D01*
X132770000Y-71840000D02*
X132770000Y-73090000D01*
D14*
X91700000Y-56600000D02*
G75*
G03X91700000Y-56600000I-200000J0D01*
G01*
D15*
X104250000Y-53465000D02*
X102784000Y-53465000D01*
X95016000Y-53465000D02*
X93550000Y-53465000D01*
X95016000Y-59735000D02*
X93550000Y-59735000D01*
X104250000Y-59735000D02*
X102784000Y-59735000D01*
X95017924Y-53462628D02*
G75*
G02X102784000Y-53465000I3882076J-3151223D01*
G01*
X102782076Y-59737372D02*
G75*
G02X95016000Y-59735000I-3882076J3151223D01*
G01*
X93550000Y-58365000D02*
X93550000Y-59735000D01*
X93550000Y-53465000D02*
X93550000Y-54835000D01*
X104250000Y-53465000D02*
X104250000Y-54835000D01*
X104250000Y-58365000D02*
X104250000Y-59735000D01*
X186550000Y-58865000D02*
X186550000Y-60235000D01*
X186550000Y-53965000D02*
X186550000Y-55335000D01*
X175850000Y-53965000D02*
X175850000Y-55335000D01*
X175850000Y-58865000D02*
X175850000Y-60235000D01*
X185082076Y-60237372D02*
G75*
G02X177316000Y-60235000I-3882076J3151223D01*
G01*
X177317924Y-53962628D02*
G75*
G02X185084000Y-53965000I3882076J-3151223D01*
G01*
X186550000Y-60235000D02*
X185084000Y-60235000D01*
X177316000Y-60235000D02*
X175850000Y-60235000D01*
X177316000Y-53965000D02*
X175850000Y-53965000D01*
X186550000Y-53965000D02*
X185084000Y-53965000D01*
D14*
X174000000Y-57100000D02*
G75*
G03X174000000Y-57100000I-200000J0D01*
G01*
D12*
X151323333Y-63252380D02*
X150990000Y-62776190D01*
X150751904Y-63252380D02*
X150751904Y-62252380D01*
X151132857Y-62252380D01*
X151228095Y-62300000D01*
X151275714Y-62347619D01*
X151323333Y-62442857D01*
X151323333Y-62585714D01*
X151275714Y-62680952D01*
X151228095Y-62728571D01*
X151132857Y-62776190D01*
X150751904Y-62776190D01*
X152180476Y-62252380D02*
X151990000Y-62252380D01*
X151894761Y-62300000D01*
X151847142Y-62347619D01*
X151751904Y-62490476D01*
X151704285Y-62680952D01*
X151704285Y-63061904D01*
X151751904Y-63157142D01*
X151799523Y-63204761D01*
X151894761Y-63252380D01*
X152085238Y-63252380D01*
X152180476Y-63204761D01*
X152228095Y-63157142D01*
X152275714Y-63061904D01*
X152275714Y-62823809D01*
X152228095Y-62728571D01*
X152180476Y-62680952D01*
X152085238Y-62633333D01*
X151894761Y-62633333D01*
X151799523Y-62680952D01*
X151751904Y-62728571D01*
X151704285Y-62823809D01*
X158204761Y-76552380D02*
X157871428Y-76076190D01*
X157633333Y-76552380D02*
X157633333Y-75552380D01*
X158014285Y-75552380D01*
X158109523Y-75600000D01*
X158157142Y-75647619D01*
X158204761Y-75742857D01*
X158204761Y-75885714D01*
X158157142Y-75980952D01*
X158109523Y-76028571D01*
X158014285Y-76076190D01*
X157633333Y-76076190D01*
X158490476Y-75552380D02*
X158823809Y-76552380D01*
X159157142Y-75552380D01*
X159442857Y-75647619D02*
X159490476Y-75600000D01*
X159585714Y-75552380D01*
X159823809Y-75552380D01*
X159919047Y-75600000D01*
X159966666Y-75647619D01*
X160014285Y-75742857D01*
X160014285Y-75838095D01*
X159966666Y-75980952D01*
X159395238Y-76552380D01*
X160014285Y-76552380D01*
X127508095Y-46052380D02*
X127508095Y-46861904D01*
X127555714Y-46957142D01*
X127603333Y-47004761D01*
X127698571Y-47052380D01*
X127889047Y-47052380D01*
X127984285Y-47004761D01*
X128031904Y-46957142D01*
X128079523Y-46861904D01*
X128079523Y-46052380D01*
X128508095Y-46147619D02*
X128555714Y-46100000D01*
X128650952Y-46052380D01*
X128889047Y-46052380D01*
X128984285Y-46100000D01*
X129031904Y-46147619D01*
X129079523Y-46242857D01*
X129079523Y-46338095D01*
X129031904Y-46480952D01*
X128460476Y-47052380D01*
X129079523Y-47052380D01*
X161304761Y-48647619D02*
X161209523Y-48600000D01*
X161114285Y-48504761D01*
X160971428Y-48361904D01*
X160876190Y-48314285D01*
X160780952Y-48314285D01*
X160828571Y-48552380D02*
X160733333Y-48504761D01*
X160638095Y-48409523D01*
X160590476Y-48219047D01*
X160590476Y-47885714D01*
X160638095Y-47695238D01*
X160733333Y-47600000D01*
X160828571Y-47552380D01*
X161019047Y-47552380D01*
X161114285Y-47600000D01*
X161209523Y-47695238D01*
X161257142Y-47885714D01*
X161257142Y-48219047D01*
X161209523Y-48409523D01*
X161114285Y-48504761D01*
X161019047Y-48552380D01*
X160828571Y-48552380D01*
X162209523Y-48552380D02*
X161638095Y-48552380D01*
X161923809Y-48552380D02*
X161923809Y-47552380D01*
X161828571Y-47695238D01*
X161733333Y-47790476D01*
X161638095Y-47838095D01*
X98433333Y-66057142D02*
X98385714Y-66104761D01*
X98242857Y-66152380D01*
X98147619Y-66152380D01*
X98004761Y-66104761D01*
X97909523Y-66009523D01*
X97861904Y-65914285D01*
X97814285Y-65723809D01*
X97814285Y-65580952D01*
X97861904Y-65390476D01*
X97909523Y-65295238D01*
X98004761Y-65200000D01*
X98147619Y-65152380D01*
X98242857Y-65152380D01*
X98385714Y-65200000D01*
X98433333Y-65247619D01*
X99385714Y-66152380D02*
X98814285Y-66152380D01*
X99100000Y-66152380D02*
X99100000Y-65152380D01*
X99004761Y-65295238D01*
X98909523Y-65390476D01*
X98814285Y-65438095D01*
X170757142Y-72666666D02*
X170804761Y-72714285D01*
X170852380Y-72857142D01*
X170852380Y-72952380D01*
X170804761Y-73095238D01*
X170709523Y-73190476D01*
X170614285Y-73238095D01*
X170423809Y-73285714D01*
X170280952Y-73285714D01*
X170090476Y-73238095D01*
X169995238Y-73190476D01*
X169900000Y-73095238D01*
X169852380Y-72952380D01*
X169852380Y-72857142D01*
X169900000Y-72714285D01*
X169947619Y-72666666D01*
X169947619Y-72285714D02*
X169900000Y-72238095D01*
X169852380Y-72142857D01*
X169852380Y-71904761D01*
X169900000Y-71809523D01*
X169947619Y-71761904D01*
X170042857Y-71714285D01*
X170138095Y-71714285D01*
X170280952Y-71761904D01*
X170852380Y-72333333D01*
X170852380Y-71714285D01*
X117083333Y-59357142D02*
X117035714Y-59404761D01*
X116892857Y-59452380D01*
X116797619Y-59452380D01*
X116654761Y-59404761D01*
X116559523Y-59309523D01*
X116511904Y-59214285D01*
X116464285Y-59023809D01*
X116464285Y-58880952D01*
X116511904Y-58690476D01*
X116559523Y-58595238D01*
X116654761Y-58500000D01*
X116797619Y-58452380D01*
X116892857Y-58452380D01*
X117035714Y-58500000D01*
X117083333Y-58547619D01*
X117416666Y-58452380D02*
X118035714Y-58452380D01*
X117702380Y-58833333D01*
X117845238Y-58833333D01*
X117940476Y-58880952D01*
X117988095Y-58928571D01*
X118035714Y-59023809D01*
X118035714Y-59261904D01*
X117988095Y-59357142D01*
X117940476Y-59404761D01*
X117845238Y-59452380D01*
X117559523Y-59452380D01*
X117464285Y-59404761D01*
X117416666Y-59357142D01*
X127761904Y-59452380D02*
X127761904Y-58452380D01*
X128000000Y-58452380D01*
X128142857Y-58500000D01*
X128238095Y-58595238D01*
X128285714Y-58690476D01*
X128333333Y-58880952D01*
X128333333Y-59023809D01*
X128285714Y-59214285D01*
X128238095Y-59309523D01*
X128142857Y-59404761D01*
X128000000Y-59452380D01*
X127761904Y-59452380D01*
X129285714Y-59452380D02*
X128714285Y-59452380D01*
X129000000Y-59452380D02*
X129000000Y-58452380D01*
X128904761Y-58595238D01*
X128809523Y-58690476D01*
X128714285Y-58738095D01*
X124238095Y-57552380D02*
X124238095Y-56552380D01*
X124809523Y-57552380D02*
X124380952Y-56980952D01*
X124809523Y-56552380D02*
X124238095Y-57123809D01*
X133702380Y-46883333D02*
X134416666Y-46883333D01*
X134559523Y-46930952D01*
X134654761Y-47026190D01*
X134702380Y-47169047D01*
X134702380Y-47264285D01*
X133702380Y-46502380D02*
X133702380Y-45883333D01*
X134083333Y-46216666D01*
X134083333Y-46073809D01*
X134130952Y-45978571D01*
X134178571Y-45930952D01*
X134273809Y-45883333D01*
X134511904Y-45883333D01*
X134607142Y-45930952D01*
X134654761Y-45978571D01*
X134702380Y-46073809D01*
X134702380Y-46359523D01*
X134654761Y-46454761D01*
X134607142Y-46502380D01*
X105452380Y-74076666D02*
X104976190Y-74410000D01*
X105452380Y-74648095D02*
X104452380Y-74648095D01*
X104452380Y-74267142D01*
X104500000Y-74171904D01*
X104547619Y-74124285D01*
X104642857Y-74076666D01*
X104785714Y-74076666D01*
X104880952Y-74124285D01*
X104928571Y-74171904D01*
X104976190Y-74267142D01*
X104976190Y-74648095D01*
X105452380Y-73124285D02*
X105452380Y-73695714D01*
X105452380Y-73410000D02*
X104452380Y-73410000D01*
X104595238Y-73505238D01*
X104690476Y-73600476D01*
X104738095Y-73695714D01*
X149452380Y-50976666D02*
X148976190Y-51310000D01*
X149452380Y-51548095D02*
X148452380Y-51548095D01*
X148452380Y-51167142D01*
X148500000Y-51071904D01*
X148547619Y-51024285D01*
X148642857Y-50976666D01*
X148785714Y-50976666D01*
X148880952Y-51024285D01*
X148928571Y-51071904D01*
X148976190Y-51167142D01*
X148976190Y-51548095D01*
X148547619Y-50595714D02*
X148500000Y-50548095D01*
X148452380Y-50452857D01*
X148452380Y-50214761D01*
X148500000Y-50119523D01*
X148547619Y-50071904D01*
X148642857Y-50024285D01*
X148738095Y-50024285D01*
X148880952Y-50071904D01*
X149452380Y-50643333D01*
X149452380Y-50024285D01*
X151443333Y-58852380D02*
X151110000Y-58376190D01*
X150871904Y-58852380D02*
X150871904Y-57852380D01*
X151252857Y-57852380D01*
X151348095Y-57900000D01*
X151395714Y-57947619D01*
X151443333Y-58042857D01*
X151443333Y-58185714D01*
X151395714Y-58280952D01*
X151348095Y-58328571D01*
X151252857Y-58376190D01*
X150871904Y-58376190D01*
X151776666Y-57852380D02*
X152395714Y-57852380D01*
X152062380Y-58233333D01*
X152205238Y-58233333D01*
X152300476Y-58280952D01*
X152348095Y-58328571D01*
X152395714Y-58423809D01*
X152395714Y-58661904D01*
X152348095Y-58757142D01*
X152300476Y-58804761D01*
X152205238Y-58852380D01*
X151919523Y-58852380D01*
X151824285Y-58804761D01*
X151776666Y-58757142D01*
X100952380Y-73976666D02*
X100476190Y-74310000D01*
X100952380Y-74548095D02*
X99952380Y-74548095D01*
X99952380Y-74167142D01*
X100000000Y-74071904D01*
X100047619Y-74024285D01*
X100142857Y-73976666D01*
X100285714Y-73976666D01*
X100380952Y-74024285D01*
X100428571Y-74071904D01*
X100476190Y-74167142D01*
X100476190Y-74548095D01*
X100285714Y-73119523D02*
X100952380Y-73119523D01*
X99904761Y-73357619D02*
X100619047Y-73595714D01*
X100619047Y-72976666D01*
X179952380Y-73976666D02*
X179476190Y-74310000D01*
X179952380Y-74548095D02*
X178952380Y-74548095D01*
X178952380Y-74167142D01*
X179000000Y-74071904D01*
X179047619Y-74024285D01*
X179142857Y-73976666D01*
X179285714Y-73976666D01*
X179380952Y-74024285D01*
X179428571Y-74071904D01*
X179476190Y-74167142D01*
X179476190Y-74548095D01*
X178952380Y-73071904D02*
X178952380Y-73548095D01*
X179428571Y-73595714D01*
X179380952Y-73548095D01*
X179333333Y-73452857D01*
X179333333Y-73214761D01*
X179380952Y-73119523D01*
X179428571Y-73071904D01*
X179523809Y-73024285D01*
X179761904Y-73024285D01*
X179857142Y-73071904D01*
X179904761Y-73119523D01*
X179952380Y-73214761D01*
X179952380Y-73452857D01*
X179904761Y-73548095D01*
X179857142Y-73595714D01*
X175452380Y-73976666D02*
X174976190Y-74310000D01*
X175452380Y-74548095D02*
X174452380Y-74548095D01*
X174452380Y-74167142D01*
X174500000Y-74071904D01*
X174547619Y-74024285D01*
X174642857Y-73976666D01*
X174785714Y-73976666D01*
X174880952Y-74024285D01*
X174928571Y-74071904D01*
X174976190Y-74167142D01*
X174976190Y-74548095D01*
X174452380Y-73643333D02*
X174452380Y-72976666D01*
X175452380Y-73405238D01*
X109452380Y-50976666D02*
X108976190Y-51310000D01*
X109452380Y-51548095D02*
X108452380Y-51548095D01*
X108452380Y-51167142D01*
X108500000Y-51071904D01*
X108547619Y-51024285D01*
X108642857Y-50976666D01*
X108785714Y-50976666D01*
X108880952Y-51024285D01*
X108928571Y-51071904D01*
X108976190Y-51167142D01*
X108976190Y-51548095D01*
X108880952Y-50405238D02*
X108833333Y-50500476D01*
X108785714Y-50548095D01*
X108690476Y-50595714D01*
X108642857Y-50595714D01*
X108547619Y-50548095D01*
X108500000Y-50500476D01*
X108452380Y-50405238D01*
X108452380Y-50214761D01*
X108500000Y-50119523D01*
X108547619Y-50071904D01*
X108642857Y-50024285D01*
X108690476Y-50024285D01*
X108785714Y-50071904D01*
X108833333Y-50119523D01*
X108880952Y-50214761D01*
X108880952Y-50405238D01*
X108928571Y-50500476D01*
X108976190Y-50548095D01*
X109071428Y-50595714D01*
X109261904Y-50595714D01*
X109357142Y-50548095D01*
X109404761Y-50500476D01*
X109452380Y-50405238D01*
X109452380Y-50214761D01*
X109404761Y-50119523D01*
X109357142Y-50071904D01*
X109261904Y-50024285D01*
X109071428Y-50024285D01*
X108976190Y-50071904D01*
X108928571Y-50119523D01*
X108880952Y-50214761D01*
X114452380Y-50976666D02*
X113976190Y-51310000D01*
X114452380Y-51548095D02*
X113452380Y-51548095D01*
X113452380Y-51167142D01*
X113500000Y-51071904D01*
X113547619Y-51024285D01*
X113642857Y-50976666D01*
X113785714Y-50976666D01*
X113880952Y-51024285D01*
X113928571Y-51071904D01*
X113976190Y-51167142D01*
X113976190Y-51548095D01*
X114452380Y-50500476D02*
X114452380Y-50310000D01*
X114404761Y-50214761D01*
X114357142Y-50167142D01*
X114214285Y-50071904D01*
X114023809Y-50024285D01*
X113642857Y-50024285D01*
X113547619Y-50071904D01*
X113500000Y-50119523D01*
X113452380Y-50214761D01*
X113452380Y-50405238D01*
X113500000Y-50500476D01*
X113547619Y-50548095D01*
X113642857Y-50595714D01*
X113880952Y-50595714D01*
X113976190Y-50548095D01*
X114023809Y-50500476D01*
X114071428Y-50405238D01*
X114071428Y-50214761D01*
X114023809Y-50119523D01*
X113976190Y-50071904D01*
X113880952Y-50024285D01*
X171452380Y-51452857D02*
X170976190Y-51786190D01*
X171452380Y-52024285D02*
X170452380Y-52024285D01*
X170452380Y-51643333D01*
X170500000Y-51548095D01*
X170547619Y-51500476D01*
X170642857Y-51452857D01*
X170785714Y-51452857D01*
X170880952Y-51500476D01*
X170928571Y-51548095D01*
X170976190Y-51643333D01*
X170976190Y-52024285D01*
X171452380Y-50500476D02*
X171452380Y-51071904D01*
X171452380Y-50786190D02*
X170452380Y-50786190D01*
X170595238Y-50881428D01*
X170690476Y-50976666D01*
X170738095Y-51071904D01*
X170452380Y-49881428D02*
X170452380Y-49786190D01*
X170500000Y-49690952D01*
X170547619Y-49643333D01*
X170642857Y-49595714D01*
X170833333Y-49548095D01*
X171071428Y-49548095D01*
X171261904Y-49595714D01*
X171357142Y-49643333D01*
X171404761Y-49690952D01*
X171452380Y-49786190D01*
X171452380Y-49881428D01*
X171404761Y-49976666D01*
X171357142Y-50024285D01*
X171261904Y-50071904D01*
X171071428Y-50119523D01*
X170833333Y-50119523D01*
X170642857Y-50071904D01*
X170547619Y-50024285D01*
X170500000Y-49976666D01*
X170452380Y-49881428D01*
X163547142Y-54452380D02*
X163213809Y-53976190D01*
X162975714Y-54452380D02*
X162975714Y-53452380D01*
X163356666Y-53452380D01*
X163451904Y-53500000D01*
X163499523Y-53547619D01*
X163547142Y-53642857D01*
X163547142Y-53785714D01*
X163499523Y-53880952D01*
X163451904Y-53928571D01*
X163356666Y-53976190D01*
X162975714Y-53976190D01*
X164499523Y-54452380D02*
X163928095Y-54452380D01*
X164213809Y-54452380D02*
X164213809Y-53452380D01*
X164118571Y-53595238D01*
X164023333Y-53690476D01*
X163928095Y-53738095D01*
X165451904Y-54452380D02*
X164880476Y-54452380D01*
X165166190Y-54452380D02*
X165166190Y-53452380D01*
X165070952Y-53595238D01*
X164975714Y-53690476D01*
X164880476Y-53738095D01*
X138547142Y-63352380D02*
X138213809Y-62876190D01*
X137975714Y-63352380D02*
X137975714Y-62352380D01*
X138356666Y-62352380D01*
X138451904Y-62400000D01*
X138499523Y-62447619D01*
X138547142Y-62542857D01*
X138547142Y-62685714D01*
X138499523Y-62780952D01*
X138451904Y-62828571D01*
X138356666Y-62876190D01*
X137975714Y-62876190D01*
X139499523Y-63352380D02*
X138928095Y-63352380D01*
X139213809Y-63352380D02*
X139213809Y-62352380D01*
X139118571Y-62495238D01*
X139023333Y-62590476D01*
X138928095Y-62638095D01*
X139880476Y-62447619D02*
X139928095Y-62400000D01*
X140023333Y-62352380D01*
X140261428Y-62352380D01*
X140356666Y-62400000D01*
X140404285Y-62447619D01*
X140451904Y-62542857D01*
X140451904Y-62638095D01*
X140404285Y-62780952D01*
X139832857Y-63352380D01*
X140451904Y-63352380D01*
X127567142Y-63352380D02*
X127233809Y-62876190D01*
X126995714Y-63352380D02*
X126995714Y-62352380D01*
X127376666Y-62352380D01*
X127471904Y-62400000D01*
X127519523Y-62447619D01*
X127567142Y-62542857D01*
X127567142Y-62685714D01*
X127519523Y-62780952D01*
X127471904Y-62828571D01*
X127376666Y-62876190D01*
X126995714Y-62876190D01*
X128519523Y-63352380D02*
X127948095Y-63352380D01*
X128233809Y-63352380D02*
X128233809Y-62352380D01*
X128138571Y-62495238D01*
X128043333Y-62590476D01*
X127948095Y-62638095D01*
X128852857Y-62352380D02*
X129471904Y-62352380D01*
X129138571Y-62733333D01*
X129281428Y-62733333D01*
X129376666Y-62780952D01*
X129424285Y-62828571D01*
X129471904Y-62923809D01*
X129471904Y-63161904D01*
X129424285Y-63257142D01*
X129376666Y-63304761D01*
X129281428Y-63352380D01*
X128995714Y-63352380D01*
X128900476Y-63304761D01*
X128852857Y-63257142D01*
X154452380Y-51452857D02*
X153976190Y-51786190D01*
X154452380Y-52024285D02*
X153452380Y-52024285D01*
X153452380Y-51643333D01*
X153500000Y-51548095D01*
X153547619Y-51500476D01*
X153642857Y-51452857D01*
X153785714Y-51452857D01*
X153880952Y-51500476D01*
X153928571Y-51548095D01*
X153976190Y-51643333D01*
X153976190Y-52024285D01*
X154452380Y-50500476D02*
X154452380Y-51071904D01*
X154452380Y-50786190D02*
X153452380Y-50786190D01*
X153595238Y-50881428D01*
X153690476Y-50976666D01*
X153738095Y-51071904D01*
X153785714Y-49643333D02*
X154452380Y-49643333D01*
X153404761Y-49881428D02*
X154119047Y-50119523D01*
X154119047Y-49500476D01*
X112467142Y-63752380D02*
X112133809Y-63276190D01*
X111895714Y-63752380D02*
X111895714Y-62752380D01*
X112276666Y-62752380D01*
X112371904Y-62800000D01*
X112419523Y-62847619D01*
X112467142Y-62942857D01*
X112467142Y-63085714D01*
X112419523Y-63180952D01*
X112371904Y-63228571D01*
X112276666Y-63276190D01*
X111895714Y-63276190D01*
X113419523Y-63752380D02*
X112848095Y-63752380D01*
X113133809Y-63752380D02*
X113133809Y-62752380D01*
X113038571Y-62895238D01*
X112943333Y-62990476D01*
X112848095Y-63038095D01*
X114324285Y-62752380D02*
X113848095Y-62752380D01*
X113800476Y-63228571D01*
X113848095Y-63180952D01*
X113943333Y-63133333D01*
X114181428Y-63133333D01*
X114276666Y-63180952D01*
X114324285Y-63228571D01*
X114371904Y-63323809D01*
X114371904Y-63561904D01*
X114324285Y-63657142D01*
X114276666Y-63704761D01*
X114181428Y-63752380D01*
X113943333Y-63752380D01*
X113848095Y-63704761D01*
X113800476Y-63657142D01*
X119452380Y-51452857D02*
X118976190Y-51786190D01*
X119452380Y-52024285D02*
X118452380Y-52024285D01*
X118452380Y-51643333D01*
X118500000Y-51548095D01*
X118547619Y-51500476D01*
X118642857Y-51452857D01*
X118785714Y-51452857D01*
X118880952Y-51500476D01*
X118928571Y-51548095D01*
X118976190Y-51643333D01*
X118976190Y-52024285D01*
X119452380Y-50500476D02*
X119452380Y-51071904D01*
X119452380Y-50786190D02*
X118452380Y-50786190D01*
X118595238Y-50881428D01*
X118690476Y-50976666D01*
X118738095Y-51071904D01*
X118452380Y-49643333D02*
X118452380Y-49833809D01*
X118500000Y-49929047D01*
X118547619Y-49976666D01*
X118690476Y-50071904D01*
X118880952Y-50119523D01*
X119261904Y-50119523D01*
X119357142Y-50071904D01*
X119404761Y-50024285D01*
X119452380Y-49929047D01*
X119452380Y-49738571D01*
X119404761Y-49643333D01*
X119357142Y-49595714D01*
X119261904Y-49548095D01*
X119023809Y-49548095D01*
X118928571Y-49595714D01*
X118880952Y-49643333D01*
X118833333Y-49738571D01*
X118833333Y-49929047D01*
X118880952Y-50024285D01*
X118928571Y-50071904D01*
X119023809Y-50119523D01*
X120604761Y-76652380D02*
X120271428Y-76176190D01*
X120033333Y-76652380D02*
X120033333Y-75652380D01*
X120414285Y-75652380D01*
X120509523Y-75700000D01*
X120557142Y-75747619D01*
X120604761Y-75842857D01*
X120604761Y-75985714D01*
X120557142Y-76080952D01*
X120509523Y-76128571D01*
X120414285Y-76176190D01*
X120033333Y-76176190D01*
X120890476Y-75652380D02*
X121223809Y-76652380D01*
X121557142Y-75652380D01*
X122414285Y-76652380D02*
X121842857Y-76652380D01*
X122128571Y-76652380D02*
X122128571Y-75652380D01*
X122033333Y-75795238D01*
X121938095Y-75890476D01*
X121842857Y-75938095D01*
X130757142Y-74366666D02*
X130804761Y-74414285D01*
X130852380Y-74557142D01*
X130852380Y-74652380D01*
X130804761Y-74795238D01*
X130709523Y-74890476D01*
X130614285Y-74938095D01*
X130423809Y-74985714D01*
X130280952Y-74985714D01*
X130090476Y-74938095D01*
X129995238Y-74890476D01*
X129900000Y-74795238D01*
X129852380Y-74652380D01*
X129852380Y-74557142D01*
X129900000Y-74414285D01*
X129947619Y-74366666D01*
X130185714Y-73509523D02*
X130852380Y-73509523D01*
X129804761Y-73747619D02*
X130519047Y-73985714D01*
X130519047Y-73366666D01*
X134502380Y-74761904D02*
X135311904Y-74761904D01*
X135407142Y-74714285D01*
X135454761Y-74666666D01*
X135502380Y-74571428D01*
X135502380Y-74380952D01*
X135454761Y-74285714D01*
X135407142Y-74238095D01*
X135311904Y-74190476D01*
X134502380Y-74190476D01*
X135502380Y-73190476D02*
X135502380Y-73761904D01*
X135502380Y-73476190D02*
X134502380Y-73476190D01*
X134645238Y-73571428D01*
X134740476Y-73666666D01*
X134788095Y-73761904D01*
X103266190Y-51351597D02*
X103266190Y-52066905D01*
X103218502Y-52209966D01*
X103123128Y-52305340D01*
X102980067Y-52353027D01*
X102884692Y-52353027D01*
X104267620Y-52353027D02*
X103695374Y-52353027D01*
X103981497Y-52353027D02*
X103981497Y-51351597D01*
X103886122Y-51494659D01*
X103790748Y-51590033D01*
X103695374Y-51637720D01*
X187666190Y-52851597D02*
X187666190Y-53566905D01*
X187618502Y-53709966D01*
X187523128Y-53805340D01*
X187380067Y-53853027D01*
X187284692Y-53853027D01*
X188095374Y-52946972D02*
X188143061Y-52899285D01*
X188238435Y-52851597D01*
X188476871Y-52851597D01*
X188572245Y-52899285D01*
X188619932Y-52946972D01*
X188667620Y-53042346D01*
X188667620Y-53137720D01*
X188619932Y-53280782D01*
X188047687Y-53853027D01*
X188667620Y-53853027D01*
M02*
