G04 #@! TF.GenerationSoftware,KiCad,Pcbnew,(5.1.4-0-10_14)*
G04 #@! TF.CreationDate,2021-06-29T12:17:26+12:00*
G04 #@! TF.ProjectId,two_comparator_effect,74776f5f-636f-46d7-9061-7261746f725f,rev?*
G04 #@! TF.SameCoordinates,Original*
G04 #@! TF.FileFunction,Legend,Bot*
G04 #@! TF.FilePolarity,Positive*
%FSLAX46Y46*%
G04 Gerber Fmt 4.6, Leading zero omitted, Abs format (unit mm)*
G04 Created by KiCad (PCBNEW (5.1.4-0-10_14)) date 2021-06-29 12:17:26*
%MOMM*%
%LPD*%
G04 APERTURE LIST*
%ADD10C,0.200000*%
%ADD11C,0.500000*%
G04 APERTURE END LIST*
D10*
X174028571Y-63542857D02*
X174028571Y-64342857D01*
X174542857Y-63542857D02*
X174542857Y-64171428D01*
X174485714Y-64285714D01*
X174371428Y-64342857D01*
X174200000Y-64342857D01*
X174085714Y-64285714D01*
X174028571Y-64228571D01*
X173457142Y-63542857D02*
X173457142Y-64342857D01*
X173457142Y-63657142D02*
X173400000Y-63600000D01*
X173285714Y-63542857D01*
X173114285Y-63542857D01*
X173000000Y-63600000D01*
X172942857Y-63714285D01*
X172942857Y-64342857D01*
X171857142Y-64342857D02*
X171857142Y-63142857D01*
X171857142Y-64285714D02*
X171971428Y-64342857D01*
X172200000Y-64342857D01*
X172314285Y-64285714D01*
X172371428Y-64228571D01*
X172428571Y-64114285D01*
X172428571Y-63771428D01*
X172371428Y-63657142D01*
X172314285Y-63600000D01*
X172200000Y-63542857D01*
X171971428Y-63542857D01*
X171857142Y-63600000D01*
X170828571Y-64285714D02*
X170942857Y-64342857D01*
X171171428Y-64342857D01*
X171285714Y-64285714D01*
X171342857Y-64171428D01*
X171342857Y-63714285D01*
X171285714Y-63600000D01*
X171171428Y-63542857D01*
X170942857Y-63542857D01*
X170828571Y-63600000D01*
X170771428Y-63714285D01*
X170771428Y-63828571D01*
X171342857Y-63942857D01*
X170257142Y-64342857D02*
X170257142Y-63542857D01*
X170257142Y-63771428D02*
X170200000Y-63657142D01*
X170142857Y-63600000D01*
X170028571Y-63542857D01*
X169914285Y-63542857D01*
X169571428Y-64285714D02*
X169457142Y-64342857D01*
X169228571Y-64342857D01*
X169114285Y-64285714D01*
X169057142Y-64171428D01*
X169057142Y-64114285D01*
X169114285Y-64000000D01*
X169228571Y-63942857D01*
X169400000Y-63942857D01*
X169514285Y-63885714D01*
X169571428Y-63771428D01*
X169571428Y-63714285D01*
X169514285Y-63600000D01*
X169400000Y-63542857D01*
X169228571Y-63542857D01*
X169114285Y-63600000D01*
X168028571Y-64285714D02*
X168142857Y-64342857D01*
X168371428Y-64342857D01*
X168485714Y-64285714D01*
X168542857Y-64228571D01*
X168600000Y-64114285D01*
X168600000Y-63771428D01*
X168542857Y-63657142D01*
X168485714Y-63600000D01*
X168371428Y-63542857D01*
X168142857Y-63542857D01*
X168028571Y-63600000D01*
X167342857Y-64342857D02*
X167457142Y-64285714D01*
X167514285Y-64228571D01*
X167571428Y-64114285D01*
X167571428Y-63771428D01*
X167514285Y-63657142D01*
X167457142Y-63600000D01*
X167342857Y-63542857D01*
X167171428Y-63542857D01*
X167057142Y-63600000D01*
X167000000Y-63657142D01*
X166942857Y-63771428D01*
X166942857Y-64114285D01*
X167000000Y-64228571D01*
X167057142Y-64285714D01*
X167171428Y-64342857D01*
X167342857Y-64342857D01*
X166428571Y-64342857D02*
X166428571Y-63542857D01*
X166428571Y-63771428D02*
X166371428Y-63657142D01*
X166314285Y-63600000D01*
X166200000Y-63542857D01*
X166085714Y-63542857D01*
X165228571Y-64285714D02*
X165342857Y-64342857D01*
X165571428Y-64342857D01*
X165685714Y-64285714D01*
X165742857Y-64171428D01*
X165742857Y-63714285D01*
X165685714Y-63600000D01*
X165571428Y-63542857D01*
X165342857Y-63542857D01*
X165228571Y-63600000D01*
X165171428Y-63714285D01*
X165171428Y-63828571D01*
X165742857Y-63942857D01*
X164714285Y-64285714D02*
X164600000Y-64342857D01*
X164371428Y-64342857D01*
X164257142Y-64285714D01*
X164200000Y-64171428D01*
X164200000Y-64114285D01*
X164257142Y-64000000D01*
X164371428Y-63942857D01*
X164542857Y-63942857D01*
X164657142Y-63885714D01*
X164714285Y-63771428D01*
X164714285Y-63714285D01*
X164657142Y-63600000D01*
X164542857Y-63542857D01*
X164371428Y-63542857D01*
X164257142Y-63600000D01*
X163685714Y-64228571D02*
X163628571Y-64285714D01*
X163685714Y-64342857D01*
X163742857Y-64285714D01*
X163685714Y-64228571D01*
X163685714Y-64342857D01*
X163171428Y-64285714D02*
X163057142Y-64342857D01*
X162828571Y-64342857D01*
X162714285Y-64285714D01*
X162657142Y-64171428D01*
X162657142Y-64114285D01*
X162714285Y-64000000D01*
X162828571Y-63942857D01*
X163000000Y-63942857D01*
X163114285Y-63885714D01*
X163171428Y-63771428D01*
X163171428Y-63714285D01*
X163114285Y-63600000D01*
X163000000Y-63542857D01*
X162828571Y-63542857D01*
X162714285Y-63600000D01*
X162142857Y-64342857D02*
X162142857Y-63142857D01*
X161628571Y-64342857D02*
X161628571Y-63714285D01*
X161685714Y-63600000D01*
X161800000Y-63542857D01*
X161971428Y-63542857D01*
X162085714Y-63600000D01*
X162142857Y-63657142D01*
X160885714Y-64342857D02*
X161000000Y-64285714D01*
X161057142Y-64228571D01*
X161114285Y-64114285D01*
X161114285Y-63771428D01*
X161057142Y-63657142D01*
X161000000Y-63600000D01*
X160885714Y-63542857D01*
X160714285Y-63542857D01*
X160600000Y-63600000D01*
X160542857Y-63657142D01*
X160485714Y-63771428D01*
X160485714Y-64114285D01*
X160542857Y-64228571D01*
X160600000Y-64285714D01*
X160714285Y-64342857D01*
X160885714Y-64342857D01*
X159971428Y-63542857D02*
X159971428Y-64742857D01*
X159971428Y-63600000D02*
X159857142Y-63542857D01*
X159628571Y-63542857D01*
X159514285Y-63600000D01*
X159457142Y-63657142D01*
X159400000Y-63771428D01*
X159400000Y-64114285D01*
X159457142Y-64228571D01*
X159514285Y-64285714D01*
X159628571Y-64342857D01*
X159857142Y-64342857D01*
X159971428Y-64285714D01*
D11*
X174400000Y-61790476D02*
X171352380Y-61790476D01*
X170971428Y-57790476D02*
X170209523Y-57219047D01*
X169447619Y-57790476D01*
X164304761Y-57409523D02*
X163923809Y-57409523D01*
X163542857Y-57600000D01*
X163352380Y-57790476D01*
X163161904Y-58171428D01*
X162971428Y-58933333D01*
X162971428Y-59885714D01*
X163161904Y-60647619D01*
X163352380Y-61028571D01*
X163542857Y-61219047D01*
X163923809Y-61409523D01*
X164304761Y-61409523D01*
X164685714Y-61219047D01*
X164876190Y-61028571D01*
X165066666Y-60647619D01*
X165257142Y-59885714D01*
X165257142Y-58933333D01*
X165066666Y-58171428D01*
X164876190Y-57790476D01*
X164685714Y-57600000D01*
X164304761Y-57409523D01*
X159352380Y-57409523D02*
X161257142Y-57409523D01*
X161447619Y-59314285D01*
X161257142Y-59123809D01*
X160876190Y-58933333D01*
X159923809Y-58933333D01*
X159542857Y-59123809D01*
X159352380Y-59314285D01*
X159161904Y-59695238D01*
X159161904Y-60647619D01*
X159352380Y-61028571D01*
X159542857Y-61219047D01*
X159923809Y-61409523D01*
X160876190Y-61409523D01*
X161257142Y-61219047D01*
X161447619Y-61028571D01*
M02*
