G04 #@! TF.GenerationSoftware,KiCad,Pcbnew,(5.1.4-0-10_14)*
G04 #@! TF.CreationDate,2021-06-29T12:17:26+12:00*
G04 #@! TF.ProjectId,two_comparator_effect,74776f5f-636f-46d7-9061-7261746f725f,rev?*
G04 #@! TF.SameCoordinates,Original*
G04 #@! TF.FileFunction,Copper,L2,Bot*
G04 #@! TF.FilePolarity,Positive*
%FSLAX46Y46*%
G04 Gerber Fmt 4.6, Leading zero omitted, Abs format (unit mm)*
G04 Created by KiCad (PCBNEW (5.1.4-0-10_14)) date 2021-06-29 12:17:26*
%MOMM*%
%LPD*%
G04 APERTURE LIST*
%ADD10O,1.600000X1.600000*%
%ADD11C,1.600000*%
%ADD12C,1.800000*%
%ADD13C,4.000000*%
%ADD14R,1.100000X1.800000*%
%ADD15C,0.100000*%
%ADD16C,1.100000*%
%ADD17R,1.800000X1.800000*%
%ADD18O,1.800000X1.800000*%
%ADD19R,3.500000X3.500000*%
%ADD20C,3.000000*%
%ADD21C,3.500000*%
%ADD22R,1.600000X2.400000*%
%ADD23O,1.600000X2.400000*%
%ADD24C,2.550000*%
%ADD25C,0.250000*%
%ADD26C,0.500000*%
%ADD27C,0.254000*%
G04 APERTURE END LIST*
D10*
X147680000Y-62800000D03*
D11*
X155300000Y-62800000D03*
D12*
X156300000Y-78100000D03*
X158800000Y-78100000D03*
X161300000Y-78100000D03*
D13*
X154050000Y-70600000D03*
X163550000Y-70600000D03*
D14*
X127000000Y-51400000D03*
D15*
G36*
X129841955Y-50501324D02*
G01*
X129868650Y-50505284D01*
X129894828Y-50511841D01*
X129920238Y-50520933D01*
X129944634Y-50532472D01*
X129967782Y-50546346D01*
X129989458Y-50562422D01*
X130009454Y-50580546D01*
X130027578Y-50600542D01*
X130043654Y-50622218D01*
X130057528Y-50645366D01*
X130069067Y-50669762D01*
X130078159Y-50695172D01*
X130084716Y-50721350D01*
X130088676Y-50748045D01*
X130090000Y-50775000D01*
X130090000Y-52025000D01*
X130088676Y-52051955D01*
X130084716Y-52078650D01*
X130078159Y-52104828D01*
X130069067Y-52130238D01*
X130057528Y-52154634D01*
X130043654Y-52177782D01*
X130027578Y-52199458D01*
X130009454Y-52219454D01*
X129989458Y-52237578D01*
X129967782Y-52253654D01*
X129944634Y-52267528D01*
X129920238Y-52279067D01*
X129894828Y-52288159D01*
X129868650Y-52294716D01*
X129841955Y-52298676D01*
X129815000Y-52300000D01*
X129265000Y-52300000D01*
X129238045Y-52298676D01*
X129211350Y-52294716D01*
X129185172Y-52288159D01*
X129159762Y-52279067D01*
X129135366Y-52267528D01*
X129112218Y-52253654D01*
X129090542Y-52237578D01*
X129070546Y-52219454D01*
X129052422Y-52199458D01*
X129036346Y-52177782D01*
X129022472Y-52154634D01*
X129010933Y-52130238D01*
X129001841Y-52104828D01*
X128995284Y-52078650D01*
X128991324Y-52051955D01*
X128990000Y-52025000D01*
X128990000Y-50775000D01*
X128991324Y-50748045D01*
X128995284Y-50721350D01*
X129001841Y-50695172D01*
X129010933Y-50669762D01*
X129022472Y-50645366D01*
X129036346Y-50622218D01*
X129052422Y-50600542D01*
X129070546Y-50580546D01*
X129090542Y-50562422D01*
X129112218Y-50546346D01*
X129135366Y-50532472D01*
X129159762Y-50520933D01*
X129185172Y-50511841D01*
X129211350Y-50505284D01*
X129238045Y-50501324D01*
X129265000Y-50500000D01*
X129815000Y-50500000D01*
X129841955Y-50501324D01*
X129841955Y-50501324D01*
G37*
D16*
X129540000Y-51400000D03*
D15*
G36*
X128571955Y-48431324D02*
G01*
X128598650Y-48435284D01*
X128624828Y-48441841D01*
X128650238Y-48450933D01*
X128674634Y-48462472D01*
X128697782Y-48476346D01*
X128719458Y-48492422D01*
X128739454Y-48510546D01*
X128757578Y-48530542D01*
X128773654Y-48552218D01*
X128787528Y-48575366D01*
X128799067Y-48599762D01*
X128808159Y-48625172D01*
X128814716Y-48651350D01*
X128818676Y-48678045D01*
X128820000Y-48705000D01*
X128820000Y-49955000D01*
X128818676Y-49981955D01*
X128814716Y-50008650D01*
X128808159Y-50034828D01*
X128799067Y-50060238D01*
X128787528Y-50084634D01*
X128773654Y-50107782D01*
X128757578Y-50129458D01*
X128739454Y-50149454D01*
X128719458Y-50167578D01*
X128697782Y-50183654D01*
X128674634Y-50197528D01*
X128650238Y-50209067D01*
X128624828Y-50218159D01*
X128598650Y-50224716D01*
X128571955Y-50228676D01*
X128545000Y-50230000D01*
X127995000Y-50230000D01*
X127968045Y-50228676D01*
X127941350Y-50224716D01*
X127915172Y-50218159D01*
X127889762Y-50209067D01*
X127865366Y-50197528D01*
X127842218Y-50183654D01*
X127820542Y-50167578D01*
X127800546Y-50149454D01*
X127782422Y-50129458D01*
X127766346Y-50107782D01*
X127752472Y-50084634D01*
X127740933Y-50060238D01*
X127731841Y-50034828D01*
X127725284Y-50008650D01*
X127721324Y-49981955D01*
X127720000Y-49955000D01*
X127720000Y-48705000D01*
X127721324Y-48678045D01*
X127725284Y-48651350D01*
X127731841Y-48625172D01*
X127740933Y-48599762D01*
X127752472Y-48575366D01*
X127766346Y-48552218D01*
X127782422Y-48530542D01*
X127800546Y-48510546D01*
X127820542Y-48492422D01*
X127842218Y-48476346D01*
X127865366Y-48462472D01*
X127889762Y-48450933D01*
X127915172Y-48441841D01*
X127941350Y-48435284D01*
X127968045Y-48431324D01*
X127995000Y-48430000D01*
X128545000Y-48430000D01*
X128571955Y-48431324D01*
X128571955Y-48431324D01*
G37*
D16*
X128270000Y-49330000D03*
D14*
X164000000Y-49400000D03*
D15*
G36*
X166841955Y-48501324D02*
G01*
X166868650Y-48505284D01*
X166894828Y-48511841D01*
X166920238Y-48520933D01*
X166944634Y-48532472D01*
X166967782Y-48546346D01*
X166989458Y-48562422D01*
X167009454Y-48580546D01*
X167027578Y-48600542D01*
X167043654Y-48622218D01*
X167057528Y-48645366D01*
X167069067Y-48669762D01*
X167078159Y-48695172D01*
X167084716Y-48721350D01*
X167088676Y-48748045D01*
X167090000Y-48775000D01*
X167090000Y-50025000D01*
X167088676Y-50051955D01*
X167084716Y-50078650D01*
X167078159Y-50104828D01*
X167069067Y-50130238D01*
X167057528Y-50154634D01*
X167043654Y-50177782D01*
X167027578Y-50199458D01*
X167009454Y-50219454D01*
X166989458Y-50237578D01*
X166967782Y-50253654D01*
X166944634Y-50267528D01*
X166920238Y-50279067D01*
X166894828Y-50288159D01*
X166868650Y-50294716D01*
X166841955Y-50298676D01*
X166815000Y-50300000D01*
X166265000Y-50300000D01*
X166238045Y-50298676D01*
X166211350Y-50294716D01*
X166185172Y-50288159D01*
X166159762Y-50279067D01*
X166135366Y-50267528D01*
X166112218Y-50253654D01*
X166090542Y-50237578D01*
X166070546Y-50219454D01*
X166052422Y-50199458D01*
X166036346Y-50177782D01*
X166022472Y-50154634D01*
X166010933Y-50130238D01*
X166001841Y-50104828D01*
X165995284Y-50078650D01*
X165991324Y-50051955D01*
X165990000Y-50025000D01*
X165990000Y-48775000D01*
X165991324Y-48748045D01*
X165995284Y-48721350D01*
X166001841Y-48695172D01*
X166010933Y-48669762D01*
X166022472Y-48645366D01*
X166036346Y-48622218D01*
X166052422Y-48600542D01*
X166070546Y-48580546D01*
X166090542Y-48562422D01*
X166112218Y-48546346D01*
X166135366Y-48532472D01*
X166159762Y-48520933D01*
X166185172Y-48511841D01*
X166211350Y-48505284D01*
X166238045Y-48501324D01*
X166265000Y-48500000D01*
X166815000Y-48500000D01*
X166841955Y-48501324D01*
X166841955Y-48501324D01*
G37*
D16*
X166540000Y-49400000D03*
D15*
G36*
X165571955Y-46431324D02*
G01*
X165598650Y-46435284D01*
X165624828Y-46441841D01*
X165650238Y-46450933D01*
X165674634Y-46462472D01*
X165697782Y-46476346D01*
X165719458Y-46492422D01*
X165739454Y-46510546D01*
X165757578Y-46530542D01*
X165773654Y-46552218D01*
X165787528Y-46575366D01*
X165799067Y-46599762D01*
X165808159Y-46625172D01*
X165814716Y-46651350D01*
X165818676Y-46678045D01*
X165820000Y-46705000D01*
X165820000Y-47955000D01*
X165818676Y-47981955D01*
X165814716Y-48008650D01*
X165808159Y-48034828D01*
X165799067Y-48060238D01*
X165787528Y-48084634D01*
X165773654Y-48107782D01*
X165757578Y-48129458D01*
X165739454Y-48149454D01*
X165719458Y-48167578D01*
X165697782Y-48183654D01*
X165674634Y-48197528D01*
X165650238Y-48209067D01*
X165624828Y-48218159D01*
X165598650Y-48224716D01*
X165571955Y-48228676D01*
X165545000Y-48230000D01*
X164995000Y-48230000D01*
X164968045Y-48228676D01*
X164941350Y-48224716D01*
X164915172Y-48218159D01*
X164889762Y-48209067D01*
X164865366Y-48197528D01*
X164842218Y-48183654D01*
X164820542Y-48167578D01*
X164800546Y-48149454D01*
X164782422Y-48129458D01*
X164766346Y-48107782D01*
X164752472Y-48084634D01*
X164740933Y-48060238D01*
X164731841Y-48034828D01*
X164725284Y-48008650D01*
X164721324Y-47981955D01*
X164720000Y-47955000D01*
X164720000Y-46705000D01*
X164721324Y-46678045D01*
X164725284Y-46651350D01*
X164731841Y-46625172D01*
X164740933Y-46599762D01*
X164752472Y-46575366D01*
X164766346Y-46552218D01*
X164782422Y-46530542D01*
X164800546Y-46510546D01*
X164820542Y-46492422D01*
X164842218Y-46476346D01*
X164865366Y-46462472D01*
X164889762Y-46450933D01*
X164915172Y-46441841D01*
X164941350Y-46435284D01*
X164968045Y-46431324D01*
X164995000Y-46430000D01*
X165545000Y-46430000D01*
X165571955Y-46431324D01*
X165571955Y-46431324D01*
G37*
D16*
X165270000Y-47330000D03*
D11*
X96100000Y-65700000D03*
X101100000Y-65700000D03*
X170400000Y-75000000D03*
X170400000Y-70000000D03*
X119750000Y-59000000D03*
X114750000Y-59000000D03*
D17*
X124500000Y-59000000D03*
D18*
X132120000Y-59000000D03*
D19*
X140000000Y-55000000D03*
D15*
G36*
X141073513Y-47503611D02*
G01*
X141146318Y-47514411D01*
X141217714Y-47532295D01*
X141287013Y-47557090D01*
X141353548Y-47588559D01*
X141416678Y-47626398D01*
X141475795Y-47670242D01*
X141530330Y-47719670D01*
X141579758Y-47774205D01*
X141623602Y-47833322D01*
X141661441Y-47896452D01*
X141692910Y-47962987D01*
X141717705Y-48032286D01*
X141735589Y-48103682D01*
X141746389Y-48176487D01*
X141750000Y-48250000D01*
X141750000Y-49750000D01*
X141746389Y-49823513D01*
X141735589Y-49896318D01*
X141717705Y-49967714D01*
X141692910Y-50037013D01*
X141661441Y-50103548D01*
X141623602Y-50166678D01*
X141579758Y-50225795D01*
X141530330Y-50280330D01*
X141475795Y-50329758D01*
X141416678Y-50373602D01*
X141353548Y-50411441D01*
X141287013Y-50442910D01*
X141217714Y-50467705D01*
X141146318Y-50485589D01*
X141073513Y-50496389D01*
X141000000Y-50500000D01*
X139000000Y-50500000D01*
X138926487Y-50496389D01*
X138853682Y-50485589D01*
X138782286Y-50467705D01*
X138712987Y-50442910D01*
X138646452Y-50411441D01*
X138583322Y-50373602D01*
X138524205Y-50329758D01*
X138469670Y-50280330D01*
X138420242Y-50225795D01*
X138376398Y-50166678D01*
X138338559Y-50103548D01*
X138307090Y-50037013D01*
X138282295Y-49967714D01*
X138264411Y-49896318D01*
X138253611Y-49823513D01*
X138250000Y-49750000D01*
X138250000Y-48250000D01*
X138253611Y-48176487D01*
X138264411Y-48103682D01*
X138282295Y-48032286D01*
X138307090Y-47962987D01*
X138338559Y-47896452D01*
X138376398Y-47833322D01*
X138420242Y-47774205D01*
X138469670Y-47719670D01*
X138524205Y-47670242D01*
X138583322Y-47626398D01*
X138646452Y-47588559D01*
X138712987Y-47557090D01*
X138782286Y-47532295D01*
X138853682Y-47514411D01*
X138926487Y-47503611D01*
X139000000Y-47500000D01*
X141000000Y-47500000D01*
X141073513Y-47503611D01*
X141073513Y-47503611D01*
G37*
D20*
X140000000Y-49000000D03*
D15*
G36*
X136260765Y-50254213D02*
G01*
X136345704Y-50266813D01*
X136428999Y-50287677D01*
X136509848Y-50316605D01*
X136587472Y-50353319D01*
X136661124Y-50397464D01*
X136730094Y-50448616D01*
X136793718Y-50506282D01*
X136851384Y-50569906D01*
X136902536Y-50638876D01*
X136946681Y-50712528D01*
X136983395Y-50790152D01*
X137012323Y-50871001D01*
X137033187Y-50954296D01*
X137045787Y-51039235D01*
X137050000Y-51125000D01*
X137050000Y-52875000D01*
X137045787Y-52960765D01*
X137033187Y-53045704D01*
X137012323Y-53128999D01*
X136983395Y-53209848D01*
X136946681Y-53287472D01*
X136902536Y-53361124D01*
X136851384Y-53430094D01*
X136793718Y-53493718D01*
X136730094Y-53551384D01*
X136661124Y-53602536D01*
X136587472Y-53646681D01*
X136509848Y-53683395D01*
X136428999Y-53712323D01*
X136345704Y-53733187D01*
X136260765Y-53745787D01*
X136175000Y-53750000D01*
X134425000Y-53750000D01*
X134339235Y-53745787D01*
X134254296Y-53733187D01*
X134171001Y-53712323D01*
X134090152Y-53683395D01*
X134012528Y-53646681D01*
X133938876Y-53602536D01*
X133869906Y-53551384D01*
X133806282Y-53493718D01*
X133748616Y-53430094D01*
X133697464Y-53361124D01*
X133653319Y-53287472D01*
X133616605Y-53209848D01*
X133587677Y-53128999D01*
X133566813Y-53045704D01*
X133554213Y-52960765D01*
X133550000Y-52875000D01*
X133550000Y-51125000D01*
X133554213Y-51039235D01*
X133566813Y-50954296D01*
X133587677Y-50871001D01*
X133616605Y-50790152D01*
X133653319Y-50712528D01*
X133697464Y-50638876D01*
X133748616Y-50569906D01*
X133806282Y-50506282D01*
X133869906Y-50448616D01*
X133938876Y-50397464D01*
X134012528Y-50353319D01*
X134090152Y-50316605D01*
X134171001Y-50287677D01*
X134254296Y-50266813D01*
X134339235Y-50254213D01*
X134425000Y-50250000D01*
X136175000Y-50250000D01*
X136260765Y-50254213D01*
X136260765Y-50254213D01*
G37*
D21*
X135300000Y-52000000D03*
D11*
X105000000Y-70100000D03*
D10*
X105000000Y-77720000D03*
X149000000Y-54620000D03*
D11*
X149000000Y-47000000D03*
X147800000Y-58400000D03*
D10*
X155420000Y-58400000D03*
X100500000Y-77620000D03*
D11*
X100500000Y-70000000D03*
D10*
X179500000Y-77620000D03*
D11*
X179500000Y-70000000D03*
X175000000Y-70000000D03*
D10*
X175000000Y-77620000D03*
D11*
X109000000Y-47000000D03*
D10*
X109000000Y-54620000D03*
X114000000Y-54620000D03*
D11*
X114000000Y-47000000D03*
D10*
X171000000Y-54620000D03*
D11*
X171000000Y-47000000D03*
X168000000Y-54000000D03*
D10*
X160380000Y-54000000D03*
D11*
X143000000Y-62900000D03*
D10*
X135380000Y-62900000D03*
D11*
X124400000Y-62900000D03*
D10*
X132020000Y-62900000D03*
X154000000Y-54620000D03*
D11*
X154000000Y-47000000D03*
D10*
X116920000Y-63300000D03*
D11*
X109300000Y-63300000D03*
X119250000Y-47000000D03*
D10*
X119250000Y-54620000D03*
D13*
X125950000Y-70700000D03*
X116450000Y-70700000D03*
D12*
X123700000Y-78200000D03*
X121200000Y-78200000D03*
X118700000Y-78200000D03*
D11*
X130400000Y-71700000D03*
X130400000Y-76700000D03*
D22*
X134100000Y-77900000D03*
D23*
X149340000Y-70280000D03*
X136640000Y-77900000D03*
X146800000Y-70280000D03*
X139180000Y-77900000D03*
X144260000Y-70280000D03*
X141720000Y-77900000D03*
X141720000Y-70280000D03*
X144260000Y-77900000D03*
X139180000Y-70280000D03*
X146800000Y-77900000D03*
X136640000Y-70280000D03*
X149340000Y-77900000D03*
X134100000Y-70280000D03*
D20*
X93750000Y-56600000D03*
X104050000Y-56600000D03*
D24*
X98900000Y-55000000D03*
X181200000Y-55500000D03*
D20*
X186350000Y-57100000D03*
X176050000Y-57100000D03*
D25*
X141720000Y-70680000D02*
X141720000Y-70280000D01*
X144260000Y-73220000D02*
X141720000Y-70680000D01*
X144260000Y-77900000D02*
X144260000Y-73220000D01*
X119750000Y-59000000D02*
X124500000Y-59000000D01*
D26*
X125520000Y-47000000D02*
X119250000Y-47000000D01*
X128270000Y-49750000D02*
X125520000Y-47000000D01*
X128270000Y-51000000D02*
X128270000Y-49750000D01*
X128270000Y-55150000D02*
X132120000Y-59000000D01*
X128270000Y-51000000D02*
X128270000Y-55150000D01*
X132120000Y-59640000D02*
X132120000Y-59000000D01*
X135380000Y-62900000D02*
X132120000Y-59640000D01*
X129540000Y-51225000D02*
X129540000Y-51000000D01*
X133315000Y-55000000D02*
X129540000Y-51225000D01*
X140000000Y-55000000D02*
X133315000Y-55000000D01*
X147868630Y-47000000D02*
X149000000Y-47000000D01*
X140000000Y-52750000D02*
X145750000Y-47000000D01*
X145750000Y-47000000D02*
X147868630Y-47000000D01*
X140000000Y-55000000D02*
X140000000Y-52750000D01*
X140000000Y-55000000D02*
X140000000Y-56200000D01*
X179500000Y-57663998D02*
X179500000Y-68868630D01*
X179500000Y-68868630D02*
X179500000Y-70000000D01*
X170836002Y-49000000D02*
X179500000Y-57663998D01*
X166540000Y-49000000D02*
X170836002Y-49000000D01*
X166540000Y-46674680D02*
X166540000Y-47750000D01*
X166540000Y-47750000D02*
X166540000Y-49000000D01*
X165365320Y-45500000D02*
X166540000Y-46674680D01*
X150500000Y-45500000D02*
X165365320Y-45500000D01*
X149000000Y-47000000D02*
X150500000Y-45500000D01*
X140000000Y-60130002D02*
X133830002Y-66300000D01*
X108800000Y-66300000D02*
X105000000Y-70100000D01*
X140000000Y-55000000D02*
X140000000Y-60130002D01*
X130400000Y-66400000D02*
X130400000Y-71700000D01*
X130500000Y-66300000D02*
X130400000Y-66400000D01*
X133830002Y-66300000D02*
X130500000Y-66300000D01*
X130500000Y-66300000D02*
X108800000Y-66300000D01*
X131199999Y-72499999D02*
X130400000Y-71700000D01*
X137880000Y-76200000D02*
X134900000Y-76200000D01*
X134900000Y-76200000D02*
X131199999Y-72499999D01*
X139180000Y-77500000D02*
X137880000Y-76200000D01*
X139180000Y-77900000D02*
X139180000Y-77500000D01*
D27*
G36*
X189340001Y-79340000D02*
G01*
X162207135Y-79340000D01*
X162278505Y-79292312D01*
X162492312Y-79078505D01*
X162660299Y-78827095D01*
X162776011Y-78547743D01*
X162835000Y-78251184D01*
X162835000Y-77948816D01*
X162776011Y-77652257D01*
X162762650Y-77620000D01*
X173558057Y-77620000D01*
X173585764Y-77901309D01*
X173667818Y-78171808D01*
X173801068Y-78421101D01*
X173980392Y-78639608D01*
X174198899Y-78818932D01*
X174448192Y-78952182D01*
X174718691Y-79034236D01*
X174929508Y-79055000D01*
X175070492Y-79055000D01*
X175281309Y-79034236D01*
X175551808Y-78952182D01*
X175801101Y-78818932D01*
X176019608Y-78639608D01*
X176198932Y-78421101D01*
X176332182Y-78171808D01*
X176414236Y-77901309D01*
X176441943Y-77620000D01*
X178058057Y-77620000D01*
X178085764Y-77901309D01*
X178167818Y-78171808D01*
X178301068Y-78421101D01*
X178480392Y-78639608D01*
X178698899Y-78818932D01*
X178948192Y-78952182D01*
X179218691Y-79034236D01*
X179429508Y-79055000D01*
X179570492Y-79055000D01*
X179781309Y-79034236D01*
X180051808Y-78952182D01*
X180301101Y-78818932D01*
X180519608Y-78639608D01*
X180698932Y-78421101D01*
X180832182Y-78171808D01*
X180914236Y-77901309D01*
X180941943Y-77620000D01*
X180914236Y-77338691D01*
X180832182Y-77068192D01*
X180698932Y-76818899D01*
X180519608Y-76600392D01*
X180301101Y-76421068D01*
X180051808Y-76287818D01*
X180025614Y-76279872D01*
X184365000Y-76279872D01*
X184365000Y-76720128D01*
X184450890Y-77151925D01*
X184619369Y-77558669D01*
X184863962Y-77924729D01*
X185175271Y-78236038D01*
X185541331Y-78480631D01*
X185948075Y-78649110D01*
X186379872Y-78735000D01*
X186820128Y-78735000D01*
X187251925Y-78649110D01*
X187658669Y-78480631D01*
X188024729Y-78236038D01*
X188336038Y-77924729D01*
X188580631Y-77558669D01*
X188749110Y-77151925D01*
X188835000Y-76720128D01*
X188835000Y-76279872D01*
X188749110Y-75848075D01*
X188580631Y-75441331D01*
X188336038Y-75075271D01*
X188024729Y-74763962D01*
X187658669Y-74519369D01*
X187251925Y-74350890D01*
X186820128Y-74265000D01*
X186379872Y-74265000D01*
X185948075Y-74350890D01*
X185541331Y-74519369D01*
X185175271Y-74763962D01*
X184863962Y-75075271D01*
X184619369Y-75441331D01*
X184450890Y-75848075D01*
X184365000Y-76279872D01*
X180025614Y-76279872D01*
X179781309Y-76205764D01*
X179570492Y-76185000D01*
X179429508Y-76185000D01*
X179218691Y-76205764D01*
X178948192Y-76287818D01*
X178698899Y-76421068D01*
X178480392Y-76600392D01*
X178301068Y-76818899D01*
X178167818Y-77068192D01*
X178085764Y-77338691D01*
X178058057Y-77620000D01*
X176441943Y-77620000D01*
X176414236Y-77338691D01*
X176332182Y-77068192D01*
X176198932Y-76818899D01*
X176019608Y-76600392D01*
X175801101Y-76421068D01*
X175551808Y-76287818D01*
X175281309Y-76205764D01*
X175070492Y-76185000D01*
X174929508Y-76185000D01*
X174718691Y-76205764D01*
X174448192Y-76287818D01*
X174198899Y-76421068D01*
X173980392Y-76600392D01*
X173801068Y-76818899D01*
X173667818Y-77068192D01*
X173585764Y-77338691D01*
X173558057Y-77620000D01*
X162762650Y-77620000D01*
X162660299Y-77372905D01*
X162492312Y-77121495D01*
X162278505Y-76907688D01*
X162027095Y-76739701D01*
X161747743Y-76623989D01*
X161451184Y-76565000D01*
X161148816Y-76565000D01*
X160852257Y-76623989D01*
X160572905Y-76739701D01*
X160321495Y-76907688D01*
X160107688Y-77121495D01*
X160050000Y-77207831D01*
X159992312Y-77121495D01*
X159778505Y-76907688D01*
X159527095Y-76739701D01*
X159247743Y-76623989D01*
X158951184Y-76565000D01*
X158648816Y-76565000D01*
X158352257Y-76623989D01*
X158072905Y-76739701D01*
X157821495Y-76907688D01*
X157607688Y-77121495D01*
X157550000Y-77207831D01*
X157492312Y-77121495D01*
X157278505Y-76907688D01*
X157027095Y-76739701D01*
X156747743Y-76623989D01*
X156451184Y-76565000D01*
X156148816Y-76565000D01*
X155852257Y-76623989D01*
X155572905Y-76739701D01*
X155321495Y-76907688D01*
X155107688Y-77121495D01*
X154939701Y-77372905D01*
X154823989Y-77652257D01*
X154765000Y-77948816D01*
X154765000Y-78251184D01*
X154823989Y-78547743D01*
X154939701Y-78827095D01*
X155107688Y-79078505D01*
X155321495Y-79292312D01*
X155392865Y-79340000D01*
X150334760Y-79340000D01*
X150359608Y-79319608D01*
X150538932Y-79101101D01*
X150672182Y-78851808D01*
X150754236Y-78581309D01*
X150775000Y-78370491D01*
X150775000Y-77429508D01*
X150754236Y-77218691D01*
X150672182Y-76948192D01*
X150538932Y-76698899D01*
X150359607Y-76480392D01*
X150141100Y-76301068D01*
X149891807Y-76167818D01*
X149621308Y-76085764D01*
X149340000Y-76058057D01*
X149058691Y-76085764D01*
X148788192Y-76167818D01*
X148538899Y-76301068D01*
X148320392Y-76480393D01*
X148141068Y-76698900D01*
X148070000Y-76831858D01*
X147998932Y-76698899D01*
X147819607Y-76480392D01*
X147601100Y-76301068D01*
X147351807Y-76167818D01*
X147081308Y-76085764D01*
X146800000Y-76058057D01*
X146518691Y-76085764D01*
X146248192Y-76167818D01*
X145998899Y-76301068D01*
X145780392Y-76480393D01*
X145601068Y-76698900D01*
X145530000Y-76831858D01*
X145458932Y-76698899D01*
X145279607Y-76480392D01*
X145061100Y-76301068D01*
X145020000Y-76279100D01*
X145020000Y-74858665D01*
X168965000Y-74858665D01*
X168965000Y-75141335D01*
X169020147Y-75418574D01*
X169128320Y-75679727D01*
X169285363Y-75914759D01*
X169485241Y-76114637D01*
X169720273Y-76271680D01*
X169981426Y-76379853D01*
X170258665Y-76435000D01*
X170541335Y-76435000D01*
X170818574Y-76379853D01*
X171079727Y-76271680D01*
X171314759Y-76114637D01*
X171514637Y-75914759D01*
X171671680Y-75679727D01*
X171779853Y-75418574D01*
X171835000Y-75141335D01*
X171835000Y-74858665D01*
X171779853Y-74581426D01*
X171671680Y-74320273D01*
X171514637Y-74085241D01*
X171314759Y-73885363D01*
X171079727Y-73728320D01*
X170818574Y-73620147D01*
X170541335Y-73565000D01*
X170258665Y-73565000D01*
X169981426Y-73620147D01*
X169720273Y-73728320D01*
X169485241Y-73885363D01*
X169285363Y-74085241D01*
X169128320Y-74320273D01*
X169020147Y-74581426D01*
X168965000Y-74858665D01*
X145020000Y-74858665D01*
X145020000Y-73257322D01*
X145023676Y-73219999D01*
X145020000Y-73182676D01*
X145020000Y-73182667D01*
X145009003Y-73071014D01*
X144965546Y-72927753D01*
X144894974Y-72795724D01*
X144881811Y-72779685D01*
X144823799Y-72708996D01*
X144823795Y-72708992D01*
X144800001Y-72679999D01*
X144771008Y-72656205D01*
X144234205Y-72119402D01*
X144260000Y-72121943D01*
X144541309Y-72094236D01*
X144811808Y-72012182D01*
X145061101Y-71878932D01*
X145279608Y-71699608D01*
X145458932Y-71481101D01*
X145530000Y-71348142D01*
X145601068Y-71481101D01*
X145780393Y-71699608D01*
X145998900Y-71878932D01*
X146248193Y-72012182D01*
X146518692Y-72094236D01*
X146800000Y-72121943D01*
X147081309Y-72094236D01*
X147351808Y-72012182D01*
X147601101Y-71878932D01*
X147819608Y-71699608D01*
X147998932Y-71481101D01*
X148070000Y-71348142D01*
X148141068Y-71481101D01*
X148320393Y-71699608D01*
X148538900Y-71878932D01*
X148788193Y-72012182D01*
X149058692Y-72094236D01*
X149340000Y-72121943D01*
X149621309Y-72094236D01*
X149891808Y-72012182D01*
X150141101Y-71878932D01*
X150359608Y-71699608D01*
X150538932Y-71481101D01*
X150672182Y-71231808D01*
X150754236Y-70961309D01*
X150775000Y-70750491D01*
X150775000Y-70340475D01*
X151415000Y-70340475D01*
X151415000Y-70859525D01*
X151516261Y-71368601D01*
X151714893Y-71848141D01*
X152003262Y-72279715D01*
X152370285Y-72646738D01*
X152801859Y-72935107D01*
X153281399Y-73133739D01*
X153790475Y-73235000D01*
X154309525Y-73235000D01*
X154818601Y-73133739D01*
X155298141Y-72935107D01*
X155729715Y-72646738D01*
X156096738Y-72279715D01*
X156385107Y-71848141D01*
X156583739Y-71368601D01*
X156685000Y-70859525D01*
X156685000Y-70340475D01*
X160915000Y-70340475D01*
X160915000Y-70859525D01*
X161016261Y-71368601D01*
X161214893Y-71848141D01*
X161503262Y-72279715D01*
X161870285Y-72646738D01*
X162301859Y-72935107D01*
X162781399Y-73133739D01*
X163290475Y-73235000D01*
X163809525Y-73235000D01*
X164318601Y-73133739D01*
X164798141Y-72935107D01*
X165229715Y-72646738D01*
X165596738Y-72279715D01*
X165885107Y-71848141D01*
X166083739Y-71368601D01*
X166158509Y-70992702D01*
X169586903Y-70992702D01*
X169658486Y-71236671D01*
X169913996Y-71357571D01*
X170188184Y-71426300D01*
X170470512Y-71440217D01*
X170750130Y-71398787D01*
X171016292Y-71303603D01*
X171141514Y-71236671D01*
X171213097Y-70992702D01*
X174186903Y-70992702D01*
X174258486Y-71236671D01*
X174513996Y-71357571D01*
X174788184Y-71426300D01*
X175070512Y-71440217D01*
X175350130Y-71398787D01*
X175616292Y-71303603D01*
X175741514Y-71236671D01*
X175813097Y-70992702D01*
X175000000Y-70179605D01*
X174186903Y-70992702D01*
X171213097Y-70992702D01*
X170400000Y-70179605D01*
X169586903Y-70992702D01*
X166158509Y-70992702D01*
X166185000Y-70859525D01*
X166185000Y-70340475D01*
X166131302Y-70070512D01*
X168959783Y-70070512D01*
X169001213Y-70350130D01*
X169096397Y-70616292D01*
X169163329Y-70741514D01*
X169407298Y-70813097D01*
X170220395Y-70000000D01*
X170579605Y-70000000D01*
X171392702Y-70813097D01*
X171636671Y-70741514D01*
X171757571Y-70486004D01*
X171826300Y-70211816D01*
X171833265Y-70070512D01*
X173559783Y-70070512D01*
X173601213Y-70350130D01*
X173696397Y-70616292D01*
X173763329Y-70741514D01*
X174007298Y-70813097D01*
X174820395Y-70000000D01*
X175179605Y-70000000D01*
X175992702Y-70813097D01*
X176236671Y-70741514D01*
X176357571Y-70486004D01*
X176426300Y-70211816D01*
X176440217Y-69929488D01*
X176398787Y-69649870D01*
X176303603Y-69383708D01*
X176236671Y-69258486D01*
X175992702Y-69186903D01*
X175179605Y-70000000D01*
X174820395Y-70000000D01*
X174007298Y-69186903D01*
X173763329Y-69258486D01*
X173642429Y-69513996D01*
X173573700Y-69788184D01*
X173559783Y-70070512D01*
X171833265Y-70070512D01*
X171840217Y-69929488D01*
X171798787Y-69649870D01*
X171703603Y-69383708D01*
X171636671Y-69258486D01*
X171392702Y-69186903D01*
X170579605Y-70000000D01*
X170220395Y-70000000D01*
X169407298Y-69186903D01*
X169163329Y-69258486D01*
X169042429Y-69513996D01*
X168973700Y-69788184D01*
X168959783Y-70070512D01*
X166131302Y-70070512D01*
X166083739Y-69831399D01*
X165885107Y-69351859D01*
X165654879Y-69007298D01*
X169586903Y-69007298D01*
X170400000Y-69820395D01*
X171213097Y-69007298D01*
X174186903Y-69007298D01*
X175000000Y-69820395D01*
X175813097Y-69007298D01*
X175741514Y-68763329D01*
X175486004Y-68642429D01*
X175211816Y-68573700D01*
X174929488Y-68559783D01*
X174649870Y-68601213D01*
X174383708Y-68696397D01*
X174258486Y-68763329D01*
X174186903Y-69007298D01*
X171213097Y-69007298D01*
X171141514Y-68763329D01*
X170886004Y-68642429D01*
X170611816Y-68573700D01*
X170329488Y-68559783D01*
X170049870Y-68601213D01*
X169783708Y-68696397D01*
X169658486Y-68763329D01*
X169586903Y-69007298D01*
X165654879Y-69007298D01*
X165596738Y-68920285D01*
X165229715Y-68553262D01*
X164798141Y-68264893D01*
X164318601Y-68066261D01*
X163809525Y-67965000D01*
X163290475Y-67965000D01*
X162781399Y-68066261D01*
X162301859Y-68264893D01*
X161870285Y-68553262D01*
X161503262Y-68920285D01*
X161214893Y-69351859D01*
X161016261Y-69831399D01*
X160915000Y-70340475D01*
X156685000Y-70340475D01*
X156583739Y-69831399D01*
X156385107Y-69351859D01*
X156096738Y-68920285D01*
X155729715Y-68553262D01*
X155298141Y-68264893D01*
X154818601Y-68066261D01*
X154309525Y-67965000D01*
X153790475Y-67965000D01*
X153281399Y-68066261D01*
X152801859Y-68264893D01*
X152370285Y-68553262D01*
X152003262Y-68920285D01*
X151714893Y-69351859D01*
X151516261Y-69831399D01*
X151415000Y-70340475D01*
X150775000Y-70340475D01*
X150775000Y-69809508D01*
X150754236Y-69598691D01*
X150672182Y-69328192D01*
X150538932Y-69078899D01*
X150359607Y-68860392D01*
X150141100Y-68681068D01*
X149891807Y-68547818D01*
X149621308Y-68465764D01*
X149340000Y-68438057D01*
X149058691Y-68465764D01*
X148788192Y-68547818D01*
X148538899Y-68681068D01*
X148320392Y-68860393D01*
X148141068Y-69078900D01*
X148070000Y-69211858D01*
X147998932Y-69078899D01*
X147819607Y-68860392D01*
X147601100Y-68681068D01*
X147351807Y-68547818D01*
X147081308Y-68465764D01*
X146800000Y-68438057D01*
X146518691Y-68465764D01*
X146248192Y-68547818D01*
X145998899Y-68681068D01*
X145780392Y-68860393D01*
X145601068Y-69078900D01*
X145530000Y-69211858D01*
X145458932Y-69078899D01*
X145279607Y-68860392D01*
X145061100Y-68681068D01*
X144811807Y-68547818D01*
X144541308Y-68465764D01*
X144260000Y-68438057D01*
X143978691Y-68465764D01*
X143708192Y-68547818D01*
X143458899Y-68681068D01*
X143240392Y-68860393D01*
X143061068Y-69078900D01*
X142990000Y-69211858D01*
X142918932Y-69078899D01*
X142739607Y-68860392D01*
X142521100Y-68681068D01*
X142271807Y-68547818D01*
X142001308Y-68465764D01*
X141720000Y-68438057D01*
X141438691Y-68465764D01*
X141168192Y-68547818D01*
X140918899Y-68681068D01*
X140700392Y-68860393D01*
X140521068Y-69078900D01*
X140452735Y-69206742D01*
X140302601Y-68977161D01*
X140104895Y-68775500D01*
X139871646Y-68616285D01*
X139611818Y-68505633D01*
X139529039Y-68488096D01*
X139307000Y-68610085D01*
X139307000Y-70153000D01*
X139327000Y-70153000D01*
X139327000Y-70407000D01*
X139307000Y-70407000D01*
X139307000Y-71949915D01*
X139529039Y-72071904D01*
X139611818Y-72054367D01*
X139871646Y-71943715D01*
X140104895Y-71784500D01*
X140302601Y-71582839D01*
X140452735Y-71353259D01*
X140521068Y-71481101D01*
X140700393Y-71699608D01*
X140918900Y-71878932D01*
X141168193Y-72012182D01*
X141438692Y-72094236D01*
X141720000Y-72121943D01*
X142001309Y-72094236D01*
X142045906Y-72080708D01*
X143500001Y-73534804D01*
X143500000Y-76279099D01*
X143458899Y-76301068D01*
X143240392Y-76480393D01*
X143061068Y-76698900D01*
X142990000Y-76831858D01*
X142918932Y-76698899D01*
X142739607Y-76480392D01*
X142521100Y-76301068D01*
X142271807Y-76167818D01*
X142001308Y-76085764D01*
X141720000Y-76058057D01*
X141438691Y-76085764D01*
X141168192Y-76167818D01*
X140918899Y-76301068D01*
X140700392Y-76480393D01*
X140521068Y-76698900D01*
X140450000Y-76831858D01*
X140378932Y-76698899D01*
X140199607Y-76480392D01*
X139981100Y-76301068D01*
X139731807Y-76167818D01*
X139461308Y-76085764D01*
X139180000Y-76058057D01*
X139006704Y-76075125D01*
X138536534Y-75604956D01*
X138508817Y-75571183D01*
X138374059Y-75460589D01*
X138220313Y-75378411D01*
X138053490Y-75327805D01*
X137923477Y-75315000D01*
X137923469Y-75315000D01*
X137880000Y-75310719D01*
X137836531Y-75315000D01*
X135266579Y-75315000D01*
X131828017Y-71876438D01*
X131835000Y-71841335D01*
X131835000Y-71558665D01*
X131779853Y-71281426D01*
X131671680Y-71020273D01*
X131514637Y-70785241D01*
X131314759Y-70585363D01*
X131285000Y-70565479D01*
X131285000Y-69809509D01*
X132665000Y-69809509D01*
X132665000Y-70750492D01*
X132685764Y-70961309D01*
X132767818Y-71231808D01*
X132901068Y-71481101D01*
X133080393Y-71699608D01*
X133298900Y-71878932D01*
X133548193Y-72012182D01*
X133818692Y-72094236D01*
X134100000Y-72121943D01*
X134381309Y-72094236D01*
X134651808Y-72012182D01*
X134901101Y-71878932D01*
X135119608Y-71699608D01*
X135298932Y-71481101D01*
X135370000Y-71348142D01*
X135441068Y-71481101D01*
X135620393Y-71699608D01*
X135838900Y-71878932D01*
X136088193Y-72012182D01*
X136358692Y-72094236D01*
X136640000Y-72121943D01*
X136921309Y-72094236D01*
X137191808Y-72012182D01*
X137441101Y-71878932D01*
X137659608Y-71699608D01*
X137838932Y-71481101D01*
X137907265Y-71353259D01*
X138057399Y-71582839D01*
X138255105Y-71784500D01*
X138488354Y-71943715D01*
X138748182Y-72054367D01*
X138830961Y-72071904D01*
X139053000Y-71949915D01*
X139053000Y-70407000D01*
X139033000Y-70407000D01*
X139033000Y-70153000D01*
X139053000Y-70153000D01*
X139053000Y-68610085D01*
X138830961Y-68488096D01*
X138748182Y-68505633D01*
X138488354Y-68616285D01*
X138255105Y-68775500D01*
X138057399Y-68977161D01*
X137907265Y-69206741D01*
X137838932Y-69078899D01*
X137659607Y-68860392D01*
X137441100Y-68681068D01*
X137191807Y-68547818D01*
X136921308Y-68465764D01*
X136640000Y-68438057D01*
X136358691Y-68465764D01*
X136088192Y-68547818D01*
X135838899Y-68681068D01*
X135620392Y-68860393D01*
X135441068Y-69078900D01*
X135370000Y-69211858D01*
X135298932Y-69078899D01*
X135119607Y-68860392D01*
X134901100Y-68681068D01*
X134651807Y-68547818D01*
X134381308Y-68465764D01*
X134100000Y-68438057D01*
X133818691Y-68465764D01*
X133548192Y-68547818D01*
X133298899Y-68681068D01*
X133080392Y-68860393D01*
X132901068Y-69078900D01*
X132767818Y-69328193D01*
X132685764Y-69598692D01*
X132665000Y-69809509D01*
X131285000Y-69809509D01*
X131285000Y-67185000D01*
X133786533Y-67185000D01*
X133830002Y-67189281D01*
X133873471Y-67185000D01*
X133873479Y-67185000D01*
X134003492Y-67172195D01*
X134170315Y-67121589D01*
X134324061Y-67039411D01*
X134458819Y-66928817D01*
X134486536Y-66895044D01*
X138622915Y-62758665D01*
X141565000Y-62758665D01*
X141565000Y-63041335D01*
X141620147Y-63318574D01*
X141728320Y-63579727D01*
X141885363Y-63814759D01*
X142085241Y-64014637D01*
X142320273Y-64171680D01*
X142581426Y-64279853D01*
X142858665Y-64335000D01*
X143141335Y-64335000D01*
X143418574Y-64279853D01*
X143679727Y-64171680D01*
X143914759Y-64014637D01*
X144114637Y-63814759D01*
X144271680Y-63579727D01*
X144379853Y-63318574D01*
X144435000Y-63041335D01*
X144435000Y-62800000D01*
X146238057Y-62800000D01*
X146265764Y-63081309D01*
X146347818Y-63351808D01*
X146481068Y-63601101D01*
X146660392Y-63819608D01*
X146878899Y-63998932D01*
X147128192Y-64132182D01*
X147398691Y-64214236D01*
X147609508Y-64235000D01*
X147750492Y-64235000D01*
X147961309Y-64214236D01*
X148231808Y-64132182D01*
X148481101Y-63998932D01*
X148699608Y-63819608D01*
X148878932Y-63601101D01*
X149012182Y-63351808D01*
X149094236Y-63081309D01*
X149121943Y-62800000D01*
X149108023Y-62658665D01*
X153865000Y-62658665D01*
X153865000Y-62941335D01*
X153920147Y-63218574D01*
X154028320Y-63479727D01*
X154185363Y-63714759D01*
X154385241Y-63914637D01*
X154620273Y-64071680D01*
X154881426Y-64179853D01*
X155158665Y-64235000D01*
X155441335Y-64235000D01*
X155718574Y-64179853D01*
X155979727Y-64071680D01*
X156214759Y-63914637D01*
X156414637Y-63714759D01*
X156571680Y-63479727D01*
X156679853Y-63218574D01*
X156735000Y-62941335D01*
X156735000Y-62658665D01*
X156679853Y-62381426D01*
X156571680Y-62120273D01*
X156414637Y-61885241D01*
X156214759Y-61685363D01*
X155979727Y-61528320D01*
X155718574Y-61420147D01*
X155441335Y-61365000D01*
X155158665Y-61365000D01*
X154881426Y-61420147D01*
X154620273Y-61528320D01*
X154385241Y-61685363D01*
X154185363Y-61885241D01*
X154028320Y-62120273D01*
X153920147Y-62381426D01*
X153865000Y-62658665D01*
X149108023Y-62658665D01*
X149094236Y-62518691D01*
X149012182Y-62248192D01*
X148878932Y-61998899D01*
X148699608Y-61780392D01*
X148481101Y-61601068D01*
X148231808Y-61467818D01*
X147961309Y-61385764D01*
X147750492Y-61365000D01*
X147609508Y-61365000D01*
X147398691Y-61385764D01*
X147128192Y-61467818D01*
X146878899Y-61601068D01*
X146660392Y-61780392D01*
X146481068Y-61998899D01*
X146347818Y-62248192D01*
X146265764Y-62518691D01*
X146238057Y-62800000D01*
X144435000Y-62800000D01*
X144435000Y-62758665D01*
X144379853Y-62481426D01*
X144271680Y-62220273D01*
X144114637Y-61985241D01*
X143914759Y-61785363D01*
X143679727Y-61628320D01*
X143418574Y-61520147D01*
X143141335Y-61465000D01*
X142858665Y-61465000D01*
X142581426Y-61520147D01*
X142320273Y-61628320D01*
X142085241Y-61785363D01*
X141885363Y-61985241D01*
X141728320Y-62220273D01*
X141620147Y-62481426D01*
X141565000Y-62758665D01*
X138622915Y-62758665D01*
X140595049Y-60786532D01*
X140628817Y-60758819D01*
X140739411Y-60624061D01*
X140821589Y-60470315D01*
X140872195Y-60303492D01*
X140885000Y-60173479D01*
X140885000Y-60173471D01*
X140889281Y-60130002D01*
X140885000Y-60086533D01*
X140885000Y-58258665D01*
X146365000Y-58258665D01*
X146365000Y-58541335D01*
X146420147Y-58818574D01*
X146528320Y-59079727D01*
X146685363Y-59314759D01*
X146885241Y-59514637D01*
X147120273Y-59671680D01*
X147381426Y-59779853D01*
X147658665Y-59835000D01*
X147941335Y-59835000D01*
X148218574Y-59779853D01*
X148479727Y-59671680D01*
X148714759Y-59514637D01*
X148914637Y-59314759D01*
X149071680Y-59079727D01*
X149179853Y-58818574D01*
X149235000Y-58541335D01*
X149235000Y-58400000D01*
X153978057Y-58400000D01*
X154005764Y-58681309D01*
X154087818Y-58951808D01*
X154221068Y-59201101D01*
X154400392Y-59419608D01*
X154618899Y-59598932D01*
X154868192Y-59732182D01*
X155138691Y-59814236D01*
X155349508Y-59835000D01*
X155490492Y-59835000D01*
X155701309Y-59814236D01*
X155971808Y-59732182D01*
X156221101Y-59598932D01*
X156439608Y-59419608D01*
X156618932Y-59201101D01*
X156752182Y-58951808D01*
X156834236Y-58681309D01*
X156843066Y-58591653D01*
X174737952Y-58591653D01*
X174893962Y-58907214D01*
X175268745Y-59098020D01*
X175673551Y-59212044D01*
X176092824Y-59244902D01*
X176510451Y-59195334D01*
X176910383Y-59065243D01*
X177206038Y-58907214D01*
X177362048Y-58591653D01*
X176050000Y-57279605D01*
X174737952Y-58591653D01*
X156843066Y-58591653D01*
X156861943Y-58400000D01*
X156834236Y-58118691D01*
X156752182Y-57848192D01*
X156618932Y-57598899D01*
X156439608Y-57380392D01*
X156221101Y-57201068D01*
X156112135Y-57142824D01*
X173905098Y-57142824D01*
X173954666Y-57560451D01*
X174084757Y-57960383D01*
X174242786Y-58256038D01*
X174558347Y-58412048D01*
X175870395Y-57100000D01*
X174558347Y-55787952D01*
X174242786Y-55943962D01*
X174051980Y-56318745D01*
X173937956Y-56723551D01*
X173905098Y-57142824D01*
X156112135Y-57142824D01*
X155971808Y-57067818D01*
X155701309Y-56985764D01*
X155490492Y-56965000D01*
X155349508Y-56965000D01*
X155138691Y-56985764D01*
X154868192Y-57067818D01*
X154618899Y-57201068D01*
X154400392Y-57380392D01*
X154221068Y-57598899D01*
X154087818Y-57848192D01*
X154005764Y-58118691D01*
X153978057Y-58400000D01*
X149235000Y-58400000D01*
X149235000Y-58258665D01*
X149179853Y-57981426D01*
X149071680Y-57720273D01*
X148914637Y-57485241D01*
X148714759Y-57285363D01*
X148479727Y-57128320D01*
X148218574Y-57020147D01*
X147941335Y-56965000D01*
X147658665Y-56965000D01*
X147381426Y-57020147D01*
X147120273Y-57128320D01*
X146885241Y-57285363D01*
X146685363Y-57485241D01*
X146528320Y-57720273D01*
X146420147Y-57981426D01*
X146365000Y-58258665D01*
X140885000Y-58258665D01*
X140885000Y-57388072D01*
X141750000Y-57388072D01*
X141874482Y-57375812D01*
X141994180Y-57339502D01*
X142104494Y-57280537D01*
X142201185Y-57201185D01*
X142280537Y-57104494D01*
X142339502Y-56994180D01*
X142375812Y-56874482D01*
X142388072Y-56750000D01*
X142388072Y-54620000D01*
X147558057Y-54620000D01*
X147585764Y-54901309D01*
X147667818Y-55171808D01*
X147801068Y-55421101D01*
X147980392Y-55639608D01*
X148198899Y-55818932D01*
X148448192Y-55952182D01*
X148718691Y-56034236D01*
X148929508Y-56055000D01*
X149070492Y-56055000D01*
X149281309Y-56034236D01*
X149551808Y-55952182D01*
X149801101Y-55818932D01*
X150019608Y-55639608D01*
X150198932Y-55421101D01*
X150332182Y-55171808D01*
X150393690Y-54969040D01*
X152608091Y-54969040D01*
X152702930Y-55233881D01*
X152847615Y-55475131D01*
X153036586Y-55683519D01*
X153262580Y-55851037D01*
X153516913Y-55971246D01*
X153650961Y-56011904D01*
X153873000Y-55889915D01*
X153873000Y-54747000D01*
X154127000Y-54747000D01*
X154127000Y-55889915D01*
X154349039Y-56011904D01*
X154483087Y-55971246D01*
X154737420Y-55851037D01*
X154963414Y-55683519D01*
X155152385Y-55475131D01*
X155297070Y-55233881D01*
X155391909Y-54969040D01*
X155270624Y-54747000D01*
X154127000Y-54747000D01*
X153873000Y-54747000D01*
X152729376Y-54747000D01*
X152608091Y-54969040D01*
X150393690Y-54969040D01*
X150414236Y-54901309D01*
X150441943Y-54620000D01*
X150414236Y-54338691D01*
X150393691Y-54270960D01*
X152608091Y-54270960D01*
X152729376Y-54493000D01*
X153873000Y-54493000D01*
X153873000Y-53350085D01*
X154127000Y-53350085D01*
X154127000Y-54493000D01*
X155270624Y-54493000D01*
X155349259Y-54349039D01*
X158988096Y-54349039D01*
X159028754Y-54483087D01*
X159148963Y-54737420D01*
X159316481Y-54963414D01*
X159524869Y-55152385D01*
X159766119Y-55297070D01*
X160030960Y-55391909D01*
X160253000Y-55270624D01*
X160253000Y-54127000D01*
X160507000Y-54127000D01*
X160507000Y-55270624D01*
X160729040Y-55391909D01*
X160993881Y-55297070D01*
X161235131Y-55152385D01*
X161443519Y-54963414D01*
X161611037Y-54737420D01*
X161731246Y-54483087D01*
X161771904Y-54349039D01*
X161649915Y-54127000D01*
X160507000Y-54127000D01*
X160253000Y-54127000D01*
X159110085Y-54127000D01*
X158988096Y-54349039D01*
X155349259Y-54349039D01*
X155391909Y-54270960D01*
X155297070Y-54006119D01*
X155152385Y-53764869D01*
X155049091Y-53650961D01*
X158988096Y-53650961D01*
X159110085Y-53873000D01*
X160253000Y-53873000D01*
X160253000Y-52729376D01*
X160507000Y-52729376D01*
X160507000Y-53873000D01*
X161649915Y-53873000D01*
X161657790Y-53858665D01*
X166565000Y-53858665D01*
X166565000Y-54141335D01*
X166620147Y-54418574D01*
X166728320Y-54679727D01*
X166885363Y-54914759D01*
X167085241Y-55114637D01*
X167320273Y-55271680D01*
X167581426Y-55379853D01*
X167858665Y-55435000D01*
X168141335Y-55435000D01*
X168418574Y-55379853D01*
X168679727Y-55271680D01*
X168914759Y-55114637D01*
X169114637Y-54914759D01*
X169271680Y-54679727D01*
X169296419Y-54620000D01*
X169558057Y-54620000D01*
X169585764Y-54901309D01*
X169667818Y-55171808D01*
X169801068Y-55421101D01*
X169980392Y-55639608D01*
X170198899Y-55818932D01*
X170448192Y-55952182D01*
X170718691Y-56034236D01*
X170929508Y-56055000D01*
X171070492Y-56055000D01*
X171281309Y-56034236D01*
X171551808Y-55952182D01*
X171801101Y-55818932D01*
X172019608Y-55639608D01*
X172198932Y-55421101D01*
X172332182Y-55171808D01*
X172414236Y-54901309D01*
X172441943Y-54620000D01*
X172414236Y-54338691D01*
X172332182Y-54068192D01*
X172198932Y-53818899D01*
X172019608Y-53600392D01*
X171801101Y-53421068D01*
X171551808Y-53287818D01*
X171281309Y-53205764D01*
X171070492Y-53185000D01*
X170929508Y-53185000D01*
X170718691Y-53205764D01*
X170448192Y-53287818D01*
X170198899Y-53421068D01*
X169980392Y-53600392D01*
X169801068Y-53818899D01*
X169667818Y-54068192D01*
X169585764Y-54338691D01*
X169558057Y-54620000D01*
X169296419Y-54620000D01*
X169379853Y-54418574D01*
X169435000Y-54141335D01*
X169435000Y-53858665D01*
X169379853Y-53581426D01*
X169271680Y-53320273D01*
X169114637Y-53085241D01*
X168914759Y-52885363D01*
X168679727Y-52728320D01*
X168418574Y-52620147D01*
X168141335Y-52565000D01*
X167858665Y-52565000D01*
X167581426Y-52620147D01*
X167320273Y-52728320D01*
X167085241Y-52885363D01*
X166885363Y-53085241D01*
X166728320Y-53320273D01*
X166620147Y-53581426D01*
X166565000Y-53858665D01*
X161657790Y-53858665D01*
X161771904Y-53650961D01*
X161731246Y-53516913D01*
X161611037Y-53262580D01*
X161443519Y-53036586D01*
X161235131Y-52847615D01*
X160993881Y-52702930D01*
X160729040Y-52608091D01*
X160507000Y-52729376D01*
X160253000Y-52729376D01*
X160030960Y-52608091D01*
X159766119Y-52702930D01*
X159524869Y-52847615D01*
X159316481Y-53036586D01*
X159148963Y-53262580D01*
X159028754Y-53516913D01*
X158988096Y-53650961D01*
X155049091Y-53650961D01*
X154963414Y-53556481D01*
X154737420Y-53388963D01*
X154483087Y-53268754D01*
X154349039Y-53228096D01*
X154127000Y-53350085D01*
X153873000Y-53350085D01*
X153650961Y-53228096D01*
X153516913Y-53268754D01*
X153262580Y-53388963D01*
X153036586Y-53556481D01*
X152847615Y-53764869D01*
X152702930Y-54006119D01*
X152608091Y-54270960D01*
X150393691Y-54270960D01*
X150332182Y-54068192D01*
X150198932Y-53818899D01*
X150019608Y-53600392D01*
X149801101Y-53421068D01*
X149551808Y-53287818D01*
X149281309Y-53205764D01*
X149070492Y-53185000D01*
X148929508Y-53185000D01*
X148718691Y-53205764D01*
X148448192Y-53287818D01*
X148198899Y-53421068D01*
X147980392Y-53600392D01*
X147801068Y-53818899D01*
X147667818Y-54068192D01*
X147585764Y-54338691D01*
X147558057Y-54620000D01*
X142388072Y-54620000D01*
X142388072Y-53250000D01*
X142375812Y-53125518D01*
X142339502Y-53005820D01*
X142280537Y-52895506D01*
X142201185Y-52798815D01*
X142104494Y-52719463D01*
X141994180Y-52660498D01*
X141874482Y-52624188D01*
X141750000Y-52611928D01*
X141389650Y-52611928D01*
X146116579Y-47885000D01*
X147865479Y-47885000D01*
X147885363Y-47914759D01*
X148085241Y-48114637D01*
X148320273Y-48271680D01*
X148581426Y-48379853D01*
X148858665Y-48435000D01*
X149141335Y-48435000D01*
X149418574Y-48379853D01*
X149679727Y-48271680D01*
X149914759Y-48114637D01*
X150114637Y-47914759D01*
X150271680Y-47679727D01*
X150379853Y-47418574D01*
X150435000Y-47141335D01*
X150435000Y-46858665D01*
X150428017Y-46823561D01*
X150866579Y-46385000D01*
X152701509Y-46385000D01*
X152620147Y-46581426D01*
X152565000Y-46858665D01*
X152565000Y-47141335D01*
X152620147Y-47418574D01*
X152728320Y-47679727D01*
X152885363Y-47914759D01*
X153085241Y-48114637D01*
X153320273Y-48271680D01*
X153581426Y-48379853D01*
X153858665Y-48435000D01*
X154141335Y-48435000D01*
X154418574Y-48379853D01*
X154679727Y-48271680D01*
X154914759Y-48114637D01*
X155114637Y-47914759D01*
X155271680Y-47679727D01*
X155379853Y-47418574D01*
X155435000Y-47141335D01*
X155435000Y-46858665D01*
X155379853Y-46581426D01*
X155298491Y-46385000D01*
X164142507Y-46385000D01*
X164099472Y-46526868D01*
X164081928Y-46705000D01*
X164081928Y-47861928D01*
X163450000Y-47861928D01*
X163325518Y-47874188D01*
X163205820Y-47910498D01*
X163095506Y-47969463D01*
X162998815Y-48048815D01*
X162919463Y-48145506D01*
X162860498Y-48255820D01*
X162824188Y-48375518D01*
X162811928Y-48500000D01*
X162811928Y-50300000D01*
X162824188Y-50424482D01*
X162860498Y-50544180D01*
X162919463Y-50654494D01*
X162998815Y-50751185D01*
X163095506Y-50830537D01*
X163205820Y-50889502D01*
X163325518Y-50925812D01*
X163450000Y-50938072D01*
X164550000Y-50938072D01*
X164674482Y-50925812D01*
X164794180Y-50889502D01*
X164904494Y-50830537D01*
X165001185Y-50751185D01*
X165080537Y-50654494D01*
X165139502Y-50544180D01*
X165175812Y-50424482D01*
X165188072Y-50300000D01*
X165188072Y-48868072D01*
X165351928Y-48868072D01*
X165351928Y-50025000D01*
X165369472Y-50203132D01*
X165421431Y-50374418D01*
X165505808Y-50532276D01*
X165619361Y-50670639D01*
X165757724Y-50784192D01*
X165915582Y-50868569D01*
X166086868Y-50920528D01*
X166265000Y-50938072D01*
X166815000Y-50938072D01*
X166993132Y-50920528D01*
X167164418Y-50868569D01*
X167322276Y-50784192D01*
X167460639Y-50670639D01*
X167574192Y-50532276D01*
X167658569Y-50374418D01*
X167710528Y-50203132D01*
X167728072Y-50025000D01*
X167728072Y-49885000D01*
X170469424Y-49885000D01*
X175589202Y-55004779D01*
X175189617Y-55134757D01*
X174893962Y-55292786D01*
X174737952Y-55608347D01*
X176050000Y-56920395D01*
X176064143Y-56906253D01*
X176243748Y-57085858D01*
X176229605Y-57100000D01*
X177541653Y-58412048D01*
X177857214Y-58256038D01*
X178048020Y-57881255D01*
X178139809Y-57555386D01*
X178615000Y-58030577D01*
X178615001Y-68825144D01*
X178615000Y-68825154D01*
X178615000Y-68865479D01*
X178585241Y-68885363D01*
X178385363Y-69085241D01*
X178228320Y-69320273D01*
X178120147Y-69581426D01*
X178065000Y-69858665D01*
X178065000Y-70141335D01*
X178120147Y-70418574D01*
X178228320Y-70679727D01*
X178385363Y-70914759D01*
X178585241Y-71114637D01*
X178820273Y-71271680D01*
X179081426Y-71379853D01*
X179358665Y-71435000D01*
X179641335Y-71435000D01*
X179918574Y-71379853D01*
X180179727Y-71271680D01*
X180414759Y-71114637D01*
X180614637Y-70914759D01*
X180771680Y-70679727D01*
X180879853Y-70418574D01*
X180935000Y-70141335D01*
X180935000Y-69858665D01*
X180879853Y-69581426D01*
X180771680Y-69320273D01*
X180614637Y-69085241D01*
X180414759Y-68885363D01*
X180385000Y-68865479D01*
X180385000Y-58591653D01*
X185037952Y-58591653D01*
X185193962Y-58907214D01*
X185568745Y-59098020D01*
X185973551Y-59212044D01*
X186392824Y-59244902D01*
X186810451Y-59195334D01*
X187210383Y-59065243D01*
X187506038Y-58907214D01*
X187662048Y-58591653D01*
X186350000Y-57279605D01*
X185037952Y-58591653D01*
X180385000Y-58591653D01*
X180385000Y-57707463D01*
X180389281Y-57663997D01*
X180385000Y-57620531D01*
X180385000Y-57620521D01*
X180372195Y-57490508D01*
X180321589Y-57323685D01*
X180239411Y-57169939D01*
X180212796Y-57137509D01*
X180295276Y-57192620D01*
X180642873Y-57336600D01*
X181011881Y-57410000D01*
X181388119Y-57410000D01*
X181757127Y-57336600D01*
X182104724Y-57192620D01*
X182179249Y-57142824D01*
X184205098Y-57142824D01*
X184254666Y-57560451D01*
X184384757Y-57960383D01*
X184542786Y-58256038D01*
X184858347Y-58412048D01*
X186170395Y-57100000D01*
X186529605Y-57100000D01*
X187841653Y-58412048D01*
X188157214Y-58256038D01*
X188348020Y-57881255D01*
X188462044Y-57476449D01*
X188494902Y-57057176D01*
X188445334Y-56639549D01*
X188315243Y-56239617D01*
X188157214Y-55943962D01*
X187841653Y-55787952D01*
X186529605Y-57100000D01*
X186170395Y-57100000D01*
X184858347Y-55787952D01*
X184542786Y-55943962D01*
X184351980Y-56318745D01*
X184237956Y-56723551D01*
X184205098Y-57142824D01*
X182179249Y-57142824D01*
X182417554Y-56983594D01*
X182683594Y-56717554D01*
X182892620Y-56404724D01*
X183036600Y-56057127D01*
X183110000Y-55688119D01*
X183110000Y-55608347D01*
X185037952Y-55608347D01*
X186350000Y-56920395D01*
X187662048Y-55608347D01*
X187506038Y-55292786D01*
X187131255Y-55101980D01*
X186726449Y-54987956D01*
X186307176Y-54955098D01*
X185889549Y-55004666D01*
X185489617Y-55134757D01*
X185193962Y-55292786D01*
X185037952Y-55608347D01*
X183110000Y-55608347D01*
X183110000Y-55311881D01*
X183036600Y-54942873D01*
X182892620Y-54595276D01*
X182683594Y-54282446D01*
X182417554Y-54016406D01*
X182104724Y-53807380D01*
X181757127Y-53663400D01*
X181388119Y-53590000D01*
X181011881Y-53590000D01*
X180642873Y-53663400D01*
X180295276Y-53807380D01*
X179982446Y-54016406D01*
X179716406Y-54282446D01*
X179507380Y-54595276D01*
X179363400Y-54942873D01*
X179290000Y-55311881D01*
X179290000Y-55688119D01*
X179363400Y-56057127D01*
X179507380Y-56404724D01*
X179537736Y-56450155D01*
X171492536Y-48404956D01*
X171471950Y-48379872D01*
X184265000Y-48379872D01*
X184265000Y-48820128D01*
X184350890Y-49251925D01*
X184519369Y-49658669D01*
X184763962Y-50024729D01*
X185075271Y-50336038D01*
X185441331Y-50580631D01*
X185848075Y-50749110D01*
X186279872Y-50835000D01*
X186720128Y-50835000D01*
X187151925Y-50749110D01*
X187558669Y-50580631D01*
X187924729Y-50336038D01*
X188236038Y-50024729D01*
X188480631Y-49658669D01*
X188649110Y-49251925D01*
X188735000Y-48820128D01*
X188735000Y-48379872D01*
X188649110Y-47948075D01*
X188480631Y-47541331D01*
X188236038Y-47175271D01*
X187924729Y-46863962D01*
X187558669Y-46619369D01*
X187151925Y-46450890D01*
X186720128Y-46365000D01*
X186279872Y-46365000D01*
X185848075Y-46450890D01*
X185441331Y-46619369D01*
X185075271Y-46863962D01*
X184763962Y-47175271D01*
X184519369Y-47541331D01*
X184350890Y-47948075D01*
X184265000Y-48379872D01*
X171471950Y-48379872D01*
X171464819Y-48371183D01*
X171456328Y-48364215D01*
X171679727Y-48271680D01*
X171914759Y-48114637D01*
X172114637Y-47914759D01*
X172271680Y-47679727D01*
X172379853Y-47418574D01*
X172435000Y-47141335D01*
X172435000Y-46858665D01*
X172379853Y-46581426D01*
X172271680Y-46320273D01*
X172114637Y-46085241D01*
X171914759Y-45885363D01*
X171679727Y-45728320D01*
X171514788Y-45660000D01*
X189340000Y-45660000D01*
X189340001Y-79340000D01*
X189340001Y-79340000D01*
G37*
X189340001Y-79340000D02*
X162207135Y-79340000D01*
X162278505Y-79292312D01*
X162492312Y-79078505D01*
X162660299Y-78827095D01*
X162776011Y-78547743D01*
X162835000Y-78251184D01*
X162835000Y-77948816D01*
X162776011Y-77652257D01*
X162762650Y-77620000D01*
X173558057Y-77620000D01*
X173585764Y-77901309D01*
X173667818Y-78171808D01*
X173801068Y-78421101D01*
X173980392Y-78639608D01*
X174198899Y-78818932D01*
X174448192Y-78952182D01*
X174718691Y-79034236D01*
X174929508Y-79055000D01*
X175070492Y-79055000D01*
X175281309Y-79034236D01*
X175551808Y-78952182D01*
X175801101Y-78818932D01*
X176019608Y-78639608D01*
X176198932Y-78421101D01*
X176332182Y-78171808D01*
X176414236Y-77901309D01*
X176441943Y-77620000D01*
X178058057Y-77620000D01*
X178085764Y-77901309D01*
X178167818Y-78171808D01*
X178301068Y-78421101D01*
X178480392Y-78639608D01*
X178698899Y-78818932D01*
X178948192Y-78952182D01*
X179218691Y-79034236D01*
X179429508Y-79055000D01*
X179570492Y-79055000D01*
X179781309Y-79034236D01*
X180051808Y-78952182D01*
X180301101Y-78818932D01*
X180519608Y-78639608D01*
X180698932Y-78421101D01*
X180832182Y-78171808D01*
X180914236Y-77901309D01*
X180941943Y-77620000D01*
X180914236Y-77338691D01*
X180832182Y-77068192D01*
X180698932Y-76818899D01*
X180519608Y-76600392D01*
X180301101Y-76421068D01*
X180051808Y-76287818D01*
X180025614Y-76279872D01*
X184365000Y-76279872D01*
X184365000Y-76720128D01*
X184450890Y-77151925D01*
X184619369Y-77558669D01*
X184863962Y-77924729D01*
X185175271Y-78236038D01*
X185541331Y-78480631D01*
X185948075Y-78649110D01*
X186379872Y-78735000D01*
X186820128Y-78735000D01*
X187251925Y-78649110D01*
X187658669Y-78480631D01*
X188024729Y-78236038D01*
X188336038Y-77924729D01*
X188580631Y-77558669D01*
X188749110Y-77151925D01*
X188835000Y-76720128D01*
X188835000Y-76279872D01*
X188749110Y-75848075D01*
X188580631Y-75441331D01*
X188336038Y-75075271D01*
X188024729Y-74763962D01*
X187658669Y-74519369D01*
X187251925Y-74350890D01*
X186820128Y-74265000D01*
X186379872Y-74265000D01*
X185948075Y-74350890D01*
X185541331Y-74519369D01*
X185175271Y-74763962D01*
X184863962Y-75075271D01*
X184619369Y-75441331D01*
X184450890Y-75848075D01*
X184365000Y-76279872D01*
X180025614Y-76279872D01*
X179781309Y-76205764D01*
X179570492Y-76185000D01*
X179429508Y-76185000D01*
X179218691Y-76205764D01*
X178948192Y-76287818D01*
X178698899Y-76421068D01*
X178480392Y-76600392D01*
X178301068Y-76818899D01*
X178167818Y-77068192D01*
X178085764Y-77338691D01*
X178058057Y-77620000D01*
X176441943Y-77620000D01*
X176414236Y-77338691D01*
X176332182Y-77068192D01*
X176198932Y-76818899D01*
X176019608Y-76600392D01*
X175801101Y-76421068D01*
X175551808Y-76287818D01*
X175281309Y-76205764D01*
X175070492Y-76185000D01*
X174929508Y-76185000D01*
X174718691Y-76205764D01*
X174448192Y-76287818D01*
X174198899Y-76421068D01*
X173980392Y-76600392D01*
X173801068Y-76818899D01*
X173667818Y-77068192D01*
X173585764Y-77338691D01*
X173558057Y-77620000D01*
X162762650Y-77620000D01*
X162660299Y-77372905D01*
X162492312Y-77121495D01*
X162278505Y-76907688D01*
X162027095Y-76739701D01*
X161747743Y-76623989D01*
X161451184Y-76565000D01*
X161148816Y-76565000D01*
X160852257Y-76623989D01*
X160572905Y-76739701D01*
X160321495Y-76907688D01*
X160107688Y-77121495D01*
X160050000Y-77207831D01*
X159992312Y-77121495D01*
X159778505Y-76907688D01*
X159527095Y-76739701D01*
X159247743Y-76623989D01*
X158951184Y-76565000D01*
X158648816Y-76565000D01*
X158352257Y-76623989D01*
X158072905Y-76739701D01*
X157821495Y-76907688D01*
X157607688Y-77121495D01*
X157550000Y-77207831D01*
X157492312Y-77121495D01*
X157278505Y-76907688D01*
X157027095Y-76739701D01*
X156747743Y-76623989D01*
X156451184Y-76565000D01*
X156148816Y-76565000D01*
X155852257Y-76623989D01*
X155572905Y-76739701D01*
X155321495Y-76907688D01*
X155107688Y-77121495D01*
X154939701Y-77372905D01*
X154823989Y-77652257D01*
X154765000Y-77948816D01*
X154765000Y-78251184D01*
X154823989Y-78547743D01*
X154939701Y-78827095D01*
X155107688Y-79078505D01*
X155321495Y-79292312D01*
X155392865Y-79340000D01*
X150334760Y-79340000D01*
X150359608Y-79319608D01*
X150538932Y-79101101D01*
X150672182Y-78851808D01*
X150754236Y-78581309D01*
X150775000Y-78370491D01*
X150775000Y-77429508D01*
X150754236Y-77218691D01*
X150672182Y-76948192D01*
X150538932Y-76698899D01*
X150359607Y-76480392D01*
X150141100Y-76301068D01*
X149891807Y-76167818D01*
X149621308Y-76085764D01*
X149340000Y-76058057D01*
X149058691Y-76085764D01*
X148788192Y-76167818D01*
X148538899Y-76301068D01*
X148320392Y-76480393D01*
X148141068Y-76698900D01*
X148070000Y-76831858D01*
X147998932Y-76698899D01*
X147819607Y-76480392D01*
X147601100Y-76301068D01*
X147351807Y-76167818D01*
X147081308Y-76085764D01*
X146800000Y-76058057D01*
X146518691Y-76085764D01*
X146248192Y-76167818D01*
X145998899Y-76301068D01*
X145780392Y-76480393D01*
X145601068Y-76698900D01*
X145530000Y-76831858D01*
X145458932Y-76698899D01*
X145279607Y-76480392D01*
X145061100Y-76301068D01*
X145020000Y-76279100D01*
X145020000Y-74858665D01*
X168965000Y-74858665D01*
X168965000Y-75141335D01*
X169020147Y-75418574D01*
X169128320Y-75679727D01*
X169285363Y-75914759D01*
X169485241Y-76114637D01*
X169720273Y-76271680D01*
X169981426Y-76379853D01*
X170258665Y-76435000D01*
X170541335Y-76435000D01*
X170818574Y-76379853D01*
X171079727Y-76271680D01*
X171314759Y-76114637D01*
X171514637Y-75914759D01*
X171671680Y-75679727D01*
X171779853Y-75418574D01*
X171835000Y-75141335D01*
X171835000Y-74858665D01*
X171779853Y-74581426D01*
X171671680Y-74320273D01*
X171514637Y-74085241D01*
X171314759Y-73885363D01*
X171079727Y-73728320D01*
X170818574Y-73620147D01*
X170541335Y-73565000D01*
X170258665Y-73565000D01*
X169981426Y-73620147D01*
X169720273Y-73728320D01*
X169485241Y-73885363D01*
X169285363Y-74085241D01*
X169128320Y-74320273D01*
X169020147Y-74581426D01*
X168965000Y-74858665D01*
X145020000Y-74858665D01*
X145020000Y-73257322D01*
X145023676Y-73219999D01*
X145020000Y-73182676D01*
X145020000Y-73182667D01*
X145009003Y-73071014D01*
X144965546Y-72927753D01*
X144894974Y-72795724D01*
X144881811Y-72779685D01*
X144823799Y-72708996D01*
X144823795Y-72708992D01*
X144800001Y-72679999D01*
X144771008Y-72656205D01*
X144234205Y-72119402D01*
X144260000Y-72121943D01*
X144541309Y-72094236D01*
X144811808Y-72012182D01*
X145061101Y-71878932D01*
X145279608Y-71699608D01*
X145458932Y-71481101D01*
X145530000Y-71348142D01*
X145601068Y-71481101D01*
X145780393Y-71699608D01*
X145998900Y-71878932D01*
X146248193Y-72012182D01*
X146518692Y-72094236D01*
X146800000Y-72121943D01*
X147081309Y-72094236D01*
X147351808Y-72012182D01*
X147601101Y-71878932D01*
X147819608Y-71699608D01*
X147998932Y-71481101D01*
X148070000Y-71348142D01*
X148141068Y-71481101D01*
X148320393Y-71699608D01*
X148538900Y-71878932D01*
X148788193Y-72012182D01*
X149058692Y-72094236D01*
X149340000Y-72121943D01*
X149621309Y-72094236D01*
X149891808Y-72012182D01*
X150141101Y-71878932D01*
X150359608Y-71699608D01*
X150538932Y-71481101D01*
X150672182Y-71231808D01*
X150754236Y-70961309D01*
X150775000Y-70750491D01*
X150775000Y-70340475D01*
X151415000Y-70340475D01*
X151415000Y-70859525D01*
X151516261Y-71368601D01*
X151714893Y-71848141D01*
X152003262Y-72279715D01*
X152370285Y-72646738D01*
X152801859Y-72935107D01*
X153281399Y-73133739D01*
X153790475Y-73235000D01*
X154309525Y-73235000D01*
X154818601Y-73133739D01*
X155298141Y-72935107D01*
X155729715Y-72646738D01*
X156096738Y-72279715D01*
X156385107Y-71848141D01*
X156583739Y-71368601D01*
X156685000Y-70859525D01*
X156685000Y-70340475D01*
X160915000Y-70340475D01*
X160915000Y-70859525D01*
X161016261Y-71368601D01*
X161214893Y-71848141D01*
X161503262Y-72279715D01*
X161870285Y-72646738D01*
X162301859Y-72935107D01*
X162781399Y-73133739D01*
X163290475Y-73235000D01*
X163809525Y-73235000D01*
X164318601Y-73133739D01*
X164798141Y-72935107D01*
X165229715Y-72646738D01*
X165596738Y-72279715D01*
X165885107Y-71848141D01*
X166083739Y-71368601D01*
X166158509Y-70992702D01*
X169586903Y-70992702D01*
X169658486Y-71236671D01*
X169913996Y-71357571D01*
X170188184Y-71426300D01*
X170470512Y-71440217D01*
X170750130Y-71398787D01*
X171016292Y-71303603D01*
X171141514Y-71236671D01*
X171213097Y-70992702D01*
X174186903Y-70992702D01*
X174258486Y-71236671D01*
X174513996Y-71357571D01*
X174788184Y-71426300D01*
X175070512Y-71440217D01*
X175350130Y-71398787D01*
X175616292Y-71303603D01*
X175741514Y-71236671D01*
X175813097Y-70992702D01*
X175000000Y-70179605D01*
X174186903Y-70992702D01*
X171213097Y-70992702D01*
X170400000Y-70179605D01*
X169586903Y-70992702D01*
X166158509Y-70992702D01*
X166185000Y-70859525D01*
X166185000Y-70340475D01*
X166131302Y-70070512D01*
X168959783Y-70070512D01*
X169001213Y-70350130D01*
X169096397Y-70616292D01*
X169163329Y-70741514D01*
X169407298Y-70813097D01*
X170220395Y-70000000D01*
X170579605Y-70000000D01*
X171392702Y-70813097D01*
X171636671Y-70741514D01*
X171757571Y-70486004D01*
X171826300Y-70211816D01*
X171833265Y-70070512D01*
X173559783Y-70070512D01*
X173601213Y-70350130D01*
X173696397Y-70616292D01*
X173763329Y-70741514D01*
X174007298Y-70813097D01*
X174820395Y-70000000D01*
X175179605Y-70000000D01*
X175992702Y-70813097D01*
X176236671Y-70741514D01*
X176357571Y-70486004D01*
X176426300Y-70211816D01*
X176440217Y-69929488D01*
X176398787Y-69649870D01*
X176303603Y-69383708D01*
X176236671Y-69258486D01*
X175992702Y-69186903D01*
X175179605Y-70000000D01*
X174820395Y-70000000D01*
X174007298Y-69186903D01*
X173763329Y-69258486D01*
X173642429Y-69513996D01*
X173573700Y-69788184D01*
X173559783Y-70070512D01*
X171833265Y-70070512D01*
X171840217Y-69929488D01*
X171798787Y-69649870D01*
X171703603Y-69383708D01*
X171636671Y-69258486D01*
X171392702Y-69186903D01*
X170579605Y-70000000D01*
X170220395Y-70000000D01*
X169407298Y-69186903D01*
X169163329Y-69258486D01*
X169042429Y-69513996D01*
X168973700Y-69788184D01*
X168959783Y-70070512D01*
X166131302Y-70070512D01*
X166083739Y-69831399D01*
X165885107Y-69351859D01*
X165654879Y-69007298D01*
X169586903Y-69007298D01*
X170400000Y-69820395D01*
X171213097Y-69007298D01*
X174186903Y-69007298D01*
X175000000Y-69820395D01*
X175813097Y-69007298D01*
X175741514Y-68763329D01*
X175486004Y-68642429D01*
X175211816Y-68573700D01*
X174929488Y-68559783D01*
X174649870Y-68601213D01*
X174383708Y-68696397D01*
X174258486Y-68763329D01*
X174186903Y-69007298D01*
X171213097Y-69007298D01*
X171141514Y-68763329D01*
X170886004Y-68642429D01*
X170611816Y-68573700D01*
X170329488Y-68559783D01*
X170049870Y-68601213D01*
X169783708Y-68696397D01*
X169658486Y-68763329D01*
X169586903Y-69007298D01*
X165654879Y-69007298D01*
X165596738Y-68920285D01*
X165229715Y-68553262D01*
X164798141Y-68264893D01*
X164318601Y-68066261D01*
X163809525Y-67965000D01*
X163290475Y-67965000D01*
X162781399Y-68066261D01*
X162301859Y-68264893D01*
X161870285Y-68553262D01*
X161503262Y-68920285D01*
X161214893Y-69351859D01*
X161016261Y-69831399D01*
X160915000Y-70340475D01*
X156685000Y-70340475D01*
X156583739Y-69831399D01*
X156385107Y-69351859D01*
X156096738Y-68920285D01*
X155729715Y-68553262D01*
X155298141Y-68264893D01*
X154818601Y-68066261D01*
X154309525Y-67965000D01*
X153790475Y-67965000D01*
X153281399Y-68066261D01*
X152801859Y-68264893D01*
X152370285Y-68553262D01*
X152003262Y-68920285D01*
X151714893Y-69351859D01*
X151516261Y-69831399D01*
X151415000Y-70340475D01*
X150775000Y-70340475D01*
X150775000Y-69809508D01*
X150754236Y-69598691D01*
X150672182Y-69328192D01*
X150538932Y-69078899D01*
X150359607Y-68860392D01*
X150141100Y-68681068D01*
X149891807Y-68547818D01*
X149621308Y-68465764D01*
X149340000Y-68438057D01*
X149058691Y-68465764D01*
X148788192Y-68547818D01*
X148538899Y-68681068D01*
X148320392Y-68860393D01*
X148141068Y-69078900D01*
X148070000Y-69211858D01*
X147998932Y-69078899D01*
X147819607Y-68860392D01*
X147601100Y-68681068D01*
X147351807Y-68547818D01*
X147081308Y-68465764D01*
X146800000Y-68438057D01*
X146518691Y-68465764D01*
X146248192Y-68547818D01*
X145998899Y-68681068D01*
X145780392Y-68860393D01*
X145601068Y-69078900D01*
X145530000Y-69211858D01*
X145458932Y-69078899D01*
X145279607Y-68860392D01*
X145061100Y-68681068D01*
X144811807Y-68547818D01*
X144541308Y-68465764D01*
X144260000Y-68438057D01*
X143978691Y-68465764D01*
X143708192Y-68547818D01*
X143458899Y-68681068D01*
X143240392Y-68860393D01*
X143061068Y-69078900D01*
X142990000Y-69211858D01*
X142918932Y-69078899D01*
X142739607Y-68860392D01*
X142521100Y-68681068D01*
X142271807Y-68547818D01*
X142001308Y-68465764D01*
X141720000Y-68438057D01*
X141438691Y-68465764D01*
X141168192Y-68547818D01*
X140918899Y-68681068D01*
X140700392Y-68860393D01*
X140521068Y-69078900D01*
X140452735Y-69206742D01*
X140302601Y-68977161D01*
X140104895Y-68775500D01*
X139871646Y-68616285D01*
X139611818Y-68505633D01*
X139529039Y-68488096D01*
X139307000Y-68610085D01*
X139307000Y-70153000D01*
X139327000Y-70153000D01*
X139327000Y-70407000D01*
X139307000Y-70407000D01*
X139307000Y-71949915D01*
X139529039Y-72071904D01*
X139611818Y-72054367D01*
X139871646Y-71943715D01*
X140104895Y-71784500D01*
X140302601Y-71582839D01*
X140452735Y-71353259D01*
X140521068Y-71481101D01*
X140700393Y-71699608D01*
X140918900Y-71878932D01*
X141168193Y-72012182D01*
X141438692Y-72094236D01*
X141720000Y-72121943D01*
X142001309Y-72094236D01*
X142045906Y-72080708D01*
X143500001Y-73534804D01*
X143500000Y-76279099D01*
X143458899Y-76301068D01*
X143240392Y-76480393D01*
X143061068Y-76698900D01*
X142990000Y-76831858D01*
X142918932Y-76698899D01*
X142739607Y-76480392D01*
X142521100Y-76301068D01*
X142271807Y-76167818D01*
X142001308Y-76085764D01*
X141720000Y-76058057D01*
X141438691Y-76085764D01*
X141168192Y-76167818D01*
X140918899Y-76301068D01*
X140700392Y-76480393D01*
X140521068Y-76698900D01*
X140450000Y-76831858D01*
X140378932Y-76698899D01*
X140199607Y-76480392D01*
X139981100Y-76301068D01*
X139731807Y-76167818D01*
X139461308Y-76085764D01*
X139180000Y-76058057D01*
X139006704Y-76075125D01*
X138536534Y-75604956D01*
X138508817Y-75571183D01*
X138374059Y-75460589D01*
X138220313Y-75378411D01*
X138053490Y-75327805D01*
X137923477Y-75315000D01*
X137923469Y-75315000D01*
X137880000Y-75310719D01*
X137836531Y-75315000D01*
X135266579Y-75315000D01*
X131828017Y-71876438D01*
X131835000Y-71841335D01*
X131835000Y-71558665D01*
X131779853Y-71281426D01*
X131671680Y-71020273D01*
X131514637Y-70785241D01*
X131314759Y-70585363D01*
X131285000Y-70565479D01*
X131285000Y-69809509D01*
X132665000Y-69809509D01*
X132665000Y-70750492D01*
X132685764Y-70961309D01*
X132767818Y-71231808D01*
X132901068Y-71481101D01*
X133080393Y-71699608D01*
X133298900Y-71878932D01*
X133548193Y-72012182D01*
X133818692Y-72094236D01*
X134100000Y-72121943D01*
X134381309Y-72094236D01*
X134651808Y-72012182D01*
X134901101Y-71878932D01*
X135119608Y-71699608D01*
X135298932Y-71481101D01*
X135370000Y-71348142D01*
X135441068Y-71481101D01*
X135620393Y-71699608D01*
X135838900Y-71878932D01*
X136088193Y-72012182D01*
X136358692Y-72094236D01*
X136640000Y-72121943D01*
X136921309Y-72094236D01*
X137191808Y-72012182D01*
X137441101Y-71878932D01*
X137659608Y-71699608D01*
X137838932Y-71481101D01*
X137907265Y-71353259D01*
X138057399Y-71582839D01*
X138255105Y-71784500D01*
X138488354Y-71943715D01*
X138748182Y-72054367D01*
X138830961Y-72071904D01*
X139053000Y-71949915D01*
X139053000Y-70407000D01*
X139033000Y-70407000D01*
X139033000Y-70153000D01*
X139053000Y-70153000D01*
X139053000Y-68610085D01*
X138830961Y-68488096D01*
X138748182Y-68505633D01*
X138488354Y-68616285D01*
X138255105Y-68775500D01*
X138057399Y-68977161D01*
X137907265Y-69206741D01*
X137838932Y-69078899D01*
X137659607Y-68860392D01*
X137441100Y-68681068D01*
X137191807Y-68547818D01*
X136921308Y-68465764D01*
X136640000Y-68438057D01*
X136358691Y-68465764D01*
X136088192Y-68547818D01*
X135838899Y-68681068D01*
X135620392Y-68860393D01*
X135441068Y-69078900D01*
X135370000Y-69211858D01*
X135298932Y-69078899D01*
X135119607Y-68860392D01*
X134901100Y-68681068D01*
X134651807Y-68547818D01*
X134381308Y-68465764D01*
X134100000Y-68438057D01*
X133818691Y-68465764D01*
X133548192Y-68547818D01*
X133298899Y-68681068D01*
X133080392Y-68860393D01*
X132901068Y-69078900D01*
X132767818Y-69328193D01*
X132685764Y-69598692D01*
X132665000Y-69809509D01*
X131285000Y-69809509D01*
X131285000Y-67185000D01*
X133786533Y-67185000D01*
X133830002Y-67189281D01*
X133873471Y-67185000D01*
X133873479Y-67185000D01*
X134003492Y-67172195D01*
X134170315Y-67121589D01*
X134324061Y-67039411D01*
X134458819Y-66928817D01*
X134486536Y-66895044D01*
X138622915Y-62758665D01*
X141565000Y-62758665D01*
X141565000Y-63041335D01*
X141620147Y-63318574D01*
X141728320Y-63579727D01*
X141885363Y-63814759D01*
X142085241Y-64014637D01*
X142320273Y-64171680D01*
X142581426Y-64279853D01*
X142858665Y-64335000D01*
X143141335Y-64335000D01*
X143418574Y-64279853D01*
X143679727Y-64171680D01*
X143914759Y-64014637D01*
X144114637Y-63814759D01*
X144271680Y-63579727D01*
X144379853Y-63318574D01*
X144435000Y-63041335D01*
X144435000Y-62800000D01*
X146238057Y-62800000D01*
X146265764Y-63081309D01*
X146347818Y-63351808D01*
X146481068Y-63601101D01*
X146660392Y-63819608D01*
X146878899Y-63998932D01*
X147128192Y-64132182D01*
X147398691Y-64214236D01*
X147609508Y-64235000D01*
X147750492Y-64235000D01*
X147961309Y-64214236D01*
X148231808Y-64132182D01*
X148481101Y-63998932D01*
X148699608Y-63819608D01*
X148878932Y-63601101D01*
X149012182Y-63351808D01*
X149094236Y-63081309D01*
X149121943Y-62800000D01*
X149108023Y-62658665D01*
X153865000Y-62658665D01*
X153865000Y-62941335D01*
X153920147Y-63218574D01*
X154028320Y-63479727D01*
X154185363Y-63714759D01*
X154385241Y-63914637D01*
X154620273Y-64071680D01*
X154881426Y-64179853D01*
X155158665Y-64235000D01*
X155441335Y-64235000D01*
X155718574Y-64179853D01*
X155979727Y-64071680D01*
X156214759Y-63914637D01*
X156414637Y-63714759D01*
X156571680Y-63479727D01*
X156679853Y-63218574D01*
X156735000Y-62941335D01*
X156735000Y-62658665D01*
X156679853Y-62381426D01*
X156571680Y-62120273D01*
X156414637Y-61885241D01*
X156214759Y-61685363D01*
X155979727Y-61528320D01*
X155718574Y-61420147D01*
X155441335Y-61365000D01*
X155158665Y-61365000D01*
X154881426Y-61420147D01*
X154620273Y-61528320D01*
X154385241Y-61685363D01*
X154185363Y-61885241D01*
X154028320Y-62120273D01*
X153920147Y-62381426D01*
X153865000Y-62658665D01*
X149108023Y-62658665D01*
X149094236Y-62518691D01*
X149012182Y-62248192D01*
X148878932Y-61998899D01*
X148699608Y-61780392D01*
X148481101Y-61601068D01*
X148231808Y-61467818D01*
X147961309Y-61385764D01*
X147750492Y-61365000D01*
X147609508Y-61365000D01*
X147398691Y-61385764D01*
X147128192Y-61467818D01*
X146878899Y-61601068D01*
X146660392Y-61780392D01*
X146481068Y-61998899D01*
X146347818Y-62248192D01*
X146265764Y-62518691D01*
X146238057Y-62800000D01*
X144435000Y-62800000D01*
X144435000Y-62758665D01*
X144379853Y-62481426D01*
X144271680Y-62220273D01*
X144114637Y-61985241D01*
X143914759Y-61785363D01*
X143679727Y-61628320D01*
X143418574Y-61520147D01*
X143141335Y-61465000D01*
X142858665Y-61465000D01*
X142581426Y-61520147D01*
X142320273Y-61628320D01*
X142085241Y-61785363D01*
X141885363Y-61985241D01*
X141728320Y-62220273D01*
X141620147Y-62481426D01*
X141565000Y-62758665D01*
X138622915Y-62758665D01*
X140595049Y-60786532D01*
X140628817Y-60758819D01*
X140739411Y-60624061D01*
X140821589Y-60470315D01*
X140872195Y-60303492D01*
X140885000Y-60173479D01*
X140885000Y-60173471D01*
X140889281Y-60130002D01*
X140885000Y-60086533D01*
X140885000Y-58258665D01*
X146365000Y-58258665D01*
X146365000Y-58541335D01*
X146420147Y-58818574D01*
X146528320Y-59079727D01*
X146685363Y-59314759D01*
X146885241Y-59514637D01*
X147120273Y-59671680D01*
X147381426Y-59779853D01*
X147658665Y-59835000D01*
X147941335Y-59835000D01*
X148218574Y-59779853D01*
X148479727Y-59671680D01*
X148714759Y-59514637D01*
X148914637Y-59314759D01*
X149071680Y-59079727D01*
X149179853Y-58818574D01*
X149235000Y-58541335D01*
X149235000Y-58400000D01*
X153978057Y-58400000D01*
X154005764Y-58681309D01*
X154087818Y-58951808D01*
X154221068Y-59201101D01*
X154400392Y-59419608D01*
X154618899Y-59598932D01*
X154868192Y-59732182D01*
X155138691Y-59814236D01*
X155349508Y-59835000D01*
X155490492Y-59835000D01*
X155701309Y-59814236D01*
X155971808Y-59732182D01*
X156221101Y-59598932D01*
X156439608Y-59419608D01*
X156618932Y-59201101D01*
X156752182Y-58951808D01*
X156834236Y-58681309D01*
X156843066Y-58591653D01*
X174737952Y-58591653D01*
X174893962Y-58907214D01*
X175268745Y-59098020D01*
X175673551Y-59212044D01*
X176092824Y-59244902D01*
X176510451Y-59195334D01*
X176910383Y-59065243D01*
X177206038Y-58907214D01*
X177362048Y-58591653D01*
X176050000Y-57279605D01*
X174737952Y-58591653D01*
X156843066Y-58591653D01*
X156861943Y-58400000D01*
X156834236Y-58118691D01*
X156752182Y-57848192D01*
X156618932Y-57598899D01*
X156439608Y-57380392D01*
X156221101Y-57201068D01*
X156112135Y-57142824D01*
X173905098Y-57142824D01*
X173954666Y-57560451D01*
X174084757Y-57960383D01*
X174242786Y-58256038D01*
X174558347Y-58412048D01*
X175870395Y-57100000D01*
X174558347Y-55787952D01*
X174242786Y-55943962D01*
X174051980Y-56318745D01*
X173937956Y-56723551D01*
X173905098Y-57142824D01*
X156112135Y-57142824D01*
X155971808Y-57067818D01*
X155701309Y-56985764D01*
X155490492Y-56965000D01*
X155349508Y-56965000D01*
X155138691Y-56985764D01*
X154868192Y-57067818D01*
X154618899Y-57201068D01*
X154400392Y-57380392D01*
X154221068Y-57598899D01*
X154087818Y-57848192D01*
X154005764Y-58118691D01*
X153978057Y-58400000D01*
X149235000Y-58400000D01*
X149235000Y-58258665D01*
X149179853Y-57981426D01*
X149071680Y-57720273D01*
X148914637Y-57485241D01*
X148714759Y-57285363D01*
X148479727Y-57128320D01*
X148218574Y-57020147D01*
X147941335Y-56965000D01*
X147658665Y-56965000D01*
X147381426Y-57020147D01*
X147120273Y-57128320D01*
X146885241Y-57285363D01*
X146685363Y-57485241D01*
X146528320Y-57720273D01*
X146420147Y-57981426D01*
X146365000Y-58258665D01*
X140885000Y-58258665D01*
X140885000Y-57388072D01*
X141750000Y-57388072D01*
X141874482Y-57375812D01*
X141994180Y-57339502D01*
X142104494Y-57280537D01*
X142201185Y-57201185D01*
X142280537Y-57104494D01*
X142339502Y-56994180D01*
X142375812Y-56874482D01*
X142388072Y-56750000D01*
X142388072Y-54620000D01*
X147558057Y-54620000D01*
X147585764Y-54901309D01*
X147667818Y-55171808D01*
X147801068Y-55421101D01*
X147980392Y-55639608D01*
X148198899Y-55818932D01*
X148448192Y-55952182D01*
X148718691Y-56034236D01*
X148929508Y-56055000D01*
X149070492Y-56055000D01*
X149281309Y-56034236D01*
X149551808Y-55952182D01*
X149801101Y-55818932D01*
X150019608Y-55639608D01*
X150198932Y-55421101D01*
X150332182Y-55171808D01*
X150393690Y-54969040D01*
X152608091Y-54969040D01*
X152702930Y-55233881D01*
X152847615Y-55475131D01*
X153036586Y-55683519D01*
X153262580Y-55851037D01*
X153516913Y-55971246D01*
X153650961Y-56011904D01*
X153873000Y-55889915D01*
X153873000Y-54747000D01*
X154127000Y-54747000D01*
X154127000Y-55889915D01*
X154349039Y-56011904D01*
X154483087Y-55971246D01*
X154737420Y-55851037D01*
X154963414Y-55683519D01*
X155152385Y-55475131D01*
X155297070Y-55233881D01*
X155391909Y-54969040D01*
X155270624Y-54747000D01*
X154127000Y-54747000D01*
X153873000Y-54747000D01*
X152729376Y-54747000D01*
X152608091Y-54969040D01*
X150393690Y-54969040D01*
X150414236Y-54901309D01*
X150441943Y-54620000D01*
X150414236Y-54338691D01*
X150393691Y-54270960D01*
X152608091Y-54270960D01*
X152729376Y-54493000D01*
X153873000Y-54493000D01*
X153873000Y-53350085D01*
X154127000Y-53350085D01*
X154127000Y-54493000D01*
X155270624Y-54493000D01*
X155349259Y-54349039D01*
X158988096Y-54349039D01*
X159028754Y-54483087D01*
X159148963Y-54737420D01*
X159316481Y-54963414D01*
X159524869Y-55152385D01*
X159766119Y-55297070D01*
X160030960Y-55391909D01*
X160253000Y-55270624D01*
X160253000Y-54127000D01*
X160507000Y-54127000D01*
X160507000Y-55270624D01*
X160729040Y-55391909D01*
X160993881Y-55297070D01*
X161235131Y-55152385D01*
X161443519Y-54963414D01*
X161611037Y-54737420D01*
X161731246Y-54483087D01*
X161771904Y-54349039D01*
X161649915Y-54127000D01*
X160507000Y-54127000D01*
X160253000Y-54127000D01*
X159110085Y-54127000D01*
X158988096Y-54349039D01*
X155349259Y-54349039D01*
X155391909Y-54270960D01*
X155297070Y-54006119D01*
X155152385Y-53764869D01*
X155049091Y-53650961D01*
X158988096Y-53650961D01*
X159110085Y-53873000D01*
X160253000Y-53873000D01*
X160253000Y-52729376D01*
X160507000Y-52729376D01*
X160507000Y-53873000D01*
X161649915Y-53873000D01*
X161657790Y-53858665D01*
X166565000Y-53858665D01*
X166565000Y-54141335D01*
X166620147Y-54418574D01*
X166728320Y-54679727D01*
X166885363Y-54914759D01*
X167085241Y-55114637D01*
X167320273Y-55271680D01*
X167581426Y-55379853D01*
X167858665Y-55435000D01*
X168141335Y-55435000D01*
X168418574Y-55379853D01*
X168679727Y-55271680D01*
X168914759Y-55114637D01*
X169114637Y-54914759D01*
X169271680Y-54679727D01*
X169296419Y-54620000D01*
X169558057Y-54620000D01*
X169585764Y-54901309D01*
X169667818Y-55171808D01*
X169801068Y-55421101D01*
X169980392Y-55639608D01*
X170198899Y-55818932D01*
X170448192Y-55952182D01*
X170718691Y-56034236D01*
X170929508Y-56055000D01*
X171070492Y-56055000D01*
X171281309Y-56034236D01*
X171551808Y-55952182D01*
X171801101Y-55818932D01*
X172019608Y-55639608D01*
X172198932Y-55421101D01*
X172332182Y-55171808D01*
X172414236Y-54901309D01*
X172441943Y-54620000D01*
X172414236Y-54338691D01*
X172332182Y-54068192D01*
X172198932Y-53818899D01*
X172019608Y-53600392D01*
X171801101Y-53421068D01*
X171551808Y-53287818D01*
X171281309Y-53205764D01*
X171070492Y-53185000D01*
X170929508Y-53185000D01*
X170718691Y-53205764D01*
X170448192Y-53287818D01*
X170198899Y-53421068D01*
X169980392Y-53600392D01*
X169801068Y-53818899D01*
X169667818Y-54068192D01*
X169585764Y-54338691D01*
X169558057Y-54620000D01*
X169296419Y-54620000D01*
X169379853Y-54418574D01*
X169435000Y-54141335D01*
X169435000Y-53858665D01*
X169379853Y-53581426D01*
X169271680Y-53320273D01*
X169114637Y-53085241D01*
X168914759Y-52885363D01*
X168679727Y-52728320D01*
X168418574Y-52620147D01*
X168141335Y-52565000D01*
X167858665Y-52565000D01*
X167581426Y-52620147D01*
X167320273Y-52728320D01*
X167085241Y-52885363D01*
X166885363Y-53085241D01*
X166728320Y-53320273D01*
X166620147Y-53581426D01*
X166565000Y-53858665D01*
X161657790Y-53858665D01*
X161771904Y-53650961D01*
X161731246Y-53516913D01*
X161611037Y-53262580D01*
X161443519Y-53036586D01*
X161235131Y-52847615D01*
X160993881Y-52702930D01*
X160729040Y-52608091D01*
X160507000Y-52729376D01*
X160253000Y-52729376D01*
X160030960Y-52608091D01*
X159766119Y-52702930D01*
X159524869Y-52847615D01*
X159316481Y-53036586D01*
X159148963Y-53262580D01*
X159028754Y-53516913D01*
X158988096Y-53650961D01*
X155049091Y-53650961D01*
X154963414Y-53556481D01*
X154737420Y-53388963D01*
X154483087Y-53268754D01*
X154349039Y-53228096D01*
X154127000Y-53350085D01*
X153873000Y-53350085D01*
X153650961Y-53228096D01*
X153516913Y-53268754D01*
X153262580Y-53388963D01*
X153036586Y-53556481D01*
X152847615Y-53764869D01*
X152702930Y-54006119D01*
X152608091Y-54270960D01*
X150393691Y-54270960D01*
X150332182Y-54068192D01*
X150198932Y-53818899D01*
X150019608Y-53600392D01*
X149801101Y-53421068D01*
X149551808Y-53287818D01*
X149281309Y-53205764D01*
X149070492Y-53185000D01*
X148929508Y-53185000D01*
X148718691Y-53205764D01*
X148448192Y-53287818D01*
X148198899Y-53421068D01*
X147980392Y-53600392D01*
X147801068Y-53818899D01*
X147667818Y-54068192D01*
X147585764Y-54338691D01*
X147558057Y-54620000D01*
X142388072Y-54620000D01*
X142388072Y-53250000D01*
X142375812Y-53125518D01*
X142339502Y-53005820D01*
X142280537Y-52895506D01*
X142201185Y-52798815D01*
X142104494Y-52719463D01*
X141994180Y-52660498D01*
X141874482Y-52624188D01*
X141750000Y-52611928D01*
X141389650Y-52611928D01*
X146116579Y-47885000D01*
X147865479Y-47885000D01*
X147885363Y-47914759D01*
X148085241Y-48114637D01*
X148320273Y-48271680D01*
X148581426Y-48379853D01*
X148858665Y-48435000D01*
X149141335Y-48435000D01*
X149418574Y-48379853D01*
X149679727Y-48271680D01*
X149914759Y-48114637D01*
X150114637Y-47914759D01*
X150271680Y-47679727D01*
X150379853Y-47418574D01*
X150435000Y-47141335D01*
X150435000Y-46858665D01*
X150428017Y-46823561D01*
X150866579Y-46385000D01*
X152701509Y-46385000D01*
X152620147Y-46581426D01*
X152565000Y-46858665D01*
X152565000Y-47141335D01*
X152620147Y-47418574D01*
X152728320Y-47679727D01*
X152885363Y-47914759D01*
X153085241Y-48114637D01*
X153320273Y-48271680D01*
X153581426Y-48379853D01*
X153858665Y-48435000D01*
X154141335Y-48435000D01*
X154418574Y-48379853D01*
X154679727Y-48271680D01*
X154914759Y-48114637D01*
X155114637Y-47914759D01*
X155271680Y-47679727D01*
X155379853Y-47418574D01*
X155435000Y-47141335D01*
X155435000Y-46858665D01*
X155379853Y-46581426D01*
X155298491Y-46385000D01*
X164142507Y-46385000D01*
X164099472Y-46526868D01*
X164081928Y-46705000D01*
X164081928Y-47861928D01*
X163450000Y-47861928D01*
X163325518Y-47874188D01*
X163205820Y-47910498D01*
X163095506Y-47969463D01*
X162998815Y-48048815D01*
X162919463Y-48145506D01*
X162860498Y-48255820D01*
X162824188Y-48375518D01*
X162811928Y-48500000D01*
X162811928Y-50300000D01*
X162824188Y-50424482D01*
X162860498Y-50544180D01*
X162919463Y-50654494D01*
X162998815Y-50751185D01*
X163095506Y-50830537D01*
X163205820Y-50889502D01*
X163325518Y-50925812D01*
X163450000Y-50938072D01*
X164550000Y-50938072D01*
X164674482Y-50925812D01*
X164794180Y-50889502D01*
X164904494Y-50830537D01*
X165001185Y-50751185D01*
X165080537Y-50654494D01*
X165139502Y-50544180D01*
X165175812Y-50424482D01*
X165188072Y-50300000D01*
X165188072Y-48868072D01*
X165351928Y-48868072D01*
X165351928Y-50025000D01*
X165369472Y-50203132D01*
X165421431Y-50374418D01*
X165505808Y-50532276D01*
X165619361Y-50670639D01*
X165757724Y-50784192D01*
X165915582Y-50868569D01*
X166086868Y-50920528D01*
X166265000Y-50938072D01*
X166815000Y-50938072D01*
X166993132Y-50920528D01*
X167164418Y-50868569D01*
X167322276Y-50784192D01*
X167460639Y-50670639D01*
X167574192Y-50532276D01*
X167658569Y-50374418D01*
X167710528Y-50203132D01*
X167728072Y-50025000D01*
X167728072Y-49885000D01*
X170469424Y-49885000D01*
X175589202Y-55004779D01*
X175189617Y-55134757D01*
X174893962Y-55292786D01*
X174737952Y-55608347D01*
X176050000Y-56920395D01*
X176064143Y-56906253D01*
X176243748Y-57085858D01*
X176229605Y-57100000D01*
X177541653Y-58412048D01*
X177857214Y-58256038D01*
X178048020Y-57881255D01*
X178139809Y-57555386D01*
X178615000Y-58030577D01*
X178615001Y-68825144D01*
X178615000Y-68825154D01*
X178615000Y-68865479D01*
X178585241Y-68885363D01*
X178385363Y-69085241D01*
X178228320Y-69320273D01*
X178120147Y-69581426D01*
X178065000Y-69858665D01*
X178065000Y-70141335D01*
X178120147Y-70418574D01*
X178228320Y-70679727D01*
X178385363Y-70914759D01*
X178585241Y-71114637D01*
X178820273Y-71271680D01*
X179081426Y-71379853D01*
X179358665Y-71435000D01*
X179641335Y-71435000D01*
X179918574Y-71379853D01*
X180179727Y-71271680D01*
X180414759Y-71114637D01*
X180614637Y-70914759D01*
X180771680Y-70679727D01*
X180879853Y-70418574D01*
X180935000Y-70141335D01*
X180935000Y-69858665D01*
X180879853Y-69581426D01*
X180771680Y-69320273D01*
X180614637Y-69085241D01*
X180414759Y-68885363D01*
X180385000Y-68865479D01*
X180385000Y-58591653D01*
X185037952Y-58591653D01*
X185193962Y-58907214D01*
X185568745Y-59098020D01*
X185973551Y-59212044D01*
X186392824Y-59244902D01*
X186810451Y-59195334D01*
X187210383Y-59065243D01*
X187506038Y-58907214D01*
X187662048Y-58591653D01*
X186350000Y-57279605D01*
X185037952Y-58591653D01*
X180385000Y-58591653D01*
X180385000Y-57707463D01*
X180389281Y-57663997D01*
X180385000Y-57620531D01*
X180385000Y-57620521D01*
X180372195Y-57490508D01*
X180321589Y-57323685D01*
X180239411Y-57169939D01*
X180212796Y-57137509D01*
X180295276Y-57192620D01*
X180642873Y-57336600D01*
X181011881Y-57410000D01*
X181388119Y-57410000D01*
X181757127Y-57336600D01*
X182104724Y-57192620D01*
X182179249Y-57142824D01*
X184205098Y-57142824D01*
X184254666Y-57560451D01*
X184384757Y-57960383D01*
X184542786Y-58256038D01*
X184858347Y-58412048D01*
X186170395Y-57100000D01*
X186529605Y-57100000D01*
X187841653Y-58412048D01*
X188157214Y-58256038D01*
X188348020Y-57881255D01*
X188462044Y-57476449D01*
X188494902Y-57057176D01*
X188445334Y-56639549D01*
X188315243Y-56239617D01*
X188157214Y-55943962D01*
X187841653Y-55787952D01*
X186529605Y-57100000D01*
X186170395Y-57100000D01*
X184858347Y-55787952D01*
X184542786Y-55943962D01*
X184351980Y-56318745D01*
X184237956Y-56723551D01*
X184205098Y-57142824D01*
X182179249Y-57142824D01*
X182417554Y-56983594D01*
X182683594Y-56717554D01*
X182892620Y-56404724D01*
X183036600Y-56057127D01*
X183110000Y-55688119D01*
X183110000Y-55608347D01*
X185037952Y-55608347D01*
X186350000Y-56920395D01*
X187662048Y-55608347D01*
X187506038Y-55292786D01*
X187131255Y-55101980D01*
X186726449Y-54987956D01*
X186307176Y-54955098D01*
X185889549Y-55004666D01*
X185489617Y-55134757D01*
X185193962Y-55292786D01*
X185037952Y-55608347D01*
X183110000Y-55608347D01*
X183110000Y-55311881D01*
X183036600Y-54942873D01*
X182892620Y-54595276D01*
X182683594Y-54282446D01*
X182417554Y-54016406D01*
X182104724Y-53807380D01*
X181757127Y-53663400D01*
X181388119Y-53590000D01*
X181011881Y-53590000D01*
X180642873Y-53663400D01*
X180295276Y-53807380D01*
X179982446Y-54016406D01*
X179716406Y-54282446D01*
X179507380Y-54595276D01*
X179363400Y-54942873D01*
X179290000Y-55311881D01*
X179290000Y-55688119D01*
X179363400Y-56057127D01*
X179507380Y-56404724D01*
X179537736Y-56450155D01*
X171492536Y-48404956D01*
X171471950Y-48379872D01*
X184265000Y-48379872D01*
X184265000Y-48820128D01*
X184350890Y-49251925D01*
X184519369Y-49658669D01*
X184763962Y-50024729D01*
X185075271Y-50336038D01*
X185441331Y-50580631D01*
X185848075Y-50749110D01*
X186279872Y-50835000D01*
X186720128Y-50835000D01*
X187151925Y-50749110D01*
X187558669Y-50580631D01*
X187924729Y-50336038D01*
X188236038Y-50024729D01*
X188480631Y-49658669D01*
X188649110Y-49251925D01*
X188735000Y-48820128D01*
X188735000Y-48379872D01*
X188649110Y-47948075D01*
X188480631Y-47541331D01*
X188236038Y-47175271D01*
X187924729Y-46863962D01*
X187558669Y-46619369D01*
X187151925Y-46450890D01*
X186720128Y-46365000D01*
X186279872Y-46365000D01*
X185848075Y-46450890D01*
X185441331Y-46619369D01*
X185075271Y-46863962D01*
X184763962Y-47175271D01*
X184519369Y-47541331D01*
X184350890Y-47948075D01*
X184265000Y-48379872D01*
X171471950Y-48379872D01*
X171464819Y-48371183D01*
X171456328Y-48364215D01*
X171679727Y-48271680D01*
X171914759Y-48114637D01*
X172114637Y-47914759D01*
X172271680Y-47679727D01*
X172379853Y-47418574D01*
X172435000Y-47141335D01*
X172435000Y-46858665D01*
X172379853Y-46581426D01*
X172271680Y-46320273D01*
X172114637Y-46085241D01*
X171914759Y-45885363D01*
X171679727Y-45728320D01*
X171514788Y-45660000D01*
X189340000Y-45660000D01*
X189340001Y-79340000D01*
G36*
X108320273Y-45728320D02*
G01*
X108085241Y-45885363D01*
X107885363Y-46085241D01*
X107728320Y-46320273D01*
X107620147Y-46581426D01*
X107565000Y-46858665D01*
X107565000Y-47141335D01*
X107620147Y-47418574D01*
X107728320Y-47679727D01*
X107885363Y-47914759D01*
X108085241Y-48114637D01*
X108320273Y-48271680D01*
X108581426Y-48379853D01*
X108858665Y-48435000D01*
X109141335Y-48435000D01*
X109418574Y-48379853D01*
X109679727Y-48271680D01*
X109914759Y-48114637D01*
X110114637Y-47914759D01*
X110271680Y-47679727D01*
X110379853Y-47418574D01*
X110435000Y-47141335D01*
X110435000Y-46858665D01*
X110379853Y-46581426D01*
X110271680Y-46320273D01*
X110114637Y-46085241D01*
X109914759Y-45885363D01*
X109679727Y-45728320D01*
X109514788Y-45660000D01*
X113485212Y-45660000D01*
X113320273Y-45728320D01*
X113085241Y-45885363D01*
X112885363Y-46085241D01*
X112728320Y-46320273D01*
X112620147Y-46581426D01*
X112565000Y-46858665D01*
X112565000Y-47141335D01*
X112620147Y-47418574D01*
X112728320Y-47679727D01*
X112885363Y-47914759D01*
X113085241Y-48114637D01*
X113320273Y-48271680D01*
X113581426Y-48379853D01*
X113858665Y-48435000D01*
X114141335Y-48435000D01*
X114418574Y-48379853D01*
X114679727Y-48271680D01*
X114914759Y-48114637D01*
X115114637Y-47914759D01*
X115271680Y-47679727D01*
X115379853Y-47418574D01*
X115435000Y-47141335D01*
X115435000Y-46858665D01*
X115379853Y-46581426D01*
X115271680Y-46320273D01*
X115114637Y-46085241D01*
X114914759Y-45885363D01*
X114679727Y-45728320D01*
X114514788Y-45660000D01*
X118735212Y-45660000D01*
X118570273Y-45728320D01*
X118335241Y-45885363D01*
X118135363Y-46085241D01*
X117978320Y-46320273D01*
X117870147Y-46581426D01*
X117815000Y-46858665D01*
X117815000Y-47141335D01*
X117870147Y-47418574D01*
X117978320Y-47679727D01*
X118135363Y-47914759D01*
X118335241Y-48114637D01*
X118570273Y-48271680D01*
X118831426Y-48379853D01*
X119108665Y-48435000D01*
X119391335Y-48435000D01*
X119668574Y-48379853D01*
X119929727Y-48271680D01*
X120164759Y-48114637D01*
X120364637Y-47914759D01*
X120384521Y-47885000D01*
X125153422Y-47885000D01*
X127081928Y-49813507D01*
X127081928Y-49955000D01*
X127099472Y-50133132D01*
X127127000Y-50223880D01*
X127127000Y-51273000D01*
X127147000Y-51273000D01*
X127147000Y-51527000D01*
X127127000Y-51527000D01*
X127127000Y-52776250D01*
X127285750Y-52935000D01*
X127385000Y-52936154D01*
X127385001Y-55106521D01*
X127380719Y-55150000D01*
X127397805Y-55323490D01*
X127448412Y-55490313D01*
X127530590Y-55644059D01*
X127613468Y-55745046D01*
X127613471Y-55745049D01*
X127641184Y-55778817D01*
X127674951Y-55806530D01*
X130603650Y-58735229D01*
X130577573Y-59000000D01*
X130607210Y-59300913D01*
X130694983Y-59590261D01*
X130837519Y-59856927D01*
X131029339Y-60090661D01*
X131263073Y-60282481D01*
X131529739Y-60425017D01*
X131707302Y-60478880D01*
X133955125Y-62726704D01*
X133938057Y-62900000D01*
X133965764Y-63181309D01*
X134047818Y-63451808D01*
X134181068Y-63701101D01*
X134360392Y-63919608D01*
X134578899Y-64098932D01*
X134709620Y-64168804D01*
X133463424Y-65415000D01*
X130543465Y-65415000D01*
X130499999Y-65410719D01*
X130456533Y-65415000D01*
X108843469Y-65415000D01*
X108800000Y-65410719D01*
X108756531Y-65415000D01*
X108756523Y-65415000D01*
X108626510Y-65427805D01*
X108459686Y-65478411D01*
X108305941Y-65560589D01*
X108204953Y-65643468D01*
X108204951Y-65643470D01*
X108171183Y-65671183D01*
X108143470Y-65704951D01*
X105176439Y-68671983D01*
X105141335Y-68665000D01*
X104858665Y-68665000D01*
X104581426Y-68720147D01*
X104320273Y-68828320D01*
X104085241Y-68985363D01*
X103885363Y-69185241D01*
X103728320Y-69420273D01*
X103620147Y-69681426D01*
X103565000Y-69958665D01*
X103565000Y-70241335D01*
X103620147Y-70518574D01*
X103728320Y-70779727D01*
X103885363Y-71014759D01*
X104085241Y-71214637D01*
X104320273Y-71371680D01*
X104581426Y-71479853D01*
X104858665Y-71535000D01*
X105141335Y-71535000D01*
X105418574Y-71479853D01*
X105679727Y-71371680D01*
X105914759Y-71214637D01*
X106114637Y-71014759D01*
X106271680Y-70779727D01*
X106379853Y-70518574D01*
X106395388Y-70440475D01*
X113815000Y-70440475D01*
X113815000Y-70959525D01*
X113916261Y-71468601D01*
X114114893Y-71948141D01*
X114403262Y-72379715D01*
X114770285Y-72746738D01*
X115201859Y-73035107D01*
X115681399Y-73233739D01*
X116190475Y-73335000D01*
X116709525Y-73335000D01*
X117218601Y-73233739D01*
X117698141Y-73035107D01*
X118129715Y-72746738D01*
X118496738Y-72379715D01*
X118785107Y-71948141D01*
X118983739Y-71468601D01*
X119085000Y-70959525D01*
X119085000Y-70440475D01*
X123315000Y-70440475D01*
X123315000Y-70959525D01*
X123416261Y-71468601D01*
X123614893Y-71948141D01*
X123903262Y-72379715D01*
X124270285Y-72746738D01*
X124701859Y-73035107D01*
X125181399Y-73233739D01*
X125690475Y-73335000D01*
X126209525Y-73335000D01*
X126718601Y-73233739D01*
X127198141Y-73035107D01*
X127629715Y-72746738D01*
X127996738Y-72379715D01*
X128285107Y-71948141D01*
X128483739Y-71468601D01*
X128585000Y-70959525D01*
X128585000Y-70440475D01*
X128483739Y-69931399D01*
X128285107Y-69451859D01*
X127996738Y-69020285D01*
X127629715Y-68653262D01*
X127198141Y-68364893D01*
X126718601Y-68166261D01*
X126209525Y-68065000D01*
X125690475Y-68065000D01*
X125181399Y-68166261D01*
X124701859Y-68364893D01*
X124270285Y-68653262D01*
X123903262Y-69020285D01*
X123614893Y-69451859D01*
X123416261Y-69931399D01*
X123315000Y-70440475D01*
X119085000Y-70440475D01*
X118983739Y-69931399D01*
X118785107Y-69451859D01*
X118496738Y-69020285D01*
X118129715Y-68653262D01*
X117698141Y-68364893D01*
X117218601Y-68166261D01*
X116709525Y-68065000D01*
X116190475Y-68065000D01*
X115681399Y-68166261D01*
X115201859Y-68364893D01*
X114770285Y-68653262D01*
X114403262Y-69020285D01*
X114114893Y-69451859D01*
X113916261Y-69931399D01*
X113815000Y-70440475D01*
X106395388Y-70440475D01*
X106435000Y-70241335D01*
X106435000Y-69958665D01*
X106428017Y-69923561D01*
X109166579Y-67185000D01*
X129515000Y-67185000D01*
X129515001Y-70565478D01*
X129485241Y-70585363D01*
X129285363Y-70785241D01*
X129128320Y-71020273D01*
X129020147Y-71281426D01*
X128965000Y-71558665D01*
X128965000Y-71841335D01*
X129020147Y-72118574D01*
X129128320Y-72379727D01*
X129285363Y-72614759D01*
X129485241Y-72814637D01*
X129720273Y-72971680D01*
X129981426Y-73079853D01*
X130258665Y-73135000D01*
X130541335Y-73135000D01*
X130576438Y-73128017D01*
X133510349Y-76061928D01*
X133300000Y-76061928D01*
X133175518Y-76074188D01*
X133055820Y-76110498D01*
X132945506Y-76169463D01*
X132848815Y-76248815D01*
X132769463Y-76345506D01*
X132710498Y-76455820D01*
X132674188Y-76575518D01*
X132661928Y-76700000D01*
X132661928Y-79100000D01*
X132674188Y-79224482D01*
X132709230Y-79340000D01*
X124730817Y-79340000D01*
X124892312Y-79178505D01*
X125060299Y-78927095D01*
X125176011Y-78647743D01*
X125235000Y-78351184D01*
X125235000Y-78048816D01*
X125176011Y-77752257D01*
X125151343Y-77692702D01*
X129586903Y-77692702D01*
X129658486Y-77936671D01*
X129913996Y-78057571D01*
X130188184Y-78126300D01*
X130470512Y-78140217D01*
X130750130Y-78098787D01*
X131016292Y-78003603D01*
X131141514Y-77936671D01*
X131213097Y-77692702D01*
X130400000Y-76879605D01*
X129586903Y-77692702D01*
X125151343Y-77692702D01*
X125060299Y-77472905D01*
X124892312Y-77221495D01*
X124678505Y-77007688D01*
X124427095Y-76839701D01*
X124260059Y-76770512D01*
X128959783Y-76770512D01*
X129001213Y-77050130D01*
X129096397Y-77316292D01*
X129163329Y-77441514D01*
X129407298Y-77513097D01*
X130220395Y-76700000D01*
X130579605Y-76700000D01*
X131392702Y-77513097D01*
X131636671Y-77441514D01*
X131757571Y-77186004D01*
X131826300Y-76911816D01*
X131840217Y-76629488D01*
X131798787Y-76349870D01*
X131703603Y-76083708D01*
X131636671Y-75958486D01*
X131392702Y-75886903D01*
X130579605Y-76700000D01*
X130220395Y-76700000D01*
X129407298Y-75886903D01*
X129163329Y-75958486D01*
X129042429Y-76213996D01*
X128973700Y-76488184D01*
X128959783Y-76770512D01*
X124260059Y-76770512D01*
X124147743Y-76723989D01*
X123851184Y-76665000D01*
X123548816Y-76665000D01*
X123252257Y-76723989D01*
X122972905Y-76839701D01*
X122721495Y-77007688D01*
X122507688Y-77221495D01*
X122450000Y-77307831D01*
X122392312Y-77221495D01*
X122178505Y-77007688D01*
X121927095Y-76839701D01*
X121647743Y-76723989D01*
X121351184Y-76665000D01*
X121048816Y-76665000D01*
X120752257Y-76723989D01*
X120472905Y-76839701D01*
X120221495Y-77007688D01*
X120007688Y-77221495D01*
X119950000Y-77307831D01*
X119892312Y-77221495D01*
X119678505Y-77007688D01*
X119427095Y-76839701D01*
X119147743Y-76723989D01*
X118851184Y-76665000D01*
X118548816Y-76665000D01*
X118252257Y-76723989D01*
X117972905Y-76839701D01*
X117721495Y-77007688D01*
X117507688Y-77221495D01*
X117339701Y-77472905D01*
X117223989Y-77752257D01*
X117165000Y-78048816D01*
X117165000Y-78351184D01*
X117223989Y-78647743D01*
X117339701Y-78927095D01*
X117507688Y-79178505D01*
X117669183Y-79340000D01*
X90660000Y-79340000D01*
X90660000Y-76279872D01*
X91265000Y-76279872D01*
X91265000Y-76720128D01*
X91350890Y-77151925D01*
X91519369Y-77558669D01*
X91763962Y-77924729D01*
X92075271Y-78236038D01*
X92441331Y-78480631D01*
X92848075Y-78649110D01*
X93279872Y-78735000D01*
X93720128Y-78735000D01*
X94151925Y-78649110D01*
X94558669Y-78480631D01*
X94924729Y-78236038D01*
X95236038Y-77924729D01*
X95439651Y-77620000D01*
X99058057Y-77620000D01*
X99085764Y-77901309D01*
X99167818Y-78171808D01*
X99301068Y-78421101D01*
X99480392Y-78639608D01*
X99698899Y-78818932D01*
X99948192Y-78952182D01*
X100218691Y-79034236D01*
X100429508Y-79055000D01*
X100570492Y-79055000D01*
X100781309Y-79034236D01*
X101051808Y-78952182D01*
X101301101Y-78818932D01*
X101519608Y-78639608D01*
X101698932Y-78421101D01*
X101832182Y-78171808D01*
X101914236Y-77901309D01*
X101932093Y-77720000D01*
X103558057Y-77720000D01*
X103585764Y-78001309D01*
X103667818Y-78271808D01*
X103801068Y-78521101D01*
X103980392Y-78739608D01*
X104198899Y-78918932D01*
X104448192Y-79052182D01*
X104718691Y-79134236D01*
X104929508Y-79155000D01*
X105070492Y-79155000D01*
X105281309Y-79134236D01*
X105551808Y-79052182D01*
X105801101Y-78918932D01*
X106019608Y-78739608D01*
X106198932Y-78521101D01*
X106332182Y-78271808D01*
X106414236Y-78001309D01*
X106441943Y-77720000D01*
X106414236Y-77438691D01*
X106332182Y-77168192D01*
X106198932Y-76918899D01*
X106019608Y-76700392D01*
X105801101Y-76521068D01*
X105551808Y-76387818D01*
X105281309Y-76305764D01*
X105070492Y-76285000D01*
X104929508Y-76285000D01*
X104718691Y-76305764D01*
X104448192Y-76387818D01*
X104198899Y-76521068D01*
X103980392Y-76700392D01*
X103801068Y-76918899D01*
X103667818Y-77168192D01*
X103585764Y-77438691D01*
X103558057Y-77720000D01*
X101932093Y-77720000D01*
X101941943Y-77620000D01*
X101914236Y-77338691D01*
X101832182Y-77068192D01*
X101698932Y-76818899D01*
X101519608Y-76600392D01*
X101301101Y-76421068D01*
X101051808Y-76287818D01*
X100781309Y-76205764D01*
X100570492Y-76185000D01*
X100429508Y-76185000D01*
X100218691Y-76205764D01*
X99948192Y-76287818D01*
X99698899Y-76421068D01*
X99480392Y-76600392D01*
X99301068Y-76818899D01*
X99167818Y-77068192D01*
X99085764Y-77338691D01*
X99058057Y-77620000D01*
X95439651Y-77620000D01*
X95480631Y-77558669D01*
X95649110Y-77151925D01*
X95735000Y-76720128D01*
X95735000Y-76279872D01*
X95649110Y-75848075D01*
X95590799Y-75707298D01*
X129586903Y-75707298D01*
X130400000Y-76520395D01*
X131213097Y-75707298D01*
X131141514Y-75463329D01*
X130886004Y-75342429D01*
X130611816Y-75273700D01*
X130329488Y-75259783D01*
X130049870Y-75301213D01*
X129783708Y-75396397D01*
X129658486Y-75463329D01*
X129586903Y-75707298D01*
X95590799Y-75707298D01*
X95480631Y-75441331D01*
X95236038Y-75075271D01*
X94924729Y-74763962D01*
X94558669Y-74519369D01*
X94151925Y-74350890D01*
X93720128Y-74265000D01*
X93279872Y-74265000D01*
X92848075Y-74350890D01*
X92441331Y-74519369D01*
X92075271Y-74763962D01*
X91763962Y-75075271D01*
X91519369Y-75441331D01*
X91350890Y-75848075D01*
X91265000Y-76279872D01*
X90660000Y-76279872D01*
X90660000Y-70992702D01*
X99686903Y-70992702D01*
X99758486Y-71236671D01*
X100013996Y-71357571D01*
X100288184Y-71426300D01*
X100570512Y-71440217D01*
X100850130Y-71398787D01*
X101116292Y-71303603D01*
X101241514Y-71236671D01*
X101313097Y-70992702D01*
X100500000Y-70179605D01*
X99686903Y-70992702D01*
X90660000Y-70992702D01*
X90660000Y-70070512D01*
X99059783Y-70070512D01*
X99101213Y-70350130D01*
X99196397Y-70616292D01*
X99263329Y-70741514D01*
X99507298Y-70813097D01*
X100320395Y-70000000D01*
X100679605Y-70000000D01*
X101492702Y-70813097D01*
X101736671Y-70741514D01*
X101857571Y-70486004D01*
X101926300Y-70211816D01*
X101940217Y-69929488D01*
X101898787Y-69649870D01*
X101803603Y-69383708D01*
X101736671Y-69258486D01*
X101492702Y-69186903D01*
X100679605Y-70000000D01*
X100320395Y-70000000D01*
X99507298Y-69186903D01*
X99263329Y-69258486D01*
X99142429Y-69513996D01*
X99073700Y-69788184D01*
X99059783Y-70070512D01*
X90660000Y-70070512D01*
X90660000Y-69007298D01*
X99686903Y-69007298D01*
X100500000Y-69820395D01*
X101313097Y-69007298D01*
X101241514Y-68763329D01*
X100986004Y-68642429D01*
X100711816Y-68573700D01*
X100429488Y-68559783D01*
X100149870Y-68601213D01*
X99883708Y-68696397D01*
X99758486Y-68763329D01*
X99686903Y-69007298D01*
X90660000Y-69007298D01*
X90660000Y-66692702D01*
X95286903Y-66692702D01*
X95358486Y-66936671D01*
X95613996Y-67057571D01*
X95888184Y-67126300D01*
X96170512Y-67140217D01*
X96450130Y-67098787D01*
X96716292Y-67003603D01*
X96841514Y-66936671D01*
X96913097Y-66692702D01*
X96100000Y-65879605D01*
X95286903Y-66692702D01*
X90660000Y-66692702D01*
X90660000Y-65770512D01*
X94659783Y-65770512D01*
X94701213Y-66050130D01*
X94796397Y-66316292D01*
X94863329Y-66441514D01*
X95107298Y-66513097D01*
X95920395Y-65700000D01*
X96279605Y-65700000D01*
X97092702Y-66513097D01*
X97336671Y-66441514D01*
X97457571Y-66186004D01*
X97526300Y-65911816D01*
X97540217Y-65629488D01*
X97529724Y-65558665D01*
X99665000Y-65558665D01*
X99665000Y-65841335D01*
X99720147Y-66118574D01*
X99828320Y-66379727D01*
X99985363Y-66614759D01*
X100185241Y-66814637D01*
X100420273Y-66971680D01*
X100681426Y-67079853D01*
X100958665Y-67135000D01*
X101241335Y-67135000D01*
X101518574Y-67079853D01*
X101779727Y-66971680D01*
X102014759Y-66814637D01*
X102214637Y-66614759D01*
X102371680Y-66379727D01*
X102479853Y-66118574D01*
X102535000Y-65841335D01*
X102535000Y-65558665D01*
X102479853Y-65281426D01*
X102371680Y-65020273D01*
X102214637Y-64785241D01*
X102014759Y-64585363D01*
X101779727Y-64428320D01*
X101518574Y-64320147D01*
X101380601Y-64292702D01*
X108486903Y-64292702D01*
X108558486Y-64536671D01*
X108813996Y-64657571D01*
X109088184Y-64726300D01*
X109370512Y-64740217D01*
X109650130Y-64698787D01*
X109916292Y-64603603D01*
X110041514Y-64536671D01*
X110113097Y-64292702D01*
X109300000Y-63479605D01*
X108486903Y-64292702D01*
X101380601Y-64292702D01*
X101241335Y-64265000D01*
X100958665Y-64265000D01*
X100681426Y-64320147D01*
X100420273Y-64428320D01*
X100185241Y-64585363D01*
X99985363Y-64785241D01*
X99828320Y-65020273D01*
X99720147Y-65281426D01*
X99665000Y-65558665D01*
X97529724Y-65558665D01*
X97498787Y-65349870D01*
X97403603Y-65083708D01*
X97336671Y-64958486D01*
X97092702Y-64886903D01*
X96279605Y-65700000D01*
X95920395Y-65700000D01*
X95107298Y-64886903D01*
X94863329Y-64958486D01*
X94742429Y-65213996D01*
X94673700Y-65488184D01*
X94659783Y-65770512D01*
X90660000Y-65770512D01*
X90660000Y-64707298D01*
X95286903Y-64707298D01*
X96100000Y-65520395D01*
X96913097Y-64707298D01*
X96841514Y-64463329D01*
X96586004Y-64342429D01*
X96311816Y-64273700D01*
X96029488Y-64259783D01*
X95749870Y-64301213D01*
X95483708Y-64396397D01*
X95358486Y-64463329D01*
X95286903Y-64707298D01*
X90660000Y-64707298D01*
X90660000Y-63370512D01*
X107859783Y-63370512D01*
X107901213Y-63650130D01*
X107996397Y-63916292D01*
X108063329Y-64041514D01*
X108307298Y-64113097D01*
X109120395Y-63300000D01*
X109479605Y-63300000D01*
X110292702Y-64113097D01*
X110536671Y-64041514D01*
X110657571Y-63786004D01*
X110726300Y-63511816D01*
X110736741Y-63300000D01*
X115478057Y-63300000D01*
X115505764Y-63581309D01*
X115587818Y-63851808D01*
X115721068Y-64101101D01*
X115900392Y-64319608D01*
X116118899Y-64498932D01*
X116368192Y-64632182D01*
X116638691Y-64714236D01*
X116849508Y-64735000D01*
X116990492Y-64735000D01*
X117201309Y-64714236D01*
X117471808Y-64632182D01*
X117721101Y-64498932D01*
X117939608Y-64319608D01*
X118118932Y-64101101D01*
X118252182Y-63851808D01*
X118334236Y-63581309D01*
X118361943Y-63300000D01*
X118334236Y-63018691D01*
X118255359Y-62758665D01*
X122965000Y-62758665D01*
X122965000Y-63041335D01*
X123020147Y-63318574D01*
X123128320Y-63579727D01*
X123285363Y-63814759D01*
X123485241Y-64014637D01*
X123720273Y-64171680D01*
X123981426Y-64279853D01*
X124258665Y-64335000D01*
X124541335Y-64335000D01*
X124818574Y-64279853D01*
X125079727Y-64171680D01*
X125314759Y-64014637D01*
X125514637Y-63814759D01*
X125671680Y-63579727D01*
X125779853Y-63318574D01*
X125835000Y-63041335D01*
X125835000Y-62900000D01*
X130578057Y-62900000D01*
X130605764Y-63181309D01*
X130687818Y-63451808D01*
X130821068Y-63701101D01*
X131000392Y-63919608D01*
X131218899Y-64098932D01*
X131468192Y-64232182D01*
X131738691Y-64314236D01*
X131949508Y-64335000D01*
X132090492Y-64335000D01*
X132301309Y-64314236D01*
X132571808Y-64232182D01*
X132821101Y-64098932D01*
X133039608Y-63919608D01*
X133218932Y-63701101D01*
X133352182Y-63451808D01*
X133434236Y-63181309D01*
X133461943Y-62900000D01*
X133434236Y-62618691D01*
X133352182Y-62348192D01*
X133218932Y-62098899D01*
X133039608Y-61880392D01*
X132821101Y-61701068D01*
X132571808Y-61567818D01*
X132301309Y-61485764D01*
X132090492Y-61465000D01*
X131949508Y-61465000D01*
X131738691Y-61485764D01*
X131468192Y-61567818D01*
X131218899Y-61701068D01*
X131000392Y-61880392D01*
X130821068Y-62098899D01*
X130687818Y-62348192D01*
X130605764Y-62618691D01*
X130578057Y-62900000D01*
X125835000Y-62900000D01*
X125835000Y-62758665D01*
X125779853Y-62481426D01*
X125671680Y-62220273D01*
X125514637Y-61985241D01*
X125314759Y-61785363D01*
X125079727Y-61628320D01*
X124818574Y-61520147D01*
X124541335Y-61465000D01*
X124258665Y-61465000D01*
X123981426Y-61520147D01*
X123720273Y-61628320D01*
X123485241Y-61785363D01*
X123285363Y-61985241D01*
X123128320Y-62220273D01*
X123020147Y-62481426D01*
X122965000Y-62758665D01*
X118255359Y-62758665D01*
X118252182Y-62748192D01*
X118118932Y-62498899D01*
X117939608Y-62280392D01*
X117721101Y-62101068D01*
X117471808Y-61967818D01*
X117201309Y-61885764D01*
X116990492Y-61865000D01*
X116849508Y-61865000D01*
X116638691Y-61885764D01*
X116368192Y-61967818D01*
X116118899Y-62101068D01*
X115900392Y-62280392D01*
X115721068Y-62498899D01*
X115587818Y-62748192D01*
X115505764Y-63018691D01*
X115478057Y-63300000D01*
X110736741Y-63300000D01*
X110740217Y-63229488D01*
X110698787Y-62949870D01*
X110603603Y-62683708D01*
X110536671Y-62558486D01*
X110292702Y-62486903D01*
X109479605Y-63300000D01*
X109120395Y-63300000D01*
X108307298Y-62486903D01*
X108063329Y-62558486D01*
X107942429Y-62813996D01*
X107873700Y-63088184D01*
X107859783Y-63370512D01*
X90660000Y-63370512D01*
X90660000Y-62307298D01*
X108486903Y-62307298D01*
X109300000Y-63120395D01*
X110113097Y-62307298D01*
X110041514Y-62063329D01*
X109786004Y-61942429D01*
X109511816Y-61873700D01*
X109229488Y-61859783D01*
X108949870Y-61901213D01*
X108683708Y-61996397D01*
X108558486Y-62063329D01*
X108486903Y-62307298D01*
X90660000Y-62307298D01*
X90660000Y-58858665D01*
X113315000Y-58858665D01*
X113315000Y-59141335D01*
X113370147Y-59418574D01*
X113478320Y-59679727D01*
X113635363Y-59914759D01*
X113835241Y-60114637D01*
X114070273Y-60271680D01*
X114331426Y-60379853D01*
X114608665Y-60435000D01*
X114891335Y-60435000D01*
X115168574Y-60379853D01*
X115429727Y-60271680D01*
X115664759Y-60114637D01*
X115864637Y-59914759D01*
X116021680Y-59679727D01*
X116129853Y-59418574D01*
X116185000Y-59141335D01*
X116185000Y-58858665D01*
X118315000Y-58858665D01*
X118315000Y-59141335D01*
X118370147Y-59418574D01*
X118478320Y-59679727D01*
X118635363Y-59914759D01*
X118835241Y-60114637D01*
X119070273Y-60271680D01*
X119331426Y-60379853D01*
X119608665Y-60435000D01*
X119891335Y-60435000D01*
X120168574Y-60379853D01*
X120429727Y-60271680D01*
X120664759Y-60114637D01*
X120864637Y-59914759D01*
X120968043Y-59760000D01*
X122961928Y-59760000D01*
X122961928Y-59900000D01*
X122974188Y-60024482D01*
X123010498Y-60144180D01*
X123069463Y-60254494D01*
X123148815Y-60351185D01*
X123245506Y-60430537D01*
X123355820Y-60489502D01*
X123475518Y-60525812D01*
X123600000Y-60538072D01*
X125400000Y-60538072D01*
X125524482Y-60525812D01*
X125644180Y-60489502D01*
X125754494Y-60430537D01*
X125851185Y-60351185D01*
X125930537Y-60254494D01*
X125989502Y-60144180D01*
X126025812Y-60024482D01*
X126038072Y-59900000D01*
X126038072Y-58100000D01*
X126025812Y-57975518D01*
X125989502Y-57855820D01*
X125930537Y-57745506D01*
X125851185Y-57648815D01*
X125754494Y-57569463D01*
X125644180Y-57510498D01*
X125524482Y-57474188D01*
X125400000Y-57461928D01*
X123600000Y-57461928D01*
X123475518Y-57474188D01*
X123355820Y-57510498D01*
X123245506Y-57569463D01*
X123148815Y-57648815D01*
X123069463Y-57745506D01*
X123010498Y-57855820D01*
X122974188Y-57975518D01*
X122961928Y-58100000D01*
X122961928Y-58240000D01*
X120968043Y-58240000D01*
X120864637Y-58085241D01*
X120664759Y-57885363D01*
X120429727Y-57728320D01*
X120168574Y-57620147D01*
X119891335Y-57565000D01*
X119608665Y-57565000D01*
X119331426Y-57620147D01*
X119070273Y-57728320D01*
X118835241Y-57885363D01*
X118635363Y-58085241D01*
X118478320Y-58320273D01*
X118370147Y-58581426D01*
X118315000Y-58858665D01*
X116185000Y-58858665D01*
X116129853Y-58581426D01*
X116021680Y-58320273D01*
X115864637Y-58085241D01*
X115664759Y-57885363D01*
X115429727Y-57728320D01*
X115168574Y-57620147D01*
X114891335Y-57565000D01*
X114608665Y-57565000D01*
X114331426Y-57620147D01*
X114070273Y-57728320D01*
X113835241Y-57885363D01*
X113635363Y-58085241D01*
X113478320Y-58320273D01*
X113370147Y-58581426D01*
X113315000Y-58858665D01*
X90660000Y-58858665D01*
X90660000Y-58091653D01*
X92437952Y-58091653D01*
X92593962Y-58407214D01*
X92968745Y-58598020D01*
X93373551Y-58712044D01*
X93792824Y-58744902D01*
X94210451Y-58695334D01*
X94610383Y-58565243D01*
X94906038Y-58407214D01*
X95062048Y-58091653D01*
X102737952Y-58091653D01*
X102893962Y-58407214D01*
X103268745Y-58598020D01*
X103673551Y-58712044D01*
X104092824Y-58744902D01*
X104510451Y-58695334D01*
X104910383Y-58565243D01*
X105206038Y-58407214D01*
X105362048Y-58091653D01*
X104050000Y-56779605D01*
X102737952Y-58091653D01*
X95062048Y-58091653D01*
X93750000Y-56779605D01*
X92437952Y-58091653D01*
X90660000Y-58091653D01*
X90660000Y-56642824D01*
X91605098Y-56642824D01*
X91654666Y-57060451D01*
X91784757Y-57460383D01*
X91942786Y-57756038D01*
X92258347Y-57912048D01*
X93570395Y-56600000D01*
X93929605Y-56600000D01*
X95241653Y-57912048D01*
X95557214Y-57756038D01*
X95748020Y-57381255D01*
X95862044Y-56976449D01*
X95894902Y-56557176D01*
X95845334Y-56139549D01*
X95715243Y-55739617D01*
X95557214Y-55443962D01*
X95241653Y-55287952D01*
X93929605Y-56600000D01*
X93570395Y-56600000D01*
X92258347Y-55287952D01*
X91942786Y-55443962D01*
X91751980Y-55818745D01*
X91637956Y-56223551D01*
X91605098Y-56642824D01*
X90660000Y-56642824D01*
X90660000Y-55108347D01*
X92437952Y-55108347D01*
X93750000Y-56420395D01*
X95062048Y-55108347D01*
X94915479Y-54811881D01*
X96990000Y-54811881D01*
X96990000Y-55188119D01*
X97063400Y-55557127D01*
X97207380Y-55904724D01*
X97416406Y-56217554D01*
X97682446Y-56483594D01*
X97995276Y-56692620D01*
X98342873Y-56836600D01*
X98711881Y-56910000D01*
X99088119Y-56910000D01*
X99457127Y-56836600D01*
X99804724Y-56692620D01*
X99879249Y-56642824D01*
X101905098Y-56642824D01*
X101954666Y-57060451D01*
X102084757Y-57460383D01*
X102242786Y-57756038D01*
X102558347Y-57912048D01*
X103870395Y-56600000D01*
X104229605Y-56600000D01*
X105541653Y-57912048D01*
X105857214Y-57756038D01*
X106048020Y-57381255D01*
X106162044Y-56976449D01*
X106194902Y-56557176D01*
X106145334Y-56139549D01*
X106015243Y-55739617D01*
X105857214Y-55443962D01*
X105541653Y-55287952D01*
X104229605Y-56600000D01*
X103870395Y-56600000D01*
X102558347Y-55287952D01*
X102242786Y-55443962D01*
X102051980Y-55818745D01*
X101937956Y-56223551D01*
X101905098Y-56642824D01*
X99879249Y-56642824D01*
X100117554Y-56483594D01*
X100383594Y-56217554D01*
X100592620Y-55904724D01*
X100736600Y-55557127D01*
X100810000Y-55188119D01*
X100810000Y-55108347D01*
X102737952Y-55108347D01*
X104050000Y-56420395D01*
X105362048Y-55108347D01*
X105293177Y-54969040D01*
X107608091Y-54969040D01*
X107702930Y-55233881D01*
X107847615Y-55475131D01*
X108036586Y-55683519D01*
X108262580Y-55851037D01*
X108516913Y-55971246D01*
X108650961Y-56011904D01*
X108873000Y-55889915D01*
X108873000Y-54747000D01*
X109127000Y-54747000D01*
X109127000Y-55889915D01*
X109349039Y-56011904D01*
X109483087Y-55971246D01*
X109737420Y-55851037D01*
X109963414Y-55683519D01*
X110152385Y-55475131D01*
X110297070Y-55233881D01*
X110391909Y-54969040D01*
X112608091Y-54969040D01*
X112702930Y-55233881D01*
X112847615Y-55475131D01*
X113036586Y-55683519D01*
X113262580Y-55851037D01*
X113516913Y-55971246D01*
X113650961Y-56011904D01*
X113873000Y-55889915D01*
X113873000Y-54747000D01*
X114127000Y-54747000D01*
X114127000Y-55889915D01*
X114349039Y-56011904D01*
X114483087Y-55971246D01*
X114737420Y-55851037D01*
X114963414Y-55683519D01*
X115152385Y-55475131D01*
X115297070Y-55233881D01*
X115391909Y-54969040D01*
X117858091Y-54969040D01*
X117952930Y-55233881D01*
X118097615Y-55475131D01*
X118286586Y-55683519D01*
X118512580Y-55851037D01*
X118766913Y-55971246D01*
X118900961Y-56011904D01*
X119123000Y-55889915D01*
X119123000Y-54747000D01*
X119377000Y-54747000D01*
X119377000Y-55889915D01*
X119599039Y-56011904D01*
X119733087Y-55971246D01*
X119987420Y-55851037D01*
X120213414Y-55683519D01*
X120402385Y-55475131D01*
X120547070Y-55233881D01*
X120641909Y-54969040D01*
X120520624Y-54747000D01*
X119377000Y-54747000D01*
X119123000Y-54747000D01*
X117979376Y-54747000D01*
X117858091Y-54969040D01*
X115391909Y-54969040D01*
X115270624Y-54747000D01*
X114127000Y-54747000D01*
X113873000Y-54747000D01*
X112729376Y-54747000D01*
X112608091Y-54969040D01*
X110391909Y-54969040D01*
X110270624Y-54747000D01*
X109127000Y-54747000D01*
X108873000Y-54747000D01*
X107729376Y-54747000D01*
X107608091Y-54969040D01*
X105293177Y-54969040D01*
X105206038Y-54792786D01*
X104831255Y-54601980D01*
X104426449Y-54487956D01*
X104007176Y-54455098D01*
X103589549Y-54504666D01*
X103189617Y-54634757D01*
X102893962Y-54792786D01*
X102737952Y-55108347D01*
X100810000Y-55108347D01*
X100810000Y-54811881D01*
X100736600Y-54442873D01*
X100665392Y-54270960D01*
X107608091Y-54270960D01*
X107729376Y-54493000D01*
X108873000Y-54493000D01*
X108873000Y-53350085D01*
X109127000Y-53350085D01*
X109127000Y-54493000D01*
X110270624Y-54493000D01*
X110391909Y-54270960D01*
X112608091Y-54270960D01*
X112729376Y-54493000D01*
X113873000Y-54493000D01*
X113873000Y-53350085D01*
X114127000Y-53350085D01*
X114127000Y-54493000D01*
X115270624Y-54493000D01*
X115391909Y-54270960D01*
X117858091Y-54270960D01*
X117979376Y-54493000D01*
X119123000Y-54493000D01*
X119123000Y-53350085D01*
X119377000Y-53350085D01*
X119377000Y-54493000D01*
X120520624Y-54493000D01*
X120641909Y-54270960D01*
X120547070Y-54006119D01*
X120402385Y-53764869D01*
X120213414Y-53556481D01*
X119987420Y-53388963D01*
X119733087Y-53268754D01*
X119599039Y-53228096D01*
X119377000Y-53350085D01*
X119123000Y-53350085D01*
X118900961Y-53228096D01*
X118766913Y-53268754D01*
X118512580Y-53388963D01*
X118286586Y-53556481D01*
X118097615Y-53764869D01*
X117952930Y-54006119D01*
X117858091Y-54270960D01*
X115391909Y-54270960D01*
X115297070Y-54006119D01*
X115152385Y-53764869D01*
X114963414Y-53556481D01*
X114737420Y-53388963D01*
X114483087Y-53268754D01*
X114349039Y-53228096D01*
X114127000Y-53350085D01*
X113873000Y-53350085D01*
X113650961Y-53228096D01*
X113516913Y-53268754D01*
X113262580Y-53388963D01*
X113036586Y-53556481D01*
X112847615Y-53764869D01*
X112702930Y-54006119D01*
X112608091Y-54270960D01*
X110391909Y-54270960D01*
X110297070Y-54006119D01*
X110152385Y-53764869D01*
X109963414Y-53556481D01*
X109737420Y-53388963D01*
X109483087Y-53268754D01*
X109349039Y-53228096D01*
X109127000Y-53350085D01*
X108873000Y-53350085D01*
X108650961Y-53228096D01*
X108516913Y-53268754D01*
X108262580Y-53388963D01*
X108036586Y-53556481D01*
X107847615Y-53764869D01*
X107702930Y-54006119D01*
X107608091Y-54270960D01*
X100665392Y-54270960D01*
X100592620Y-54095276D01*
X100383594Y-53782446D01*
X100117554Y-53516406D01*
X99804724Y-53307380D01*
X99457127Y-53163400D01*
X99088119Y-53090000D01*
X98711881Y-53090000D01*
X98342873Y-53163400D01*
X97995276Y-53307380D01*
X97682446Y-53516406D01*
X97416406Y-53782446D01*
X97207380Y-54095276D01*
X97063400Y-54442873D01*
X96990000Y-54811881D01*
X94915479Y-54811881D01*
X94906038Y-54792786D01*
X94531255Y-54601980D01*
X94126449Y-54487956D01*
X93707176Y-54455098D01*
X93289549Y-54504666D01*
X92889617Y-54634757D01*
X92593962Y-54792786D01*
X92437952Y-55108347D01*
X90660000Y-55108347D01*
X90660000Y-52300000D01*
X125811928Y-52300000D01*
X125824188Y-52424482D01*
X125860498Y-52544180D01*
X125919463Y-52654494D01*
X125998815Y-52751185D01*
X126095506Y-52830537D01*
X126205820Y-52889502D01*
X126325518Y-52925812D01*
X126450000Y-52938072D01*
X126714250Y-52935000D01*
X126873000Y-52776250D01*
X126873000Y-51527000D01*
X125973750Y-51527000D01*
X125815000Y-51685750D01*
X125811928Y-52300000D01*
X90660000Y-52300000D01*
X90660000Y-48279872D01*
X91265000Y-48279872D01*
X91265000Y-48720128D01*
X91350890Y-49151925D01*
X91519369Y-49558669D01*
X91763962Y-49924729D01*
X92075271Y-50236038D01*
X92441331Y-50480631D01*
X92848075Y-50649110D01*
X93279872Y-50735000D01*
X93720128Y-50735000D01*
X94151925Y-50649110D01*
X94511908Y-50500000D01*
X125811928Y-50500000D01*
X125815000Y-51114250D01*
X125973750Y-51273000D01*
X126873000Y-51273000D01*
X126873000Y-50023750D01*
X126714250Y-49865000D01*
X126450000Y-49861928D01*
X126325518Y-49874188D01*
X126205820Y-49910498D01*
X126095506Y-49969463D01*
X125998815Y-50048815D01*
X125919463Y-50145506D01*
X125860498Y-50255820D01*
X125824188Y-50375518D01*
X125811928Y-50500000D01*
X94511908Y-50500000D01*
X94558669Y-50480631D01*
X94924729Y-50236038D01*
X95236038Y-49924729D01*
X95480631Y-49558669D01*
X95649110Y-49151925D01*
X95735000Y-48720128D01*
X95735000Y-48279872D01*
X95649110Y-47848075D01*
X95480631Y-47441331D01*
X95236038Y-47075271D01*
X94924729Y-46763962D01*
X94558669Y-46519369D01*
X94151925Y-46350890D01*
X93720128Y-46265000D01*
X93279872Y-46265000D01*
X92848075Y-46350890D01*
X92441331Y-46519369D01*
X92075271Y-46763962D01*
X91763962Y-47075271D01*
X91519369Y-47441331D01*
X91350890Y-47848075D01*
X91265000Y-48279872D01*
X90660000Y-48279872D01*
X90660000Y-45660000D01*
X108485212Y-45660000D01*
X108320273Y-45728320D01*
X108320273Y-45728320D01*
G37*
X108320273Y-45728320D02*
X108085241Y-45885363D01*
X107885363Y-46085241D01*
X107728320Y-46320273D01*
X107620147Y-46581426D01*
X107565000Y-46858665D01*
X107565000Y-47141335D01*
X107620147Y-47418574D01*
X107728320Y-47679727D01*
X107885363Y-47914759D01*
X108085241Y-48114637D01*
X108320273Y-48271680D01*
X108581426Y-48379853D01*
X108858665Y-48435000D01*
X109141335Y-48435000D01*
X109418574Y-48379853D01*
X109679727Y-48271680D01*
X109914759Y-48114637D01*
X110114637Y-47914759D01*
X110271680Y-47679727D01*
X110379853Y-47418574D01*
X110435000Y-47141335D01*
X110435000Y-46858665D01*
X110379853Y-46581426D01*
X110271680Y-46320273D01*
X110114637Y-46085241D01*
X109914759Y-45885363D01*
X109679727Y-45728320D01*
X109514788Y-45660000D01*
X113485212Y-45660000D01*
X113320273Y-45728320D01*
X113085241Y-45885363D01*
X112885363Y-46085241D01*
X112728320Y-46320273D01*
X112620147Y-46581426D01*
X112565000Y-46858665D01*
X112565000Y-47141335D01*
X112620147Y-47418574D01*
X112728320Y-47679727D01*
X112885363Y-47914759D01*
X113085241Y-48114637D01*
X113320273Y-48271680D01*
X113581426Y-48379853D01*
X113858665Y-48435000D01*
X114141335Y-48435000D01*
X114418574Y-48379853D01*
X114679727Y-48271680D01*
X114914759Y-48114637D01*
X115114637Y-47914759D01*
X115271680Y-47679727D01*
X115379853Y-47418574D01*
X115435000Y-47141335D01*
X115435000Y-46858665D01*
X115379853Y-46581426D01*
X115271680Y-46320273D01*
X115114637Y-46085241D01*
X114914759Y-45885363D01*
X114679727Y-45728320D01*
X114514788Y-45660000D01*
X118735212Y-45660000D01*
X118570273Y-45728320D01*
X118335241Y-45885363D01*
X118135363Y-46085241D01*
X117978320Y-46320273D01*
X117870147Y-46581426D01*
X117815000Y-46858665D01*
X117815000Y-47141335D01*
X117870147Y-47418574D01*
X117978320Y-47679727D01*
X118135363Y-47914759D01*
X118335241Y-48114637D01*
X118570273Y-48271680D01*
X118831426Y-48379853D01*
X119108665Y-48435000D01*
X119391335Y-48435000D01*
X119668574Y-48379853D01*
X119929727Y-48271680D01*
X120164759Y-48114637D01*
X120364637Y-47914759D01*
X120384521Y-47885000D01*
X125153422Y-47885000D01*
X127081928Y-49813507D01*
X127081928Y-49955000D01*
X127099472Y-50133132D01*
X127127000Y-50223880D01*
X127127000Y-51273000D01*
X127147000Y-51273000D01*
X127147000Y-51527000D01*
X127127000Y-51527000D01*
X127127000Y-52776250D01*
X127285750Y-52935000D01*
X127385000Y-52936154D01*
X127385001Y-55106521D01*
X127380719Y-55150000D01*
X127397805Y-55323490D01*
X127448412Y-55490313D01*
X127530590Y-55644059D01*
X127613468Y-55745046D01*
X127613471Y-55745049D01*
X127641184Y-55778817D01*
X127674951Y-55806530D01*
X130603650Y-58735229D01*
X130577573Y-59000000D01*
X130607210Y-59300913D01*
X130694983Y-59590261D01*
X130837519Y-59856927D01*
X131029339Y-60090661D01*
X131263073Y-60282481D01*
X131529739Y-60425017D01*
X131707302Y-60478880D01*
X133955125Y-62726704D01*
X133938057Y-62900000D01*
X133965764Y-63181309D01*
X134047818Y-63451808D01*
X134181068Y-63701101D01*
X134360392Y-63919608D01*
X134578899Y-64098932D01*
X134709620Y-64168804D01*
X133463424Y-65415000D01*
X130543465Y-65415000D01*
X130499999Y-65410719D01*
X130456533Y-65415000D01*
X108843469Y-65415000D01*
X108800000Y-65410719D01*
X108756531Y-65415000D01*
X108756523Y-65415000D01*
X108626510Y-65427805D01*
X108459686Y-65478411D01*
X108305941Y-65560589D01*
X108204953Y-65643468D01*
X108204951Y-65643470D01*
X108171183Y-65671183D01*
X108143470Y-65704951D01*
X105176439Y-68671983D01*
X105141335Y-68665000D01*
X104858665Y-68665000D01*
X104581426Y-68720147D01*
X104320273Y-68828320D01*
X104085241Y-68985363D01*
X103885363Y-69185241D01*
X103728320Y-69420273D01*
X103620147Y-69681426D01*
X103565000Y-69958665D01*
X103565000Y-70241335D01*
X103620147Y-70518574D01*
X103728320Y-70779727D01*
X103885363Y-71014759D01*
X104085241Y-71214637D01*
X104320273Y-71371680D01*
X104581426Y-71479853D01*
X104858665Y-71535000D01*
X105141335Y-71535000D01*
X105418574Y-71479853D01*
X105679727Y-71371680D01*
X105914759Y-71214637D01*
X106114637Y-71014759D01*
X106271680Y-70779727D01*
X106379853Y-70518574D01*
X106395388Y-70440475D01*
X113815000Y-70440475D01*
X113815000Y-70959525D01*
X113916261Y-71468601D01*
X114114893Y-71948141D01*
X114403262Y-72379715D01*
X114770285Y-72746738D01*
X115201859Y-73035107D01*
X115681399Y-73233739D01*
X116190475Y-73335000D01*
X116709525Y-73335000D01*
X117218601Y-73233739D01*
X117698141Y-73035107D01*
X118129715Y-72746738D01*
X118496738Y-72379715D01*
X118785107Y-71948141D01*
X118983739Y-71468601D01*
X119085000Y-70959525D01*
X119085000Y-70440475D01*
X123315000Y-70440475D01*
X123315000Y-70959525D01*
X123416261Y-71468601D01*
X123614893Y-71948141D01*
X123903262Y-72379715D01*
X124270285Y-72746738D01*
X124701859Y-73035107D01*
X125181399Y-73233739D01*
X125690475Y-73335000D01*
X126209525Y-73335000D01*
X126718601Y-73233739D01*
X127198141Y-73035107D01*
X127629715Y-72746738D01*
X127996738Y-72379715D01*
X128285107Y-71948141D01*
X128483739Y-71468601D01*
X128585000Y-70959525D01*
X128585000Y-70440475D01*
X128483739Y-69931399D01*
X128285107Y-69451859D01*
X127996738Y-69020285D01*
X127629715Y-68653262D01*
X127198141Y-68364893D01*
X126718601Y-68166261D01*
X126209525Y-68065000D01*
X125690475Y-68065000D01*
X125181399Y-68166261D01*
X124701859Y-68364893D01*
X124270285Y-68653262D01*
X123903262Y-69020285D01*
X123614893Y-69451859D01*
X123416261Y-69931399D01*
X123315000Y-70440475D01*
X119085000Y-70440475D01*
X118983739Y-69931399D01*
X118785107Y-69451859D01*
X118496738Y-69020285D01*
X118129715Y-68653262D01*
X117698141Y-68364893D01*
X117218601Y-68166261D01*
X116709525Y-68065000D01*
X116190475Y-68065000D01*
X115681399Y-68166261D01*
X115201859Y-68364893D01*
X114770285Y-68653262D01*
X114403262Y-69020285D01*
X114114893Y-69451859D01*
X113916261Y-69931399D01*
X113815000Y-70440475D01*
X106395388Y-70440475D01*
X106435000Y-70241335D01*
X106435000Y-69958665D01*
X106428017Y-69923561D01*
X109166579Y-67185000D01*
X129515000Y-67185000D01*
X129515001Y-70565478D01*
X129485241Y-70585363D01*
X129285363Y-70785241D01*
X129128320Y-71020273D01*
X129020147Y-71281426D01*
X128965000Y-71558665D01*
X128965000Y-71841335D01*
X129020147Y-72118574D01*
X129128320Y-72379727D01*
X129285363Y-72614759D01*
X129485241Y-72814637D01*
X129720273Y-72971680D01*
X129981426Y-73079853D01*
X130258665Y-73135000D01*
X130541335Y-73135000D01*
X130576438Y-73128017D01*
X133510349Y-76061928D01*
X133300000Y-76061928D01*
X133175518Y-76074188D01*
X133055820Y-76110498D01*
X132945506Y-76169463D01*
X132848815Y-76248815D01*
X132769463Y-76345506D01*
X132710498Y-76455820D01*
X132674188Y-76575518D01*
X132661928Y-76700000D01*
X132661928Y-79100000D01*
X132674188Y-79224482D01*
X132709230Y-79340000D01*
X124730817Y-79340000D01*
X124892312Y-79178505D01*
X125060299Y-78927095D01*
X125176011Y-78647743D01*
X125235000Y-78351184D01*
X125235000Y-78048816D01*
X125176011Y-77752257D01*
X125151343Y-77692702D01*
X129586903Y-77692702D01*
X129658486Y-77936671D01*
X129913996Y-78057571D01*
X130188184Y-78126300D01*
X130470512Y-78140217D01*
X130750130Y-78098787D01*
X131016292Y-78003603D01*
X131141514Y-77936671D01*
X131213097Y-77692702D01*
X130400000Y-76879605D01*
X129586903Y-77692702D01*
X125151343Y-77692702D01*
X125060299Y-77472905D01*
X124892312Y-77221495D01*
X124678505Y-77007688D01*
X124427095Y-76839701D01*
X124260059Y-76770512D01*
X128959783Y-76770512D01*
X129001213Y-77050130D01*
X129096397Y-77316292D01*
X129163329Y-77441514D01*
X129407298Y-77513097D01*
X130220395Y-76700000D01*
X130579605Y-76700000D01*
X131392702Y-77513097D01*
X131636671Y-77441514D01*
X131757571Y-77186004D01*
X131826300Y-76911816D01*
X131840217Y-76629488D01*
X131798787Y-76349870D01*
X131703603Y-76083708D01*
X131636671Y-75958486D01*
X131392702Y-75886903D01*
X130579605Y-76700000D01*
X130220395Y-76700000D01*
X129407298Y-75886903D01*
X129163329Y-75958486D01*
X129042429Y-76213996D01*
X128973700Y-76488184D01*
X128959783Y-76770512D01*
X124260059Y-76770512D01*
X124147743Y-76723989D01*
X123851184Y-76665000D01*
X123548816Y-76665000D01*
X123252257Y-76723989D01*
X122972905Y-76839701D01*
X122721495Y-77007688D01*
X122507688Y-77221495D01*
X122450000Y-77307831D01*
X122392312Y-77221495D01*
X122178505Y-77007688D01*
X121927095Y-76839701D01*
X121647743Y-76723989D01*
X121351184Y-76665000D01*
X121048816Y-76665000D01*
X120752257Y-76723989D01*
X120472905Y-76839701D01*
X120221495Y-77007688D01*
X120007688Y-77221495D01*
X119950000Y-77307831D01*
X119892312Y-77221495D01*
X119678505Y-77007688D01*
X119427095Y-76839701D01*
X119147743Y-76723989D01*
X118851184Y-76665000D01*
X118548816Y-76665000D01*
X118252257Y-76723989D01*
X117972905Y-76839701D01*
X117721495Y-77007688D01*
X117507688Y-77221495D01*
X117339701Y-77472905D01*
X117223989Y-77752257D01*
X117165000Y-78048816D01*
X117165000Y-78351184D01*
X117223989Y-78647743D01*
X117339701Y-78927095D01*
X117507688Y-79178505D01*
X117669183Y-79340000D01*
X90660000Y-79340000D01*
X90660000Y-76279872D01*
X91265000Y-76279872D01*
X91265000Y-76720128D01*
X91350890Y-77151925D01*
X91519369Y-77558669D01*
X91763962Y-77924729D01*
X92075271Y-78236038D01*
X92441331Y-78480631D01*
X92848075Y-78649110D01*
X93279872Y-78735000D01*
X93720128Y-78735000D01*
X94151925Y-78649110D01*
X94558669Y-78480631D01*
X94924729Y-78236038D01*
X95236038Y-77924729D01*
X95439651Y-77620000D01*
X99058057Y-77620000D01*
X99085764Y-77901309D01*
X99167818Y-78171808D01*
X99301068Y-78421101D01*
X99480392Y-78639608D01*
X99698899Y-78818932D01*
X99948192Y-78952182D01*
X100218691Y-79034236D01*
X100429508Y-79055000D01*
X100570492Y-79055000D01*
X100781309Y-79034236D01*
X101051808Y-78952182D01*
X101301101Y-78818932D01*
X101519608Y-78639608D01*
X101698932Y-78421101D01*
X101832182Y-78171808D01*
X101914236Y-77901309D01*
X101932093Y-77720000D01*
X103558057Y-77720000D01*
X103585764Y-78001309D01*
X103667818Y-78271808D01*
X103801068Y-78521101D01*
X103980392Y-78739608D01*
X104198899Y-78918932D01*
X104448192Y-79052182D01*
X104718691Y-79134236D01*
X104929508Y-79155000D01*
X105070492Y-79155000D01*
X105281309Y-79134236D01*
X105551808Y-79052182D01*
X105801101Y-78918932D01*
X106019608Y-78739608D01*
X106198932Y-78521101D01*
X106332182Y-78271808D01*
X106414236Y-78001309D01*
X106441943Y-77720000D01*
X106414236Y-77438691D01*
X106332182Y-77168192D01*
X106198932Y-76918899D01*
X106019608Y-76700392D01*
X105801101Y-76521068D01*
X105551808Y-76387818D01*
X105281309Y-76305764D01*
X105070492Y-76285000D01*
X104929508Y-76285000D01*
X104718691Y-76305764D01*
X104448192Y-76387818D01*
X104198899Y-76521068D01*
X103980392Y-76700392D01*
X103801068Y-76918899D01*
X103667818Y-77168192D01*
X103585764Y-77438691D01*
X103558057Y-77720000D01*
X101932093Y-77720000D01*
X101941943Y-77620000D01*
X101914236Y-77338691D01*
X101832182Y-77068192D01*
X101698932Y-76818899D01*
X101519608Y-76600392D01*
X101301101Y-76421068D01*
X101051808Y-76287818D01*
X100781309Y-76205764D01*
X100570492Y-76185000D01*
X100429508Y-76185000D01*
X100218691Y-76205764D01*
X99948192Y-76287818D01*
X99698899Y-76421068D01*
X99480392Y-76600392D01*
X99301068Y-76818899D01*
X99167818Y-77068192D01*
X99085764Y-77338691D01*
X99058057Y-77620000D01*
X95439651Y-77620000D01*
X95480631Y-77558669D01*
X95649110Y-77151925D01*
X95735000Y-76720128D01*
X95735000Y-76279872D01*
X95649110Y-75848075D01*
X95590799Y-75707298D01*
X129586903Y-75707298D01*
X130400000Y-76520395D01*
X131213097Y-75707298D01*
X131141514Y-75463329D01*
X130886004Y-75342429D01*
X130611816Y-75273700D01*
X130329488Y-75259783D01*
X130049870Y-75301213D01*
X129783708Y-75396397D01*
X129658486Y-75463329D01*
X129586903Y-75707298D01*
X95590799Y-75707298D01*
X95480631Y-75441331D01*
X95236038Y-75075271D01*
X94924729Y-74763962D01*
X94558669Y-74519369D01*
X94151925Y-74350890D01*
X93720128Y-74265000D01*
X93279872Y-74265000D01*
X92848075Y-74350890D01*
X92441331Y-74519369D01*
X92075271Y-74763962D01*
X91763962Y-75075271D01*
X91519369Y-75441331D01*
X91350890Y-75848075D01*
X91265000Y-76279872D01*
X90660000Y-76279872D01*
X90660000Y-70992702D01*
X99686903Y-70992702D01*
X99758486Y-71236671D01*
X100013996Y-71357571D01*
X100288184Y-71426300D01*
X100570512Y-71440217D01*
X100850130Y-71398787D01*
X101116292Y-71303603D01*
X101241514Y-71236671D01*
X101313097Y-70992702D01*
X100500000Y-70179605D01*
X99686903Y-70992702D01*
X90660000Y-70992702D01*
X90660000Y-70070512D01*
X99059783Y-70070512D01*
X99101213Y-70350130D01*
X99196397Y-70616292D01*
X99263329Y-70741514D01*
X99507298Y-70813097D01*
X100320395Y-70000000D01*
X100679605Y-70000000D01*
X101492702Y-70813097D01*
X101736671Y-70741514D01*
X101857571Y-70486004D01*
X101926300Y-70211816D01*
X101940217Y-69929488D01*
X101898787Y-69649870D01*
X101803603Y-69383708D01*
X101736671Y-69258486D01*
X101492702Y-69186903D01*
X100679605Y-70000000D01*
X100320395Y-70000000D01*
X99507298Y-69186903D01*
X99263329Y-69258486D01*
X99142429Y-69513996D01*
X99073700Y-69788184D01*
X99059783Y-70070512D01*
X90660000Y-70070512D01*
X90660000Y-69007298D01*
X99686903Y-69007298D01*
X100500000Y-69820395D01*
X101313097Y-69007298D01*
X101241514Y-68763329D01*
X100986004Y-68642429D01*
X100711816Y-68573700D01*
X100429488Y-68559783D01*
X100149870Y-68601213D01*
X99883708Y-68696397D01*
X99758486Y-68763329D01*
X99686903Y-69007298D01*
X90660000Y-69007298D01*
X90660000Y-66692702D01*
X95286903Y-66692702D01*
X95358486Y-66936671D01*
X95613996Y-67057571D01*
X95888184Y-67126300D01*
X96170512Y-67140217D01*
X96450130Y-67098787D01*
X96716292Y-67003603D01*
X96841514Y-66936671D01*
X96913097Y-66692702D01*
X96100000Y-65879605D01*
X95286903Y-66692702D01*
X90660000Y-66692702D01*
X90660000Y-65770512D01*
X94659783Y-65770512D01*
X94701213Y-66050130D01*
X94796397Y-66316292D01*
X94863329Y-66441514D01*
X95107298Y-66513097D01*
X95920395Y-65700000D01*
X96279605Y-65700000D01*
X97092702Y-66513097D01*
X97336671Y-66441514D01*
X97457571Y-66186004D01*
X97526300Y-65911816D01*
X97540217Y-65629488D01*
X97529724Y-65558665D01*
X99665000Y-65558665D01*
X99665000Y-65841335D01*
X99720147Y-66118574D01*
X99828320Y-66379727D01*
X99985363Y-66614759D01*
X100185241Y-66814637D01*
X100420273Y-66971680D01*
X100681426Y-67079853D01*
X100958665Y-67135000D01*
X101241335Y-67135000D01*
X101518574Y-67079853D01*
X101779727Y-66971680D01*
X102014759Y-66814637D01*
X102214637Y-66614759D01*
X102371680Y-66379727D01*
X102479853Y-66118574D01*
X102535000Y-65841335D01*
X102535000Y-65558665D01*
X102479853Y-65281426D01*
X102371680Y-65020273D01*
X102214637Y-64785241D01*
X102014759Y-64585363D01*
X101779727Y-64428320D01*
X101518574Y-64320147D01*
X101380601Y-64292702D01*
X108486903Y-64292702D01*
X108558486Y-64536671D01*
X108813996Y-64657571D01*
X109088184Y-64726300D01*
X109370512Y-64740217D01*
X109650130Y-64698787D01*
X109916292Y-64603603D01*
X110041514Y-64536671D01*
X110113097Y-64292702D01*
X109300000Y-63479605D01*
X108486903Y-64292702D01*
X101380601Y-64292702D01*
X101241335Y-64265000D01*
X100958665Y-64265000D01*
X100681426Y-64320147D01*
X100420273Y-64428320D01*
X100185241Y-64585363D01*
X99985363Y-64785241D01*
X99828320Y-65020273D01*
X99720147Y-65281426D01*
X99665000Y-65558665D01*
X97529724Y-65558665D01*
X97498787Y-65349870D01*
X97403603Y-65083708D01*
X97336671Y-64958486D01*
X97092702Y-64886903D01*
X96279605Y-65700000D01*
X95920395Y-65700000D01*
X95107298Y-64886903D01*
X94863329Y-64958486D01*
X94742429Y-65213996D01*
X94673700Y-65488184D01*
X94659783Y-65770512D01*
X90660000Y-65770512D01*
X90660000Y-64707298D01*
X95286903Y-64707298D01*
X96100000Y-65520395D01*
X96913097Y-64707298D01*
X96841514Y-64463329D01*
X96586004Y-64342429D01*
X96311816Y-64273700D01*
X96029488Y-64259783D01*
X95749870Y-64301213D01*
X95483708Y-64396397D01*
X95358486Y-64463329D01*
X95286903Y-64707298D01*
X90660000Y-64707298D01*
X90660000Y-63370512D01*
X107859783Y-63370512D01*
X107901213Y-63650130D01*
X107996397Y-63916292D01*
X108063329Y-64041514D01*
X108307298Y-64113097D01*
X109120395Y-63300000D01*
X109479605Y-63300000D01*
X110292702Y-64113097D01*
X110536671Y-64041514D01*
X110657571Y-63786004D01*
X110726300Y-63511816D01*
X110736741Y-63300000D01*
X115478057Y-63300000D01*
X115505764Y-63581309D01*
X115587818Y-63851808D01*
X115721068Y-64101101D01*
X115900392Y-64319608D01*
X116118899Y-64498932D01*
X116368192Y-64632182D01*
X116638691Y-64714236D01*
X116849508Y-64735000D01*
X116990492Y-64735000D01*
X117201309Y-64714236D01*
X117471808Y-64632182D01*
X117721101Y-64498932D01*
X117939608Y-64319608D01*
X118118932Y-64101101D01*
X118252182Y-63851808D01*
X118334236Y-63581309D01*
X118361943Y-63300000D01*
X118334236Y-63018691D01*
X118255359Y-62758665D01*
X122965000Y-62758665D01*
X122965000Y-63041335D01*
X123020147Y-63318574D01*
X123128320Y-63579727D01*
X123285363Y-63814759D01*
X123485241Y-64014637D01*
X123720273Y-64171680D01*
X123981426Y-64279853D01*
X124258665Y-64335000D01*
X124541335Y-64335000D01*
X124818574Y-64279853D01*
X125079727Y-64171680D01*
X125314759Y-64014637D01*
X125514637Y-63814759D01*
X125671680Y-63579727D01*
X125779853Y-63318574D01*
X125835000Y-63041335D01*
X125835000Y-62900000D01*
X130578057Y-62900000D01*
X130605764Y-63181309D01*
X130687818Y-63451808D01*
X130821068Y-63701101D01*
X131000392Y-63919608D01*
X131218899Y-64098932D01*
X131468192Y-64232182D01*
X131738691Y-64314236D01*
X131949508Y-64335000D01*
X132090492Y-64335000D01*
X132301309Y-64314236D01*
X132571808Y-64232182D01*
X132821101Y-64098932D01*
X133039608Y-63919608D01*
X133218932Y-63701101D01*
X133352182Y-63451808D01*
X133434236Y-63181309D01*
X133461943Y-62900000D01*
X133434236Y-62618691D01*
X133352182Y-62348192D01*
X133218932Y-62098899D01*
X133039608Y-61880392D01*
X132821101Y-61701068D01*
X132571808Y-61567818D01*
X132301309Y-61485764D01*
X132090492Y-61465000D01*
X131949508Y-61465000D01*
X131738691Y-61485764D01*
X131468192Y-61567818D01*
X131218899Y-61701068D01*
X131000392Y-61880392D01*
X130821068Y-62098899D01*
X130687818Y-62348192D01*
X130605764Y-62618691D01*
X130578057Y-62900000D01*
X125835000Y-62900000D01*
X125835000Y-62758665D01*
X125779853Y-62481426D01*
X125671680Y-62220273D01*
X125514637Y-61985241D01*
X125314759Y-61785363D01*
X125079727Y-61628320D01*
X124818574Y-61520147D01*
X124541335Y-61465000D01*
X124258665Y-61465000D01*
X123981426Y-61520147D01*
X123720273Y-61628320D01*
X123485241Y-61785363D01*
X123285363Y-61985241D01*
X123128320Y-62220273D01*
X123020147Y-62481426D01*
X122965000Y-62758665D01*
X118255359Y-62758665D01*
X118252182Y-62748192D01*
X118118932Y-62498899D01*
X117939608Y-62280392D01*
X117721101Y-62101068D01*
X117471808Y-61967818D01*
X117201309Y-61885764D01*
X116990492Y-61865000D01*
X116849508Y-61865000D01*
X116638691Y-61885764D01*
X116368192Y-61967818D01*
X116118899Y-62101068D01*
X115900392Y-62280392D01*
X115721068Y-62498899D01*
X115587818Y-62748192D01*
X115505764Y-63018691D01*
X115478057Y-63300000D01*
X110736741Y-63300000D01*
X110740217Y-63229488D01*
X110698787Y-62949870D01*
X110603603Y-62683708D01*
X110536671Y-62558486D01*
X110292702Y-62486903D01*
X109479605Y-63300000D01*
X109120395Y-63300000D01*
X108307298Y-62486903D01*
X108063329Y-62558486D01*
X107942429Y-62813996D01*
X107873700Y-63088184D01*
X107859783Y-63370512D01*
X90660000Y-63370512D01*
X90660000Y-62307298D01*
X108486903Y-62307298D01*
X109300000Y-63120395D01*
X110113097Y-62307298D01*
X110041514Y-62063329D01*
X109786004Y-61942429D01*
X109511816Y-61873700D01*
X109229488Y-61859783D01*
X108949870Y-61901213D01*
X108683708Y-61996397D01*
X108558486Y-62063329D01*
X108486903Y-62307298D01*
X90660000Y-62307298D01*
X90660000Y-58858665D01*
X113315000Y-58858665D01*
X113315000Y-59141335D01*
X113370147Y-59418574D01*
X113478320Y-59679727D01*
X113635363Y-59914759D01*
X113835241Y-60114637D01*
X114070273Y-60271680D01*
X114331426Y-60379853D01*
X114608665Y-60435000D01*
X114891335Y-60435000D01*
X115168574Y-60379853D01*
X115429727Y-60271680D01*
X115664759Y-60114637D01*
X115864637Y-59914759D01*
X116021680Y-59679727D01*
X116129853Y-59418574D01*
X116185000Y-59141335D01*
X116185000Y-58858665D01*
X118315000Y-58858665D01*
X118315000Y-59141335D01*
X118370147Y-59418574D01*
X118478320Y-59679727D01*
X118635363Y-59914759D01*
X118835241Y-60114637D01*
X119070273Y-60271680D01*
X119331426Y-60379853D01*
X119608665Y-60435000D01*
X119891335Y-60435000D01*
X120168574Y-60379853D01*
X120429727Y-60271680D01*
X120664759Y-60114637D01*
X120864637Y-59914759D01*
X120968043Y-59760000D01*
X122961928Y-59760000D01*
X122961928Y-59900000D01*
X122974188Y-60024482D01*
X123010498Y-60144180D01*
X123069463Y-60254494D01*
X123148815Y-60351185D01*
X123245506Y-60430537D01*
X123355820Y-60489502D01*
X123475518Y-60525812D01*
X123600000Y-60538072D01*
X125400000Y-60538072D01*
X125524482Y-60525812D01*
X125644180Y-60489502D01*
X125754494Y-60430537D01*
X125851185Y-60351185D01*
X125930537Y-60254494D01*
X125989502Y-60144180D01*
X126025812Y-60024482D01*
X126038072Y-59900000D01*
X126038072Y-58100000D01*
X126025812Y-57975518D01*
X125989502Y-57855820D01*
X125930537Y-57745506D01*
X125851185Y-57648815D01*
X125754494Y-57569463D01*
X125644180Y-57510498D01*
X125524482Y-57474188D01*
X125400000Y-57461928D01*
X123600000Y-57461928D01*
X123475518Y-57474188D01*
X123355820Y-57510498D01*
X123245506Y-57569463D01*
X123148815Y-57648815D01*
X123069463Y-57745506D01*
X123010498Y-57855820D01*
X122974188Y-57975518D01*
X122961928Y-58100000D01*
X122961928Y-58240000D01*
X120968043Y-58240000D01*
X120864637Y-58085241D01*
X120664759Y-57885363D01*
X120429727Y-57728320D01*
X120168574Y-57620147D01*
X119891335Y-57565000D01*
X119608665Y-57565000D01*
X119331426Y-57620147D01*
X119070273Y-57728320D01*
X118835241Y-57885363D01*
X118635363Y-58085241D01*
X118478320Y-58320273D01*
X118370147Y-58581426D01*
X118315000Y-58858665D01*
X116185000Y-58858665D01*
X116129853Y-58581426D01*
X116021680Y-58320273D01*
X115864637Y-58085241D01*
X115664759Y-57885363D01*
X115429727Y-57728320D01*
X115168574Y-57620147D01*
X114891335Y-57565000D01*
X114608665Y-57565000D01*
X114331426Y-57620147D01*
X114070273Y-57728320D01*
X113835241Y-57885363D01*
X113635363Y-58085241D01*
X113478320Y-58320273D01*
X113370147Y-58581426D01*
X113315000Y-58858665D01*
X90660000Y-58858665D01*
X90660000Y-58091653D01*
X92437952Y-58091653D01*
X92593962Y-58407214D01*
X92968745Y-58598020D01*
X93373551Y-58712044D01*
X93792824Y-58744902D01*
X94210451Y-58695334D01*
X94610383Y-58565243D01*
X94906038Y-58407214D01*
X95062048Y-58091653D01*
X102737952Y-58091653D01*
X102893962Y-58407214D01*
X103268745Y-58598020D01*
X103673551Y-58712044D01*
X104092824Y-58744902D01*
X104510451Y-58695334D01*
X104910383Y-58565243D01*
X105206038Y-58407214D01*
X105362048Y-58091653D01*
X104050000Y-56779605D01*
X102737952Y-58091653D01*
X95062048Y-58091653D01*
X93750000Y-56779605D01*
X92437952Y-58091653D01*
X90660000Y-58091653D01*
X90660000Y-56642824D01*
X91605098Y-56642824D01*
X91654666Y-57060451D01*
X91784757Y-57460383D01*
X91942786Y-57756038D01*
X92258347Y-57912048D01*
X93570395Y-56600000D01*
X93929605Y-56600000D01*
X95241653Y-57912048D01*
X95557214Y-57756038D01*
X95748020Y-57381255D01*
X95862044Y-56976449D01*
X95894902Y-56557176D01*
X95845334Y-56139549D01*
X95715243Y-55739617D01*
X95557214Y-55443962D01*
X95241653Y-55287952D01*
X93929605Y-56600000D01*
X93570395Y-56600000D01*
X92258347Y-55287952D01*
X91942786Y-55443962D01*
X91751980Y-55818745D01*
X91637956Y-56223551D01*
X91605098Y-56642824D01*
X90660000Y-56642824D01*
X90660000Y-55108347D01*
X92437952Y-55108347D01*
X93750000Y-56420395D01*
X95062048Y-55108347D01*
X94915479Y-54811881D01*
X96990000Y-54811881D01*
X96990000Y-55188119D01*
X97063400Y-55557127D01*
X97207380Y-55904724D01*
X97416406Y-56217554D01*
X97682446Y-56483594D01*
X97995276Y-56692620D01*
X98342873Y-56836600D01*
X98711881Y-56910000D01*
X99088119Y-56910000D01*
X99457127Y-56836600D01*
X99804724Y-56692620D01*
X99879249Y-56642824D01*
X101905098Y-56642824D01*
X101954666Y-57060451D01*
X102084757Y-57460383D01*
X102242786Y-57756038D01*
X102558347Y-57912048D01*
X103870395Y-56600000D01*
X104229605Y-56600000D01*
X105541653Y-57912048D01*
X105857214Y-57756038D01*
X106048020Y-57381255D01*
X106162044Y-56976449D01*
X106194902Y-56557176D01*
X106145334Y-56139549D01*
X106015243Y-55739617D01*
X105857214Y-55443962D01*
X105541653Y-55287952D01*
X104229605Y-56600000D01*
X103870395Y-56600000D01*
X102558347Y-55287952D01*
X102242786Y-55443962D01*
X102051980Y-55818745D01*
X101937956Y-56223551D01*
X101905098Y-56642824D01*
X99879249Y-56642824D01*
X100117554Y-56483594D01*
X100383594Y-56217554D01*
X100592620Y-55904724D01*
X100736600Y-55557127D01*
X100810000Y-55188119D01*
X100810000Y-55108347D01*
X102737952Y-55108347D01*
X104050000Y-56420395D01*
X105362048Y-55108347D01*
X105293177Y-54969040D01*
X107608091Y-54969040D01*
X107702930Y-55233881D01*
X107847615Y-55475131D01*
X108036586Y-55683519D01*
X108262580Y-55851037D01*
X108516913Y-55971246D01*
X108650961Y-56011904D01*
X108873000Y-55889915D01*
X108873000Y-54747000D01*
X109127000Y-54747000D01*
X109127000Y-55889915D01*
X109349039Y-56011904D01*
X109483087Y-55971246D01*
X109737420Y-55851037D01*
X109963414Y-55683519D01*
X110152385Y-55475131D01*
X110297070Y-55233881D01*
X110391909Y-54969040D01*
X112608091Y-54969040D01*
X112702930Y-55233881D01*
X112847615Y-55475131D01*
X113036586Y-55683519D01*
X113262580Y-55851037D01*
X113516913Y-55971246D01*
X113650961Y-56011904D01*
X113873000Y-55889915D01*
X113873000Y-54747000D01*
X114127000Y-54747000D01*
X114127000Y-55889915D01*
X114349039Y-56011904D01*
X114483087Y-55971246D01*
X114737420Y-55851037D01*
X114963414Y-55683519D01*
X115152385Y-55475131D01*
X115297070Y-55233881D01*
X115391909Y-54969040D01*
X117858091Y-54969040D01*
X117952930Y-55233881D01*
X118097615Y-55475131D01*
X118286586Y-55683519D01*
X118512580Y-55851037D01*
X118766913Y-55971246D01*
X118900961Y-56011904D01*
X119123000Y-55889915D01*
X119123000Y-54747000D01*
X119377000Y-54747000D01*
X119377000Y-55889915D01*
X119599039Y-56011904D01*
X119733087Y-55971246D01*
X119987420Y-55851037D01*
X120213414Y-55683519D01*
X120402385Y-55475131D01*
X120547070Y-55233881D01*
X120641909Y-54969040D01*
X120520624Y-54747000D01*
X119377000Y-54747000D01*
X119123000Y-54747000D01*
X117979376Y-54747000D01*
X117858091Y-54969040D01*
X115391909Y-54969040D01*
X115270624Y-54747000D01*
X114127000Y-54747000D01*
X113873000Y-54747000D01*
X112729376Y-54747000D01*
X112608091Y-54969040D01*
X110391909Y-54969040D01*
X110270624Y-54747000D01*
X109127000Y-54747000D01*
X108873000Y-54747000D01*
X107729376Y-54747000D01*
X107608091Y-54969040D01*
X105293177Y-54969040D01*
X105206038Y-54792786D01*
X104831255Y-54601980D01*
X104426449Y-54487956D01*
X104007176Y-54455098D01*
X103589549Y-54504666D01*
X103189617Y-54634757D01*
X102893962Y-54792786D01*
X102737952Y-55108347D01*
X100810000Y-55108347D01*
X100810000Y-54811881D01*
X100736600Y-54442873D01*
X100665392Y-54270960D01*
X107608091Y-54270960D01*
X107729376Y-54493000D01*
X108873000Y-54493000D01*
X108873000Y-53350085D01*
X109127000Y-53350085D01*
X109127000Y-54493000D01*
X110270624Y-54493000D01*
X110391909Y-54270960D01*
X112608091Y-54270960D01*
X112729376Y-54493000D01*
X113873000Y-54493000D01*
X113873000Y-53350085D01*
X114127000Y-53350085D01*
X114127000Y-54493000D01*
X115270624Y-54493000D01*
X115391909Y-54270960D01*
X117858091Y-54270960D01*
X117979376Y-54493000D01*
X119123000Y-54493000D01*
X119123000Y-53350085D01*
X119377000Y-53350085D01*
X119377000Y-54493000D01*
X120520624Y-54493000D01*
X120641909Y-54270960D01*
X120547070Y-54006119D01*
X120402385Y-53764869D01*
X120213414Y-53556481D01*
X119987420Y-53388963D01*
X119733087Y-53268754D01*
X119599039Y-53228096D01*
X119377000Y-53350085D01*
X119123000Y-53350085D01*
X118900961Y-53228096D01*
X118766913Y-53268754D01*
X118512580Y-53388963D01*
X118286586Y-53556481D01*
X118097615Y-53764869D01*
X117952930Y-54006119D01*
X117858091Y-54270960D01*
X115391909Y-54270960D01*
X115297070Y-54006119D01*
X115152385Y-53764869D01*
X114963414Y-53556481D01*
X114737420Y-53388963D01*
X114483087Y-53268754D01*
X114349039Y-53228096D01*
X114127000Y-53350085D01*
X113873000Y-53350085D01*
X113650961Y-53228096D01*
X113516913Y-53268754D01*
X113262580Y-53388963D01*
X113036586Y-53556481D01*
X112847615Y-53764869D01*
X112702930Y-54006119D01*
X112608091Y-54270960D01*
X110391909Y-54270960D01*
X110297070Y-54006119D01*
X110152385Y-53764869D01*
X109963414Y-53556481D01*
X109737420Y-53388963D01*
X109483087Y-53268754D01*
X109349039Y-53228096D01*
X109127000Y-53350085D01*
X108873000Y-53350085D01*
X108650961Y-53228096D01*
X108516913Y-53268754D01*
X108262580Y-53388963D01*
X108036586Y-53556481D01*
X107847615Y-53764869D01*
X107702930Y-54006119D01*
X107608091Y-54270960D01*
X100665392Y-54270960D01*
X100592620Y-54095276D01*
X100383594Y-53782446D01*
X100117554Y-53516406D01*
X99804724Y-53307380D01*
X99457127Y-53163400D01*
X99088119Y-53090000D01*
X98711881Y-53090000D01*
X98342873Y-53163400D01*
X97995276Y-53307380D01*
X97682446Y-53516406D01*
X97416406Y-53782446D01*
X97207380Y-54095276D01*
X97063400Y-54442873D01*
X96990000Y-54811881D01*
X94915479Y-54811881D01*
X94906038Y-54792786D01*
X94531255Y-54601980D01*
X94126449Y-54487956D01*
X93707176Y-54455098D01*
X93289549Y-54504666D01*
X92889617Y-54634757D01*
X92593962Y-54792786D01*
X92437952Y-55108347D01*
X90660000Y-55108347D01*
X90660000Y-52300000D01*
X125811928Y-52300000D01*
X125824188Y-52424482D01*
X125860498Y-52544180D01*
X125919463Y-52654494D01*
X125998815Y-52751185D01*
X126095506Y-52830537D01*
X126205820Y-52889502D01*
X126325518Y-52925812D01*
X126450000Y-52938072D01*
X126714250Y-52935000D01*
X126873000Y-52776250D01*
X126873000Y-51527000D01*
X125973750Y-51527000D01*
X125815000Y-51685750D01*
X125811928Y-52300000D01*
X90660000Y-52300000D01*
X90660000Y-48279872D01*
X91265000Y-48279872D01*
X91265000Y-48720128D01*
X91350890Y-49151925D01*
X91519369Y-49558669D01*
X91763962Y-49924729D01*
X92075271Y-50236038D01*
X92441331Y-50480631D01*
X92848075Y-50649110D01*
X93279872Y-50735000D01*
X93720128Y-50735000D01*
X94151925Y-50649110D01*
X94511908Y-50500000D01*
X125811928Y-50500000D01*
X125815000Y-51114250D01*
X125973750Y-51273000D01*
X126873000Y-51273000D01*
X126873000Y-50023750D01*
X126714250Y-49865000D01*
X126450000Y-49861928D01*
X126325518Y-49874188D01*
X126205820Y-49910498D01*
X126095506Y-49969463D01*
X125998815Y-50048815D01*
X125919463Y-50145506D01*
X125860498Y-50255820D01*
X125824188Y-50375518D01*
X125811928Y-50500000D01*
X94511908Y-50500000D01*
X94558669Y-50480631D01*
X94924729Y-50236038D01*
X95236038Y-49924729D01*
X95480631Y-49558669D01*
X95649110Y-49151925D01*
X95735000Y-48720128D01*
X95735000Y-48279872D01*
X95649110Y-47848075D01*
X95480631Y-47441331D01*
X95236038Y-47075271D01*
X94924729Y-46763962D01*
X94558669Y-46519369D01*
X94151925Y-46350890D01*
X93720128Y-46265000D01*
X93279872Y-46265000D01*
X92848075Y-46350890D01*
X92441331Y-46519369D01*
X92075271Y-46763962D01*
X91763962Y-47075271D01*
X91519369Y-47441331D01*
X91350890Y-47848075D01*
X91265000Y-48279872D01*
X90660000Y-48279872D01*
X90660000Y-45660000D01*
X108485212Y-45660000D01*
X108320273Y-45728320D01*
G36*
X148320273Y-45728320D02*
G01*
X148085241Y-45885363D01*
X147885363Y-46085241D01*
X147865479Y-46115000D01*
X145793469Y-46115000D01*
X145750000Y-46110719D01*
X145706531Y-46115000D01*
X145706523Y-46115000D01*
X145591306Y-46126348D01*
X145576509Y-46127805D01*
X145525903Y-46143157D01*
X145409687Y-46178411D01*
X145255941Y-46260589D01*
X145255939Y-46260590D01*
X145255940Y-46260590D01*
X145154953Y-46343468D01*
X145154951Y-46343470D01*
X145121183Y-46371183D01*
X145093470Y-46404951D01*
X142298836Y-49199586D01*
X142226250Y-49127000D01*
X140127000Y-49127000D01*
X140127000Y-50976250D01*
X140285750Y-51135000D01*
X140363259Y-51135163D01*
X139404952Y-52093470D01*
X139371184Y-52121183D01*
X139343471Y-52154951D01*
X139343468Y-52154954D01*
X139260590Y-52255941D01*
X139178412Y-52409687D01*
X139127805Y-52576510D01*
X139124317Y-52611928D01*
X138250000Y-52611928D01*
X138125518Y-52624188D01*
X138005820Y-52660498D01*
X137895506Y-52719463D01*
X137798815Y-52798815D01*
X137719463Y-52895506D01*
X137686409Y-52957345D01*
X137685000Y-52285750D01*
X137526250Y-52127000D01*
X135427000Y-52127000D01*
X135427000Y-52147000D01*
X135173000Y-52147000D01*
X135173000Y-52127000D01*
X133073750Y-52127000D01*
X132915000Y-52285750D01*
X132912775Y-53346196D01*
X130728072Y-51161494D01*
X130728072Y-50775000D01*
X130710528Y-50596868D01*
X130658569Y-50425582D01*
X130574192Y-50267724D01*
X130559647Y-50250000D01*
X132911928Y-50250000D01*
X132915000Y-51714250D01*
X133073750Y-51873000D01*
X135173000Y-51873000D01*
X135173000Y-49773750D01*
X135427000Y-49773750D01*
X135427000Y-51873000D01*
X137526250Y-51873000D01*
X137685000Y-51714250D01*
X137686931Y-50793633D01*
X137719463Y-50854494D01*
X137798815Y-50951185D01*
X137895506Y-51030537D01*
X138005820Y-51089502D01*
X138125518Y-51125812D01*
X138250000Y-51138072D01*
X139714250Y-51135000D01*
X139873000Y-50976250D01*
X139873000Y-49127000D01*
X137773750Y-49127000D01*
X137615000Y-49285750D01*
X137613302Y-49956805D01*
X137580537Y-49895506D01*
X137501185Y-49798815D01*
X137404494Y-49719463D01*
X137294180Y-49660498D01*
X137174482Y-49624188D01*
X137050000Y-49611928D01*
X135585750Y-49615000D01*
X135427000Y-49773750D01*
X135173000Y-49773750D01*
X135014250Y-49615000D01*
X133550000Y-49611928D01*
X133425518Y-49624188D01*
X133305820Y-49660498D01*
X133195506Y-49719463D01*
X133098815Y-49798815D01*
X133019463Y-49895506D01*
X132960498Y-50005820D01*
X132924188Y-50125518D01*
X132911928Y-50250000D01*
X130559647Y-50250000D01*
X130460639Y-50129361D01*
X130322276Y-50015808D01*
X130164418Y-49931431D01*
X129993132Y-49879472D01*
X129815000Y-49861928D01*
X129458072Y-49861928D01*
X129458072Y-48705000D01*
X129440528Y-48526868D01*
X129388569Y-48355582D01*
X129304192Y-48197724D01*
X129190639Y-48059361D01*
X129052276Y-47945808D01*
X128894418Y-47861431D01*
X128723132Y-47809472D01*
X128545000Y-47791928D01*
X127995000Y-47791928D01*
X127816868Y-47809472D01*
X127645582Y-47861431D01*
X127637389Y-47865810D01*
X127271579Y-47500000D01*
X137611928Y-47500000D01*
X137615000Y-48714250D01*
X137773750Y-48873000D01*
X139873000Y-48873000D01*
X139873000Y-47023750D01*
X140127000Y-47023750D01*
X140127000Y-48873000D01*
X142226250Y-48873000D01*
X142385000Y-48714250D01*
X142388072Y-47500000D01*
X142375812Y-47375518D01*
X142339502Y-47255820D01*
X142280537Y-47145506D01*
X142201185Y-47048815D01*
X142104494Y-46969463D01*
X141994180Y-46910498D01*
X141874482Y-46874188D01*
X141750000Y-46861928D01*
X140285750Y-46865000D01*
X140127000Y-47023750D01*
X139873000Y-47023750D01*
X139714250Y-46865000D01*
X138250000Y-46861928D01*
X138125518Y-46874188D01*
X138005820Y-46910498D01*
X137895506Y-46969463D01*
X137798815Y-47048815D01*
X137719463Y-47145506D01*
X137660498Y-47255820D01*
X137624188Y-47375518D01*
X137611928Y-47500000D01*
X127271579Y-47500000D01*
X126176532Y-46404954D01*
X126148817Y-46371183D01*
X126014059Y-46260589D01*
X125860313Y-46178411D01*
X125693490Y-46127805D01*
X125563477Y-46115000D01*
X125563469Y-46115000D01*
X125520000Y-46110719D01*
X125476531Y-46115000D01*
X120384521Y-46115000D01*
X120364637Y-46085241D01*
X120164759Y-45885363D01*
X119929727Y-45728320D01*
X119764788Y-45660000D01*
X148485212Y-45660000D01*
X148320273Y-45728320D01*
X148320273Y-45728320D01*
G37*
X148320273Y-45728320D02*
X148085241Y-45885363D01*
X147885363Y-46085241D01*
X147865479Y-46115000D01*
X145793469Y-46115000D01*
X145750000Y-46110719D01*
X145706531Y-46115000D01*
X145706523Y-46115000D01*
X145591306Y-46126348D01*
X145576509Y-46127805D01*
X145525903Y-46143157D01*
X145409687Y-46178411D01*
X145255941Y-46260589D01*
X145255939Y-46260590D01*
X145255940Y-46260590D01*
X145154953Y-46343468D01*
X145154951Y-46343470D01*
X145121183Y-46371183D01*
X145093470Y-46404951D01*
X142298836Y-49199586D01*
X142226250Y-49127000D01*
X140127000Y-49127000D01*
X140127000Y-50976250D01*
X140285750Y-51135000D01*
X140363259Y-51135163D01*
X139404952Y-52093470D01*
X139371184Y-52121183D01*
X139343471Y-52154951D01*
X139343468Y-52154954D01*
X139260590Y-52255941D01*
X139178412Y-52409687D01*
X139127805Y-52576510D01*
X139124317Y-52611928D01*
X138250000Y-52611928D01*
X138125518Y-52624188D01*
X138005820Y-52660498D01*
X137895506Y-52719463D01*
X137798815Y-52798815D01*
X137719463Y-52895506D01*
X137686409Y-52957345D01*
X137685000Y-52285750D01*
X137526250Y-52127000D01*
X135427000Y-52127000D01*
X135427000Y-52147000D01*
X135173000Y-52147000D01*
X135173000Y-52127000D01*
X133073750Y-52127000D01*
X132915000Y-52285750D01*
X132912775Y-53346196D01*
X130728072Y-51161494D01*
X130728072Y-50775000D01*
X130710528Y-50596868D01*
X130658569Y-50425582D01*
X130574192Y-50267724D01*
X130559647Y-50250000D01*
X132911928Y-50250000D01*
X132915000Y-51714250D01*
X133073750Y-51873000D01*
X135173000Y-51873000D01*
X135173000Y-49773750D01*
X135427000Y-49773750D01*
X135427000Y-51873000D01*
X137526250Y-51873000D01*
X137685000Y-51714250D01*
X137686931Y-50793633D01*
X137719463Y-50854494D01*
X137798815Y-50951185D01*
X137895506Y-51030537D01*
X138005820Y-51089502D01*
X138125518Y-51125812D01*
X138250000Y-51138072D01*
X139714250Y-51135000D01*
X139873000Y-50976250D01*
X139873000Y-49127000D01*
X137773750Y-49127000D01*
X137615000Y-49285750D01*
X137613302Y-49956805D01*
X137580537Y-49895506D01*
X137501185Y-49798815D01*
X137404494Y-49719463D01*
X137294180Y-49660498D01*
X137174482Y-49624188D01*
X137050000Y-49611928D01*
X135585750Y-49615000D01*
X135427000Y-49773750D01*
X135173000Y-49773750D01*
X135014250Y-49615000D01*
X133550000Y-49611928D01*
X133425518Y-49624188D01*
X133305820Y-49660498D01*
X133195506Y-49719463D01*
X133098815Y-49798815D01*
X133019463Y-49895506D01*
X132960498Y-50005820D01*
X132924188Y-50125518D01*
X132911928Y-50250000D01*
X130559647Y-50250000D01*
X130460639Y-50129361D01*
X130322276Y-50015808D01*
X130164418Y-49931431D01*
X129993132Y-49879472D01*
X129815000Y-49861928D01*
X129458072Y-49861928D01*
X129458072Y-48705000D01*
X129440528Y-48526868D01*
X129388569Y-48355582D01*
X129304192Y-48197724D01*
X129190639Y-48059361D01*
X129052276Y-47945808D01*
X128894418Y-47861431D01*
X128723132Y-47809472D01*
X128545000Y-47791928D01*
X127995000Y-47791928D01*
X127816868Y-47809472D01*
X127645582Y-47861431D01*
X127637389Y-47865810D01*
X127271579Y-47500000D01*
X137611928Y-47500000D01*
X137615000Y-48714250D01*
X137773750Y-48873000D01*
X139873000Y-48873000D01*
X139873000Y-47023750D01*
X140127000Y-47023750D01*
X140127000Y-48873000D01*
X142226250Y-48873000D01*
X142385000Y-48714250D01*
X142388072Y-47500000D01*
X142375812Y-47375518D01*
X142339502Y-47255820D01*
X142280537Y-47145506D01*
X142201185Y-47048815D01*
X142104494Y-46969463D01*
X141994180Y-46910498D01*
X141874482Y-46874188D01*
X141750000Y-46861928D01*
X140285750Y-46865000D01*
X140127000Y-47023750D01*
X139873000Y-47023750D01*
X139714250Y-46865000D01*
X138250000Y-46861928D01*
X138125518Y-46874188D01*
X138005820Y-46910498D01*
X137895506Y-46969463D01*
X137798815Y-47048815D01*
X137719463Y-47145506D01*
X137660498Y-47255820D01*
X137624188Y-47375518D01*
X137611928Y-47500000D01*
X127271579Y-47500000D01*
X126176532Y-46404954D01*
X126148817Y-46371183D01*
X126014059Y-46260589D01*
X125860313Y-46178411D01*
X125693490Y-46127805D01*
X125563477Y-46115000D01*
X125563469Y-46115000D01*
X125520000Y-46110719D01*
X125476531Y-46115000D01*
X120384521Y-46115000D01*
X120364637Y-46085241D01*
X120164759Y-45885363D01*
X119929727Y-45728320D01*
X119764788Y-45660000D01*
X148485212Y-45660000D01*
X148320273Y-45728320D01*
M02*
