M48
; DRILL file {KiCad (5.1.4-0-10_14)} date 2021 June 29, Tuesday 12:17:27
; FORMAT={-:-/ absolute / metric / decimal}
; #@! TF.CreationDate,2021-06-29T12:17:27+12:00
; #@! TF.GenerationSoftware,Kicad,Pcbnew,(5.1.4-0-10_14)
; #@! TF.FileFunction,Plated,1,2,PTH
FMAT,2
METRIC
T1C0.750
T2C0.800
T3C0.900
T4C1.000
T5C1.700
T6C2.000
%
G90
G05
T1
X164.0Y-49.0
X165.27Y-47.73
X166.54Y-49.0
X127.0Y-51.0
X128.27Y-49.73
X129.54Y-51.0
T2
X124.4Y-62.9
X134.1Y-70.28
X136.64Y-70.28
X139.18Y-70.28
X144.26Y-77.9
X146.8Y-77.9
X149.34Y-77.9
X114.75Y-59.0
X119.75Y-59.0
X170.4Y-70.0
X170.4Y-75.0
X132.02Y-62.9
X116.92Y-63.3
X147.8Y-58.4
X155.42Y-58.4
X109.3Y-63.3
X134.1Y-77.9
X136.64Y-77.9
X139.18Y-77.9
X141.72Y-70.28
X141.72Y-77.9
X144.26Y-70.28
X146.8Y-70.28
X149.34Y-70.28
X179.5Y-77.62
X179.5Y-70.0
X109.0Y-47.0
X109.0Y-54.62
X105.0Y-77.72
X171.0Y-47.0
X105.0Y-70.1
X171.0Y-54.62
X135.38Y-62.9
X143.0Y-62.9
X154.0Y-47.0
X154.0Y-54.62
X119.25Y-47.0
X119.25Y-54.62
X147.68Y-62.8
X155.3Y-62.8
X96.1Y-65.7
X101.1Y-65.7
X149.0Y-47.0
X149.0Y-54.62
X100.5Y-70.0
X175.0Y-70.0
X175.0Y-77.62
X114.0Y-47.0
X114.0Y-54.62
X160.38Y-54.0
X168.0Y-54.0
X130.4Y-71.7
X130.4Y-76.7
X100.5Y-77.62
T3
X124.5Y-59.0
X132.12Y-59.0
T4
X156.3Y-78.1
X158.8Y-78.1
X161.3Y-78.1
X118.7Y-78.2
X121.2Y-78.2
X123.7Y-78.2
T5
X98.9Y-55.0
X181.2Y-55.5
T6
X93.75Y-56.6
X104.05Y-56.6
X176.05Y-57.1
X186.35Y-57.1
T4
G00X135.3Y-51.0
M15
G01X135.3Y-53.0
M16
G05
G00X141.0Y-49.0
M15
G01X139.0Y-49.0
M16
G05
G00X141.0Y-55.0
M15
G01X139.0Y-55.0
M16
G05
T0
M30
