G04 #@! TF.GenerationSoftware,KiCad,Pcbnew,(5.1.4-0-10_14)*
G04 #@! TF.CreationDate,2021-06-29T18:28:10+12:00*
G04 #@! TF.ProjectId,chroma_luma_invert,6368726f-6d61-45f6-9c75-6d615f696e76,rev?*
G04 #@! TF.SameCoordinates,Original*
G04 #@! TF.FileFunction,Soldermask,Top*
G04 #@! TF.FilePolarity,Negative*
%FSLAX46Y46*%
G04 Gerber Fmt 4.6, Leading zero omitted, Abs format (unit mm)*
G04 Created by KiCad (PCBNEW (5.1.4-0-10_14)) date 2021-06-29 18:28:10*
%MOMM*%
%LPD*%
G04 APERTURE LIST*
%ADD10C,3.600000*%
%ADD11O,2.000000X2.800000*%
%ADD12R,2.000000X2.800000*%
%ADD13C,2.000000*%
%ADD14R,2.000000X2.000000*%
%ADD15R,2.600000X2.600000*%
%ADD16O,2.600000X2.600000*%
%ADD17R,3.900000X3.900000*%
%ADD18C,0.100000*%
%ADD19C,3.400000*%
%ADD20C,3.900000*%
%ADD21R,2.100000X2.100000*%
%ADD22O,2.100000X2.100000*%
%ADD23R,2.800000X2.000000*%
%ADD24O,2.800000X2.000000*%
%ADD25O,3.900000X3.900000*%
%ADD26R,2.400000X2.305000*%
%ADD27O,2.400000X2.305000*%
%ADD28O,2.000000X2.000000*%
%ADD29C,2.950000*%
%ADD30C,1.840000*%
%ADD31C,1.000000*%
G04 APERTURE END LIST*
D10*
X201500000Y-38600000D03*
X201600000Y-131400000D03*
X108400000Y-131300000D03*
X108500000Y-38600000D03*
D11*
X151500000Y-86580000D03*
X159120000Y-94200000D03*
X154040000Y-86580000D03*
X156580000Y-94200000D03*
X156580000Y-86580000D03*
X154040000Y-94200000D03*
X159120000Y-86580000D03*
D12*
X151500000Y-94200000D03*
D13*
X150900000Y-81600000D03*
X155900000Y-81600000D03*
X199900000Y-74900000D03*
X194900000Y-74900000D03*
X148100000Y-86300000D03*
X148100000Y-91300000D03*
X190600000Y-103500000D03*
X190600000Y-98500000D03*
X124100000Y-107100000D03*
X124100000Y-102100000D03*
X144700000Y-105600000D03*
X144700000Y-110600000D03*
X123000000Y-78000000D03*
X118000000Y-78000000D03*
X145500000Y-40400000D03*
D14*
X143000000Y-40400000D03*
D13*
X112500000Y-52250000D03*
X112500000Y-47250000D03*
X194750000Y-109750000D03*
X194750000Y-114750000D03*
X178000000Y-109500000D03*
X178000000Y-104500000D03*
X168000000Y-99500000D03*
X163000000Y-99500000D03*
X108250000Y-87000000D03*
X108250000Y-82000000D03*
X127750000Y-113500000D03*
X127750000Y-118500000D03*
X110500000Y-112750000D03*
X110500000Y-107750000D03*
D15*
X122000000Y-55250000D03*
D16*
X122000000Y-47630000D03*
D17*
X155000000Y-45000000D03*
D18*
G36*
X156183315Y-37304093D02*
G01*
X156265827Y-37316333D01*
X156346742Y-37336601D01*
X156425281Y-37364702D01*
X156500687Y-37400367D01*
X156572235Y-37443251D01*
X156639234Y-37492941D01*
X156701041Y-37548959D01*
X156757059Y-37610766D01*
X156806749Y-37677765D01*
X156849633Y-37749313D01*
X156885298Y-37824719D01*
X156913399Y-37903258D01*
X156933667Y-37984173D01*
X156945907Y-38066685D01*
X156950000Y-38150000D01*
X156950000Y-39850000D01*
X156945907Y-39933315D01*
X156933667Y-40015827D01*
X156913399Y-40096742D01*
X156885298Y-40175281D01*
X156849633Y-40250687D01*
X156806749Y-40322235D01*
X156757059Y-40389234D01*
X156701041Y-40451041D01*
X156639234Y-40507059D01*
X156572235Y-40556749D01*
X156500687Y-40599633D01*
X156425281Y-40635298D01*
X156346742Y-40663399D01*
X156265827Y-40683667D01*
X156183315Y-40695907D01*
X156100000Y-40700000D01*
X153900000Y-40700000D01*
X153816685Y-40695907D01*
X153734173Y-40683667D01*
X153653258Y-40663399D01*
X153574719Y-40635298D01*
X153499313Y-40599633D01*
X153427765Y-40556749D01*
X153360766Y-40507059D01*
X153298959Y-40451041D01*
X153242941Y-40389234D01*
X153193251Y-40322235D01*
X153150367Y-40250687D01*
X153114702Y-40175281D01*
X153086601Y-40096742D01*
X153066333Y-40015827D01*
X153054093Y-39933315D01*
X153050000Y-39850000D01*
X153050000Y-38150000D01*
X153054093Y-38066685D01*
X153066333Y-37984173D01*
X153086601Y-37903258D01*
X153114702Y-37824719D01*
X153150367Y-37749313D01*
X153193251Y-37677765D01*
X153242941Y-37610766D01*
X153298959Y-37548959D01*
X153360766Y-37492941D01*
X153427765Y-37443251D01*
X153499313Y-37400367D01*
X153574719Y-37364702D01*
X153653258Y-37336601D01*
X153734173Y-37316333D01*
X153816685Y-37304093D01*
X153900000Y-37300000D01*
X156100000Y-37300000D01*
X156183315Y-37304093D01*
X156183315Y-37304093D01*
G37*
D19*
X155000000Y-39000000D03*
D18*
G36*
X151370567Y-40054695D02*
G01*
X151465213Y-40068734D01*
X151558028Y-40091983D01*
X151648116Y-40124217D01*
X151734612Y-40165127D01*
X151816681Y-40214317D01*
X151893533Y-40271315D01*
X151964429Y-40335571D01*
X152028685Y-40406467D01*
X152085683Y-40483319D01*
X152134873Y-40565388D01*
X152175783Y-40651884D01*
X152208017Y-40741972D01*
X152231266Y-40834787D01*
X152245305Y-40929433D01*
X152250000Y-41025000D01*
X152250000Y-42975000D01*
X152245305Y-43070567D01*
X152231266Y-43165213D01*
X152208017Y-43258028D01*
X152175783Y-43348116D01*
X152134873Y-43434612D01*
X152085683Y-43516681D01*
X152028685Y-43593533D01*
X151964429Y-43664429D01*
X151893533Y-43728685D01*
X151816681Y-43785683D01*
X151734612Y-43834873D01*
X151648116Y-43875783D01*
X151558028Y-43908017D01*
X151465213Y-43931266D01*
X151370567Y-43945305D01*
X151275000Y-43950000D01*
X149325000Y-43950000D01*
X149229433Y-43945305D01*
X149134787Y-43931266D01*
X149041972Y-43908017D01*
X148951884Y-43875783D01*
X148865388Y-43834873D01*
X148783319Y-43785683D01*
X148706467Y-43728685D01*
X148635571Y-43664429D01*
X148571315Y-43593533D01*
X148514317Y-43516681D01*
X148465127Y-43434612D01*
X148424217Y-43348116D01*
X148391983Y-43258028D01*
X148368734Y-43165213D01*
X148354695Y-43070567D01*
X148350000Y-42975000D01*
X148350000Y-41025000D01*
X148354695Y-40929433D01*
X148368734Y-40834787D01*
X148391983Y-40741972D01*
X148424217Y-40651884D01*
X148465127Y-40565388D01*
X148514317Y-40483319D01*
X148571315Y-40406467D01*
X148635571Y-40335571D01*
X148706467Y-40271315D01*
X148783319Y-40214317D01*
X148865388Y-40165127D01*
X148951884Y-40124217D01*
X149041972Y-40091983D01*
X149134787Y-40068734D01*
X149229433Y-40054695D01*
X149325000Y-40050000D01*
X151275000Y-40050000D01*
X151370567Y-40054695D01*
X151370567Y-40054695D01*
G37*
D20*
X150300000Y-42000000D03*
D21*
X167500000Y-132500000D03*
D22*
X164960000Y-132500000D03*
X162420000Y-132500000D03*
X159880000Y-132500000D03*
X157340000Y-132500000D03*
X154800000Y-132500000D03*
X152260000Y-132500000D03*
X149720000Y-132500000D03*
X147180000Y-132500000D03*
X144640000Y-132500000D03*
X142100000Y-132500000D03*
X139560000Y-132500000D03*
D20*
X172100000Y-90250000D03*
X176800000Y-90250000D03*
X181500000Y-90250000D03*
X136250000Y-89750000D03*
X131550000Y-89750000D03*
X126850000Y-89750000D03*
D23*
X192200000Y-77900000D03*
D24*
X199820000Y-95680000D03*
X192200000Y-80440000D03*
X199820000Y-93140000D03*
X192200000Y-82980000D03*
X199820000Y-90600000D03*
X192200000Y-85520000D03*
X199820000Y-88060000D03*
X192200000Y-88060000D03*
X199820000Y-85520000D03*
X192200000Y-90600000D03*
X199820000Y-82980000D03*
X192200000Y-93140000D03*
X199820000Y-80440000D03*
X192200000Y-95680000D03*
X199820000Y-77900000D03*
D25*
X193160000Y-41040000D03*
D26*
X176500000Y-38500000D03*
D27*
X176500000Y-41040000D03*
X176500000Y-43580000D03*
D24*
X190120000Y-106750000D03*
X182500000Y-124530000D03*
X190120000Y-109290000D03*
X182500000Y-121990000D03*
X190120000Y-111830000D03*
X182500000Y-119450000D03*
X190120000Y-114370000D03*
X182500000Y-116910000D03*
X190120000Y-116910000D03*
X182500000Y-114370000D03*
X190120000Y-119450000D03*
X182500000Y-111830000D03*
X190120000Y-121990000D03*
X182500000Y-109290000D03*
X190120000Y-124530000D03*
D23*
X182500000Y-106750000D03*
D24*
X122870000Y-110250000D03*
X115250000Y-128030000D03*
X122870000Y-112790000D03*
X115250000Y-125490000D03*
X122870000Y-115330000D03*
X115250000Y-122950000D03*
X122870000Y-117870000D03*
X115250000Y-120410000D03*
X122870000Y-120410000D03*
X115250000Y-117870000D03*
X122870000Y-122950000D03*
X115250000Y-115330000D03*
X122870000Y-125490000D03*
X115250000Y-112790000D03*
X122870000Y-128030000D03*
D23*
X115250000Y-110250000D03*
D12*
X148500000Y-113500000D03*
D11*
X166280000Y-105880000D03*
X151040000Y-113500000D03*
X163740000Y-105880000D03*
X153580000Y-113500000D03*
X161200000Y-105880000D03*
X156120000Y-113500000D03*
X158660000Y-105880000D03*
X158660000Y-113500000D03*
X156120000Y-105880000D03*
X161200000Y-113500000D03*
X153580000Y-105880000D03*
X163740000Y-113500000D03*
X151040000Y-105880000D03*
X166280000Y-113500000D03*
X148500000Y-105880000D03*
D23*
X112000000Y-82250000D03*
D24*
X119620000Y-100030000D03*
X112000000Y-84790000D03*
X119620000Y-97490000D03*
X112000000Y-87330000D03*
X119620000Y-94950000D03*
X112000000Y-89870000D03*
X119620000Y-92410000D03*
X112000000Y-92410000D03*
X119620000Y-89870000D03*
X112000000Y-94950000D03*
X119620000Y-87330000D03*
X112000000Y-97490000D03*
X119620000Y-84790000D03*
X112000000Y-100030000D03*
X119620000Y-82250000D03*
D13*
X144000000Y-82750000D03*
D28*
X144000000Y-75130000D03*
X201500000Y-51630000D03*
D13*
X201500000Y-59250000D03*
D28*
X139500000Y-75380000D03*
D13*
X139500000Y-83000000D03*
X144000000Y-72250000D03*
D28*
X144000000Y-64630000D03*
D13*
X196750000Y-51750000D03*
D28*
X196750000Y-59370000D03*
D13*
X107500000Y-47250000D03*
D28*
X107500000Y-54870000D03*
D13*
X127000000Y-47250000D03*
D28*
X127000000Y-54870000D03*
X139500000Y-72120000D03*
D13*
X139500000Y-64500000D03*
X144000000Y-48000000D03*
D28*
X144000000Y-55620000D03*
D13*
X139500000Y-48000000D03*
D28*
X139500000Y-55620000D03*
X168500000Y-65630000D03*
D13*
X168500000Y-73250000D03*
D28*
X164000000Y-75880000D03*
D13*
X164000000Y-83500000D03*
X164000000Y-73000000D03*
D28*
X164000000Y-65380000D03*
X164000000Y-46120000D03*
D13*
X164000000Y-38500000D03*
X169000000Y-36500000D03*
D28*
X169000000Y-44120000D03*
X199000000Y-117620000D03*
D13*
X199000000Y-110000000D03*
X148000000Y-99500000D03*
D28*
X140380000Y-99500000D03*
X187420000Y-101700000D03*
D13*
X179800000Y-101700000D03*
X171250000Y-95750000D03*
D28*
X178870000Y-95750000D03*
X159370000Y-99500000D03*
D13*
X151750000Y-99500000D03*
X129000000Y-95750000D03*
D28*
X136620000Y-95750000D03*
X136620000Y-99500000D03*
D13*
X129000000Y-99500000D03*
D28*
X190120000Y-129250000D03*
D13*
X182500000Y-129250000D03*
X107750000Y-78000000D03*
D28*
X115370000Y-78000000D03*
D13*
X132000000Y-113500000D03*
D28*
X132000000Y-121120000D03*
X121120000Y-106300000D03*
D13*
X113500000Y-106300000D03*
D28*
X108250000Y-97370000D03*
D13*
X108250000Y-89750000D03*
X133700000Y-72700000D03*
X133700000Y-77700000D03*
D19*
X108350000Y-68000000D03*
X118650000Y-68000000D03*
D29*
X113500000Y-66400000D03*
X196500000Y-65400000D03*
D19*
X201650000Y-67000000D03*
X191350000Y-67000000D03*
D30*
X196250000Y-125750000D03*
X198790000Y-123210000D03*
X196250000Y-120670000D03*
X196250000Y-101670000D03*
X198790000Y-104210000D03*
X196250000Y-106750000D03*
X129500000Y-129250000D03*
X132040000Y-126710000D03*
X129500000Y-124170000D03*
X129500000Y-105420000D03*
X132040000Y-107960000D03*
X129500000Y-110500000D03*
X176300000Y-82500000D03*
X173760000Y-79960000D03*
X171220000Y-82500000D03*
X130900000Y-82300000D03*
X128360000Y-79760000D03*
X125820000Y-82300000D03*
X125820000Y-75200000D03*
X128360000Y-72660000D03*
X130900000Y-75200000D03*
D23*
X149450000Y-63000000D03*
D24*
X157070000Y-78240000D03*
X149450000Y-65540000D03*
X157070000Y-75700000D03*
X149450000Y-68080000D03*
X157070000Y-73160000D03*
X149450000Y-70620000D03*
X157070000Y-70620000D03*
X149450000Y-73160000D03*
X157070000Y-68080000D03*
X149450000Y-75700000D03*
X157070000Y-65540000D03*
X149450000Y-78240000D03*
X157070000Y-63000000D03*
D18*
G36*
X156474504Y-59761204D02*
G01*
X156498773Y-59764804D01*
X156522571Y-59770765D01*
X156545671Y-59779030D01*
X156567849Y-59789520D01*
X156588893Y-59802133D01*
X156608598Y-59816747D01*
X156626777Y-59833223D01*
X156643253Y-59851402D01*
X156657867Y-59871107D01*
X156670480Y-59892151D01*
X156680970Y-59914329D01*
X156689235Y-59937429D01*
X156695196Y-59961227D01*
X156698796Y-59985496D01*
X156700000Y-60010000D01*
X156700000Y-60510000D01*
X156698796Y-60534504D01*
X156695196Y-60558773D01*
X156689235Y-60582571D01*
X156680970Y-60605671D01*
X156670480Y-60627849D01*
X156657867Y-60648893D01*
X156643253Y-60668598D01*
X156626777Y-60686777D01*
X156608598Y-60703253D01*
X156588893Y-60717867D01*
X156567849Y-60730480D01*
X156545671Y-60740970D01*
X156522571Y-60749235D01*
X156498773Y-60755196D01*
X156474504Y-60758796D01*
X156450000Y-60760000D01*
X154600000Y-60760000D01*
X154575496Y-60758796D01*
X154551227Y-60755196D01*
X154527429Y-60749235D01*
X154504329Y-60740970D01*
X154482151Y-60730480D01*
X154461107Y-60717867D01*
X154441402Y-60703253D01*
X154423223Y-60686777D01*
X154406747Y-60668598D01*
X154392133Y-60648893D01*
X154379520Y-60627849D01*
X154369030Y-60605671D01*
X154360765Y-60582571D01*
X154354804Y-60558773D01*
X154351204Y-60534504D01*
X154350000Y-60510000D01*
X154350000Y-60010000D01*
X154351204Y-59985496D01*
X154354804Y-59961227D01*
X154360765Y-59937429D01*
X154369030Y-59914329D01*
X154379520Y-59892151D01*
X154392133Y-59871107D01*
X154406747Y-59851402D01*
X154423223Y-59833223D01*
X154441402Y-59816747D01*
X154461107Y-59802133D01*
X154482151Y-59789520D01*
X154504329Y-59779030D01*
X154527429Y-59770765D01*
X154551227Y-59764804D01*
X154575496Y-59761204D01*
X154600000Y-59760000D01*
X156450000Y-59760000D01*
X156474504Y-59761204D01*
X156474504Y-59761204D01*
G37*
D31*
X155525000Y-60260000D03*
D18*
G36*
X156474504Y-58491204D02*
G01*
X156498773Y-58494804D01*
X156522571Y-58500765D01*
X156545671Y-58509030D01*
X156567849Y-58519520D01*
X156588893Y-58532133D01*
X156608598Y-58546747D01*
X156626777Y-58563223D01*
X156643253Y-58581402D01*
X156657867Y-58601107D01*
X156670480Y-58622151D01*
X156680970Y-58644329D01*
X156689235Y-58667429D01*
X156695196Y-58691227D01*
X156698796Y-58715496D01*
X156700000Y-58740000D01*
X156700000Y-59240000D01*
X156698796Y-59264504D01*
X156695196Y-59288773D01*
X156689235Y-59312571D01*
X156680970Y-59335671D01*
X156670480Y-59357849D01*
X156657867Y-59378893D01*
X156643253Y-59398598D01*
X156626777Y-59416777D01*
X156608598Y-59433253D01*
X156588893Y-59447867D01*
X156567849Y-59460480D01*
X156545671Y-59470970D01*
X156522571Y-59479235D01*
X156498773Y-59485196D01*
X156474504Y-59488796D01*
X156450000Y-59490000D01*
X154600000Y-59490000D01*
X154575496Y-59488796D01*
X154551227Y-59485196D01*
X154527429Y-59479235D01*
X154504329Y-59470970D01*
X154482151Y-59460480D01*
X154461107Y-59447867D01*
X154441402Y-59433253D01*
X154423223Y-59416777D01*
X154406747Y-59398598D01*
X154392133Y-59378893D01*
X154379520Y-59357849D01*
X154369030Y-59335671D01*
X154360765Y-59312571D01*
X154354804Y-59288773D01*
X154351204Y-59264504D01*
X154350000Y-59240000D01*
X154350000Y-58740000D01*
X154351204Y-58715496D01*
X154354804Y-58691227D01*
X154360765Y-58667429D01*
X154369030Y-58644329D01*
X154379520Y-58622151D01*
X154392133Y-58601107D01*
X154406747Y-58581402D01*
X154423223Y-58563223D01*
X154441402Y-58546747D01*
X154461107Y-58532133D01*
X154482151Y-58519520D01*
X154504329Y-58509030D01*
X154527429Y-58500765D01*
X154551227Y-58494804D01*
X154575496Y-58491204D01*
X154600000Y-58490000D01*
X156450000Y-58490000D01*
X156474504Y-58491204D01*
X156474504Y-58491204D01*
G37*
D31*
X155525000Y-58990000D03*
D18*
G36*
X156474504Y-57221204D02*
G01*
X156498773Y-57224804D01*
X156522571Y-57230765D01*
X156545671Y-57239030D01*
X156567849Y-57249520D01*
X156588893Y-57262133D01*
X156608598Y-57276747D01*
X156626777Y-57293223D01*
X156643253Y-57311402D01*
X156657867Y-57331107D01*
X156670480Y-57352151D01*
X156680970Y-57374329D01*
X156689235Y-57397429D01*
X156695196Y-57421227D01*
X156698796Y-57445496D01*
X156700000Y-57470000D01*
X156700000Y-57970000D01*
X156698796Y-57994504D01*
X156695196Y-58018773D01*
X156689235Y-58042571D01*
X156680970Y-58065671D01*
X156670480Y-58087849D01*
X156657867Y-58108893D01*
X156643253Y-58128598D01*
X156626777Y-58146777D01*
X156608598Y-58163253D01*
X156588893Y-58177867D01*
X156567849Y-58190480D01*
X156545671Y-58200970D01*
X156522571Y-58209235D01*
X156498773Y-58215196D01*
X156474504Y-58218796D01*
X156450000Y-58220000D01*
X154600000Y-58220000D01*
X154575496Y-58218796D01*
X154551227Y-58215196D01*
X154527429Y-58209235D01*
X154504329Y-58200970D01*
X154482151Y-58190480D01*
X154461107Y-58177867D01*
X154441402Y-58163253D01*
X154423223Y-58146777D01*
X154406747Y-58128598D01*
X154392133Y-58108893D01*
X154379520Y-58087849D01*
X154369030Y-58065671D01*
X154360765Y-58042571D01*
X154354804Y-58018773D01*
X154351204Y-57994504D01*
X154350000Y-57970000D01*
X154350000Y-57470000D01*
X154351204Y-57445496D01*
X154354804Y-57421227D01*
X154360765Y-57397429D01*
X154369030Y-57374329D01*
X154379520Y-57352151D01*
X154392133Y-57331107D01*
X154406747Y-57311402D01*
X154423223Y-57293223D01*
X154441402Y-57276747D01*
X154461107Y-57262133D01*
X154482151Y-57249520D01*
X154504329Y-57239030D01*
X154527429Y-57230765D01*
X154551227Y-57224804D01*
X154575496Y-57221204D01*
X154600000Y-57220000D01*
X156450000Y-57220000D01*
X156474504Y-57221204D01*
X156474504Y-57221204D01*
G37*
D31*
X155525000Y-57720000D03*
D18*
G36*
X156474504Y-55951204D02*
G01*
X156498773Y-55954804D01*
X156522571Y-55960765D01*
X156545671Y-55969030D01*
X156567849Y-55979520D01*
X156588893Y-55992133D01*
X156608598Y-56006747D01*
X156626777Y-56023223D01*
X156643253Y-56041402D01*
X156657867Y-56061107D01*
X156670480Y-56082151D01*
X156680970Y-56104329D01*
X156689235Y-56127429D01*
X156695196Y-56151227D01*
X156698796Y-56175496D01*
X156700000Y-56200000D01*
X156700000Y-56700000D01*
X156698796Y-56724504D01*
X156695196Y-56748773D01*
X156689235Y-56772571D01*
X156680970Y-56795671D01*
X156670480Y-56817849D01*
X156657867Y-56838893D01*
X156643253Y-56858598D01*
X156626777Y-56876777D01*
X156608598Y-56893253D01*
X156588893Y-56907867D01*
X156567849Y-56920480D01*
X156545671Y-56930970D01*
X156522571Y-56939235D01*
X156498773Y-56945196D01*
X156474504Y-56948796D01*
X156450000Y-56950000D01*
X154600000Y-56950000D01*
X154575496Y-56948796D01*
X154551227Y-56945196D01*
X154527429Y-56939235D01*
X154504329Y-56930970D01*
X154482151Y-56920480D01*
X154461107Y-56907867D01*
X154441402Y-56893253D01*
X154423223Y-56876777D01*
X154406747Y-56858598D01*
X154392133Y-56838893D01*
X154379520Y-56817849D01*
X154369030Y-56795671D01*
X154360765Y-56772571D01*
X154354804Y-56748773D01*
X154351204Y-56724504D01*
X154350000Y-56700000D01*
X154350000Y-56200000D01*
X154351204Y-56175496D01*
X154354804Y-56151227D01*
X154360765Y-56127429D01*
X154369030Y-56104329D01*
X154379520Y-56082151D01*
X154392133Y-56061107D01*
X154406747Y-56041402D01*
X154423223Y-56023223D01*
X154441402Y-56006747D01*
X154461107Y-55992133D01*
X154482151Y-55979520D01*
X154504329Y-55969030D01*
X154527429Y-55960765D01*
X154551227Y-55954804D01*
X154575496Y-55951204D01*
X154600000Y-55950000D01*
X156450000Y-55950000D01*
X156474504Y-55951204D01*
X156474504Y-55951204D01*
G37*
D31*
X155525000Y-56450000D03*
D18*
G36*
X156474504Y-54681204D02*
G01*
X156498773Y-54684804D01*
X156522571Y-54690765D01*
X156545671Y-54699030D01*
X156567849Y-54709520D01*
X156588893Y-54722133D01*
X156608598Y-54736747D01*
X156626777Y-54753223D01*
X156643253Y-54771402D01*
X156657867Y-54791107D01*
X156670480Y-54812151D01*
X156680970Y-54834329D01*
X156689235Y-54857429D01*
X156695196Y-54881227D01*
X156698796Y-54905496D01*
X156700000Y-54930000D01*
X156700000Y-55430000D01*
X156698796Y-55454504D01*
X156695196Y-55478773D01*
X156689235Y-55502571D01*
X156680970Y-55525671D01*
X156670480Y-55547849D01*
X156657867Y-55568893D01*
X156643253Y-55588598D01*
X156626777Y-55606777D01*
X156608598Y-55623253D01*
X156588893Y-55637867D01*
X156567849Y-55650480D01*
X156545671Y-55660970D01*
X156522571Y-55669235D01*
X156498773Y-55675196D01*
X156474504Y-55678796D01*
X156450000Y-55680000D01*
X154600000Y-55680000D01*
X154575496Y-55678796D01*
X154551227Y-55675196D01*
X154527429Y-55669235D01*
X154504329Y-55660970D01*
X154482151Y-55650480D01*
X154461107Y-55637867D01*
X154441402Y-55623253D01*
X154423223Y-55606777D01*
X154406747Y-55588598D01*
X154392133Y-55568893D01*
X154379520Y-55547849D01*
X154369030Y-55525671D01*
X154360765Y-55502571D01*
X154354804Y-55478773D01*
X154351204Y-55454504D01*
X154350000Y-55430000D01*
X154350000Y-54930000D01*
X154351204Y-54905496D01*
X154354804Y-54881227D01*
X154360765Y-54857429D01*
X154369030Y-54834329D01*
X154379520Y-54812151D01*
X154392133Y-54791107D01*
X154406747Y-54771402D01*
X154423223Y-54753223D01*
X154441402Y-54736747D01*
X154461107Y-54722133D01*
X154482151Y-54709520D01*
X154504329Y-54699030D01*
X154527429Y-54690765D01*
X154551227Y-54684804D01*
X154575496Y-54681204D01*
X154600000Y-54680000D01*
X156450000Y-54680000D01*
X156474504Y-54681204D01*
X156474504Y-54681204D01*
G37*
D31*
X155525000Y-55180000D03*
D18*
G36*
X156474504Y-53411204D02*
G01*
X156498773Y-53414804D01*
X156522571Y-53420765D01*
X156545671Y-53429030D01*
X156567849Y-53439520D01*
X156588893Y-53452133D01*
X156608598Y-53466747D01*
X156626777Y-53483223D01*
X156643253Y-53501402D01*
X156657867Y-53521107D01*
X156670480Y-53542151D01*
X156680970Y-53564329D01*
X156689235Y-53587429D01*
X156695196Y-53611227D01*
X156698796Y-53635496D01*
X156700000Y-53660000D01*
X156700000Y-54160000D01*
X156698796Y-54184504D01*
X156695196Y-54208773D01*
X156689235Y-54232571D01*
X156680970Y-54255671D01*
X156670480Y-54277849D01*
X156657867Y-54298893D01*
X156643253Y-54318598D01*
X156626777Y-54336777D01*
X156608598Y-54353253D01*
X156588893Y-54367867D01*
X156567849Y-54380480D01*
X156545671Y-54390970D01*
X156522571Y-54399235D01*
X156498773Y-54405196D01*
X156474504Y-54408796D01*
X156450000Y-54410000D01*
X154600000Y-54410000D01*
X154575496Y-54408796D01*
X154551227Y-54405196D01*
X154527429Y-54399235D01*
X154504329Y-54390970D01*
X154482151Y-54380480D01*
X154461107Y-54367867D01*
X154441402Y-54353253D01*
X154423223Y-54336777D01*
X154406747Y-54318598D01*
X154392133Y-54298893D01*
X154379520Y-54277849D01*
X154369030Y-54255671D01*
X154360765Y-54232571D01*
X154354804Y-54208773D01*
X154351204Y-54184504D01*
X154350000Y-54160000D01*
X154350000Y-53660000D01*
X154351204Y-53635496D01*
X154354804Y-53611227D01*
X154360765Y-53587429D01*
X154369030Y-53564329D01*
X154379520Y-53542151D01*
X154392133Y-53521107D01*
X154406747Y-53501402D01*
X154423223Y-53483223D01*
X154441402Y-53466747D01*
X154461107Y-53452133D01*
X154482151Y-53439520D01*
X154504329Y-53429030D01*
X154527429Y-53420765D01*
X154551227Y-53414804D01*
X154575496Y-53411204D01*
X154600000Y-53410000D01*
X156450000Y-53410000D01*
X156474504Y-53411204D01*
X156474504Y-53411204D01*
G37*
D31*
X155525000Y-53910000D03*
D18*
G36*
X156474504Y-52141204D02*
G01*
X156498773Y-52144804D01*
X156522571Y-52150765D01*
X156545671Y-52159030D01*
X156567849Y-52169520D01*
X156588893Y-52182133D01*
X156608598Y-52196747D01*
X156626777Y-52213223D01*
X156643253Y-52231402D01*
X156657867Y-52251107D01*
X156670480Y-52272151D01*
X156680970Y-52294329D01*
X156689235Y-52317429D01*
X156695196Y-52341227D01*
X156698796Y-52365496D01*
X156700000Y-52390000D01*
X156700000Y-52890000D01*
X156698796Y-52914504D01*
X156695196Y-52938773D01*
X156689235Y-52962571D01*
X156680970Y-52985671D01*
X156670480Y-53007849D01*
X156657867Y-53028893D01*
X156643253Y-53048598D01*
X156626777Y-53066777D01*
X156608598Y-53083253D01*
X156588893Y-53097867D01*
X156567849Y-53110480D01*
X156545671Y-53120970D01*
X156522571Y-53129235D01*
X156498773Y-53135196D01*
X156474504Y-53138796D01*
X156450000Y-53140000D01*
X154600000Y-53140000D01*
X154575496Y-53138796D01*
X154551227Y-53135196D01*
X154527429Y-53129235D01*
X154504329Y-53120970D01*
X154482151Y-53110480D01*
X154461107Y-53097867D01*
X154441402Y-53083253D01*
X154423223Y-53066777D01*
X154406747Y-53048598D01*
X154392133Y-53028893D01*
X154379520Y-53007849D01*
X154369030Y-52985671D01*
X154360765Y-52962571D01*
X154354804Y-52938773D01*
X154351204Y-52914504D01*
X154350000Y-52890000D01*
X154350000Y-52390000D01*
X154351204Y-52365496D01*
X154354804Y-52341227D01*
X154360765Y-52317429D01*
X154369030Y-52294329D01*
X154379520Y-52272151D01*
X154392133Y-52251107D01*
X154406747Y-52231402D01*
X154423223Y-52213223D01*
X154441402Y-52196747D01*
X154461107Y-52182133D01*
X154482151Y-52169520D01*
X154504329Y-52159030D01*
X154527429Y-52150765D01*
X154551227Y-52144804D01*
X154575496Y-52141204D01*
X154600000Y-52140000D01*
X156450000Y-52140000D01*
X156474504Y-52141204D01*
X156474504Y-52141204D01*
G37*
D31*
X155525000Y-52640000D03*
D18*
G36*
X151524504Y-52141204D02*
G01*
X151548773Y-52144804D01*
X151572571Y-52150765D01*
X151595671Y-52159030D01*
X151617849Y-52169520D01*
X151638893Y-52182133D01*
X151658598Y-52196747D01*
X151676777Y-52213223D01*
X151693253Y-52231402D01*
X151707867Y-52251107D01*
X151720480Y-52272151D01*
X151730970Y-52294329D01*
X151739235Y-52317429D01*
X151745196Y-52341227D01*
X151748796Y-52365496D01*
X151750000Y-52390000D01*
X151750000Y-52890000D01*
X151748796Y-52914504D01*
X151745196Y-52938773D01*
X151739235Y-52962571D01*
X151730970Y-52985671D01*
X151720480Y-53007849D01*
X151707867Y-53028893D01*
X151693253Y-53048598D01*
X151676777Y-53066777D01*
X151658598Y-53083253D01*
X151638893Y-53097867D01*
X151617849Y-53110480D01*
X151595671Y-53120970D01*
X151572571Y-53129235D01*
X151548773Y-53135196D01*
X151524504Y-53138796D01*
X151500000Y-53140000D01*
X149650000Y-53140000D01*
X149625496Y-53138796D01*
X149601227Y-53135196D01*
X149577429Y-53129235D01*
X149554329Y-53120970D01*
X149532151Y-53110480D01*
X149511107Y-53097867D01*
X149491402Y-53083253D01*
X149473223Y-53066777D01*
X149456747Y-53048598D01*
X149442133Y-53028893D01*
X149429520Y-53007849D01*
X149419030Y-52985671D01*
X149410765Y-52962571D01*
X149404804Y-52938773D01*
X149401204Y-52914504D01*
X149400000Y-52890000D01*
X149400000Y-52390000D01*
X149401204Y-52365496D01*
X149404804Y-52341227D01*
X149410765Y-52317429D01*
X149419030Y-52294329D01*
X149429520Y-52272151D01*
X149442133Y-52251107D01*
X149456747Y-52231402D01*
X149473223Y-52213223D01*
X149491402Y-52196747D01*
X149511107Y-52182133D01*
X149532151Y-52169520D01*
X149554329Y-52159030D01*
X149577429Y-52150765D01*
X149601227Y-52144804D01*
X149625496Y-52141204D01*
X149650000Y-52140000D01*
X151500000Y-52140000D01*
X151524504Y-52141204D01*
X151524504Y-52141204D01*
G37*
D31*
X150575000Y-52640000D03*
D18*
G36*
X151524504Y-53411204D02*
G01*
X151548773Y-53414804D01*
X151572571Y-53420765D01*
X151595671Y-53429030D01*
X151617849Y-53439520D01*
X151638893Y-53452133D01*
X151658598Y-53466747D01*
X151676777Y-53483223D01*
X151693253Y-53501402D01*
X151707867Y-53521107D01*
X151720480Y-53542151D01*
X151730970Y-53564329D01*
X151739235Y-53587429D01*
X151745196Y-53611227D01*
X151748796Y-53635496D01*
X151750000Y-53660000D01*
X151750000Y-54160000D01*
X151748796Y-54184504D01*
X151745196Y-54208773D01*
X151739235Y-54232571D01*
X151730970Y-54255671D01*
X151720480Y-54277849D01*
X151707867Y-54298893D01*
X151693253Y-54318598D01*
X151676777Y-54336777D01*
X151658598Y-54353253D01*
X151638893Y-54367867D01*
X151617849Y-54380480D01*
X151595671Y-54390970D01*
X151572571Y-54399235D01*
X151548773Y-54405196D01*
X151524504Y-54408796D01*
X151500000Y-54410000D01*
X149650000Y-54410000D01*
X149625496Y-54408796D01*
X149601227Y-54405196D01*
X149577429Y-54399235D01*
X149554329Y-54390970D01*
X149532151Y-54380480D01*
X149511107Y-54367867D01*
X149491402Y-54353253D01*
X149473223Y-54336777D01*
X149456747Y-54318598D01*
X149442133Y-54298893D01*
X149429520Y-54277849D01*
X149419030Y-54255671D01*
X149410765Y-54232571D01*
X149404804Y-54208773D01*
X149401204Y-54184504D01*
X149400000Y-54160000D01*
X149400000Y-53660000D01*
X149401204Y-53635496D01*
X149404804Y-53611227D01*
X149410765Y-53587429D01*
X149419030Y-53564329D01*
X149429520Y-53542151D01*
X149442133Y-53521107D01*
X149456747Y-53501402D01*
X149473223Y-53483223D01*
X149491402Y-53466747D01*
X149511107Y-53452133D01*
X149532151Y-53439520D01*
X149554329Y-53429030D01*
X149577429Y-53420765D01*
X149601227Y-53414804D01*
X149625496Y-53411204D01*
X149650000Y-53410000D01*
X151500000Y-53410000D01*
X151524504Y-53411204D01*
X151524504Y-53411204D01*
G37*
D31*
X150575000Y-53910000D03*
D18*
G36*
X151524504Y-54681204D02*
G01*
X151548773Y-54684804D01*
X151572571Y-54690765D01*
X151595671Y-54699030D01*
X151617849Y-54709520D01*
X151638893Y-54722133D01*
X151658598Y-54736747D01*
X151676777Y-54753223D01*
X151693253Y-54771402D01*
X151707867Y-54791107D01*
X151720480Y-54812151D01*
X151730970Y-54834329D01*
X151739235Y-54857429D01*
X151745196Y-54881227D01*
X151748796Y-54905496D01*
X151750000Y-54930000D01*
X151750000Y-55430000D01*
X151748796Y-55454504D01*
X151745196Y-55478773D01*
X151739235Y-55502571D01*
X151730970Y-55525671D01*
X151720480Y-55547849D01*
X151707867Y-55568893D01*
X151693253Y-55588598D01*
X151676777Y-55606777D01*
X151658598Y-55623253D01*
X151638893Y-55637867D01*
X151617849Y-55650480D01*
X151595671Y-55660970D01*
X151572571Y-55669235D01*
X151548773Y-55675196D01*
X151524504Y-55678796D01*
X151500000Y-55680000D01*
X149650000Y-55680000D01*
X149625496Y-55678796D01*
X149601227Y-55675196D01*
X149577429Y-55669235D01*
X149554329Y-55660970D01*
X149532151Y-55650480D01*
X149511107Y-55637867D01*
X149491402Y-55623253D01*
X149473223Y-55606777D01*
X149456747Y-55588598D01*
X149442133Y-55568893D01*
X149429520Y-55547849D01*
X149419030Y-55525671D01*
X149410765Y-55502571D01*
X149404804Y-55478773D01*
X149401204Y-55454504D01*
X149400000Y-55430000D01*
X149400000Y-54930000D01*
X149401204Y-54905496D01*
X149404804Y-54881227D01*
X149410765Y-54857429D01*
X149419030Y-54834329D01*
X149429520Y-54812151D01*
X149442133Y-54791107D01*
X149456747Y-54771402D01*
X149473223Y-54753223D01*
X149491402Y-54736747D01*
X149511107Y-54722133D01*
X149532151Y-54709520D01*
X149554329Y-54699030D01*
X149577429Y-54690765D01*
X149601227Y-54684804D01*
X149625496Y-54681204D01*
X149650000Y-54680000D01*
X151500000Y-54680000D01*
X151524504Y-54681204D01*
X151524504Y-54681204D01*
G37*
D31*
X150575000Y-55180000D03*
D18*
G36*
X151524504Y-55951204D02*
G01*
X151548773Y-55954804D01*
X151572571Y-55960765D01*
X151595671Y-55969030D01*
X151617849Y-55979520D01*
X151638893Y-55992133D01*
X151658598Y-56006747D01*
X151676777Y-56023223D01*
X151693253Y-56041402D01*
X151707867Y-56061107D01*
X151720480Y-56082151D01*
X151730970Y-56104329D01*
X151739235Y-56127429D01*
X151745196Y-56151227D01*
X151748796Y-56175496D01*
X151750000Y-56200000D01*
X151750000Y-56700000D01*
X151748796Y-56724504D01*
X151745196Y-56748773D01*
X151739235Y-56772571D01*
X151730970Y-56795671D01*
X151720480Y-56817849D01*
X151707867Y-56838893D01*
X151693253Y-56858598D01*
X151676777Y-56876777D01*
X151658598Y-56893253D01*
X151638893Y-56907867D01*
X151617849Y-56920480D01*
X151595671Y-56930970D01*
X151572571Y-56939235D01*
X151548773Y-56945196D01*
X151524504Y-56948796D01*
X151500000Y-56950000D01*
X149650000Y-56950000D01*
X149625496Y-56948796D01*
X149601227Y-56945196D01*
X149577429Y-56939235D01*
X149554329Y-56930970D01*
X149532151Y-56920480D01*
X149511107Y-56907867D01*
X149491402Y-56893253D01*
X149473223Y-56876777D01*
X149456747Y-56858598D01*
X149442133Y-56838893D01*
X149429520Y-56817849D01*
X149419030Y-56795671D01*
X149410765Y-56772571D01*
X149404804Y-56748773D01*
X149401204Y-56724504D01*
X149400000Y-56700000D01*
X149400000Y-56200000D01*
X149401204Y-56175496D01*
X149404804Y-56151227D01*
X149410765Y-56127429D01*
X149419030Y-56104329D01*
X149429520Y-56082151D01*
X149442133Y-56061107D01*
X149456747Y-56041402D01*
X149473223Y-56023223D01*
X149491402Y-56006747D01*
X149511107Y-55992133D01*
X149532151Y-55979520D01*
X149554329Y-55969030D01*
X149577429Y-55960765D01*
X149601227Y-55954804D01*
X149625496Y-55951204D01*
X149650000Y-55950000D01*
X151500000Y-55950000D01*
X151524504Y-55951204D01*
X151524504Y-55951204D01*
G37*
D31*
X150575000Y-56450000D03*
D18*
G36*
X151524504Y-57221204D02*
G01*
X151548773Y-57224804D01*
X151572571Y-57230765D01*
X151595671Y-57239030D01*
X151617849Y-57249520D01*
X151638893Y-57262133D01*
X151658598Y-57276747D01*
X151676777Y-57293223D01*
X151693253Y-57311402D01*
X151707867Y-57331107D01*
X151720480Y-57352151D01*
X151730970Y-57374329D01*
X151739235Y-57397429D01*
X151745196Y-57421227D01*
X151748796Y-57445496D01*
X151750000Y-57470000D01*
X151750000Y-57970000D01*
X151748796Y-57994504D01*
X151745196Y-58018773D01*
X151739235Y-58042571D01*
X151730970Y-58065671D01*
X151720480Y-58087849D01*
X151707867Y-58108893D01*
X151693253Y-58128598D01*
X151676777Y-58146777D01*
X151658598Y-58163253D01*
X151638893Y-58177867D01*
X151617849Y-58190480D01*
X151595671Y-58200970D01*
X151572571Y-58209235D01*
X151548773Y-58215196D01*
X151524504Y-58218796D01*
X151500000Y-58220000D01*
X149650000Y-58220000D01*
X149625496Y-58218796D01*
X149601227Y-58215196D01*
X149577429Y-58209235D01*
X149554329Y-58200970D01*
X149532151Y-58190480D01*
X149511107Y-58177867D01*
X149491402Y-58163253D01*
X149473223Y-58146777D01*
X149456747Y-58128598D01*
X149442133Y-58108893D01*
X149429520Y-58087849D01*
X149419030Y-58065671D01*
X149410765Y-58042571D01*
X149404804Y-58018773D01*
X149401204Y-57994504D01*
X149400000Y-57970000D01*
X149400000Y-57470000D01*
X149401204Y-57445496D01*
X149404804Y-57421227D01*
X149410765Y-57397429D01*
X149419030Y-57374329D01*
X149429520Y-57352151D01*
X149442133Y-57331107D01*
X149456747Y-57311402D01*
X149473223Y-57293223D01*
X149491402Y-57276747D01*
X149511107Y-57262133D01*
X149532151Y-57249520D01*
X149554329Y-57239030D01*
X149577429Y-57230765D01*
X149601227Y-57224804D01*
X149625496Y-57221204D01*
X149650000Y-57220000D01*
X151500000Y-57220000D01*
X151524504Y-57221204D01*
X151524504Y-57221204D01*
G37*
D31*
X150575000Y-57720000D03*
D18*
G36*
X151524504Y-58491204D02*
G01*
X151548773Y-58494804D01*
X151572571Y-58500765D01*
X151595671Y-58509030D01*
X151617849Y-58519520D01*
X151638893Y-58532133D01*
X151658598Y-58546747D01*
X151676777Y-58563223D01*
X151693253Y-58581402D01*
X151707867Y-58601107D01*
X151720480Y-58622151D01*
X151730970Y-58644329D01*
X151739235Y-58667429D01*
X151745196Y-58691227D01*
X151748796Y-58715496D01*
X151750000Y-58740000D01*
X151750000Y-59240000D01*
X151748796Y-59264504D01*
X151745196Y-59288773D01*
X151739235Y-59312571D01*
X151730970Y-59335671D01*
X151720480Y-59357849D01*
X151707867Y-59378893D01*
X151693253Y-59398598D01*
X151676777Y-59416777D01*
X151658598Y-59433253D01*
X151638893Y-59447867D01*
X151617849Y-59460480D01*
X151595671Y-59470970D01*
X151572571Y-59479235D01*
X151548773Y-59485196D01*
X151524504Y-59488796D01*
X151500000Y-59490000D01*
X149650000Y-59490000D01*
X149625496Y-59488796D01*
X149601227Y-59485196D01*
X149577429Y-59479235D01*
X149554329Y-59470970D01*
X149532151Y-59460480D01*
X149511107Y-59447867D01*
X149491402Y-59433253D01*
X149473223Y-59416777D01*
X149456747Y-59398598D01*
X149442133Y-59378893D01*
X149429520Y-59357849D01*
X149419030Y-59335671D01*
X149410765Y-59312571D01*
X149404804Y-59288773D01*
X149401204Y-59264504D01*
X149400000Y-59240000D01*
X149400000Y-58740000D01*
X149401204Y-58715496D01*
X149404804Y-58691227D01*
X149410765Y-58667429D01*
X149419030Y-58644329D01*
X149429520Y-58622151D01*
X149442133Y-58601107D01*
X149456747Y-58581402D01*
X149473223Y-58563223D01*
X149491402Y-58546747D01*
X149511107Y-58532133D01*
X149532151Y-58519520D01*
X149554329Y-58509030D01*
X149577429Y-58500765D01*
X149601227Y-58494804D01*
X149625496Y-58491204D01*
X149650000Y-58490000D01*
X151500000Y-58490000D01*
X151524504Y-58491204D01*
X151524504Y-58491204D01*
G37*
D31*
X150575000Y-58990000D03*
D18*
G36*
X151524504Y-59761204D02*
G01*
X151548773Y-59764804D01*
X151572571Y-59770765D01*
X151595671Y-59779030D01*
X151617849Y-59789520D01*
X151638893Y-59802133D01*
X151658598Y-59816747D01*
X151676777Y-59833223D01*
X151693253Y-59851402D01*
X151707867Y-59871107D01*
X151720480Y-59892151D01*
X151730970Y-59914329D01*
X151739235Y-59937429D01*
X151745196Y-59961227D01*
X151748796Y-59985496D01*
X151750000Y-60010000D01*
X151750000Y-60510000D01*
X151748796Y-60534504D01*
X151745196Y-60558773D01*
X151739235Y-60582571D01*
X151730970Y-60605671D01*
X151720480Y-60627849D01*
X151707867Y-60648893D01*
X151693253Y-60668598D01*
X151676777Y-60686777D01*
X151658598Y-60703253D01*
X151638893Y-60717867D01*
X151617849Y-60730480D01*
X151595671Y-60740970D01*
X151572571Y-60749235D01*
X151548773Y-60755196D01*
X151524504Y-60758796D01*
X151500000Y-60760000D01*
X149650000Y-60760000D01*
X149625496Y-60758796D01*
X149601227Y-60755196D01*
X149577429Y-60749235D01*
X149554329Y-60740970D01*
X149532151Y-60730480D01*
X149511107Y-60717867D01*
X149491402Y-60703253D01*
X149473223Y-60686777D01*
X149456747Y-60668598D01*
X149442133Y-60648893D01*
X149429520Y-60627849D01*
X149419030Y-60605671D01*
X149410765Y-60582571D01*
X149404804Y-60558773D01*
X149401204Y-60534504D01*
X149400000Y-60510000D01*
X149400000Y-60010000D01*
X149401204Y-59985496D01*
X149404804Y-59961227D01*
X149410765Y-59937429D01*
X149419030Y-59914329D01*
X149429520Y-59892151D01*
X149442133Y-59871107D01*
X149456747Y-59851402D01*
X149473223Y-59833223D01*
X149491402Y-59816747D01*
X149511107Y-59802133D01*
X149532151Y-59789520D01*
X149554329Y-59779030D01*
X149577429Y-59770765D01*
X149601227Y-59764804D01*
X149625496Y-59761204D01*
X149650000Y-59760000D01*
X151500000Y-59760000D01*
X151524504Y-59761204D01*
X151524504Y-59761204D01*
G37*
D31*
X150575000Y-60260000D03*
M02*
