G04 #@! TF.GenerationSoftware,KiCad,Pcbnew,(5.1.4-0-10_14)*
G04 #@! TF.CreationDate,2021-06-29T18:28:10+12:00*
G04 #@! TF.ProjectId,chroma_luma_invert,6368726f-6d61-45f6-9c75-6d615f696e76,rev?*
G04 #@! TF.SameCoordinates,Original*
G04 #@! TF.FileFunction,Legend,Bot*
G04 #@! TF.FilePolarity,Positive*
%FSLAX46Y46*%
G04 Gerber Fmt 4.6, Leading zero omitted, Abs format (unit mm)*
G04 Created by KiCad (PCBNEW (5.1.4-0-10_14)) date 2021-06-29 18:28:10*
%MOMM*%
%LPD*%
G04 APERTURE LIST*
%ADD10C,0.600000*%
%ADD11C,0.150000*%
G04 APERTURE END LIST*
D10*
X164700000Y-126738095D02*
X160890476Y-126738095D01*
X160414285Y-121738095D02*
X159461904Y-121023809D01*
X158509523Y-121738095D01*
X153509523Y-121261904D02*
X150176190Y-126261904D01*
X150176190Y-121261904D02*
X153509523Y-126261904D01*
X148747619Y-121261904D02*
X145414285Y-126261904D01*
X145414285Y-121261904D02*
X148747619Y-126261904D01*
D11*
X163585714Y-128578571D02*
X163585714Y-129578571D01*
X164228571Y-128578571D02*
X164228571Y-129364285D01*
X164157142Y-129507142D01*
X164014285Y-129578571D01*
X163800000Y-129578571D01*
X163657142Y-129507142D01*
X163585714Y-129435714D01*
X162871428Y-128578571D02*
X162871428Y-129578571D01*
X162871428Y-128721428D02*
X162800000Y-128650000D01*
X162657142Y-128578571D01*
X162442857Y-128578571D01*
X162300000Y-128650000D01*
X162228571Y-128792857D01*
X162228571Y-129578571D01*
X160871428Y-129578571D02*
X160871428Y-128078571D01*
X160871428Y-129507142D02*
X161014285Y-129578571D01*
X161300000Y-129578571D01*
X161442857Y-129507142D01*
X161514285Y-129435714D01*
X161585714Y-129292857D01*
X161585714Y-128864285D01*
X161514285Y-128721428D01*
X161442857Y-128650000D01*
X161300000Y-128578571D01*
X161014285Y-128578571D01*
X160871428Y-128650000D01*
X159585714Y-129507142D02*
X159728571Y-129578571D01*
X160014285Y-129578571D01*
X160157142Y-129507142D01*
X160228571Y-129364285D01*
X160228571Y-128792857D01*
X160157142Y-128650000D01*
X160014285Y-128578571D01*
X159728571Y-128578571D01*
X159585714Y-128650000D01*
X159514285Y-128792857D01*
X159514285Y-128935714D01*
X160228571Y-129078571D01*
X158871428Y-129578571D02*
X158871428Y-128578571D01*
X158871428Y-128864285D02*
X158800000Y-128721428D01*
X158728571Y-128650000D01*
X158585714Y-128578571D01*
X158442857Y-128578571D01*
X158014285Y-129507142D02*
X157871428Y-129578571D01*
X157585714Y-129578571D01*
X157442857Y-129507142D01*
X157371428Y-129364285D01*
X157371428Y-129292857D01*
X157442857Y-129150000D01*
X157585714Y-129078571D01*
X157800000Y-129078571D01*
X157942857Y-129007142D01*
X158014285Y-128864285D01*
X158014285Y-128792857D01*
X157942857Y-128650000D01*
X157800000Y-128578571D01*
X157585714Y-128578571D01*
X157442857Y-128650000D01*
X156085714Y-129507142D02*
X156228571Y-129578571D01*
X156514285Y-129578571D01*
X156657142Y-129507142D01*
X156728571Y-129435714D01*
X156800000Y-129292857D01*
X156800000Y-128864285D01*
X156728571Y-128721428D01*
X156657142Y-128650000D01*
X156514285Y-128578571D01*
X156228571Y-128578571D01*
X156085714Y-128650000D01*
X155228571Y-129578571D02*
X155371428Y-129507142D01*
X155442857Y-129435714D01*
X155514285Y-129292857D01*
X155514285Y-128864285D01*
X155442857Y-128721428D01*
X155371428Y-128650000D01*
X155228571Y-128578571D01*
X155014285Y-128578571D01*
X154871428Y-128650000D01*
X154800000Y-128721428D01*
X154728571Y-128864285D01*
X154728571Y-129292857D01*
X154800000Y-129435714D01*
X154871428Y-129507142D01*
X155014285Y-129578571D01*
X155228571Y-129578571D01*
X154085714Y-129578571D02*
X154085714Y-128578571D01*
X154085714Y-128864285D02*
X154014285Y-128721428D01*
X153942857Y-128650000D01*
X153800000Y-128578571D01*
X153657142Y-128578571D01*
X152585714Y-129507142D02*
X152728571Y-129578571D01*
X153014285Y-129578571D01*
X153157142Y-129507142D01*
X153228571Y-129364285D01*
X153228571Y-128792857D01*
X153157142Y-128650000D01*
X153014285Y-128578571D01*
X152728571Y-128578571D01*
X152585714Y-128650000D01*
X152514285Y-128792857D01*
X152514285Y-128935714D01*
X153228571Y-129078571D01*
X151942857Y-129507142D02*
X151800000Y-129578571D01*
X151514285Y-129578571D01*
X151371428Y-129507142D01*
X151300000Y-129364285D01*
X151300000Y-129292857D01*
X151371428Y-129150000D01*
X151514285Y-129078571D01*
X151728571Y-129078571D01*
X151871428Y-129007142D01*
X151942857Y-128864285D01*
X151942857Y-128792857D01*
X151871428Y-128650000D01*
X151728571Y-128578571D01*
X151514285Y-128578571D01*
X151371428Y-128650000D01*
X150657142Y-129435714D02*
X150585714Y-129507142D01*
X150657142Y-129578571D01*
X150728571Y-129507142D01*
X150657142Y-129435714D01*
X150657142Y-129578571D01*
X150014285Y-129507142D02*
X149871428Y-129578571D01*
X149585714Y-129578571D01*
X149442857Y-129507142D01*
X149371428Y-129364285D01*
X149371428Y-129292857D01*
X149442857Y-129150000D01*
X149585714Y-129078571D01*
X149800000Y-129078571D01*
X149942857Y-129007142D01*
X150014285Y-128864285D01*
X150014285Y-128792857D01*
X149942857Y-128650000D01*
X149800000Y-128578571D01*
X149585714Y-128578571D01*
X149442857Y-128650000D01*
X148728571Y-129578571D02*
X148728571Y-128078571D01*
X148085714Y-129578571D02*
X148085714Y-128792857D01*
X148157142Y-128650000D01*
X148300000Y-128578571D01*
X148514285Y-128578571D01*
X148657142Y-128650000D01*
X148728571Y-128721428D01*
X147157142Y-129578571D02*
X147300000Y-129507142D01*
X147371428Y-129435714D01*
X147442857Y-129292857D01*
X147442857Y-128864285D01*
X147371428Y-128721428D01*
X147300000Y-128650000D01*
X147157142Y-128578571D01*
X146942857Y-128578571D01*
X146800000Y-128650000D01*
X146728571Y-128721428D01*
X146657142Y-128864285D01*
X146657142Y-129292857D01*
X146728571Y-129435714D01*
X146800000Y-129507142D01*
X146942857Y-129578571D01*
X147157142Y-129578571D01*
X146014285Y-128578571D02*
X146014285Y-130078571D01*
X146014285Y-128650000D02*
X145871428Y-128578571D01*
X145585714Y-128578571D01*
X145442857Y-128650000D01*
X145371428Y-128721428D01*
X145300000Y-128864285D01*
X145300000Y-129292857D01*
X145371428Y-129435714D01*
X145442857Y-129507142D01*
X145585714Y-129578571D01*
X145871428Y-129578571D01*
X146014285Y-129507142D01*
M02*
