G04 #@! TF.GenerationSoftware,KiCad,Pcbnew,(5.1.4-0-10_14)*
G04 #@! TF.CreationDate,2021-06-29T18:28:10+12:00*
G04 #@! TF.ProjectId,chroma_luma_invert,6368726f-6d61-45f6-9c75-6d615f696e76,rev?*
G04 #@! TF.SameCoordinates,Original*
G04 #@! TF.FileFunction,Legend,Top*
G04 #@! TF.FilePolarity,Positive*
%FSLAX46Y46*%
G04 Gerber Fmt 4.6, Leading zero omitted, Abs format (unit mm)*
G04 Created by KiCad (PCBNEW (5.1.4-0-10_14)) date 2021-06-29 18:28:10*
%MOMM*%
%LPD*%
G04 APERTURE LIST*
%ADD10C,0.300000*%
%ADD11C,0.350000*%
%ADD12C,0.150000*%
%ADD13C,0.250000*%
%ADD14C,0.120000*%
%ADD15C,0.400000*%
%ADD16C,0.127000*%
G04 APERTURE END LIST*
D10*
X153521428Y-64742857D02*
X153092857Y-63600000D01*
X152664285Y-64742857D01*
X153092857Y-65457142D02*
X153092857Y-66600000D01*
X152578571Y-58657142D02*
X153007142Y-59800000D01*
X153435714Y-58657142D01*
X153007142Y-57942857D02*
X153007142Y-56800000D01*
D11*
X187200000Y-59457142D02*
X187771428Y-59457142D01*
X188057142Y-59600000D01*
X188342857Y-59885714D01*
X188485714Y-60457142D01*
X188485714Y-61457142D01*
X188342857Y-62028571D01*
X188057142Y-62314285D01*
X187771428Y-62457142D01*
X187200000Y-62457142D01*
X186914285Y-62314285D01*
X186628571Y-62028571D01*
X186485714Y-61457142D01*
X186485714Y-60457142D01*
X186628571Y-59885714D01*
X186914285Y-59600000D01*
X187200000Y-59457142D01*
X189771428Y-59457142D02*
X189771428Y-61885714D01*
X189914285Y-62171428D01*
X190057142Y-62314285D01*
X190342857Y-62457142D01*
X190914285Y-62457142D01*
X191200000Y-62314285D01*
X191342857Y-62171428D01*
X191485714Y-61885714D01*
X191485714Y-59457142D01*
X192485714Y-59457142D02*
X194200000Y-59457142D01*
X193342857Y-62457142D02*
X193342857Y-59457142D01*
D12*
X113364166Y-36729761D02*
X113268928Y-36777380D01*
X113078452Y-36777380D01*
X112983214Y-36729761D01*
X112935595Y-36682142D01*
X112887976Y-36586904D01*
X112887976Y-36301190D01*
X112935595Y-36205952D01*
X112983214Y-36158333D01*
X113078452Y-36110714D01*
X113268928Y-36110714D01*
X113364166Y-36158333D01*
X113792738Y-36777380D02*
X113792738Y-35777380D01*
X114221309Y-36777380D02*
X114221309Y-36253571D01*
X114173690Y-36158333D01*
X114078452Y-36110714D01*
X113935595Y-36110714D01*
X113840357Y-36158333D01*
X113792738Y-36205952D01*
X114697500Y-36777380D02*
X114697500Y-36110714D01*
X114697500Y-36301190D02*
X114745119Y-36205952D01*
X114792738Y-36158333D01*
X114887976Y-36110714D01*
X114983214Y-36110714D01*
X115459404Y-36777380D02*
X115364166Y-36729761D01*
X115316547Y-36682142D01*
X115268928Y-36586904D01*
X115268928Y-36301190D01*
X115316547Y-36205952D01*
X115364166Y-36158333D01*
X115459404Y-36110714D01*
X115602261Y-36110714D01*
X115697500Y-36158333D01*
X115745119Y-36205952D01*
X115792738Y-36301190D01*
X115792738Y-36586904D01*
X115745119Y-36682142D01*
X115697500Y-36729761D01*
X115602261Y-36777380D01*
X115459404Y-36777380D01*
X116221309Y-36777380D02*
X116221309Y-36110714D01*
X116221309Y-36205952D02*
X116268928Y-36158333D01*
X116364166Y-36110714D01*
X116507023Y-36110714D01*
X116602261Y-36158333D01*
X116649880Y-36253571D01*
X116649880Y-36777380D01*
X116649880Y-36253571D02*
X116697500Y-36158333D01*
X116792738Y-36110714D01*
X116935595Y-36110714D01*
X117030833Y-36158333D01*
X117078452Y-36253571D01*
X117078452Y-36777380D01*
X117983214Y-36777380D02*
X117983214Y-36253571D01*
X117935595Y-36158333D01*
X117840357Y-36110714D01*
X117649880Y-36110714D01*
X117554642Y-36158333D01*
X117983214Y-36729761D02*
X117887976Y-36777380D01*
X117649880Y-36777380D01*
X117554642Y-36729761D01*
X117507023Y-36634523D01*
X117507023Y-36539285D01*
X117554642Y-36444047D01*
X117649880Y-36396428D01*
X117887976Y-36396428D01*
X117983214Y-36348809D01*
X118221309Y-36872619D02*
X118983214Y-36872619D01*
X119364166Y-36777380D02*
X119268928Y-36729761D01*
X119221309Y-36634523D01*
X119221309Y-35777380D01*
X120173690Y-36110714D02*
X120173690Y-36777380D01*
X119745119Y-36110714D02*
X119745119Y-36634523D01*
X119792738Y-36729761D01*
X119887976Y-36777380D01*
X120030833Y-36777380D01*
X120126071Y-36729761D01*
X120173690Y-36682142D01*
X120649880Y-36777380D02*
X120649880Y-36110714D01*
X120649880Y-36205952D02*
X120697500Y-36158333D01*
X120792738Y-36110714D01*
X120935595Y-36110714D01*
X121030833Y-36158333D01*
X121078452Y-36253571D01*
X121078452Y-36777380D01*
X121078452Y-36253571D02*
X121126071Y-36158333D01*
X121221309Y-36110714D01*
X121364166Y-36110714D01*
X121459404Y-36158333D01*
X121507023Y-36253571D01*
X121507023Y-36777380D01*
X122411785Y-36777380D02*
X122411785Y-36253571D01*
X122364166Y-36158333D01*
X122268928Y-36110714D01*
X122078452Y-36110714D01*
X121983214Y-36158333D01*
X122411785Y-36729761D02*
X122316547Y-36777380D01*
X122078452Y-36777380D01*
X121983214Y-36729761D01*
X121935595Y-36634523D01*
X121935595Y-36539285D01*
X121983214Y-36444047D01*
X122078452Y-36396428D01*
X122316547Y-36396428D01*
X122411785Y-36348809D01*
X122649880Y-36872619D02*
X123411785Y-36872619D01*
X123649880Y-36777380D02*
X123649880Y-36110714D01*
X123649880Y-35777380D02*
X123602261Y-35825000D01*
X123649880Y-35872619D01*
X123697500Y-35825000D01*
X123649880Y-35777380D01*
X123649880Y-35872619D01*
X124126071Y-36110714D02*
X124126071Y-36777380D01*
X124126071Y-36205952D02*
X124173690Y-36158333D01*
X124268928Y-36110714D01*
X124411785Y-36110714D01*
X124507023Y-36158333D01*
X124554642Y-36253571D01*
X124554642Y-36777380D01*
X124935595Y-36110714D02*
X125173690Y-36777380D01*
X125411785Y-36110714D01*
X126173690Y-36729761D02*
X126078452Y-36777380D01*
X125887976Y-36777380D01*
X125792738Y-36729761D01*
X125745119Y-36634523D01*
X125745119Y-36253571D01*
X125792738Y-36158333D01*
X125887976Y-36110714D01*
X126078452Y-36110714D01*
X126173690Y-36158333D01*
X126221309Y-36253571D01*
X126221309Y-36348809D01*
X125745119Y-36444047D01*
X126649880Y-36777380D02*
X126649880Y-36110714D01*
X126649880Y-36301190D02*
X126697500Y-36205952D01*
X126745119Y-36158333D01*
X126840357Y-36110714D01*
X126935595Y-36110714D01*
X127126071Y-36110714D02*
X127507023Y-36110714D01*
X127268928Y-35777380D02*
X127268928Y-36634523D01*
X127316547Y-36729761D01*
X127411785Y-36777380D01*
X127507023Y-36777380D01*
X112840357Y-37760714D02*
X113078452Y-38427380D01*
X113316547Y-37760714D01*
X113887976Y-37427380D02*
X113983214Y-37427380D01*
X114078452Y-37475000D01*
X114126071Y-37522619D01*
X114173690Y-37617857D01*
X114221309Y-37808333D01*
X114221309Y-38046428D01*
X114173690Y-38236904D01*
X114126071Y-38332142D01*
X114078452Y-38379761D01*
X113983214Y-38427380D01*
X113887976Y-38427380D01*
X113792738Y-38379761D01*
X113745119Y-38332142D01*
X113697500Y-38236904D01*
X113649880Y-38046428D01*
X113649880Y-37808333D01*
X113697500Y-37617857D01*
X113745119Y-37522619D01*
X113792738Y-37475000D01*
X113887976Y-37427380D01*
X114411785Y-38522619D02*
X115173690Y-38522619D01*
X115364166Y-37522619D02*
X115411785Y-37475000D01*
X115507023Y-37427380D01*
X115745119Y-37427380D01*
X115840357Y-37475000D01*
X115887976Y-37522619D01*
X115935595Y-37617857D01*
X115935595Y-37713095D01*
X115887976Y-37855952D01*
X115316547Y-38427380D01*
X115935595Y-38427380D01*
X112935595Y-40077380D02*
X112935595Y-39077380D01*
X112935595Y-39458333D02*
X113030833Y-39410714D01*
X113221309Y-39410714D01*
X113316547Y-39458333D01*
X113364166Y-39505952D01*
X113411785Y-39601190D01*
X113411785Y-39886904D01*
X113364166Y-39982142D01*
X113316547Y-40029761D01*
X113221309Y-40077380D01*
X113030833Y-40077380D01*
X112935595Y-40029761D01*
X114268928Y-40077380D02*
X114268928Y-39553571D01*
X114221309Y-39458333D01*
X114126071Y-39410714D01*
X113935595Y-39410714D01*
X113840357Y-39458333D01*
X114268928Y-40029761D02*
X114173690Y-40077380D01*
X113935595Y-40077380D01*
X113840357Y-40029761D01*
X113792738Y-39934523D01*
X113792738Y-39839285D01*
X113840357Y-39744047D01*
X113935595Y-39696428D01*
X114173690Y-39696428D01*
X114268928Y-39648809D01*
X114697500Y-40029761D02*
X114792738Y-40077380D01*
X114983214Y-40077380D01*
X115078452Y-40029761D01*
X115126071Y-39934523D01*
X115126071Y-39886904D01*
X115078452Y-39791666D01*
X114983214Y-39744047D01*
X114840357Y-39744047D01*
X114745119Y-39696428D01*
X114697500Y-39601190D01*
X114697500Y-39553571D01*
X114745119Y-39458333D01*
X114840357Y-39410714D01*
X114983214Y-39410714D01*
X115078452Y-39458333D01*
X115935595Y-40029761D02*
X115840357Y-40077380D01*
X115649880Y-40077380D01*
X115554642Y-40029761D01*
X115507023Y-39934523D01*
X115507023Y-39553571D01*
X115554642Y-39458333D01*
X115649880Y-39410714D01*
X115840357Y-39410714D01*
X115935595Y-39458333D01*
X115983214Y-39553571D01*
X115983214Y-39648809D01*
X115507023Y-39744047D01*
X116840357Y-40077380D02*
X116840357Y-39077380D01*
X116840357Y-40029761D02*
X116745119Y-40077380D01*
X116554642Y-40077380D01*
X116459404Y-40029761D01*
X116411785Y-39982142D01*
X116364166Y-39886904D01*
X116364166Y-39601190D01*
X116411785Y-39505952D01*
X116459404Y-39458333D01*
X116554642Y-39410714D01*
X116745119Y-39410714D01*
X116840357Y-39458333D01*
X118221309Y-40077380D02*
X118126071Y-40029761D01*
X118078452Y-39982142D01*
X118030833Y-39886904D01*
X118030833Y-39601190D01*
X118078452Y-39505952D01*
X118126071Y-39458333D01*
X118221309Y-39410714D01*
X118364166Y-39410714D01*
X118459404Y-39458333D01*
X118507023Y-39505952D01*
X118554642Y-39601190D01*
X118554642Y-39886904D01*
X118507023Y-39982142D01*
X118459404Y-40029761D01*
X118364166Y-40077380D01*
X118221309Y-40077380D01*
X118983214Y-39410714D02*
X118983214Y-40077380D01*
X118983214Y-39505952D02*
X119030833Y-39458333D01*
X119126071Y-39410714D01*
X119268928Y-39410714D01*
X119364166Y-39458333D01*
X119411785Y-39553571D01*
X119411785Y-40077380D01*
X121221309Y-40077380D02*
X120887976Y-39601190D01*
X120649880Y-40077380D02*
X120649880Y-39077380D01*
X121030833Y-39077380D01*
X121126071Y-39125000D01*
X121173690Y-39172619D01*
X121221309Y-39267857D01*
X121221309Y-39410714D01*
X121173690Y-39505952D01*
X121126071Y-39553571D01*
X121030833Y-39601190D01*
X120649880Y-39601190D01*
X121792738Y-40077380D02*
X121697500Y-40029761D01*
X121649880Y-39982142D01*
X121602261Y-39886904D01*
X121602261Y-39601190D01*
X121649880Y-39505952D01*
X121697500Y-39458333D01*
X121792738Y-39410714D01*
X121935595Y-39410714D01*
X122030833Y-39458333D01*
X122078452Y-39505952D01*
X122126071Y-39601190D01*
X122126071Y-39886904D01*
X122078452Y-39982142D01*
X122030833Y-40029761D01*
X121935595Y-40077380D01*
X121792738Y-40077380D01*
X122554642Y-40077380D02*
X122554642Y-39077380D01*
X122554642Y-39458333D02*
X122649880Y-39410714D01*
X122840357Y-39410714D01*
X122935595Y-39458333D01*
X122983214Y-39505952D01*
X123030833Y-39601190D01*
X123030833Y-39886904D01*
X122983214Y-39982142D01*
X122935595Y-40029761D01*
X122840357Y-40077380D01*
X122649880Y-40077380D01*
X122554642Y-40029761D01*
X124173690Y-40029761D02*
X124316547Y-40077380D01*
X124554642Y-40077380D01*
X124649880Y-40029761D01*
X124697500Y-39982142D01*
X124745119Y-39886904D01*
X124745119Y-39791666D01*
X124697500Y-39696428D01*
X124649880Y-39648809D01*
X124554642Y-39601190D01*
X124364166Y-39553571D01*
X124268928Y-39505952D01*
X124221309Y-39458333D01*
X124173690Y-39363095D01*
X124173690Y-39267857D01*
X124221309Y-39172619D01*
X124268928Y-39125000D01*
X124364166Y-39077380D01*
X124602261Y-39077380D01*
X124745119Y-39125000D01*
X125602261Y-40029761D02*
X125507023Y-40077380D01*
X125316547Y-40077380D01*
X125221309Y-40029761D01*
X125173690Y-39982142D01*
X125126071Y-39886904D01*
X125126071Y-39601190D01*
X125173690Y-39505952D01*
X125221309Y-39458333D01*
X125316547Y-39410714D01*
X125507023Y-39410714D01*
X125602261Y-39458333D01*
X126030833Y-40077380D02*
X126030833Y-39077380D01*
X126459404Y-40077380D02*
X126459404Y-39553571D01*
X126411785Y-39458333D01*
X126316547Y-39410714D01*
X126173690Y-39410714D01*
X126078452Y-39458333D01*
X126030833Y-39505952D01*
X127364166Y-40077380D02*
X127364166Y-39553571D01*
X127316547Y-39458333D01*
X127221309Y-39410714D01*
X127030833Y-39410714D01*
X126935595Y-39458333D01*
X127364166Y-40029761D02*
X127268928Y-40077380D01*
X127030833Y-40077380D01*
X126935595Y-40029761D01*
X126887976Y-39934523D01*
X126887976Y-39839285D01*
X126935595Y-39744047D01*
X127030833Y-39696428D01*
X127268928Y-39696428D01*
X127364166Y-39648809D01*
X127697500Y-39410714D02*
X128078452Y-39410714D01*
X127840357Y-40077380D02*
X127840357Y-39220238D01*
X127887976Y-39125000D01*
X127983214Y-39077380D01*
X128078452Y-39077380D01*
X128792738Y-40029761D02*
X128697500Y-40077380D01*
X128507023Y-40077380D01*
X128411785Y-40029761D01*
X128364166Y-39934523D01*
X128364166Y-39553571D01*
X128411785Y-39458333D01*
X128507023Y-39410714D01*
X128697500Y-39410714D01*
X128792738Y-39458333D01*
X128840357Y-39553571D01*
X128840357Y-39648809D01*
X128364166Y-39744047D01*
X129268928Y-40077380D02*
X129268928Y-39410714D01*
X129268928Y-39601190D02*
X129316547Y-39505952D01*
X129364166Y-39458333D01*
X129459404Y-39410714D01*
X129554642Y-39410714D01*
X131078452Y-40077380D02*
X131078452Y-39077380D01*
X131078452Y-40029761D02*
X130983214Y-40077380D01*
X130792738Y-40077380D01*
X130697500Y-40029761D01*
X130649880Y-39982142D01*
X130602261Y-39886904D01*
X130602261Y-39601190D01*
X130649880Y-39505952D01*
X130697500Y-39458333D01*
X130792738Y-39410714D01*
X130983214Y-39410714D01*
X131078452Y-39458333D01*
X131935595Y-40029761D02*
X131840357Y-40077380D01*
X131649880Y-40077380D01*
X131554642Y-40029761D01*
X131507023Y-39934523D01*
X131507023Y-39553571D01*
X131554642Y-39458333D01*
X131649880Y-39410714D01*
X131840357Y-39410714D01*
X131935595Y-39458333D01*
X131983214Y-39553571D01*
X131983214Y-39648809D01*
X131507023Y-39744047D01*
X132364166Y-40029761D02*
X132459404Y-40077380D01*
X132649880Y-40077380D01*
X132745119Y-40029761D01*
X132792738Y-39934523D01*
X132792738Y-39886904D01*
X132745119Y-39791666D01*
X132649880Y-39744047D01*
X132507023Y-39744047D01*
X132411785Y-39696428D01*
X132364166Y-39601190D01*
X132364166Y-39553571D01*
X132411785Y-39458333D01*
X132507023Y-39410714D01*
X132649880Y-39410714D01*
X132745119Y-39458333D01*
X133221309Y-40077380D02*
X133221309Y-39410714D01*
X133221309Y-39077380D02*
X133173690Y-39125000D01*
X133221309Y-39172619D01*
X133268928Y-39125000D01*
X133221309Y-39077380D01*
X133221309Y-39172619D01*
X134126071Y-39410714D02*
X134126071Y-40220238D01*
X134078452Y-40315476D01*
X134030833Y-40363095D01*
X133935595Y-40410714D01*
X133792738Y-40410714D01*
X133697500Y-40363095D01*
X134126071Y-40029761D02*
X134030833Y-40077380D01*
X133840357Y-40077380D01*
X133745119Y-40029761D01*
X133697500Y-39982142D01*
X133649880Y-39886904D01*
X133649880Y-39601190D01*
X133697500Y-39505952D01*
X133745119Y-39458333D01*
X133840357Y-39410714D01*
X134030833Y-39410714D01*
X134126071Y-39458333D01*
X134602261Y-39410714D02*
X134602261Y-40077380D01*
X134602261Y-39505952D02*
X134649880Y-39458333D01*
X134745119Y-39410714D01*
X134887976Y-39410714D01*
X134983214Y-39458333D01*
X135030833Y-39553571D01*
X135030833Y-40077380D01*
X113364166Y-41060714D02*
X113364166Y-41727380D01*
X112935595Y-41060714D02*
X112935595Y-41584523D01*
X112983214Y-41679761D01*
X113078452Y-41727380D01*
X113221309Y-41727380D01*
X113316547Y-41679761D01*
X113364166Y-41632142D01*
X113840357Y-41060714D02*
X113840357Y-42060714D01*
X113840357Y-41108333D02*
X113935595Y-41060714D01*
X114126071Y-41060714D01*
X114221309Y-41108333D01*
X114268928Y-41155952D01*
X114316547Y-41251190D01*
X114316547Y-41536904D01*
X114268928Y-41632142D01*
X114221309Y-41679761D01*
X114126071Y-41727380D01*
X113935595Y-41727380D01*
X113840357Y-41679761D01*
X115173690Y-41727380D02*
X115173690Y-40727380D01*
X115173690Y-41679761D02*
X115078452Y-41727380D01*
X114887976Y-41727380D01*
X114792738Y-41679761D01*
X114745119Y-41632142D01*
X114697500Y-41536904D01*
X114697500Y-41251190D01*
X114745119Y-41155952D01*
X114792738Y-41108333D01*
X114887976Y-41060714D01*
X115078452Y-41060714D01*
X115173690Y-41108333D01*
X116078452Y-41727380D02*
X116078452Y-41203571D01*
X116030833Y-41108333D01*
X115935595Y-41060714D01*
X115745119Y-41060714D01*
X115649880Y-41108333D01*
X116078452Y-41679761D02*
X115983214Y-41727380D01*
X115745119Y-41727380D01*
X115649880Y-41679761D01*
X115602261Y-41584523D01*
X115602261Y-41489285D01*
X115649880Y-41394047D01*
X115745119Y-41346428D01*
X115983214Y-41346428D01*
X116078452Y-41298809D01*
X116411785Y-41060714D02*
X116792738Y-41060714D01*
X116554642Y-40727380D02*
X116554642Y-41584523D01*
X116602261Y-41679761D01*
X116697500Y-41727380D01*
X116792738Y-41727380D01*
X117507023Y-41679761D02*
X117411785Y-41727380D01*
X117221309Y-41727380D01*
X117126071Y-41679761D01*
X117078452Y-41584523D01*
X117078452Y-41203571D01*
X117126071Y-41108333D01*
X117221309Y-41060714D01*
X117411785Y-41060714D01*
X117507023Y-41108333D01*
X117554642Y-41203571D01*
X117554642Y-41298809D01*
X117078452Y-41394047D01*
X118411785Y-41727380D02*
X118411785Y-40727380D01*
X118411785Y-41679761D02*
X118316547Y-41727380D01*
X118126071Y-41727380D01*
X118030833Y-41679761D01*
X117983214Y-41632142D01*
X117935595Y-41536904D01*
X117935595Y-41251190D01*
X117983214Y-41155952D01*
X118030833Y-41108333D01*
X118126071Y-41060714D01*
X118316547Y-41060714D01*
X118411785Y-41108333D01*
X119649880Y-41727380D02*
X119649880Y-40727380D01*
X119649880Y-41108333D02*
X119745119Y-41060714D01*
X119935595Y-41060714D01*
X120030833Y-41108333D01*
X120078452Y-41155952D01*
X120126071Y-41251190D01*
X120126071Y-41536904D01*
X120078452Y-41632142D01*
X120030833Y-41679761D01*
X119935595Y-41727380D01*
X119745119Y-41727380D01*
X119649880Y-41679761D01*
X120459404Y-41060714D02*
X120697500Y-41727380D01*
X120935595Y-41060714D02*
X120697500Y-41727380D01*
X120602261Y-41965476D01*
X120554642Y-42013095D01*
X120459404Y-42060714D01*
X122507023Y-41679761D02*
X122411785Y-41727380D01*
X122221309Y-41727380D01*
X122126071Y-41679761D01*
X122078452Y-41632142D01*
X122030833Y-41536904D01*
X122030833Y-41251190D01*
X122078452Y-41155952D01*
X122126071Y-41108333D01*
X122221309Y-41060714D01*
X122411785Y-41060714D01*
X122507023Y-41108333D01*
X122840357Y-41060714D02*
X123078452Y-41727380D01*
X123316547Y-41060714D02*
X123078452Y-41727380D01*
X122983214Y-41965476D01*
X122935595Y-42013095D01*
X122840357Y-42060714D01*
X123697500Y-41727380D02*
X123697500Y-40727380D01*
X123697500Y-41108333D02*
X123792738Y-41060714D01*
X123983214Y-41060714D01*
X124078452Y-41108333D01*
X124126071Y-41155952D01*
X124173690Y-41251190D01*
X124173690Y-41536904D01*
X124126071Y-41632142D01*
X124078452Y-41679761D01*
X123983214Y-41727380D01*
X123792738Y-41727380D01*
X123697500Y-41679761D01*
X124983214Y-41679761D02*
X124887976Y-41727380D01*
X124697500Y-41727380D01*
X124602261Y-41679761D01*
X124554642Y-41584523D01*
X124554642Y-41203571D01*
X124602261Y-41108333D01*
X124697500Y-41060714D01*
X124887976Y-41060714D01*
X124983214Y-41108333D01*
X125030833Y-41203571D01*
X125030833Y-41298809D01*
X124554642Y-41394047D01*
X125459404Y-41727380D02*
X125459404Y-41060714D01*
X125459404Y-41251190D02*
X125507023Y-41155952D01*
X125554642Y-41108333D01*
X125649880Y-41060714D01*
X125745119Y-41060714D01*
X126078452Y-41727380D02*
X126078452Y-40727380D01*
X126078452Y-41108333D02*
X126173690Y-41060714D01*
X126364166Y-41060714D01*
X126459404Y-41108333D01*
X126507023Y-41155952D01*
X126554642Y-41251190D01*
X126554642Y-41536904D01*
X126507023Y-41632142D01*
X126459404Y-41679761D01*
X126364166Y-41727380D01*
X126173690Y-41727380D01*
X126078452Y-41679761D01*
X127126071Y-41727380D02*
X127030833Y-41679761D01*
X126983214Y-41632142D01*
X126935595Y-41536904D01*
X126935595Y-41251190D01*
X126983214Y-41155952D01*
X127030833Y-41108333D01*
X127126071Y-41060714D01*
X127268928Y-41060714D01*
X127364166Y-41108333D01*
X127411785Y-41155952D01*
X127459404Y-41251190D01*
X127459404Y-41536904D01*
X127411785Y-41632142D01*
X127364166Y-41679761D01*
X127268928Y-41727380D01*
X127126071Y-41727380D01*
X127792738Y-41060714D02*
X128030833Y-41727380D01*
X128268928Y-41060714D02*
X128030833Y-41727380D01*
X127935595Y-41965476D01*
X127887976Y-42013095D01*
X127792738Y-42060714D01*
X129078452Y-40727380D02*
X128887976Y-40727380D01*
X128792738Y-40775000D01*
X128745119Y-40822619D01*
X128649880Y-40965476D01*
X128602261Y-41155952D01*
X128602261Y-41536904D01*
X128649880Y-41632142D01*
X128697500Y-41679761D01*
X128792738Y-41727380D01*
X128983214Y-41727380D01*
X129078452Y-41679761D01*
X129126071Y-41632142D01*
X129173690Y-41536904D01*
X129173690Y-41298809D01*
X129126071Y-41203571D01*
X129078452Y-41155952D01*
X128983214Y-41108333D01*
X128792738Y-41108333D01*
X128697500Y-41155952D01*
X128649880Y-41203571D01*
X128602261Y-41298809D01*
X130030833Y-40727380D02*
X129840357Y-40727380D01*
X129745119Y-40775000D01*
X129697500Y-40822619D01*
X129602261Y-40965476D01*
X129554642Y-41155952D01*
X129554642Y-41536904D01*
X129602261Y-41632142D01*
X129649880Y-41679761D01*
X129745119Y-41727380D01*
X129935595Y-41727380D01*
X130030833Y-41679761D01*
X130078452Y-41632142D01*
X130126071Y-41536904D01*
X130126071Y-41298809D01*
X130078452Y-41203571D01*
X130030833Y-41155952D01*
X129935595Y-41108333D01*
X129745119Y-41108333D01*
X129649880Y-41155952D01*
X129602261Y-41203571D01*
X129554642Y-41298809D01*
X130983214Y-40727380D02*
X130792738Y-40727380D01*
X130697500Y-40775000D01*
X130649880Y-40822619D01*
X130554642Y-40965476D01*
X130507023Y-41155952D01*
X130507023Y-41536904D01*
X130554642Y-41632142D01*
X130602261Y-41679761D01*
X130697500Y-41727380D01*
X130887976Y-41727380D01*
X130983214Y-41679761D01*
X131030833Y-41632142D01*
X131078452Y-41536904D01*
X131078452Y-41298809D01*
X131030833Y-41203571D01*
X130983214Y-41155952D01*
X130887976Y-41108333D01*
X130697500Y-41108333D01*
X130602261Y-41155952D01*
X130554642Y-41203571D01*
X130507023Y-41298809D01*
X164500000Y-129511904D02*
X164452380Y-129607142D01*
X164452380Y-129750000D01*
X164500000Y-129892857D01*
X164595238Y-129988095D01*
X164690476Y-130035714D01*
X164880952Y-130083333D01*
X165023809Y-130083333D01*
X165214285Y-130035714D01*
X165309523Y-129988095D01*
X165404761Y-129892857D01*
X165452380Y-129750000D01*
X165452380Y-129654761D01*
X165404761Y-129511904D01*
X165357142Y-129464285D01*
X165023809Y-129464285D01*
X165023809Y-129654761D01*
X165452380Y-129035714D02*
X164452380Y-129035714D01*
X165452380Y-128464285D01*
X164452380Y-128464285D01*
X165452380Y-127988095D02*
X164452380Y-127988095D01*
X164452380Y-127750000D01*
X164500000Y-127607142D01*
X164595238Y-127511904D01*
X164690476Y-127464285D01*
X164880952Y-127416666D01*
X165023809Y-127416666D01*
X165214285Y-127464285D01*
X165309523Y-127511904D01*
X165404761Y-127607142D01*
X165452380Y-127750000D01*
X165452380Y-127988095D01*
X166952380Y-129392857D02*
X166952380Y-129869047D01*
X167428571Y-129916666D01*
X167380952Y-129869047D01*
X167333333Y-129773809D01*
X167333333Y-129535714D01*
X167380952Y-129440476D01*
X167428571Y-129392857D01*
X167523809Y-129345238D01*
X167761904Y-129345238D01*
X167857142Y-129392857D01*
X167904761Y-129440476D01*
X167952380Y-129535714D01*
X167952380Y-129773809D01*
X167904761Y-129869047D01*
X167857142Y-129916666D01*
X167285714Y-129011904D02*
X167952380Y-128773809D01*
X167285714Y-128535714D01*
X161797619Y-130130952D02*
X161750000Y-130083333D01*
X161702380Y-129988095D01*
X161702380Y-129750000D01*
X161750000Y-129654761D01*
X161797619Y-129607142D01*
X161892857Y-129559523D01*
X161988095Y-129559523D01*
X162130952Y-129607142D01*
X162702380Y-130178571D01*
X162702380Y-129559523D01*
X162607142Y-129130952D02*
X162654761Y-129083333D01*
X162702380Y-129130952D01*
X162654761Y-129178571D01*
X162607142Y-129130952D01*
X162702380Y-129130952D01*
X161702380Y-128178571D02*
X161702380Y-128654761D01*
X162178571Y-128702380D01*
X162130952Y-128654761D01*
X162083333Y-128559523D01*
X162083333Y-128321428D01*
X162130952Y-128226190D01*
X162178571Y-128178571D01*
X162273809Y-128130952D01*
X162511904Y-128130952D01*
X162607142Y-128178571D01*
X162654761Y-128226190D01*
X162702380Y-128321428D01*
X162702380Y-128559523D01*
X162654761Y-128654761D01*
X162607142Y-128702380D01*
X162035714Y-127797619D02*
X162702380Y-127559523D01*
X162035714Y-127321428D01*
X157702380Y-130059523D02*
X157654761Y-130154761D01*
X157607142Y-130202380D01*
X157511904Y-130250000D01*
X157226190Y-130250000D01*
X157130952Y-130202380D01*
X157083333Y-130154761D01*
X157035714Y-130059523D01*
X157035714Y-129916666D01*
X157083333Y-129821428D01*
X157130952Y-129773809D01*
X157226190Y-129726190D01*
X157511904Y-129726190D01*
X157607142Y-129773809D01*
X157654761Y-129821428D01*
X157702380Y-129916666D01*
X157702380Y-130059523D01*
X157702380Y-129297619D02*
X157035714Y-129297619D01*
X157226190Y-129297619D02*
X157130952Y-129250000D01*
X157083333Y-129202380D01*
X157035714Y-129107142D01*
X157035714Y-129011904D01*
X157702380Y-128678571D02*
X157035714Y-128678571D01*
X156702380Y-128678571D02*
X156750000Y-128726190D01*
X156797619Y-128678571D01*
X156750000Y-128630952D01*
X156702380Y-128678571D01*
X156797619Y-128678571D01*
X157035714Y-127773809D02*
X157845238Y-127773809D01*
X157940476Y-127821428D01*
X157988095Y-127869047D01*
X158035714Y-127964285D01*
X158035714Y-128107142D01*
X157988095Y-128202380D01*
X157654761Y-127773809D02*
X157702380Y-127869047D01*
X157702380Y-128059523D01*
X157654761Y-128154761D01*
X157607142Y-128202380D01*
X157511904Y-128250000D01*
X157226190Y-128250000D01*
X157130952Y-128202380D01*
X157083333Y-128154761D01*
X157035714Y-128059523D01*
X157035714Y-127869047D01*
X157083333Y-127773809D01*
X157702380Y-127297619D02*
X157035714Y-127297619D01*
X156702380Y-127297619D02*
X156750000Y-127345238D01*
X156797619Y-127297619D01*
X156750000Y-127250000D01*
X156702380Y-127297619D01*
X156797619Y-127297619D01*
X157035714Y-126821428D02*
X157702380Y-126821428D01*
X157130952Y-126821428D02*
X157083333Y-126773809D01*
X157035714Y-126678571D01*
X157035714Y-126535714D01*
X157083333Y-126440476D01*
X157178571Y-126392857D01*
X157702380Y-126392857D01*
X157702380Y-125488095D02*
X157178571Y-125488095D01*
X157083333Y-125535714D01*
X157035714Y-125630952D01*
X157035714Y-125821428D01*
X157083333Y-125916666D01*
X157654761Y-125488095D02*
X157702380Y-125583333D01*
X157702380Y-125821428D01*
X157654761Y-125916666D01*
X157559523Y-125964285D01*
X157464285Y-125964285D01*
X157369047Y-125916666D01*
X157321428Y-125821428D01*
X157321428Y-125583333D01*
X157273809Y-125488095D01*
X157702380Y-124869047D02*
X157654761Y-124964285D01*
X157559523Y-125011904D01*
X156702380Y-125011904D01*
X157797619Y-124726190D02*
X157797619Y-123964285D01*
X157035714Y-123821428D02*
X157702380Y-123583333D01*
X157035714Y-123345238D01*
X157702380Y-122964285D02*
X157035714Y-122964285D01*
X156702380Y-122964285D02*
X156750000Y-123011904D01*
X156797619Y-122964285D01*
X156750000Y-122916666D01*
X156702380Y-122964285D01*
X156797619Y-122964285D01*
X157702380Y-122059523D02*
X156702380Y-122059523D01*
X157654761Y-122059523D02*
X157702380Y-122154761D01*
X157702380Y-122345238D01*
X157654761Y-122440476D01*
X157607142Y-122488095D01*
X157511904Y-122535714D01*
X157226190Y-122535714D01*
X157130952Y-122488095D01*
X157083333Y-122440476D01*
X157035714Y-122345238D01*
X157035714Y-122154761D01*
X157083333Y-122059523D01*
X157654761Y-121202380D02*
X157702380Y-121297619D01*
X157702380Y-121488095D01*
X157654761Y-121583333D01*
X157559523Y-121630952D01*
X157178571Y-121630952D01*
X157083333Y-121583333D01*
X157035714Y-121488095D01*
X157035714Y-121297619D01*
X157083333Y-121202380D01*
X157178571Y-121154761D01*
X157273809Y-121154761D01*
X157369047Y-121630952D01*
X157702380Y-120583333D02*
X157654761Y-120678571D01*
X157607142Y-120726190D01*
X157511904Y-120773809D01*
X157226190Y-120773809D01*
X157130952Y-120726190D01*
X157083333Y-120678571D01*
X157035714Y-120583333D01*
X157035714Y-120440476D01*
X157083333Y-120345238D01*
X157130952Y-120297619D01*
X157226190Y-120250000D01*
X157511904Y-120250000D01*
X157607142Y-120297619D01*
X157654761Y-120345238D01*
X157702380Y-120440476D01*
X157702380Y-120583333D01*
X155202380Y-129940476D02*
X154535714Y-129940476D01*
X154202380Y-129940476D02*
X154250000Y-129988095D01*
X154297619Y-129940476D01*
X154250000Y-129892857D01*
X154202380Y-129940476D01*
X154297619Y-129940476D01*
X154535714Y-129464285D02*
X155202380Y-129464285D01*
X154630952Y-129464285D02*
X154583333Y-129416666D01*
X154535714Y-129321428D01*
X154535714Y-129178571D01*
X154583333Y-129083333D01*
X154678571Y-129035714D01*
X155202380Y-129035714D01*
X154535714Y-128654761D02*
X155202380Y-128416666D01*
X154535714Y-128178571D01*
X155154761Y-127416666D02*
X155202380Y-127511904D01*
X155202380Y-127702380D01*
X155154761Y-127797619D01*
X155059523Y-127845238D01*
X154678571Y-127845238D01*
X154583333Y-127797619D01*
X154535714Y-127702380D01*
X154535714Y-127511904D01*
X154583333Y-127416666D01*
X154678571Y-127369047D01*
X154773809Y-127369047D01*
X154869047Y-127845238D01*
X155202380Y-126940476D02*
X154535714Y-126940476D01*
X154726190Y-126940476D02*
X154630952Y-126892857D01*
X154583333Y-126845238D01*
X154535714Y-126750000D01*
X154535714Y-126654761D01*
X154535714Y-126464285D02*
X154535714Y-126083333D01*
X154202380Y-126321428D02*
X155059523Y-126321428D01*
X155154761Y-126273809D01*
X155202380Y-126178571D01*
X155202380Y-126083333D01*
X155297619Y-125988095D02*
X155297619Y-125226190D01*
X154535714Y-125083333D02*
X155202380Y-124845238D01*
X154535714Y-124607142D01*
X155202380Y-124226190D02*
X154535714Y-124226190D01*
X154202380Y-124226190D02*
X154250000Y-124273809D01*
X154297619Y-124226190D01*
X154250000Y-124178571D01*
X154202380Y-124226190D01*
X154297619Y-124226190D01*
X155202380Y-123321428D02*
X154202380Y-123321428D01*
X155154761Y-123321428D02*
X155202380Y-123416666D01*
X155202380Y-123607142D01*
X155154761Y-123702380D01*
X155107142Y-123750000D01*
X155011904Y-123797619D01*
X154726190Y-123797619D01*
X154630952Y-123750000D01*
X154583333Y-123702380D01*
X154535714Y-123607142D01*
X154535714Y-123416666D01*
X154583333Y-123321428D01*
X155154761Y-122464285D02*
X155202380Y-122559523D01*
X155202380Y-122750000D01*
X155154761Y-122845238D01*
X155059523Y-122892857D01*
X154678571Y-122892857D01*
X154583333Y-122845238D01*
X154535714Y-122750000D01*
X154535714Y-122559523D01*
X154583333Y-122464285D01*
X154678571Y-122416666D01*
X154773809Y-122416666D01*
X154869047Y-122892857D01*
X155202380Y-121845238D02*
X155154761Y-121940476D01*
X155107142Y-121988095D01*
X155011904Y-122035714D01*
X154726190Y-122035714D01*
X154630952Y-121988095D01*
X154583333Y-121940476D01*
X154535714Y-121845238D01*
X154535714Y-121702380D01*
X154583333Y-121607142D01*
X154630952Y-121559523D01*
X154726190Y-121511904D01*
X155011904Y-121511904D01*
X155107142Y-121559523D01*
X155154761Y-121607142D01*
X155202380Y-121702380D01*
X155202380Y-121845238D01*
X152452380Y-129892857D02*
X151785714Y-129892857D01*
X151452380Y-129892857D02*
X151500000Y-129940476D01*
X151547619Y-129892857D01*
X151500000Y-129845238D01*
X151452380Y-129892857D01*
X151547619Y-129892857D01*
X151785714Y-129416666D02*
X152452380Y-129416666D01*
X151880952Y-129416666D02*
X151833333Y-129369047D01*
X151785714Y-129273809D01*
X151785714Y-129130952D01*
X151833333Y-129035714D01*
X151928571Y-128988095D01*
X152452380Y-128988095D01*
X151785714Y-128607142D02*
X152452380Y-128369047D01*
X151785714Y-128130952D01*
X152404761Y-127369047D02*
X152452380Y-127464285D01*
X152452380Y-127654761D01*
X152404761Y-127750000D01*
X152309523Y-127797619D01*
X151928571Y-127797619D01*
X151833333Y-127750000D01*
X151785714Y-127654761D01*
X151785714Y-127464285D01*
X151833333Y-127369047D01*
X151928571Y-127321428D01*
X152023809Y-127321428D01*
X152119047Y-127797619D01*
X152452380Y-126892857D02*
X151785714Y-126892857D01*
X151976190Y-126892857D02*
X151880952Y-126845238D01*
X151833333Y-126797619D01*
X151785714Y-126702380D01*
X151785714Y-126607142D01*
X151785714Y-126416666D02*
X151785714Y-126035714D01*
X151452380Y-126273809D02*
X152309523Y-126273809D01*
X152404761Y-126226190D01*
X152452380Y-126130952D01*
X152452380Y-126035714D01*
X152547619Y-125940476D02*
X152547619Y-125178571D01*
X152452380Y-124940476D02*
X151452380Y-124940476D01*
X151833333Y-124940476D02*
X151785714Y-124845238D01*
X151785714Y-124654761D01*
X151833333Y-124559523D01*
X151880952Y-124511904D01*
X151976190Y-124464285D01*
X152261904Y-124464285D01*
X152357142Y-124511904D01*
X152404761Y-124559523D01*
X152452380Y-124654761D01*
X152452380Y-124845238D01*
X152404761Y-124940476D01*
X151785714Y-123607142D02*
X152452380Y-123607142D01*
X151785714Y-124035714D02*
X152309523Y-124035714D01*
X152404761Y-123988095D01*
X152452380Y-123892857D01*
X152452380Y-123750000D01*
X152404761Y-123654761D01*
X152357142Y-123607142D01*
X152452380Y-123130952D02*
X151785714Y-123130952D01*
X151976190Y-123130952D02*
X151880952Y-123083333D01*
X151833333Y-123035714D01*
X151785714Y-122940476D01*
X151785714Y-122845238D01*
X152404761Y-122559523D02*
X152452380Y-122464285D01*
X152452380Y-122273809D01*
X152404761Y-122178571D01*
X152309523Y-122130952D01*
X152261904Y-122130952D01*
X152166666Y-122178571D01*
X152119047Y-122273809D01*
X152119047Y-122416666D01*
X152071428Y-122511904D01*
X151976190Y-122559523D01*
X151928571Y-122559523D01*
X151833333Y-122511904D01*
X151785714Y-122416666D01*
X151785714Y-122273809D01*
X151833333Y-122178571D01*
X151785714Y-121845238D02*
X151785714Y-121464285D01*
X151452380Y-121702380D02*
X152309523Y-121702380D01*
X152404761Y-121654761D01*
X152452380Y-121559523D01*
X152452380Y-121464285D01*
X149535714Y-130035714D02*
X150202380Y-129797619D01*
X149535714Y-129559523D01*
X150297619Y-129416666D02*
X150297619Y-128654761D01*
X150154761Y-128464285D02*
X150202380Y-128369047D01*
X150202380Y-128178571D01*
X150154761Y-128083333D01*
X150059523Y-128035714D01*
X150011904Y-128035714D01*
X149916666Y-128083333D01*
X149869047Y-128178571D01*
X149869047Y-128321428D01*
X149821428Y-128416666D01*
X149726190Y-128464285D01*
X149678571Y-128464285D01*
X149583333Y-128416666D01*
X149535714Y-128321428D01*
X149535714Y-128178571D01*
X149583333Y-128083333D01*
X149535714Y-127702380D02*
X150202380Y-127464285D01*
X149535714Y-127226190D02*
X150202380Y-127464285D01*
X150440476Y-127559523D01*
X150488095Y-127607142D01*
X150535714Y-127702380D01*
X149535714Y-126845238D02*
X150202380Y-126845238D01*
X149630952Y-126845238D02*
X149583333Y-126797619D01*
X149535714Y-126702380D01*
X149535714Y-126559523D01*
X149583333Y-126464285D01*
X149678571Y-126416666D01*
X150202380Y-126416666D01*
X150154761Y-125511904D02*
X150202380Y-125607142D01*
X150202380Y-125797619D01*
X150154761Y-125892857D01*
X150107142Y-125940476D01*
X150011904Y-125988095D01*
X149726190Y-125988095D01*
X149630952Y-125940476D01*
X149583333Y-125892857D01*
X149535714Y-125797619D01*
X149535714Y-125607142D01*
X149583333Y-125511904D01*
X147654761Y-129976190D02*
X147702380Y-129880952D01*
X147702380Y-129690476D01*
X147654761Y-129595238D01*
X147559523Y-129547619D01*
X147511904Y-129547619D01*
X147416666Y-129595238D01*
X147369047Y-129690476D01*
X147369047Y-129833333D01*
X147321428Y-129928571D01*
X147226190Y-129976190D01*
X147178571Y-129976190D01*
X147083333Y-129928571D01*
X147035714Y-129833333D01*
X147035714Y-129690476D01*
X147083333Y-129595238D01*
X147035714Y-129214285D02*
X147702380Y-128976190D01*
X147035714Y-128738095D02*
X147702380Y-128976190D01*
X147940476Y-129071428D01*
X147988095Y-129119047D01*
X148035714Y-129214285D01*
X147035714Y-128357142D02*
X147702380Y-128357142D01*
X147130952Y-128357142D02*
X147083333Y-128309523D01*
X147035714Y-128214285D01*
X147035714Y-128071428D01*
X147083333Y-127976190D01*
X147178571Y-127928571D01*
X147702380Y-127928571D01*
X147654761Y-127023809D02*
X147702380Y-127119047D01*
X147702380Y-127309523D01*
X147654761Y-127404761D01*
X147607142Y-127452380D01*
X147511904Y-127500000D01*
X147226190Y-127500000D01*
X147130952Y-127452380D01*
X147083333Y-127404761D01*
X147035714Y-127309523D01*
X147035714Y-127119047D01*
X147083333Y-127023809D01*
X144952380Y-129928571D02*
X143952380Y-129928571D01*
X144333333Y-129928571D02*
X144285714Y-129833333D01*
X144285714Y-129642857D01*
X144333333Y-129547619D01*
X144380952Y-129500000D01*
X144476190Y-129452380D01*
X144761904Y-129452380D01*
X144857142Y-129500000D01*
X144904761Y-129547619D01*
X144952380Y-129642857D01*
X144952380Y-129833333D01*
X144904761Y-129928571D01*
X144952380Y-128880952D02*
X144904761Y-128976190D01*
X144809523Y-129023809D01*
X143952380Y-129023809D01*
X144952380Y-128071428D02*
X144428571Y-128071428D01*
X144333333Y-128119047D01*
X144285714Y-128214285D01*
X144285714Y-128404761D01*
X144333333Y-128500000D01*
X144904761Y-128071428D02*
X144952380Y-128166666D01*
X144952380Y-128404761D01*
X144904761Y-128500000D01*
X144809523Y-128547619D01*
X144714285Y-128547619D01*
X144619047Y-128500000D01*
X144571428Y-128404761D01*
X144571428Y-128166666D01*
X144523809Y-128071428D01*
X144285714Y-127595238D02*
X144952380Y-127595238D01*
X144380952Y-127595238D02*
X144333333Y-127547619D01*
X144285714Y-127452380D01*
X144285714Y-127309523D01*
X144333333Y-127214285D01*
X144428571Y-127166666D01*
X144952380Y-127166666D01*
X144952380Y-126690476D02*
X143952380Y-126690476D01*
X144571428Y-126595238D02*
X144952380Y-126309523D01*
X144285714Y-126309523D02*
X144666666Y-126690476D01*
X144952380Y-125880952D02*
X144285714Y-125880952D01*
X143952380Y-125880952D02*
X144000000Y-125928571D01*
X144047619Y-125880952D01*
X144000000Y-125833333D01*
X143952380Y-125880952D01*
X144047619Y-125880952D01*
X144285714Y-125404761D02*
X144952380Y-125404761D01*
X144380952Y-125404761D02*
X144333333Y-125357142D01*
X144285714Y-125261904D01*
X144285714Y-125119047D01*
X144333333Y-125023809D01*
X144428571Y-124976190D01*
X144952380Y-124976190D01*
X144285714Y-124071428D02*
X145095238Y-124071428D01*
X145190476Y-124119047D01*
X145238095Y-124166666D01*
X145285714Y-124261904D01*
X145285714Y-124404761D01*
X145238095Y-124500000D01*
X144904761Y-124071428D02*
X144952380Y-124166666D01*
X144952380Y-124357142D01*
X144904761Y-124452380D01*
X144857142Y-124500000D01*
X144761904Y-124547619D01*
X144476190Y-124547619D01*
X144380952Y-124500000D01*
X144333333Y-124452380D01*
X144285714Y-124357142D01*
X144285714Y-124166666D01*
X144333333Y-124071428D01*
X142035714Y-130035714D02*
X142702380Y-129797619D01*
X142035714Y-129559523D01*
X142797619Y-129416666D02*
X142797619Y-128654761D01*
X142702380Y-128416666D02*
X141702380Y-128416666D01*
X142083333Y-128416666D02*
X142035714Y-128321428D01*
X142035714Y-128130952D01*
X142083333Y-128035714D01*
X142130952Y-127988095D01*
X142226190Y-127940476D01*
X142511904Y-127940476D01*
X142607142Y-127988095D01*
X142654761Y-128035714D01*
X142702380Y-128130952D01*
X142702380Y-128321428D01*
X142654761Y-128416666D01*
X142702380Y-127369047D02*
X142654761Y-127464285D01*
X142559523Y-127511904D01*
X141702380Y-127511904D01*
X142702380Y-126559523D02*
X142178571Y-126559523D01*
X142083333Y-126607142D01*
X142035714Y-126702380D01*
X142035714Y-126892857D01*
X142083333Y-126988095D01*
X142654761Y-126559523D02*
X142702380Y-126654761D01*
X142702380Y-126892857D01*
X142654761Y-126988095D01*
X142559523Y-127035714D01*
X142464285Y-127035714D01*
X142369047Y-126988095D01*
X142321428Y-126892857D01*
X142321428Y-126654761D01*
X142273809Y-126559523D01*
X142035714Y-126083333D02*
X142702380Y-126083333D01*
X142130952Y-126083333D02*
X142083333Y-126035714D01*
X142035714Y-125940476D01*
X142035714Y-125797619D01*
X142083333Y-125702380D01*
X142178571Y-125654761D01*
X142702380Y-125654761D01*
X142702380Y-125178571D02*
X141702380Y-125178571D01*
X142321428Y-125083333D02*
X142702380Y-124797619D01*
X142035714Y-124797619D02*
X142416666Y-125178571D01*
X142702380Y-124369047D02*
X142035714Y-124369047D01*
X141702380Y-124369047D02*
X141750000Y-124416666D01*
X141797619Y-124369047D01*
X141750000Y-124321428D01*
X141702380Y-124369047D01*
X141797619Y-124369047D01*
X142035714Y-123892857D02*
X142702380Y-123892857D01*
X142130952Y-123892857D02*
X142083333Y-123845238D01*
X142035714Y-123750000D01*
X142035714Y-123607142D01*
X142083333Y-123511904D01*
X142178571Y-123464285D01*
X142702380Y-123464285D01*
X142035714Y-122559523D02*
X142845238Y-122559523D01*
X142940476Y-122607142D01*
X142988095Y-122654761D01*
X143035714Y-122750000D01*
X143035714Y-122892857D01*
X142988095Y-122988095D01*
X142654761Y-122559523D02*
X142702380Y-122654761D01*
X142702380Y-122845238D01*
X142654761Y-122940476D01*
X142607142Y-122988095D01*
X142511904Y-123035714D01*
X142226190Y-123035714D01*
X142130952Y-122988095D01*
X142083333Y-122940476D01*
X142035714Y-122845238D01*
X142035714Y-122654761D01*
X142083333Y-122559523D01*
X139952380Y-130166666D02*
X138952380Y-130166666D01*
X139333333Y-130166666D02*
X139285714Y-130071428D01*
X139285714Y-129880952D01*
X139333333Y-129785714D01*
X139380952Y-129738095D01*
X139476190Y-129690476D01*
X139761904Y-129690476D01*
X139857142Y-129738095D01*
X139904761Y-129785714D01*
X139952380Y-129880952D01*
X139952380Y-130071428D01*
X139904761Y-130166666D01*
X139285714Y-128833333D02*
X139952380Y-128833333D01*
X139285714Y-129261904D02*
X139809523Y-129261904D01*
X139904761Y-129214285D01*
X139952380Y-129119047D01*
X139952380Y-128976190D01*
X139904761Y-128880952D01*
X139857142Y-128833333D01*
X139952380Y-128357142D02*
X139285714Y-128357142D01*
X139476190Y-128357142D02*
X139380952Y-128309523D01*
X139333333Y-128261904D01*
X139285714Y-128166666D01*
X139285714Y-128071428D01*
X139904761Y-127785714D02*
X139952380Y-127690476D01*
X139952380Y-127500000D01*
X139904761Y-127404761D01*
X139809523Y-127357142D01*
X139761904Y-127357142D01*
X139666666Y-127404761D01*
X139619047Y-127500000D01*
X139619047Y-127642857D01*
X139571428Y-127738095D01*
X139476190Y-127785714D01*
X139428571Y-127785714D01*
X139333333Y-127738095D01*
X139285714Y-127642857D01*
X139285714Y-127500000D01*
X139333333Y-127404761D01*
X139285714Y-127071428D02*
X139285714Y-126690476D01*
X138952380Y-126928571D02*
X139809523Y-126928571D01*
X139904761Y-126880952D01*
X139952380Y-126785714D01*
X139952380Y-126690476D01*
D13*
X133409523Y-85709523D02*
X133219047Y-85804761D01*
X132838095Y-85804761D01*
X132647619Y-85709523D01*
X132552380Y-85614285D01*
X132457142Y-85423809D01*
X132457142Y-84852380D01*
X132552380Y-84661904D01*
X132647619Y-84566666D01*
X132838095Y-84471428D01*
X133219047Y-84471428D01*
X133409523Y-84566666D01*
X134266666Y-85804761D02*
X134266666Y-83804761D01*
X135123809Y-85804761D02*
X135123809Y-84757142D01*
X135028571Y-84566666D01*
X134838095Y-84471428D01*
X134552380Y-84471428D01*
X134361904Y-84566666D01*
X134266666Y-84661904D01*
X136076190Y-85804761D02*
X136076190Y-84471428D01*
X136076190Y-84852380D02*
X136171428Y-84661904D01*
X136266666Y-84566666D01*
X136457142Y-84471428D01*
X136647619Y-84471428D01*
X137600000Y-85804761D02*
X137409523Y-85709523D01*
X137314285Y-85614285D01*
X137219047Y-85423809D01*
X137219047Y-84852380D01*
X137314285Y-84661904D01*
X137409523Y-84566666D01*
X137600000Y-84471428D01*
X137885714Y-84471428D01*
X138076190Y-84566666D01*
X138171428Y-84661904D01*
X138266666Y-84852380D01*
X138266666Y-85423809D01*
X138171428Y-85614285D01*
X138076190Y-85709523D01*
X137885714Y-85804761D01*
X137600000Y-85804761D01*
X139123809Y-85804761D02*
X139123809Y-84471428D01*
X139123809Y-84661904D02*
X139219047Y-84566666D01*
X139409523Y-84471428D01*
X139695238Y-84471428D01*
X139885714Y-84566666D01*
X139980952Y-84757142D01*
X139980952Y-85804761D01*
X139980952Y-84757142D02*
X140076190Y-84566666D01*
X140266666Y-84471428D01*
X140552380Y-84471428D01*
X140742857Y-84566666D01*
X140838095Y-84757142D01*
X140838095Y-85804761D01*
X142647619Y-85804761D02*
X142647619Y-84757142D01*
X142552380Y-84566666D01*
X142361904Y-84471428D01*
X141980952Y-84471428D01*
X141790476Y-84566666D01*
X142647619Y-85709523D02*
X142457142Y-85804761D01*
X141980952Y-85804761D01*
X141790476Y-85709523D01*
X141695238Y-85519047D01*
X141695238Y-85328571D01*
X141790476Y-85138095D01*
X141980952Y-85042857D01*
X142457142Y-85042857D01*
X142647619Y-84947619D01*
X178595238Y-85704761D02*
X178404761Y-85609523D01*
X178309523Y-85419047D01*
X178309523Y-83704761D01*
X180214285Y-84371428D02*
X180214285Y-85704761D01*
X179357142Y-84371428D02*
X179357142Y-85419047D01*
X179452380Y-85609523D01*
X179642857Y-85704761D01*
X179928571Y-85704761D01*
X180119047Y-85609523D01*
X180214285Y-85514285D01*
X181166666Y-85704761D02*
X181166666Y-84371428D01*
X181166666Y-84561904D02*
X181261904Y-84466666D01*
X181452380Y-84371428D01*
X181738095Y-84371428D01*
X181928571Y-84466666D01*
X182023809Y-84657142D01*
X182023809Y-85704761D01*
X182023809Y-84657142D02*
X182119047Y-84466666D01*
X182309523Y-84371428D01*
X182595238Y-84371428D01*
X182785714Y-84466666D01*
X182880952Y-84657142D01*
X182880952Y-85704761D01*
X184690476Y-85704761D02*
X184690476Y-84657142D01*
X184595238Y-84466666D01*
X184404761Y-84371428D01*
X184023809Y-84371428D01*
X183833333Y-84466666D01*
X184690476Y-85609523D02*
X184500000Y-85704761D01*
X184023809Y-85704761D01*
X183833333Y-85609523D01*
X183738095Y-85419047D01*
X183738095Y-85228571D01*
X183833333Y-85038095D01*
X184023809Y-84942857D01*
X184500000Y-84942857D01*
X184690476Y-84847619D01*
X158914285Y-46604761D02*
X157961904Y-46604761D01*
X157866666Y-47557142D01*
X157961904Y-47461904D01*
X158152380Y-47366666D01*
X158628571Y-47366666D01*
X158819047Y-47461904D01*
X158914285Y-47557142D01*
X159009523Y-47747619D01*
X159009523Y-48223809D01*
X158914285Y-48414285D01*
X158819047Y-48509523D01*
X158628571Y-48604761D01*
X158152380Y-48604761D01*
X157961904Y-48509523D01*
X157866666Y-48414285D01*
X159676190Y-47271428D02*
X160152380Y-48604761D01*
X160628571Y-47271428D01*
D11*
X116428571Y-62607142D02*
X116428571Y-59607142D01*
X117857142Y-62607142D02*
X117857142Y-59607142D01*
X119571428Y-62607142D01*
X119571428Y-59607142D01*
D14*
X150170000Y-88140000D02*
X150170000Y-89390000D01*
X160450000Y-88140000D02*
X150170000Y-88140000D01*
X160450000Y-92640000D02*
X160450000Y-88140000D01*
X150170000Y-92640000D02*
X160450000Y-92640000D01*
X150170000Y-91390000D02*
X150170000Y-92640000D01*
X150170000Y-89390000D02*
G75*
G02X150170000Y-91390000I0J-1000000D01*
G01*
X150930000Y-80545000D02*
X150930000Y-80230000D01*
X150930000Y-82970000D02*
X150930000Y-82655000D01*
X155870000Y-80545000D02*
X155870000Y-80230000D01*
X155870000Y-82970000D02*
X155870000Y-82655000D01*
X155870000Y-80230000D02*
X150930000Y-80230000D01*
X155870000Y-82970000D02*
X150930000Y-82970000D01*
X199870000Y-75955000D02*
X199870000Y-76270000D01*
X199870000Y-73530000D02*
X199870000Y-73845000D01*
X194930000Y-75955000D02*
X194930000Y-76270000D01*
X194930000Y-73530000D02*
X194930000Y-73845000D01*
X194930000Y-76270000D02*
X199870000Y-76270000D01*
X194930000Y-73530000D02*
X199870000Y-73530000D01*
X149155000Y-86330000D02*
X149470000Y-86330000D01*
X146730000Y-86330000D02*
X147045000Y-86330000D01*
X149155000Y-91270000D02*
X149470000Y-91270000D01*
X146730000Y-91270000D02*
X147045000Y-91270000D01*
X149470000Y-91270000D02*
X149470000Y-86330000D01*
X146730000Y-91270000D02*
X146730000Y-86330000D01*
X189545000Y-103470000D02*
X189230000Y-103470000D01*
X191970000Y-103470000D02*
X191655000Y-103470000D01*
X189545000Y-98530000D02*
X189230000Y-98530000D01*
X191970000Y-98530000D02*
X191655000Y-98530000D01*
X189230000Y-98530000D02*
X189230000Y-103470000D01*
X191970000Y-98530000D02*
X191970000Y-103470000D01*
X123045000Y-107070000D02*
X122730000Y-107070000D01*
X125470000Y-107070000D02*
X125155000Y-107070000D01*
X123045000Y-102130000D02*
X122730000Y-102130000D01*
X125470000Y-102130000D02*
X125155000Y-102130000D01*
X122730000Y-102130000D02*
X122730000Y-107070000D01*
X125470000Y-102130000D02*
X125470000Y-107070000D01*
X145755000Y-105630000D02*
X146070000Y-105630000D01*
X143330000Y-105630000D02*
X143645000Y-105630000D01*
X145755000Y-110570000D02*
X146070000Y-110570000D01*
X143330000Y-110570000D02*
X143645000Y-110570000D01*
X146070000Y-110570000D02*
X146070000Y-105630000D01*
X143330000Y-110570000D02*
X143330000Y-105630000D01*
X122970000Y-79055000D02*
X122970000Y-79370000D01*
X122970000Y-76630000D02*
X122970000Y-76945000D01*
X118030000Y-79055000D02*
X118030000Y-79370000D01*
X118030000Y-76630000D02*
X118030000Y-76945000D01*
X118030000Y-79370000D02*
X122970000Y-79370000D01*
X118030000Y-76630000D02*
X122970000Y-76630000D01*
X141064759Y-38246000D02*
X141064759Y-38876000D01*
X140749759Y-38561000D02*
X141379759Y-38561000D01*
X147491000Y-39998000D02*
X147491000Y-40802000D01*
X147451000Y-39767000D02*
X147451000Y-41033000D01*
X147411000Y-39598000D02*
X147411000Y-41202000D01*
X147371000Y-39460000D02*
X147371000Y-41340000D01*
X147331000Y-39341000D02*
X147331000Y-41459000D01*
X147291000Y-39235000D02*
X147291000Y-41565000D01*
X147251000Y-39138000D02*
X147251000Y-41662000D01*
X147211000Y-39050000D02*
X147211000Y-41750000D01*
X147171000Y-38968000D02*
X147171000Y-41832000D01*
X147131000Y-38891000D02*
X147131000Y-41909000D01*
X147091000Y-38819000D02*
X147091000Y-41981000D01*
X147051000Y-38750000D02*
X147051000Y-42050000D01*
X147011000Y-38686000D02*
X147011000Y-42114000D01*
X146971000Y-38624000D02*
X146971000Y-42176000D01*
X146931000Y-38566000D02*
X146931000Y-42234000D01*
X146891000Y-38510000D02*
X146891000Y-42290000D01*
X146851000Y-38456000D02*
X146851000Y-42344000D01*
X146811000Y-38405000D02*
X146811000Y-42395000D01*
X146771000Y-38356000D02*
X146771000Y-42444000D01*
X146731000Y-38308000D02*
X146731000Y-42492000D01*
X146691000Y-38263000D02*
X146691000Y-42537000D01*
X146651000Y-38218000D02*
X146651000Y-42582000D01*
X146611000Y-38176000D02*
X146611000Y-42624000D01*
X146571000Y-38135000D02*
X146571000Y-42665000D01*
X146531000Y-41440000D02*
X146531000Y-42705000D01*
X146531000Y-38095000D02*
X146531000Y-39360000D01*
X146491000Y-41440000D02*
X146491000Y-42743000D01*
X146491000Y-38057000D02*
X146491000Y-39360000D01*
X146451000Y-41440000D02*
X146451000Y-42780000D01*
X146451000Y-38020000D02*
X146451000Y-39360000D01*
X146411000Y-41440000D02*
X146411000Y-42816000D01*
X146411000Y-37984000D02*
X146411000Y-39360000D01*
X146371000Y-41440000D02*
X146371000Y-42850000D01*
X146371000Y-37950000D02*
X146371000Y-39360000D01*
X146331000Y-41440000D02*
X146331000Y-42884000D01*
X146331000Y-37916000D02*
X146331000Y-39360000D01*
X146291000Y-41440000D02*
X146291000Y-42916000D01*
X146291000Y-37884000D02*
X146291000Y-39360000D01*
X146251000Y-41440000D02*
X146251000Y-42948000D01*
X146251000Y-37852000D02*
X146251000Y-39360000D01*
X146211000Y-41440000D02*
X146211000Y-42978000D01*
X146211000Y-37822000D02*
X146211000Y-39360000D01*
X146171000Y-41440000D02*
X146171000Y-43007000D01*
X146171000Y-37793000D02*
X146171000Y-39360000D01*
X146131000Y-41440000D02*
X146131000Y-43036000D01*
X146131000Y-37764000D02*
X146131000Y-39360000D01*
X146091000Y-41440000D02*
X146091000Y-43064000D01*
X146091000Y-37736000D02*
X146091000Y-39360000D01*
X146051000Y-41440000D02*
X146051000Y-43090000D01*
X146051000Y-37710000D02*
X146051000Y-39360000D01*
X146011000Y-41440000D02*
X146011000Y-43116000D01*
X146011000Y-37684000D02*
X146011000Y-39360000D01*
X145971000Y-41440000D02*
X145971000Y-43142000D01*
X145971000Y-37658000D02*
X145971000Y-39360000D01*
X145931000Y-41440000D02*
X145931000Y-43166000D01*
X145931000Y-37634000D02*
X145931000Y-39360000D01*
X145891000Y-41440000D02*
X145891000Y-43190000D01*
X145891000Y-37610000D02*
X145891000Y-39360000D01*
X145851000Y-41440000D02*
X145851000Y-43212000D01*
X145851000Y-37588000D02*
X145851000Y-39360000D01*
X145811000Y-41440000D02*
X145811000Y-43234000D01*
X145811000Y-37566000D02*
X145811000Y-39360000D01*
X145771000Y-41440000D02*
X145771000Y-43256000D01*
X145771000Y-37544000D02*
X145771000Y-39360000D01*
X145731000Y-41440000D02*
X145731000Y-43276000D01*
X145731000Y-37524000D02*
X145731000Y-39360000D01*
X145691000Y-41440000D02*
X145691000Y-43296000D01*
X145691000Y-37504000D02*
X145691000Y-39360000D01*
X145651000Y-41440000D02*
X145651000Y-43316000D01*
X145651000Y-37484000D02*
X145651000Y-39360000D01*
X145611000Y-41440000D02*
X145611000Y-43334000D01*
X145611000Y-37466000D02*
X145611000Y-39360000D01*
X145571000Y-41440000D02*
X145571000Y-43352000D01*
X145571000Y-37448000D02*
X145571000Y-39360000D01*
X145531000Y-41440000D02*
X145531000Y-43370000D01*
X145531000Y-37430000D02*
X145531000Y-39360000D01*
X145491000Y-41440000D02*
X145491000Y-43386000D01*
X145491000Y-37414000D02*
X145491000Y-39360000D01*
X145451000Y-41440000D02*
X145451000Y-43402000D01*
X145451000Y-37398000D02*
X145451000Y-39360000D01*
X145411000Y-41440000D02*
X145411000Y-43418000D01*
X145411000Y-37382000D02*
X145411000Y-39360000D01*
X145371000Y-41440000D02*
X145371000Y-43433000D01*
X145371000Y-37367000D02*
X145371000Y-39360000D01*
X145331000Y-41440000D02*
X145331000Y-43447000D01*
X145331000Y-37353000D02*
X145331000Y-39360000D01*
X145291000Y-41440000D02*
X145291000Y-43461000D01*
X145291000Y-37339000D02*
X145291000Y-39360000D01*
X145251000Y-41440000D02*
X145251000Y-43474000D01*
X145251000Y-37326000D02*
X145251000Y-39360000D01*
X145211000Y-41440000D02*
X145211000Y-43486000D01*
X145211000Y-37314000D02*
X145211000Y-39360000D01*
X145171000Y-41440000D02*
X145171000Y-43498000D01*
X145171000Y-37302000D02*
X145171000Y-39360000D01*
X145131000Y-41440000D02*
X145131000Y-43510000D01*
X145131000Y-37290000D02*
X145131000Y-39360000D01*
X145091000Y-41440000D02*
X145091000Y-43521000D01*
X145091000Y-37279000D02*
X145091000Y-39360000D01*
X145051000Y-41440000D02*
X145051000Y-43531000D01*
X145051000Y-37269000D02*
X145051000Y-39360000D01*
X145011000Y-41440000D02*
X145011000Y-43541000D01*
X145011000Y-37259000D02*
X145011000Y-39360000D01*
X144971000Y-41440000D02*
X144971000Y-43550000D01*
X144971000Y-37250000D02*
X144971000Y-39360000D01*
X144930000Y-41440000D02*
X144930000Y-43559000D01*
X144930000Y-37241000D02*
X144930000Y-39360000D01*
X144890000Y-41440000D02*
X144890000Y-43567000D01*
X144890000Y-37233000D02*
X144890000Y-39360000D01*
X144850000Y-41440000D02*
X144850000Y-43575000D01*
X144850000Y-37225000D02*
X144850000Y-39360000D01*
X144810000Y-41440000D02*
X144810000Y-43582000D01*
X144810000Y-37218000D02*
X144810000Y-39360000D01*
X144770000Y-41440000D02*
X144770000Y-43589000D01*
X144770000Y-37211000D02*
X144770000Y-39360000D01*
X144730000Y-41440000D02*
X144730000Y-43595000D01*
X144730000Y-37205000D02*
X144730000Y-39360000D01*
X144690000Y-41440000D02*
X144690000Y-43601000D01*
X144690000Y-37199000D02*
X144690000Y-39360000D01*
X144650000Y-41440000D02*
X144650000Y-43606000D01*
X144650000Y-37194000D02*
X144650000Y-39360000D01*
X144610000Y-41440000D02*
X144610000Y-43611000D01*
X144610000Y-37189000D02*
X144610000Y-39360000D01*
X144570000Y-41440000D02*
X144570000Y-43615000D01*
X144570000Y-37185000D02*
X144570000Y-39360000D01*
X144530000Y-41440000D02*
X144530000Y-43618000D01*
X144530000Y-37182000D02*
X144530000Y-39360000D01*
X144490000Y-41440000D02*
X144490000Y-43622000D01*
X144490000Y-37178000D02*
X144490000Y-39360000D01*
X144450000Y-37176000D02*
X144450000Y-43624000D01*
X144410000Y-37173000D02*
X144410000Y-43627000D01*
X144370000Y-37172000D02*
X144370000Y-43628000D01*
X144330000Y-37170000D02*
X144330000Y-43630000D01*
X144290000Y-37170000D02*
X144290000Y-43630000D01*
X144250000Y-37170000D02*
X144250000Y-43630000D01*
X147520000Y-40400000D02*
G75*
G03X147520000Y-40400000I-3270000J0D01*
G01*
X111130000Y-52220000D02*
X111130000Y-47280000D01*
X113870000Y-52220000D02*
X113870000Y-47280000D01*
X111130000Y-52220000D02*
X111445000Y-52220000D01*
X113555000Y-52220000D02*
X113870000Y-52220000D01*
X111130000Y-47280000D02*
X111445000Y-47280000D01*
X113555000Y-47280000D02*
X113870000Y-47280000D01*
X196120000Y-109780000D02*
X196120000Y-114720000D01*
X193380000Y-109780000D02*
X193380000Y-114720000D01*
X196120000Y-109780000D02*
X195805000Y-109780000D01*
X193695000Y-109780000D02*
X193380000Y-109780000D01*
X196120000Y-114720000D02*
X195805000Y-114720000D01*
X193695000Y-114720000D02*
X193380000Y-114720000D01*
X176945000Y-109470000D02*
X176630000Y-109470000D01*
X179370000Y-109470000D02*
X179055000Y-109470000D01*
X176945000Y-104530000D02*
X176630000Y-104530000D01*
X179370000Y-104530000D02*
X179055000Y-104530000D01*
X176630000Y-104530000D02*
X176630000Y-109470000D01*
X179370000Y-104530000D02*
X179370000Y-109470000D01*
X167970000Y-100870000D02*
X163030000Y-100870000D01*
X167970000Y-98130000D02*
X163030000Y-98130000D01*
X167970000Y-100870000D02*
X167970000Y-100555000D01*
X167970000Y-98445000D02*
X167970000Y-98130000D01*
X163030000Y-100870000D02*
X163030000Y-100555000D01*
X163030000Y-98445000D02*
X163030000Y-98130000D01*
X107195000Y-86970000D02*
X106880000Y-86970000D01*
X109620000Y-86970000D02*
X109305000Y-86970000D01*
X107195000Y-82030000D02*
X106880000Y-82030000D01*
X109620000Y-82030000D02*
X109305000Y-82030000D01*
X106880000Y-82030000D02*
X106880000Y-86970000D01*
X109620000Y-82030000D02*
X109620000Y-86970000D01*
X129120000Y-113530000D02*
X129120000Y-118470000D01*
X126380000Y-113530000D02*
X126380000Y-118470000D01*
X129120000Y-113530000D02*
X128805000Y-113530000D01*
X126695000Y-113530000D02*
X126380000Y-113530000D01*
X129120000Y-118470000D02*
X128805000Y-118470000D01*
X126695000Y-118470000D02*
X126380000Y-118470000D01*
X109445000Y-112720000D02*
X109130000Y-112720000D01*
X111870000Y-112720000D02*
X111555000Y-112720000D01*
X109445000Y-107780000D02*
X109130000Y-107780000D01*
X111870000Y-107780000D02*
X111555000Y-107780000D01*
X109130000Y-107780000D02*
X109130000Y-112720000D01*
X111870000Y-107780000D02*
X111870000Y-112720000D01*
X120660000Y-54160000D02*
X120530000Y-54160000D01*
X120530000Y-54160000D02*
X120530000Y-48720000D01*
X120530000Y-48720000D02*
X120660000Y-48720000D01*
X123340000Y-54160000D02*
X123470000Y-54160000D01*
X123470000Y-54160000D02*
X123470000Y-48720000D01*
X123470000Y-48720000D02*
X123340000Y-48720000D01*
X120530000Y-53260000D02*
X123470000Y-53260000D01*
X120530000Y-53140000D02*
X123470000Y-53140000D01*
X120530000Y-53380000D02*
X123470000Y-53380000D01*
X158750000Y-46100000D02*
X159800000Y-46100000D01*
X159800000Y-45050000D02*
X159800000Y-46100000D01*
X150400000Y-40000000D02*
X150400000Y-31200000D01*
X150400000Y-31200000D02*
X159600000Y-31200000D01*
X153100000Y-45900000D02*
X150400000Y-45900000D01*
X150400000Y-45900000D02*
X150400000Y-44000000D01*
X159600000Y-31200000D02*
X159600000Y-45900000D01*
X159600000Y-45900000D02*
X157000000Y-45900000D01*
X138230000Y-131170000D02*
X138230000Y-133830000D01*
X166230000Y-131170000D02*
X138230000Y-131170000D01*
X166230000Y-133830000D02*
X138230000Y-133830000D01*
X166230000Y-131170000D02*
X166230000Y-133830000D01*
X167500000Y-131170000D02*
X168830000Y-131170000D01*
X168830000Y-131170000D02*
X168830000Y-132500000D01*
X183250000Y-90250000D02*
X183250000Y-93500000D01*
X183250000Y-93500000D02*
X170250000Y-93500000D01*
X170250000Y-93500000D02*
X170250000Y-86750000D01*
X170250000Y-86750000D02*
X183250000Y-86750000D01*
X183250000Y-86750000D02*
X183250000Y-90250000D01*
X138000000Y-86250000D02*
X138000000Y-89750000D01*
X125000000Y-86250000D02*
X138000000Y-86250000D01*
X125000000Y-93000000D02*
X125000000Y-86250000D01*
X138000000Y-93000000D02*
X125000000Y-93000000D01*
X138000000Y-89750000D02*
X138000000Y-93000000D01*
X197010000Y-76570000D02*
G75*
G02X195010000Y-76570000I-1000000J0D01*
G01*
X195010000Y-76570000D02*
X193760000Y-76570000D01*
X193760000Y-76570000D02*
X193760000Y-97010000D01*
X193760000Y-97010000D02*
X198260000Y-97010000D01*
X198260000Y-97010000D02*
X198260000Y-76570000D01*
X198260000Y-76570000D02*
X197010000Y-76570000D01*
X180190000Y-35920000D02*
X180190000Y-46160000D01*
X196080000Y-35920000D02*
X196080000Y-46160000D01*
X196080000Y-35920000D02*
X180190000Y-35920000D01*
X196080000Y-46160000D02*
X180190000Y-46160000D01*
X180190000Y-38500000D02*
X177650000Y-38500000D01*
X180190000Y-41040000D02*
X177650000Y-41040000D01*
X180190000Y-43580000D02*
X177650000Y-43580000D01*
X188560000Y-105420000D02*
X187310000Y-105420000D01*
X188560000Y-125860000D02*
X188560000Y-105420000D01*
X184060000Y-125860000D02*
X188560000Y-125860000D01*
X184060000Y-105420000D02*
X184060000Y-125860000D01*
X185310000Y-105420000D02*
X184060000Y-105420000D01*
X187310000Y-105420000D02*
G75*
G02X185310000Y-105420000I-1000000J0D01*
G01*
X121310000Y-108920000D02*
X120060000Y-108920000D01*
X121310000Y-129360000D02*
X121310000Y-108920000D01*
X116810000Y-129360000D02*
X121310000Y-129360000D01*
X116810000Y-108920000D02*
X116810000Y-129360000D01*
X118060000Y-108920000D02*
X116810000Y-108920000D01*
X120060000Y-108920000D02*
G75*
G02X118060000Y-108920000I-1000000J0D01*
G01*
X147170000Y-108690000D02*
G75*
G02X147170000Y-110690000I0J-1000000D01*
G01*
X147170000Y-110690000D02*
X147170000Y-111940000D01*
X147170000Y-111940000D02*
X167610000Y-111940000D01*
X167610000Y-111940000D02*
X167610000Y-107440000D01*
X167610000Y-107440000D02*
X147170000Y-107440000D01*
X147170000Y-107440000D02*
X147170000Y-108690000D01*
X116810000Y-80920000D02*
G75*
G02X114810000Y-80920000I-1000000J0D01*
G01*
X114810000Y-80920000D02*
X113560000Y-80920000D01*
X113560000Y-80920000D02*
X113560000Y-101360000D01*
X113560000Y-101360000D02*
X118060000Y-101360000D01*
X118060000Y-101360000D02*
X118060000Y-80920000D01*
X118060000Y-80920000D02*
X116810000Y-80920000D01*
X142960000Y-82210000D02*
X142630000Y-82210000D01*
X142630000Y-82210000D02*
X142630000Y-75670000D01*
X142630000Y-75670000D02*
X142960000Y-75670000D01*
X145040000Y-82210000D02*
X145370000Y-82210000D01*
X145370000Y-82210000D02*
X145370000Y-75670000D01*
X145370000Y-75670000D02*
X145040000Y-75670000D01*
X202870000Y-52170000D02*
X202540000Y-52170000D01*
X202870000Y-58710000D02*
X202870000Y-52170000D01*
X202540000Y-58710000D02*
X202870000Y-58710000D01*
X200130000Y-52170000D02*
X200460000Y-52170000D01*
X200130000Y-58710000D02*
X200130000Y-52170000D01*
X200460000Y-58710000D02*
X200130000Y-58710000D01*
X140870000Y-75920000D02*
X140540000Y-75920000D01*
X140870000Y-82460000D02*
X140870000Y-75920000D01*
X140540000Y-82460000D02*
X140870000Y-82460000D01*
X138130000Y-75920000D02*
X138460000Y-75920000D01*
X138130000Y-82460000D02*
X138130000Y-75920000D01*
X138460000Y-82460000D02*
X138130000Y-82460000D01*
X142960000Y-71710000D02*
X142630000Y-71710000D01*
X142630000Y-71710000D02*
X142630000Y-65170000D01*
X142630000Y-65170000D02*
X142960000Y-65170000D01*
X145040000Y-71710000D02*
X145370000Y-71710000D01*
X145370000Y-71710000D02*
X145370000Y-65170000D01*
X145370000Y-65170000D02*
X145040000Y-65170000D01*
X197790000Y-52290000D02*
X198120000Y-52290000D01*
X198120000Y-52290000D02*
X198120000Y-58830000D01*
X198120000Y-58830000D02*
X197790000Y-58830000D01*
X195710000Y-52290000D02*
X195380000Y-52290000D01*
X195380000Y-52290000D02*
X195380000Y-58830000D01*
X195380000Y-58830000D02*
X195710000Y-58830000D01*
X108540000Y-47790000D02*
X108870000Y-47790000D01*
X108870000Y-47790000D02*
X108870000Y-54330000D01*
X108870000Y-54330000D02*
X108540000Y-54330000D01*
X106460000Y-47790000D02*
X106130000Y-47790000D01*
X106130000Y-47790000D02*
X106130000Y-54330000D01*
X106130000Y-54330000D02*
X106460000Y-54330000D01*
X128040000Y-47790000D02*
X128370000Y-47790000D01*
X128370000Y-47790000D02*
X128370000Y-54330000D01*
X128370000Y-54330000D02*
X128040000Y-54330000D01*
X125960000Y-47790000D02*
X125630000Y-47790000D01*
X125630000Y-47790000D02*
X125630000Y-54330000D01*
X125630000Y-54330000D02*
X125960000Y-54330000D01*
X138130000Y-71580000D02*
X138460000Y-71580000D01*
X138130000Y-65040000D02*
X138130000Y-71580000D01*
X138460000Y-65040000D02*
X138130000Y-65040000D01*
X140870000Y-71580000D02*
X140540000Y-71580000D01*
X140870000Y-65040000D02*
X140870000Y-71580000D01*
X140540000Y-65040000D02*
X140870000Y-65040000D01*
X145040000Y-48540000D02*
X145370000Y-48540000D01*
X145370000Y-48540000D02*
X145370000Y-55080000D01*
X145370000Y-55080000D02*
X145040000Y-55080000D01*
X142960000Y-48540000D02*
X142630000Y-48540000D01*
X142630000Y-48540000D02*
X142630000Y-55080000D01*
X142630000Y-55080000D02*
X142960000Y-55080000D01*
X140540000Y-48540000D02*
X140870000Y-48540000D01*
X140870000Y-48540000D02*
X140870000Y-55080000D01*
X140870000Y-55080000D02*
X140540000Y-55080000D01*
X138460000Y-48540000D02*
X138130000Y-48540000D01*
X138130000Y-48540000D02*
X138130000Y-55080000D01*
X138130000Y-55080000D02*
X138460000Y-55080000D01*
X169870000Y-66170000D02*
X169540000Y-66170000D01*
X169870000Y-72710000D02*
X169870000Y-66170000D01*
X169540000Y-72710000D02*
X169870000Y-72710000D01*
X167130000Y-66170000D02*
X167460000Y-66170000D01*
X167130000Y-72710000D02*
X167130000Y-66170000D01*
X167460000Y-72710000D02*
X167130000Y-72710000D01*
X165370000Y-76420000D02*
X165040000Y-76420000D01*
X165370000Y-82960000D02*
X165370000Y-76420000D01*
X165040000Y-82960000D02*
X165370000Y-82960000D01*
X162630000Y-76420000D02*
X162960000Y-76420000D01*
X162630000Y-82960000D02*
X162630000Y-76420000D01*
X162960000Y-82960000D02*
X162630000Y-82960000D01*
X162960000Y-72460000D02*
X162630000Y-72460000D01*
X162630000Y-72460000D02*
X162630000Y-65920000D01*
X162630000Y-65920000D02*
X162960000Y-65920000D01*
X165040000Y-72460000D02*
X165370000Y-72460000D01*
X165370000Y-72460000D02*
X165370000Y-65920000D01*
X165370000Y-65920000D02*
X165040000Y-65920000D01*
X162630000Y-45580000D02*
X162960000Y-45580000D01*
X162630000Y-39040000D02*
X162630000Y-45580000D01*
X162960000Y-39040000D02*
X162630000Y-39040000D01*
X165370000Y-45580000D02*
X165040000Y-45580000D01*
X165370000Y-39040000D02*
X165370000Y-45580000D01*
X165040000Y-39040000D02*
X165370000Y-39040000D01*
X170040000Y-37040000D02*
X170370000Y-37040000D01*
X170370000Y-37040000D02*
X170370000Y-43580000D01*
X170370000Y-43580000D02*
X170040000Y-43580000D01*
X167960000Y-37040000D02*
X167630000Y-37040000D01*
X167630000Y-37040000D02*
X167630000Y-43580000D01*
X167630000Y-43580000D02*
X167960000Y-43580000D01*
X197630000Y-117080000D02*
X197960000Y-117080000D01*
X197630000Y-110540000D02*
X197630000Y-117080000D01*
X197960000Y-110540000D02*
X197630000Y-110540000D01*
X200370000Y-117080000D02*
X200040000Y-117080000D01*
X200370000Y-110540000D02*
X200370000Y-117080000D01*
X200040000Y-110540000D02*
X200370000Y-110540000D01*
X147460000Y-100540000D02*
X147460000Y-100870000D01*
X147460000Y-100870000D02*
X140920000Y-100870000D01*
X140920000Y-100870000D02*
X140920000Y-100540000D01*
X147460000Y-98460000D02*
X147460000Y-98130000D01*
X147460000Y-98130000D02*
X140920000Y-98130000D01*
X140920000Y-98130000D02*
X140920000Y-98460000D01*
X186880000Y-103070000D02*
X186880000Y-102740000D01*
X180340000Y-103070000D02*
X186880000Y-103070000D01*
X180340000Y-102740000D02*
X180340000Y-103070000D01*
X186880000Y-100330000D02*
X186880000Y-100660000D01*
X180340000Y-100330000D02*
X186880000Y-100330000D01*
X180340000Y-100660000D02*
X180340000Y-100330000D01*
X171790000Y-94710000D02*
X171790000Y-94380000D01*
X171790000Y-94380000D02*
X178330000Y-94380000D01*
X178330000Y-94380000D02*
X178330000Y-94710000D01*
X171790000Y-96790000D02*
X171790000Y-97120000D01*
X171790000Y-97120000D02*
X178330000Y-97120000D01*
X178330000Y-97120000D02*
X178330000Y-96790000D01*
X158830000Y-100870000D02*
X158830000Y-100540000D01*
X152290000Y-100870000D02*
X158830000Y-100870000D01*
X152290000Y-100540000D02*
X152290000Y-100870000D01*
X158830000Y-98130000D02*
X158830000Y-98460000D01*
X152290000Y-98130000D02*
X158830000Y-98130000D01*
X152290000Y-98460000D02*
X152290000Y-98130000D01*
X129540000Y-94710000D02*
X129540000Y-94380000D01*
X129540000Y-94380000D02*
X136080000Y-94380000D01*
X136080000Y-94380000D02*
X136080000Y-94710000D01*
X129540000Y-96790000D02*
X129540000Y-97120000D01*
X129540000Y-97120000D02*
X136080000Y-97120000D01*
X136080000Y-97120000D02*
X136080000Y-96790000D01*
X136080000Y-100870000D02*
X136080000Y-100540000D01*
X129540000Y-100870000D02*
X136080000Y-100870000D01*
X129540000Y-100540000D02*
X129540000Y-100870000D01*
X136080000Y-98130000D02*
X136080000Y-98460000D01*
X129540000Y-98130000D02*
X136080000Y-98130000D01*
X129540000Y-98460000D02*
X129540000Y-98130000D01*
X189580000Y-130620000D02*
X189580000Y-130290000D01*
X183040000Y-130620000D02*
X189580000Y-130620000D01*
X183040000Y-130290000D02*
X183040000Y-130620000D01*
X189580000Y-127880000D02*
X189580000Y-128210000D01*
X183040000Y-127880000D02*
X189580000Y-127880000D01*
X183040000Y-128210000D02*
X183040000Y-127880000D01*
X108290000Y-76960000D02*
X108290000Y-76630000D01*
X108290000Y-76630000D02*
X114830000Y-76630000D01*
X114830000Y-76630000D02*
X114830000Y-76960000D01*
X108290000Y-79040000D02*
X108290000Y-79370000D01*
X108290000Y-79370000D02*
X114830000Y-79370000D01*
X114830000Y-79370000D02*
X114830000Y-79040000D01*
X133040000Y-114040000D02*
X133370000Y-114040000D01*
X133370000Y-114040000D02*
X133370000Y-120580000D01*
X133370000Y-120580000D02*
X133040000Y-120580000D01*
X130960000Y-114040000D02*
X130630000Y-114040000D01*
X130630000Y-114040000D02*
X130630000Y-120580000D01*
X130630000Y-120580000D02*
X130960000Y-120580000D01*
X120580000Y-107670000D02*
X120580000Y-107340000D01*
X114040000Y-107670000D02*
X120580000Y-107670000D01*
X114040000Y-107340000D02*
X114040000Y-107670000D01*
X120580000Y-104930000D02*
X120580000Y-105260000D01*
X114040000Y-104930000D02*
X120580000Y-104930000D01*
X114040000Y-105260000D02*
X114040000Y-104930000D01*
X106880000Y-96830000D02*
X107210000Y-96830000D01*
X106880000Y-90290000D02*
X106880000Y-96830000D01*
X107210000Y-90290000D02*
X106880000Y-90290000D01*
X109620000Y-96830000D02*
X109290000Y-96830000D01*
X109620000Y-90290000D02*
X109620000Y-96830000D01*
X109290000Y-90290000D02*
X109620000Y-90290000D01*
X135070000Y-72730000D02*
X135070000Y-77670000D01*
X132330000Y-72730000D02*
X132330000Y-77670000D01*
X135070000Y-72730000D02*
X134755000Y-72730000D01*
X132645000Y-72730000D02*
X132330000Y-72730000D01*
X135070000Y-77670000D02*
X134755000Y-77670000D01*
X132645000Y-77670000D02*
X132330000Y-77670000D01*
D15*
X106300000Y-68000000D02*
G75*
G03X106300000Y-68000000I-200000J0D01*
G01*
D16*
X118850000Y-64865000D02*
X117384000Y-64865000D01*
X109616000Y-64865000D02*
X108150000Y-64865000D01*
X109616000Y-71135000D02*
X108150000Y-71135000D01*
X118850000Y-71135000D02*
X117384000Y-71135000D01*
X109617924Y-64862628D02*
G75*
G02X117384000Y-64865000I3882076J-3151223D01*
G01*
X117382076Y-71137372D02*
G75*
G02X109616000Y-71135000I-3882076J3151223D01*
G01*
X108150000Y-69765000D02*
X108150000Y-71135000D01*
X108150000Y-64865000D02*
X108150000Y-66235000D01*
X118850000Y-64865000D02*
X118850000Y-66235000D01*
X118850000Y-69765000D02*
X118850000Y-71135000D01*
X201850000Y-68765000D02*
X201850000Y-70135000D01*
X201850000Y-63865000D02*
X201850000Y-65235000D01*
X191150000Y-63865000D02*
X191150000Y-65235000D01*
X191150000Y-68765000D02*
X191150000Y-70135000D01*
X200382076Y-70137372D02*
G75*
G02X192616000Y-70135000I-3882076J3151223D01*
G01*
X192617924Y-63862628D02*
G75*
G02X200384000Y-63865000I3882076J-3151223D01*
G01*
X201850000Y-70135000D02*
X200384000Y-70135000D01*
X192616000Y-70135000D02*
X191150000Y-70135000D01*
X192616000Y-63865000D02*
X191150000Y-63865000D01*
X201850000Y-63865000D02*
X200384000Y-63865000D01*
D15*
X189300000Y-67000000D02*
G75*
G03X189300000Y-67000000I-200000J0D01*
G01*
D14*
X199750000Y-119750000D02*
X199750000Y-126750000D01*
X193000000Y-119750000D02*
X193000000Y-126750000D01*
X193000000Y-126750000D02*
X199750000Y-126750000D01*
X193000000Y-119750000D02*
X199750000Y-119750000D01*
X193000000Y-100750000D02*
X199750000Y-100750000D01*
X193000000Y-107750000D02*
X199750000Y-107750000D01*
X193000000Y-100750000D02*
X193000000Y-107750000D01*
X199750000Y-100750000D02*
X199750000Y-107750000D01*
X133000000Y-123250000D02*
X133000000Y-130250000D01*
X126250000Y-123250000D02*
X126250000Y-130250000D01*
X126250000Y-130250000D02*
X133000000Y-130250000D01*
X126250000Y-123250000D02*
X133000000Y-123250000D01*
X126250000Y-104500000D02*
X133000000Y-104500000D01*
X126250000Y-111500000D02*
X133000000Y-111500000D01*
X126250000Y-104500000D02*
X126250000Y-111500000D01*
X133000000Y-104500000D02*
X133000000Y-111500000D01*
X170300000Y-79000000D02*
X177300000Y-79000000D01*
X170300000Y-85750000D02*
X177300000Y-85750000D01*
X177300000Y-85750000D02*
X177300000Y-79000000D01*
X170300000Y-85750000D02*
X170300000Y-79000000D01*
X124900000Y-78800000D02*
X131900000Y-78800000D01*
X124900000Y-85550000D02*
X131900000Y-85550000D01*
X131900000Y-85550000D02*
X131900000Y-78800000D01*
X124900000Y-85550000D02*
X124900000Y-78800000D01*
X124900000Y-78450000D02*
X124900000Y-71700000D01*
X131900000Y-78450000D02*
X131900000Y-71700000D01*
X124900000Y-78450000D02*
X131900000Y-78450000D01*
X124900000Y-71700000D02*
X131900000Y-71700000D01*
X154260000Y-61670000D02*
G75*
G02X152260000Y-61670000I-1000000J0D01*
G01*
X152260000Y-61670000D02*
X151010000Y-61670000D01*
X151010000Y-61670000D02*
X151010000Y-79570000D01*
X151010000Y-79570000D02*
X155510000Y-79570000D01*
X155510000Y-79570000D02*
X155510000Y-61670000D01*
X155510000Y-61670000D02*
X154260000Y-61670000D01*
X153050000Y-52015000D02*
X151100000Y-52015000D01*
X153050000Y-52015000D02*
X155000000Y-52015000D01*
X153050000Y-60885000D02*
X151100000Y-60885000D01*
X153050000Y-60885000D02*
X156500000Y-60885000D01*
D12*
X154752380Y-91151904D02*
X155561904Y-91151904D01*
X155657142Y-91104285D01*
X155704761Y-91056666D01*
X155752380Y-90961428D01*
X155752380Y-90770952D01*
X155704761Y-90675714D01*
X155657142Y-90628095D01*
X155561904Y-90580476D01*
X154752380Y-90580476D01*
X154847619Y-90151904D02*
X154800000Y-90104285D01*
X154752380Y-90009047D01*
X154752380Y-89770952D01*
X154800000Y-89675714D01*
X154847619Y-89628095D01*
X154942857Y-89580476D01*
X155038095Y-89580476D01*
X155180952Y-89628095D01*
X155752380Y-90199523D01*
X155752380Y-89580476D01*
X152671901Y-82007142D02*
X152624282Y-82054761D01*
X152481425Y-82102380D01*
X152386187Y-82102380D01*
X152243330Y-82054761D01*
X152148092Y-81959523D01*
X152100473Y-81864285D01*
X152052854Y-81673809D01*
X152052854Y-81530952D01*
X152100473Y-81340476D01*
X152148092Y-81245238D01*
X152243330Y-81150000D01*
X152386187Y-81102380D01*
X152481425Y-81102380D01*
X152624282Y-81150000D01*
X152671901Y-81197619D01*
X153624282Y-82102380D02*
X153052854Y-82102380D01*
X153338568Y-82102380D02*
X153338568Y-81102380D01*
X153243330Y-81245238D01*
X153148092Y-81340476D01*
X153052854Y-81388095D01*
X154529044Y-81102380D02*
X154052854Y-81102380D01*
X154005235Y-81578571D01*
X154052854Y-81530952D01*
X154148092Y-81483333D01*
X154386187Y-81483333D01*
X154481425Y-81530952D01*
X154529044Y-81578571D01*
X154576663Y-81673809D01*
X154576663Y-81911904D01*
X154529044Y-82007142D01*
X154481425Y-82054761D01*
X154386187Y-82102380D01*
X154148092Y-82102380D01*
X154052854Y-82054761D01*
X154005235Y-82007142D01*
X196757142Y-75257142D02*
X196709523Y-75304761D01*
X196566666Y-75352380D01*
X196471428Y-75352380D01*
X196328571Y-75304761D01*
X196233333Y-75209523D01*
X196185714Y-75114285D01*
X196138095Y-74923809D01*
X196138095Y-74780952D01*
X196185714Y-74590476D01*
X196233333Y-74495238D01*
X196328571Y-74400000D01*
X196471428Y-74352380D01*
X196566666Y-74352380D01*
X196709523Y-74400000D01*
X196757142Y-74447619D01*
X197709523Y-75352380D02*
X197138095Y-75352380D01*
X197423809Y-75352380D02*
X197423809Y-74352380D01*
X197328571Y-74495238D01*
X197233333Y-74590476D01*
X197138095Y-74638095D01*
X198566666Y-74685714D02*
X198566666Y-75352380D01*
X198328571Y-74304761D02*
X198090476Y-75019047D01*
X198709523Y-75019047D01*
X148457142Y-89442857D02*
X148504761Y-89490476D01*
X148552380Y-89633333D01*
X148552380Y-89728571D01*
X148504761Y-89871428D01*
X148409523Y-89966666D01*
X148314285Y-90014285D01*
X148123809Y-90061904D01*
X147980952Y-90061904D01*
X147790476Y-90014285D01*
X147695238Y-89966666D01*
X147600000Y-89871428D01*
X147552380Y-89728571D01*
X147552380Y-89633333D01*
X147600000Y-89490476D01*
X147647619Y-89442857D01*
X148552380Y-88490476D02*
X148552380Y-89061904D01*
X148552380Y-88776190D02*
X147552380Y-88776190D01*
X147695238Y-88871428D01*
X147790476Y-88966666D01*
X147838095Y-89061904D01*
X147552380Y-88157142D02*
X147552380Y-87538095D01*
X147933333Y-87871428D01*
X147933333Y-87728571D01*
X147980952Y-87633333D01*
X148028571Y-87585714D01*
X148123809Y-87538095D01*
X148361904Y-87538095D01*
X148457142Y-87585714D01*
X148504761Y-87633333D01*
X148552380Y-87728571D01*
X148552380Y-88014285D01*
X148504761Y-88109523D01*
X148457142Y-88157142D01*
X190957142Y-101742857D02*
X191004761Y-101790476D01*
X191052380Y-101933333D01*
X191052380Y-102028571D01*
X191004761Y-102171428D01*
X190909523Y-102266666D01*
X190814285Y-102314285D01*
X190623809Y-102361904D01*
X190480952Y-102361904D01*
X190290476Y-102314285D01*
X190195238Y-102266666D01*
X190100000Y-102171428D01*
X190052380Y-102028571D01*
X190052380Y-101933333D01*
X190100000Y-101790476D01*
X190147619Y-101742857D01*
X191052380Y-100790476D02*
X191052380Y-101361904D01*
X191052380Y-101076190D02*
X190052380Y-101076190D01*
X190195238Y-101171428D01*
X190290476Y-101266666D01*
X190338095Y-101361904D01*
X190147619Y-100409523D02*
X190100000Y-100361904D01*
X190052380Y-100266666D01*
X190052380Y-100028571D01*
X190100000Y-99933333D01*
X190147619Y-99885714D01*
X190242857Y-99838095D01*
X190338095Y-99838095D01*
X190480952Y-99885714D01*
X191052380Y-100457142D01*
X191052380Y-99838095D01*
X124457142Y-105242857D02*
X124504761Y-105290476D01*
X124552380Y-105433333D01*
X124552380Y-105528571D01*
X124504761Y-105671428D01*
X124409523Y-105766666D01*
X124314285Y-105814285D01*
X124123809Y-105861904D01*
X123980952Y-105861904D01*
X123790476Y-105814285D01*
X123695238Y-105766666D01*
X123600000Y-105671428D01*
X123552380Y-105528571D01*
X123552380Y-105433333D01*
X123600000Y-105290476D01*
X123647619Y-105242857D01*
X124552380Y-104290476D02*
X124552380Y-104861904D01*
X124552380Y-104576190D02*
X123552380Y-104576190D01*
X123695238Y-104671428D01*
X123790476Y-104766666D01*
X123838095Y-104861904D01*
X124552380Y-103338095D02*
X124552380Y-103909523D01*
X124552380Y-103623809D02*
X123552380Y-103623809D01*
X123695238Y-103719047D01*
X123790476Y-103814285D01*
X123838095Y-103909523D01*
X145057142Y-108842857D02*
X145104761Y-108890476D01*
X145152380Y-109033333D01*
X145152380Y-109128571D01*
X145104761Y-109271428D01*
X145009523Y-109366666D01*
X144914285Y-109414285D01*
X144723809Y-109461904D01*
X144580952Y-109461904D01*
X144390476Y-109414285D01*
X144295238Y-109366666D01*
X144200000Y-109271428D01*
X144152380Y-109128571D01*
X144152380Y-109033333D01*
X144200000Y-108890476D01*
X144247619Y-108842857D01*
X145152380Y-107890476D02*
X145152380Y-108461904D01*
X145152380Y-108176190D02*
X144152380Y-108176190D01*
X144295238Y-108271428D01*
X144390476Y-108366666D01*
X144438095Y-108461904D01*
X144152380Y-107271428D02*
X144152380Y-107176190D01*
X144200000Y-107080952D01*
X144247619Y-107033333D01*
X144342857Y-106985714D01*
X144533333Y-106938095D01*
X144771428Y-106938095D01*
X144961904Y-106985714D01*
X145057142Y-107033333D01*
X145104761Y-107080952D01*
X145152380Y-107176190D01*
X145152380Y-107271428D01*
X145104761Y-107366666D01*
X145057142Y-107414285D01*
X144961904Y-107461904D01*
X144771428Y-107509523D01*
X144533333Y-107509523D01*
X144342857Y-107461904D01*
X144247619Y-107414285D01*
X144200000Y-107366666D01*
X144152380Y-107271428D01*
X120333333Y-78357142D02*
X120285714Y-78404761D01*
X120142857Y-78452380D01*
X120047619Y-78452380D01*
X119904761Y-78404761D01*
X119809523Y-78309523D01*
X119761904Y-78214285D01*
X119714285Y-78023809D01*
X119714285Y-77880952D01*
X119761904Y-77690476D01*
X119809523Y-77595238D01*
X119904761Y-77500000D01*
X120047619Y-77452380D01*
X120142857Y-77452380D01*
X120285714Y-77500000D01*
X120333333Y-77547619D01*
X120809523Y-78452380D02*
X121000000Y-78452380D01*
X121095238Y-78404761D01*
X121142857Y-78357142D01*
X121238095Y-78214285D01*
X121285714Y-78023809D01*
X121285714Y-77642857D01*
X121238095Y-77547619D01*
X121190476Y-77500000D01*
X121095238Y-77452380D01*
X120904761Y-77452380D01*
X120809523Y-77500000D01*
X120761904Y-77547619D01*
X120714285Y-77642857D01*
X120714285Y-77880952D01*
X120761904Y-77976190D01*
X120809523Y-78023809D01*
X120904761Y-78071428D01*
X121095238Y-78071428D01*
X121190476Y-78023809D01*
X121238095Y-77976190D01*
X121285714Y-77880952D01*
X144083333Y-36357142D02*
X144035714Y-36404761D01*
X143892857Y-36452380D01*
X143797619Y-36452380D01*
X143654761Y-36404761D01*
X143559523Y-36309523D01*
X143511904Y-36214285D01*
X143464285Y-36023809D01*
X143464285Y-35880952D01*
X143511904Y-35690476D01*
X143559523Y-35595238D01*
X143654761Y-35500000D01*
X143797619Y-35452380D01*
X143892857Y-35452380D01*
X144035714Y-35500000D01*
X144083333Y-35547619D01*
X144654761Y-35880952D02*
X144559523Y-35833333D01*
X144511904Y-35785714D01*
X144464285Y-35690476D01*
X144464285Y-35642857D01*
X144511904Y-35547619D01*
X144559523Y-35500000D01*
X144654761Y-35452380D01*
X144845238Y-35452380D01*
X144940476Y-35500000D01*
X144988095Y-35547619D01*
X145035714Y-35642857D01*
X145035714Y-35690476D01*
X144988095Y-35785714D01*
X144940476Y-35833333D01*
X144845238Y-35880952D01*
X144654761Y-35880952D01*
X144559523Y-35928571D01*
X144511904Y-35976190D01*
X144464285Y-36071428D01*
X144464285Y-36261904D01*
X144511904Y-36357142D01*
X144559523Y-36404761D01*
X144654761Y-36452380D01*
X144845238Y-36452380D01*
X144940476Y-36404761D01*
X144988095Y-36357142D01*
X145035714Y-36261904D01*
X145035714Y-36071428D01*
X144988095Y-35976190D01*
X144940476Y-35928571D01*
X144845238Y-35880952D01*
X112857142Y-49916666D02*
X112904761Y-49964285D01*
X112952380Y-50107142D01*
X112952380Y-50202380D01*
X112904761Y-50345238D01*
X112809523Y-50440476D01*
X112714285Y-50488095D01*
X112523809Y-50535714D01*
X112380952Y-50535714D01*
X112190476Y-50488095D01*
X112095238Y-50440476D01*
X112000000Y-50345238D01*
X111952380Y-50202380D01*
X111952380Y-50107142D01*
X112000000Y-49964285D01*
X112047619Y-49916666D01*
X112952380Y-48964285D02*
X112952380Y-49535714D01*
X112952380Y-49250000D02*
X111952380Y-49250000D01*
X112095238Y-49345238D01*
X112190476Y-49440476D01*
X112238095Y-49535714D01*
X195107142Y-112416666D02*
X195154761Y-112464285D01*
X195202380Y-112607142D01*
X195202380Y-112702380D01*
X195154761Y-112845238D01*
X195059523Y-112940476D01*
X194964285Y-112988095D01*
X194773809Y-113035714D01*
X194630952Y-113035714D01*
X194440476Y-112988095D01*
X194345238Y-112940476D01*
X194250000Y-112845238D01*
X194202380Y-112702380D01*
X194202380Y-112607142D01*
X194250000Y-112464285D01*
X194297619Y-112416666D01*
X194297619Y-112035714D02*
X194250000Y-111988095D01*
X194202380Y-111892857D01*
X194202380Y-111654761D01*
X194250000Y-111559523D01*
X194297619Y-111511904D01*
X194392857Y-111464285D01*
X194488095Y-111464285D01*
X194630952Y-111511904D01*
X195202380Y-112083333D01*
X195202380Y-111464285D01*
X178357142Y-107166666D02*
X178404761Y-107214285D01*
X178452380Y-107357142D01*
X178452380Y-107452380D01*
X178404761Y-107595238D01*
X178309523Y-107690476D01*
X178214285Y-107738095D01*
X178023809Y-107785714D01*
X177880952Y-107785714D01*
X177690476Y-107738095D01*
X177595238Y-107690476D01*
X177500000Y-107595238D01*
X177452380Y-107452380D01*
X177452380Y-107357142D01*
X177500000Y-107214285D01*
X177547619Y-107166666D01*
X177452380Y-106833333D02*
X177452380Y-106214285D01*
X177833333Y-106547619D01*
X177833333Y-106404761D01*
X177880952Y-106309523D01*
X177928571Y-106261904D01*
X178023809Y-106214285D01*
X178261904Y-106214285D01*
X178357142Y-106261904D01*
X178404761Y-106309523D01*
X178452380Y-106404761D01*
X178452380Y-106690476D01*
X178404761Y-106785714D01*
X178357142Y-106833333D01*
X165333333Y-99857142D02*
X165285714Y-99904761D01*
X165142857Y-99952380D01*
X165047619Y-99952380D01*
X164904761Y-99904761D01*
X164809523Y-99809523D01*
X164761904Y-99714285D01*
X164714285Y-99523809D01*
X164714285Y-99380952D01*
X164761904Y-99190476D01*
X164809523Y-99095238D01*
X164904761Y-99000000D01*
X165047619Y-98952380D01*
X165142857Y-98952380D01*
X165285714Y-99000000D01*
X165333333Y-99047619D01*
X166190476Y-99285714D02*
X166190476Y-99952380D01*
X165952380Y-98904761D02*
X165714285Y-99619047D01*
X166333333Y-99619047D01*
X108607142Y-84666666D02*
X108654761Y-84714285D01*
X108702380Y-84857142D01*
X108702380Y-84952380D01*
X108654761Y-85095238D01*
X108559523Y-85190476D01*
X108464285Y-85238095D01*
X108273809Y-85285714D01*
X108130952Y-85285714D01*
X107940476Y-85238095D01*
X107845238Y-85190476D01*
X107750000Y-85095238D01*
X107702380Y-84952380D01*
X107702380Y-84857142D01*
X107750000Y-84714285D01*
X107797619Y-84666666D01*
X107702380Y-83761904D02*
X107702380Y-84238095D01*
X108178571Y-84285714D01*
X108130952Y-84238095D01*
X108083333Y-84142857D01*
X108083333Y-83904761D01*
X108130952Y-83809523D01*
X108178571Y-83761904D01*
X108273809Y-83714285D01*
X108511904Y-83714285D01*
X108607142Y-83761904D01*
X108654761Y-83809523D01*
X108702380Y-83904761D01*
X108702380Y-84142857D01*
X108654761Y-84238095D01*
X108607142Y-84285714D01*
X128107142Y-116166666D02*
X128154761Y-116214285D01*
X128202380Y-116357142D01*
X128202380Y-116452380D01*
X128154761Y-116595238D01*
X128059523Y-116690476D01*
X127964285Y-116738095D01*
X127773809Y-116785714D01*
X127630952Y-116785714D01*
X127440476Y-116738095D01*
X127345238Y-116690476D01*
X127250000Y-116595238D01*
X127202380Y-116452380D01*
X127202380Y-116357142D01*
X127250000Y-116214285D01*
X127297619Y-116166666D01*
X127202380Y-115309523D02*
X127202380Y-115500000D01*
X127250000Y-115595238D01*
X127297619Y-115642857D01*
X127440476Y-115738095D01*
X127630952Y-115785714D01*
X128011904Y-115785714D01*
X128107142Y-115738095D01*
X128154761Y-115690476D01*
X128202380Y-115595238D01*
X128202380Y-115404761D01*
X128154761Y-115309523D01*
X128107142Y-115261904D01*
X128011904Y-115214285D01*
X127773809Y-115214285D01*
X127678571Y-115261904D01*
X127630952Y-115309523D01*
X127583333Y-115404761D01*
X127583333Y-115595238D01*
X127630952Y-115690476D01*
X127678571Y-115738095D01*
X127773809Y-115785714D01*
X110857142Y-110416666D02*
X110904761Y-110464285D01*
X110952380Y-110607142D01*
X110952380Y-110702380D01*
X110904761Y-110845238D01*
X110809523Y-110940476D01*
X110714285Y-110988095D01*
X110523809Y-111035714D01*
X110380952Y-111035714D01*
X110190476Y-110988095D01*
X110095238Y-110940476D01*
X110000000Y-110845238D01*
X109952380Y-110702380D01*
X109952380Y-110607142D01*
X110000000Y-110464285D01*
X110047619Y-110416666D01*
X109952380Y-110083333D02*
X109952380Y-109416666D01*
X110952380Y-109845238D01*
X122452380Y-51738095D02*
X121452380Y-51738095D01*
X121452380Y-51500000D01*
X121500000Y-51357142D01*
X121595238Y-51261904D01*
X121690476Y-51214285D01*
X121880952Y-51166666D01*
X122023809Y-51166666D01*
X122214285Y-51214285D01*
X122309523Y-51261904D01*
X122404761Y-51357142D01*
X122452380Y-51500000D01*
X122452380Y-51738095D01*
X122452380Y-50214285D02*
X122452380Y-50785714D01*
X122452380Y-50500000D02*
X121452380Y-50500000D01*
X121595238Y-50595238D01*
X121690476Y-50690476D01*
X121738095Y-50785714D01*
X120352380Y-55511904D02*
X119352380Y-55511904D01*
X120352380Y-54940476D02*
X119780952Y-55369047D01*
X119352380Y-54940476D02*
X119923809Y-55511904D01*
X157452380Y-42333333D02*
X158166666Y-42333333D01*
X158309523Y-42380952D01*
X158404761Y-42476190D01*
X158452380Y-42619047D01*
X158452380Y-42714285D01*
X157452380Y-41952380D02*
X157452380Y-41333333D01*
X157833333Y-41666666D01*
X157833333Y-41523809D01*
X157880952Y-41428571D01*
X157928571Y-41380952D01*
X158023809Y-41333333D01*
X158261904Y-41333333D01*
X158357142Y-41380952D01*
X158404761Y-41428571D01*
X158452380Y-41523809D01*
X158452380Y-41809523D01*
X158404761Y-41904761D01*
X158357142Y-41952380D01*
X169282380Y-132833333D02*
X169996666Y-132833333D01*
X170139523Y-132880952D01*
X170234761Y-132976190D01*
X170282380Y-133119047D01*
X170282380Y-133214285D01*
X169615714Y-131928571D02*
X170282380Y-131928571D01*
X169234761Y-132166666D02*
X169949047Y-132404761D01*
X169949047Y-131785714D01*
X175416666Y-88154761D02*
X175559523Y-88202380D01*
X175797619Y-88202380D01*
X175892857Y-88154761D01*
X175940476Y-88107142D01*
X175988095Y-88011904D01*
X175988095Y-87916666D01*
X175940476Y-87821428D01*
X175892857Y-87773809D01*
X175797619Y-87726190D01*
X175607142Y-87678571D01*
X175511904Y-87630952D01*
X175464285Y-87583333D01*
X175416666Y-87488095D01*
X175416666Y-87392857D01*
X175464285Y-87297619D01*
X175511904Y-87250000D01*
X175607142Y-87202380D01*
X175845238Y-87202380D01*
X175988095Y-87250000D01*
X176321428Y-87202380D02*
X176559523Y-88202380D01*
X176750000Y-87488095D01*
X176940476Y-88202380D01*
X177178571Y-87202380D01*
X178083333Y-88202380D02*
X177511904Y-88202380D01*
X177797619Y-88202380D02*
X177797619Y-87202380D01*
X177702380Y-87345238D01*
X177607142Y-87440476D01*
X177511904Y-87488095D01*
X130166666Y-87654761D02*
X130309523Y-87702380D01*
X130547619Y-87702380D01*
X130642857Y-87654761D01*
X130690476Y-87607142D01*
X130738095Y-87511904D01*
X130738095Y-87416666D01*
X130690476Y-87321428D01*
X130642857Y-87273809D01*
X130547619Y-87226190D01*
X130357142Y-87178571D01*
X130261904Y-87130952D01*
X130214285Y-87083333D01*
X130166666Y-86988095D01*
X130166666Y-86892857D01*
X130214285Y-86797619D01*
X130261904Y-86750000D01*
X130357142Y-86702380D01*
X130595238Y-86702380D01*
X130738095Y-86750000D01*
X131071428Y-86702380D02*
X131309523Y-87702380D01*
X131500000Y-86988095D01*
X131690476Y-87702380D01*
X131928571Y-86702380D01*
X132261904Y-86797619D02*
X132309523Y-86750000D01*
X132404761Y-86702380D01*
X132642857Y-86702380D01*
X132738095Y-86750000D01*
X132785714Y-86797619D01*
X132833333Y-86892857D01*
X132833333Y-86988095D01*
X132785714Y-87130952D01*
X132214285Y-87702380D01*
X132833333Y-87702380D01*
X195248095Y-86352380D02*
X195248095Y-87161904D01*
X195295714Y-87257142D01*
X195343333Y-87304761D01*
X195438571Y-87352380D01*
X195629047Y-87352380D01*
X195724285Y-87304761D01*
X195771904Y-87257142D01*
X195819523Y-87161904D01*
X195819523Y-86352380D01*
X196200476Y-86352380D02*
X196819523Y-86352380D01*
X196486190Y-86733333D01*
X196629047Y-86733333D01*
X196724285Y-86780952D01*
X196771904Y-86828571D01*
X196819523Y-86923809D01*
X196819523Y-87161904D01*
X196771904Y-87257142D01*
X196724285Y-87304761D01*
X196629047Y-87352380D01*
X196343333Y-87352380D01*
X196248095Y-87304761D01*
X196200476Y-87257142D01*
X196532380Y-41801904D02*
X197341904Y-41801904D01*
X197437142Y-41754285D01*
X197484761Y-41706666D01*
X197532380Y-41611428D01*
X197532380Y-41420952D01*
X197484761Y-41325714D01*
X197437142Y-41278095D01*
X197341904Y-41230476D01*
X196532380Y-41230476D01*
X196865714Y-40325714D02*
X197532380Y-40325714D01*
X196484761Y-40563809D02*
X197199047Y-40801904D01*
X197199047Y-40182857D01*
X185548095Y-103872380D02*
X185548095Y-104681904D01*
X185595714Y-104777142D01*
X185643333Y-104824761D01*
X185738571Y-104872380D01*
X185929047Y-104872380D01*
X186024285Y-104824761D01*
X186071904Y-104777142D01*
X186119523Y-104681904D01*
X186119523Y-103872380D01*
X186500476Y-103872380D02*
X187167142Y-103872380D01*
X186738571Y-104872380D01*
X118298095Y-118452380D02*
X118298095Y-119261904D01*
X118345714Y-119357142D01*
X118393333Y-119404761D01*
X118488571Y-119452380D01*
X118679047Y-119452380D01*
X118774285Y-119404761D01*
X118821904Y-119357142D01*
X118869523Y-119261904D01*
X118869523Y-118452380D01*
X119488571Y-118880952D02*
X119393333Y-118833333D01*
X119345714Y-118785714D01*
X119298095Y-118690476D01*
X119298095Y-118642857D01*
X119345714Y-118547619D01*
X119393333Y-118500000D01*
X119488571Y-118452380D01*
X119679047Y-118452380D01*
X119774285Y-118500000D01*
X119821904Y-118547619D01*
X119869523Y-118642857D01*
X119869523Y-118690476D01*
X119821904Y-118785714D01*
X119774285Y-118833333D01*
X119679047Y-118880952D01*
X119488571Y-118880952D01*
X119393333Y-118928571D01*
X119345714Y-118976190D01*
X119298095Y-119071428D01*
X119298095Y-119261904D01*
X119345714Y-119357142D01*
X119393333Y-119404761D01*
X119488571Y-119452380D01*
X119679047Y-119452380D01*
X119774285Y-119404761D01*
X119821904Y-119357142D01*
X119869523Y-119261904D01*
X119869523Y-119071428D01*
X119821904Y-118976190D01*
X119774285Y-118928571D01*
X119679047Y-118880952D01*
X156702380Y-110451904D02*
X157511904Y-110451904D01*
X157607142Y-110404285D01*
X157654761Y-110356666D01*
X157702380Y-110261428D01*
X157702380Y-110070952D01*
X157654761Y-109975714D01*
X157607142Y-109928095D01*
X157511904Y-109880476D01*
X156702380Y-109880476D01*
X156702380Y-108975714D02*
X156702380Y-109166190D01*
X156750000Y-109261428D01*
X156797619Y-109309047D01*
X156940476Y-109404285D01*
X157130952Y-109451904D01*
X157511904Y-109451904D01*
X157607142Y-109404285D01*
X157654761Y-109356666D01*
X157702380Y-109261428D01*
X157702380Y-109070952D01*
X157654761Y-108975714D01*
X157607142Y-108928095D01*
X157511904Y-108880476D01*
X157273809Y-108880476D01*
X157178571Y-108928095D01*
X157130952Y-108975714D01*
X157083333Y-109070952D01*
X157083333Y-109261428D01*
X157130952Y-109356666D01*
X157178571Y-109404285D01*
X157273809Y-109451904D01*
X115048095Y-90452380D02*
X115048095Y-91261904D01*
X115095714Y-91357142D01*
X115143333Y-91404761D01*
X115238571Y-91452380D01*
X115429047Y-91452380D01*
X115524285Y-91404761D01*
X115571904Y-91357142D01*
X115619523Y-91261904D01*
X115619523Y-90452380D01*
X116571904Y-90452380D02*
X116095714Y-90452380D01*
X116048095Y-90928571D01*
X116095714Y-90880952D01*
X116190952Y-90833333D01*
X116429047Y-90833333D01*
X116524285Y-90880952D01*
X116571904Y-90928571D01*
X116619523Y-91023809D01*
X116619523Y-91261904D01*
X116571904Y-91357142D01*
X116524285Y-91404761D01*
X116429047Y-91452380D01*
X116190952Y-91452380D01*
X116095714Y-91404761D01*
X116048095Y-91357142D01*
X144452380Y-79166666D02*
X143976190Y-79500000D01*
X144452380Y-79738095D02*
X143452380Y-79738095D01*
X143452380Y-79357142D01*
X143500000Y-79261904D01*
X143547619Y-79214285D01*
X143642857Y-79166666D01*
X143785714Y-79166666D01*
X143880952Y-79214285D01*
X143928571Y-79261904D01*
X143976190Y-79357142D01*
X143976190Y-79738095D01*
X144452380Y-78214285D02*
X144452380Y-78785714D01*
X144452380Y-78500000D02*
X143452380Y-78500000D01*
X143595238Y-78595238D01*
X143690476Y-78690476D01*
X143738095Y-78785714D01*
X201952380Y-55666666D02*
X201476190Y-56000000D01*
X201952380Y-56238095D02*
X200952380Y-56238095D01*
X200952380Y-55857142D01*
X201000000Y-55761904D01*
X201047619Y-55714285D01*
X201142857Y-55666666D01*
X201285714Y-55666666D01*
X201380952Y-55714285D01*
X201428571Y-55761904D01*
X201476190Y-55857142D01*
X201476190Y-56238095D01*
X201047619Y-55285714D02*
X201000000Y-55238095D01*
X200952380Y-55142857D01*
X200952380Y-54904761D01*
X201000000Y-54809523D01*
X201047619Y-54761904D01*
X201142857Y-54714285D01*
X201238095Y-54714285D01*
X201380952Y-54761904D01*
X201952380Y-55333333D01*
X201952380Y-54714285D01*
X139952380Y-79356666D02*
X139476190Y-79690000D01*
X139952380Y-79928095D02*
X138952380Y-79928095D01*
X138952380Y-79547142D01*
X139000000Y-79451904D01*
X139047619Y-79404285D01*
X139142857Y-79356666D01*
X139285714Y-79356666D01*
X139380952Y-79404285D01*
X139428571Y-79451904D01*
X139476190Y-79547142D01*
X139476190Y-79928095D01*
X138952380Y-79023333D02*
X138952380Y-78404285D01*
X139333333Y-78737619D01*
X139333333Y-78594761D01*
X139380952Y-78499523D01*
X139428571Y-78451904D01*
X139523809Y-78404285D01*
X139761904Y-78404285D01*
X139857142Y-78451904D01*
X139904761Y-78499523D01*
X139952380Y-78594761D01*
X139952380Y-78880476D01*
X139904761Y-78975714D01*
X139857142Y-79023333D01*
X144452380Y-68606666D02*
X143976190Y-68940000D01*
X144452380Y-69178095D02*
X143452380Y-69178095D01*
X143452380Y-68797142D01*
X143500000Y-68701904D01*
X143547619Y-68654285D01*
X143642857Y-68606666D01*
X143785714Y-68606666D01*
X143880952Y-68654285D01*
X143928571Y-68701904D01*
X143976190Y-68797142D01*
X143976190Y-69178095D01*
X143785714Y-67749523D02*
X144452380Y-67749523D01*
X143404761Y-67987619D02*
X144119047Y-68225714D01*
X144119047Y-67606666D01*
X197202380Y-55666666D02*
X196726190Y-56000000D01*
X197202380Y-56238095D02*
X196202380Y-56238095D01*
X196202380Y-55857142D01*
X196250000Y-55761904D01*
X196297619Y-55714285D01*
X196392857Y-55666666D01*
X196535714Y-55666666D01*
X196630952Y-55714285D01*
X196678571Y-55761904D01*
X196726190Y-55857142D01*
X196726190Y-56238095D01*
X196202380Y-54761904D02*
X196202380Y-55238095D01*
X196678571Y-55285714D01*
X196630952Y-55238095D01*
X196583333Y-55142857D01*
X196583333Y-54904761D01*
X196630952Y-54809523D01*
X196678571Y-54761904D01*
X196773809Y-54714285D01*
X197011904Y-54714285D01*
X197107142Y-54761904D01*
X197154761Y-54809523D01*
X197202380Y-54904761D01*
X197202380Y-55142857D01*
X197154761Y-55238095D01*
X197107142Y-55285714D01*
X107952380Y-51166666D02*
X107476190Y-51500000D01*
X107952380Y-51738095D02*
X106952380Y-51738095D01*
X106952380Y-51357142D01*
X107000000Y-51261904D01*
X107047619Y-51214285D01*
X107142857Y-51166666D01*
X107285714Y-51166666D01*
X107380952Y-51214285D01*
X107428571Y-51261904D01*
X107476190Y-51357142D01*
X107476190Y-51738095D01*
X106952380Y-50309523D02*
X106952380Y-50500000D01*
X107000000Y-50595238D01*
X107047619Y-50642857D01*
X107190476Y-50738095D01*
X107380952Y-50785714D01*
X107761904Y-50785714D01*
X107857142Y-50738095D01*
X107904761Y-50690476D01*
X107952380Y-50595238D01*
X107952380Y-50404761D01*
X107904761Y-50309523D01*
X107857142Y-50261904D01*
X107761904Y-50214285D01*
X107523809Y-50214285D01*
X107428571Y-50261904D01*
X107380952Y-50309523D01*
X107333333Y-50404761D01*
X107333333Y-50595238D01*
X107380952Y-50690476D01*
X107428571Y-50738095D01*
X107523809Y-50785714D01*
X127452380Y-51226666D02*
X126976190Y-51560000D01*
X127452380Y-51798095D02*
X126452380Y-51798095D01*
X126452380Y-51417142D01*
X126500000Y-51321904D01*
X126547619Y-51274285D01*
X126642857Y-51226666D01*
X126785714Y-51226666D01*
X126880952Y-51274285D01*
X126928571Y-51321904D01*
X126976190Y-51417142D01*
X126976190Y-51798095D01*
X126452380Y-50893333D02*
X126452380Y-50226666D01*
X127452380Y-50655238D01*
X139952380Y-68476666D02*
X139476190Y-68810000D01*
X139952380Y-69048095D02*
X138952380Y-69048095D01*
X138952380Y-68667142D01*
X139000000Y-68571904D01*
X139047619Y-68524285D01*
X139142857Y-68476666D01*
X139285714Y-68476666D01*
X139380952Y-68524285D01*
X139428571Y-68571904D01*
X139476190Y-68667142D01*
X139476190Y-69048095D01*
X139380952Y-67905238D02*
X139333333Y-68000476D01*
X139285714Y-68048095D01*
X139190476Y-68095714D01*
X139142857Y-68095714D01*
X139047619Y-68048095D01*
X139000000Y-68000476D01*
X138952380Y-67905238D01*
X138952380Y-67714761D01*
X139000000Y-67619523D01*
X139047619Y-67571904D01*
X139142857Y-67524285D01*
X139190476Y-67524285D01*
X139285714Y-67571904D01*
X139333333Y-67619523D01*
X139380952Y-67714761D01*
X139380952Y-67905238D01*
X139428571Y-68000476D01*
X139476190Y-68048095D01*
X139571428Y-68095714D01*
X139761904Y-68095714D01*
X139857142Y-68048095D01*
X139904761Y-68000476D01*
X139952380Y-67905238D01*
X139952380Y-67714761D01*
X139904761Y-67619523D01*
X139857142Y-67571904D01*
X139761904Y-67524285D01*
X139571428Y-67524285D01*
X139476190Y-67571904D01*
X139428571Y-67619523D01*
X139380952Y-67714761D01*
X144452380Y-51976666D02*
X143976190Y-52310000D01*
X144452380Y-52548095D02*
X143452380Y-52548095D01*
X143452380Y-52167142D01*
X143500000Y-52071904D01*
X143547619Y-52024285D01*
X143642857Y-51976666D01*
X143785714Y-51976666D01*
X143880952Y-52024285D01*
X143928571Y-52071904D01*
X143976190Y-52167142D01*
X143976190Y-52548095D01*
X144452380Y-51500476D02*
X144452380Y-51310000D01*
X144404761Y-51214761D01*
X144357142Y-51167142D01*
X144214285Y-51071904D01*
X144023809Y-51024285D01*
X143642857Y-51024285D01*
X143547619Y-51071904D01*
X143500000Y-51119523D01*
X143452380Y-51214761D01*
X143452380Y-51405238D01*
X143500000Y-51500476D01*
X143547619Y-51548095D01*
X143642857Y-51595714D01*
X143880952Y-51595714D01*
X143976190Y-51548095D01*
X144023809Y-51500476D01*
X144071428Y-51405238D01*
X144071428Y-51214761D01*
X144023809Y-51119523D01*
X143976190Y-51071904D01*
X143880952Y-51024285D01*
X139952380Y-52452857D02*
X139476190Y-52786190D01*
X139952380Y-53024285D02*
X138952380Y-53024285D01*
X138952380Y-52643333D01*
X139000000Y-52548095D01*
X139047619Y-52500476D01*
X139142857Y-52452857D01*
X139285714Y-52452857D01*
X139380952Y-52500476D01*
X139428571Y-52548095D01*
X139476190Y-52643333D01*
X139476190Y-53024285D01*
X139952380Y-51500476D02*
X139952380Y-52071904D01*
X139952380Y-51786190D02*
X138952380Y-51786190D01*
X139095238Y-51881428D01*
X139190476Y-51976666D01*
X139238095Y-52071904D01*
X138952380Y-50881428D02*
X138952380Y-50786190D01*
X139000000Y-50690952D01*
X139047619Y-50643333D01*
X139142857Y-50595714D01*
X139333333Y-50548095D01*
X139571428Y-50548095D01*
X139761904Y-50595714D01*
X139857142Y-50643333D01*
X139904761Y-50690952D01*
X139952380Y-50786190D01*
X139952380Y-50881428D01*
X139904761Y-50976666D01*
X139857142Y-51024285D01*
X139761904Y-51071904D01*
X139571428Y-51119523D01*
X139333333Y-51119523D01*
X139142857Y-51071904D01*
X139047619Y-51024285D01*
X139000000Y-50976666D01*
X138952380Y-50881428D01*
X169052380Y-70042857D02*
X168576190Y-70376190D01*
X169052380Y-70614285D02*
X168052380Y-70614285D01*
X168052380Y-70233333D01*
X168100000Y-70138095D01*
X168147619Y-70090476D01*
X168242857Y-70042857D01*
X168385714Y-70042857D01*
X168480952Y-70090476D01*
X168528571Y-70138095D01*
X168576190Y-70233333D01*
X168576190Y-70614285D01*
X169052380Y-69090476D02*
X169052380Y-69661904D01*
X169052380Y-69376190D02*
X168052380Y-69376190D01*
X168195238Y-69471428D01*
X168290476Y-69566666D01*
X168338095Y-69661904D01*
X169052380Y-68138095D02*
X169052380Y-68709523D01*
X169052380Y-68423809D02*
X168052380Y-68423809D01*
X168195238Y-68519047D01*
X168290476Y-68614285D01*
X168338095Y-68709523D01*
X164452380Y-80342857D02*
X163976190Y-80676190D01*
X164452380Y-80914285D02*
X163452380Y-80914285D01*
X163452380Y-80533333D01*
X163500000Y-80438095D01*
X163547619Y-80390476D01*
X163642857Y-80342857D01*
X163785714Y-80342857D01*
X163880952Y-80390476D01*
X163928571Y-80438095D01*
X163976190Y-80533333D01*
X163976190Y-80914285D01*
X164452380Y-79390476D02*
X164452380Y-79961904D01*
X164452380Y-79676190D02*
X163452380Y-79676190D01*
X163595238Y-79771428D01*
X163690476Y-79866666D01*
X163738095Y-79961904D01*
X163547619Y-79009523D02*
X163500000Y-78961904D01*
X163452380Y-78866666D01*
X163452380Y-78628571D01*
X163500000Y-78533333D01*
X163547619Y-78485714D01*
X163642857Y-78438095D01*
X163738095Y-78438095D01*
X163880952Y-78485714D01*
X164452380Y-79057142D01*
X164452380Y-78438095D01*
X164452380Y-69742857D02*
X163976190Y-70076190D01*
X164452380Y-70314285D02*
X163452380Y-70314285D01*
X163452380Y-69933333D01*
X163500000Y-69838095D01*
X163547619Y-69790476D01*
X163642857Y-69742857D01*
X163785714Y-69742857D01*
X163880952Y-69790476D01*
X163928571Y-69838095D01*
X163976190Y-69933333D01*
X163976190Y-70314285D01*
X164452380Y-68790476D02*
X164452380Y-69361904D01*
X164452380Y-69076190D02*
X163452380Y-69076190D01*
X163595238Y-69171428D01*
X163690476Y-69266666D01*
X163738095Y-69361904D01*
X163452380Y-68457142D02*
X163452380Y-67838095D01*
X163833333Y-68171428D01*
X163833333Y-68028571D01*
X163880952Y-67933333D01*
X163928571Y-67885714D01*
X164023809Y-67838095D01*
X164261904Y-67838095D01*
X164357142Y-67885714D01*
X164404761Y-67933333D01*
X164452380Y-68028571D01*
X164452380Y-68314285D01*
X164404761Y-68409523D01*
X164357142Y-68457142D01*
X164452380Y-42952857D02*
X163976190Y-43286190D01*
X164452380Y-43524285D02*
X163452380Y-43524285D01*
X163452380Y-43143333D01*
X163500000Y-43048095D01*
X163547619Y-43000476D01*
X163642857Y-42952857D01*
X163785714Y-42952857D01*
X163880952Y-43000476D01*
X163928571Y-43048095D01*
X163976190Y-43143333D01*
X163976190Y-43524285D01*
X164452380Y-42000476D02*
X164452380Y-42571904D01*
X164452380Y-42286190D02*
X163452380Y-42286190D01*
X163595238Y-42381428D01*
X163690476Y-42476666D01*
X163738095Y-42571904D01*
X163785714Y-41143333D02*
X164452380Y-41143333D01*
X163404761Y-41381428D02*
X164119047Y-41619523D01*
X164119047Y-41000476D01*
X169452380Y-40952857D02*
X168976190Y-41286190D01*
X169452380Y-41524285D02*
X168452380Y-41524285D01*
X168452380Y-41143333D01*
X168500000Y-41048095D01*
X168547619Y-41000476D01*
X168642857Y-40952857D01*
X168785714Y-40952857D01*
X168880952Y-41000476D01*
X168928571Y-41048095D01*
X168976190Y-41143333D01*
X168976190Y-41524285D01*
X169452380Y-40000476D02*
X169452380Y-40571904D01*
X169452380Y-40286190D02*
X168452380Y-40286190D01*
X168595238Y-40381428D01*
X168690476Y-40476666D01*
X168738095Y-40571904D01*
X168452380Y-39095714D02*
X168452380Y-39571904D01*
X168928571Y-39619523D01*
X168880952Y-39571904D01*
X168833333Y-39476666D01*
X168833333Y-39238571D01*
X168880952Y-39143333D01*
X168928571Y-39095714D01*
X169023809Y-39048095D01*
X169261904Y-39048095D01*
X169357142Y-39095714D01*
X169404761Y-39143333D01*
X169452380Y-39238571D01*
X169452380Y-39476666D01*
X169404761Y-39571904D01*
X169357142Y-39619523D01*
X199452380Y-114452857D02*
X198976190Y-114786190D01*
X199452380Y-115024285D02*
X198452380Y-115024285D01*
X198452380Y-114643333D01*
X198500000Y-114548095D01*
X198547619Y-114500476D01*
X198642857Y-114452857D01*
X198785714Y-114452857D01*
X198880952Y-114500476D01*
X198928571Y-114548095D01*
X198976190Y-114643333D01*
X198976190Y-115024285D01*
X199452380Y-113500476D02*
X199452380Y-114071904D01*
X199452380Y-113786190D02*
X198452380Y-113786190D01*
X198595238Y-113881428D01*
X198690476Y-113976666D01*
X198738095Y-114071904D01*
X198452380Y-112643333D02*
X198452380Y-112833809D01*
X198500000Y-112929047D01*
X198547619Y-112976666D01*
X198690476Y-113071904D01*
X198880952Y-113119523D01*
X199261904Y-113119523D01*
X199357142Y-113071904D01*
X199404761Y-113024285D01*
X199452380Y-112929047D01*
X199452380Y-112738571D01*
X199404761Y-112643333D01*
X199357142Y-112595714D01*
X199261904Y-112548095D01*
X199023809Y-112548095D01*
X198928571Y-112595714D01*
X198880952Y-112643333D01*
X198833333Y-112738571D01*
X198833333Y-112929047D01*
X198880952Y-113024285D01*
X198928571Y-113071904D01*
X199023809Y-113119523D01*
X143547142Y-99952380D02*
X143213809Y-99476190D01*
X142975714Y-99952380D02*
X142975714Y-98952380D01*
X143356666Y-98952380D01*
X143451904Y-99000000D01*
X143499523Y-99047619D01*
X143547142Y-99142857D01*
X143547142Y-99285714D01*
X143499523Y-99380952D01*
X143451904Y-99428571D01*
X143356666Y-99476190D01*
X142975714Y-99476190D01*
X144499523Y-99952380D02*
X143928095Y-99952380D01*
X144213809Y-99952380D02*
X144213809Y-98952380D01*
X144118571Y-99095238D01*
X144023333Y-99190476D01*
X143928095Y-99238095D01*
X144832857Y-98952380D02*
X145499523Y-98952380D01*
X145070952Y-99952380D01*
X182967142Y-102152380D02*
X182633809Y-101676190D01*
X182395714Y-102152380D02*
X182395714Y-101152380D01*
X182776666Y-101152380D01*
X182871904Y-101200000D01*
X182919523Y-101247619D01*
X182967142Y-101342857D01*
X182967142Y-101485714D01*
X182919523Y-101580952D01*
X182871904Y-101628571D01*
X182776666Y-101676190D01*
X182395714Y-101676190D01*
X183919523Y-102152380D02*
X183348095Y-102152380D01*
X183633809Y-102152380D02*
X183633809Y-101152380D01*
X183538571Y-101295238D01*
X183443333Y-101390476D01*
X183348095Y-101438095D01*
X184490952Y-101580952D02*
X184395714Y-101533333D01*
X184348095Y-101485714D01*
X184300476Y-101390476D01*
X184300476Y-101342857D01*
X184348095Y-101247619D01*
X184395714Y-101200000D01*
X184490952Y-101152380D01*
X184681428Y-101152380D01*
X184776666Y-101200000D01*
X184824285Y-101247619D01*
X184871904Y-101342857D01*
X184871904Y-101390476D01*
X184824285Y-101485714D01*
X184776666Y-101533333D01*
X184681428Y-101580952D01*
X184490952Y-101580952D01*
X184395714Y-101628571D01*
X184348095Y-101676190D01*
X184300476Y-101771428D01*
X184300476Y-101961904D01*
X184348095Y-102057142D01*
X184395714Y-102104761D01*
X184490952Y-102152380D01*
X184681428Y-102152380D01*
X184776666Y-102104761D01*
X184824285Y-102057142D01*
X184871904Y-101961904D01*
X184871904Y-101771428D01*
X184824285Y-101676190D01*
X184776666Y-101628571D01*
X184681428Y-101580952D01*
X174417142Y-96202380D02*
X174083809Y-95726190D01*
X173845714Y-96202380D02*
X173845714Y-95202380D01*
X174226666Y-95202380D01*
X174321904Y-95250000D01*
X174369523Y-95297619D01*
X174417142Y-95392857D01*
X174417142Y-95535714D01*
X174369523Y-95630952D01*
X174321904Y-95678571D01*
X174226666Y-95726190D01*
X173845714Y-95726190D01*
X175369523Y-96202380D02*
X174798095Y-96202380D01*
X175083809Y-96202380D02*
X175083809Y-95202380D01*
X174988571Y-95345238D01*
X174893333Y-95440476D01*
X174798095Y-95488095D01*
X175845714Y-96202380D02*
X176036190Y-96202380D01*
X176131428Y-96154761D01*
X176179047Y-96107142D01*
X176274285Y-95964285D01*
X176321904Y-95773809D01*
X176321904Y-95392857D01*
X176274285Y-95297619D01*
X176226666Y-95250000D01*
X176131428Y-95202380D01*
X175940952Y-95202380D01*
X175845714Y-95250000D01*
X175798095Y-95297619D01*
X175750476Y-95392857D01*
X175750476Y-95630952D01*
X175798095Y-95726190D01*
X175845714Y-95773809D01*
X175940952Y-95821428D01*
X176131428Y-95821428D01*
X176226666Y-95773809D01*
X176274285Y-95726190D01*
X176321904Y-95630952D01*
X154917142Y-99952380D02*
X154583809Y-99476190D01*
X154345714Y-99952380D02*
X154345714Y-98952380D01*
X154726666Y-98952380D01*
X154821904Y-99000000D01*
X154869523Y-99047619D01*
X154917142Y-99142857D01*
X154917142Y-99285714D01*
X154869523Y-99380952D01*
X154821904Y-99428571D01*
X154726666Y-99476190D01*
X154345714Y-99476190D01*
X155298095Y-99047619D02*
X155345714Y-99000000D01*
X155440952Y-98952380D01*
X155679047Y-98952380D01*
X155774285Y-99000000D01*
X155821904Y-99047619D01*
X155869523Y-99142857D01*
X155869523Y-99238095D01*
X155821904Y-99380952D01*
X155250476Y-99952380D01*
X155869523Y-99952380D01*
X156488571Y-98952380D02*
X156583809Y-98952380D01*
X156679047Y-99000000D01*
X156726666Y-99047619D01*
X156774285Y-99142857D01*
X156821904Y-99333333D01*
X156821904Y-99571428D01*
X156774285Y-99761904D01*
X156726666Y-99857142D01*
X156679047Y-99904761D01*
X156583809Y-99952380D01*
X156488571Y-99952380D01*
X156393333Y-99904761D01*
X156345714Y-99857142D01*
X156298095Y-99761904D01*
X156250476Y-99571428D01*
X156250476Y-99333333D01*
X156298095Y-99142857D01*
X156345714Y-99047619D01*
X156393333Y-99000000D01*
X156488571Y-98952380D01*
X132167142Y-96202380D02*
X131833809Y-95726190D01*
X131595714Y-96202380D02*
X131595714Y-95202380D01*
X131976666Y-95202380D01*
X132071904Y-95250000D01*
X132119523Y-95297619D01*
X132167142Y-95392857D01*
X132167142Y-95535714D01*
X132119523Y-95630952D01*
X132071904Y-95678571D01*
X131976666Y-95726190D01*
X131595714Y-95726190D01*
X132548095Y-95297619D02*
X132595714Y-95250000D01*
X132690952Y-95202380D01*
X132929047Y-95202380D01*
X133024285Y-95250000D01*
X133071904Y-95297619D01*
X133119523Y-95392857D01*
X133119523Y-95488095D01*
X133071904Y-95630952D01*
X132500476Y-96202380D01*
X133119523Y-96202380D01*
X134071904Y-96202380D02*
X133500476Y-96202380D01*
X133786190Y-96202380D02*
X133786190Y-95202380D01*
X133690952Y-95345238D01*
X133595714Y-95440476D01*
X133500476Y-95488095D01*
X132107142Y-99952380D02*
X131773809Y-99476190D01*
X131535714Y-99952380D02*
X131535714Y-98952380D01*
X131916666Y-98952380D01*
X132011904Y-99000000D01*
X132059523Y-99047619D01*
X132107142Y-99142857D01*
X132107142Y-99285714D01*
X132059523Y-99380952D01*
X132011904Y-99428571D01*
X131916666Y-99476190D01*
X131535714Y-99476190D01*
X132488095Y-99047619D02*
X132535714Y-99000000D01*
X132630952Y-98952380D01*
X132869047Y-98952380D01*
X132964285Y-99000000D01*
X133011904Y-99047619D01*
X133059523Y-99142857D01*
X133059523Y-99238095D01*
X133011904Y-99380952D01*
X132440476Y-99952380D01*
X133059523Y-99952380D01*
X133440476Y-99047619D02*
X133488095Y-99000000D01*
X133583333Y-98952380D01*
X133821428Y-98952380D01*
X133916666Y-99000000D01*
X133964285Y-99047619D01*
X134011904Y-99142857D01*
X134011904Y-99238095D01*
X133964285Y-99380952D01*
X133392857Y-99952380D01*
X134011904Y-99952380D01*
X185667142Y-129702380D02*
X185333809Y-129226190D01*
X185095714Y-129702380D02*
X185095714Y-128702380D01*
X185476666Y-128702380D01*
X185571904Y-128750000D01*
X185619523Y-128797619D01*
X185667142Y-128892857D01*
X185667142Y-129035714D01*
X185619523Y-129130952D01*
X185571904Y-129178571D01*
X185476666Y-129226190D01*
X185095714Y-129226190D01*
X186048095Y-128797619D02*
X186095714Y-128750000D01*
X186190952Y-128702380D01*
X186429047Y-128702380D01*
X186524285Y-128750000D01*
X186571904Y-128797619D01*
X186619523Y-128892857D01*
X186619523Y-128988095D01*
X186571904Y-129130952D01*
X186000476Y-129702380D01*
X186619523Y-129702380D01*
X186952857Y-128702380D02*
X187571904Y-128702380D01*
X187238571Y-129083333D01*
X187381428Y-129083333D01*
X187476666Y-129130952D01*
X187524285Y-129178571D01*
X187571904Y-129273809D01*
X187571904Y-129511904D01*
X187524285Y-129607142D01*
X187476666Y-129654761D01*
X187381428Y-129702380D01*
X187095714Y-129702380D01*
X187000476Y-129654761D01*
X186952857Y-129607142D01*
X110917142Y-78452380D02*
X110583809Y-77976190D01*
X110345714Y-78452380D02*
X110345714Y-77452380D01*
X110726666Y-77452380D01*
X110821904Y-77500000D01*
X110869523Y-77547619D01*
X110917142Y-77642857D01*
X110917142Y-77785714D01*
X110869523Y-77880952D01*
X110821904Y-77928571D01*
X110726666Y-77976190D01*
X110345714Y-77976190D01*
X111298095Y-77547619D02*
X111345714Y-77500000D01*
X111440952Y-77452380D01*
X111679047Y-77452380D01*
X111774285Y-77500000D01*
X111821904Y-77547619D01*
X111869523Y-77642857D01*
X111869523Y-77738095D01*
X111821904Y-77880952D01*
X111250476Y-78452380D01*
X111869523Y-78452380D01*
X112726666Y-77785714D02*
X112726666Y-78452380D01*
X112488571Y-77404761D02*
X112250476Y-78119047D01*
X112869523Y-78119047D01*
X132452380Y-117952857D02*
X131976190Y-118286190D01*
X132452380Y-118524285D02*
X131452380Y-118524285D01*
X131452380Y-118143333D01*
X131500000Y-118048095D01*
X131547619Y-118000476D01*
X131642857Y-117952857D01*
X131785714Y-117952857D01*
X131880952Y-118000476D01*
X131928571Y-118048095D01*
X131976190Y-118143333D01*
X131976190Y-118524285D01*
X131547619Y-117571904D02*
X131500000Y-117524285D01*
X131452380Y-117429047D01*
X131452380Y-117190952D01*
X131500000Y-117095714D01*
X131547619Y-117048095D01*
X131642857Y-117000476D01*
X131738095Y-117000476D01*
X131880952Y-117048095D01*
X132452380Y-117619523D01*
X132452380Y-117000476D01*
X131452380Y-116095714D02*
X131452380Y-116571904D01*
X131928571Y-116619523D01*
X131880952Y-116571904D01*
X131833333Y-116476666D01*
X131833333Y-116238571D01*
X131880952Y-116143333D01*
X131928571Y-116095714D01*
X132023809Y-116048095D01*
X132261904Y-116048095D01*
X132357142Y-116095714D01*
X132404761Y-116143333D01*
X132452380Y-116238571D01*
X132452380Y-116476666D01*
X132404761Y-116571904D01*
X132357142Y-116619523D01*
X116667142Y-106752380D02*
X116333809Y-106276190D01*
X116095714Y-106752380D02*
X116095714Y-105752380D01*
X116476666Y-105752380D01*
X116571904Y-105800000D01*
X116619523Y-105847619D01*
X116667142Y-105942857D01*
X116667142Y-106085714D01*
X116619523Y-106180952D01*
X116571904Y-106228571D01*
X116476666Y-106276190D01*
X116095714Y-106276190D01*
X117048095Y-105847619D02*
X117095714Y-105800000D01*
X117190952Y-105752380D01*
X117429047Y-105752380D01*
X117524285Y-105800000D01*
X117571904Y-105847619D01*
X117619523Y-105942857D01*
X117619523Y-106038095D01*
X117571904Y-106180952D01*
X117000476Y-106752380D01*
X117619523Y-106752380D01*
X118476666Y-105752380D02*
X118286190Y-105752380D01*
X118190952Y-105800000D01*
X118143333Y-105847619D01*
X118048095Y-105990476D01*
X118000476Y-106180952D01*
X118000476Y-106561904D01*
X118048095Y-106657142D01*
X118095714Y-106704761D01*
X118190952Y-106752380D01*
X118381428Y-106752380D01*
X118476666Y-106704761D01*
X118524285Y-106657142D01*
X118571904Y-106561904D01*
X118571904Y-106323809D01*
X118524285Y-106228571D01*
X118476666Y-106180952D01*
X118381428Y-106133333D01*
X118190952Y-106133333D01*
X118095714Y-106180952D01*
X118048095Y-106228571D01*
X118000476Y-106323809D01*
X108702380Y-94142857D02*
X108226190Y-94476190D01*
X108702380Y-94714285D02*
X107702380Y-94714285D01*
X107702380Y-94333333D01*
X107750000Y-94238095D01*
X107797619Y-94190476D01*
X107892857Y-94142857D01*
X108035714Y-94142857D01*
X108130952Y-94190476D01*
X108178571Y-94238095D01*
X108226190Y-94333333D01*
X108226190Y-94714285D01*
X107797619Y-93761904D02*
X107750000Y-93714285D01*
X107702380Y-93619047D01*
X107702380Y-93380952D01*
X107750000Y-93285714D01*
X107797619Y-93238095D01*
X107892857Y-93190476D01*
X107988095Y-93190476D01*
X108130952Y-93238095D01*
X108702380Y-93809523D01*
X108702380Y-93190476D01*
X107702380Y-92857142D02*
X107702380Y-92190476D01*
X108702380Y-92619047D01*
X133957142Y-75842857D02*
X134004761Y-75890476D01*
X134052380Y-76033333D01*
X134052380Y-76128571D01*
X134004761Y-76271428D01*
X133909523Y-76366666D01*
X133814285Y-76414285D01*
X133623809Y-76461904D01*
X133480952Y-76461904D01*
X133290476Y-76414285D01*
X133195238Y-76366666D01*
X133100000Y-76271428D01*
X133052380Y-76128571D01*
X133052380Y-76033333D01*
X133100000Y-75890476D01*
X133147619Y-75842857D01*
X134052380Y-74890476D02*
X134052380Y-75461904D01*
X134052380Y-75176190D02*
X133052380Y-75176190D01*
X133195238Y-75271428D01*
X133290476Y-75366666D01*
X133338095Y-75461904D01*
X133052380Y-74033333D02*
X133052380Y-74223809D01*
X133100000Y-74319047D01*
X133147619Y-74366666D01*
X133290476Y-74461904D01*
X133480952Y-74509523D01*
X133861904Y-74509523D01*
X133957142Y-74461904D01*
X134004761Y-74414285D01*
X134052380Y-74319047D01*
X134052380Y-74128571D01*
X134004761Y-74033333D01*
X133957142Y-73985714D01*
X133861904Y-73938095D01*
X133623809Y-73938095D01*
X133528571Y-73985714D01*
X133480952Y-74033333D01*
X133433333Y-74128571D01*
X133433333Y-74319047D01*
X133480952Y-74414285D01*
X133528571Y-74461904D01*
X133623809Y-74509523D01*
X108366190Y-62851597D02*
X108366190Y-63566905D01*
X108318502Y-63709966D01*
X108223128Y-63805340D01*
X108080067Y-63853027D01*
X107984692Y-63853027D01*
X109367620Y-63853027D02*
X108795374Y-63853027D01*
X109081497Y-63853027D02*
X109081497Y-62851597D01*
X108986122Y-62994659D01*
X108890748Y-63090033D01*
X108795374Y-63137720D01*
X201366190Y-62151597D02*
X201366190Y-62866905D01*
X201318502Y-63009966D01*
X201223128Y-63105340D01*
X201080067Y-63153027D01*
X200984692Y-63153027D01*
X201795374Y-62246972D02*
X201843061Y-62199285D01*
X201938435Y-62151597D01*
X202176871Y-62151597D01*
X202272245Y-62199285D01*
X202319932Y-62246972D01*
X202367620Y-62342346D01*
X202367620Y-62437720D01*
X202319932Y-62580782D01*
X201747687Y-63153027D01*
X202367620Y-63153027D01*
X194452380Y-122595238D02*
X193976190Y-122928571D01*
X194452380Y-123166666D02*
X193452380Y-123166666D01*
X193452380Y-122785714D01*
X193500000Y-122690476D01*
X193547619Y-122642857D01*
X193642857Y-122595238D01*
X193785714Y-122595238D01*
X193880952Y-122642857D01*
X193928571Y-122690476D01*
X193976190Y-122785714D01*
X193976190Y-123166666D01*
X193452380Y-122309523D02*
X194452380Y-121976190D01*
X193452380Y-121642857D01*
X194452380Y-120785714D02*
X194452380Y-121357142D01*
X194452380Y-121071428D02*
X193452380Y-121071428D01*
X193595238Y-121166666D01*
X193690476Y-121261904D01*
X193738095Y-121357142D01*
X194352380Y-103495238D02*
X193876190Y-103828571D01*
X194352380Y-104066666D02*
X193352380Y-104066666D01*
X193352380Y-103685714D01*
X193400000Y-103590476D01*
X193447619Y-103542857D01*
X193542857Y-103495238D01*
X193685714Y-103495238D01*
X193780952Y-103542857D01*
X193828571Y-103590476D01*
X193876190Y-103685714D01*
X193876190Y-104066666D01*
X193352380Y-103209523D02*
X194352380Y-102876190D01*
X193352380Y-102542857D01*
X193447619Y-102257142D02*
X193400000Y-102209523D01*
X193352380Y-102114285D01*
X193352380Y-101876190D01*
X193400000Y-101780952D01*
X193447619Y-101733333D01*
X193542857Y-101685714D01*
X193638095Y-101685714D01*
X193780952Y-101733333D01*
X194352380Y-102304761D01*
X194352380Y-101685714D01*
X127652380Y-126095238D02*
X127176190Y-126428571D01*
X127652380Y-126666666D02*
X126652380Y-126666666D01*
X126652380Y-126285714D01*
X126700000Y-126190476D01*
X126747619Y-126142857D01*
X126842857Y-126095238D01*
X126985714Y-126095238D01*
X127080952Y-126142857D01*
X127128571Y-126190476D01*
X127176190Y-126285714D01*
X127176190Y-126666666D01*
X126652380Y-125809523D02*
X127652380Y-125476190D01*
X126652380Y-125142857D01*
X126652380Y-124904761D02*
X126652380Y-124285714D01*
X127033333Y-124619047D01*
X127033333Y-124476190D01*
X127080952Y-124380952D01*
X127128571Y-124333333D01*
X127223809Y-124285714D01*
X127461904Y-124285714D01*
X127557142Y-124333333D01*
X127604761Y-124380952D01*
X127652380Y-124476190D01*
X127652380Y-124761904D01*
X127604761Y-124857142D01*
X127557142Y-124904761D01*
X127652380Y-107295238D02*
X127176190Y-107628571D01*
X127652380Y-107866666D02*
X126652380Y-107866666D01*
X126652380Y-107485714D01*
X126700000Y-107390476D01*
X126747619Y-107342857D01*
X126842857Y-107295238D01*
X126985714Y-107295238D01*
X127080952Y-107342857D01*
X127128571Y-107390476D01*
X127176190Y-107485714D01*
X127176190Y-107866666D01*
X126652380Y-107009523D02*
X127652380Y-106676190D01*
X126652380Y-106342857D01*
X126985714Y-105580952D02*
X127652380Y-105580952D01*
X126604761Y-105819047D02*
X127319047Y-106057142D01*
X127319047Y-105438095D01*
X171904761Y-85252380D02*
X171571428Y-84776190D01*
X171333333Y-85252380D02*
X171333333Y-84252380D01*
X171714285Y-84252380D01*
X171809523Y-84300000D01*
X171857142Y-84347619D01*
X171904761Y-84442857D01*
X171904761Y-84585714D01*
X171857142Y-84680952D01*
X171809523Y-84728571D01*
X171714285Y-84776190D01*
X171333333Y-84776190D01*
X172190476Y-84252380D02*
X172523809Y-85252380D01*
X172857142Y-84252380D01*
X173666666Y-84252380D02*
X173190476Y-84252380D01*
X173142857Y-84728571D01*
X173190476Y-84680952D01*
X173285714Y-84633333D01*
X173523809Y-84633333D01*
X173619047Y-84680952D01*
X173666666Y-84728571D01*
X173714285Y-84823809D01*
X173714285Y-85061904D01*
X173666666Y-85157142D01*
X173619047Y-85204761D01*
X173523809Y-85252380D01*
X173285714Y-85252380D01*
X173190476Y-85204761D01*
X173142857Y-85157142D01*
X126604761Y-84952380D02*
X126271428Y-84476190D01*
X126033333Y-84952380D02*
X126033333Y-83952380D01*
X126414285Y-83952380D01*
X126509523Y-84000000D01*
X126557142Y-84047619D01*
X126604761Y-84142857D01*
X126604761Y-84285714D01*
X126557142Y-84380952D01*
X126509523Y-84428571D01*
X126414285Y-84476190D01*
X126033333Y-84476190D01*
X126890476Y-83952380D02*
X127223809Y-84952380D01*
X127557142Y-83952380D01*
X128319047Y-83952380D02*
X128128571Y-83952380D01*
X128033333Y-84000000D01*
X127985714Y-84047619D01*
X127890476Y-84190476D01*
X127842857Y-84380952D01*
X127842857Y-84761904D01*
X127890476Y-84857142D01*
X127938095Y-84904761D01*
X128033333Y-84952380D01*
X128223809Y-84952380D01*
X128319047Y-84904761D01*
X128366666Y-84857142D01*
X128414285Y-84761904D01*
X128414285Y-84523809D01*
X128366666Y-84428571D01*
X128319047Y-84380952D01*
X128223809Y-84333333D01*
X128033333Y-84333333D01*
X127938095Y-84380952D01*
X127890476Y-84428571D01*
X127842857Y-84523809D01*
X126504761Y-77852380D02*
X126171428Y-77376190D01*
X125933333Y-77852380D02*
X125933333Y-76852380D01*
X126314285Y-76852380D01*
X126409523Y-76900000D01*
X126457142Y-76947619D01*
X126504761Y-77042857D01*
X126504761Y-77185714D01*
X126457142Y-77280952D01*
X126409523Y-77328571D01*
X126314285Y-77376190D01*
X125933333Y-77376190D01*
X126790476Y-76852380D02*
X127123809Y-77852380D01*
X127457142Y-76852380D01*
X127695238Y-76852380D02*
X128361904Y-76852380D01*
X127933333Y-77852380D01*
X152688095Y-50452380D02*
X152688095Y-51261904D01*
X152735714Y-51357142D01*
X152783333Y-51404761D01*
X152878571Y-51452380D01*
X153069047Y-51452380D01*
X153164285Y-51404761D01*
X153211904Y-51357142D01*
X153259523Y-51261904D01*
X153259523Y-50452380D01*
X154259523Y-51452380D02*
X153688095Y-51452380D01*
X153973809Y-51452380D02*
X153973809Y-50452380D01*
X153878571Y-50595238D01*
X153783333Y-50690476D01*
X153688095Y-50738095D01*
M02*
