M48
; DRILL file {KiCad (5.1.4-0-10_14)} date 2021 June 29, Tuesday 18:28:12
; FORMAT={-:-/ absolute / metric / decimal}
; #@! TF.CreationDate,2021-06-29T18:28:12+12:00
; #@! TF.GenerationSoftware,Kicad,Pcbnew,(5.1.4-0-10_14)
; #@! TF.FileFunction,Plated,1,2,PTH
FMAT,2
METRIC
T1C0.400
T2C0.800
T3C1.000
T4C1.100
T5C1.700
T6C2.000
T7C2.100
%
G90
G05
T1
X129.25Y-127.0
X131.75Y-129.5
X145.4Y-130.5
X150.0Y-50.1
X151.0Y-126.75
X155.5Y-62.0
X155.75Y-62.0
X156.0Y-62.75
X156.25Y-68.25
X158.5Y-84.4
X158.7Y-89.2
X165.5Y-119.75
X166.5Y-96.8
X178.9Y-99.1
X187.5Y-63.0
X189.6Y-81.1
T2
X151.75Y-99.5
X159.37Y-99.5
X182.5Y-106.75
X182.5Y-109.29
X194.75Y-114.75
X129.5Y-124.17
X129.5Y-129.25
X132.04Y-126.71
X182.5Y-111.83
X194.75Y-109.75
X182.5Y-114.37
X182.5Y-116.91
X182.5Y-121.99
X182.5Y-124.53
X190.12Y-106.75
X190.12Y-109.29
X190.12Y-111.83
X190.12Y-114.37
X190.12Y-116.91
X144.7Y-110.6
X144.7Y-105.6
X150.9Y-81.6
X155.9Y-81.6
X178.87Y-95.75
X112.5Y-47.25
X112.5Y-52.25
X110.5Y-112.75
X139.5Y-75.38
X139.5Y-83.0
X199.0Y-110.0
X199.0Y-117.62
X171.25Y-95.75
X129.0Y-95.75
X136.62Y-95.75
X182.5Y-119.45
X125.82Y-75.2
X128.36Y-72.66
X130.9Y-75.2
X148.5Y-105.88
X190.12Y-119.45
X129.0Y-99.5
X136.62Y-99.5
X148.1Y-86.3
X132.0Y-113.5
X132.0Y-121.12
X148.1Y-91.3
X190.12Y-121.99
X190.12Y-124.53
X139.5Y-64.5
X139.5Y-72.12
X196.25Y-106.75
X178.0Y-104.5
X178.0Y-109.5
X125.82Y-82.3
X128.36Y-79.76
X130.9Y-82.3
X144.0Y-64.63
X144.0Y-72.25
X196.25Y-101.67
X198.79Y-104.21
X118.0Y-78.0
X123.0Y-78.0
X115.25Y-110.25
X115.25Y-112.79
X115.25Y-115.33
X115.25Y-117.87
X115.25Y-120.41
X115.25Y-122.95
X115.25Y-125.49
X115.25Y-128.03
X122.87Y-110.25
X122.87Y-112.79
X122.87Y-115.33
X122.87Y-117.87
X122.87Y-120.41
X122.87Y-122.95
X122.87Y-125.49
X122.87Y-128.03
X144.0Y-75.13
X144.0Y-82.75
X133.7Y-72.7
X133.7Y-77.7
X168.5Y-65.63
X168.5Y-73.25
X148.0Y-99.5
X194.9Y-74.9
X199.9Y-74.9
X140.38Y-99.5
X107.75Y-78.0
X115.37Y-78.0
X110.5Y-107.75
X148.5Y-113.5
X107.5Y-47.25
X107.5Y-54.87
X139.5Y-48.0
X139.5Y-55.62
X151.04Y-105.88
X153.58Y-105.88
X163.74Y-113.5
X166.28Y-113.5
X129.5Y-105.42
X129.5Y-110.5
X132.04Y-107.96
X156.12Y-105.88
X161.2Y-113.5
X108.25Y-89.75
X108.25Y-97.37
X151.04Y-113.5
X153.58Y-113.5
X156.12Y-113.5
X158.66Y-105.88
X158.66Y-113.5
X161.2Y-105.88
X163.74Y-105.88
X166.28Y-105.88
X196.75Y-51.75
X164.0Y-65.38
X164.0Y-73.0
X124.1Y-102.1
X124.1Y-107.1
X127.75Y-113.5
X127.75Y-118.5
X196.75Y-59.37
X164.0Y-75.88
X164.0Y-83.5
X149.45Y-63.0
X149.45Y-65.54
X149.45Y-68.08
X149.45Y-70.62
X149.45Y-73.16
X149.45Y-75.7
X149.45Y-78.24
X157.07Y-63.0
X157.07Y-65.54
X157.07Y-68.08
X157.07Y-70.62
X157.07Y-73.16
X157.07Y-75.7
X157.07Y-78.24
X108.25Y-82.0
X108.25Y-87.0
X192.2Y-82.98
X199.82Y-77.9
X199.82Y-90.6
X199.82Y-93.14
X199.82Y-95.68
X201.5Y-51.63
X201.5Y-59.25
X192.2Y-77.9
X192.2Y-80.44
X192.2Y-85.52
X192.2Y-88.06
X192.2Y-90.6
X192.2Y-93.14
X192.2Y-95.68
X199.82Y-80.44
X199.82Y-82.98
X199.82Y-85.52
X199.82Y-88.06
X144.0Y-48.0
X144.0Y-55.62
X171.22Y-82.5
X173.76Y-79.96
X176.3Y-82.5
X169.0Y-36.5
X169.0Y-44.12
X179.8Y-101.7
X187.42Y-101.7
X113.5Y-106.3
X121.12Y-106.3
X112.0Y-82.25
X112.0Y-84.79
X112.0Y-87.33
X112.0Y-89.87
X112.0Y-92.41
X112.0Y-94.95
X112.0Y-97.49
X112.0Y-100.03
X119.62Y-82.25
X119.62Y-84.79
X119.62Y-87.33
X119.62Y-89.87
X119.62Y-92.41
X119.62Y-94.95
X119.62Y-97.49
X119.62Y-100.03
X182.5Y-129.25
X190.12Y-129.25
X151.5Y-86.58
X151.5Y-94.2
X154.04Y-86.58
X190.6Y-103.5
X196.25Y-120.67
X163.0Y-99.5
X168.0Y-99.5
X143.0Y-40.4
X145.5Y-40.4
X156.58Y-86.58
X156.58Y-94.2
X196.25Y-125.75
X198.79Y-123.21
X154.04Y-94.2
X164.0Y-38.5
X164.0Y-46.12
X190.6Y-98.5
X127.0Y-54.87
X159.12Y-86.58
X159.12Y-94.2
X127.0Y-47.25
T3
X139.56Y-132.5
X142.1Y-132.5
X144.64Y-132.5
X147.18Y-132.5
X149.72Y-132.5
X152.26Y-132.5
X154.8Y-132.5
X157.34Y-132.5
X159.88Y-132.5
X162.42Y-132.5
X164.96Y-132.5
X167.5Y-132.5
T4
X176.5Y-38.5
X176.5Y-41.04
X176.5Y-43.58
X122.0Y-47.63
X122.0Y-55.25
T5
X196.5Y-65.4
X113.5Y-66.4
T6
X191.35Y-67.0
X201.65Y-67.0
X108.35Y-68.0
X118.65Y-68.0
T7
X172.1Y-90.25
X176.8Y-90.25
X181.5Y-90.25
X126.85Y-89.75
X131.55Y-89.75
X136.25Y-89.75
T3
G00X150.3Y-41.0
M15
G01X150.3Y-43.0
M16
G05
G00X156.0Y-39.0
M15
G01X154.0Y-39.0
M16
G05
G00X156.0Y-45.0
M15
G01X154.0Y-45.0
M16
G05
T0
M30
