M48
; DRILL file {KiCad 5.1.10} date Fri Oct 22 11:35:24 2021
; FORMAT={-:-/ absolute / inch / decimal}
; #@! TF.CreationDate,2021-10-22T11:35:24+13:00
; #@! TF.GenerationSoftware,Kicad,Pcbnew,5.1.10
; #@! TF.FileFunction,Plated,1,2,PTH
FMAT,2
INCH
T1C0.0157
T2C0.0295
T3C0.0315
T4C0.0354
T5C0.0394
T6C0.0433
T7C0.0472
T8C0.0551
T9C0.0669
T10C0.0787
T11C0.0827
%
G90
G05
T1
X4.2323Y-4.7283
X5.815Y-3.2461
X5.8701Y-3.374
X6.0512Y-1.878
X6.1319Y-3.8169
X6.1358Y-4.1673
X6.6201Y-3.8858
X6.8012Y-2.6575
X6.9193Y-4.1831
X6.9409Y-3.6083
X6.9665Y-3.5551
X6.9835Y-4.1846
X7.5256Y-2.6378
X7.5839Y-3.1425
X7.5984Y-3.2402
X7.9154Y-2.8917
T2
X7.3622Y-1.7717
X7.4122Y-1.7217
X7.4622Y-1.7717
T3
X4.1929Y-4.813
X4.198Y-3.1791
X4.2028Y-2.9134
X4.2079Y-2.126
X4.2079Y-2.2835
X4.2079Y-2.7657
X4.3012Y-3.0512
X4.4929Y-4.813
X4.498Y-3.0512
X4.498Y-3.1791
X4.5028Y-2.9134
X4.5079Y-2.126
X4.5079Y-2.2835
X4.5079Y-2.7657
X4.5276Y-3.4547
X4.5276Y-3.6516
X4.626Y-2.126
X4.6654Y-3.4547
X4.6654Y-3.6516
X4.6752Y-3.8287
X4.6752Y-4.065
X4.7717Y-4.8819
X4.7984Y-2.628
X4.8031Y-3.3465
X4.8031Y-3.6465
X4.8228Y-2.126
X4.8307Y-4.3634
X4.8307Y-4.6634
X4.8673Y-3.8287
X4.8673Y-4.065
X4.8717Y-4.9819
X4.9409Y-3.3465
X4.9409Y-3.6465
X4.9508Y-2.2835
X4.9717Y-4.8819
X5.0591Y-2.4213
X5.0787Y-3.5039
X5.0787Y-3.6039
X5.0787Y-3.7039
X5.0787Y-3.8039
X5.0787Y-3.9039
X5.0787Y-4.0039
X5.0787Y-4.1039
X5.0984Y-2.628
X5.1024Y-4.811
X5.1024Y-4.9508
X5.1988Y-3.3583
X5.2067Y-2.7657
X5.2067Y-2.8657
X5.2067Y-2.9657
X5.2067Y-3.0657
X5.2067Y-3.2087
X5.2508Y-2.2835
X5.2559Y-2.4213
X5.2913Y-5.0886
X5.2913Y-5.2264
X5.3228Y-2.6319
X5.3543Y-1.6535
X5.3543Y-1.9535
X5.3787Y-3.5039
X5.3787Y-3.6039
X5.3787Y-3.7039
X5.3787Y-3.8039
X5.3787Y-3.9039
X5.3787Y-4.0039
X5.3787Y-4.1039
X5.3957Y-3.3583
X5.4024Y-4.811
X5.4024Y-4.9508
X5.5067Y-2.7657
X5.5067Y-2.8657
X5.5067Y-2.9657
X5.5067Y-3.0657
X5.5067Y-3.2087
X5.5197Y-2.6319
X5.5512Y-4.811
X5.5913Y-5.0886
X5.5913Y-5.2264
X5.5984Y-3.9567
X5.5984Y-4.0567
X5.5984Y-4.1567
X5.5984Y-4.2567
X5.5984Y-4.3567
X5.5984Y-4.4567
X5.5984Y-4.5567
X5.5984Y-4.6567
X5.6398Y-3.8189
X5.689Y-1.6929
X5.748Y-4.811
X5.7874Y-1.6929
X5.7992Y-2.252
X5.7992Y-2.352
X5.7992Y-2.452
X5.7992Y-2.552
X5.8366Y-3.8189
X5.8661Y-2.9862
X5.8984Y-3.9567
X5.8984Y-4.0567
X5.8984Y-4.1567
X5.8984Y-4.2567
X5.8984Y-4.3567
X5.8984Y-4.4567
X5.8984Y-4.5567
X5.8984Y-4.6567
X5.9606Y-3.1181
X5.9606Y-3.2181
X5.9606Y-3.3181
X5.9606Y-3.4181
X5.9606Y-3.5181
X5.9606Y-3.6181
X5.9606Y-3.7181
X5.9606Y-3.8181
X6.0295Y-3.9567
X6.0315Y-4.0965
X6.063Y-2.9862
X6.0992Y-2.252
X6.0992Y-2.352
X6.0992Y-2.452
X6.0992Y-2.552
X6.1673Y-2.9882
X6.2264Y-3.9567
X6.2283Y-4.0965
X6.2606Y-3.1181
X6.2606Y-3.2181
X6.2606Y-3.3181
X6.2606Y-3.4181
X6.2606Y-3.5181
X6.2606Y-3.6181
X6.2606Y-3.7181
X6.2606Y-3.8181
X6.3622Y-3.9567
X6.3622Y-4.0567
X6.3622Y-4.1567
X6.3622Y-4.2567
X6.3622Y-4.3567
X6.3622Y-4.4567
X6.3622Y-4.5567
X6.3622Y-4.6567
X6.3642Y-2.9882
X6.4075Y-3.6713
X6.4469Y-4.8031
X6.4469Y-4.9409
X6.5157Y-3.8189
X6.6437Y-4.8031
X6.6437Y-4.9409
X6.6622Y-3.9567
X6.6622Y-4.0567
X6.6622Y-4.1567
X6.6622Y-4.2567
X6.6622Y-4.3567
X6.6622Y-4.4567
X6.6622Y-4.5567
X6.6622Y-4.6567
X6.7075Y-3.6713
X6.7079Y-2.7657
X6.7079Y-3.1791
X6.7126Y-2.8937
X6.7126Y-3.8189
X6.7717Y-4.9409
X6.7728Y-5.0768
X6.7736Y-1.7598
X6.7736Y-5.2185
X6.7756Y-2.0787
X6.7768Y-1.9193
X6.811Y-3.0315
X6.8161Y-3.8189
X6.8161Y-3.9567
X6.8161Y-4.0945
X7.0079Y-2.7657
X7.0079Y-3.0315
X7.0079Y-3.1791
X7.0126Y-2.8937
X7.0717Y-4.9409
X7.0728Y-5.0768
X7.0736Y-1.7598
X7.0736Y-5.2185
X7.0756Y-2.0787
X7.0768Y-1.9193
X7.0984Y-3.315
X7.1161Y-3.8189
X7.1161Y-3.9567
X7.1161Y-4.0945
X7.2244Y-1.4323
X7.2244Y-1.7323
X7.2539Y-3.4547
X7.2539Y-3.5547
X7.2539Y-3.6547
X7.2539Y-3.7547
X7.2539Y-3.8547
X7.2539Y-3.9547
X7.2539Y-4.0547
X7.2953Y-3.315
X7.3378Y-1.437
X7.3386Y-4.8819
X7.3425Y-1.5748
X7.3858Y-2.1024
X7.3917Y-4.3772
X7.3917Y-4.6772
X7.3957Y-3.3169
X7.4386Y-4.9819
X7.5386Y-4.8819
X7.5539Y-3.4547
X7.5539Y-3.5547
X7.5539Y-3.6547
X7.5539Y-3.7547
X7.5539Y-3.8547
X7.5539Y-3.9547
X7.5539Y-4.0547
X7.5827Y-2.1024
X7.5925Y-3.3169
X7.6378Y-1.437
X7.6425Y-1.5748
X7.6969Y-2.1063
X7.6969Y-2.2063
X7.6969Y-2.3063
X7.6969Y-2.4063
X7.6969Y-2.5063
X7.6969Y-2.6063
X7.6969Y-2.7063
X7.6969Y-2.8063
X7.7067Y-2.9429
X7.7067Y-3.0429
X7.7067Y-3.1429
X7.7067Y-3.2429
X7.7067Y-3.3429
X7.7067Y-3.4429
X7.7067Y-3.5429
X7.7217Y-4.7933
X7.7264Y-4.9409
X7.9969Y-2.1063
X7.9969Y-2.2063
X7.9969Y-2.3063
X7.9969Y-2.4063
X7.9969Y-2.5063
X7.9969Y-2.6063
X7.9969Y-2.7063
X7.9969Y-2.8063
X8.0067Y-2.9429
X8.0067Y-3.0429
X8.0067Y-3.1429
X8.0067Y-3.2429
X8.0067Y-3.3429
X8.0067Y-3.4429
X8.0067Y-3.5429
X8.0217Y-4.7933
X8.0264Y-4.9409
T4
X4.2776Y-3.7717
X4.2776Y-3.8898
X4.2776Y-4.0079
X7.9508Y-3.7717
X7.9508Y-3.8898
X7.9508Y-4.0079
T5
X4.3307Y-4.6949
X4.4291Y-4.6949
X4.5276Y-4.6949
X4.7539Y-3.2087
X4.8524Y-3.2087
X4.9508Y-3.2087
X5.1575Y-4.685
X5.2559Y-4.685
X5.3543Y-4.685
X6.0039Y-5.2559
X6.1024Y-5.2559
X6.2008Y-5.2559
X6.3669Y-1.4567
X6.3669Y-1.5567
X6.4669Y-1.4567
X6.4669Y-1.5567
X6.5669Y-1.4567
X6.5669Y-1.5567
X6.6669Y-1.4567
X6.6669Y-1.5567
X6.7669Y-1.4567
X6.7669Y-1.5567
X6.8669Y-1.4567
X6.8669Y-1.5567
X6.9134Y-4.6752
X6.9669Y-1.4567
X6.9669Y-1.5567
X7.0118Y-4.6752
X7.0669Y-1.4567
X7.0669Y-1.5567
X7.1102Y-4.6752
X7.2539Y-3.1988
X7.3524Y-3.1988
X7.4508Y-3.1988
X7.687Y-4.6752
X7.7854Y-4.6752
X7.8839Y-4.6752
T6
X4.9606Y-2.126
X5.2606Y-2.126
X5.5118Y-1.5157
X5.6118Y-1.5157
X5.7118Y-1.5157
T7
X4.8642Y-1.6988
X4.8839Y-1.622
X5.0669Y-1.622
X5.0866Y-1.6988
T8
X4.7913Y-1.6831
T9
X4.4094Y-1.7677
X7.7953Y-1.7677
T10
X4.2067Y-1.8307
X4.6122Y-1.8307
X7.5925Y-1.8307
X7.998Y-1.8307
T11
X4.6831Y-5.1732
X4.8681Y-5.1732
X5.0531Y-5.1732
X7.25Y-5.1811
X7.435Y-5.1811
X7.6201Y-5.1811
T5
G00X4.2972Y-3.6575
M15
G01X4.2539Y-3.6575
M16
G05
G00X4.2972Y-4.122
M15
G01X4.2539Y-4.122
M16
G05
G00X5.9173Y-1.5551
M15
G01X5.9173Y-1.6339
M16
G05
G00X6.1417Y-1.4764
M15
G01X6.063Y-1.4764
M16
G05
G00X6.1417Y-1.7126
M15
G01X6.063Y-1.7126
M16
G05
G00X7.9705Y-3.6575
M15
G01X7.9272Y-3.6575
M16
G05
G00X7.9705Y-4.122
M15
G01X7.9272Y-4.122
M16
G05
T8
G00X5.1594Y-1.6831
M15
G01X5.1594Y-1.6831
M16
G05
T0
M30
