G04 #@! TF.GenerationSoftware,KiCad,Pcbnew,5.1.10*
G04 #@! TF.CreationDate,2021-10-22T11:34:36+13:00*
G04 #@! TF.ProjectId,two_point_one_colorizer,74776f5f-706f-4696-9e74-5f6f6e655f63,rev?*
G04 #@! TF.SameCoordinates,Original*
G04 #@! TF.FileFunction,Legend,Top*
G04 #@! TF.FilePolarity,Positive*
%FSLAX46Y46*%
G04 Gerber Fmt 4.6, Leading zero omitted, Abs format (unit mm)*
G04 Created by KiCad (PCBNEW 5.1.10) date 2021-10-22 11:34:36*
%MOMM*%
%LPD*%
G01*
G04 APERTURE LIST*
%ADD10C,0.350000*%
%ADD11C,0.200000*%
%ADD12C,0.450000*%
%ADD13C,0.120000*%
%ADD14C,0.127000*%
%ADD15C,0.400000*%
%ADD16C,0.150000*%
G04 APERTURE END LIST*
D10*
X107120000Y-120280000D02*
X149950000Y-120280000D01*
X161100000Y-120290000D02*
X203930000Y-120290000D01*
X116540000Y-68090000D02*
X148280000Y-68090000D01*
X162310000Y-67990000D02*
X192820000Y-67990000D01*
D11*
X112835714Y-102173809D02*
X113835714Y-102173809D01*
X112883333Y-102173809D02*
X112835714Y-102078571D01*
X112835714Y-101888095D01*
X112883333Y-101792857D01*
X112930952Y-101745238D01*
X113026190Y-101697619D01*
X113311904Y-101697619D01*
X113407142Y-101745238D01*
X113454761Y-101792857D01*
X113502380Y-101888095D01*
X113502380Y-102078571D01*
X113454761Y-102173809D01*
X113502380Y-100840476D02*
X112978571Y-100840476D01*
X112883333Y-100888095D01*
X112835714Y-100983333D01*
X112835714Y-101173809D01*
X112883333Y-101269047D01*
X113454761Y-100840476D02*
X113502380Y-100935714D01*
X113502380Y-101173809D01*
X113454761Y-101269047D01*
X113359523Y-101316666D01*
X113264285Y-101316666D01*
X113169047Y-101269047D01*
X113121428Y-101173809D01*
X113121428Y-100935714D01*
X113073809Y-100840476D01*
X113502380Y-100221428D02*
X113454761Y-100316666D01*
X113359523Y-100364285D01*
X112502380Y-100364285D01*
X112454761Y-99126190D02*
X113740476Y-99983333D01*
X112835714Y-98792857D02*
X113502380Y-98792857D01*
X112930952Y-98792857D02*
X112883333Y-98745238D01*
X112835714Y-98650000D01*
X112835714Y-98507142D01*
X112883333Y-98411904D01*
X112978571Y-98364285D01*
X113502380Y-98364285D01*
X112835714Y-98030952D02*
X112835714Y-97650000D01*
X112502380Y-97888095D02*
X113359523Y-97888095D01*
X113454761Y-97840476D01*
X113502380Y-97745238D01*
X113502380Y-97650000D01*
X113454761Y-97364285D02*
X113502380Y-97269047D01*
X113502380Y-97078571D01*
X113454761Y-96983333D01*
X113359523Y-96935714D01*
X113311904Y-96935714D01*
X113216666Y-96983333D01*
X113169047Y-97078571D01*
X113169047Y-97221428D01*
X113121428Y-97316666D01*
X113026190Y-97364285D01*
X112978571Y-97364285D01*
X112883333Y-97316666D01*
X112835714Y-97221428D01*
X112835714Y-97078571D01*
X112883333Y-96983333D01*
X113454761Y-96078571D02*
X113502380Y-96173809D01*
X113502380Y-96364285D01*
X113454761Y-96459523D01*
X113407142Y-96507142D01*
X113311904Y-96554761D01*
X113026190Y-96554761D01*
X112930952Y-96507142D01*
X112883333Y-96459523D01*
X112835714Y-96364285D01*
X112835714Y-96173809D01*
X112883333Y-96078571D01*
X172012857Y-57192857D02*
X172470000Y-57192857D01*
X172184285Y-56792857D02*
X172184285Y-57821428D01*
X172241428Y-57935714D01*
X172355714Y-57992857D01*
X172470000Y-57992857D01*
X172755714Y-57192857D02*
X172984285Y-57992857D01*
X173212857Y-57421428D01*
X173441428Y-57992857D01*
X173670000Y-57192857D01*
X174298571Y-57992857D02*
X174184285Y-57935714D01*
X174127142Y-57878571D01*
X174070000Y-57764285D01*
X174070000Y-57421428D01*
X174127142Y-57307142D01*
X174184285Y-57250000D01*
X174298571Y-57192857D01*
X174470000Y-57192857D01*
X174584285Y-57250000D01*
X174641428Y-57307142D01*
X174698571Y-57421428D01*
X174698571Y-57764285D01*
X174641428Y-57878571D01*
X174584285Y-57935714D01*
X174470000Y-57992857D01*
X174298571Y-57992857D01*
X174927142Y-58107142D02*
X175841428Y-58107142D01*
X176127142Y-57192857D02*
X176127142Y-58392857D01*
X176127142Y-57250000D02*
X176241428Y-57192857D01*
X176470000Y-57192857D01*
X176584285Y-57250000D01*
X176641428Y-57307142D01*
X176698571Y-57421428D01*
X176698571Y-57764285D01*
X176641428Y-57878571D01*
X176584285Y-57935714D01*
X176470000Y-57992857D01*
X176241428Y-57992857D01*
X176127142Y-57935714D01*
X177384285Y-57992857D02*
X177270000Y-57935714D01*
X177212857Y-57878571D01*
X177155714Y-57764285D01*
X177155714Y-57421428D01*
X177212857Y-57307142D01*
X177270000Y-57250000D01*
X177384285Y-57192857D01*
X177555714Y-57192857D01*
X177670000Y-57250000D01*
X177727142Y-57307142D01*
X177784285Y-57421428D01*
X177784285Y-57764285D01*
X177727142Y-57878571D01*
X177670000Y-57935714D01*
X177555714Y-57992857D01*
X177384285Y-57992857D01*
X178298571Y-57992857D02*
X178298571Y-57192857D01*
X178298571Y-56792857D02*
X178241428Y-56850000D01*
X178298571Y-56907142D01*
X178355714Y-56850000D01*
X178298571Y-56792857D01*
X178298571Y-56907142D01*
X178870000Y-57192857D02*
X178870000Y-57992857D01*
X178870000Y-57307142D02*
X178927142Y-57250000D01*
X179041428Y-57192857D01*
X179212857Y-57192857D01*
X179327142Y-57250000D01*
X179384285Y-57364285D01*
X179384285Y-57992857D01*
X179784285Y-57192857D02*
X180241428Y-57192857D01*
X179955714Y-56792857D02*
X179955714Y-57821428D01*
X180012857Y-57935714D01*
X180127142Y-57992857D01*
X180241428Y-57992857D01*
X180355714Y-58107142D02*
X181270000Y-58107142D01*
X181727142Y-57992857D02*
X181612857Y-57935714D01*
X181555714Y-57878571D01*
X181498571Y-57764285D01*
X181498571Y-57421428D01*
X181555714Y-57307142D01*
X181612857Y-57250000D01*
X181727142Y-57192857D01*
X181898571Y-57192857D01*
X182012857Y-57250000D01*
X182070000Y-57307142D01*
X182127142Y-57421428D01*
X182127142Y-57764285D01*
X182070000Y-57878571D01*
X182012857Y-57935714D01*
X181898571Y-57992857D01*
X181727142Y-57992857D01*
X182641428Y-57192857D02*
X182641428Y-57992857D01*
X182641428Y-57307142D02*
X182698571Y-57250000D01*
X182812857Y-57192857D01*
X182984285Y-57192857D01*
X183098571Y-57250000D01*
X183155714Y-57364285D01*
X183155714Y-57992857D01*
X184184285Y-57935714D02*
X184070000Y-57992857D01*
X183841428Y-57992857D01*
X183727142Y-57935714D01*
X183670000Y-57821428D01*
X183670000Y-57364285D01*
X183727142Y-57250000D01*
X183841428Y-57192857D01*
X184070000Y-57192857D01*
X184184285Y-57250000D01*
X184241428Y-57364285D01*
X184241428Y-57478571D01*
X183670000Y-57592857D01*
X184470000Y-58107142D02*
X185384285Y-58107142D01*
X186184285Y-57935714D02*
X186070000Y-57992857D01*
X185841428Y-57992857D01*
X185727142Y-57935714D01*
X185670000Y-57878571D01*
X185612857Y-57764285D01*
X185612857Y-57421428D01*
X185670000Y-57307142D01*
X185727142Y-57250000D01*
X185841428Y-57192857D01*
X186070000Y-57192857D01*
X186184285Y-57250000D01*
X186870000Y-57992857D02*
X186755714Y-57935714D01*
X186698571Y-57878571D01*
X186641428Y-57764285D01*
X186641428Y-57421428D01*
X186698571Y-57307142D01*
X186755714Y-57250000D01*
X186870000Y-57192857D01*
X187041428Y-57192857D01*
X187155714Y-57250000D01*
X187212857Y-57307142D01*
X187270000Y-57421428D01*
X187270000Y-57764285D01*
X187212857Y-57878571D01*
X187155714Y-57935714D01*
X187041428Y-57992857D01*
X186870000Y-57992857D01*
X187955714Y-57992857D02*
X187841428Y-57935714D01*
X187784285Y-57821428D01*
X187784285Y-56792857D01*
X188584285Y-57992857D02*
X188470000Y-57935714D01*
X188412857Y-57878571D01*
X188355714Y-57764285D01*
X188355714Y-57421428D01*
X188412857Y-57307142D01*
X188470000Y-57250000D01*
X188584285Y-57192857D01*
X188755714Y-57192857D01*
X188870000Y-57250000D01*
X188927142Y-57307142D01*
X188984285Y-57421428D01*
X188984285Y-57764285D01*
X188927142Y-57878571D01*
X188870000Y-57935714D01*
X188755714Y-57992857D01*
X188584285Y-57992857D01*
X189498571Y-57992857D02*
X189498571Y-57192857D01*
X189498571Y-57421428D02*
X189555714Y-57307142D01*
X189612857Y-57250000D01*
X189727142Y-57192857D01*
X189841428Y-57192857D01*
X190241428Y-57992857D02*
X190241428Y-57192857D01*
X190241428Y-56792857D02*
X190184285Y-56850000D01*
X190241428Y-56907142D01*
X190298571Y-56850000D01*
X190241428Y-56792857D01*
X190241428Y-56907142D01*
X190698571Y-57192857D02*
X191327142Y-57192857D01*
X190698571Y-57992857D01*
X191327142Y-57992857D01*
X192241428Y-57935714D02*
X192127142Y-57992857D01*
X191898571Y-57992857D01*
X191784285Y-57935714D01*
X191727142Y-57821428D01*
X191727142Y-57364285D01*
X191784285Y-57250000D01*
X191898571Y-57192857D01*
X192127142Y-57192857D01*
X192241428Y-57250000D01*
X192298571Y-57364285D01*
X192298571Y-57478571D01*
X191727142Y-57592857D01*
X192812857Y-57992857D02*
X192812857Y-57192857D01*
X192812857Y-57421428D02*
X192870000Y-57307142D01*
X192927142Y-57250000D01*
X193041428Y-57192857D01*
X193155714Y-57192857D01*
X189327142Y-59192857D02*
X189612857Y-59992857D01*
X189898571Y-59192857D01*
X190584285Y-58792857D02*
X190698571Y-58792857D01*
X190812857Y-58850000D01*
X190870000Y-58907142D01*
X190927142Y-59021428D01*
X190984285Y-59250000D01*
X190984285Y-59535714D01*
X190927142Y-59764285D01*
X190870000Y-59878571D01*
X190812857Y-59935714D01*
X190698571Y-59992857D01*
X190584285Y-59992857D01*
X190470000Y-59935714D01*
X190412857Y-59878571D01*
X190355714Y-59764285D01*
X190298571Y-59535714D01*
X190298571Y-59250000D01*
X190355714Y-59021428D01*
X190412857Y-58907142D01*
X190470000Y-58850000D01*
X190584285Y-58792857D01*
X191212857Y-60107142D02*
X192127142Y-60107142D01*
X192298571Y-58792857D02*
X193041428Y-58792857D01*
X192641428Y-59250000D01*
X192812857Y-59250000D01*
X192927142Y-59307142D01*
X192984285Y-59364285D01*
X193041428Y-59478571D01*
X193041428Y-59764285D01*
X192984285Y-59878571D01*
X192927142Y-59935714D01*
X192812857Y-59992857D01*
X192470000Y-59992857D01*
X192355714Y-59935714D01*
X192298571Y-59878571D01*
X167098571Y-61992857D02*
X167098571Y-60792857D01*
X167098571Y-61250000D02*
X167212857Y-61192857D01*
X167441428Y-61192857D01*
X167555714Y-61250000D01*
X167612857Y-61307142D01*
X167670000Y-61421428D01*
X167670000Y-61764285D01*
X167612857Y-61878571D01*
X167555714Y-61935714D01*
X167441428Y-61992857D01*
X167212857Y-61992857D01*
X167098571Y-61935714D01*
X168698571Y-61992857D02*
X168698571Y-61364285D01*
X168641428Y-61250000D01*
X168527142Y-61192857D01*
X168298571Y-61192857D01*
X168184285Y-61250000D01*
X168698571Y-61935714D02*
X168584285Y-61992857D01*
X168298571Y-61992857D01*
X168184285Y-61935714D01*
X168127142Y-61821428D01*
X168127142Y-61707142D01*
X168184285Y-61592857D01*
X168298571Y-61535714D01*
X168584285Y-61535714D01*
X168698571Y-61478571D01*
X169212857Y-61935714D02*
X169327142Y-61992857D01*
X169555714Y-61992857D01*
X169670000Y-61935714D01*
X169727142Y-61821428D01*
X169727142Y-61764285D01*
X169670000Y-61650000D01*
X169555714Y-61592857D01*
X169384285Y-61592857D01*
X169270000Y-61535714D01*
X169212857Y-61421428D01*
X169212857Y-61364285D01*
X169270000Y-61250000D01*
X169384285Y-61192857D01*
X169555714Y-61192857D01*
X169670000Y-61250000D01*
X170698571Y-61935714D02*
X170584285Y-61992857D01*
X170355714Y-61992857D01*
X170241428Y-61935714D01*
X170184285Y-61821428D01*
X170184285Y-61364285D01*
X170241428Y-61250000D01*
X170355714Y-61192857D01*
X170584285Y-61192857D01*
X170698571Y-61250000D01*
X170755714Y-61364285D01*
X170755714Y-61478571D01*
X170184285Y-61592857D01*
X171784285Y-61992857D02*
X171784285Y-60792857D01*
X171784285Y-61935714D02*
X171670000Y-61992857D01*
X171441428Y-61992857D01*
X171327142Y-61935714D01*
X171270000Y-61878571D01*
X171212857Y-61764285D01*
X171212857Y-61421428D01*
X171270000Y-61307142D01*
X171327142Y-61250000D01*
X171441428Y-61192857D01*
X171670000Y-61192857D01*
X171784285Y-61250000D01*
X173441428Y-61992857D02*
X173327142Y-61935714D01*
X173270000Y-61878571D01*
X173212857Y-61764285D01*
X173212857Y-61421428D01*
X173270000Y-61307142D01*
X173327142Y-61250000D01*
X173441428Y-61192857D01*
X173612857Y-61192857D01*
X173727142Y-61250000D01*
X173784285Y-61307142D01*
X173841428Y-61421428D01*
X173841428Y-61764285D01*
X173784285Y-61878571D01*
X173727142Y-61935714D01*
X173612857Y-61992857D01*
X173441428Y-61992857D01*
X174355714Y-61192857D02*
X174355714Y-61992857D01*
X174355714Y-61307142D02*
X174412857Y-61250000D01*
X174527142Y-61192857D01*
X174698571Y-61192857D01*
X174812857Y-61250000D01*
X174870000Y-61364285D01*
X174870000Y-61992857D01*
X176355714Y-61992857D02*
X176355714Y-61192857D01*
X176355714Y-61421428D02*
X176412857Y-61307142D01*
X176470000Y-61250000D01*
X176584285Y-61192857D01*
X176698571Y-61192857D01*
X177270000Y-61992857D02*
X177155714Y-61935714D01*
X177098571Y-61878571D01*
X177041428Y-61764285D01*
X177041428Y-61421428D01*
X177098571Y-61307142D01*
X177155714Y-61250000D01*
X177270000Y-61192857D01*
X177441428Y-61192857D01*
X177555714Y-61250000D01*
X177612857Y-61307142D01*
X177670000Y-61421428D01*
X177670000Y-61764285D01*
X177612857Y-61878571D01*
X177555714Y-61935714D01*
X177441428Y-61992857D01*
X177270000Y-61992857D01*
X178184285Y-61992857D02*
X178184285Y-60792857D01*
X178184285Y-61250000D02*
X178298571Y-61192857D01*
X178527142Y-61192857D01*
X178641428Y-61250000D01*
X178698571Y-61307142D01*
X178755714Y-61421428D01*
X178755714Y-61764285D01*
X178698571Y-61878571D01*
X178641428Y-61935714D01*
X178527142Y-61992857D01*
X178298571Y-61992857D01*
X178184285Y-61935714D01*
X180127142Y-61935714D02*
X180241428Y-61992857D01*
X180470000Y-61992857D01*
X180584285Y-61935714D01*
X180641428Y-61821428D01*
X180641428Y-61764285D01*
X180584285Y-61650000D01*
X180470000Y-61592857D01*
X180298571Y-61592857D01*
X180184285Y-61535714D01*
X180127142Y-61421428D01*
X180127142Y-61364285D01*
X180184285Y-61250000D01*
X180298571Y-61192857D01*
X180470000Y-61192857D01*
X180584285Y-61250000D01*
X181670000Y-61935714D02*
X181555714Y-61992857D01*
X181327142Y-61992857D01*
X181212857Y-61935714D01*
X181155714Y-61878571D01*
X181098571Y-61764285D01*
X181098571Y-61421428D01*
X181155714Y-61307142D01*
X181212857Y-61250000D01*
X181327142Y-61192857D01*
X181555714Y-61192857D01*
X181670000Y-61250000D01*
X182184285Y-61992857D02*
X182184285Y-60792857D01*
X182698571Y-61992857D02*
X182698571Y-61364285D01*
X182641428Y-61250000D01*
X182527142Y-61192857D01*
X182355714Y-61192857D01*
X182241428Y-61250000D01*
X182184285Y-61307142D01*
X183784285Y-61992857D02*
X183784285Y-61364285D01*
X183727142Y-61250000D01*
X183612857Y-61192857D01*
X183384285Y-61192857D01*
X183270000Y-61250000D01*
X183784285Y-61935714D02*
X183670000Y-61992857D01*
X183384285Y-61992857D01*
X183270000Y-61935714D01*
X183212857Y-61821428D01*
X183212857Y-61707142D01*
X183270000Y-61592857D01*
X183384285Y-61535714D01*
X183670000Y-61535714D01*
X183784285Y-61478571D01*
X184184285Y-61192857D02*
X184641428Y-61192857D01*
X184355714Y-61992857D02*
X184355714Y-60964285D01*
X184412857Y-60850000D01*
X184527142Y-60792857D01*
X184641428Y-60792857D01*
X185498571Y-61935714D02*
X185384285Y-61992857D01*
X185155714Y-61992857D01*
X185041428Y-61935714D01*
X184984285Y-61821428D01*
X184984285Y-61364285D01*
X185041428Y-61250000D01*
X185155714Y-61192857D01*
X185384285Y-61192857D01*
X185498571Y-61250000D01*
X185555714Y-61364285D01*
X185555714Y-61478571D01*
X184984285Y-61592857D01*
X186070000Y-61992857D02*
X186070000Y-61192857D01*
X186070000Y-61421428D02*
X186127142Y-61307142D01*
X186184285Y-61250000D01*
X186298571Y-61192857D01*
X186412857Y-61192857D01*
X188241428Y-61992857D02*
X188241428Y-60792857D01*
X188241428Y-61935714D02*
X188127142Y-61992857D01*
X187898571Y-61992857D01*
X187784285Y-61935714D01*
X187727142Y-61878571D01*
X187670000Y-61764285D01*
X187670000Y-61421428D01*
X187727142Y-61307142D01*
X187784285Y-61250000D01*
X187898571Y-61192857D01*
X188127142Y-61192857D01*
X188241428Y-61250000D01*
X189270000Y-61935714D02*
X189155714Y-61992857D01*
X188927142Y-61992857D01*
X188812857Y-61935714D01*
X188755714Y-61821428D01*
X188755714Y-61364285D01*
X188812857Y-61250000D01*
X188927142Y-61192857D01*
X189155714Y-61192857D01*
X189270000Y-61250000D01*
X189327142Y-61364285D01*
X189327142Y-61478571D01*
X188755714Y-61592857D01*
X189784285Y-61935714D02*
X189898571Y-61992857D01*
X190127142Y-61992857D01*
X190241428Y-61935714D01*
X190298571Y-61821428D01*
X190298571Y-61764285D01*
X190241428Y-61650000D01*
X190127142Y-61592857D01*
X189955714Y-61592857D01*
X189841428Y-61535714D01*
X189784285Y-61421428D01*
X189784285Y-61364285D01*
X189841428Y-61250000D01*
X189955714Y-61192857D01*
X190127142Y-61192857D01*
X190241428Y-61250000D01*
X190812857Y-61992857D02*
X190812857Y-61192857D01*
X190812857Y-60792857D02*
X190755714Y-60850000D01*
X190812857Y-60907142D01*
X190870000Y-60850000D01*
X190812857Y-60792857D01*
X190812857Y-60907142D01*
X191898571Y-61192857D02*
X191898571Y-62164285D01*
X191841428Y-62278571D01*
X191784285Y-62335714D01*
X191670000Y-62392857D01*
X191498571Y-62392857D01*
X191384285Y-62335714D01*
X191898571Y-61935714D02*
X191784285Y-61992857D01*
X191555714Y-61992857D01*
X191441428Y-61935714D01*
X191384285Y-61878571D01*
X191327142Y-61764285D01*
X191327142Y-61421428D01*
X191384285Y-61307142D01*
X191441428Y-61250000D01*
X191555714Y-61192857D01*
X191784285Y-61192857D01*
X191898571Y-61250000D01*
X192470000Y-61192857D02*
X192470000Y-61992857D01*
X192470000Y-61307142D02*
X192527142Y-61250000D01*
X192641428Y-61192857D01*
X192812857Y-61192857D01*
X192927142Y-61250000D01*
X192984285Y-61364285D01*
X192984285Y-61992857D01*
X171784285Y-63192857D02*
X171784285Y-63992857D01*
X171270000Y-63192857D02*
X171270000Y-63821428D01*
X171327142Y-63935714D01*
X171441428Y-63992857D01*
X171612857Y-63992857D01*
X171727142Y-63935714D01*
X171784285Y-63878571D01*
X172355714Y-63192857D02*
X172355714Y-64392857D01*
X172355714Y-63250000D02*
X172470000Y-63192857D01*
X172698571Y-63192857D01*
X172812857Y-63250000D01*
X172870000Y-63307142D01*
X172927142Y-63421428D01*
X172927142Y-63764285D01*
X172870000Y-63878571D01*
X172812857Y-63935714D01*
X172698571Y-63992857D01*
X172470000Y-63992857D01*
X172355714Y-63935714D01*
X173955714Y-63992857D02*
X173955714Y-62792857D01*
X173955714Y-63935714D02*
X173841428Y-63992857D01*
X173612857Y-63992857D01*
X173498571Y-63935714D01*
X173441428Y-63878571D01*
X173384285Y-63764285D01*
X173384285Y-63421428D01*
X173441428Y-63307142D01*
X173498571Y-63250000D01*
X173612857Y-63192857D01*
X173841428Y-63192857D01*
X173955714Y-63250000D01*
X175041428Y-63992857D02*
X175041428Y-63364285D01*
X174984285Y-63250000D01*
X174870000Y-63192857D01*
X174641428Y-63192857D01*
X174527142Y-63250000D01*
X175041428Y-63935714D02*
X174927142Y-63992857D01*
X174641428Y-63992857D01*
X174527142Y-63935714D01*
X174470000Y-63821428D01*
X174470000Y-63707142D01*
X174527142Y-63592857D01*
X174641428Y-63535714D01*
X174927142Y-63535714D01*
X175041428Y-63478571D01*
X175441428Y-63192857D02*
X175898571Y-63192857D01*
X175612857Y-62792857D02*
X175612857Y-63821428D01*
X175670000Y-63935714D01*
X175784285Y-63992857D01*
X175898571Y-63992857D01*
X176755714Y-63935714D02*
X176641428Y-63992857D01*
X176412857Y-63992857D01*
X176298571Y-63935714D01*
X176241428Y-63821428D01*
X176241428Y-63364285D01*
X176298571Y-63250000D01*
X176412857Y-63192857D01*
X176641428Y-63192857D01*
X176755714Y-63250000D01*
X176812857Y-63364285D01*
X176812857Y-63478571D01*
X176241428Y-63592857D01*
X177841428Y-63992857D02*
X177841428Y-62792857D01*
X177841428Y-63935714D02*
X177727142Y-63992857D01*
X177498571Y-63992857D01*
X177384285Y-63935714D01*
X177327142Y-63878571D01*
X177270000Y-63764285D01*
X177270000Y-63421428D01*
X177327142Y-63307142D01*
X177384285Y-63250000D01*
X177498571Y-63192857D01*
X177727142Y-63192857D01*
X177841428Y-63250000D01*
X179327142Y-63992857D02*
X179327142Y-62792857D01*
X179327142Y-63250000D02*
X179441428Y-63192857D01*
X179670000Y-63192857D01*
X179784285Y-63250000D01*
X179841428Y-63307142D01*
X179898571Y-63421428D01*
X179898571Y-63764285D01*
X179841428Y-63878571D01*
X179784285Y-63935714D01*
X179670000Y-63992857D01*
X179441428Y-63992857D01*
X179327142Y-63935714D01*
X180298571Y-63192857D02*
X180584285Y-63992857D01*
X180870000Y-63192857D02*
X180584285Y-63992857D01*
X180470000Y-64278571D01*
X180412857Y-64335714D01*
X180298571Y-64392857D01*
X182755714Y-63935714D02*
X182641428Y-63992857D01*
X182412857Y-63992857D01*
X182298571Y-63935714D01*
X182241428Y-63878571D01*
X182184285Y-63764285D01*
X182184285Y-63421428D01*
X182241428Y-63307142D01*
X182298571Y-63250000D01*
X182412857Y-63192857D01*
X182641428Y-63192857D01*
X182755714Y-63250000D01*
X183155714Y-63192857D02*
X183441428Y-63992857D01*
X183727142Y-63192857D02*
X183441428Y-63992857D01*
X183327142Y-64278571D01*
X183270000Y-64335714D01*
X183155714Y-64392857D01*
X184184285Y-63992857D02*
X184184285Y-62792857D01*
X184184285Y-63250000D02*
X184298571Y-63192857D01*
X184527142Y-63192857D01*
X184641428Y-63250000D01*
X184698571Y-63307142D01*
X184755714Y-63421428D01*
X184755714Y-63764285D01*
X184698571Y-63878571D01*
X184641428Y-63935714D01*
X184527142Y-63992857D01*
X184298571Y-63992857D01*
X184184285Y-63935714D01*
X185727142Y-63935714D02*
X185612857Y-63992857D01*
X185384285Y-63992857D01*
X185270000Y-63935714D01*
X185212857Y-63821428D01*
X185212857Y-63364285D01*
X185270000Y-63250000D01*
X185384285Y-63192857D01*
X185612857Y-63192857D01*
X185727142Y-63250000D01*
X185784285Y-63364285D01*
X185784285Y-63478571D01*
X185212857Y-63592857D01*
X186298571Y-63992857D02*
X186298571Y-63192857D01*
X186298571Y-63421428D02*
X186355714Y-63307142D01*
X186412857Y-63250000D01*
X186527142Y-63192857D01*
X186641428Y-63192857D01*
X187041428Y-63992857D02*
X187041428Y-62792857D01*
X187041428Y-63250000D02*
X187155714Y-63192857D01*
X187384285Y-63192857D01*
X187498571Y-63250000D01*
X187555714Y-63307142D01*
X187612857Y-63421428D01*
X187612857Y-63764285D01*
X187555714Y-63878571D01*
X187498571Y-63935714D01*
X187384285Y-63992857D01*
X187155714Y-63992857D01*
X187041428Y-63935714D01*
X188298571Y-63992857D02*
X188184285Y-63935714D01*
X188127142Y-63878571D01*
X188070000Y-63764285D01*
X188070000Y-63421428D01*
X188127142Y-63307142D01*
X188184285Y-63250000D01*
X188298571Y-63192857D01*
X188470000Y-63192857D01*
X188584285Y-63250000D01*
X188641428Y-63307142D01*
X188698571Y-63421428D01*
X188698571Y-63764285D01*
X188641428Y-63878571D01*
X188584285Y-63935714D01*
X188470000Y-63992857D01*
X188298571Y-63992857D01*
X189098571Y-63192857D02*
X189384285Y-63992857D01*
X189670000Y-63192857D02*
X189384285Y-63992857D01*
X189270000Y-64278571D01*
X189212857Y-64335714D01*
X189098571Y-64392857D01*
X190641428Y-62792857D02*
X190412857Y-62792857D01*
X190298571Y-62850000D01*
X190241428Y-62907142D01*
X190127142Y-63078571D01*
X190070000Y-63307142D01*
X190070000Y-63764285D01*
X190127142Y-63878571D01*
X190184285Y-63935714D01*
X190298571Y-63992857D01*
X190527142Y-63992857D01*
X190641428Y-63935714D01*
X190698571Y-63878571D01*
X190755714Y-63764285D01*
X190755714Y-63478571D01*
X190698571Y-63364285D01*
X190641428Y-63307142D01*
X190527142Y-63250000D01*
X190298571Y-63250000D01*
X190184285Y-63307142D01*
X190127142Y-63364285D01*
X190070000Y-63478571D01*
X191784285Y-62792857D02*
X191555714Y-62792857D01*
X191441428Y-62850000D01*
X191384285Y-62907142D01*
X191270000Y-63078571D01*
X191212857Y-63307142D01*
X191212857Y-63764285D01*
X191270000Y-63878571D01*
X191327142Y-63935714D01*
X191441428Y-63992857D01*
X191670000Y-63992857D01*
X191784285Y-63935714D01*
X191841428Y-63878571D01*
X191898571Y-63764285D01*
X191898571Y-63478571D01*
X191841428Y-63364285D01*
X191784285Y-63307142D01*
X191670000Y-63250000D01*
X191441428Y-63250000D01*
X191327142Y-63307142D01*
X191270000Y-63364285D01*
X191212857Y-63478571D01*
X192927142Y-62792857D02*
X192698571Y-62792857D01*
X192584285Y-62850000D01*
X192527142Y-62907142D01*
X192412857Y-63078571D01*
X192355714Y-63307142D01*
X192355714Y-63764285D01*
X192412857Y-63878571D01*
X192470000Y-63935714D01*
X192584285Y-63992857D01*
X192812857Y-63992857D01*
X192927142Y-63935714D01*
X192984285Y-63878571D01*
X193041428Y-63764285D01*
X193041428Y-63478571D01*
X192984285Y-63364285D01*
X192927142Y-63307142D01*
X192812857Y-63250000D01*
X192584285Y-63250000D01*
X192470000Y-63307142D01*
X192412857Y-63364285D01*
X192355714Y-63478571D01*
X197385714Y-101823809D02*
X198385714Y-101823809D01*
X197433333Y-101823809D02*
X197385714Y-101728571D01*
X197385714Y-101538095D01*
X197433333Y-101442857D01*
X197480952Y-101395238D01*
X197576190Y-101347619D01*
X197861904Y-101347619D01*
X197957142Y-101395238D01*
X198004761Y-101442857D01*
X198052380Y-101538095D01*
X198052380Y-101728571D01*
X198004761Y-101823809D01*
X198052380Y-100490476D02*
X197528571Y-100490476D01*
X197433333Y-100538095D01*
X197385714Y-100633333D01*
X197385714Y-100823809D01*
X197433333Y-100919047D01*
X198004761Y-100490476D02*
X198052380Y-100585714D01*
X198052380Y-100823809D01*
X198004761Y-100919047D01*
X197909523Y-100966666D01*
X197814285Y-100966666D01*
X197719047Y-100919047D01*
X197671428Y-100823809D01*
X197671428Y-100585714D01*
X197623809Y-100490476D01*
X198052380Y-99871428D02*
X198004761Y-99966666D01*
X197909523Y-100014285D01*
X197052380Y-100014285D01*
X197004761Y-98776190D02*
X198290476Y-99633333D01*
X197385714Y-98442857D02*
X198052380Y-98442857D01*
X197480952Y-98442857D02*
X197433333Y-98395238D01*
X197385714Y-98300000D01*
X197385714Y-98157142D01*
X197433333Y-98061904D01*
X197528571Y-98014285D01*
X198052380Y-98014285D01*
X197385714Y-97680952D02*
X197385714Y-97300000D01*
X197052380Y-97538095D02*
X197909523Y-97538095D01*
X198004761Y-97490476D01*
X198052380Y-97395238D01*
X198052380Y-97300000D01*
X198004761Y-97014285D02*
X198052380Y-96919047D01*
X198052380Y-96728571D01*
X198004761Y-96633333D01*
X197909523Y-96585714D01*
X197861904Y-96585714D01*
X197766666Y-96633333D01*
X197719047Y-96728571D01*
X197719047Y-96871428D01*
X197671428Y-96966666D01*
X197576190Y-97014285D01*
X197528571Y-97014285D01*
X197433333Y-96966666D01*
X197385714Y-96871428D01*
X197385714Y-96728571D01*
X197433333Y-96633333D01*
X198004761Y-95728571D02*
X198052380Y-95823809D01*
X198052380Y-96014285D01*
X198004761Y-96109523D01*
X197957142Y-96157142D01*
X197861904Y-96204761D01*
X197576190Y-96204761D01*
X197480952Y-96157142D01*
X197433333Y-96109523D01*
X197385714Y-96014285D01*
X197385714Y-95823809D01*
X197433333Y-95728571D01*
D12*
X161942857Y-42030952D02*
X160752380Y-42030952D01*
X160633333Y-43221428D01*
X160752380Y-43102380D01*
X160990476Y-42983333D01*
X161585714Y-42983333D01*
X161823809Y-43102380D01*
X161942857Y-43221428D01*
X162061904Y-43459523D01*
X162061904Y-44054761D01*
X161942857Y-44292857D01*
X161823809Y-44411904D01*
X161585714Y-44530952D01*
X160990476Y-44530952D01*
X160752380Y-44411904D01*
X160633333Y-44292857D01*
X162895238Y-42864285D02*
X163490476Y-44530952D01*
X164085714Y-42864285D01*
X185010000Y-48770952D02*
X185486190Y-48770952D01*
X185724285Y-48890000D01*
X185962380Y-49128095D01*
X186081428Y-49604285D01*
X186081428Y-50437619D01*
X185962380Y-50913809D01*
X185724285Y-51151904D01*
X185486190Y-51270952D01*
X185010000Y-51270952D01*
X184771904Y-51151904D01*
X184533809Y-50913809D01*
X184414761Y-50437619D01*
X184414761Y-49604285D01*
X184533809Y-49128095D01*
X184771904Y-48890000D01*
X185010000Y-48770952D01*
X187152857Y-48770952D02*
X187152857Y-50794761D01*
X187271904Y-51032857D01*
X187390952Y-51151904D01*
X187629047Y-51270952D01*
X188105238Y-51270952D01*
X188343333Y-51151904D01*
X188462380Y-51032857D01*
X188581428Y-50794761D01*
X188581428Y-48770952D01*
X189414761Y-48770952D02*
X190843333Y-48770952D01*
X190129047Y-51270952D02*
X190129047Y-48770952D01*
X118990476Y-51580952D02*
X118990476Y-49080952D01*
X120180952Y-51580952D02*
X120180952Y-49080952D01*
X121609523Y-51580952D01*
X121609523Y-49080952D01*
X150765714Y-69570952D02*
X150527619Y-69451904D01*
X150408571Y-69213809D01*
X150408571Y-67070952D01*
X152670476Y-69451904D02*
X152432380Y-69570952D01*
X151956190Y-69570952D01*
X151718095Y-69451904D01*
X151599047Y-69213809D01*
X151599047Y-68261428D01*
X151718095Y-68023333D01*
X151956190Y-67904285D01*
X152432380Y-67904285D01*
X152670476Y-68023333D01*
X152789523Y-68261428D01*
X152789523Y-68499523D01*
X151599047Y-68737619D01*
X153622857Y-67904285D02*
X154218095Y-69570952D01*
X154813333Y-67904285D01*
X156718095Y-69451904D02*
X156480000Y-69570952D01*
X156003809Y-69570952D01*
X155765714Y-69451904D01*
X155646666Y-69213809D01*
X155646666Y-68261428D01*
X155765714Y-68023333D01*
X156003809Y-67904285D01*
X156480000Y-67904285D01*
X156718095Y-68023333D01*
X156837142Y-68261428D01*
X156837142Y-68499523D01*
X155646666Y-68737619D01*
X158265714Y-69570952D02*
X158027619Y-69451904D01*
X157908571Y-69213809D01*
X157908571Y-67070952D01*
X159099047Y-69451904D02*
X159337142Y-69570952D01*
X159813333Y-69570952D01*
X160051428Y-69451904D01*
X160170476Y-69213809D01*
X160170476Y-69094761D01*
X160051428Y-68856666D01*
X159813333Y-68737619D01*
X159456190Y-68737619D01*
X159218095Y-68618571D01*
X159099047Y-68380476D01*
X159099047Y-68261428D01*
X159218095Y-68023333D01*
X159456190Y-67904285D01*
X159813333Y-67904285D01*
X160051428Y-68023333D01*
D10*
X152676666Y-120496666D02*
X152543333Y-120563333D01*
X152276666Y-120563333D01*
X152143333Y-120496666D01*
X152076666Y-120430000D01*
X152010000Y-120296666D01*
X152010000Y-119896666D01*
X152076666Y-119763333D01*
X152143333Y-119696666D01*
X152276666Y-119630000D01*
X152543333Y-119630000D01*
X152676666Y-119696666D01*
X153476666Y-120563333D02*
X153343333Y-120496666D01*
X153276666Y-120430000D01*
X153210000Y-120296666D01*
X153210000Y-119896666D01*
X153276666Y-119763333D01*
X153343333Y-119696666D01*
X153476666Y-119630000D01*
X153676666Y-119630000D01*
X153810000Y-119696666D01*
X153876666Y-119763333D01*
X153943333Y-119896666D01*
X153943333Y-120296666D01*
X153876666Y-120430000D01*
X153810000Y-120496666D01*
X153676666Y-120563333D01*
X153476666Y-120563333D01*
X154743333Y-120563333D02*
X154610000Y-120496666D01*
X154543333Y-120363333D01*
X154543333Y-119163333D01*
X155476666Y-120563333D02*
X155343333Y-120496666D01*
X155276666Y-120430000D01*
X155210000Y-120296666D01*
X155210000Y-119896666D01*
X155276666Y-119763333D01*
X155343333Y-119696666D01*
X155476666Y-119630000D01*
X155676666Y-119630000D01*
X155810000Y-119696666D01*
X155876666Y-119763333D01*
X155943333Y-119896666D01*
X155943333Y-120296666D01*
X155876666Y-120430000D01*
X155810000Y-120496666D01*
X155676666Y-120563333D01*
X155476666Y-120563333D01*
X157143333Y-119630000D02*
X157143333Y-120563333D01*
X156543333Y-119630000D02*
X156543333Y-120363333D01*
X156610000Y-120496666D01*
X156743333Y-120563333D01*
X156943333Y-120563333D01*
X157076666Y-120496666D01*
X157143333Y-120430000D01*
X157810000Y-120563333D02*
X157810000Y-119630000D01*
X157810000Y-119896666D02*
X157876666Y-119763333D01*
X157943333Y-119696666D01*
X158076666Y-119630000D01*
X158210000Y-119630000D01*
X158610000Y-120496666D02*
X158743333Y-120563333D01*
X159010000Y-120563333D01*
X159143333Y-120496666D01*
X159210000Y-120363333D01*
X159210000Y-120296666D01*
X159143333Y-120163333D01*
X159010000Y-120096666D01*
X158810000Y-120096666D01*
X158676666Y-120030000D01*
X158610000Y-119896666D01*
X158610000Y-119830000D01*
X158676666Y-119696666D01*
X158810000Y-119630000D01*
X159010000Y-119630000D01*
X159143333Y-119696666D01*
D13*
X116370000Y-87780000D02*
X116370000Y-92720000D01*
X113630000Y-87780000D02*
X113630000Y-92720000D01*
X116370000Y-87780000D02*
X116055000Y-87780000D01*
X113945000Y-87780000D02*
X113630000Y-87780000D01*
X116370000Y-92720000D02*
X116055000Y-92720000D01*
X113945000Y-92720000D02*
X113630000Y-92720000D01*
X122470000Y-55370000D02*
X117530000Y-55370000D01*
X122470000Y-52630000D02*
X117530000Y-52630000D01*
X122470000Y-55370000D02*
X122470000Y-55055000D01*
X122470000Y-52945000D02*
X122470000Y-52630000D01*
X117530000Y-55370000D02*
X117530000Y-55055000D01*
X117530000Y-52945000D02*
X117530000Y-52630000D01*
X117445000Y-92720000D02*
X117130000Y-92720000D01*
X119870000Y-92720000D02*
X119555000Y-92720000D01*
X117445000Y-87780000D02*
X117130000Y-87780000D01*
X119870000Y-87780000D02*
X119555000Y-87780000D01*
X117130000Y-87780000D02*
X117130000Y-92720000D01*
X119870000Y-87780000D02*
X119870000Y-92720000D01*
X143195225Y-41275000D02*
X143195225Y-41775000D01*
X142945225Y-41525000D02*
X143445225Y-41525000D01*
X148351000Y-42716000D02*
X148351000Y-43284000D01*
X148311000Y-42482000D02*
X148311000Y-43518000D01*
X148271000Y-42323000D02*
X148271000Y-43677000D01*
X148231000Y-42195000D02*
X148231000Y-43805000D01*
X148191000Y-42085000D02*
X148191000Y-43915000D01*
X148151000Y-41989000D02*
X148151000Y-44011000D01*
X148111000Y-41902000D02*
X148111000Y-44098000D01*
X148071000Y-41822000D02*
X148071000Y-44178000D01*
X148031000Y-44040000D02*
X148031000Y-44251000D01*
X148031000Y-41749000D02*
X148031000Y-41960000D01*
X147991000Y-44040000D02*
X147991000Y-44319000D01*
X147991000Y-41681000D02*
X147991000Y-41960000D01*
X147951000Y-44040000D02*
X147951000Y-44383000D01*
X147951000Y-41617000D02*
X147951000Y-41960000D01*
X147911000Y-44040000D02*
X147911000Y-44443000D01*
X147911000Y-41557000D02*
X147911000Y-41960000D01*
X147871000Y-44040000D02*
X147871000Y-44500000D01*
X147871000Y-41500000D02*
X147871000Y-41960000D01*
X147831000Y-44040000D02*
X147831000Y-44554000D01*
X147831000Y-41446000D02*
X147831000Y-41960000D01*
X147791000Y-44040000D02*
X147791000Y-44605000D01*
X147791000Y-41395000D02*
X147791000Y-41960000D01*
X147751000Y-44040000D02*
X147751000Y-44653000D01*
X147751000Y-41347000D02*
X147751000Y-41960000D01*
X147711000Y-44040000D02*
X147711000Y-44699000D01*
X147711000Y-41301000D02*
X147711000Y-41960000D01*
X147671000Y-44040000D02*
X147671000Y-44743000D01*
X147671000Y-41257000D02*
X147671000Y-41960000D01*
X147631000Y-44040000D02*
X147631000Y-44785000D01*
X147631000Y-41215000D02*
X147631000Y-41960000D01*
X147591000Y-44040000D02*
X147591000Y-44826000D01*
X147591000Y-41174000D02*
X147591000Y-41960000D01*
X147551000Y-44040000D02*
X147551000Y-44864000D01*
X147551000Y-41136000D02*
X147551000Y-41960000D01*
X147511000Y-44040000D02*
X147511000Y-44901000D01*
X147511000Y-41099000D02*
X147511000Y-41960000D01*
X147471000Y-44040000D02*
X147471000Y-44937000D01*
X147471000Y-41063000D02*
X147471000Y-41960000D01*
X147431000Y-44040000D02*
X147431000Y-44971000D01*
X147431000Y-41029000D02*
X147431000Y-41960000D01*
X147391000Y-44040000D02*
X147391000Y-45004000D01*
X147391000Y-40996000D02*
X147391000Y-41960000D01*
X147351000Y-44040000D02*
X147351000Y-45035000D01*
X147351000Y-40965000D02*
X147351000Y-41960000D01*
X147311000Y-44040000D02*
X147311000Y-45065000D01*
X147311000Y-40935000D02*
X147311000Y-41960000D01*
X147271000Y-44040000D02*
X147271000Y-45095000D01*
X147271000Y-40905000D02*
X147271000Y-41960000D01*
X147231000Y-44040000D02*
X147231000Y-45122000D01*
X147231000Y-40878000D02*
X147231000Y-41960000D01*
X147191000Y-44040000D02*
X147191000Y-45149000D01*
X147191000Y-40851000D02*
X147191000Y-41960000D01*
X147151000Y-44040000D02*
X147151000Y-45175000D01*
X147151000Y-40825000D02*
X147151000Y-41960000D01*
X147111000Y-44040000D02*
X147111000Y-45200000D01*
X147111000Y-40800000D02*
X147111000Y-41960000D01*
X147071000Y-44040000D02*
X147071000Y-45224000D01*
X147071000Y-40776000D02*
X147071000Y-41960000D01*
X147031000Y-44040000D02*
X147031000Y-45247000D01*
X147031000Y-40753000D02*
X147031000Y-41960000D01*
X146991000Y-44040000D02*
X146991000Y-45268000D01*
X146991000Y-40732000D02*
X146991000Y-41960000D01*
X146951000Y-44040000D02*
X146951000Y-45290000D01*
X146951000Y-40710000D02*
X146951000Y-41960000D01*
X146911000Y-44040000D02*
X146911000Y-45310000D01*
X146911000Y-40690000D02*
X146911000Y-41960000D01*
X146871000Y-44040000D02*
X146871000Y-45329000D01*
X146871000Y-40671000D02*
X146871000Y-41960000D01*
X146831000Y-44040000D02*
X146831000Y-45348000D01*
X146831000Y-40652000D02*
X146831000Y-41960000D01*
X146791000Y-44040000D02*
X146791000Y-45365000D01*
X146791000Y-40635000D02*
X146791000Y-41960000D01*
X146751000Y-44040000D02*
X146751000Y-45382000D01*
X146751000Y-40618000D02*
X146751000Y-41960000D01*
X146711000Y-44040000D02*
X146711000Y-45398000D01*
X146711000Y-40602000D02*
X146711000Y-41960000D01*
X146671000Y-44040000D02*
X146671000Y-45414000D01*
X146671000Y-40586000D02*
X146671000Y-41960000D01*
X146631000Y-44040000D02*
X146631000Y-45428000D01*
X146631000Y-40572000D02*
X146631000Y-41960000D01*
X146591000Y-44040000D02*
X146591000Y-45442000D01*
X146591000Y-40558000D02*
X146591000Y-41960000D01*
X146551000Y-44040000D02*
X146551000Y-45455000D01*
X146551000Y-40545000D02*
X146551000Y-41960000D01*
X146511000Y-44040000D02*
X146511000Y-45468000D01*
X146511000Y-40532000D02*
X146511000Y-41960000D01*
X146471000Y-44040000D02*
X146471000Y-45480000D01*
X146471000Y-40520000D02*
X146471000Y-41960000D01*
X146430000Y-44040000D02*
X146430000Y-45491000D01*
X146430000Y-40509000D02*
X146430000Y-41960000D01*
X146390000Y-44040000D02*
X146390000Y-45501000D01*
X146390000Y-40499000D02*
X146390000Y-41960000D01*
X146350000Y-44040000D02*
X146350000Y-45511000D01*
X146350000Y-40489000D02*
X146350000Y-41960000D01*
X146310000Y-44040000D02*
X146310000Y-45520000D01*
X146310000Y-40480000D02*
X146310000Y-41960000D01*
X146270000Y-44040000D02*
X146270000Y-45528000D01*
X146270000Y-40472000D02*
X146270000Y-41960000D01*
X146230000Y-44040000D02*
X146230000Y-45536000D01*
X146230000Y-40464000D02*
X146230000Y-41960000D01*
X146190000Y-44040000D02*
X146190000Y-45543000D01*
X146190000Y-40457000D02*
X146190000Y-41960000D01*
X146150000Y-44040000D02*
X146150000Y-45550000D01*
X146150000Y-40450000D02*
X146150000Y-41960000D01*
X146110000Y-44040000D02*
X146110000Y-45556000D01*
X146110000Y-40444000D02*
X146110000Y-41960000D01*
X146070000Y-44040000D02*
X146070000Y-45561000D01*
X146070000Y-40439000D02*
X146070000Y-41960000D01*
X146030000Y-44040000D02*
X146030000Y-45565000D01*
X146030000Y-40435000D02*
X146030000Y-41960000D01*
X145990000Y-44040000D02*
X145990000Y-45569000D01*
X145990000Y-40431000D02*
X145990000Y-41960000D01*
X145950000Y-40427000D02*
X145950000Y-45573000D01*
X145910000Y-40424000D02*
X145910000Y-45576000D01*
X145870000Y-40422000D02*
X145870000Y-45578000D01*
X145830000Y-40421000D02*
X145830000Y-45579000D01*
X145790000Y-40420000D02*
X145790000Y-45580000D01*
X145750000Y-40420000D02*
X145750000Y-45580000D01*
X148370000Y-43000000D02*
G75*
G03*
X148370000Y-43000000I-2620000J0D01*
G01*
X192820000Y-85620000D02*
X187880000Y-85620000D01*
X192820000Y-82880000D02*
X187880000Y-82880000D01*
X192820000Y-85620000D02*
X192820000Y-85305000D01*
X192820000Y-83195000D02*
X192820000Y-82880000D01*
X187880000Y-85620000D02*
X187880000Y-85305000D01*
X187880000Y-83195000D02*
X187880000Y-82880000D01*
X153230000Y-102995000D02*
X153230000Y-102680000D01*
X153230000Y-105420000D02*
X153230000Y-105105000D01*
X158170000Y-102995000D02*
X158170000Y-102680000D01*
X158170000Y-105420000D02*
X158170000Y-105105000D01*
X158170000Y-102680000D02*
X153230000Y-102680000D01*
X158170000Y-105420000D02*
X153230000Y-105420000D01*
X180330000Y-83145000D02*
X180330000Y-82830000D01*
X180330000Y-85570000D02*
X180330000Y-85255000D01*
X185270000Y-83145000D02*
X185270000Y-82830000D01*
X185270000Y-85570000D02*
X185270000Y-85255000D01*
X185270000Y-82830000D02*
X180330000Y-82830000D01*
X185270000Y-85570000D02*
X180330000Y-85570000D01*
X161620000Y-76955000D02*
X161620000Y-77270000D01*
X161620000Y-74530000D02*
X161620000Y-74845000D01*
X156680000Y-76955000D02*
X156680000Y-77270000D01*
X156680000Y-74530000D02*
X156680000Y-74845000D01*
X156680000Y-77270000D02*
X161620000Y-77270000D01*
X156680000Y-74530000D02*
X161620000Y-74530000D01*
X132080000Y-84245000D02*
X132080000Y-83930000D01*
X132080000Y-86670000D02*
X132080000Y-86355000D01*
X137020000Y-84245000D02*
X137020000Y-83930000D01*
X137020000Y-86670000D02*
X137020000Y-86355000D01*
X137020000Y-83930000D02*
X132080000Y-83930000D01*
X137020000Y-86670000D02*
X132080000Y-86670000D01*
X158120000Y-101555000D02*
X158120000Y-101870000D01*
X158120000Y-99130000D02*
X158120000Y-99445000D01*
X153180000Y-101555000D02*
X153180000Y-101870000D01*
X153180000Y-99130000D02*
X153180000Y-99445000D01*
X153180000Y-101870000D02*
X158120000Y-101870000D01*
X153180000Y-99130000D02*
X158120000Y-99130000D01*
X140170000Y-67905000D02*
X140170000Y-68220000D01*
X140170000Y-65480000D02*
X140170000Y-65795000D01*
X135230000Y-67905000D02*
X135230000Y-68220000D01*
X135230000Y-65480000D02*
X135230000Y-65795000D01*
X135230000Y-68220000D02*
X140170000Y-68220000D01*
X135230000Y-65480000D02*
X140170000Y-65480000D01*
X192570000Y-54770000D02*
X187630000Y-54770000D01*
X192570000Y-52030000D02*
X187630000Y-52030000D01*
X192570000Y-54770000D02*
X192570000Y-54455000D01*
X192570000Y-52345000D02*
X192570000Y-52030000D01*
X187630000Y-54770000D02*
X187630000Y-54455000D01*
X187630000Y-52345000D02*
X187630000Y-52030000D01*
X133470000Y-62555000D02*
X133470000Y-62870000D01*
X133470000Y-60130000D02*
X133470000Y-60445000D01*
X128530000Y-62555000D02*
X128530000Y-62870000D01*
X128530000Y-60130000D02*
X128530000Y-60445000D01*
X128530000Y-62870000D02*
X133470000Y-62870000D01*
X128530000Y-60130000D02*
X133470000Y-60130000D01*
X153970000Y-77220000D02*
X149030000Y-77220000D01*
X153970000Y-74480000D02*
X149030000Y-74480000D01*
X153970000Y-77220000D02*
X153970000Y-76905000D01*
X153970000Y-74795000D02*
X153970000Y-74480000D01*
X149030000Y-77220000D02*
X149030000Y-76905000D01*
X149030000Y-74795000D02*
X149030000Y-74480000D01*
X163780000Y-124130000D02*
X168720000Y-124130000D01*
X163780000Y-126870000D02*
X168720000Y-126870000D01*
X163780000Y-124130000D02*
X163780000Y-124445000D01*
X163780000Y-126555000D02*
X163780000Y-126870000D01*
X168720000Y-124130000D02*
X168720000Y-124445000D01*
X168720000Y-126555000D02*
X168720000Y-126870000D01*
X177970000Y-78370000D02*
X173030000Y-78370000D01*
X177970000Y-75630000D02*
X173030000Y-75630000D01*
X177970000Y-78370000D02*
X177970000Y-78055000D01*
X177970000Y-75945000D02*
X177970000Y-75630000D01*
X173030000Y-78370000D02*
X173030000Y-78055000D01*
X173030000Y-75945000D02*
X173030000Y-75630000D01*
X114220000Y-78870000D02*
X109280000Y-78870000D01*
X114220000Y-76130000D02*
X109280000Y-76130000D01*
X114220000Y-78870000D02*
X114220000Y-78555000D01*
X114220000Y-76445000D02*
X114220000Y-76130000D01*
X109280000Y-78870000D02*
X109280000Y-78555000D01*
X109280000Y-76445000D02*
X109280000Y-76130000D01*
X165530000Y-95945000D02*
X165530000Y-95630000D01*
X165530000Y-98370000D02*
X165530000Y-98055000D01*
X170470000Y-95945000D02*
X170470000Y-95630000D01*
X170470000Y-98370000D02*
X170470000Y-98055000D01*
X170470000Y-95630000D02*
X165530000Y-95630000D01*
X170470000Y-98370000D02*
X165530000Y-98370000D01*
X143280000Y-95945000D02*
X143280000Y-95630000D01*
X143280000Y-98370000D02*
X143280000Y-98055000D01*
X148220000Y-95945000D02*
X148220000Y-95630000D01*
X148220000Y-98370000D02*
X148220000Y-98055000D01*
X148220000Y-95630000D02*
X143280000Y-95630000D01*
X148220000Y-98370000D02*
X143280000Y-98370000D01*
X163780000Y-120630000D02*
X168720000Y-120630000D01*
X163780000Y-123370000D02*
X168720000Y-123370000D01*
X163780000Y-120630000D02*
X163780000Y-120945000D01*
X163780000Y-123055000D02*
X163780000Y-123370000D01*
X168720000Y-120630000D02*
X168720000Y-120945000D01*
X168720000Y-123055000D02*
X168720000Y-123370000D01*
X145970000Y-123570000D02*
X141030000Y-123570000D01*
X145970000Y-120830000D02*
X141030000Y-120830000D01*
X145970000Y-123570000D02*
X145970000Y-123255000D01*
X145970000Y-121145000D02*
X145970000Y-120830000D01*
X141030000Y-123570000D02*
X141030000Y-123255000D01*
X141030000Y-121145000D02*
X141030000Y-120830000D01*
X127870000Y-52530000D02*
X127870000Y-55470000D01*
X128110000Y-52530000D02*
X128110000Y-55470000D01*
X127990000Y-52530000D02*
X127990000Y-55470000D01*
X132530000Y-55470000D02*
X132530000Y-55340000D01*
X127090000Y-55470000D02*
X132530000Y-55470000D01*
X127090000Y-55340000D02*
X127090000Y-55470000D01*
X132530000Y-52530000D02*
X132530000Y-52660000D01*
X127090000Y-52530000D02*
X132530000Y-52530000D01*
X127090000Y-52660000D02*
X127090000Y-52530000D01*
X159600000Y-44400000D02*
X157000000Y-44400000D01*
X159600000Y-29700000D02*
X159600000Y-44400000D01*
X150400000Y-44400000D02*
X150400000Y-42500000D01*
X153100000Y-44400000D02*
X150400000Y-44400000D01*
X150400000Y-29700000D02*
X159600000Y-29700000D01*
X150400000Y-38500000D02*
X150400000Y-29700000D01*
X159800000Y-43550000D02*
X159800000Y-44600000D01*
X158750000Y-44600000D02*
X159800000Y-44600000D01*
D14*
X117350000Y-48265000D02*
X117350000Y-49635000D01*
X117350000Y-43365000D02*
X117350000Y-44735000D01*
X106650000Y-43365000D02*
X106650000Y-44735000D01*
X106650000Y-48265000D02*
X106650000Y-49635000D01*
X117350000Y-49635000D02*
X115884000Y-49635000D01*
X108116000Y-49635000D02*
X106650000Y-49635000D01*
X108116000Y-43365000D02*
X106650000Y-43365000D01*
X117350000Y-43365000D02*
X115884000Y-43365000D01*
D15*
X104800000Y-46500000D02*
G75*
G03*
X104800000Y-46500000I-200000J0D01*
G01*
D14*
X108117924Y-43362628D02*
G75*
G02*
X115884000Y-43365000I3882076J-3151223D01*
G01*
X115882076Y-49637372D02*
G75*
G02*
X108116000Y-49635000I-3882076J3151223D01*
G01*
D13*
X133400000Y-42750000D02*
G75*
G03*
X133400000Y-42750000I-7000000J0D01*
G01*
X180830000Y-35670000D02*
X180830000Y-37000000D01*
X179500000Y-35670000D02*
X180830000Y-35670000D01*
X180830000Y-38270000D02*
X180830000Y-40870000D01*
X178230000Y-38270000D02*
X180830000Y-38270000D01*
X178230000Y-35670000D02*
X178230000Y-38270000D01*
X180830000Y-40870000D02*
X160390000Y-40870000D01*
X178230000Y-35670000D02*
X160390000Y-35670000D01*
X160390000Y-35670000D02*
X160390000Y-40870000D01*
D15*
X190800000Y-46500000D02*
G75*
G03*
X190800000Y-46500000I-200000J0D01*
G01*
D14*
X203350000Y-43365000D02*
X201884000Y-43365000D01*
X194116000Y-43365000D02*
X192650000Y-43365000D01*
X194116000Y-49635000D02*
X192650000Y-49635000D01*
X203350000Y-49635000D02*
X201884000Y-49635000D01*
X192650000Y-48265000D02*
X192650000Y-49635000D01*
X192650000Y-43365000D02*
X192650000Y-44735000D01*
X203350000Y-43365000D02*
X203350000Y-44735000D01*
X203350000Y-48265000D02*
X203350000Y-49635000D01*
X201882076Y-49637372D02*
G75*
G02*
X194116000Y-49635000I-3882076J3151223D01*
G01*
X194117924Y-43362628D02*
G75*
G02*
X201884000Y-43365000I3882076J-3151223D01*
G01*
D13*
X186470000Y-46850000D02*
X190070000Y-46850000D01*
X186458547Y-46842156D02*
G75*
G02*
X187450000Y-42550000I1811453J1842156D01*
G01*
X190078445Y-46827684D02*
G75*
G03*
X189050000Y-42550000I-1808445J1827684D01*
G01*
X113960000Y-55040000D02*
X113960000Y-55370000D01*
X113960000Y-55370000D02*
X107420000Y-55370000D01*
X107420000Y-55370000D02*
X107420000Y-55040000D01*
X113960000Y-52960000D02*
X113960000Y-52630000D01*
X113960000Y-52630000D02*
X107420000Y-52630000D01*
X107420000Y-52630000D02*
X107420000Y-52960000D01*
X124130000Y-92080000D02*
X124460000Y-92080000D01*
X124130000Y-85540000D02*
X124130000Y-92080000D01*
X124460000Y-85540000D02*
X124130000Y-85540000D01*
X126870000Y-92080000D02*
X126540000Y-92080000D01*
X126870000Y-85540000D02*
X126870000Y-92080000D01*
X126540000Y-85540000D02*
X126870000Y-85540000D01*
X123040000Y-85540000D02*
X123370000Y-85540000D01*
X123370000Y-85540000D02*
X123370000Y-92080000D01*
X123370000Y-92080000D02*
X123040000Y-92080000D01*
X120960000Y-85540000D02*
X120630000Y-85540000D01*
X120630000Y-85540000D02*
X120630000Y-92080000D01*
X120630000Y-92080000D02*
X120960000Y-92080000D01*
X107420000Y-56630000D02*
X107420000Y-56960000D01*
X113960000Y-56630000D02*
X107420000Y-56630000D01*
X113960000Y-56960000D02*
X113960000Y-56630000D01*
X107420000Y-59370000D02*
X107420000Y-59040000D01*
X113960000Y-59370000D02*
X107420000Y-59370000D01*
X113960000Y-59040000D02*
X113960000Y-59370000D01*
X137040000Y-42540000D02*
X137370000Y-42540000D01*
X137370000Y-42540000D02*
X137370000Y-49080000D01*
X137370000Y-49080000D02*
X137040000Y-49080000D01*
X134960000Y-42540000D02*
X134630000Y-42540000D01*
X134630000Y-42540000D02*
X134630000Y-49080000D01*
X134630000Y-49080000D02*
X134960000Y-49080000D01*
X184870000Y-36920000D02*
X184540000Y-36920000D01*
X184870000Y-43460000D02*
X184870000Y-36920000D01*
X184540000Y-43460000D02*
X184870000Y-43460000D01*
X182130000Y-36920000D02*
X182460000Y-36920000D01*
X182130000Y-43460000D02*
X182130000Y-36920000D01*
X182460000Y-43460000D02*
X182130000Y-43460000D01*
X187040000Y-38960000D02*
X187040000Y-38630000D01*
X187040000Y-38630000D02*
X193580000Y-38630000D01*
X193580000Y-38630000D02*
X193580000Y-38960000D01*
X187040000Y-41040000D02*
X187040000Y-41370000D01*
X187040000Y-41370000D02*
X193580000Y-41370000D01*
X193580000Y-41370000D02*
X193580000Y-41040000D01*
X186920000Y-35130000D02*
X186920000Y-35460000D01*
X193460000Y-35130000D02*
X186920000Y-35130000D01*
X193460000Y-35460000D02*
X193460000Y-35130000D01*
X186920000Y-37870000D02*
X186920000Y-37540000D01*
X193460000Y-37870000D02*
X186920000Y-37870000D01*
X193460000Y-37540000D02*
X193460000Y-37870000D01*
X126290000Y-56960000D02*
X126290000Y-56630000D01*
X126290000Y-56630000D02*
X132830000Y-56630000D01*
X132830000Y-56630000D02*
X132830000Y-56960000D01*
X126290000Y-59040000D02*
X126290000Y-59370000D01*
X126290000Y-59370000D02*
X132830000Y-59370000D01*
X132830000Y-59370000D02*
X132830000Y-59040000D01*
X179130000Y-46070000D02*
X179130000Y-45740000D01*
X172590000Y-46070000D02*
X179130000Y-46070000D01*
X172590000Y-45740000D02*
X172590000Y-46070000D01*
X179130000Y-43330000D02*
X179130000Y-43660000D01*
X172590000Y-43330000D02*
X179130000Y-43330000D01*
X172590000Y-43660000D02*
X172590000Y-43330000D01*
X179210000Y-49790000D02*
X179210000Y-50120000D01*
X179210000Y-50120000D02*
X172670000Y-50120000D01*
X172670000Y-50120000D02*
X172670000Y-49790000D01*
X179210000Y-47710000D02*
X179210000Y-47380000D01*
X179210000Y-47380000D02*
X172670000Y-47380000D01*
X172670000Y-47380000D02*
X172670000Y-47710000D01*
X179180000Y-54170000D02*
X179180000Y-53840000D01*
X172640000Y-54170000D02*
X179180000Y-54170000D01*
X172640000Y-53840000D02*
X172640000Y-54170000D01*
X179180000Y-51430000D02*
X179180000Y-51760000D01*
X172640000Y-51430000D02*
X179180000Y-51430000D01*
X172640000Y-51760000D02*
X172640000Y-51430000D01*
X179130000Y-133920000D02*
X179130000Y-133590000D01*
X172590000Y-133920000D02*
X179130000Y-133920000D01*
X172590000Y-133590000D02*
X172590000Y-133920000D01*
X179130000Y-131180000D02*
X179130000Y-131510000D01*
X172590000Y-131180000D02*
X179130000Y-131180000D01*
X172590000Y-131510000D02*
X172590000Y-131180000D01*
X172540000Y-124460000D02*
X172540000Y-124130000D01*
X172540000Y-124130000D02*
X179080000Y-124130000D01*
X179080000Y-124130000D02*
X179080000Y-124460000D01*
X172540000Y-126540000D02*
X172540000Y-126870000D01*
X172540000Y-126870000D02*
X179080000Y-126870000D01*
X179080000Y-126870000D02*
X179080000Y-126540000D01*
X163290000Y-92210000D02*
X163290000Y-91880000D01*
X163290000Y-91880000D02*
X169830000Y-91880000D01*
X169830000Y-91880000D02*
X169830000Y-92210000D01*
X163290000Y-94290000D02*
X163290000Y-94620000D01*
X163290000Y-94620000D02*
X169830000Y-94620000D01*
X169830000Y-94620000D02*
X169830000Y-94290000D01*
X179110000Y-129990000D02*
X179110000Y-130320000D01*
X179110000Y-130320000D02*
X172570000Y-130320000D01*
X172570000Y-130320000D02*
X172570000Y-129990000D01*
X179110000Y-127910000D02*
X179110000Y-127580000D01*
X179110000Y-127580000D02*
X172570000Y-127580000D01*
X172570000Y-127580000D02*
X172570000Y-127910000D01*
X177460000Y-71290000D02*
X177460000Y-71620000D01*
X177460000Y-71620000D02*
X170920000Y-71620000D01*
X170920000Y-71620000D02*
X170920000Y-71290000D01*
X177460000Y-69210000D02*
X177460000Y-68880000D01*
X177460000Y-68880000D02*
X170920000Y-68880000D01*
X170920000Y-68880000D02*
X170920000Y-69210000D01*
X107420000Y-68880000D02*
X107420000Y-69210000D01*
X113960000Y-68880000D02*
X107420000Y-68880000D01*
X113960000Y-69210000D02*
X113960000Y-68880000D01*
X107420000Y-71620000D02*
X107420000Y-71290000D01*
X113960000Y-71620000D02*
X107420000Y-71620000D01*
X113960000Y-71290000D02*
X113960000Y-71620000D01*
X177580000Y-74870000D02*
X177580000Y-74540000D01*
X171040000Y-74870000D02*
X177580000Y-74870000D01*
X171040000Y-74540000D02*
X171040000Y-74870000D01*
X177580000Y-72130000D02*
X177580000Y-72460000D01*
X171040000Y-72130000D02*
X177580000Y-72130000D01*
X171040000Y-72460000D02*
X171040000Y-72130000D01*
X113830000Y-75370000D02*
X113830000Y-75040000D01*
X107290000Y-75370000D02*
X113830000Y-75370000D01*
X107290000Y-75040000D02*
X107290000Y-75370000D01*
X113830000Y-72630000D02*
X113830000Y-72960000D01*
X107290000Y-72630000D02*
X113830000Y-72630000D01*
X107290000Y-72960000D02*
X107290000Y-72630000D01*
X177460000Y-81790000D02*
X177460000Y-82120000D01*
X177460000Y-82120000D02*
X170920000Y-82120000D01*
X170920000Y-82120000D02*
X170920000Y-81790000D01*
X177460000Y-79710000D02*
X177460000Y-79380000D01*
X177460000Y-79380000D02*
X170920000Y-79380000D01*
X170920000Y-79380000D02*
X170920000Y-79710000D01*
X113710000Y-81790000D02*
X113710000Y-82120000D01*
X113710000Y-82120000D02*
X107170000Y-82120000D01*
X107170000Y-82120000D02*
X107170000Y-81790000D01*
X113710000Y-79710000D02*
X113710000Y-79380000D01*
X113710000Y-79380000D02*
X107170000Y-79380000D01*
X107170000Y-79380000D02*
X107170000Y-79710000D01*
X139330000Y-82870000D02*
X139330000Y-82540000D01*
X132790000Y-82870000D02*
X139330000Y-82870000D01*
X132790000Y-82540000D02*
X132790000Y-82870000D01*
X139330000Y-80130000D02*
X139330000Y-80460000D01*
X132790000Y-80130000D02*
X139330000Y-80130000D01*
X132790000Y-80460000D02*
X132790000Y-80130000D01*
X122420000Y-65380000D02*
X122420000Y-65710000D01*
X128960000Y-65380000D02*
X122420000Y-65380000D01*
X128960000Y-65710000D02*
X128960000Y-65380000D01*
X122420000Y-68120000D02*
X122420000Y-67790000D01*
X128960000Y-68120000D02*
X122420000Y-68120000D01*
X128960000Y-67790000D02*
X128960000Y-68120000D01*
X189120000Y-111720000D02*
X188790000Y-111720000D01*
X189120000Y-118260000D02*
X189120000Y-111720000D01*
X188790000Y-118260000D02*
X189120000Y-118260000D01*
X186380000Y-111720000D02*
X186710000Y-111720000D01*
X186380000Y-118260000D02*
X186380000Y-111720000D01*
X186710000Y-118260000D02*
X186380000Y-118260000D01*
X121660000Y-117910000D02*
X121330000Y-117910000D01*
X121330000Y-117910000D02*
X121330000Y-111370000D01*
X121330000Y-111370000D02*
X121660000Y-111370000D01*
X123740000Y-117910000D02*
X124070000Y-117910000D01*
X124070000Y-117910000D02*
X124070000Y-111370000D01*
X124070000Y-111370000D02*
X123740000Y-111370000D01*
X180210000Y-105040000D02*
X180210000Y-105370000D01*
X180210000Y-105370000D02*
X173670000Y-105370000D01*
X173670000Y-105370000D02*
X173670000Y-105040000D01*
X180210000Y-102960000D02*
X180210000Y-102630000D01*
X180210000Y-102630000D02*
X173670000Y-102630000D01*
X173670000Y-102630000D02*
X173670000Y-102960000D01*
X113580000Y-123620000D02*
X113580000Y-123290000D01*
X107040000Y-123620000D02*
X113580000Y-123620000D01*
X107040000Y-123290000D02*
X107040000Y-123620000D01*
X113580000Y-120880000D02*
X113580000Y-121210000D01*
X107040000Y-120880000D02*
X113580000Y-120880000D01*
X107040000Y-121210000D02*
X107040000Y-120880000D01*
X196670000Y-120380000D02*
X196670000Y-120710000D01*
X203210000Y-120380000D02*
X196670000Y-120380000D01*
X203210000Y-120710000D02*
X203210000Y-120380000D01*
X196670000Y-123120000D02*
X196670000Y-122790000D01*
X203210000Y-123120000D02*
X196670000Y-123120000D01*
X203210000Y-122790000D02*
X203210000Y-123120000D01*
X130140000Y-121160000D02*
X130140000Y-120830000D01*
X130140000Y-120830000D02*
X136680000Y-120830000D01*
X136680000Y-120830000D02*
X136680000Y-121160000D01*
X130140000Y-123240000D02*
X130140000Y-123570000D01*
X130140000Y-123570000D02*
X136680000Y-123570000D01*
X136680000Y-123570000D02*
X136680000Y-123240000D01*
X173670000Y-99130000D02*
X173670000Y-99460000D01*
X180210000Y-99130000D02*
X173670000Y-99130000D01*
X180210000Y-99460000D02*
X180210000Y-99130000D01*
X173670000Y-101870000D02*
X173670000Y-101540000D01*
X180210000Y-101870000D02*
X173670000Y-101870000D01*
X180210000Y-101540000D02*
X180210000Y-101870000D01*
X130140000Y-124710000D02*
X130140000Y-124380000D01*
X130140000Y-124380000D02*
X136680000Y-124380000D01*
X136680000Y-124380000D02*
X136680000Y-124710000D01*
X130140000Y-126790000D02*
X130140000Y-127120000D01*
X130140000Y-127120000D02*
X136680000Y-127120000D01*
X136680000Y-127120000D02*
X136680000Y-126790000D01*
X196790000Y-124460000D02*
X196790000Y-124130000D01*
X196790000Y-124130000D02*
X203330000Y-124130000D01*
X203330000Y-124130000D02*
X203330000Y-124460000D01*
X196790000Y-126540000D02*
X196790000Y-126870000D01*
X196790000Y-126870000D02*
X203330000Y-126870000D01*
X203330000Y-126870000D02*
X203330000Y-126540000D01*
X173670000Y-95630000D02*
X173670000Y-95960000D01*
X180210000Y-95630000D02*
X173670000Y-95630000D01*
X180210000Y-95960000D02*
X180210000Y-95630000D01*
X173670000Y-98370000D02*
X173670000Y-98040000D01*
X180210000Y-98370000D02*
X173670000Y-98370000D01*
X180210000Y-98040000D02*
X180210000Y-98370000D01*
X141480000Y-134120000D02*
X141480000Y-133790000D01*
X134940000Y-134120000D02*
X141480000Y-134120000D01*
X134940000Y-133790000D02*
X134940000Y-134120000D01*
X141480000Y-131380000D02*
X141480000Y-131710000D01*
X134940000Y-131380000D02*
X141480000Y-131380000D01*
X134940000Y-131710000D02*
X134940000Y-131380000D01*
X134940000Y-128210000D02*
X134940000Y-127880000D01*
X134940000Y-127880000D02*
X141480000Y-127880000D01*
X141480000Y-127880000D02*
X141480000Y-128210000D01*
X134940000Y-130290000D02*
X134940000Y-130620000D01*
X134940000Y-130620000D02*
X141480000Y-130620000D01*
X141480000Y-130620000D02*
X141480000Y-130290000D01*
X148830000Y-121030000D02*
X161170000Y-121030000D01*
X158370000Y-132620000D02*
X161170000Y-132620000D01*
X155871000Y-132620000D02*
X156630000Y-132620000D01*
X153371000Y-132620000D02*
X154130000Y-132620000D01*
X148830000Y-132620000D02*
X151629000Y-132620000D01*
X161170000Y-124045000D02*
X161170000Y-121030000D01*
X161170000Y-132620000D02*
X161170000Y-127954000D01*
X148830000Y-124045000D02*
X148830000Y-121030000D01*
X148830000Y-132620000D02*
X148830000Y-127954000D01*
X180580000Y-68780000D02*
X192920000Y-68780000D01*
X190120000Y-80370000D02*
X192920000Y-80370000D01*
X187621000Y-80370000D02*
X188380000Y-80370000D01*
X185121000Y-80370000D02*
X185880000Y-80370000D01*
X180580000Y-80370000D02*
X183379000Y-80370000D01*
X192920000Y-71795000D02*
X192920000Y-68780000D01*
X192920000Y-80370000D02*
X192920000Y-75704000D01*
X180580000Y-71795000D02*
X180580000Y-68780000D01*
X180580000Y-80370000D02*
X180580000Y-75704000D01*
X117080000Y-80620000D02*
X117080000Y-75954000D01*
X117080000Y-72045000D02*
X117080000Y-69030000D01*
X129420000Y-80620000D02*
X129420000Y-75954000D01*
X129420000Y-72045000D02*
X129420000Y-69030000D01*
X117080000Y-80620000D02*
X119879000Y-80620000D01*
X121621000Y-80620000D02*
X122380000Y-80620000D01*
X124121000Y-80620000D02*
X124880000Y-80620000D01*
X126620000Y-80620000D02*
X129420000Y-80620000D01*
X117080000Y-69030000D02*
X129420000Y-69030000D01*
X171930000Y-106280000D02*
X184270000Y-106280000D01*
X181470000Y-117870000D02*
X184270000Y-117870000D01*
X178971000Y-117870000D02*
X179730000Y-117870000D01*
X176471000Y-117870000D02*
X177230000Y-117870000D01*
X171930000Y-117870000D02*
X174729000Y-117870000D01*
X184270000Y-109295000D02*
X184270000Y-106280000D01*
X184270000Y-117870000D02*
X184270000Y-113204000D01*
X171930000Y-109295000D02*
X171930000Y-106280000D01*
X171930000Y-117870000D02*
X171930000Y-113204000D01*
X106330000Y-118370000D02*
X106330000Y-113704000D01*
X106330000Y-109795000D02*
X106330000Y-106780000D01*
X118670000Y-118370000D02*
X118670000Y-113704000D01*
X118670000Y-109795000D02*
X118670000Y-106780000D01*
X106330000Y-118370000D02*
X109129000Y-118370000D01*
X110871000Y-118370000D02*
X111630000Y-118370000D01*
X113371000Y-118370000D02*
X114130000Y-118370000D01*
X115870000Y-118370000D02*
X118670000Y-118370000D01*
X106330000Y-106780000D02*
X118670000Y-106780000D01*
X191580000Y-117870000D02*
X191580000Y-113204000D01*
X191580000Y-109295000D02*
X191580000Y-106280000D01*
X203920000Y-117870000D02*
X203920000Y-113204000D01*
X203920000Y-109295000D02*
X203920000Y-106280000D01*
X191580000Y-117870000D02*
X194379000Y-117870000D01*
X196121000Y-117870000D02*
X196880000Y-117870000D01*
X198621000Y-117870000D02*
X199380000Y-117870000D01*
X201120000Y-117870000D02*
X203920000Y-117870000D01*
X191580000Y-106280000D02*
X203920000Y-106280000D01*
X127330000Y-106530000D02*
X139670000Y-106530000D01*
X136870000Y-118120000D02*
X139670000Y-118120000D01*
X134371000Y-118120000D02*
X135130000Y-118120000D01*
X131871000Y-118120000D02*
X132630000Y-118120000D01*
X127330000Y-118120000D02*
X130129000Y-118120000D01*
X139670000Y-109545000D02*
X139670000Y-106530000D01*
X139670000Y-118120000D02*
X139670000Y-113454000D01*
X127330000Y-109545000D02*
X127330000Y-106530000D01*
X127330000Y-118120000D02*
X127330000Y-113454000D01*
X192400000Y-127500000D02*
X185400000Y-127500000D01*
X192400000Y-120750000D02*
X185400000Y-120750000D01*
X185400000Y-120750000D02*
X185400000Y-127500000D01*
X192400000Y-120750000D02*
X192400000Y-127500000D01*
X127200000Y-120750000D02*
X127200000Y-127500000D01*
X120200000Y-120750000D02*
X120200000Y-127500000D01*
X127200000Y-120750000D02*
X120200000Y-120750000D01*
X127200000Y-127500000D02*
X120200000Y-127500000D01*
X111500000Y-92000000D02*
X111500000Y-105600000D01*
X111500000Y-105600000D02*
X105900000Y-105600000D01*
X105900000Y-105600000D02*
X105900000Y-92000000D01*
X105900000Y-92000000D02*
X111500000Y-92000000D01*
X199200000Y-92000000D02*
X204800000Y-92000000D01*
X199200000Y-105600000D02*
X199200000Y-92000000D01*
X204800000Y-105600000D02*
X199200000Y-105600000D01*
X204800000Y-92000000D02*
X204800000Y-105600000D01*
X195300000Y-131600000D02*
X195300000Y-134850000D01*
X195300000Y-134850000D02*
X182300000Y-134850000D01*
X182300000Y-134850000D02*
X182300000Y-128100000D01*
X182300000Y-128100000D02*
X195300000Y-128100000D01*
X195300000Y-128100000D02*
X195300000Y-131600000D01*
X130100000Y-127900000D02*
X130100000Y-131400000D01*
X117100000Y-127900000D02*
X130100000Y-127900000D01*
X117100000Y-134650000D02*
X117100000Y-127900000D01*
X130100000Y-134650000D02*
X117100000Y-134650000D01*
X130100000Y-131400000D02*
X130100000Y-134650000D01*
X135060000Y-87670000D02*
X133810000Y-87670000D01*
X135060000Y-105570000D02*
X135060000Y-87670000D01*
X130560000Y-105570000D02*
X135060000Y-105570000D01*
X130560000Y-87670000D02*
X130560000Y-105570000D01*
X131810000Y-87670000D02*
X130560000Y-87670000D01*
X133810000Y-87670000D02*
G75*
G02*
X131810000Y-87670000I-1000000J0D01*
G01*
X144391000Y-35230000D02*
X144391000Y-36740000D01*
X140690000Y-35230000D02*
X140690000Y-36740000D01*
X137420000Y-36740000D02*
X147660000Y-36740000D01*
X147660000Y-35230000D02*
X147660000Y-39871000D01*
X137420000Y-35230000D02*
X137420000Y-39871000D01*
X137420000Y-39871000D02*
X147660000Y-39871000D01*
X137420000Y-35230000D02*
X147660000Y-35230000D01*
X198310000Y-52170000D02*
X197060000Y-52170000D01*
X197060000Y-52170000D02*
X197060000Y-72610000D01*
X197060000Y-72610000D02*
X201560000Y-72610000D01*
X201560000Y-72610000D02*
X201560000Y-52170000D01*
X201560000Y-52170000D02*
X200310000Y-52170000D01*
X200310000Y-52170000D02*
G75*
G02*
X198310000Y-52170000I-1000000J0D01*
G01*
X201810000Y-73420000D02*
X200560000Y-73420000D01*
X201810000Y-91320000D02*
X201810000Y-73420000D01*
X197310000Y-91320000D02*
X201810000Y-91320000D01*
X197310000Y-73420000D02*
X197310000Y-91320000D01*
X198560000Y-73420000D02*
X197310000Y-73420000D01*
X200560000Y-73420000D02*
G75*
G02*
X198560000Y-73420000I-1000000J0D01*
G01*
X154210000Y-77870000D02*
X152960000Y-77870000D01*
X152960000Y-77870000D02*
X152960000Y-98310000D01*
X152960000Y-98310000D02*
X157460000Y-98310000D01*
X157460000Y-98310000D02*
X157460000Y-77870000D01*
X157460000Y-77870000D02*
X156210000Y-77870000D01*
X156210000Y-77870000D02*
G75*
G02*
X154210000Y-77870000I-1000000J0D01*
G01*
X150110000Y-55870000D02*
X148860000Y-55870000D01*
X148860000Y-55870000D02*
X148860000Y-66150000D01*
X148860000Y-66150000D02*
X153360000Y-66150000D01*
X153360000Y-66150000D02*
X153360000Y-55870000D01*
X153360000Y-55870000D02*
X152110000Y-55870000D01*
X151050000Y-50140000D02*
X149100000Y-50140000D01*
X151050000Y-50140000D02*
X153000000Y-50140000D01*
X151050000Y-55260000D02*
X149100000Y-55260000D01*
X151050000Y-55260000D02*
X154500000Y-55260000D01*
X151100000Y-54550000D02*
X150700000Y-53950000D01*
X150700000Y-53950000D02*
X151500000Y-53950000D01*
X151500000Y-53950000D02*
X151100000Y-54550000D01*
X151100000Y-53950000D02*
X151100000Y-52750000D01*
X150700000Y-57950000D02*
X151100000Y-57350000D01*
X151100000Y-57950000D02*
X151100000Y-59150000D01*
X151100000Y-57350000D02*
X151500000Y-57950000D01*
X151500000Y-57950000D02*
X150700000Y-57950000D01*
X152110000Y-55870000D02*
G75*
G02*
X150110000Y-55870000I-1000000J0D01*
G01*
X187060000Y-86420000D02*
X185810000Y-86420000D01*
X185810000Y-86420000D02*
X185810000Y-104320000D01*
X185810000Y-104320000D02*
X190310000Y-104320000D01*
X190310000Y-104320000D02*
X190310000Y-86420000D01*
X190310000Y-86420000D02*
X189060000Y-86420000D01*
X189060000Y-86420000D02*
G75*
G02*
X187060000Y-86420000I-1000000J0D01*
G01*
X138310000Y-68920000D02*
X137060000Y-68920000D01*
X138310000Y-79200000D02*
X138310000Y-68920000D01*
X133810000Y-79200000D02*
X138310000Y-79200000D01*
X133810000Y-68920000D02*
X133810000Y-79200000D01*
X135060000Y-68920000D02*
X133810000Y-68920000D01*
X137060000Y-68920000D02*
G75*
G02*
X135060000Y-68920000I-1000000J0D01*
G01*
X148260000Y-99170000D02*
X147010000Y-99170000D01*
X148260000Y-119610000D02*
X148260000Y-99170000D01*
X143760000Y-119610000D02*
X148260000Y-119610000D01*
X143760000Y-99170000D02*
X143760000Y-119610000D01*
X145010000Y-99170000D02*
X143760000Y-99170000D01*
X147010000Y-99170000D02*
G75*
G02*
X145010000Y-99170000I-1000000J0D01*
G01*
X167660000Y-99170000D02*
X166410000Y-99170000D01*
X167660000Y-119610000D02*
X167660000Y-99170000D01*
X163160000Y-119610000D02*
X167660000Y-119610000D01*
X163160000Y-99170000D02*
X163160000Y-119610000D01*
X164410000Y-99170000D02*
X163160000Y-99170000D01*
X166410000Y-99170000D02*
G75*
G02*
X164410000Y-99170000I-1000000J0D01*
G01*
X117990000Y-94725000D02*
X124390000Y-94725000D01*
X117990000Y-99775000D02*
X124390000Y-99775000D01*
X124390000Y-99775000D02*
G75*
G03*
X124390000Y-94725000I0J2525000D01*
G01*
X117990000Y-99775000D02*
G75*
G02*
X117990000Y-94725000I0J2525000D01*
G01*
X117990000Y-105775000D02*
X124390000Y-105775000D01*
X117990000Y-100725000D02*
X124390000Y-100725000D01*
X117990000Y-105775000D02*
G75*
G02*
X117990000Y-100725000I0J2525000D01*
G01*
X124390000Y-105775000D02*
G75*
G03*
X124390000Y-100725000I0J2525000D01*
G01*
D16*
X115357142Y-90416666D02*
X115404761Y-90464285D01*
X115452380Y-90607142D01*
X115452380Y-90702380D01*
X115404761Y-90845238D01*
X115309523Y-90940476D01*
X115214285Y-90988095D01*
X115023809Y-91035714D01*
X114880952Y-91035714D01*
X114690476Y-90988095D01*
X114595238Y-90940476D01*
X114500000Y-90845238D01*
X114452380Y-90702380D01*
X114452380Y-90607142D01*
X114500000Y-90464285D01*
X114547619Y-90416666D01*
X115452380Y-89464285D02*
X115452380Y-90035714D01*
X115452380Y-89750000D02*
X114452380Y-89750000D01*
X114595238Y-89845238D01*
X114690476Y-89940476D01*
X114738095Y-90035714D01*
X119833333Y-54357142D02*
X119785714Y-54404761D01*
X119642857Y-54452380D01*
X119547619Y-54452380D01*
X119404761Y-54404761D01*
X119309523Y-54309523D01*
X119261904Y-54214285D01*
X119214285Y-54023809D01*
X119214285Y-53880952D01*
X119261904Y-53690476D01*
X119309523Y-53595238D01*
X119404761Y-53500000D01*
X119547619Y-53452380D01*
X119642857Y-53452380D01*
X119785714Y-53500000D01*
X119833333Y-53547619D01*
X120214285Y-53547619D02*
X120261904Y-53500000D01*
X120357142Y-53452380D01*
X120595238Y-53452380D01*
X120690476Y-53500000D01*
X120738095Y-53547619D01*
X120785714Y-53642857D01*
X120785714Y-53738095D01*
X120738095Y-53880952D01*
X120166666Y-54452380D01*
X120785714Y-54452380D01*
X118857142Y-90416666D02*
X118904761Y-90464285D01*
X118952380Y-90607142D01*
X118952380Y-90702380D01*
X118904761Y-90845238D01*
X118809523Y-90940476D01*
X118714285Y-90988095D01*
X118523809Y-91035714D01*
X118380952Y-91035714D01*
X118190476Y-90988095D01*
X118095238Y-90940476D01*
X118000000Y-90845238D01*
X117952380Y-90702380D01*
X117952380Y-90607142D01*
X118000000Y-90464285D01*
X118047619Y-90416666D01*
X117952380Y-90083333D02*
X117952380Y-89464285D01*
X118333333Y-89797619D01*
X118333333Y-89654761D01*
X118380952Y-89559523D01*
X118428571Y-89511904D01*
X118523809Y-89464285D01*
X118761904Y-89464285D01*
X118857142Y-89511904D01*
X118904761Y-89559523D01*
X118952380Y-89654761D01*
X118952380Y-89940476D01*
X118904761Y-90035714D01*
X118857142Y-90083333D01*
X148833333Y-45857142D02*
X148785714Y-45904761D01*
X148642857Y-45952380D01*
X148547619Y-45952380D01*
X148404761Y-45904761D01*
X148309523Y-45809523D01*
X148261904Y-45714285D01*
X148214285Y-45523809D01*
X148214285Y-45380952D01*
X148261904Y-45190476D01*
X148309523Y-45095238D01*
X148404761Y-45000000D01*
X148547619Y-44952380D01*
X148642857Y-44952380D01*
X148785714Y-45000000D01*
X148833333Y-45047619D01*
X149690476Y-45285714D02*
X149690476Y-45952380D01*
X149452380Y-44904761D02*
X149214285Y-45619047D01*
X149833333Y-45619047D01*
X190183333Y-84607142D02*
X190135714Y-84654761D01*
X189992857Y-84702380D01*
X189897619Y-84702380D01*
X189754761Y-84654761D01*
X189659523Y-84559523D01*
X189611904Y-84464285D01*
X189564285Y-84273809D01*
X189564285Y-84130952D01*
X189611904Y-83940476D01*
X189659523Y-83845238D01*
X189754761Y-83750000D01*
X189897619Y-83702380D01*
X189992857Y-83702380D01*
X190135714Y-83750000D01*
X190183333Y-83797619D01*
X191088095Y-83702380D02*
X190611904Y-83702380D01*
X190564285Y-84178571D01*
X190611904Y-84130952D01*
X190707142Y-84083333D01*
X190945238Y-84083333D01*
X191040476Y-84130952D01*
X191088095Y-84178571D01*
X191135714Y-84273809D01*
X191135714Y-84511904D01*
X191088095Y-84607142D01*
X191040476Y-84654761D01*
X190945238Y-84702380D01*
X190707142Y-84702380D01*
X190611904Y-84654761D01*
X190564285Y-84607142D01*
X155533333Y-104407142D02*
X155485714Y-104454761D01*
X155342857Y-104502380D01*
X155247619Y-104502380D01*
X155104761Y-104454761D01*
X155009523Y-104359523D01*
X154961904Y-104264285D01*
X154914285Y-104073809D01*
X154914285Y-103930952D01*
X154961904Y-103740476D01*
X155009523Y-103645238D01*
X155104761Y-103550000D01*
X155247619Y-103502380D01*
X155342857Y-103502380D01*
X155485714Y-103550000D01*
X155533333Y-103597619D01*
X156390476Y-103502380D02*
X156200000Y-103502380D01*
X156104761Y-103550000D01*
X156057142Y-103597619D01*
X155961904Y-103740476D01*
X155914285Y-103930952D01*
X155914285Y-104311904D01*
X155961904Y-104407142D01*
X156009523Y-104454761D01*
X156104761Y-104502380D01*
X156295238Y-104502380D01*
X156390476Y-104454761D01*
X156438095Y-104407142D01*
X156485714Y-104311904D01*
X156485714Y-104073809D01*
X156438095Y-103978571D01*
X156390476Y-103930952D01*
X156295238Y-103883333D01*
X156104761Y-103883333D01*
X156009523Y-103930952D01*
X155961904Y-103978571D01*
X155914285Y-104073809D01*
X182633333Y-84557142D02*
X182585714Y-84604761D01*
X182442857Y-84652380D01*
X182347619Y-84652380D01*
X182204761Y-84604761D01*
X182109523Y-84509523D01*
X182061904Y-84414285D01*
X182014285Y-84223809D01*
X182014285Y-84080952D01*
X182061904Y-83890476D01*
X182109523Y-83795238D01*
X182204761Y-83700000D01*
X182347619Y-83652380D01*
X182442857Y-83652380D01*
X182585714Y-83700000D01*
X182633333Y-83747619D01*
X182966666Y-83652380D02*
X183633333Y-83652380D01*
X183204761Y-84652380D01*
X158983333Y-76257142D02*
X158935714Y-76304761D01*
X158792857Y-76352380D01*
X158697619Y-76352380D01*
X158554761Y-76304761D01*
X158459523Y-76209523D01*
X158411904Y-76114285D01*
X158364285Y-75923809D01*
X158364285Y-75780952D01*
X158411904Y-75590476D01*
X158459523Y-75495238D01*
X158554761Y-75400000D01*
X158697619Y-75352380D01*
X158792857Y-75352380D01*
X158935714Y-75400000D01*
X158983333Y-75447619D01*
X159554761Y-75780952D02*
X159459523Y-75733333D01*
X159411904Y-75685714D01*
X159364285Y-75590476D01*
X159364285Y-75542857D01*
X159411904Y-75447619D01*
X159459523Y-75400000D01*
X159554761Y-75352380D01*
X159745238Y-75352380D01*
X159840476Y-75400000D01*
X159888095Y-75447619D01*
X159935714Y-75542857D01*
X159935714Y-75590476D01*
X159888095Y-75685714D01*
X159840476Y-75733333D01*
X159745238Y-75780952D01*
X159554761Y-75780952D01*
X159459523Y-75828571D01*
X159411904Y-75876190D01*
X159364285Y-75971428D01*
X159364285Y-76161904D01*
X159411904Y-76257142D01*
X159459523Y-76304761D01*
X159554761Y-76352380D01*
X159745238Y-76352380D01*
X159840476Y-76304761D01*
X159888095Y-76257142D01*
X159935714Y-76161904D01*
X159935714Y-75971428D01*
X159888095Y-75876190D01*
X159840476Y-75828571D01*
X159745238Y-75780952D01*
X134383333Y-85657142D02*
X134335714Y-85704761D01*
X134192857Y-85752380D01*
X134097619Y-85752380D01*
X133954761Y-85704761D01*
X133859523Y-85609523D01*
X133811904Y-85514285D01*
X133764285Y-85323809D01*
X133764285Y-85180952D01*
X133811904Y-84990476D01*
X133859523Y-84895238D01*
X133954761Y-84800000D01*
X134097619Y-84752380D01*
X134192857Y-84752380D01*
X134335714Y-84800000D01*
X134383333Y-84847619D01*
X134859523Y-85752380D02*
X135050000Y-85752380D01*
X135145238Y-85704761D01*
X135192857Y-85657142D01*
X135288095Y-85514285D01*
X135335714Y-85323809D01*
X135335714Y-84942857D01*
X135288095Y-84847619D01*
X135240476Y-84800000D01*
X135145238Y-84752380D01*
X134954761Y-84752380D01*
X134859523Y-84800000D01*
X134811904Y-84847619D01*
X134764285Y-84942857D01*
X134764285Y-85180952D01*
X134811904Y-85276190D01*
X134859523Y-85323809D01*
X134954761Y-85371428D01*
X135145238Y-85371428D01*
X135240476Y-85323809D01*
X135288095Y-85276190D01*
X135335714Y-85180952D01*
X155007142Y-100857142D02*
X154959523Y-100904761D01*
X154816666Y-100952380D01*
X154721428Y-100952380D01*
X154578571Y-100904761D01*
X154483333Y-100809523D01*
X154435714Y-100714285D01*
X154388095Y-100523809D01*
X154388095Y-100380952D01*
X154435714Y-100190476D01*
X154483333Y-100095238D01*
X154578571Y-100000000D01*
X154721428Y-99952380D01*
X154816666Y-99952380D01*
X154959523Y-100000000D01*
X155007142Y-100047619D01*
X155959523Y-100952380D02*
X155388095Y-100952380D01*
X155673809Y-100952380D02*
X155673809Y-99952380D01*
X155578571Y-100095238D01*
X155483333Y-100190476D01*
X155388095Y-100238095D01*
X156578571Y-99952380D02*
X156673809Y-99952380D01*
X156769047Y-100000000D01*
X156816666Y-100047619D01*
X156864285Y-100142857D01*
X156911904Y-100333333D01*
X156911904Y-100571428D01*
X156864285Y-100761904D01*
X156816666Y-100857142D01*
X156769047Y-100904761D01*
X156673809Y-100952380D01*
X156578571Y-100952380D01*
X156483333Y-100904761D01*
X156435714Y-100857142D01*
X156388095Y-100761904D01*
X156340476Y-100571428D01*
X156340476Y-100333333D01*
X156388095Y-100142857D01*
X156435714Y-100047619D01*
X156483333Y-100000000D01*
X156578571Y-99952380D01*
X137057142Y-67207142D02*
X137009523Y-67254761D01*
X136866666Y-67302380D01*
X136771428Y-67302380D01*
X136628571Y-67254761D01*
X136533333Y-67159523D01*
X136485714Y-67064285D01*
X136438095Y-66873809D01*
X136438095Y-66730952D01*
X136485714Y-66540476D01*
X136533333Y-66445238D01*
X136628571Y-66350000D01*
X136771428Y-66302380D01*
X136866666Y-66302380D01*
X137009523Y-66350000D01*
X137057142Y-66397619D01*
X138009523Y-67302380D02*
X137438095Y-67302380D01*
X137723809Y-67302380D02*
X137723809Y-66302380D01*
X137628571Y-66445238D01*
X137533333Y-66540476D01*
X137438095Y-66588095D01*
X138961904Y-67302380D02*
X138390476Y-67302380D01*
X138676190Y-67302380D02*
X138676190Y-66302380D01*
X138580952Y-66445238D01*
X138485714Y-66540476D01*
X138390476Y-66588095D01*
X189457142Y-53757142D02*
X189409523Y-53804761D01*
X189266666Y-53852380D01*
X189171428Y-53852380D01*
X189028571Y-53804761D01*
X188933333Y-53709523D01*
X188885714Y-53614285D01*
X188838095Y-53423809D01*
X188838095Y-53280952D01*
X188885714Y-53090476D01*
X188933333Y-52995238D01*
X189028571Y-52900000D01*
X189171428Y-52852380D01*
X189266666Y-52852380D01*
X189409523Y-52900000D01*
X189457142Y-52947619D01*
X190409523Y-53852380D02*
X189838095Y-53852380D01*
X190123809Y-53852380D02*
X190123809Y-52852380D01*
X190028571Y-52995238D01*
X189933333Y-53090476D01*
X189838095Y-53138095D01*
X190790476Y-52947619D02*
X190838095Y-52900000D01*
X190933333Y-52852380D01*
X191171428Y-52852380D01*
X191266666Y-52900000D01*
X191314285Y-52947619D01*
X191361904Y-53042857D01*
X191361904Y-53138095D01*
X191314285Y-53280952D01*
X190742857Y-53852380D01*
X191361904Y-53852380D01*
X130357142Y-61857142D02*
X130309523Y-61904761D01*
X130166666Y-61952380D01*
X130071428Y-61952380D01*
X129928571Y-61904761D01*
X129833333Y-61809523D01*
X129785714Y-61714285D01*
X129738095Y-61523809D01*
X129738095Y-61380952D01*
X129785714Y-61190476D01*
X129833333Y-61095238D01*
X129928571Y-61000000D01*
X130071428Y-60952380D01*
X130166666Y-60952380D01*
X130309523Y-61000000D01*
X130357142Y-61047619D01*
X131309523Y-61952380D02*
X130738095Y-61952380D01*
X131023809Y-61952380D02*
X131023809Y-60952380D01*
X130928571Y-61095238D01*
X130833333Y-61190476D01*
X130738095Y-61238095D01*
X131642857Y-60952380D02*
X132261904Y-60952380D01*
X131928571Y-61333333D01*
X132071428Y-61333333D01*
X132166666Y-61380952D01*
X132214285Y-61428571D01*
X132261904Y-61523809D01*
X132261904Y-61761904D01*
X132214285Y-61857142D01*
X132166666Y-61904761D01*
X132071428Y-61952380D01*
X131785714Y-61952380D01*
X131690476Y-61904761D01*
X131642857Y-61857142D01*
X151157142Y-76207142D02*
X151109523Y-76254761D01*
X150966666Y-76302380D01*
X150871428Y-76302380D01*
X150728571Y-76254761D01*
X150633333Y-76159523D01*
X150585714Y-76064285D01*
X150538095Y-75873809D01*
X150538095Y-75730952D01*
X150585714Y-75540476D01*
X150633333Y-75445238D01*
X150728571Y-75350000D01*
X150871428Y-75302380D01*
X150966666Y-75302380D01*
X151109523Y-75350000D01*
X151157142Y-75397619D01*
X152109523Y-76302380D02*
X151538095Y-76302380D01*
X151823809Y-76302380D02*
X151823809Y-75302380D01*
X151728571Y-75445238D01*
X151633333Y-75540476D01*
X151538095Y-75588095D01*
X152966666Y-75635714D02*
X152966666Y-76302380D01*
X152728571Y-75254761D02*
X152490476Y-75969047D01*
X153109523Y-75969047D01*
X165607142Y-125857142D02*
X165559523Y-125904761D01*
X165416666Y-125952380D01*
X165321428Y-125952380D01*
X165178571Y-125904761D01*
X165083333Y-125809523D01*
X165035714Y-125714285D01*
X164988095Y-125523809D01*
X164988095Y-125380952D01*
X165035714Y-125190476D01*
X165083333Y-125095238D01*
X165178571Y-125000000D01*
X165321428Y-124952380D01*
X165416666Y-124952380D01*
X165559523Y-125000000D01*
X165607142Y-125047619D01*
X166559523Y-125952380D02*
X165988095Y-125952380D01*
X166273809Y-125952380D02*
X166273809Y-124952380D01*
X166178571Y-125095238D01*
X166083333Y-125190476D01*
X165988095Y-125238095D01*
X167464285Y-124952380D02*
X166988095Y-124952380D01*
X166940476Y-125428571D01*
X166988095Y-125380952D01*
X167083333Y-125333333D01*
X167321428Y-125333333D01*
X167416666Y-125380952D01*
X167464285Y-125428571D01*
X167511904Y-125523809D01*
X167511904Y-125761904D01*
X167464285Y-125857142D01*
X167416666Y-125904761D01*
X167321428Y-125952380D01*
X167083333Y-125952380D01*
X166988095Y-125904761D01*
X166940476Y-125857142D01*
X174857142Y-77357142D02*
X174809523Y-77404761D01*
X174666666Y-77452380D01*
X174571428Y-77452380D01*
X174428571Y-77404761D01*
X174333333Y-77309523D01*
X174285714Y-77214285D01*
X174238095Y-77023809D01*
X174238095Y-76880952D01*
X174285714Y-76690476D01*
X174333333Y-76595238D01*
X174428571Y-76500000D01*
X174571428Y-76452380D01*
X174666666Y-76452380D01*
X174809523Y-76500000D01*
X174857142Y-76547619D01*
X175809523Y-77452380D02*
X175238095Y-77452380D01*
X175523809Y-77452380D02*
X175523809Y-76452380D01*
X175428571Y-76595238D01*
X175333333Y-76690476D01*
X175238095Y-76738095D01*
X176666666Y-76452380D02*
X176476190Y-76452380D01*
X176380952Y-76500000D01*
X176333333Y-76547619D01*
X176238095Y-76690476D01*
X176190476Y-76880952D01*
X176190476Y-77261904D01*
X176238095Y-77357142D01*
X176285714Y-77404761D01*
X176380952Y-77452380D01*
X176571428Y-77452380D01*
X176666666Y-77404761D01*
X176714285Y-77357142D01*
X176761904Y-77261904D01*
X176761904Y-77023809D01*
X176714285Y-76928571D01*
X176666666Y-76880952D01*
X176571428Y-76833333D01*
X176380952Y-76833333D01*
X176285714Y-76880952D01*
X176238095Y-76928571D01*
X176190476Y-77023809D01*
X111107142Y-77857142D02*
X111059523Y-77904761D01*
X110916666Y-77952380D01*
X110821428Y-77952380D01*
X110678571Y-77904761D01*
X110583333Y-77809523D01*
X110535714Y-77714285D01*
X110488095Y-77523809D01*
X110488095Y-77380952D01*
X110535714Y-77190476D01*
X110583333Y-77095238D01*
X110678571Y-77000000D01*
X110821428Y-76952380D01*
X110916666Y-76952380D01*
X111059523Y-77000000D01*
X111107142Y-77047619D01*
X112059523Y-77952380D02*
X111488095Y-77952380D01*
X111773809Y-77952380D02*
X111773809Y-76952380D01*
X111678571Y-77095238D01*
X111583333Y-77190476D01*
X111488095Y-77238095D01*
X112392857Y-76952380D02*
X113059523Y-76952380D01*
X112630952Y-77952380D01*
X167357142Y-97357142D02*
X167309523Y-97404761D01*
X167166666Y-97452380D01*
X167071428Y-97452380D01*
X166928571Y-97404761D01*
X166833333Y-97309523D01*
X166785714Y-97214285D01*
X166738095Y-97023809D01*
X166738095Y-96880952D01*
X166785714Y-96690476D01*
X166833333Y-96595238D01*
X166928571Y-96500000D01*
X167071428Y-96452380D01*
X167166666Y-96452380D01*
X167309523Y-96500000D01*
X167357142Y-96547619D01*
X168309523Y-97452380D02*
X167738095Y-97452380D01*
X168023809Y-97452380D02*
X168023809Y-96452380D01*
X167928571Y-96595238D01*
X167833333Y-96690476D01*
X167738095Y-96738095D01*
X168880952Y-96880952D02*
X168785714Y-96833333D01*
X168738095Y-96785714D01*
X168690476Y-96690476D01*
X168690476Y-96642857D01*
X168738095Y-96547619D01*
X168785714Y-96500000D01*
X168880952Y-96452380D01*
X169071428Y-96452380D01*
X169166666Y-96500000D01*
X169214285Y-96547619D01*
X169261904Y-96642857D01*
X169261904Y-96690476D01*
X169214285Y-96785714D01*
X169166666Y-96833333D01*
X169071428Y-96880952D01*
X168880952Y-96880952D01*
X168785714Y-96928571D01*
X168738095Y-96976190D01*
X168690476Y-97071428D01*
X168690476Y-97261904D01*
X168738095Y-97357142D01*
X168785714Y-97404761D01*
X168880952Y-97452380D01*
X169071428Y-97452380D01*
X169166666Y-97404761D01*
X169214285Y-97357142D01*
X169261904Y-97261904D01*
X169261904Y-97071428D01*
X169214285Y-96976190D01*
X169166666Y-96928571D01*
X169071428Y-96880952D01*
X145107142Y-97357142D02*
X145059523Y-97404761D01*
X144916666Y-97452380D01*
X144821428Y-97452380D01*
X144678571Y-97404761D01*
X144583333Y-97309523D01*
X144535714Y-97214285D01*
X144488095Y-97023809D01*
X144488095Y-96880952D01*
X144535714Y-96690476D01*
X144583333Y-96595238D01*
X144678571Y-96500000D01*
X144821428Y-96452380D01*
X144916666Y-96452380D01*
X145059523Y-96500000D01*
X145107142Y-96547619D01*
X146059523Y-97452380D02*
X145488095Y-97452380D01*
X145773809Y-97452380D02*
X145773809Y-96452380D01*
X145678571Y-96595238D01*
X145583333Y-96690476D01*
X145488095Y-96738095D01*
X146535714Y-97452380D02*
X146726190Y-97452380D01*
X146821428Y-97404761D01*
X146869047Y-97357142D01*
X146964285Y-97214285D01*
X147011904Y-97023809D01*
X147011904Y-96642857D01*
X146964285Y-96547619D01*
X146916666Y-96500000D01*
X146821428Y-96452380D01*
X146630952Y-96452380D01*
X146535714Y-96500000D01*
X146488095Y-96547619D01*
X146440476Y-96642857D01*
X146440476Y-96880952D01*
X146488095Y-96976190D01*
X146535714Y-97023809D01*
X146630952Y-97071428D01*
X146821428Y-97071428D01*
X146916666Y-97023809D01*
X146964285Y-96976190D01*
X147011904Y-96880952D01*
X165607142Y-122357142D02*
X165559523Y-122404761D01*
X165416666Y-122452380D01*
X165321428Y-122452380D01*
X165178571Y-122404761D01*
X165083333Y-122309523D01*
X165035714Y-122214285D01*
X164988095Y-122023809D01*
X164988095Y-121880952D01*
X165035714Y-121690476D01*
X165083333Y-121595238D01*
X165178571Y-121500000D01*
X165321428Y-121452380D01*
X165416666Y-121452380D01*
X165559523Y-121500000D01*
X165607142Y-121547619D01*
X165988095Y-121547619D02*
X166035714Y-121500000D01*
X166130952Y-121452380D01*
X166369047Y-121452380D01*
X166464285Y-121500000D01*
X166511904Y-121547619D01*
X166559523Y-121642857D01*
X166559523Y-121738095D01*
X166511904Y-121880952D01*
X165940476Y-122452380D01*
X166559523Y-122452380D01*
X167178571Y-121452380D02*
X167273809Y-121452380D01*
X167369047Y-121500000D01*
X167416666Y-121547619D01*
X167464285Y-121642857D01*
X167511904Y-121833333D01*
X167511904Y-122071428D01*
X167464285Y-122261904D01*
X167416666Y-122357142D01*
X167369047Y-122404761D01*
X167273809Y-122452380D01*
X167178571Y-122452380D01*
X167083333Y-122404761D01*
X167035714Y-122357142D01*
X166988095Y-122261904D01*
X166940476Y-122071428D01*
X166940476Y-121833333D01*
X166988095Y-121642857D01*
X167035714Y-121547619D01*
X167083333Y-121500000D01*
X167178571Y-121452380D01*
X142857142Y-122557142D02*
X142809523Y-122604761D01*
X142666666Y-122652380D01*
X142571428Y-122652380D01*
X142428571Y-122604761D01*
X142333333Y-122509523D01*
X142285714Y-122414285D01*
X142238095Y-122223809D01*
X142238095Y-122080952D01*
X142285714Y-121890476D01*
X142333333Y-121795238D01*
X142428571Y-121700000D01*
X142571428Y-121652380D01*
X142666666Y-121652380D01*
X142809523Y-121700000D01*
X142857142Y-121747619D01*
X143238095Y-121747619D02*
X143285714Y-121700000D01*
X143380952Y-121652380D01*
X143619047Y-121652380D01*
X143714285Y-121700000D01*
X143761904Y-121747619D01*
X143809523Y-121842857D01*
X143809523Y-121938095D01*
X143761904Y-122080952D01*
X143190476Y-122652380D01*
X143809523Y-122652380D01*
X144761904Y-122652380D02*
X144190476Y-122652380D01*
X144476190Y-122652380D02*
X144476190Y-121652380D01*
X144380952Y-121795238D01*
X144285714Y-121890476D01*
X144190476Y-121938095D01*
X129071904Y-54452380D02*
X129071904Y-53452380D01*
X129310000Y-53452380D01*
X129452857Y-53500000D01*
X129548095Y-53595238D01*
X129595714Y-53690476D01*
X129643333Y-53880952D01*
X129643333Y-54023809D01*
X129595714Y-54214285D01*
X129548095Y-54309523D01*
X129452857Y-54404761D01*
X129310000Y-54452380D01*
X129071904Y-54452380D01*
X130595714Y-54452380D02*
X130024285Y-54452380D01*
X130310000Y-54452380D02*
X130310000Y-53452380D01*
X130214761Y-53595238D01*
X130119523Y-53690476D01*
X130024285Y-53738095D01*
X125738095Y-52352380D02*
X125738095Y-51352380D01*
X126309523Y-52352380D02*
X125880952Y-51780952D01*
X126309523Y-51352380D02*
X125738095Y-51923809D01*
X148941666Y-35777380D02*
X148941666Y-36491666D01*
X148894047Y-36634523D01*
X148798809Y-36729761D01*
X148655952Y-36777380D01*
X148560714Y-36777380D01*
X149941666Y-36777380D02*
X149370238Y-36777380D01*
X149655952Y-36777380D02*
X149655952Y-35777380D01*
X149560714Y-35920238D01*
X149465476Y-36015476D01*
X149370238Y-36063095D01*
X116266190Y-41351597D02*
X116266190Y-42066905D01*
X116218502Y-42209966D01*
X116123128Y-42305340D01*
X115980067Y-42353027D01*
X115884692Y-42353027D01*
X116695374Y-41446972D02*
X116743061Y-41399285D01*
X116838435Y-41351597D01*
X117076871Y-41351597D01*
X117172245Y-41399285D01*
X117219932Y-41446972D01*
X117267620Y-41542346D01*
X117267620Y-41637720D01*
X117219932Y-41780782D01*
X116647687Y-42353027D01*
X117267620Y-42353027D01*
X132666666Y-36402380D02*
X132666666Y-37116666D01*
X132619047Y-37259523D01*
X132523809Y-37354761D01*
X132380952Y-37402380D01*
X132285714Y-37402380D01*
X133047619Y-36402380D02*
X133666666Y-36402380D01*
X133333333Y-36783333D01*
X133476190Y-36783333D01*
X133571428Y-36830952D01*
X133619047Y-36878571D01*
X133666666Y-36973809D01*
X133666666Y-37211904D01*
X133619047Y-37307142D01*
X133571428Y-37354761D01*
X133476190Y-37402380D01*
X133190476Y-37402380D01*
X133095238Y-37354761D01*
X133047619Y-37307142D01*
X179666666Y-41452380D02*
X179666666Y-42166666D01*
X179619047Y-42309523D01*
X179523809Y-42404761D01*
X179380952Y-42452380D01*
X179285714Y-42452380D01*
X180571428Y-41785714D02*
X180571428Y-42452380D01*
X180333333Y-41404761D02*
X180095238Y-42119047D01*
X180714285Y-42119047D01*
X203266190Y-41801597D02*
X203266190Y-42516905D01*
X203218502Y-42659966D01*
X203123128Y-42755340D01*
X202980067Y-42803027D01*
X202884692Y-42803027D01*
X204219932Y-41801597D02*
X203743061Y-41801597D01*
X203695374Y-42278469D01*
X203743061Y-42230782D01*
X203838435Y-42183095D01*
X204076871Y-42183095D01*
X204172245Y-42230782D01*
X204219932Y-42278469D01*
X204267620Y-42373843D01*
X204267620Y-42612279D01*
X204219932Y-42707653D01*
X204172245Y-42755340D01*
X204076871Y-42803027D01*
X203838435Y-42803027D01*
X203743061Y-42755340D01*
X203695374Y-42707653D01*
X184504761Y-46672619D02*
X184409523Y-46625000D01*
X184314285Y-46529761D01*
X184171428Y-46386904D01*
X184076190Y-46339285D01*
X183980952Y-46339285D01*
X184028571Y-46577380D02*
X183933333Y-46529761D01*
X183838095Y-46434523D01*
X183790476Y-46244047D01*
X183790476Y-45910714D01*
X183838095Y-45720238D01*
X183933333Y-45625000D01*
X184028571Y-45577380D01*
X184219047Y-45577380D01*
X184314285Y-45625000D01*
X184409523Y-45720238D01*
X184457142Y-45910714D01*
X184457142Y-46244047D01*
X184409523Y-46434523D01*
X184314285Y-46529761D01*
X184219047Y-46577380D01*
X184028571Y-46577380D01*
X185409523Y-46577380D02*
X184838095Y-46577380D01*
X185123809Y-46577380D02*
X185123809Y-45577380D01*
X185028571Y-45720238D01*
X184933333Y-45815476D01*
X184838095Y-45863095D01*
X110523333Y-54452380D02*
X110190000Y-53976190D01*
X109951904Y-54452380D02*
X109951904Y-53452380D01*
X110332857Y-53452380D01*
X110428095Y-53500000D01*
X110475714Y-53547619D01*
X110523333Y-53642857D01*
X110523333Y-53785714D01*
X110475714Y-53880952D01*
X110428095Y-53928571D01*
X110332857Y-53976190D01*
X109951904Y-53976190D01*
X111475714Y-54452380D02*
X110904285Y-54452380D01*
X111190000Y-54452380D02*
X111190000Y-53452380D01*
X111094761Y-53595238D01*
X110999523Y-53690476D01*
X110904285Y-53738095D01*
X125952380Y-88976666D02*
X125476190Y-89310000D01*
X125952380Y-89548095D02*
X124952380Y-89548095D01*
X124952380Y-89167142D01*
X125000000Y-89071904D01*
X125047619Y-89024285D01*
X125142857Y-88976666D01*
X125285714Y-88976666D01*
X125380952Y-89024285D01*
X125428571Y-89071904D01*
X125476190Y-89167142D01*
X125476190Y-89548095D01*
X125047619Y-88595714D02*
X125000000Y-88548095D01*
X124952380Y-88452857D01*
X124952380Y-88214761D01*
X125000000Y-88119523D01*
X125047619Y-88071904D01*
X125142857Y-88024285D01*
X125238095Y-88024285D01*
X125380952Y-88071904D01*
X125952380Y-88643333D01*
X125952380Y-88024285D01*
X122452380Y-88976666D02*
X121976190Y-89310000D01*
X122452380Y-89548095D02*
X121452380Y-89548095D01*
X121452380Y-89167142D01*
X121500000Y-89071904D01*
X121547619Y-89024285D01*
X121642857Y-88976666D01*
X121785714Y-88976666D01*
X121880952Y-89024285D01*
X121928571Y-89071904D01*
X121976190Y-89167142D01*
X121976190Y-89548095D01*
X121452380Y-88643333D02*
X121452380Y-88024285D01*
X121833333Y-88357619D01*
X121833333Y-88214761D01*
X121880952Y-88119523D01*
X121928571Y-88071904D01*
X122023809Y-88024285D01*
X122261904Y-88024285D01*
X122357142Y-88071904D01*
X122404761Y-88119523D01*
X122452380Y-88214761D01*
X122452380Y-88500476D01*
X122404761Y-88595714D01*
X122357142Y-88643333D01*
X110523333Y-58452380D02*
X110190000Y-57976190D01*
X109951904Y-58452380D02*
X109951904Y-57452380D01*
X110332857Y-57452380D01*
X110428095Y-57500000D01*
X110475714Y-57547619D01*
X110523333Y-57642857D01*
X110523333Y-57785714D01*
X110475714Y-57880952D01*
X110428095Y-57928571D01*
X110332857Y-57976190D01*
X109951904Y-57976190D01*
X111380476Y-57785714D02*
X111380476Y-58452380D01*
X111142380Y-57404761D02*
X110904285Y-58119047D01*
X111523333Y-58119047D01*
X136452380Y-45976666D02*
X135976190Y-46310000D01*
X136452380Y-46548095D02*
X135452380Y-46548095D01*
X135452380Y-46167142D01*
X135500000Y-46071904D01*
X135547619Y-46024285D01*
X135642857Y-45976666D01*
X135785714Y-45976666D01*
X135880952Y-46024285D01*
X135928571Y-46071904D01*
X135976190Y-46167142D01*
X135976190Y-46548095D01*
X135452380Y-45071904D02*
X135452380Y-45548095D01*
X135928571Y-45595714D01*
X135880952Y-45548095D01*
X135833333Y-45452857D01*
X135833333Y-45214761D01*
X135880952Y-45119523D01*
X135928571Y-45071904D01*
X136023809Y-45024285D01*
X136261904Y-45024285D01*
X136357142Y-45071904D01*
X136404761Y-45119523D01*
X136452380Y-45214761D01*
X136452380Y-45452857D01*
X136404761Y-45548095D01*
X136357142Y-45595714D01*
X183952380Y-40356666D02*
X183476190Y-40690000D01*
X183952380Y-40928095D02*
X182952380Y-40928095D01*
X182952380Y-40547142D01*
X183000000Y-40451904D01*
X183047619Y-40404285D01*
X183142857Y-40356666D01*
X183285714Y-40356666D01*
X183380952Y-40404285D01*
X183428571Y-40451904D01*
X183476190Y-40547142D01*
X183476190Y-40928095D01*
X182952380Y-39499523D02*
X182952380Y-39690000D01*
X183000000Y-39785238D01*
X183047619Y-39832857D01*
X183190476Y-39928095D01*
X183380952Y-39975714D01*
X183761904Y-39975714D01*
X183857142Y-39928095D01*
X183904761Y-39880476D01*
X183952380Y-39785238D01*
X183952380Y-39594761D01*
X183904761Y-39499523D01*
X183857142Y-39451904D01*
X183761904Y-39404285D01*
X183523809Y-39404285D01*
X183428571Y-39451904D01*
X183380952Y-39499523D01*
X183333333Y-39594761D01*
X183333333Y-39785238D01*
X183380952Y-39880476D01*
X183428571Y-39928095D01*
X183523809Y-39975714D01*
X190143333Y-40452380D02*
X189810000Y-39976190D01*
X189571904Y-40452380D02*
X189571904Y-39452380D01*
X189952857Y-39452380D01*
X190048095Y-39500000D01*
X190095714Y-39547619D01*
X190143333Y-39642857D01*
X190143333Y-39785714D01*
X190095714Y-39880952D01*
X190048095Y-39928571D01*
X189952857Y-39976190D01*
X189571904Y-39976190D01*
X190476666Y-39452380D02*
X191143333Y-39452380D01*
X190714761Y-40452380D01*
X190023333Y-36952380D02*
X189690000Y-36476190D01*
X189451904Y-36952380D02*
X189451904Y-35952380D01*
X189832857Y-35952380D01*
X189928095Y-36000000D01*
X189975714Y-36047619D01*
X190023333Y-36142857D01*
X190023333Y-36285714D01*
X189975714Y-36380952D01*
X189928095Y-36428571D01*
X189832857Y-36476190D01*
X189451904Y-36476190D01*
X190594761Y-36380952D02*
X190499523Y-36333333D01*
X190451904Y-36285714D01*
X190404285Y-36190476D01*
X190404285Y-36142857D01*
X190451904Y-36047619D01*
X190499523Y-36000000D01*
X190594761Y-35952380D01*
X190785238Y-35952380D01*
X190880476Y-36000000D01*
X190928095Y-36047619D01*
X190975714Y-36142857D01*
X190975714Y-36190476D01*
X190928095Y-36285714D01*
X190880476Y-36333333D01*
X190785238Y-36380952D01*
X190594761Y-36380952D01*
X190499523Y-36428571D01*
X190451904Y-36476190D01*
X190404285Y-36571428D01*
X190404285Y-36761904D01*
X190451904Y-36857142D01*
X190499523Y-36904761D01*
X190594761Y-36952380D01*
X190785238Y-36952380D01*
X190880476Y-36904761D01*
X190928095Y-36857142D01*
X190975714Y-36761904D01*
X190975714Y-36571428D01*
X190928095Y-36476190D01*
X190880476Y-36428571D01*
X190785238Y-36380952D01*
X129393333Y-58452380D02*
X129060000Y-57976190D01*
X128821904Y-58452380D02*
X128821904Y-57452380D01*
X129202857Y-57452380D01*
X129298095Y-57500000D01*
X129345714Y-57547619D01*
X129393333Y-57642857D01*
X129393333Y-57785714D01*
X129345714Y-57880952D01*
X129298095Y-57928571D01*
X129202857Y-57976190D01*
X128821904Y-57976190D01*
X129869523Y-58452380D02*
X130060000Y-58452380D01*
X130155238Y-58404761D01*
X130202857Y-58357142D01*
X130298095Y-58214285D01*
X130345714Y-58023809D01*
X130345714Y-57642857D01*
X130298095Y-57547619D01*
X130250476Y-57500000D01*
X130155238Y-57452380D01*
X129964761Y-57452380D01*
X129869523Y-57500000D01*
X129821904Y-57547619D01*
X129774285Y-57642857D01*
X129774285Y-57880952D01*
X129821904Y-57976190D01*
X129869523Y-58023809D01*
X129964761Y-58071428D01*
X130155238Y-58071428D01*
X130250476Y-58023809D01*
X130298095Y-57976190D01*
X130345714Y-57880952D01*
X175217142Y-45152380D02*
X174883809Y-44676190D01*
X174645714Y-45152380D02*
X174645714Y-44152380D01*
X175026666Y-44152380D01*
X175121904Y-44200000D01*
X175169523Y-44247619D01*
X175217142Y-44342857D01*
X175217142Y-44485714D01*
X175169523Y-44580952D01*
X175121904Y-44628571D01*
X175026666Y-44676190D01*
X174645714Y-44676190D01*
X176169523Y-45152380D02*
X175598095Y-45152380D01*
X175883809Y-45152380D02*
X175883809Y-44152380D01*
X175788571Y-44295238D01*
X175693333Y-44390476D01*
X175598095Y-44438095D01*
X176788571Y-44152380D02*
X176883809Y-44152380D01*
X176979047Y-44200000D01*
X177026666Y-44247619D01*
X177074285Y-44342857D01*
X177121904Y-44533333D01*
X177121904Y-44771428D01*
X177074285Y-44961904D01*
X177026666Y-45057142D01*
X176979047Y-45104761D01*
X176883809Y-45152380D01*
X176788571Y-45152380D01*
X176693333Y-45104761D01*
X176645714Y-45057142D01*
X176598095Y-44961904D01*
X176550476Y-44771428D01*
X176550476Y-44533333D01*
X176598095Y-44342857D01*
X176645714Y-44247619D01*
X176693333Y-44200000D01*
X176788571Y-44152380D01*
X175297142Y-49202380D02*
X174963809Y-48726190D01*
X174725714Y-49202380D02*
X174725714Y-48202380D01*
X175106666Y-48202380D01*
X175201904Y-48250000D01*
X175249523Y-48297619D01*
X175297142Y-48392857D01*
X175297142Y-48535714D01*
X175249523Y-48630952D01*
X175201904Y-48678571D01*
X175106666Y-48726190D01*
X174725714Y-48726190D01*
X176249523Y-49202380D02*
X175678095Y-49202380D01*
X175963809Y-49202380D02*
X175963809Y-48202380D01*
X175868571Y-48345238D01*
X175773333Y-48440476D01*
X175678095Y-48488095D01*
X177201904Y-49202380D02*
X176630476Y-49202380D01*
X176916190Y-49202380D02*
X176916190Y-48202380D01*
X176820952Y-48345238D01*
X176725714Y-48440476D01*
X176630476Y-48488095D01*
X175267142Y-53252380D02*
X174933809Y-52776190D01*
X174695714Y-53252380D02*
X174695714Y-52252380D01*
X175076666Y-52252380D01*
X175171904Y-52300000D01*
X175219523Y-52347619D01*
X175267142Y-52442857D01*
X175267142Y-52585714D01*
X175219523Y-52680952D01*
X175171904Y-52728571D01*
X175076666Y-52776190D01*
X174695714Y-52776190D01*
X176219523Y-53252380D02*
X175648095Y-53252380D01*
X175933809Y-53252380D02*
X175933809Y-52252380D01*
X175838571Y-52395238D01*
X175743333Y-52490476D01*
X175648095Y-52538095D01*
X176600476Y-52347619D02*
X176648095Y-52300000D01*
X176743333Y-52252380D01*
X176981428Y-52252380D01*
X177076666Y-52300000D01*
X177124285Y-52347619D01*
X177171904Y-52442857D01*
X177171904Y-52538095D01*
X177124285Y-52680952D01*
X176552857Y-53252380D01*
X177171904Y-53252380D01*
X175217142Y-133002380D02*
X174883809Y-132526190D01*
X174645714Y-133002380D02*
X174645714Y-132002380D01*
X175026666Y-132002380D01*
X175121904Y-132050000D01*
X175169523Y-132097619D01*
X175217142Y-132192857D01*
X175217142Y-132335714D01*
X175169523Y-132430952D01*
X175121904Y-132478571D01*
X175026666Y-132526190D01*
X174645714Y-132526190D01*
X176169523Y-133002380D02*
X175598095Y-133002380D01*
X175883809Y-133002380D02*
X175883809Y-132002380D01*
X175788571Y-132145238D01*
X175693333Y-132240476D01*
X175598095Y-132288095D01*
X176502857Y-132002380D02*
X177121904Y-132002380D01*
X176788571Y-132383333D01*
X176931428Y-132383333D01*
X177026666Y-132430952D01*
X177074285Y-132478571D01*
X177121904Y-132573809D01*
X177121904Y-132811904D01*
X177074285Y-132907142D01*
X177026666Y-132954761D01*
X176931428Y-133002380D01*
X176645714Y-133002380D01*
X176550476Y-132954761D01*
X176502857Y-132907142D01*
X175167142Y-125952380D02*
X174833809Y-125476190D01*
X174595714Y-125952380D02*
X174595714Y-124952380D01*
X174976666Y-124952380D01*
X175071904Y-125000000D01*
X175119523Y-125047619D01*
X175167142Y-125142857D01*
X175167142Y-125285714D01*
X175119523Y-125380952D01*
X175071904Y-125428571D01*
X174976666Y-125476190D01*
X174595714Y-125476190D01*
X176119523Y-125952380D02*
X175548095Y-125952380D01*
X175833809Y-125952380D02*
X175833809Y-124952380D01*
X175738571Y-125095238D01*
X175643333Y-125190476D01*
X175548095Y-125238095D01*
X176976666Y-125285714D02*
X176976666Y-125952380D01*
X176738571Y-124904761D02*
X176500476Y-125619047D01*
X177119523Y-125619047D01*
X165917142Y-93702380D02*
X165583809Y-93226190D01*
X165345714Y-93702380D02*
X165345714Y-92702380D01*
X165726666Y-92702380D01*
X165821904Y-92750000D01*
X165869523Y-92797619D01*
X165917142Y-92892857D01*
X165917142Y-93035714D01*
X165869523Y-93130952D01*
X165821904Y-93178571D01*
X165726666Y-93226190D01*
X165345714Y-93226190D01*
X166869523Y-93702380D02*
X166298095Y-93702380D01*
X166583809Y-93702380D02*
X166583809Y-92702380D01*
X166488571Y-92845238D01*
X166393333Y-92940476D01*
X166298095Y-92988095D01*
X167774285Y-92702380D02*
X167298095Y-92702380D01*
X167250476Y-93178571D01*
X167298095Y-93130952D01*
X167393333Y-93083333D01*
X167631428Y-93083333D01*
X167726666Y-93130952D01*
X167774285Y-93178571D01*
X167821904Y-93273809D01*
X167821904Y-93511904D01*
X167774285Y-93607142D01*
X167726666Y-93654761D01*
X167631428Y-93702380D01*
X167393333Y-93702380D01*
X167298095Y-93654761D01*
X167250476Y-93607142D01*
X175197142Y-129402380D02*
X174863809Y-128926190D01*
X174625714Y-129402380D02*
X174625714Y-128402380D01*
X175006666Y-128402380D01*
X175101904Y-128450000D01*
X175149523Y-128497619D01*
X175197142Y-128592857D01*
X175197142Y-128735714D01*
X175149523Y-128830952D01*
X175101904Y-128878571D01*
X175006666Y-128926190D01*
X174625714Y-128926190D01*
X176149523Y-129402380D02*
X175578095Y-129402380D01*
X175863809Y-129402380D02*
X175863809Y-128402380D01*
X175768571Y-128545238D01*
X175673333Y-128640476D01*
X175578095Y-128688095D01*
X177006666Y-128402380D02*
X176816190Y-128402380D01*
X176720952Y-128450000D01*
X176673333Y-128497619D01*
X176578095Y-128640476D01*
X176530476Y-128830952D01*
X176530476Y-129211904D01*
X176578095Y-129307142D01*
X176625714Y-129354761D01*
X176720952Y-129402380D01*
X176911428Y-129402380D01*
X177006666Y-129354761D01*
X177054285Y-129307142D01*
X177101904Y-129211904D01*
X177101904Y-128973809D01*
X177054285Y-128878571D01*
X177006666Y-128830952D01*
X176911428Y-128783333D01*
X176720952Y-128783333D01*
X176625714Y-128830952D01*
X176578095Y-128878571D01*
X176530476Y-128973809D01*
X173547142Y-70702380D02*
X173213809Y-70226190D01*
X172975714Y-70702380D02*
X172975714Y-69702380D01*
X173356666Y-69702380D01*
X173451904Y-69750000D01*
X173499523Y-69797619D01*
X173547142Y-69892857D01*
X173547142Y-70035714D01*
X173499523Y-70130952D01*
X173451904Y-70178571D01*
X173356666Y-70226190D01*
X172975714Y-70226190D01*
X174499523Y-70702380D02*
X173928095Y-70702380D01*
X174213809Y-70702380D02*
X174213809Y-69702380D01*
X174118571Y-69845238D01*
X174023333Y-69940476D01*
X173928095Y-69988095D01*
X174832857Y-69702380D02*
X175499523Y-69702380D01*
X175070952Y-70702380D01*
X110047142Y-70702380D02*
X109713809Y-70226190D01*
X109475714Y-70702380D02*
X109475714Y-69702380D01*
X109856666Y-69702380D01*
X109951904Y-69750000D01*
X109999523Y-69797619D01*
X110047142Y-69892857D01*
X110047142Y-70035714D01*
X109999523Y-70130952D01*
X109951904Y-70178571D01*
X109856666Y-70226190D01*
X109475714Y-70226190D01*
X110999523Y-70702380D02*
X110428095Y-70702380D01*
X110713809Y-70702380D02*
X110713809Y-69702380D01*
X110618571Y-69845238D01*
X110523333Y-69940476D01*
X110428095Y-69988095D01*
X111570952Y-70130952D02*
X111475714Y-70083333D01*
X111428095Y-70035714D01*
X111380476Y-69940476D01*
X111380476Y-69892857D01*
X111428095Y-69797619D01*
X111475714Y-69750000D01*
X111570952Y-69702380D01*
X111761428Y-69702380D01*
X111856666Y-69750000D01*
X111904285Y-69797619D01*
X111951904Y-69892857D01*
X111951904Y-69940476D01*
X111904285Y-70035714D01*
X111856666Y-70083333D01*
X111761428Y-70130952D01*
X111570952Y-70130952D01*
X111475714Y-70178571D01*
X111428095Y-70226190D01*
X111380476Y-70321428D01*
X111380476Y-70511904D01*
X111428095Y-70607142D01*
X111475714Y-70654761D01*
X111570952Y-70702380D01*
X111761428Y-70702380D01*
X111856666Y-70654761D01*
X111904285Y-70607142D01*
X111951904Y-70511904D01*
X111951904Y-70321428D01*
X111904285Y-70226190D01*
X111856666Y-70178571D01*
X111761428Y-70130952D01*
X173667142Y-73952380D02*
X173333809Y-73476190D01*
X173095714Y-73952380D02*
X173095714Y-72952380D01*
X173476666Y-72952380D01*
X173571904Y-73000000D01*
X173619523Y-73047619D01*
X173667142Y-73142857D01*
X173667142Y-73285714D01*
X173619523Y-73380952D01*
X173571904Y-73428571D01*
X173476666Y-73476190D01*
X173095714Y-73476190D01*
X174619523Y-73952380D02*
X174048095Y-73952380D01*
X174333809Y-73952380D02*
X174333809Y-72952380D01*
X174238571Y-73095238D01*
X174143333Y-73190476D01*
X174048095Y-73238095D01*
X175095714Y-73952380D02*
X175286190Y-73952380D01*
X175381428Y-73904761D01*
X175429047Y-73857142D01*
X175524285Y-73714285D01*
X175571904Y-73523809D01*
X175571904Y-73142857D01*
X175524285Y-73047619D01*
X175476666Y-73000000D01*
X175381428Y-72952380D01*
X175190952Y-72952380D01*
X175095714Y-73000000D01*
X175048095Y-73047619D01*
X175000476Y-73142857D01*
X175000476Y-73380952D01*
X175048095Y-73476190D01*
X175095714Y-73523809D01*
X175190952Y-73571428D01*
X175381428Y-73571428D01*
X175476666Y-73523809D01*
X175524285Y-73476190D01*
X175571904Y-73380952D01*
X109917142Y-74452380D02*
X109583809Y-73976190D01*
X109345714Y-74452380D02*
X109345714Y-73452380D01*
X109726666Y-73452380D01*
X109821904Y-73500000D01*
X109869523Y-73547619D01*
X109917142Y-73642857D01*
X109917142Y-73785714D01*
X109869523Y-73880952D01*
X109821904Y-73928571D01*
X109726666Y-73976190D01*
X109345714Y-73976190D01*
X110298095Y-73547619D02*
X110345714Y-73500000D01*
X110440952Y-73452380D01*
X110679047Y-73452380D01*
X110774285Y-73500000D01*
X110821904Y-73547619D01*
X110869523Y-73642857D01*
X110869523Y-73738095D01*
X110821904Y-73880952D01*
X110250476Y-74452380D01*
X110869523Y-74452380D01*
X111488571Y-73452380D02*
X111583809Y-73452380D01*
X111679047Y-73500000D01*
X111726666Y-73547619D01*
X111774285Y-73642857D01*
X111821904Y-73833333D01*
X111821904Y-74071428D01*
X111774285Y-74261904D01*
X111726666Y-74357142D01*
X111679047Y-74404761D01*
X111583809Y-74452380D01*
X111488571Y-74452380D01*
X111393333Y-74404761D01*
X111345714Y-74357142D01*
X111298095Y-74261904D01*
X111250476Y-74071428D01*
X111250476Y-73833333D01*
X111298095Y-73642857D01*
X111345714Y-73547619D01*
X111393333Y-73500000D01*
X111488571Y-73452380D01*
X173547142Y-81202380D02*
X173213809Y-80726190D01*
X172975714Y-81202380D02*
X172975714Y-80202380D01*
X173356666Y-80202380D01*
X173451904Y-80250000D01*
X173499523Y-80297619D01*
X173547142Y-80392857D01*
X173547142Y-80535714D01*
X173499523Y-80630952D01*
X173451904Y-80678571D01*
X173356666Y-80726190D01*
X172975714Y-80726190D01*
X173928095Y-80297619D02*
X173975714Y-80250000D01*
X174070952Y-80202380D01*
X174309047Y-80202380D01*
X174404285Y-80250000D01*
X174451904Y-80297619D01*
X174499523Y-80392857D01*
X174499523Y-80488095D01*
X174451904Y-80630952D01*
X173880476Y-81202380D01*
X174499523Y-81202380D01*
X175451904Y-81202380D02*
X174880476Y-81202380D01*
X175166190Y-81202380D02*
X175166190Y-80202380D01*
X175070952Y-80345238D01*
X174975714Y-80440476D01*
X174880476Y-80488095D01*
X109797142Y-81202380D02*
X109463809Y-80726190D01*
X109225714Y-81202380D02*
X109225714Y-80202380D01*
X109606666Y-80202380D01*
X109701904Y-80250000D01*
X109749523Y-80297619D01*
X109797142Y-80392857D01*
X109797142Y-80535714D01*
X109749523Y-80630952D01*
X109701904Y-80678571D01*
X109606666Y-80726190D01*
X109225714Y-80726190D01*
X110178095Y-80297619D02*
X110225714Y-80250000D01*
X110320952Y-80202380D01*
X110559047Y-80202380D01*
X110654285Y-80250000D01*
X110701904Y-80297619D01*
X110749523Y-80392857D01*
X110749523Y-80488095D01*
X110701904Y-80630952D01*
X110130476Y-81202380D01*
X110749523Y-81202380D01*
X111130476Y-80297619D02*
X111178095Y-80250000D01*
X111273333Y-80202380D01*
X111511428Y-80202380D01*
X111606666Y-80250000D01*
X111654285Y-80297619D01*
X111701904Y-80392857D01*
X111701904Y-80488095D01*
X111654285Y-80630952D01*
X111082857Y-81202380D01*
X111701904Y-81202380D01*
X135417142Y-81952380D02*
X135083809Y-81476190D01*
X134845714Y-81952380D02*
X134845714Y-80952380D01*
X135226666Y-80952380D01*
X135321904Y-81000000D01*
X135369523Y-81047619D01*
X135417142Y-81142857D01*
X135417142Y-81285714D01*
X135369523Y-81380952D01*
X135321904Y-81428571D01*
X135226666Y-81476190D01*
X134845714Y-81476190D01*
X135798095Y-81047619D02*
X135845714Y-81000000D01*
X135940952Y-80952380D01*
X136179047Y-80952380D01*
X136274285Y-81000000D01*
X136321904Y-81047619D01*
X136369523Y-81142857D01*
X136369523Y-81238095D01*
X136321904Y-81380952D01*
X135750476Y-81952380D01*
X136369523Y-81952380D01*
X136702857Y-80952380D02*
X137321904Y-80952380D01*
X136988571Y-81333333D01*
X137131428Y-81333333D01*
X137226666Y-81380952D01*
X137274285Y-81428571D01*
X137321904Y-81523809D01*
X137321904Y-81761904D01*
X137274285Y-81857142D01*
X137226666Y-81904761D01*
X137131428Y-81952380D01*
X136845714Y-81952380D01*
X136750476Y-81904761D01*
X136702857Y-81857142D01*
X125047142Y-67202380D02*
X124713809Y-66726190D01*
X124475714Y-67202380D02*
X124475714Y-66202380D01*
X124856666Y-66202380D01*
X124951904Y-66250000D01*
X124999523Y-66297619D01*
X125047142Y-66392857D01*
X125047142Y-66535714D01*
X124999523Y-66630952D01*
X124951904Y-66678571D01*
X124856666Y-66726190D01*
X124475714Y-66726190D01*
X125428095Y-66297619D02*
X125475714Y-66250000D01*
X125570952Y-66202380D01*
X125809047Y-66202380D01*
X125904285Y-66250000D01*
X125951904Y-66297619D01*
X125999523Y-66392857D01*
X125999523Y-66488095D01*
X125951904Y-66630952D01*
X125380476Y-67202380D01*
X125999523Y-67202380D01*
X126856666Y-66535714D02*
X126856666Y-67202380D01*
X126618571Y-66154761D02*
X126380476Y-66869047D01*
X126999523Y-66869047D01*
X188202380Y-115632857D02*
X187726190Y-115966190D01*
X188202380Y-116204285D02*
X187202380Y-116204285D01*
X187202380Y-115823333D01*
X187250000Y-115728095D01*
X187297619Y-115680476D01*
X187392857Y-115632857D01*
X187535714Y-115632857D01*
X187630952Y-115680476D01*
X187678571Y-115728095D01*
X187726190Y-115823333D01*
X187726190Y-116204285D01*
X187297619Y-115251904D02*
X187250000Y-115204285D01*
X187202380Y-115109047D01*
X187202380Y-114870952D01*
X187250000Y-114775714D01*
X187297619Y-114728095D01*
X187392857Y-114680476D01*
X187488095Y-114680476D01*
X187630952Y-114728095D01*
X188202380Y-115299523D01*
X188202380Y-114680476D01*
X187202380Y-113775714D02*
X187202380Y-114251904D01*
X187678571Y-114299523D01*
X187630952Y-114251904D01*
X187583333Y-114156666D01*
X187583333Y-113918571D01*
X187630952Y-113823333D01*
X187678571Y-113775714D01*
X187773809Y-113728095D01*
X188011904Y-113728095D01*
X188107142Y-113775714D01*
X188154761Y-113823333D01*
X188202380Y-113918571D01*
X188202380Y-114156666D01*
X188154761Y-114251904D01*
X188107142Y-114299523D01*
X123202380Y-115342857D02*
X122726190Y-115676190D01*
X123202380Y-115914285D02*
X122202380Y-115914285D01*
X122202380Y-115533333D01*
X122250000Y-115438095D01*
X122297619Y-115390476D01*
X122392857Y-115342857D01*
X122535714Y-115342857D01*
X122630952Y-115390476D01*
X122678571Y-115438095D01*
X122726190Y-115533333D01*
X122726190Y-115914285D01*
X122297619Y-114961904D02*
X122250000Y-114914285D01*
X122202380Y-114819047D01*
X122202380Y-114580952D01*
X122250000Y-114485714D01*
X122297619Y-114438095D01*
X122392857Y-114390476D01*
X122488095Y-114390476D01*
X122630952Y-114438095D01*
X123202380Y-115009523D01*
X123202380Y-114390476D01*
X122202380Y-113533333D02*
X122202380Y-113723809D01*
X122250000Y-113819047D01*
X122297619Y-113866666D01*
X122440476Y-113961904D01*
X122630952Y-114009523D01*
X123011904Y-114009523D01*
X123107142Y-113961904D01*
X123154761Y-113914285D01*
X123202380Y-113819047D01*
X123202380Y-113628571D01*
X123154761Y-113533333D01*
X123107142Y-113485714D01*
X123011904Y-113438095D01*
X122773809Y-113438095D01*
X122678571Y-113485714D01*
X122630952Y-113533333D01*
X122583333Y-113628571D01*
X122583333Y-113819047D01*
X122630952Y-113914285D01*
X122678571Y-113961904D01*
X122773809Y-114009523D01*
X176297142Y-104452380D02*
X175963809Y-103976190D01*
X175725714Y-104452380D02*
X175725714Y-103452380D01*
X176106666Y-103452380D01*
X176201904Y-103500000D01*
X176249523Y-103547619D01*
X176297142Y-103642857D01*
X176297142Y-103785714D01*
X176249523Y-103880952D01*
X176201904Y-103928571D01*
X176106666Y-103976190D01*
X175725714Y-103976190D01*
X176678095Y-103547619D02*
X176725714Y-103500000D01*
X176820952Y-103452380D01*
X177059047Y-103452380D01*
X177154285Y-103500000D01*
X177201904Y-103547619D01*
X177249523Y-103642857D01*
X177249523Y-103738095D01*
X177201904Y-103880952D01*
X176630476Y-104452380D01*
X177249523Y-104452380D01*
X177582857Y-103452380D02*
X178249523Y-103452380D01*
X177820952Y-104452380D01*
X109667142Y-122702380D02*
X109333809Y-122226190D01*
X109095714Y-122702380D02*
X109095714Y-121702380D01*
X109476666Y-121702380D01*
X109571904Y-121750000D01*
X109619523Y-121797619D01*
X109667142Y-121892857D01*
X109667142Y-122035714D01*
X109619523Y-122130952D01*
X109571904Y-122178571D01*
X109476666Y-122226190D01*
X109095714Y-122226190D01*
X110048095Y-121797619D02*
X110095714Y-121750000D01*
X110190952Y-121702380D01*
X110429047Y-121702380D01*
X110524285Y-121750000D01*
X110571904Y-121797619D01*
X110619523Y-121892857D01*
X110619523Y-121988095D01*
X110571904Y-122130952D01*
X110000476Y-122702380D01*
X110619523Y-122702380D01*
X111190952Y-122130952D02*
X111095714Y-122083333D01*
X111048095Y-122035714D01*
X111000476Y-121940476D01*
X111000476Y-121892857D01*
X111048095Y-121797619D01*
X111095714Y-121750000D01*
X111190952Y-121702380D01*
X111381428Y-121702380D01*
X111476666Y-121750000D01*
X111524285Y-121797619D01*
X111571904Y-121892857D01*
X111571904Y-121940476D01*
X111524285Y-122035714D01*
X111476666Y-122083333D01*
X111381428Y-122130952D01*
X111190952Y-122130952D01*
X111095714Y-122178571D01*
X111048095Y-122226190D01*
X111000476Y-122321428D01*
X111000476Y-122511904D01*
X111048095Y-122607142D01*
X111095714Y-122654761D01*
X111190952Y-122702380D01*
X111381428Y-122702380D01*
X111476666Y-122654761D01*
X111524285Y-122607142D01*
X111571904Y-122511904D01*
X111571904Y-122321428D01*
X111524285Y-122226190D01*
X111476666Y-122178571D01*
X111381428Y-122130952D01*
X199297142Y-122202380D02*
X198963809Y-121726190D01*
X198725714Y-122202380D02*
X198725714Y-121202380D01*
X199106666Y-121202380D01*
X199201904Y-121250000D01*
X199249523Y-121297619D01*
X199297142Y-121392857D01*
X199297142Y-121535714D01*
X199249523Y-121630952D01*
X199201904Y-121678571D01*
X199106666Y-121726190D01*
X198725714Y-121726190D01*
X199678095Y-121297619D02*
X199725714Y-121250000D01*
X199820952Y-121202380D01*
X200059047Y-121202380D01*
X200154285Y-121250000D01*
X200201904Y-121297619D01*
X200249523Y-121392857D01*
X200249523Y-121488095D01*
X200201904Y-121630952D01*
X199630476Y-122202380D01*
X200249523Y-122202380D01*
X200725714Y-122202380D02*
X200916190Y-122202380D01*
X201011428Y-122154761D01*
X201059047Y-122107142D01*
X201154285Y-121964285D01*
X201201904Y-121773809D01*
X201201904Y-121392857D01*
X201154285Y-121297619D01*
X201106666Y-121250000D01*
X201011428Y-121202380D01*
X200820952Y-121202380D01*
X200725714Y-121250000D01*
X200678095Y-121297619D01*
X200630476Y-121392857D01*
X200630476Y-121630952D01*
X200678095Y-121726190D01*
X200725714Y-121773809D01*
X200820952Y-121821428D01*
X201011428Y-121821428D01*
X201106666Y-121773809D01*
X201154285Y-121726190D01*
X201201904Y-121630952D01*
X132767142Y-122652380D02*
X132433809Y-122176190D01*
X132195714Y-122652380D02*
X132195714Y-121652380D01*
X132576666Y-121652380D01*
X132671904Y-121700000D01*
X132719523Y-121747619D01*
X132767142Y-121842857D01*
X132767142Y-121985714D01*
X132719523Y-122080952D01*
X132671904Y-122128571D01*
X132576666Y-122176190D01*
X132195714Y-122176190D01*
X133100476Y-121652380D02*
X133719523Y-121652380D01*
X133386190Y-122033333D01*
X133529047Y-122033333D01*
X133624285Y-122080952D01*
X133671904Y-122128571D01*
X133719523Y-122223809D01*
X133719523Y-122461904D01*
X133671904Y-122557142D01*
X133624285Y-122604761D01*
X133529047Y-122652380D01*
X133243333Y-122652380D01*
X133148095Y-122604761D01*
X133100476Y-122557142D01*
X134338571Y-121652380D02*
X134433809Y-121652380D01*
X134529047Y-121700000D01*
X134576666Y-121747619D01*
X134624285Y-121842857D01*
X134671904Y-122033333D01*
X134671904Y-122271428D01*
X134624285Y-122461904D01*
X134576666Y-122557142D01*
X134529047Y-122604761D01*
X134433809Y-122652380D01*
X134338571Y-122652380D01*
X134243333Y-122604761D01*
X134195714Y-122557142D01*
X134148095Y-122461904D01*
X134100476Y-122271428D01*
X134100476Y-122033333D01*
X134148095Y-121842857D01*
X134195714Y-121747619D01*
X134243333Y-121700000D01*
X134338571Y-121652380D01*
X176297142Y-100952380D02*
X175963809Y-100476190D01*
X175725714Y-100952380D02*
X175725714Y-99952380D01*
X176106666Y-99952380D01*
X176201904Y-100000000D01*
X176249523Y-100047619D01*
X176297142Y-100142857D01*
X176297142Y-100285714D01*
X176249523Y-100380952D01*
X176201904Y-100428571D01*
X176106666Y-100476190D01*
X175725714Y-100476190D01*
X176630476Y-99952380D02*
X177249523Y-99952380D01*
X176916190Y-100333333D01*
X177059047Y-100333333D01*
X177154285Y-100380952D01*
X177201904Y-100428571D01*
X177249523Y-100523809D01*
X177249523Y-100761904D01*
X177201904Y-100857142D01*
X177154285Y-100904761D01*
X177059047Y-100952380D01*
X176773333Y-100952380D01*
X176678095Y-100904761D01*
X176630476Y-100857142D01*
X178201904Y-100952380D02*
X177630476Y-100952380D01*
X177916190Y-100952380D02*
X177916190Y-99952380D01*
X177820952Y-100095238D01*
X177725714Y-100190476D01*
X177630476Y-100238095D01*
X132767142Y-126202380D02*
X132433809Y-125726190D01*
X132195714Y-126202380D02*
X132195714Y-125202380D01*
X132576666Y-125202380D01*
X132671904Y-125250000D01*
X132719523Y-125297619D01*
X132767142Y-125392857D01*
X132767142Y-125535714D01*
X132719523Y-125630952D01*
X132671904Y-125678571D01*
X132576666Y-125726190D01*
X132195714Y-125726190D01*
X133100476Y-125202380D02*
X133719523Y-125202380D01*
X133386190Y-125583333D01*
X133529047Y-125583333D01*
X133624285Y-125630952D01*
X133671904Y-125678571D01*
X133719523Y-125773809D01*
X133719523Y-126011904D01*
X133671904Y-126107142D01*
X133624285Y-126154761D01*
X133529047Y-126202380D01*
X133243333Y-126202380D01*
X133148095Y-126154761D01*
X133100476Y-126107142D01*
X134100476Y-125297619D02*
X134148095Y-125250000D01*
X134243333Y-125202380D01*
X134481428Y-125202380D01*
X134576666Y-125250000D01*
X134624285Y-125297619D01*
X134671904Y-125392857D01*
X134671904Y-125488095D01*
X134624285Y-125630952D01*
X134052857Y-126202380D01*
X134671904Y-126202380D01*
X199417142Y-125952380D02*
X199083809Y-125476190D01*
X198845714Y-125952380D02*
X198845714Y-124952380D01*
X199226666Y-124952380D01*
X199321904Y-125000000D01*
X199369523Y-125047619D01*
X199417142Y-125142857D01*
X199417142Y-125285714D01*
X199369523Y-125380952D01*
X199321904Y-125428571D01*
X199226666Y-125476190D01*
X198845714Y-125476190D01*
X199750476Y-124952380D02*
X200369523Y-124952380D01*
X200036190Y-125333333D01*
X200179047Y-125333333D01*
X200274285Y-125380952D01*
X200321904Y-125428571D01*
X200369523Y-125523809D01*
X200369523Y-125761904D01*
X200321904Y-125857142D01*
X200274285Y-125904761D01*
X200179047Y-125952380D01*
X199893333Y-125952380D01*
X199798095Y-125904761D01*
X199750476Y-125857142D01*
X200702857Y-124952380D02*
X201321904Y-124952380D01*
X200988571Y-125333333D01*
X201131428Y-125333333D01*
X201226666Y-125380952D01*
X201274285Y-125428571D01*
X201321904Y-125523809D01*
X201321904Y-125761904D01*
X201274285Y-125857142D01*
X201226666Y-125904761D01*
X201131428Y-125952380D01*
X200845714Y-125952380D01*
X200750476Y-125904761D01*
X200702857Y-125857142D01*
X176297142Y-97452380D02*
X175963809Y-96976190D01*
X175725714Y-97452380D02*
X175725714Y-96452380D01*
X176106666Y-96452380D01*
X176201904Y-96500000D01*
X176249523Y-96547619D01*
X176297142Y-96642857D01*
X176297142Y-96785714D01*
X176249523Y-96880952D01*
X176201904Y-96928571D01*
X176106666Y-96976190D01*
X175725714Y-96976190D01*
X176630476Y-96452380D02*
X177249523Y-96452380D01*
X176916190Y-96833333D01*
X177059047Y-96833333D01*
X177154285Y-96880952D01*
X177201904Y-96928571D01*
X177249523Y-97023809D01*
X177249523Y-97261904D01*
X177201904Y-97357142D01*
X177154285Y-97404761D01*
X177059047Y-97452380D01*
X176773333Y-97452380D01*
X176678095Y-97404761D01*
X176630476Y-97357142D01*
X178106666Y-96785714D02*
X178106666Y-97452380D01*
X177868571Y-96404761D02*
X177630476Y-97119047D01*
X178249523Y-97119047D01*
X137567142Y-133202380D02*
X137233809Y-132726190D01*
X136995714Y-133202380D02*
X136995714Y-132202380D01*
X137376666Y-132202380D01*
X137471904Y-132250000D01*
X137519523Y-132297619D01*
X137567142Y-132392857D01*
X137567142Y-132535714D01*
X137519523Y-132630952D01*
X137471904Y-132678571D01*
X137376666Y-132726190D01*
X136995714Y-132726190D01*
X137900476Y-132202380D02*
X138519523Y-132202380D01*
X138186190Y-132583333D01*
X138329047Y-132583333D01*
X138424285Y-132630952D01*
X138471904Y-132678571D01*
X138519523Y-132773809D01*
X138519523Y-133011904D01*
X138471904Y-133107142D01*
X138424285Y-133154761D01*
X138329047Y-133202380D01*
X138043333Y-133202380D01*
X137948095Y-133154761D01*
X137900476Y-133107142D01*
X139424285Y-132202380D02*
X138948095Y-132202380D01*
X138900476Y-132678571D01*
X138948095Y-132630952D01*
X139043333Y-132583333D01*
X139281428Y-132583333D01*
X139376666Y-132630952D01*
X139424285Y-132678571D01*
X139471904Y-132773809D01*
X139471904Y-133011904D01*
X139424285Y-133107142D01*
X139376666Y-133154761D01*
X139281428Y-133202380D01*
X139043333Y-133202380D01*
X138948095Y-133154761D01*
X138900476Y-133107142D01*
X137557142Y-129902380D02*
X137223809Y-129426190D01*
X136985714Y-129902380D02*
X136985714Y-128902380D01*
X137366666Y-128902380D01*
X137461904Y-128950000D01*
X137509523Y-128997619D01*
X137557142Y-129092857D01*
X137557142Y-129235714D01*
X137509523Y-129330952D01*
X137461904Y-129378571D01*
X137366666Y-129426190D01*
X136985714Y-129426190D01*
X137890476Y-128902380D02*
X138509523Y-128902380D01*
X138176190Y-129283333D01*
X138319047Y-129283333D01*
X138414285Y-129330952D01*
X138461904Y-129378571D01*
X138509523Y-129473809D01*
X138509523Y-129711904D01*
X138461904Y-129807142D01*
X138414285Y-129854761D01*
X138319047Y-129902380D01*
X138033333Y-129902380D01*
X137938095Y-129854761D01*
X137890476Y-129807142D01*
X139366666Y-128902380D02*
X139176190Y-128902380D01*
X139080952Y-128950000D01*
X139033333Y-128997619D01*
X138938095Y-129140476D01*
X138890476Y-129330952D01*
X138890476Y-129711904D01*
X138938095Y-129807142D01*
X138985714Y-129854761D01*
X139080952Y-129902380D01*
X139271428Y-129902380D01*
X139366666Y-129854761D01*
X139414285Y-129807142D01*
X139461904Y-129711904D01*
X139461904Y-129473809D01*
X139414285Y-129378571D01*
X139366666Y-129330952D01*
X139271428Y-129283333D01*
X139080952Y-129283333D01*
X138985714Y-129330952D01*
X138938095Y-129378571D01*
X138890476Y-129473809D01*
X149854761Y-122552380D02*
X149521428Y-122076190D01*
X149283333Y-122552380D02*
X149283333Y-121552380D01*
X149664285Y-121552380D01*
X149759523Y-121600000D01*
X149807142Y-121647619D01*
X149854761Y-121742857D01*
X149854761Y-121885714D01*
X149807142Y-121980952D01*
X149759523Y-122028571D01*
X149664285Y-122076190D01*
X149283333Y-122076190D01*
X150140476Y-121552380D02*
X150473809Y-122552380D01*
X150807142Y-121552380D01*
X151664285Y-122552380D02*
X151092857Y-122552380D01*
X151378571Y-122552380D02*
X151378571Y-121552380D01*
X151283333Y-121695238D01*
X151188095Y-121790476D01*
X151092857Y-121838095D01*
X181604761Y-70052380D02*
X181271428Y-69576190D01*
X181033333Y-70052380D02*
X181033333Y-69052380D01*
X181414285Y-69052380D01*
X181509523Y-69100000D01*
X181557142Y-69147619D01*
X181604761Y-69242857D01*
X181604761Y-69385714D01*
X181557142Y-69480952D01*
X181509523Y-69528571D01*
X181414285Y-69576190D01*
X181033333Y-69576190D01*
X181890476Y-69052380D02*
X182223809Y-70052380D01*
X182557142Y-69052380D01*
X182842857Y-69147619D02*
X182890476Y-69100000D01*
X182985714Y-69052380D01*
X183223809Y-69052380D01*
X183319047Y-69100000D01*
X183366666Y-69147619D01*
X183414285Y-69242857D01*
X183414285Y-69338095D01*
X183366666Y-69480952D01*
X182795238Y-70052380D01*
X183414285Y-70052380D01*
X118104761Y-70552380D02*
X117771428Y-70076190D01*
X117533333Y-70552380D02*
X117533333Y-69552380D01*
X117914285Y-69552380D01*
X118009523Y-69600000D01*
X118057142Y-69647619D01*
X118104761Y-69742857D01*
X118104761Y-69885714D01*
X118057142Y-69980952D01*
X118009523Y-70028571D01*
X117914285Y-70076190D01*
X117533333Y-70076190D01*
X118390476Y-69552380D02*
X118723809Y-70552380D01*
X119057142Y-69552380D01*
X119295238Y-69552380D02*
X119914285Y-69552380D01*
X119580952Y-69933333D01*
X119723809Y-69933333D01*
X119819047Y-69980952D01*
X119866666Y-70028571D01*
X119914285Y-70123809D01*
X119914285Y-70361904D01*
X119866666Y-70457142D01*
X119819047Y-70504761D01*
X119723809Y-70552380D01*
X119438095Y-70552380D01*
X119342857Y-70504761D01*
X119295238Y-70457142D01*
X173054761Y-107802380D02*
X172721428Y-107326190D01*
X172483333Y-107802380D02*
X172483333Y-106802380D01*
X172864285Y-106802380D01*
X172959523Y-106850000D01*
X173007142Y-106897619D01*
X173054761Y-106992857D01*
X173054761Y-107135714D01*
X173007142Y-107230952D01*
X172959523Y-107278571D01*
X172864285Y-107326190D01*
X172483333Y-107326190D01*
X173340476Y-106802380D02*
X173673809Y-107802380D01*
X174007142Y-106802380D01*
X174769047Y-107135714D02*
X174769047Y-107802380D01*
X174530952Y-106754761D02*
X174292857Y-107469047D01*
X174911904Y-107469047D01*
X107254761Y-108202380D02*
X106921428Y-107726190D01*
X106683333Y-108202380D02*
X106683333Y-107202380D01*
X107064285Y-107202380D01*
X107159523Y-107250000D01*
X107207142Y-107297619D01*
X107254761Y-107392857D01*
X107254761Y-107535714D01*
X107207142Y-107630952D01*
X107159523Y-107678571D01*
X107064285Y-107726190D01*
X106683333Y-107726190D01*
X107540476Y-107202380D02*
X107873809Y-108202380D01*
X108207142Y-107202380D01*
X109016666Y-107202380D02*
X108540476Y-107202380D01*
X108492857Y-107678571D01*
X108540476Y-107630952D01*
X108635714Y-107583333D01*
X108873809Y-107583333D01*
X108969047Y-107630952D01*
X109016666Y-107678571D01*
X109064285Y-107773809D01*
X109064285Y-108011904D01*
X109016666Y-108107142D01*
X108969047Y-108154761D01*
X108873809Y-108202380D01*
X108635714Y-108202380D01*
X108540476Y-108154761D01*
X108492857Y-108107142D01*
X192654761Y-107652380D02*
X192321428Y-107176190D01*
X192083333Y-107652380D02*
X192083333Y-106652380D01*
X192464285Y-106652380D01*
X192559523Y-106700000D01*
X192607142Y-106747619D01*
X192654761Y-106842857D01*
X192654761Y-106985714D01*
X192607142Y-107080952D01*
X192559523Y-107128571D01*
X192464285Y-107176190D01*
X192083333Y-107176190D01*
X192940476Y-106652380D02*
X193273809Y-107652380D01*
X193607142Y-106652380D01*
X194369047Y-106652380D02*
X194178571Y-106652380D01*
X194083333Y-106700000D01*
X194035714Y-106747619D01*
X193940476Y-106890476D01*
X193892857Y-107080952D01*
X193892857Y-107461904D01*
X193940476Y-107557142D01*
X193988095Y-107604761D01*
X194083333Y-107652380D01*
X194273809Y-107652380D01*
X194369047Y-107604761D01*
X194416666Y-107557142D01*
X194464285Y-107461904D01*
X194464285Y-107223809D01*
X194416666Y-107128571D01*
X194369047Y-107080952D01*
X194273809Y-107033333D01*
X194083333Y-107033333D01*
X193988095Y-107080952D01*
X193940476Y-107128571D01*
X193892857Y-107223809D01*
X128354761Y-108002380D02*
X128021428Y-107526190D01*
X127783333Y-108002380D02*
X127783333Y-107002380D01*
X128164285Y-107002380D01*
X128259523Y-107050000D01*
X128307142Y-107097619D01*
X128354761Y-107192857D01*
X128354761Y-107335714D01*
X128307142Y-107430952D01*
X128259523Y-107478571D01*
X128164285Y-107526190D01*
X127783333Y-107526190D01*
X128640476Y-107002380D02*
X128973809Y-108002380D01*
X129307142Y-107002380D01*
X129545238Y-107002380D02*
X130211904Y-107002380D01*
X129783333Y-108002380D01*
X186454761Y-122102380D02*
X186121428Y-121626190D01*
X185883333Y-122102380D02*
X185883333Y-121102380D01*
X186264285Y-121102380D01*
X186359523Y-121150000D01*
X186407142Y-121197619D01*
X186454761Y-121292857D01*
X186454761Y-121435714D01*
X186407142Y-121530952D01*
X186359523Y-121578571D01*
X186264285Y-121626190D01*
X185883333Y-121626190D01*
X186740476Y-121102380D02*
X187073809Y-122102380D01*
X187407142Y-121102380D01*
X187883333Y-121530952D02*
X187788095Y-121483333D01*
X187740476Y-121435714D01*
X187692857Y-121340476D01*
X187692857Y-121292857D01*
X187740476Y-121197619D01*
X187788095Y-121150000D01*
X187883333Y-121102380D01*
X188073809Y-121102380D01*
X188169047Y-121150000D01*
X188216666Y-121197619D01*
X188264285Y-121292857D01*
X188264285Y-121340476D01*
X188216666Y-121435714D01*
X188169047Y-121483333D01*
X188073809Y-121530952D01*
X187883333Y-121530952D01*
X187788095Y-121578571D01*
X187740476Y-121626190D01*
X187692857Y-121721428D01*
X187692857Y-121911904D01*
X187740476Y-122007142D01*
X187788095Y-122054761D01*
X187883333Y-122102380D01*
X188073809Y-122102380D01*
X188169047Y-122054761D01*
X188216666Y-122007142D01*
X188264285Y-121911904D01*
X188264285Y-121721428D01*
X188216666Y-121626190D01*
X188169047Y-121578571D01*
X188073809Y-121530952D01*
X121054761Y-122102380D02*
X120721428Y-121626190D01*
X120483333Y-122102380D02*
X120483333Y-121102380D01*
X120864285Y-121102380D01*
X120959523Y-121150000D01*
X121007142Y-121197619D01*
X121054761Y-121292857D01*
X121054761Y-121435714D01*
X121007142Y-121530952D01*
X120959523Y-121578571D01*
X120864285Y-121626190D01*
X120483333Y-121626190D01*
X121340476Y-121102380D02*
X121673809Y-122102380D01*
X122007142Y-121102380D01*
X122388095Y-122102380D02*
X122578571Y-122102380D01*
X122673809Y-122054761D01*
X122721428Y-122007142D01*
X122816666Y-121864285D01*
X122864285Y-121673809D01*
X122864285Y-121292857D01*
X122816666Y-121197619D01*
X122769047Y-121150000D01*
X122673809Y-121102380D01*
X122483333Y-121102380D01*
X122388095Y-121150000D01*
X122340476Y-121197619D01*
X122292857Y-121292857D01*
X122292857Y-121530952D01*
X122340476Y-121626190D01*
X122388095Y-121673809D01*
X122483333Y-121721428D01*
X122673809Y-121721428D01*
X122769047Y-121673809D01*
X122816666Y-121626190D01*
X122864285Y-121530952D01*
X111004761Y-100133333D02*
X111052380Y-99990476D01*
X111052380Y-99752380D01*
X111004761Y-99657142D01*
X110957142Y-99609523D01*
X110861904Y-99561904D01*
X110766666Y-99561904D01*
X110671428Y-99609523D01*
X110623809Y-99657142D01*
X110576190Y-99752380D01*
X110528571Y-99942857D01*
X110480952Y-100038095D01*
X110433333Y-100085714D01*
X110338095Y-100133333D01*
X110242857Y-100133333D01*
X110147619Y-100085714D01*
X110100000Y-100038095D01*
X110052380Y-99942857D01*
X110052380Y-99704761D01*
X110100000Y-99561904D01*
X110052380Y-99228571D02*
X111052380Y-98990476D01*
X110338095Y-98800000D01*
X111052380Y-98609523D01*
X110052380Y-98371428D01*
X111052380Y-97466666D02*
X111052380Y-98038095D01*
X111052380Y-97752380D02*
X110052380Y-97752380D01*
X110195238Y-97847619D01*
X110290476Y-97942857D01*
X110338095Y-98038095D01*
X204304761Y-100133333D02*
X204352380Y-99990476D01*
X204352380Y-99752380D01*
X204304761Y-99657142D01*
X204257142Y-99609523D01*
X204161904Y-99561904D01*
X204066666Y-99561904D01*
X203971428Y-99609523D01*
X203923809Y-99657142D01*
X203876190Y-99752380D01*
X203828571Y-99942857D01*
X203780952Y-100038095D01*
X203733333Y-100085714D01*
X203638095Y-100133333D01*
X203542857Y-100133333D01*
X203447619Y-100085714D01*
X203400000Y-100038095D01*
X203352380Y-99942857D01*
X203352380Y-99704761D01*
X203400000Y-99561904D01*
X203352380Y-99228571D02*
X204352380Y-98990476D01*
X203638095Y-98800000D01*
X204352380Y-98609523D01*
X203352380Y-98371428D01*
X203447619Y-98038095D02*
X203400000Y-97990476D01*
X203352380Y-97895238D01*
X203352380Y-97657142D01*
X203400000Y-97561904D01*
X203447619Y-97514285D01*
X203542857Y-97466666D01*
X203638095Y-97466666D01*
X203780952Y-97514285D01*
X204352380Y-98085714D01*
X204352380Y-97466666D01*
X187466666Y-129504761D02*
X187609523Y-129552380D01*
X187847619Y-129552380D01*
X187942857Y-129504761D01*
X187990476Y-129457142D01*
X188038095Y-129361904D01*
X188038095Y-129266666D01*
X187990476Y-129171428D01*
X187942857Y-129123809D01*
X187847619Y-129076190D01*
X187657142Y-129028571D01*
X187561904Y-128980952D01*
X187514285Y-128933333D01*
X187466666Y-128838095D01*
X187466666Y-128742857D01*
X187514285Y-128647619D01*
X187561904Y-128600000D01*
X187657142Y-128552380D01*
X187895238Y-128552380D01*
X188038095Y-128600000D01*
X188371428Y-128552380D02*
X188609523Y-129552380D01*
X188800000Y-128838095D01*
X188990476Y-129552380D01*
X189228571Y-128552380D01*
X189514285Y-128552380D02*
X190133333Y-128552380D01*
X189800000Y-128933333D01*
X189942857Y-128933333D01*
X190038095Y-128980952D01*
X190085714Y-129028571D01*
X190133333Y-129123809D01*
X190133333Y-129361904D01*
X190085714Y-129457142D01*
X190038095Y-129504761D01*
X189942857Y-129552380D01*
X189657142Y-129552380D01*
X189561904Y-129504761D01*
X189514285Y-129457142D01*
X122316666Y-129204761D02*
X122459523Y-129252380D01*
X122697619Y-129252380D01*
X122792857Y-129204761D01*
X122840476Y-129157142D01*
X122888095Y-129061904D01*
X122888095Y-128966666D01*
X122840476Y-128871428D01*
X122792857Y-128823809D01*
X122697619Y-128776190D01*
X122507142Y-128728571D01*
X122411904Y-128680952D01*
X122364285Y-128633333D01*
X122316666Y-128538095D01*
X122316666Y-128442857D01*
X122364285Y-128347619D01*
X122411904Y-128300000D01*
X122507142Y-128252380D01*
X122745238Y-128252380D01*
X122888095Y-128300000D01*
X123221428Y-128252380D02*
X123459523Y-129252380D01*
X123650000Y-128538095D01*
X123840476Y-129252380D01*
X124078571Y-128252380D01*
X124888095Y-128585714D02*
X124888095Y-129252380D01*
X124650000Y-128204761D02*
X124411904Y-128919047D01*
X125030952Y-128919047D01*
X132048095Y-89302380D02*
X132048095Y-90111904D01*
X132095714Y-90207142D01*
X132143333Y-90254761D01*
X132238571Y-90302380D01*
X132429047Y-90302380D01*
X132524285Y-90254761D01*
X132571904Y-90207142D01*
X132619523Y-90111904D01*
X132619523Y-89302380D01*
X133619523Y-90302380D02*
X133048095Y-90302380D01*
X133333809Y-90302380D02*
X133333809Y-89302380D01*
X133238571Y-89445238D01*
X133143333Y-89540476D01*
X133048095Y-89588095D01*
X139188095Y-40377380D02*
X139188095Y-41186904D01*
X139235714Y-41282142D01*
X139283333Y-41329761D01*
X139378571Y-41377380D01*
X139569047Y-41377380D01*
X139664285Y-41329761D01*
X139711904Y-41282142D01*
X139759523Y-41186904D01*
X139759523Y-40377380D01*
X140188095Y-40472619D02*
X140235714Y-40425000D01*
X140330952Y-40377380D01*
X140569047Y-40377380D01*
X140664285Y-40425000D01*
X140711904Y-40472619D01*
X140759523Y-40567857D01*
X140759523Y-40663095D01*
X140711904Y-40805952D01*
X140140476Y-41377380D01*
X140759523Y-41377380D01*
X198488095Y-53702380D02*
X198488095Y-54511904D01*
X198535714Y-54607142D01*
X198583333Y-54654761D01*
X198678571Y-54702380D01*
X198869047Y-54702380D01*
X198964285Y-54654761D01*
X199011904Y-54607142D01*
X199059523Y-54511904D01*
X199059523Y-53702380D01*
X199440476Y-53702380D02*
X200059523Y-53702380D01*
X199726190Y-54083333D01*
X199869047Y-54083333D01*
X199964285Y-54130952D01*
X200011904Y-54178571D01*
X200059523Y-54273809D01*
X200059523Y-54511904D01*
X200011904Y-54607142D01*
X199964285Y-54654761D01*
X199869047Y-54702380D01*
X199583333Y-54702380D01*
X199488095Y-54654761D01*
X199440476Y-54607142D01*
X198798095Y-74802380D02*
X198798095Y-75611904D01*
X198845714Y-75707142D01*
X198893333Y-75754761D01*
X198988571Y-75802380D01*
X199179047Y-75802380D01*
X199274285Y-75754761D01*
X199321904Y-75707142D01*
X199369523Y-75611904D01*
X199369523Y-74802380D01*
X200274285Y-75135714D02*
X200274285Y-75802380D01*
X200036190Y-74754761D02*
X199798095Y-75469047D01*
X200417142Y-75469047D01*
X154388095Y-79552380D02*
X154388095Y-80361904D01*
X154435714Y-80457142D01*
X154483333Y-80504761D01*
X154578571Y-80552380D01*
X154769047Y-80552380D01*
X154864285Y-80504761D01*
X154911904Y-80457142D01*
X154959523Y-80361904D01*
X154959523Y-79552380D01*
X155911904Y-79552380D02*
X155435714Y-79552380D01*
X155388095Y-80028571D01*
X155435714Y-79980952D01*
X155530952Y-79933333D01*
X155769047Y-79933333D01*
X155864285Y-79980952D01*
X155911904Y-80028571D01*
X155959523Y-80123809D01*
X155959523Y-80361904D01*
X155911904Y-80457142D01*
X155864285Y-80504761D01*
X155769047Y-80552380D01*
X155530952Y-80552380D01*
X155435714Y-80504761D01*
X155388095Y-80457142D01*
X150538095Y-48602380D02*
X150538095Y-49411904D01*
X150585714Y-49507142D01*
X150633333Y-49554761D01*
X150728571Y-49602380D01*
X150919047Y-49602380D01*
X151014285Y-49554761D01*
X151061904Y-49507142D01*
X151109523Y-49411904D01*
X151109523Y-48602380D01*
X152014285Y-48602380D02*
X151823809Y-48602380D01*
X151728571Y-48650000D01*
X151680952Y-48697619D01*
X151585714Y-48840476D01*
X151538095Y-49030952D01*
X151538095Y-49411904D01*
X151585714Y-49507142D01*
X151633333Y-49554761D01*
X151728571Y-49602380D01*
X151919047Y-49602380D01*
X152014285Y-49554761D01*
X152061904Y-49507142D01*
X152109523Y-49411904D01*
X152109523Y-49173809D01*
X152061904Y-49078571D01*
X152014285Y-49030952D01*
X151919047Y-48983333D01*
X151728571Y-48983333D01*
X151633333Y-49030952D01*
X151585714Y-49078571D01*
X151538095Y-49173809D01*
X187338095Y-88052380D02*
X187338095Y-88861904D01*
X187385714Y-88957142D01*
X187433333Y-89004761D01*
X187528571Y-89052380D01*
X187719047Y-89052380D01*
X187814285Y-89004761D01*
X187861904Y-88957142D01*
X187909523Y-88861904D01*
X187909523Y-88052380D01*
X188290476Y-88052380D02*
X188957142Y-88052380D01*
X188528571Y-89052380D01*
X135298095Y-70502380D02*
X135298095Y-71311904D01*
X135345714Y-71407142D01*
X135393333Y-71454761D01*
X135488571Y-71502380D01*
X135679047Y-71502380D01*
X135774285Y-71454761D01*
X135821904Y-71407142D01*
X135869523Y-71311904D01*
X135869523Y-70502380D01*
X136488571Y-70930952D02*
X136393333Y-70883333D01*
X136345714Y-70835714D01*
X136298095Y-70740476D01*
X136298095Y-70692857D01*
X136345714Y-70597619D01*
X136393333Y-70550000D01*
X136488571Y-70502380D01*
X136679047Y-70502380D01*
X136774285Y-70550000D01*
X136821904Y-70597619D01*
X136869523Y-70692857D01*
X136869523Y-70740476D01*
X136821904Y-70835714D01*
X136774285Y-70883333D01*
X136679047Y-70930952D01*
X136488571Y-70930952D01*
X136393333Y-70978571D01*
X136345714Y-71026190D01*
X136298095Y-71121428D01*
X136298095Y-71311904D01*
X136345714Y-71407142D01*
X136393333Y-71454761D01*
X136488571Y-71502380D01*
X136679047Y-71502380D01*
X136774285Y-71454761D01*
X136821904Y-71407142D01*
X136869523Y-71311904D01*
X136869523Y-71121428D01*
X136821904Y-71026190D01*
X136774285Y-70978571D01*
X136679047Y-70930952D01*
X145188095Y-100652380D02*
X145188095Y-101461904D01*
X145235714Y-101557142D01*
X145283333Y-101604761D01*
X145378571Y-101652380D01*
X145569047Y-101652380D01*
X145664285Y-101604761D01*
X145711904Y-101557142D01*
X145759523Y-101461904D01*
X145759523Y-100652380D01*
X146283333Y-101652380D02*
X146473809Y-101652380D01*
X146569047Y-101604761D01*
X146616666Y-101557142D01*
X146711904Y-101414285D01*
X146759523Y-101223809D01*
X146759523Y-100842857D01*
X146711904Y-100747619D01*
X146664285Y-100700000D01*
X146569047Y-100652380D01*
X146378571Y-100652380D01*
X146283333Y-100700000D01*
X146235714Y-100747619D01*
X146188095Y-100842857D01*
X146188095Y-101080952D01*
X146235714Y-101176190D01*
X146283333Y-101223809D01*
X146378571Y-101271428D01*
X146569047Y-101271428D01*
X146664285Y-101223809D01*
X146711904Y-101176190D01*
X146759523Y-101080952D01*
X164136904Y-101002380D02*
X164136904Y-101811904D01*
X164184523Y-101907142D01*
X164232142Y-101954761D01*
X164327380Y-102002380D01*
X164517857Y-102002380D01*
X164613095Y-101954761D01*
X164660714Y-101907142D01*
X164708333Y-101811904D01*
X164708333Y-101002380D01*
X165708333Y-102002380D02*
X165136904Y-102002380D01*
X165422619Y-102002380D02*
X165422619Y-101002380D01*
X165327380Y-101145238D01*
X165232142Y-101240476D01*
X165136904Y-101288095D01*
X166327380Y-101002380D02*
X166422619Y-101002380D01*
X166517857Y-101050000D01*
X166565476Y-101097619D01*
X166613095Y-101192857D01*
X166660714Y-101383333D01*
X166660714Y-101621428D01*
X166613095Y-101811904D01*
X166565476Y-101907142D01*
X166517857Y-101954761D01*
X166422619Y-102002380D01*
X166327380Y-102002380D01*
X166232142Y-101954761D01*
X166184523Y-101907142D01*
X166136904Y-101811904D01*
X166089285Y-101621428D01*
X166089285Y-101383333D01*
X166136904Y-101192857D01*
X166184523Y-101097619D01*
X166232142Y-101050000D01*
X166327380Y-101002380D01*
X120823809Y-96276190D02*
X120823809Y-96752380D01*
X120490476Y-95752380D02*
X120823809Y-96276190D01*
X121157142Y-95752380D01*
X122014285Y-96752380D02*
X121442857Y-96752380D01*
X121728571Y-96752380D02*
X121728571Y-95752380D01*
X121633333Y-95895238D01*
X121538095Y-95990476D01*
X121442857Y-96038095D01*
X120473809Y-101851190D02*
X120473809Y-102327380D01*
X120140476Y-101327380D02*
X120473809Y-101851190D01*
X120807142Y-101327380D01*
X121092857Y-101422619D02*
X121140476Y-101375000D01*
X121235714Y-101327380D01*
X121473809Y-101327380D01*
X121569047Y-101375000D01*
X121616666Y-101422619D01*
X121664285Y-101517857D01*
X121664285Y-101613095D01*
X121616666Y-101755952D01*
X121045238Y-102327380D01*
X121664285Y-102327380D01*
M02*
