G04 #@! TF.GenerationSoftware,KiCad,Pcbnew,5.1.10*
G04 #@! TF.CreationDate,2021-10-22T11:34:36+13:00*
G04 #@! TF.ProjectId,two_point_one_colorizer,74776f5f-706f-4696-9e74-5f6f6e655f63,rev?*
G04 #@! TF.SameCoordinates,Original*
G04 #@! TF.FileFunction,Soldermask,Bot*
G04 #@! TF.FilePolarity,Negative*
%FSLAX46Y46*%
G04 Gerber Fmt 4.6, Leading zero omitted, Abs format (unit mm)*
G04 Created by KiCad (PCBNEW 5.1.10) date 2021-10-22 11:34:36*
%MOMM*%
%LPD*%
G01*
G04 APERTURE LIST*
%ADD10C,3.600000*%
%ADD11C,2.000000*%
%ADD12O,2.600000X2.600000*%
%ADD13C,3.400000*%
%ADD14C,2.950000*%
%ADD15C,2.300000*%
%ADD16C,1.900000*%
%ADD17O,2.100000X2.100000*%
%ADD18O,2.000000X2.000000*%
%ADD19C,2.200000*%
%ADD20C,4.400000*%
%ADD21C,1.840000*%
%ADD22O,3.400000X2.200000*%
%ADD23C,2.100000*%
%ADD24C,3.900000*%
%ADD25O,2.800000X2.000000*%
%ADD26O,2.305000X2.400000*%
G04 APERTURE END LIST*
D10*
X201500000Y-38500000D03*
X201500000Y-131500000D03*
X108500000Y-131500000D03*
X108500000Y-38608000D03*
D11*
X115000000Y-87750000D03*
X115000000Y-92750000D03*
X122500000Y-54000000D03*
X117500000Y-54000000D03*
X118500000Y-92750000D03*
X118500000Y-87750000D03*
G36*
G01*
X143500000Y-43800000D02*
X143500000Y-42200000D01*
G75*
G02*
X143700000Y-42000000I200000J0D01*
G01*
X145300000Y-42000000D01*
G75*
G02*
X145500000Y-42200000I0J-200000D01*
G01*
X145500000Y-43800000D01*
G75*
G02*
X145300000Y-44000000I-200000J0D01*
G01*
X143700000Y-44000000D01*
G75*
G02*
X143500000Y-43800000I0J200000D01*
G01*
G37*
X147000000Y-43000000D03*
X192850000Y-84250000D03*
X187850000Y-84250000D03*
X153200000Y-104050000D03*
X158200000Y-104050000D03*
X180300000Y-84200000D03*
X185300000Y-84200000D03*
X161650000Y-75900000D03*
X156650000Y-75900000D03*
X132050000Y-85300000D03*
X137050000Y-85300000D03*
X158150000Y-100500000D03*
X153150000Y-100500000D03*
X140200000Y-66850000D03*
X135200000Y-66850000D03*
X192600000Y-53400000D03*
X187600000Y-53400000D03*
X133500000Y-61500000D03*
X128500000Y-61500000D03*
X154000000Y-75850000D03*
X149000000Y-75850000D03*
X163750000Y-125500000D03*
X168750000Y-125500000D03*
X178000000Y-77000000D03*
X173000000Y-77000000D03*
X114250000Y-77500000D03*
X109250000Y-77500000D03*
X165500000Y-97000000D03*
X170500000Y-97000000D03*
X143250000Y-97000000D03*
X148250000Y-97000000D03*
X163750000Y-122000000D03*
X168750000Y-122000000D03*
X146000000Y-122200000D03*
X141000000Y-122200000D03*
G36*
G01*
X124700000Y-55100000D02*
X124700000Y-52900000D01*
G75*
G02*
X124900000Y-52700000I200000J0D01*
G01*
X127100000Y-52700000D01*
G75*
G02*
X127300000Y-52900000I0J-200000D01*
G01*
X127300000Y-55100000D01*
G75*
G02*
X127100000Y-55300000I-200000J0D01*
G01*
X124900000Y-55300000D01*
G75*
G02*
X124700000Y-55100000I0J200000D01*
G01*
G37*
D12*
X133620000Y-54000000D03*
G36*
G01*
X153250000Y-41550000D02*
X156750000Y-41550000D01*
G75*
G02*
X156950000Y-41750000I0J-200000D01*
G01*
X156950000Y-45250000D01*
G75*
G02*
X156750000Y-45450000I-200000J0D01*
G01*
X153250000Y-45450000D01*
G75*
G02*
X153050000Y-45250000I0J200000D01*
G01*
X153050000Y-41750000D01*
G75*
G02*
X153250000Y-41550000I200000J0D01*
G01*
G37*
G36*
G01*
X153900000Y-35800000D02*
X156100000Y-35800000D01*
G75*
G02*
X156950000Y-36650000I0J-850000D01*
G01*
X156950000Y-38350000D01*
G75*
G02*
X156100000Y-39200000I-850000J0D01*
G01*
X153900000Y-39200000D01*
G75*
G02*
X153050000Y-38350000I0J850000D01*
G01*
X153050000Y-36650000D01*
G75*
G02*
X153900000Y-35800000I850000J0D01*
G01*
G37*
G36*
G01*
X149325000Y-38550000D02*
X151275000Y-38550000D01*
G75*
G02*
X152250000Y-39525000I0J-975000D01*
G01*
X152250000Y-41475000D01*
G75*
G02*
X151275000Y-42450000I-975000J0D01*
G01*
X149325000Y-42450000D01*
G75*
G02*
X148350000Y-41475000I0J975000D01*
G01*
X148350000Y-39525000D01*
G75*
G02*
X149325000Y-38550000I975000J0D01*
G01*
G37*
D13*
X106850000Y-46500000D03*
X117150000Y-46500000D03*
D14*
X112000000Y-44900000D03*
D15*
X121700000Y-42750000D03*
X131050000Y-42750000D03*
D16*
X124050000Y-41200000D03*
X128700000Y-41200000D03*
X123550000Y-43150000D03*
X129200000Y-43150000D03*
G36*
G01*
X178650000Y-35950000D02*
X180350000Y-35950000D01*
G75*
G02*
X180550000Y-36150000I0J-200000D01*
G01*
X180550000Y-37850000D01*
G75*
G02*
X180350000Y-38050000I-200000J0D01*
G01*
X178650000Y-38050000D01*
G75*
G02*
X178450000Y-37850000I0J200000D01*
G01*
X178450000Y-36150000D01*
G75*
G02*
X178650000Y-35950000I200000J0D01*
G01*
G37*
D17*
X179500000Y-39540000D03*
X176960000Y-37000000D03*
X176960000Y-39540000D03*
X174420000Y-37000000D03*
X174420000Y-39540000D03*
X171880000Y-37000000D03*
X171880000Y-39540000D03*
X169340000Y-37000000D03*
X169340000Y-39540000D03*
X166800000Y-37000000D03*
X166800000Y-39540000D03*
X164260000Y-37000000D03*
X164260000Y-39540000D03*
X161720000Y-37000000D03*
X161720000Y-39540000D03*
D14*
X198000000Y-44900000D03*
D13*
X203150000Y-46500000D03*
X192850000Y-46500000D03*
G36*
G01*
X187520000Y-44055000D02*
X187520000Y-42605000D01*
G75*
G02*
X187895000Y-42230000I375000J0D01*
G01*
X188645000Y-42230000D01*
G75*
G02*
X189020000Y-42605000I0J-375000D01*
G01*
X189020000Y-44055000D01*
G75*
G02*
X188645000Y-44430000I-375000J0D01*
G01*
X187895000Y-44430000D01*
G75*
G02*
X187520000Y-44055000I0J375000D01*
G01*
G37*
G36*
G01*
X188790000Y-46125000D02*
X188790000Y-44675000D01*
G75*
G02*
X189165000Y-44300000I375000J0D01*
G01*
X189915000Y-44300000D01*
G75*
G02*
X190290000Y-44675000I0J-375000D01*
G01*
X190290000Y-46125000D01*
G75*
G02*
X189915000Y-46500000I-375000J0D01*
G01*
X189165000Y-46500000D01*
G75*
G02*
X188790000Y-46125000I0J375000D01*
G01*
G37*
G36*
G01*
X186250000Y-46300000D02*
X186250000Y-44500000D01*
G75*
G02*
X186450000Y-44300000I200000J0D01*
G01*
X187550000Y-44300000D01*
G75*
G02*
X187750000Y-44500000I0J-200000D01*
G01*
X187750000Y-46300000D01*
G75*
G02*
X187550000Y-46500000I-200000J0D01*
G01*
X186450000Y-46500000D01*
G75*
G02*
X186250000Y-46300000I0J200000D01*
G01*
G37*
D11*
X114500000Y-54000000D03*
D18*
X106880000Y-54000000D03*
X125500000Y-92620000D03*
D11*
X125500000Y-85000000D03*
X122000000Y-85000000D03*
D18*
X122000000Y-92620000D03*
X106880000Y-58000000D03*
D11*
X114500000Y-58000000D03*
X136000000Y-42000000D03*
D18*
X136000000Y-49620000D03*
X183500000Y-36380000D03*
D11*
X183500000Y-44000000D03*
X186500000Y-40000000D03*
D18*
X194120000Y-40000000D03*
X186380000Y-36500000D03*
D11*
X194000000Y-36500000D03*
X125750000Y-58000000D03*
D18*
X133370000Y-58000000D03*
X179670000Y-44700000D03*
D11*
X172050000Y-44700000D03*
X179750000Y-48750000D03*
D18*
X172130000Y-48750000D03*
X179720000Y-52800000D03*
D11*
X172100000Y-52800000D03*
D18*
X179670000Y-132550000D03*
D11*
X172050000Y-132550000D03*
X172000000Y-125500000D03*
D18*
X179620000Y-125500000D03*
D11*
X162750000Y-93250000D03*
D18*
X170370000Y-93250000D03*
D11*
X179650000Y-128950000D03*
D18*
X172030000Y-128950000D03*
D11*
X178000000Y-70250000D03*
D18*
X170380000Y-70250000D03*
X106880000Y-70250000D03*
D11*
X114500000Y-70250000D03*
D18*
X178120000Y-73500000D03*
D11*
X170500000Y-73500000D03*
D18*
X114370000Y-74000000D03*
D11*
X106750000Y-74000000D03*
X178000000Y-80750000D03*
D18*
X170380000Y-80750000D03*
D11*
X114250000Y-80750000D03*
D18*
X106630000Y-80750000D03*
X139870000Y-81500000D03*
D11*
X132250000Y-81500000D03*
D18*
X121880000Y-66750000D03*
D11*
X129500000Y-66750000D03*
D18*
X187750000Y-111180000D03*
D11*
X187750000Y-118800000D03*
X122700000Y-118450000D03*
D18*
X122700000Y-110830000D03*
D11*
X180750000Y-104000000D03*
D18*
X173130000Y-104000000D03*
X114120000Y-122250000D03*
D11*
X106500000Y-122250000D03*
D18*
X196130000Y-121750000D03*
D11*
X203750000Y-121750000D03*
X129600000Y-122200000D03*
D18*
X137220000Y-122200000D03*
X173130000Y-100500000D03*
D11*
X180750000Y-100500000D03*
X129600000Y-125750000D03*
D18*
X137220000Y-125750000D03*
D11*
X196250000Y-125500000D03*
D18*
X203870000Y-125500000D03*
X173130000Y-97000000D03*
D11*
X180750000Y-97000000D03*
D18*
X142020000Y-132750000D03*
D11*
X134400000Y-132750000D03*
X134400000Y-129250000D03*
D18*
X142020000Y-129250000D03*
D19*
X152500000Y-133500000D03*
X155000000Y-133500000D03*
X157500000Y-133500000D03*
D20*
X150250000Y-126000000D03*
X159750000Y-126000000D03*
D19*
X184250000Y-81250000D03*
X186750000Y-81250000D03*
X189250000Y-81250000D03*
D20*
X182000000Y-73750000D03*
X191500000Y-73750000D03*
X128000000Y-74000000D03*
X118500000Y-74000000D03*
D19*
X125750000Y-81500000D03*
X123250000Y-81500000D03*
X120750000Y-81500000D03*
X175600000Y-118750000D03*
X178100000Y-118750000D03*
X180600000Y-118750000D03*
D20*
X173350000Y-111250000D03*
X182850000Y-111250000D03*
X117250000Y-111750000D03*
X107750000Y-111750000D03*
D19*
X115000000Y-119250000D03*
X112500000Y-119250000D03*
X110000000Y-119250000D03*
D20*
X202500000Y-111250000D03*
X193000000Y-111250000D03*
D19*
X200250000Y-118750000D03*
X197750000Y-118750000D03*
X195250000Y-118750000D03*
X131000000Y-119000000D03*
X133500000Y-119000000D03*
X136000000Y-119000000D03*
D20*
X128750000Y-111500000D03*
X138250000Y-111500000D03*
D21*
X191480000Y-124000000D03*
X188940000Y-126540000D03*
X186400000Y-124000000D03*
X121200000Y-124000000D03*
X123740000Y-126540000D03*
X126280000Y-124000000D03*
D22*
X108600000Y-92900000D03*
X108600000Y-104700000D03*
D23*
X108650000Y-101800000D03*
X108650000Y-98800000D03*
X108650000Y-95800000D03*
X201950000Y-95800000D03*
X201950000Y-98800000D03*
X201950000Y-101800000D03*
D22*
X201900000Y-104700000D03*
X201900000Y-92900000D03*
D24*
X193550000Y-131600000D03*
X188850000Y-131600000D03*
X184150000Y-131600000D03*
X118950000Y-131400000D03*
X123650000Y-131400000D03*
X128350000Y-131400000D03*
G36*
G01*
X127600000Y-89800000D02*
X127600000Y-88200000D01*
G75*
G02*
X127800000Y-88000000I200000J0D01*
G01*
X130200000Y-88000000D01*
G75*
G02*
X130400000Y-88200000I0J-200000D01*
G01*
X130400000Y-89800000D01*
G75*
G02*
X130200000Y-90000000I-200000J0D01*
G01*
X127800000Y-90000000D01*
G75*
G02*
X127600000Y-89800000I0J200000D01*
G01*
G37*
D25*
X136620000Y-104240000D03*
X129000000Y-91540000D03*
X136620000Y-101700000D03*
X129000000Y-94080000D03*
X136620000Y-99160000D03*
X129000000Y-96620000D03*
X136620000Y-96620000D03*
X129000000Y-99160000D03*
X136620000Y-94080000D03*
X129000000Y-101700000D03*
X136620000Y-91540000D03*
X129000000Y-104240000D03*
X136620000Y-89000000D03*
G36*
G01*
X138847500Y-39500000D02*
X138847500Y-37500000D01*
G75*
G02*
X139047500Y-37300000I200000J0D01*
G01*
X140952500Y-37300000D01*
G75*
G02*
X141152500Y-37500000I0J-200000D01*
G01*
X141152500Y-39500000D01*
G75*
G02*
X140952500Y-39700000I-200000J0D01*
G01*
X139047500Y-39700000D01*
G75*
G02*
X138847500Y-39500000I0J200000D01*
G01*
G37*
D26*
X142540000Y-38500000D03*
X145080000Y-38500000D03*
D25*
X203120000Y-53500000D03*
X195500000Y-71280000D03*
X203120000Y-56040000D03*
X195500000Y-68740000D03*
X203120000Y-58580000D03*
X195500000Y-66200000D03*
X203120000Y-61120000D03*
X195500000Y-63660000D03*
X203120000Y-63660000D03*
X195500000Y-61120000D03*
X203120000Y-66200000D03*
X195500000Y-58580000D03*
X203120000Y-68740000D03*
X195500000Y-56040000D03*
X203120000Y-71280000D03*
G36*
G01*
X194100000Y-54300000D02*
X194100000Y-52700000D01*
G75*
G02*
X194300000Y-52500000I200000J0D01*
G01*
X196700000Y-52500000D01*
G75*
G02*
X196900000Y-52700000I0J-200000D01*
G01*
X196900000Y-54300000D01*
G75*
G02*
X196700000Y-54500000I-200000J0D01*
G01*
X194300000Y-54500000D01*
G75*
G02*
X194100000Y-54300000I0J200000D01*
G01*
G37*
G36*
G01*
X194350000Y-75550000D02*
X194350000Y-73950000D01*
G75*
G02*
X194550000Y-73750000I200000J0D01*
G01*
X196950000Y-73750000D01*
G75*
G02*
X197150000Y-73950000I0J-200000D01*
G01*
X197150000Y-75550000D01*
G75*
G02*
X196950000Y-75750000I-200000J0D01*
G01*
X194550000Y-75750000D01*
G75*
G02*
X194350000Y-75550000I0J200000D01*
G01*
G37*
X203370000Y-89990000D03*
X195750000Y-77290000D03*
X203370000Y-87450000D03*
X195750000Y-79830000D03*
X203370000Y-84910000D03*
X195750000Y-82370000D03*
X203370000Y-82370000D03*
X195750000Y-84910000D03*
X203370000Y-79830000D03*
X195750000Y-87450000D03*
X203370000Y-77290000D03*
X195750000Y-89990000D03*
X203370000Y-74750000D03*
X159020000Y-79200000D03*
X151400000Y-96980000D03*
X159020000Y-81740000D03*
X151400000Y-94440000D03*
X159020000Y-84280000D03*
X151400000Y-91900000D03*
X159020000Y-86820000D03*
X151400000Y-89360000D03*
X159020000Y-89360000D03*
X151400000Y-86820000D03*
X159020000Y-91900000D03*
X151400000Y-84280000D03*
X159020000Y-94440000D03*
X151400000Y-81740000D03*
X159020000Y-96980000D03*
G36*
G01*
X150000000Y-80000000D02*
X150000000Y-78400000D01*
G75*
G02*
X150200000Y-78200000I200000J0D01*
G01*
X152600000Y-78200000D01*
G75*
G02*
X152800000Y-78400000I0J-200000D01*
G01*
X152800000Y-80000000D01*
G75*
G02*
X152600000Y-80200000I-200000J0D01*
G01*
X150200000Y-80200000D01*
G75*
G02*
X150000000Y-80000000I0J200000D01*
G01*
G37*
X154920000Y-57200000D03*
X147300000Y-64820000D03*
X154920000Y-59740000D03*
X147300000Y-62280000D03*
X154920000Y-62280000D03*
X147300000Y-59740000D03*
X154920000Y-64820000D03*
G36*
G01*
X145900000Y-58000000D02*
X145900000Y-56400000D01*
G75*
G02*
X146100000Y-56200000I200000J0D01*
G01*
X148500000Y-56200000D01*
G75*
G02*
X148700000Y-56400000I0J-200000D01*
G01*
X148700000Y-58000000D01*
G75*
G02*
X148500000Y-58200000I-200000J0D01*
G01*
X146100000Y-58200000D01*
G75*
G02*
X145900000Y-58000000I0J200000D01*
G01*
G37*
X191870000Y-87750000D03*
X184250000Y-102990000D03*
X191870000Y-90290000D03*
X184250000Y-100450000D03*
X191870000Y-92830000D03*
X184250000Y-97910000D03*
X191870000Y-95370000D03*
X184250000Y-95370000D03*
X191870000Y-97910000D03*
X184250000Y-92830000D03*
X191870000Y-100450000D03*
X184250000Y-90290000D03*
X191870000Y-102990000D03*
G36*
G01*
X182850000Y-88550000D02*
X182850000Y-86950000D01*
G75*
G02*
X183050000Y-86750000I200000J0D01*
G01*
X185450000Y-86750000D01*
G75*
G02*
X185650000Y-86950000I0J-200000D01*
G01*
X185650000Y-88550000D01*
G75*
G02*
X185450000Y-88750000I-200000J0D01*
G01*
X183050000Y-88750000D01*
G75*
G02*
X182850000Y-88550000I0J200000D01*
G01*
G37*
G36*
G01*
X130850000Y-71050000D02*
X130850000Y-69450000D01*
G75*
G02*
X131050000Y-69250000I200000J0D01*
G01*
X133450000Y-69250000D01*
G75*
G02*
X133650000Y-69450000I0J-200000D01*
G01*
X133650000Y-71050000D01*
G75*
G02*
X133450000Y-71250000I-200000J0D01*
G01*
X131050000Y-71250000D01*
G75*
G02*
X130850000Y-71050000I0J200000D01*
G01*
G37*
X139870000Y-77870000D03*
X132250000Y-72790000D03*
X139870000Y-75330000D03*
X132250000Y-75330000D03*
X139870000Y-72790000D03*
X132250000Y-77870000D03*
X139870000Y-70250000D03*
G36*
G01*
X140800000Y-101300000D02*
X140800000Y-99700000D01*
G75*
G02*
X141000000Y-99500000I200000J0D01*
G01*
X143400000Y-99500000D01*
G75*
G02*
X143600000Y-99700000I0J-200000D01*
G01*
X143600000Y-101300000D01*
G75*
G02*
X143400000Y-101500000I-200000J0D01*
G01*
X141000000Y-101500000D01*
G75*
G02*
X140800000Y-101300000I0J200000D01*
G01*
G37*
X149820000Y-118280000D03*
X142200000Y-103040000D03*
X149820000Y-115740000D03*
X142200000Y-105580000D03*
X149820000Y-113200000D03*
X142200000Y-108120000D03*
X149820000Y-110660000D03*
X142200000Y-110660000D03*
X149820000Y-108120000D03*
X142200000Y-113200000D03*
X149820000Y-105580000D03*
X142200000Y-115740000D03*
X149820000Y-103040000D03*
X142200000Y-118280000D03*
X149820000Y-100500000D03*
G36*
G01*
X160200000Y-101300000D02*
X160200000Y-99700000D01*
G75*
G02*
X160400000Y-99500000I200000J0D01*
G01*
X162800000Y-99500000D01*
G75*
G02*
X163000000Y-99700000I0J-200000D01*
G01*
X163000000Y-101300000D01*
G75*
G02*
X162800000Y-101500000I-200000J0D01*
G01*
X160400000Y-101500000D01*
G75*
G02*
X160200000Y-101300000I0J200000D01*
G01*
G37*
X169220000Y-118280000D03*
X161600000Y-103040000D03*
X169220000Y-115740000D03*
X161600000Y-105580000D03*
X169220000Y-113200000D03*
X161600000Y-108120000D03*
X169220000Y-110660000D03*
X161600000Y-110660000D03*
X169220000Y-108120000D03*
X161600000Y-113200000D03*
X169220000Y-105580000D03*
X161600000Y-115740000D03*
X169220000Y-103040000D03*
X161600000Y-118280000D03*
X169220000Y-100500000D03*
D16*
X123630000Y-97250000D03*
X118750000Y-97250000D03*
X118750000Y-103250000D03*
X123630000Y-103250000D03*
M02*
