G04 #@! TF.GenerationSoftware,KiCad,Pcbnew,5.1.10*
G04 #@! TF.CreationDate,2021-10-22T11:34:36+13:00*
G04 #@! TF.ProjectId,two_point_one_colorizer,74776f5f-706f-4696-9e74-5f6f6e655f63,rev?*
G04 #@! TF.SameCoordinates,Original*
G04 #@! TF.FileFunction,Legend,Bot*
G04 #@! TF.FilePolarity,Positive*
%FSLAX46Y46*%
G04 Gerber Fmt 4.6, Leading zero omitted, Abs format (unit mm)*
G04 Created by KiCad (PCBNEW 5.1.10) date 2021-10-22 11:34:36*
%MOMM*%
%LPD*%
G01*
G04 APERTURE LIST*
%ADD10C,0.600000*%
%ADD11C,0.300000*%
G04 APERTURE END LIST*
D10*
X193100000Y-62088095D02*
X189290476Y-62088095D01*
X188814285Y-57088095D02*
X187861904Y-56373809D01*
X186909523Y-57088095D01*
X181909523Y-56611904D02*
X178576190Y-61611904D01*
X178576190Y-56611904D02*
X181909523Y-61611904D01*
X177147619Y-56611904D02*
X173814285Y-61611904D01*
X173814285Y-56611904D02*
X177147619Y-61611904D01*
D11*
X192085714Y-63778571D02*
X192085714Y-64778571D01*
X192728571Y-63778571D02*
X192728571Y-64564285D01*
X192657142Y-64707142D01*
X192514285Y-64778571D01*
X192300000Y-64778571D01*
X192157142Y-64707142D01*
X192085714Y-64635714D01*
X191371428Y-63778571D02*
X191371428Y-64778571D01*
X191371428Y-63921428D02*
X191300000Y-63850000D01*
X191157142Y-63778571D01*
X190942857Y-63778571D01*
X190800000Y-63850000D01*
X190728571Y-63992857D01*
X190728571Y-64778571D01*
X189371428Y-64778571D02*
X189371428Y-63278571D01*
X189371428Y-64707142D02*
X189514285Y-64778571D01*
X189800000Y-64778571D01*
X189942857Y-64707142D01*
X190014285Y-64635714D01*
X190085714Y-64492857D01*
X190085714Y-64064285D01*
X190014285Y-63921428D01*
X189942857Y-63850000D01*
X189800000Y-63778571D01*
X189514285Y-63778571D01*
X189371428Y-63850000D01*
X188085714Y-64707142D02*
X188228571Y-64778571D01*
X188514285Y-64778571D01*
X188657142Y-64707142D01*
X188728571Y-64564285D01*
X188728571Y-63992857D01*
X188657142Y-63850000D01*
X188514285Y-63778571D01*
X188228571Y-63778571D01*
X188085714Y-63850000D01*
X188014285Y-63992857D01*
X188014285Y-64135714D01*
X188728571Y-64278571D01*
X187371428Y-64778571D02*
X187371428Y-63778571D01*
X187371428Y-64064285D02*
X187300000Y-63921428D01*
X187228571Y-63850000D01*
X187085714Y-63778571D01*
X186942857Y-63778571D01*
X186514285Y-64707142D02*
X186371428Y-64778571D01*
X186085714Y-64778571D01*
X185942857Y-64707142D01*
X185871428Y-64564285D01*
X185871428Y-64492857D01*
X185942857Y-64350000D01*
X186085714Y-64278571D01*
X186300000Y-64278571D01*
X186442857Y-64207142D01*
X186514285Y-64064285D01*
X186514285Y-63992857D01*
X186442857Y-63850000D01*
X186300000Y-63778571D01*
X186085714Y-63778571D01*
X185942857Y-63850000D01*
X184585714Y-64707142D02*
X184728571Y-64778571D01*
X185014285Y-64778571D01*
X185157142Y-64707142D01*
X185228571Y-64635714D01*
X185300000Y-64492857D01*
X185300000Y-64064285D01*
X185228571Y-63921428D01*
X185157142Y-63850000D01*
X185014285Y-63778571D01*
X184728571Y-63778571D01*
X184585714Y-63850000D01*
X183728571Y-64778571D02*
X183871428Y-64707142D01*
X183942857Y-64635714D01*
X184014285Y-64492857D01*
X184014285Y-64064285D01*
X183942857Y-63921428D01*
X183871428Y-63850000D01*
X183728571Y-63778571D01*
X183514285Y-63778571D01*
X183371428Y-63850000D01*
X183300000Y-63921428D01*
X183228571Y-64064285D01*
X183228571Y-64492857D01*
X183300000Y-64635714D01*
X183371428Y-64707142D01*
X183514285Y-64778571D01*
X183728571Y-64778571D01*
X182585714Y-64778571D02*
X182585714Y-63778571D01*
X182585714Y-64064285D02*
X182514285Y-63921428D01*
X182442857Y-63850000D01*
X182300000Y-63778571D01*
X182157142Y-63778571D01*
X181085714Y-64707142D02*
X181228571Y-64778571D01*
X181514285Y-64778571D01*
X181657142Y-64707142D01*
X181728571Y-64564285D01*
X181728571Y-63992857D01*
X181657142Y-63850000D01*
X181514285Y-63778571D01*
X181228571Y-63778571D01*
X181085714Y-63850000D01*
X181014285Y-63992857D01*
X181014285Y-64135714D01*
X181728571Y-64278571D01*
X180442857Y-64707142D02*
X180300000Y-64778571D01*
X180014285Y-64778571D01*
X179871428Y-64707142D01*
X179800000Y-64564285D01*
X179800000Y-64492857D01*
X179871428Y-64350000D01*
X180014285Y-64278571D01*
X180228571Y-64278571D01*
X180371428Y-64207142D01*
X180442857Y-64064285D01*
X180442857Y-63992857D01*
X180371428Y-63850000D01*
X180228571Y-63778571D01*
X180014285Y-63778571D01*
X179871428Y-63850000D01*
X179157142Y-64635714D02*
X179085714Y-64707142D01*
X179157142Y-64778571D01*
X179228571Y-64707142D01*
X179157142Y-64635714D01*
X179157142Y-64778571D01*
X178514285Y-64707142D02*
X178371428Y-64778571D01*
X178085714Y-64778571D01*
X177942857Y-64707142D01*
X177871428Y-64564285D01*
X177871428Y-64492857D01*
X177942857Y-64350000D01*
X178085714Y-64278571D01*
X178300000Y-64278571D01*
X178442857Y-64207142D01*
X178514285Y-64064285D01*
X178514285Y-63992857D01*
X178442857Y-63850000D01*
X178300000Y-63778571D01*
X178085714Y-63778571D01*
X177942857Y-63850000D01*
X177228571Y-64778571D02*
X177228571Y-63278571D01*
X176585714Y-64778571D02*
X176585714Y-63992857D01*
X176657142Y-63850000D01*
X176800000Y-63778571D01*
X177014285Y-63778571D01*
X177157142Y-63850000D01*
X177228571Y-63921428D01*
X175657142Y-64778571D02*
X175800000Y-64707142D01*
X175871428Y-64635714D01*
X175942857Y-64492857D01*
X175942857Y-64064285D01*
X175871428Y-63921428D01*
X175800000Y-63850000D01*
X175657142Y-63778571D01*
X175442857Y-63778571D01*
X175300000Y-63850000D01*
X175228571Y-63921428D01*
X175157142Y-64064285D01*
X175157142Y-64492857D01*
X175228571Y-64635714D01*
X175300000Y-64707142D01*
X175442857Y-64778571D01*
X175657142Y-64778571D01*
X174514285Y-63778571D02*
X174514285Y-65278571D01*
X174514285Y-63850000D02*
X174371428Y-63778571D01*
X174085714Y-63778571D01*
X173942857Y-63850000D01*
X173871428Y-63921428D01*
X173800000Y-64064285D01*
X173800000Y-64492857D01*
X173871428Y-64635714D01*
X173942857Y-64707142D01*
X174085714Y-64778571D01*
X174371428Y-64778571D01*
X174514285Y-64707142D01*
M02*
