G04 #@! TF.GenerationSoftware,KiCad,Pcbnew,(5.1.4-0-10_14)*
G04 #@! TF.CreationDate,2020-06-13T16:51:02+02:00*
G04 #@! TF.ProjectId,chroma_luma_invert,6368726f-6d61-45f6-9c75-6d615f696e76,rev?*
G04 #@! TF.SameCoordinates,Original*
G04 #@! TF.FileFunction,Soldermask,Bot*
G04 #@! TF.FilePolarity,Negative*
%FSLAX46Y46*%
G04 Gerber Fmt 4.6, Leading zero omitted, Abs format (unit mm)*
G04 Created by KiCad (PCBNEW (5.1.4-0-10_14)) date 2020-06-13 16:51:02*
%MOMM*%
%LPD*%
G04 APERTURE LIST*
%ADD10C,3.600000*%
%ADD11C,2.000000*%
%ADD12R,2.600000X2.600000*%
%ADD13O,2.600000X2.600000*%
%ADD14C,3.400000*%
%ADD15C,2.950000*%
%ADD16R,3.900000X3.900000*%
%ADD17C,0.100000*%
%ADD18C,3.900000*%
%ADD19R,2.100000X2.100000*%
%ADD20O,2.100000X2.100000*%
%ADD21C,1.840000*%
%ADD22O,2.800000X2.000000*%
%ADD23R,2.800000X2.000000*%
%ADD24O,3.900000X3.900000*%
%ADD25R,2.400000X2.305000*%
%ADD26O,2.400000X2.305000*%
%ADD27R,2.000000X2.800000*%
%ADD28O,2.000000X2.800000*%
%ADD29O,2.000000X2.000000*%
G04 APERTURE END LIST*
D10*
X108500000Y-38500000D03*
X201500000Y-38500000D03*
X201500000Y-131500000D03*
X108500000Y-131500000D03*
D11*
X112500000Y-52250000D03*
X112500000Y-47250000D03*
X194750000Y-109750000D03*
X194750000Y-114750000D03*
X178000000Y-109500000D03*
X178000000Y-104500000D03*
X168000000Y-99500000D03*
X163000000Y-99500000D03*
X108250000Y-87000000D03*
X108250000Y-82000000D03*
X127750000Y-113500000D03*
X127750000Y-118500000D03*
X110500000Y-112750000D03*
X110500000Y-107750000D03*
D12*
X122000000Y-55250000D03*
D13*
X122000000Y-47630000D03*
D14*
X191350000Y-67000000D03*
X201650000Y-67000000D03*
D15*
X196500000Y-65400000D03*
X113500000Y-66400000D03*
D14*
X118650000Y-68000000D03*
X108350000Y-68000000D03*
D16*
X155000000Y-45000000D03*
D17*
G36*
X156183315Y-37304093D02*
G01*
X156265827Y-37316333D01*
X156346742Y-37336601D01*
X156425281Y-37364702D01*
X156500687Y-37400367D01*
X156572235Y-37443251D01*
X156639234Y-37492941D01*
X156701041Y-37548959D01*
X156757059Y-37610766D01*
X156806749Y-37677765D01*
X156849633Y-37749313D01*
X156885298Y-37824719D01*
X156913399Y-37903258D01*
X156933667Y-37984173D01*
X156945907Y-38066685D01*
X156950000Y-38150000D01*
X156950000Y-39850000D01*
X156945907Y-39933315D01*
X156933667Y-40015827D01*
X156913399Y-40096742D01*
X156885298Y-40175281D01*
X156849633Y-40250687D01*
X156806749Y-40322235D01*
X156757059Y-40389234D01*
X156701041Y-40451041D01*
X156639234Y-40507059D01*
X156572235Y-40556749D01*
X156500687Y-40599633D01*
X156425281Y-40635298D01*
X156346742Y-40663399D01*
X156265827Y-40683667D01*
X156183315Y-40695907D01*
X156100000Y-40700000D01*
X153900000Y-40700000D01*
X153816685Y-40695907D01*
X153734173Y-40683667D01*
X153653258Y-40663399D01*
X153574719Y-40635298D01*
X153499313Y-40599633D01*
X153427765Y-40556749D01*
X153360766Y-40507059D01*
X153298959Y-40451041D01*
X153242941Y-40389234D01*
X153193251Y-40322235D01*
X153150367Y-40250687D01*
X153114702Y-40175281D01*
X153086601Y-40096742D01*
X153066333Y-40015827D01*
X153054093Y-39933315D01*
X153050000Y-39850000D01*
X153050000Y-38150000D01*
X153054093Y-38066685D01*
X153066333Y-37984173D01*
X153086601Y-37903258D01*
X153114702Y-37824719D01*
X153150367Y-37749313D01*
X153193251Y-37677765D01*
X153242941Y-37610766D01*
X153298959Y-37548959D01*
X153360766Y-37492941D01*
X153427765Y-37443251D01*
X153499313Y-37400367D01*
X153574719Y-37364702D01*
X153653258Y-37336601D01*
X153734173Y-37316333D01*
X153816685Y-37304093D01*
X153900000Y-37300000D01*
X156100000Y-37300000D01*
X156183315Y-37304093D01*
X156183315Y-37304093D01*
G37*
D14*
X155000000Y-39000000D03*
D17*
G36*
X151370567Y-40054695D02*
G01*
X151465213Y-40068734D01*
X151558028Y-40091983D01*
X151648116Y-40124217D01*
X151734612Y-40165127D01*
X151816681Y-40214317D01*
X151893533Y-40271315D01*
X151964429Y-40335571D01*
X152028685Y-40406467D01*
X152085683Y-40483319D01*
X152134873Y-40565388D01*
X152175783Y-40651884D01*
X152208017Y-40741972D01*
X152231266Y-40834787D01*
X152245305Y-40929433D01*
X152250000Y-41025000D01*
X152250000Y-42975000D01*
X152245305Y-43070567D01*
X152231266Y-43165213D01*
X152208017Y-43258028D01*
X152175783Y-43348116D01*
X152134873Y-43434612D01*
X152085683Y-43516681D01*
X152028685Y-43593533D01*
X151964429Y-43664429D01*
X151893533Y-43728685D01*
X151816681Y-43785683D01*
X151734612Y-43834873D01*
X151648116Y-43875783D01*
X151558028Y-43908017D01*
X151465213Y-43931266D01*
X151370567Y-43945305D01*
X151275000Y-43950000D01*
X149325000Y-43950000D01*
X149229433Y-43945305D01*
X149134787Y-43931266D01*
X149041972Y-43908017D01*
X148951884Y-43875783D01*
X148865388Y-43834873D01*
X148783319Y-43785683D01*
X148706467Y-43728685D01*
X148635571Y-43664429D01*
X148571315Y-43593533D01*
X148514317Y-43516681D01*
X148465127Y-43434612D01*
X148424217Y-43348116D01*
X148391983Y-43258028D01*
X148368734Y-43165213D01*
X148354695Y-43070567D01*
X148350000Y-42975000D01*
X148350000Y-41025000D01*
X148354695Y-40929433D01*
X148368734Y-40834787D01*
X148391983Y-40741972D01*
X148424217Y-40651884D01*
X148465127Y-40565388D01*
X148514317Y-40483319D01*
X148571315Y-40406467D01*
X148635571Y-40335571D01*
X148706467Y-40271315D01*
X148783319Y-40214317D01*
X148865388Y-40165127D01*
X148951884Y-40124217D01*
X149041972Y-40091983D01*
X149134787Y-40068734D01*
X149229433Y-40054695D01*
X149325000Y-40050000D01*
X151275000Y-40050000D01*
X151370567Y-40054695D01*
X151370567Y-40054695D01*
G37*
D18*
X150300000Y-42000000D03*
D19*
X167500000Y-132500000D03*
D20*
X164960000Y-132500000D03*
X162420000Y-132500000D03*
X159880000Y-132500000D03*
X157340000Y-132500000D03*
X154800000Y-132500000D03*
X152260000Y-132500000D03*
X149720000Y-132500000D03*
X147180000Y-132500000D03*
X144640000Y-132500000D03*
X142100000Y-132500000D03*
X139560000Y-132500000D03*
D21*
X196250000Y-120670000D03*
X198790000Y-123210000D03*
X196250000Y-125750000D03*
X196250000Y-106750000D03*
X198790000Y-104210000D03*
X196250000Y-101670000D03*
X129500000Y-129250000D03*
X132040000Y-126710000D03*
X129500000Y-124170000D03*
X129500000Y-105420000D03*
X132040000Y-107960000D03*
X129500000Y-110500000D03*
D18*
X172100000Y-90250000D03*
X176800000Y-90250000D03*
X181500000Y-90250000D03*
X136250000Y-89750000D03*
X131550000Y-89750000D03*
X126850000Y-89750000D03*
D22*
X159120000Y-54000000D03*
X151500000Y-61620000D03*
X159120000Y-56540000D03*
X151500000Y-59080000D03*
X159120000Y-59080000D03*
X151500000Y-56540000D03*
X159120000Y-61620000D03*
D23*
X151500000Y-54000000D03*
X151500000Y-70000000D03*
D22*
X159120000Y-77620000D03*
X151500000Y-72540000D03*
X159120000Y-75080000D03*
X151500000Y-75080000D03*
X159120000Y-72540000D03*
X151500000Y-77620000D03*
X159120000Y-70000000D03*
D23*
X192250000Y-75750000D03*
D22*
X199870000Y-93530000D03*
X192250000Y-78290000D03*
X199870000Y-90990000D03*
X192250000Y-80830000D03*
X199870000Y-88450000D03*
X192250000Y-83370000D03*
X199870000Y-85910000D03*
X192250000Y-85910000D03*
X199870000Y-83370000D03*
X192250000Y-88450000D03*
X199870000Y-80830000D03*
X192250000Y-90990000D03*
X199870000Y-78290000D03*
X192250000Y-93530000D03*
X199870000Y-75750000D03*
D24*
X193160000Y-41040000D03*
D25*
X176500000Y-38500000D03*
D26*
X176500000Y-41040000D03*
X176500000Y-43580000D03*
D22*
X151870000Y-88000000D03*
X144250000Y-95620000D03*
X151870000Y-90540000D03*
X144250000Y-93080000D03*
X151870000Y-93080000D03*
X144250000Y-90540000D03*
X151870000Y-95620000D03*
D23*
X144250000Y-88000000D03*
X157250000Y-88000000D03*
D22*
X164870000Y-95620000D03*
X157250000Y-90540000D03*
X164870000Y-93080000D03*
X157250000Y-93080000D03*
X164870000Y-90540000D03*
X157250000Y-95620000D03*
X164870000Y-88000000D03*
X190120000Y-106750000D03*
X182500000Y-124530000D03*
X190120000Y-109290000D03*
X182500000Y-121990000D03*
X190120000Y-111830000D03*
X182500000Y-119450000D03*
X190120000Y-114370000D03*
X182500000Y-116910000D03*
X190120000Y-116910000D03*
X182500000Y-114370000D03*
X190120000Y-119450000D03*
X182500000Y-111830000D03*
X190120000Y-121990000D03*
X182500000Y-109290000D03*
X190120000Y-124530000D03*
D23*
X182500000Y-106750000D03*
D22*
X122870000Y-110250000D03*
X115250000Y-128030000D03*
X122870000Y-112790000D03*
X115250000Y-125490000D03*
X122870000Y-115330000D03*
X115250000Y-122950000D03*
X122870000Y-117870000D03*
X115250000Y-120410000D03*
X122870000Y-120410000D03*
X115250000Y-117870000D03*
X122870000Y-122950000D03*
X115250000Y-115330000D03*
X122870000Y-125490000D03*
X115250000Y-112790000D03*
X122870000Y-128030000D03*
D23*
X115250000Y-110250000D03*
D27*
X148500000Y-113500000D03*
D28*
X166280000Y-105880000D03*
X151040000Y-113500000D03*
X163740000Y-105880000D03*
X153580000Y-113500000D03*
X161200000Y-105880000D03*
X156120000Y-113500000D03*
X158660000Y-105880000D03*
X158660000Y-113500000D03*
X156120000Y-105880000D03*
X161200000Y-113500000D03*
X153580000Y-105880000D03*
X163740000Y-113500000D03*
X151040000Y-105880000D03*
X166280000Y-113500000D03*
X148500000Y-105880000D03*
D23*
X112000000Y-82250000D03*
D22*
X119620000Y-100030000D03*
X112000000Y-84790000D03*
X119620000Y-97490000D03*
X112000000Y-87330000D03*
X119620000Y-94950000D03*
X112000000Y-89870000D03*
X119620000Y-92410000D03*
X112000000Y-92410000D03*
X119620000Y-89870000D03*
X112000000Y-94950000D03*
X119620000Y-87330000D03*
X112000000Y-97490000D03*
X119620000Y-84790000D03*
X112000000Y-100030000D03*
X119620000Y-82250000D03*
D11*
X144000000Y-82750000D03*
D29*
X144000000Y-75130000D03*
X201500000Y-51630000D03*
D11*
X201500000Y-59250000D03*
D29*
X139500000Y-75380000D03*
D11*
X139500000Y-83000000D03*
X144000000Y-72250000D03*
D29*
X144000000Y-64630000D03*
D11*
X196750000Y-51750000D03*
D29*
X196750000Y-59370000D03*
D11*
X107500000Y-47250000D03*
D29*
X107500000Y-54870000D03*
D11*
X127000000Y-47250000D03*
D29*
X127000000Y-54870000D03*
X139500000Y-72120000D03*
D11*
X139500000Y-64500000D03*
X144000000Y-48000000D03*
D29*
X144000000Y-55620000D03*
D11*
X139500000Y-48000000D03*
D29*
X139500000Y-55620000D03*
X168500000Y-65630000D03*
D11*
X168500000Y-73250000D03*
D29*
X164000000Y-75880000D03*
D11*
X164000000Y-83500000D03*
X164000000Y-73000000D03*
D29*
X164000000Y-65380000D03*
X164000000Y-46120000D03*
D11*
X164000000Y-38500000D03*
X169000000Y-36500000D03*
D29*
X169000000Y-44120000D03*
X199000000Y-117620000D03*
D11*
X199000000Y-110000000D03*
X148000000Y-99500000D03*
D29*
X140380000Y-99500000D03*
X189620000Y-102250000D03*
D11*
X182000000Y-102250000D03*
X171250000Y-95750000D03*
D29*
X178870000Y-95750000D03*
X159370000Y-99500000D03*
D11*
X151750000Y-99500000D03*
X129000000Y-95750000D03*
D29*
X136620000Y-95750000D03*
X136620000Y-99500000D03*
D11*
X129000000Y-99500000D03*
D29*
X190120000Y-129250000D03*
D11*
X182500000Y-129250000D03*
X107750000Y-78000000D03*
D29*
X115370000Y-78000000D03*
D11*
X132000000Y-113500000D03*
D29*
X132000000Y-121120000D03*
X122620000Y-106000000D03*
D11*
X115000000Y-106000000D03*
D29*
X108250000Y-97370000D03*
D11*
X108250000Y-89750000D03*
M02*
