M48
; DRILL file {KiCad (5.1.4-0-10_14)} date 2020 June 13, Saturday 16:51:16
; FORMAT={-:-/ absolute / metric / decimal}
; #@! TF.CreationDate,2020-06-13T16:51:16+02:00
; #@! TF.GenerationSoftware,Kicad,Pcbnew,(5.1.4-0-10_14)
; #@! TF.FileFunction,Plated,1,2,PTH
FMAT,2
METRIC
T1C0.400
T2C0.800
T3C1.000
T4C1.100
T5C1.700
T6C2.000
T7C2.100
%
G90
G05
T1
X129.25Y-127.0
X131.75Y-129.5
X151.0Y-126.75
X155.5Y-62.0
X155.75Y-62.0
X156.0Y-62.75
X156.25Y-68.25
X165.5Y-119.75
X181.75Y-133.5
X187.5Y-63.0
T2
X115.25Y-110.25
X115.25Y-112.79
X115.25Y-115.33
X115.25Y-117.87
X115.25Y-120.41
X115.25Y-122.95
X151.75Y-99.5
X159.37Y-99.5
X196.75Y-51.75
X196.75Y-59.37
X115.25Y-125.49
X115.25Y-128.03
X164.0Y-65.38
X122.87Y-117.87
X122.87Y-120.41
X122.87Y-122.95
X122.87Y-128.03
X127.0Y-47.25
X127.0Y-54.87
X122.87Y-110.25
X122.87Y-112.79
X122.87Y-115.33
X122.87Y-125.49
X144.0Y-64.63
X144.0Y-72.25
X140.38Y-99.5
X148.0Y-99.5
X178.0Y-104.5
X144.0Y-75.13
X144.0Y-82.75
X178.0Y-109.5
X129.0Y-95.75
X136.62Y-95.75
X196.25Y-101.67
X196.25Y-106.75
X198.79Y-104.21
X129.5Y-105.42
X129.5Y-110.5
X132.04Y-107.96
X144.0Y-48.0
X144.0Y-55.62
X127.75Y-113.5
X127.75Y-118.5
X164.0Y-75.88
X164.0Y-83.5
X148.5Y-105.88
X148.5Y-113.5
X151.04Y-105.88
X151.04Y-113.5
X153.58Y-105.88
X153.58Y-113.5
X156.12Y-105.88
X156.12Y-113.5
X158.66Y-105.88
X158.66Y-113.5
X161.2Y-105.88
X161.2Y-113.5
X163.74Y-105.88
X199.0Y-110.0
X164.0Y-73.0
X199.0Y-117.62
X163.74Y-113.5
X166.28Y-105.88
X166.28Y-113.5
X139.5Y-75.38
X139.5Y-83.0
X151.5Y-70.0
X151.5Y-72.54
X151.5Y-75.08
X151.5Y-77.62
X159.12Y-70.0
X159.12Y-72.54
X159.12Y-75.08
X159.12Y-77.62
X107.5Y-47.25
X107.5Y-54.87
X108.25Y-89.75
X168.5Y-65.63
X168.5Y-73.25
X164.0Y-46.12
X182.5Y-129.25
X190.12Y-129.25
X112.5Y-47.25
X112.5Y-52.25
X164.0Y-38.5
X151.5Y-54.0
X151.5Y-56.54
X151.5Y-59.08
X151.5Y-61.62
X159.12Y-54.0
X201.5Y-51.63
X201.5Y-59.25
X132.0Y-113.5
X132.0Y-121.12
X157.25Y-88.0
X157.25Y-90.54
X129.5Y-124.17
X129.5Y-129.25
X132.04Y-126.71
X164.87Y-95.62
X163.0Y-99.5
X157.25Y-95.62
X164.87Y-88.0
X164.87Y-90.54
X164.87Y-93.08
X194.75Y-109.75
X168.0Y-99.5
X196.25Y-125.75
X157.25Y-93.08
X171.25Y-95.75
X159.12Y-59.08
X198.79Y-123.21
X159.12Y-61.62
X196.25Y-120.67
X178.87Y-95.75
X159.12Y-56.54
X110.5Y-112.75
X108.25Y-97.37
X110.5Y-107.75
X194.75Y-114.75
X182.5Y-106.75
X182.5Y-109.29
X182.5Y-111.83
X182.5Y-114.37
X182.5Y-116.91
X182.5Y-119.45
X182.5Y-121.99
X182.5Y-124.53
X190.12Y-106.75
X190.12Y-109.29
X190.12Y-111.83
X190.12Y-114.37
X190.12Y-116.91
X190.12Y-119.45
X190.12Y-121.99
X190.12Y-124.53
X139.5Y-48.0
X139.5Y-55.62
X108.25Y-82.0
X108.25Y-87.0
X129.0Y-99.5
X136.62Y-99.5
X112.0Y-82.25
X112.0Y-84.79
X112.0Y-87.33
X112.0Y-89.87
X112.0Y-92.41
X112.0Y-94.95
X112.0Y-97.49
X112.0Y-100.03
X119.62Y-82.25
X119.62Y-84.79
X119.62Y-87.33
X119.62Y-89.87
X119.62Y-92.41
X119.62Y-94.95
X119.62Y-97.49
X119.62Y-100.03
X115.0Y-106.0
X122.62Y-106.0
X192.25Y-75.75
X192.25Y-78.29
X192.25Y-80.83
X192.25Y-83.37
X144.25Y-88.0
X144.25Y-90.54
X144.25Y-93.08
X144.25Y-95.62
X151.87Y-88.0
X192.25Y-88.45
X199.87Y-80.83
X199.87Y-83.37
X107.75Y-78.0
X115.37Y-78.0
X192.25Y-90.99
X192.25Y-93.53
X199.87Y-75.75
X199.87Y-78.29
X151.87Y-90.54
X139.5Y-64.5
X139.5Y-72.12
X182.0Y-102.25
X189.62Y-102.25
X192.25Y-85.91
X151.87Y-93.08
X199.87Y-85.91
X151.87Y-95.62
X169.0Y-36.5
X169.0Y-44.12
X199.87Y-88.45
X199.87Y-90.99
X199.87Y-93.53
T3
X139.56Y-132.5
X142.1Y-132.5
X144.64Y-132.5
X147.18Y-132.5
X149.72Y-132.5
X152.26Y-132.5
X154.8Y-132.5
X157.34Y-132.5
X159.88Y-132.5
X162.42Y-132.5
X164.96Y-132.5
X167.5Y-132.5
T4
X176.5Y-38.5
X176.5Y-41.04
X176.5Y-43.58
X122.0Y-47.63
X122.0Y-55.25
T5
X196.5Y-65.4
X113.5Y-66.4
T6
X191.35Y-67.0
X201.65Y-67.0
X108.35Y-68.0
X118.65Y-68.0
T7
X126.85Y-89.75
X131.55Y-89.75
X136.25Y-89.75
X172.1Y-90.25
X176.8Y-90.25
X181.5Y-90.25
T3
G00X150.3Y-41.0
M15
G01X150.3Y-43.0
M16
G05
G00X156.0Y-39.0
M15
G01X154.0Y-39.0
M16
G05
G00X156.0Y-45.0
M15
G01X154.0Y-45.0
M16
G05
T0
M30
